<?xml version="1.0" encoding="UTF-8" standalone="no"?>
<!-- Created with Inkscape (http://www.inkscape.org/) -->

<svg
   width="90mm"
   height="20mm"
   viewBox="0 0 90 20"
   version="1.1"
   id="svg5"
   inkscape:version="1.2.2 (b0a8486, 2022-12-01)"
   sodipodi:docname="graph-unary.svg"
   xmlns:inkscape="http://www.inkscape.org/namespaces/inkscape"
   xmlns:sodipodi="http://sodipodi.sourceforge.net/DTD/sodipodi-0.dtd"
   xmlns="http://www.w3.org/2000/svg"
   xmlns:svg="http://www.w3.org/2000/svg">
  <sodipodi:namedview
     id="namedview7"
     pagecolor="#ffffff"
     bordercolor="#666666"
     borderopacity="1.0"
     inkscape:showpageshadow="2"
     inkscape:pageopacity="0.0"
     inkscape:pagecheckerboard="0"
     inkscape:deskcolor="#d1d1d1"
     inkscape:document-units="mm"
     showgrid="true"
     inkscape:zoom="2"
     inkscape:cx="171.25"
     inkscape:cy="36.25"
     inkscape:window-width="1440"
     inkscape:window-height="847"
     inkscape:window-x="0"
     inkscape:window-y="25"
     inkscape:window-maximized="1"
     inkscape:current-layer="text238-0-8">
    <inkscape:grid
       type="xygrid"
       id="grid182"
       units="mm"
       spacingx="0.99999999"
       spacingy="0.99999999"
       originx="0"
       originy="0" />
  </sodipodi:namedview>
  <defs
     id="defs2">
    <marker
       style="overflow:visible"
       id="TriangleStart"
       refX="0"
       refY="0"
       orient="auto-start-reverse"
       inkscape:stockid="TriangleStart"
       markerWidth="5.3244081"
       markerHeight="6.155385"
       viewBox="0 0 5.3244081 6.1553851"
       inkscape:isstock="true"
       inkscape:collect="always"
       preserveAspectRatio="xMidYMid">
      <path
         transform="scale(0.5)"
         style="fill:context-stroke;fill-rule:evenodd;stroke:context-stroke;stroke-width:1pt"
         d="M 5.77,0 -2.88,5 V -5 Z"
         id="path135" />
    </marker>
  </defs>
  <g
     inkscape:label="Layer 1"
     inkscape:groupmode="layer"
     id="layer1">
    <g
       aria-label="sin"
       id="text238"
       style="font-size:5.29167px;line-height:1.25;font-family:'Latin Modern Roman';-inkscape-font-specification:'Latin Modern Roman, ';stroke-width:0.264583">
      <path
         d="m 43.533541,7.387148 c 0,-0.2804585 -0.15875,-0.4392086 -0.22225,-0.5027086 -0.174625,-0.1693335 -0.381,-0.2116668 -0.60325,-0.2540002 -0.296334,-0.058208 -0.650876,-0.1270001 -0.650876,-0.4339169 0,-0.1852085 0.137584,-0.4021669 0.592667,-0.4021669 0.582084,0 0.608542,0.4762503 0.619126,0.640292 0.0053,0.047625 0.0635,0.047625 0.0635,0.047625 0.06879,0 0.06879,-0.026458 0.06879,-0.1270001 V 5.8208137 c 0,-0.089958 0,-0.1270001 -0.05821,-0.1270001 -0.02646,0 -0.03704,0 -0.105833,0.0635 -0.01588,0.021167 -0.06879,0.068792 -0.08996,0.084667 -0.201083,-0.1481668 -0.418042,-0.1481668 -0.497417,-0.1481668 -0.645583,0 -0.846667,0.3545419 -0.846667,0.6508754 0,0.1852085 0.08467,0.3333752 0.227542,0.449792 0.169333,0.1375834 0.3175,0.1693334 0.6985,0.2434168 0.116417,0.021167 0.550334,0.1058334 0.550334,0.4868336 0,0.2698752 -0.185208,0.481542 -0.597959,0.481542 -0.4445,0 -0.635,-0.3016252 -0.735542,-0.7514172 -0.01588,-0.068792 -0.02117,-0.089958 -0.07408,-0.089958 -0.06879,0 -0.06879,0.037042 -0.06879,0.1322917 V 7.99569 c 0,0.089958 0,0.1270001 0.05821,0.1270001 0.02646,0 0.03175,-0.00529 0.132291,-0.1058334 0.01058,-0.010583 0.01058,-0.021167 0.105834,-0.1217084 0.232833,0.2222501 0.470958,0.2275418 0.582083,0.2275418 0.608542,0 0.851959,-0.3545419 0.851959,-0.7355421 z"
         id="path3996" />
      <path
         d="M 45.020496,8.0644817 V 7.90044 c -0.34925,0 -0.370417,-0.026458 -0.370417,-0.2328335 V 5.7255637 l -0.740834,0.058208 v 0.1640418 c 0.343959,0 0.391584,0.03175 0.391584,0.2910418 v 1.4234592 c 0,0.2381252 -0.05821,0.2381252 -0.412751,0.2381252 v 0.1640417 l 0.582084,-0.015875 c 0.185209,0 0.370417,0.010583 0.550334,0.015875 z M 44.729454,4.8683131 c 0,-0.142875 -0.121709,-0.2804585 -0.280459,-0.2804585 -0.179916,0 -0.28575,0.1481668 -0.28575,0.2804585 0,0.1428751 0.121709,0.2804586 0.280459,0.2804586 0.179917,0 0.28575,-0.1481668 0.28575,-0.2804586 z"
         id="path3998" />
      <path
         d="M 48.01558,8.0644817 V 7.90044 c -0.275167,0 -0.407458,0 -0.41275,-0.1587501 v -1.010709 c 0,-0.4550836 0,-0.6191253 -0.164042,-0.8096255 -0.07408,-0.089958 -0.248708,-0.1957917 -0.555625,-0.1957917 -0.386292,0 -0.635,0.2275418 -0.783167,0.5556253 V 5.7255637 L 45.35387,5.783772 v 0.1640418 c 0.370417,0 0.412751,0.037042 0.412751,0.2963335 v 1.4181675 c 0,0.2381252 -0.05821,0.2381252 -0.412751,0.2381252 v 0.1640417 l 0.597959,-0.015875 0.592667,0.015875 V 7.90044 c -0.354542,0 -0.41275,0 -0.41275,-0.2381252 V 6.6886476 c 0,-0.5503337 0.375708,-0.8466672 0.714375,-0.8466672 0.333375,0 0.391584,0.2857502 0.391584,0.5873754 v 1.232959 c 0,0.2381252 -0.05821,0.2381252 -0.41275,0.2381252 v 0.1640417 l 0.597958,-0.015875 z"
         id="path4000" />
    </g>
    <g
       aria-label="x1"
       id="text238-0"
       style="font-size:5.29167px;line-height:1.25;font-family:'Latin Modern Roman';-inkscape-font-specification:'Latin Modern Roman, ';stroke-width:0.264583">
      <path
         d="M 10.976637,11.552292 V 11.38825 c -0.28575,0 -0.381,-0.01058 -0.502708,-0.164042 L 9.764845,10.308749 c 0.1587501,-0.201083 0.359834,-0.4603748 0.486834,-0.5979582 0.164041,-0.1905002 0.381,-0.2698752 0.629708,-0.2751669 V 9.2715822 c -0.137583,0.010583 -0.296333,0.015875 -0.433917,0.015875 -0.15875,0 -0.439208,-0.010583 -0.5079999,-0.015875 v 0.1640417 c 0.1111249,0.010583 0.1534579,0.079375 0.1534579,0.1640418 0,0.084667 -0.05292,0.1534584 -0.07938,0.1852084 L 9.6854699,10.197624 9.2727197,9.6631657 c -0.047625,-0.052917 -0.047625,-0.0635 -0.047625,-0.09525 0,-0.079375 0.079375,-0.1270001 0.1852085,-0.1322918 V 9.2715822 l -0.5715004,0.015875 c -0.111125,0 -0.3598335,-0.00529 -0.5027086,-0.015875 v 0.1640417 c 0.3704169,0 0.3757086,0.00529 0.624417,0.3227919 l 0.5238754,0.6826252 c -0.2487085,0.3175 -0.2487085,0.328084 -0.497417,0.629709 -0.2540002,0.306917 -0.5662087,0.3175 -0.6773338,0.3175 v 0.164042 c 0.1375835,-0.01058 0.3016252,-0.01587 0.4392086,-0.01587 l 0.5027087,0.01587 V 11.38825 c -0.1164168,-0.01587 -0.1534584,-0.08467 -0.1534584,-0.164042 0,-0.116416 0.1534584,-0.291042 0.4762502,-0.672042 l 0.402167,0.529167 c 0.042333,0.05821 0.1111252,0.142875 0.1111252,0.174625 0,0.04763 -0.04763,0.127 -0.1905003,0.132292 v 0.164042 l 0.5715003,-0.01587 c 0.142875,0 0.34925,0.0053 0.508,0.01587 z"
         id="path4003" />
      <path
         d="m 12.481323,12.610626 v -0.106627 h -0.110067 c -0.309562,0 -0.319881,-0.03784 -0.319881,-0.1651 v -1.929608 c 0,-0.08255 0,-0.08943 -0.07911,-0.08943 -0.213254,0.220134 -0.515937,0.220134 -0.626004,0.220134 v 0.106627 c 0.06879,0 0.271727,0 0.450586,-0.08943 v 1.781706 c 0,0.123825 -0.01032,0.1651 -0.319882,0.1651 h -0.110067 v 0.106627 c 0.120386,-0.01032 0.41963,-0.01032 0.557213,-0.01032 0.137584,0 0.436828,0 0.557213,0.01032 z"
         style="font-size:65%;baseline-shift:sub"
         id="path4005" />
    </g>
    <circle
       style="fill:none;stroke:#000000;stroke-width:0.265;stroke-dasharray:none;stroke-opacity:1"
       id="path548"
       cx="10.159374"
       cy="10.279646"
       r="5" />
    <g
       aria-label="x2"
       id="text238-0-8"
       style="font-size:5.29167px;line-height:1.25;font-family:'Latin Modern Roman';-inkscape-font-specification:'Latin Modern Roman, ';stroke-width:0.264583">
      <path
         d="M 80.393298,11.552292 V 11.38825 c -0.285751,0 -0.381001,-0.01058 -0.502709,-0.164042 l -0.709084,-0.915459 c 0.15875,-0.201083 0.359834,-0.4603748 0.486834,-0.5979582 0.164042,-0.1905002 0.381,-0.2698752 0.629709,-0.2751669 V 9.2715822 c -0.137584,0.010583 -0.296334,0.015875 -0.433917,0.015875 -0.15875,0 -0.439209,-0.010583 -0.508001,-0.015875 v 0.1640417 c 0.111125,0.010583 0.153459,0.079375 0.153459,0.1640418 0,0.084667 -0.05292,0.1534584 -0.07937,0.1852084 L 79.10213,10.197624 78.68938,9.6631657 c -0.04762,-0.052917 -0.04762,-0.0635 -0.04762,-0.09525 0,-0.079375 0.07937,-0.1270001 0.185208,-0.1322918 V 9.2715822 l -0.5715,0.015875 c -0.111125,0 -0.359834,-0.00529 -0.502709,-0.015875 v 0.1640417 c 0.370417,0 0.375709,0.00529 0.624417,0.3227919 l 0.523876,0.6826252 c -0.248709,0.3175 -0.248709,0.328084 -0.497417,0.629709 -0.254,0.306917 -0.566209,0.3175 -0.677334,0.3175 v 0.164042 c 0.137583,-0.01058 0.301625,-0.01587 0.439209,-0.01587 l 0.502708,0.01587 V 11.38825 c -0.116416,-0.01587 -0.153458,-0.08467 -0.153458,-0.164042 0,-0.116416 0.153458,-0.291042 0.47625,-0.672042 l 0.402167,0.529167 c 0.04233,0.05821 0.111125,0.142875 0.111125,0.174625 0,0.04763 -0.04762,0.127 -0.1905,0.132292 v 0.164042 l 0.5715,-0.01587 c 0.142875,0 0.349251,0.0053 0.508001,0.01587 z"
         id="path3991" />
      <path
         d="m 82.001171,12.012138 h -0.08599 c -0.0172,0.103188 -0.04127,0.254529 -0.07567,0.306123 -0.02408,0.02752 -0.251089,0.02752 -0.32676,0.02752 h -0.619126 l 0.364596,-0.354277 c 0.536576,-0.474663 0.742951,-0.660401 0.742951,-1.004359 0,-0.392113 -0.309563,-0.66728 -0.729192,-0.66728 -0.388673,0 -0.643203,0.316442 -0.643203,0.622565 0,0.192617 0.17198,0.192617 0.182298,0.192617 0.05847,0 0.178859,-0.04128 0.178859,-0.182298 0,-0.08943 -0.06191,-0.178859 -0.182298,-0.178859 -0.02752,0 -0.0344,0 -0.04472,0.0034 0.07911,-0.223573 0.264848,-0.350838 0.464344,-0.350838 0.313002,0 0.460905,0.278607 0.460905,0.560653 0,0.275166 -0.17198,0.546894 -0.361157,0.760148 l -0.6604,0.736071 c -0.03784,0.03784 -0.03784,0.04472 -0.03784,0.127265 h 1.276086 z"
         style="font-size:65%;baseline-shift:sub"
         id="path3993" />
    </g>
    <circle
       style="fill:none;stroke:#000000;stroke-width:0.265;stroke-dasharray:none;stroke-opacity:1"
       id="path548-9"
       cx="79.840622"
       cy="10.279646"
       r="5" />
    <path
       style="fill:none;stroke:#000000;stroke-width:0.264583px;stroke-linecap:butt;stroke-linejoin:miter;stroke-opacity:1;marker-end:url(#TriangleStart)"
       d="M 15.017707,10.150479 H 73.887498"
       id="path3527"
       sodipodi:nodetypes="cc" />
  </g>
</svg>
