<?xml version="1.0" encoding="UTF-8" standalone="no"?>
<!-- Created with Inkscape (http://www.inkscape.org/) -->

<svg
   width="100mm"
   height="60mm"
   viewBox="0 0 100 60"
   version="1.1"
   id="svg5"
   inkscape:version="1.2.2 (b0a8486, 2022-12-01)"
   sodipodi:docname="graph-example.svg"
   xmlns:inkscape="http://www.inkscape.org/namespaces/inkscape"
   xmlns:sodipodi="http://sodipodi.sourceforge.net/DTD/sodipodi-0.dtd"
   xmlns="http://www.w3.org/2000/svg"
   xmlns:svg="http://www.w3.org/2000/svg">
  <sodipodi:namedview
     id="namedview7"
     pagecolor="#ffffff"
     bordercolor="#666666"
     borderopacity="1.0"
     inkscape:showpageshadow="2"
     inkscape:pageopacity="0.0"
     inkscape:pagecheckerboard="0"
     inkscape:deskcolor="#d1d1d1"
     inkscape:document-units="mm"
     showgrid="true"
     inkscape:zoom="2"
     inkscape:cx="182.75"
     inkscape:cy="104.25"
     inkscape:window-width="1440"
     inkscape:window-height="847"
     inkscape:window-x="0"
     inkscape:window-y="25"
     inkscape:window-maximized="1"
     inkscape:current-layer="layer1">
    <inkscape:grid
       type="xygrid"
       id="grid182"
       units="mm"
       spacingx="0.99999999"
       spacingy="0.99999999"
       originx="0"
       originy="0" />
  </sodipodi:namedview>
  <defs
     id="defs2">
    <marker
       style="overflow:visible"
       id="TriangleStart"
       refX="0"
       refY="0"
       orient="auto-start-reverse"
       inkscape:stockid="TriangleStart"
       markerWidth="5.3244081"
       markerHeight="6.155385"
       viewBox="0 0 5.3244081 6.1553851"
       inkscape:isstock="true"
       inkscape:collect="always"
       preserveAspectRatio="xMidYMid">
      <path
         transform="scale(0.5)"
         style="fill:context-stroke;fill-rule:evenodd;stroke:context-stroke;stroke-width:1pt"
         d="M 5.77,0 -2.88,5 V -5 Z"
         id="path135" />
    </marker>
    <marker
       style="overflow:visible"
       id="TriangleStart-4"
       refX="0"
       refY="0"
       orient="auto-start-reverse"
       inkscape:stockid="TriangleStart"
       markerWidth="5.3244081"
       markerHeight="6.155385"
       viewBox="0 0 5.3244081 6.1553851"
       inkscape:isstock="true"
       inkscape:collect="always"
       preserveAspectRatio="xMidYMid">
      <path
         transform="scale(0.5)"
         style="fill:context-stroke;fill-rule:evenodd;stroke:context-stroke;stroke-width:1pt"
         d="M 5.77,0 -2.88,5 V -5 Z"
         id="path135-9" />
    </marker>
    <marker
       style="overflow:visible"
       id="TriangleStart-4-3"
       refX="0"
       refY="0"
       orient="auto-start-reverse"
       inkscape:stockid="TriangleStart"
       markerWidth="5.3244081"
       markerHeight="6.155385"
       viewBox="0 0 5.3244081 6.1553851"
       inkscape:isstock="true"
       inkscape:collect="always"
       preserveAspectRatio="xMidYMid">
      <path
         transform="scale(0.5)"
         style="fill:context-stroke;fill-rule:evenodd;stroke:context-stroke;stroke-width:1pt"
         d="M 5.77,0 -2.88,5 V -5 Z"
         id="path135-9-7" />
    </marker>
    <marker
       style="overflow:visible"
       id="TriangleStart-4-3-6"
       refX="0"
       refY="0"
       orient="auto-start-reverse"
       inkscape:stockid="TriangleStart"
       markerWidth="5.3244081"
       markerHeight="6.155385"
       viewBox="0 0 5.3244081 6.1553851"
       inkscape:isstock="true"
       inkscape:collect="always"
       preserveAspectRatio="xMidYMid">
      <path
         transform="scale(0.5)"
         style="fill:context-stroke;fill-rule:evenodd;stroke:context-stroke;stroke-width:1pt"
         d="M 5.77,0 -2.88,5 V -5 Z"
         id="path135-9-7-1" />
    </marker>
    <marker
       style="overflow:visible"
       id="TriangleStart-4-3-6-1"
       refX="0"
       refY="0"
       orient="auto-start-reverse"
       inkscape:stockid="TriangleStart"
       markerWidth="5.3244081"
       markerHeight="6.155385"
       viewBox="0 0 5.3244081 6.1553851"
       inkscape:isstock="true"
       inkscape:collect="always"
       preserveAspectRatio="xMidYMid">
      <path
         transform="scale(0.5)"
         style="fill:context-stroke;fill-rule:evenodd;stroke:context-stroke;stroke-width:1pt"
         d="M 5.77,0 -2.88,5 V -5 Z"
         id="path135-9-7-1-1" />
    </marker>
    <marker
       style="overflow:visible"
       id="TriangleStart-4-3-5"
       refX="0"
       refY="0"
       orient="auto-start-reverse"
       inkscape:stockid="TriangleStart"
       markerWidth="5.3244081"
       markerHeight="6.155385"
       viewBox="0 0 5.3244081 6.1553851"
       inkscape:isstock="true"
       inkscape:collect="always"
       preserveAspectRatio="xMidYMid">
      <path
         transform="scale(0.5)"
         style="fill:context-stroke;fill-rule:evenodd;stroke:context-stroke;stroke-width:1pt"
         d="M 5.77,0 -2.88,5 V -5 Z"
         id="path135-9-7-2" />
    </marker>
    <marker
       style="overflow:visible"
       id="TriangleStart-4-3-5-0"
       refX="0"
       refY="0"
       orient="auto-start-reverse"
       inkscape:stockid="TriangleStart"
       markerWidth="5.3244081"
       markerHeight="6.155385"
       viewBox="0 0 5.3244081 6.1553851"
       inkscape:isstock="true"
       inkscape:collect="always"
       preserveAspectRatio="xMidYMid">
      <path
         transform="scale(0.5)"
         style="fill:context-stroke;fill-rule:evenodd;stroke:context-stroke;stroke-width:1pt"
         d="M 5.77,0 -2.88,5 V -5 Z"
         id="path135-9-7-2-4" />
    </marker>
  </defs>
  <g
     inkscape:label="Layer 1"
     inkscape:groupmode="layer"
     id="layer1">
    <g
       aria-label="x1"
       id="text238-0"
       style="font-size:5.29167px;line-height:1.25;font-family:'Latin Modern Roman';-inkscape-font-specification:'Latin Modern Roman, ';stroke-width:0.264583"
       transform="translate(0.13229166,-0.2794376)">
      <path
         d="M 10.976637,11.552292 V 11.38825 c -0.28575,0 -0.381,-0.01058 -0.502708,-0.164042 L 9.764845,10.308749 c 0.1587501,-0.201083 0.359834,-0.4603748 0.486834,-0.5979582 0.164041,-0.1905002 0.381,-0.2698752 0.629708,-0.2751669 V 9.2715822 c -0.137583,0.010583 -0.296333,0.015875 -0.433917,0.015875 -0.15875,0 -0.439208,-0.010583 -0.5079999,-0.015875 v 0.1640417 c 0.1111249,0.010583 0.1534579,0.079375 0.1534579,0.1640418 0,0.084667 -0.05292,0.1534584 -0.07938,0.1852084 L 9.6854699,10.197624 9.2727197,9.6631657 c -0.047625,-0.052917 -0.047625,-0.0635 -0.047625,-0.09525 0,-0.079375 0.079375,-0.1270001 0.1852085,-0.1322918 V 9.2715822 l -0.5715004,0.015875 c -0.111125,0 -0.3598335,-0.00529 -0.5027086,-0.015875 v 0.1640417 c 0.3704169,0 0.3757086,0.00529 0.624417,0.3227919 l 0.5238754,0.6826252 c -0.2487085,0.3175 -0.2487085,0.328084 -0.497417,0.629709 -0.2540002,0.306917 -0.5662087,0.3175 -0.6773338,0.3175 v 0.164042 c 0.1375835,-0.01058 0.3016252,-0.01587 0.4392086,-0.01587 l 0.5027087,0.01587 V 11.38825 C 9.1351363,11.37238 9.0980947,11.30358 9.0980947,11.224208 c 0,-0.116416 0.1534584,-0.291042 0.4762502,-0.672042 l 0.402167,0.529167 c 0.042333,0.05821 0.1111251,0.142875 0.1111251,0.174625 0,0.04763 -0.04763,0.127 -0.1905002,0.132292 v 0.164042 l 0.5715002,-0.01587 c 0.142875,0 0.34925,0.0053 0.508,0.01587 z"
         id="path4003" />
      <path
         d="m 12.481323,12.610626 v -0.106627 h -0.110067 c -0.309562,0 -0.319881,-0.03784 -0.319881,-0.1651 v -1.929608 c 0,-0.08255 0,-0.08943 -0.07911,-0.08943 -0.213254,0.220134 -0.515937,0.220134 -0.626004,0.220134 v 0.106627 c 0.06879,0 0.271727,0 0.450586,-0.08943 v 1.781706 c 0,0.123825 -0.01032,0.1651 -0.319882,0.1651 h -0.110067 v 0.106627 c 0.120386,-0.01032 0.41963,-0.01032 0.557213,-0.01032 0.137584,0 0.436828,0 0.557213,0.01032 z"
         style="font-size:65%;baseline-shift:sub"
         id="path4005" />
    </g>
    <circle
       style="fill:none;stroke:#a22a17;stroke-width:0.265;stroke-dasharray:none;stroke-opacity:1"
       id="path548"
       cx="10.159374"
       cy="10.1325"
       r="5" />
    <path
       style="fill:none;stroke:#000000;stroke-width:0.264583px;stroke-linecap:butt;stroke-linejoin:miter;stroke-opacity:1;marker-end:url(#TriangleStart-4)"
       d="M 14.86162,48.253483 29.57064,42.227425"
       id="path3527-1"
       sodipodi:nodetypes="cc" />
    <path
       style="fill:none;stroke:#000000;stroke-width:0.264583px;stroke-linecap:butt;stroke-linejoin:miter;stroke-opacity:1;marker-end:url(#TriangleStart-4-3)"
       d="m 14.780041,28.215983 14.70902,-6.026058"
       id="path3527-1-1"
       sodipodi:nodetypes="cc" />
    <path
       style="fill:none;stroke:#000000;stroke-width:0.264583px;stroke-linecap:butt;stroke-linejoin:miter;stroke-opacity:1;marker-end:url(#TriangleStart-4-3-6)"
       d="m 14.834838,11.832343 14.70902,6.026058"
       id="path3527-1-1-7"
       sodipodi:nodetypes="cc" />
    <path
       style="fill:none;stroke:#000000;stroke-width:0.264583px;stroke-linecap:butt;stroke-linejoin:miter;stroke-opacity:1;marker-end:url(#TriangleStart-4-3-5)"
       d="m 39.778662,38.112436 14.70902,-6.026058"
       id="path3527-1-1-2"
       sodipodi:nodetypes="cc" />
    <path
       style="fill:none;stroke:#000000;stroke-width:0.264583px;stroke-linecap:butt;stroke-linejoin:miter;stroke-opacity:1;marker-end:url(#TriangleStart-4-3-5-0)"
       d="M 65.19471,30.160999 84.070918,29.955774"
       id="path3527-1-1-2-9"
       sodipodi:nodetypes="cc" />
    <path
       style="fill:none;stroke:#000000;stroke-width:0.264583px;stroke-linecap:butt;stroke-linejoin:miter;stroke-opacity:1;marker-end:url(#TriangleStart-4-3-6-1)"
       d="m 39.833459,21.728796 14.70902,6.026058"
       id="path3527-1-1-7-2"
       sodipodi:nodetypes="cc" />
    <g
       aria-label="x3"
       id="text448"
       style="font-size:5.29167px;line-height:1.25;font-family:'Latin Modern Roman';-inkscape-font-specification:'Latin Modern Roman, ';stroke-width:0.264583"
       transform="translate(-43.76949,38.722103)">
      <path
         d="m 54.853419,12.567708 v -0.164042 c -0.28575,0 -0.381,-0.01058 -0.502709,-0.164042 l -0.709084,-0.915458 c 0.158751,-0.201084 0.359834,-0.460376 0.486834,-0.597959 0.164042,-0.1905 0.381,-0.269875 0.629709,-0.275167 v -0.164042 c -0.137584,0.01058 -0.296334,0.01587 -0.433917,0.01587 -0.15875,0 -0.439209,-0.01058 -0.508,-0.01587 v 0.164042 c 0.111125,0.01058 0.153458,0.07937 0.153458,0.164042 0,0.08467 -0.05292,0.153458 -0.07937,0.185208 l -0.328084,0.412751 -0.41275,-0.534459 c -0.04763,-0.05292 -0.04763,-0.0635 -0.04763,-0.09525 0,-0.07938 0.07938,-0.127 0.185209,-0.132292 v -0.164042 l -0.571501,0.01587 c -0.111125,0 -0.359833,-0.0053 -0.502708,-0.01587 v 0.164042 c 0.370416,0 0.375708,0.0053 0.624417,0.322792 l 0.523875,0.682625 c -0.248709,0.317501 -0.248709,0.328084 -0.497417,0.629709 -0.254,0.306917 -0.566209,0.3175 -0.677334,0.3175 v 0.164042 c 0.137584,-0.01058 0.301625,-0.01587 0.439209,-0.01587 l 0.502708,0.01587 v -0.164042 c -0.116416,-0.01587 -0.153458,-0.08467 -0.153458,-0.164042 0,-0.116416 0.153458,-0.291041 0.47625,-0.672042 l 0.402167,0.529167 c 0.04233,0.05821 0.111125,0.142875 0.111125,0.174626 0,0.04763 -0.04763,0.127 -0.1905,0.132291 v 0.164042 l 0.571501,-0.01587 c 0.142875,0 0.34925,0.0053 0.508,0.01587 z"
         id="path502" />
      <path
         d="m 56.488809,13.037873 c 0,-0.282046 -0.216694,-0.550334 -0.574411,-0.622565 0.282046,-0.09287 0.481542,-0.33364 0.481542,-0.605367 0,-0.282046 -0.302684,-0.474663 -0.632884,-0.474663 -0.347398,0 -0.608806,0.206375 -0.608806,0.467784 0,0.113506 0.07567,0.178858 0.175419,0.178858 0.106627,0 0.175418,-0.07567 0.175418,-0.175419 0,-0.171979 -0.16166,-0.171979 -0.213254,-0.171979 0.106627,-0.16854 0.33364,-0.213254 0.457465,-0.213254 0.141023,0 0.3302,0.07567 0.3302,0.385233 0,0.04127 -0.0069,0.240771 -0.09631,0.392113 -0.103188,0.1651 -0.220134,0.175419 -0.306123,0.178859 -0.02752,0.0034 -0.110067,0.01032 -0.134144,0.01032 -0.02752,0.0034 -0.05159,0.0069 -0.05159,0.04128 0,0.03784 0.02408,0.03784 0.08255,0.03784 h 0.151342 c 0.282046,0 0.40931,0.233892 0.40931,0.570971 0,0.467784 -0.237331,0.567531 -0.388673,0.567531 -0.147902,0 -0.405871,-0.05847 -0.526256,-0.261408 0.120385,0.0172 0.227012,-0.05847 0.227012,-0.189177 0,-0.123825 -0.09287,-0.192617 -0.192616,-0.192617 -0.08255,0 -0.192617,0.04815 -0.192617,0.199496 0,0.313002 0.319881,0.540015 0.694796,0.540015 0.419629,0 0.732632,-0.313002 0.732632,-0.66384 z"
         style="font-size:65%;baseline-shift:sub"
         id="path504" />
    </g>
    <circle
       style="fill:none;stroke:#a22a17;stroke-width:0.265;stroke-dasharray:none;stroke-opacity:1"
       id="path548-9"
       cx="10.1325"
       cy="50.1325"
       r="5" />
    <g
       aria-label="x2"
       id="text238-0-8-4"
       style="font-size:5.29167px;line-height:1.25;font-family:'Latin Modern Roman';-inkscape-font-specification:'Latin Modern Roman, ';stroke-width:0.264583"
       transform="translate(-69.284373,19.658214)">
      <path
         d="M 80.393298,11.552292 V 11.38825 c -0.285751,0 -0.381001,-0.01058 -0.502709,-0.164042 l -0.709084,-0.915459 c 0.15875,-0.201083 0.359834,-0.4603748 0.486834,-0.5979582 0.164042,-0.1905002 0.381,-0.2698752 0.629709,-0.2751669 V 9.2715822 c -0.137584,0.010583 -0.296334,0.015875 -0.433917,0.015875 -0.15875,0 -0.439209,-0.010583 -0.508001,-0.015875 v 0.1640417 c 0.111125,0.010583 0.153459,0.079375 0.153459,0.1640418 0,0.084667 -0.05292,0.1534584 -0.07937,0.1852084 L 79.10213,10.197624 78.68938,9.6631657 c -0.04762,-0.052917 -0.04762,-0.0635 -0.04762,-0.09525 0,-0.079375 0.07937,-0.1270001 0.185208,-0.1322918 V 9.2715822 l -0.5715,0.015875 c -0.111125,0 -0.359834,-0.00529 -0.502709,-0.015875 v 0.1640417 c 0.370417,0 0.375709,0.00529 0.624417,0.3227919 l 0.523876,0.6826252 c -0.248709,0.3175 -0.248709,0.328084 -0.497417,0.629709 -0.254,0.306917 -0.566209,0.3175 -0.677334,0.3175 v 0.164042 c 0.137583,-0.01058 0.301625,-0.01587 0.439209,-0.01587 l 0.502708,0.01587 V 11.38825 c -0.116416,-0.01587 -0.153458,-0.08467 -0.153458,-0.164042 0,-0.116416 0.153458,-0.291042 0.47625,-0.672042 l 0.402167,0.529167 c 0.04233,0.05821 0.111125,0.142875 0.111125,0.174625 0,0.04763 -0.04762,0.127 -0.1905,0.132292 v 0.164042 l 0.5715,-0.01587 c 0.142875,0 0.349251,0.0053 0.508001,0.01587 z"
         id="path3991-8" />
      <path
         d="m 82.001171,12.012138 h -0.08599 c -0.0172,0.103188 -0.04127,0.254529 -0.07567,0.306123 -0.02408,0.02752 -0.251089,0.02752 -0.32676,0.02752 h -0.619126 l 0.364596,-0.354277 c 0.536576,-0.474663 0.742951,-0.660401 0.742951,-1.004359 0,-0.392113 -0.309563,-0.66728 -0.729192,-0.66728 -0.388673,0 -0.643203,0.316442 -0.643203,0.622565 0,0.192617 0.17198,0.192617 0.182298,0.192617 0.05847,0 0.178859,-0.04128 0.178859,-0.182298 0,-0.08943 -0.06191,-0.178859 -0.182298,-0.178859 -0.02752,0 -0.0344,0 -0.04472,0.0034 0.07911,-0.223573 0.264848,-0.350838 0.464344,-0.350838 0.313002,0 0.460905,0.278607 0.460905,0.560653 0,0.275166 -0.17198,0.546894 -0.361157,0.760148 l -0.6604,0.736071 c -0.03784,0.03784 -0.03784,0.04472 -0.03784,0.127265 h 1.276086 z"
         style="font-size:65%;baseline-shift:sub"
         id="path3993-3" />
    </g>
    <circle
       style="fill:none;stroke:#a22a17;stroke-width:0.265;stroke-dasharray:none;stroke-opacity:1"
       id="path548-9-9"
       cx="10.159374"
       cy="29.93786"
       r="5" />
    <g
       aria-label="+"
       id="text759"
       style="font-size:5.29167px;line-height:1.25;font-family:'Latin Modern Roman';-inkscape-font-specification:'Latin Modern Roman, ';stroke-width:0.264583"
       transform="translate(-7.4003075,9.9218753)">
      <path
         d="m 60.142744,20 c 0,-0.105833 -0.100542,-0.105833 -0.174625,-0.105833 H 58.491743 V 18.4125 c 0,-0.07408 0,-0.174626 -0.105834,-0.174626 -0.105833,0 -0.105833,0.100542 -0.105833,0.174626 v 1.481667 h -1.481668 c -0.07408,0 -0.174625,0 -0.174625,0.105833 0,0.105834 0.100542,0.105834 0.174625,0.105834 h 1.481668 v 1.481667 c 0,0.07408 0,0.174626 0.105833,0.174626 0.105834,0 0.105834,-0.100542 0.105834,-0.174626 v -1.481667 h 1.476376 c 0.07408,0 0.174625,0 0.174625,-0.105834 z"
         id="path789" />
    </g>
    <g
       id="g782"
       transform="translate(5.0000003,-30)">
      <circle
         style="fill:none;stroke:#000000;stroke-width:0.265;stroke-dasharray:none;stroke-opacity:1"
         id="path548-9-0"
         cx="30.1325"
         cy="50.1325"
         r="5" />
      <g
         aria-label="x4"
         id="text519"
         style="font-size:5.29167px;line-height:1.25;font-family:'Latin Modern Roman';-inkscape-font-specification:'Latin Modern Roman, ';stroke-width:0.264583"
         transform="translate(-13.361458,8.9958334)">
        <path
           d="M 44.534667,42.333332 V 42.16929 c -0.285751,0 -0.381001,-0.01058 -0.502709,-0.164041 L 43.322874,41.08979 c 0.15875,-0.201084 0.359834,-0.460376 0.486834,-0.597959 0.164042,-0.1905 0.381,-0.269875 0.629708,-0.275167 v -0.164042 c -0.137583,0.01058 -0.296333,0.01588 -0.433916,0.01588 -0.158751,0 -0.439209,-0.01058 -0.508001,-0.01588 v 0.164042 c 0.111125,0.01058 0.153459,0.07937 0.153459,0.164042 0,0.08467 -0.05292,0.153458 -0.07938,0.185208 l -0.328084,0.412751 -0.41275,-0.534459 c -0.04762,-0.05292 -0.04762,-0.0635 -0.04762,-0.09525 0,-0.07937 0.07937,-0.127 0.185208,-0.132292 v -0.164042 l -0.5715,0.01588 c -0.111125,0 -0.359834,-0.0053 -0.502709,-0.01588 v 0.164042 c 0.370417,0 0.375709,0.0053 0.624417,0.322792 l 0.523876,0.682625 c -0.248709,0.317501 -0.248709,0.328084 -0.497417,0.629709 -0.254,0.306917 -0.566209,0.3175 -0.677334,0.3175 v 0.164042 c 0.137583,-0.01058 0.301625,-0.01588 0.439209,-0.01588 l 0.502708,0.01588 V 42.16929 c -0.116417,-0.01587 -0.153458,-0.08467 -0.153458,-0.164041 0,-0.116417 0.153458,-0.291042 0.47625,-0.672043 l 0.402167,0.529167 c 0.04233,0.05821 0.111125,0.142876 0.111125,0.174626 0,0.04762 -0.04762,0.127 -0.1905,0.132291 v 0.164042 l 0.5715,-0.01588 c 0.142875,0 0.34925,0.0053 0.508001,0.01588 z"
           id="path654" />
        <path
           d="m 46.218211,42.824134 v -0.106627 h -0.343959 v -1.565011 c 0,-0.06879 0,-0.08943 -0.05503,-0.08943 -0.03096,0 -0.04127,0 -0.06879,0.04128 l -1.055953,1.613165 v 0.106627 h 0.91493 v 0.299244 c 0,0.123825 -0.0069,0.161661 -0.261408,0.161661 h -0.07223 v 0.106627 c 0.141023,-0.01032 0.319882,-0.01032 0.464344,-0.01032 0.144463,0 0.326761,0 0.467784,0.01032 v -0.106627 h -0.07223 c -0.25453,0 -0.261409,-0.03784 -0.261409,-0.161661 v -0.299244 z m -0.588169,-0.106627 h -0.839259 l 0.839259,-1.282965 z"
           style="font-size:65%;baseline-shift:sub"
           id="path656" />
      </g>
    </g>
    <g
       id="g818"
       transform="translate(-9.9999997,-9.9999997)">
      <circle
         style="fill:none;stroke:#000000;stroke-width:0.265;stroke-dasharray:none;stroke-opacity:1"
         id="path548-9-0-9"
         cx="45.1325"
         cy="50.1325"
         r="5" />
      <g
         aria-label="x5"
         id="text519-4"
         style="font-size:5.29167px;line-height:1.25;font-family:'Latin Modern Roman';-inkscape-font-specification:'Latin Modern Roman, ';stroke-width:0.264583"
         transform="translate(-9.9218743,9.7895834)">
        <path
           d="m 56.054228,41.621605 v -0.164042 c -0.28575,0 -0.381,-0.01058 -0.502708,-0.164042 l -0.709084,-0.915458 c 0.15875,-0.201084 0.359833,-0.460376 0.486834,-0.597959 0.164041,-0.1905 0.381,-0.269875 0.629708,-0.275167 v -0.164042 c -0.137583,0.01058 -0.296333,0.01587 -0.433917,0.01587 -0.15875,0 -0.439208,-0.01058 -0.508,-0.01587 v 0.164042 c 0.111125,0.01058 0.153458,0.07937 0.153458,0.164042 0,0.08467 -0.05292,0.153458 -0.07937,0.185208 l -0.328083,0.41275 -0.41275,-0.534458 c -0.04762,-0.05292 -0.04762,-0.0635 -0.04762,-0.09525 0,-0.07937 0.07937,-0.127 0.185208,-0.132292 v -0.164042 l -0.5715,0.01587 c -0.111125,0 -0.359834,-0.0053 -0.502709,-0.01587 v 0.164042 c 0.370417,0 0.375709,0.0053 0.624417,0.322792 l 0.523875,0.682625 c -0.248708,0.3175 -0.248708,0.328084 -0.497417,0.629709 -0.254,0.306917 -0.566208,0.3175 -0.677333,0.3175 v 0.164042 c 0.137583,-0.01058 0.301625,-0.01588 0.439208,-0.01588 l 0.502709,0.01588 v -0.164042 c -0.116417,-0.01588 -0.153459,-0.08467 -0.153459,-0.164042 0,-0.116416 0.153459,-0.291041 0.476251,-0.672042 l 0.402167,0.529167 c 0.04233,0.05821 0.111125,0.142875 0.111125,0.174625 0,0.04762 -0.04762,0.127 -0.1905,0.132292 v 0.164042 l 0.5715,-0.01588 c 0.142875,0 0.34925,0.0053 0.508,0.01588 z"
           id="path639" />
        <path
           d="m 57.662102,41.988582 c 0,-0.40931 -0.282046,-0.753269 -0.653522,-0.753269 -0.1651,0 -0.313002,0.05503 -0.436827,0.175419 v -0.670719 c 0.06879,0.02064 0.182298,0.04471 0.292365,0.04471 0.423069,0 0.66384,-0.313002 0.66384,-0.357716 0,-0.02064 -0.01032,-0.03784 -0.0344,-0.03784 0,0 -0.01032,0 -0.02752,0.01032 -0.06879,0.03096 -0.237331,0.09975 -0.467783,0.09975 -0.137584,0 -0.295805,-0.02408 -0.457465,-0.09631 -0.02752,-0.01032 -0.04127,-0.01032 -0.04127,-0.01032 -0.0344,0 -0.0344,0.02752 -0.0344,0.08255 v 1.018117 c 0,0.06191 0,0.08943 0.04815,0.08943 0.02408,0 0.03096,-0.01032 0.04471,-0.03096 0.03784,-0.05503 0.1651,-0.240771 0.443706,-0.240771 0.178859,0 0.264848,0.158221 0.292365,0.220133 0.05503,0.127265 0.06191,0.261409 0.06191,0.433388 0,0.120386 0,0.326761 -0.08255,0.471223 -0.08255,0.134144 -0.209814,0.223573 -0.368035,0.223573 -0.25109,0 -0.447146,-0.182298 -0.505619,-0.385233 0.01032,0.0034 0.02064,0.0069 0.05847,0.0069 0.113506,0 0.171979,-0.08599 0.171979,-0.16854 0,-0.08255 -0.05847,-0.168539 -0.171979,-0.168539 -0.04816,0 -0.16854,0.02408 -0.16854,0.182298 0,0.295804 0.237331,0.629444 0.622565,0.629444 0.398992,0 0.74983,-0.3302 0.74983,-0.767028 z"
           style="font-size:65%;baseline-shift:sub"
           id="path641" />
      </g>
    </g>
    <g
       id="g824"
       transform="translate(2.9802323e-7,-20)">
      <circle
         style="fill:none;stroke:#000000;stroke-width:0.265;stroke-dasharray:none;stroke-opacity:1"
         id="path548-9-0-9-8"
         cx="60.1325"
         cy="50.1325"
         r="5" />
      <g
         aria-label="x6"
         id="text519-3"
         style="font-size:5.29167px;line-height:1.25;font-family:'Latin Modern Roman';-inkscape-font-specification:'Latin Modern Roman, ';stroke-width:0.264583"
         transform="translate(3.1749999,5.5562501)">
        <path
           d="m 57.906313,45.722649 v -0.164042 c -0.28575,0 -0.381,-0.01058 -0.502708,-0.164042 l -0.709084,-0.915459 c 0.15875,-0.201083 0.359834,-0.460375 0.486834,-0.597958 0.164041,-0.190501 0.381,-0.269876 0.629708,-0.275167 v -0.164042 c -0.137583,0.01058 -0.296333,0.01588 -0.433917,0.01588 -0.15875,0 -0.439208,-0.01058 -0.508,-0.01588 v 0.164042 c 0.111125,0.01058 0.153459,0.07937 0.153459,0.164041 0,0.08467 -0.05292,0.153459 -0.07938,0.185209 l -0.328083,0.41275 -0.41275,-0.534459 c -0.04763,-0.05292 -0.04763,-0.0635 -0.04763,-0.09525 0,-0.07937 0.07938,-0.127 0.185208,-0.132291 v -0.164042 l -0.5715,0.01588 c -0.111125,0 -0.359834,-0.0053 -0.502709,-0.01588 v 0.164042 c 0.370417,0 0.375709,0.0053 0.624417,0.322792 l 0.523876,0.682625 c -0.248709,0.3175 -0.248709,0.328083 -0.497417,0.629709 -0.254001,0.306917 -0.566209,0.3175 -0.677334,0.3175 v 0.164042 c 0.137583,-0.01058 0.301625,-0.01587 0.439208,-0.01587 l 0.502709,0.01587 v -0.164042 c -0.116417,-0.01588 -0.153458,-0.08467 -0.153458,-0.164042 0,-0.116417 0.153458,-0.291042 0.47625,-0.672042 l 0.402167,0.529167 c 0.04233,0.05821 0.111125,0.142875 0.111125,0.174625 0,0.04762 -0.04763,0.127 -0.1905,0.132292 v 0.164042 l 0.5715,-0.01587 c 0.142875,0 0.34925,0.0053 0.508,0.01587 z"
           id="path644" />
        <path
           d="m 59.541703,46.079307 c 0,-0.436827 -0.306123,-0.767027 -0.687917,-0.767027 -0.233892,0 -0.361156,0.175419 -0.429948,0.340519 v -0.08255 c 0,-0.870215 0.426509,-0.994041 0.601928,-0.994041 0.08255,0 0.227012,0.02064 0.302683,0.137584 -0.05159,0 -0.189177,0 -0.189177,0.154781 0,0.106627 0.08255,0.158221 0.158221,0.158221 0.05503,0 0.158221,-0.03096 0.158221,-0.1651 0,-0.206375 -0.151342,-0.371475 -0.436828,-0.371475 -0.440267,0 -0.904611,0.443706 -0.904611,1.203855 0,0.918369 0.398992,1.162579 0.718874,1.162579 0.381794,0 0.708554,-0.323321 0.708554,-0.777346 z m -0.309562,-0.0034 c 0,0.1651 0,0.337079 -0.05847,0.460904 -0.103188,0.206375 -0.261409,0.223573 -0.340519,0.223573 -0.216694,0 -0.319882,-0.206375 -0.340519,-0.257969 -0.06191,-0.16166 -0.06191,-0.436827 -0.06191,-0.49874 0,-0.268287 0.110067,-0.612246 0.41963,-0.612246 0.05503,0 0.213254,0 0.319881,0.213254 0.06191,0.127265 0.06191,0.302684 0.06191,0.471224 z"
           style="font-size:65%;baseline-shift:sub"
           id="path646" />
      </g>
    </g>
    <circle
       style="fill:none;stroke:#1b4d7c;stroke-width:0.265;stroke-dasharray:none;stroke-opacity:1"
       id="path548-9-0-9-8-1"
       cx="90.1325"
       cy="30.1325"
       r="5" />
    <g
       aria-label="x7"
       id="text519-9"
       style="font-size:5.29167px;line-height:1.25;font-family:'Latin Modern Roman';-inkscape-font-specification:'Latin Modern Roman, ';stroke-width:0.264583"
       transform="translate(23.863541,-11.136457)">
      <path
         d="m 67.166728,42.679939 v -0.164041 c -0.285751,0 -0.381001,-0.01058 -0.502709,-0.164042 l -0.709084,-0.915459 c 0.15875,-0.201084 0.359834,-0.460375 0.486834,-0.597959 0.164042,-0.1905 0.381,-0.269875 0.629708,-0.275167 V 40.39923 c -0.137583,0.01058 -0.296333,0.01587 -0.433916,0.01587 -0.158751,0 -0.439209,-0.01058 -0.508001,-0.01587 v 0.164041 c 0.111125,0.01058 0.153459,0.07937 0.153459,0.164042 0,0.08467 -0.05292,0.153459 -0.07937,0.185209 l -0.328084,0.41275 -0.41275,-0.534459 c -0.04763,-0.05292 -0.04763,-0.0635 -0.04763,-0.09525 0,-0.07937 0.07938,-0.127 0.185208,-0.132292 V 40.39923 l -0.5715,0.01587 c -0.111125,0 -0.359834,-0.0053 -0.502709,-0.01587 v 0.164041 c 0.370417,0 0.375709,0.0053 0.624417,0.322792 l 0.523876,0.682626 c -0.248709,0.3175 -0.248709,0.328083 -0.497417,0.629708 -0.254,0.306917 -0.566209,0.317501 -0.677334,0.317501 v 0.164041 c 0.137583,-0.01058 0.301625,-0.01587 0.439209,-0.01587 l 0.502708,0.01587 v -0.164041 c -0.116417,-0.01588 -0.153458,-0.08467 -0.153458,-0.164042 0,-0.116417 0.153458,-0.291042 0.47625,-0.672042 l 0.402167,0.529167 c 0.04233,0.05821 0.111125,0.142875 0.111125,0.174625 0,0.04762 -0.04762,0.127 -0.1905,0.132292 v 0.164041 l 0.5715,-0.01587 c 0.142875,0 0.34925,0.0053 0.508001,0.01587 z"
         id="path649" />
      <path
         d="m 68.898426,41.52318 h -0.835819 c -0.41963,0 -0.426509,-0.04471 -0.440267,-0.110066 h -0.08599 l -0.113506,0.708554 h 0.08599 c 0.01032,-0.05503 0.04127,-0.271727 0.08599,-0.313002 0.02408,-0.02064 0.292365,-0.02064 0.337079,-0.02064 h 0.711995 l -0.385234,0.543455 c -0.309563,0.464344 -0.423069,0.942446 -0.423069,1.293284 0,0.0344 0,0.189177 0.158221,0.189177 0.158221,0 0.158221,-0.154781 0.158221,-0.189177 v -0.175419 c 0,-0.189177 0.01032,-0.378354 0.03784,-0.564092 0.01376,-0.07911 0.06191,-0.374915 0.213255,-0.588169 l 0.464344,-0.653521 c 0.03096,-0.04127 0.03096,-0.04815 0.03096,-0.120386 z"
         style="font-size:65%;baseline-shift:sub"
         id="path651" />
    </g>
    <g
       aria-label="sin"
       id="text924"
       style="font-size:5.29167px;line-height:1.25;font-family:'Latin Modern Roman';-inkscape-font-specification:'Latin Modern Roman, ';stroke-width:0.264583"
       transform="rotate(-21.713297,21.104734,35.082204)">
      <path
         d="m 16.853957,42.714333 c 0,-0.280459 -0.15875,-0.439209 -0.22225,-0.502709 -0.174626,-0.169333 -0.381001,-0.211667 -0.603251,-0.254 -0.296333,-0.05821 -0.650875,-0.127 -0.650875,-0.433917 0,-0.185208 0.137583,-0.402167 0.592667,-0.402167 0.582083,0 0.608542,0.47625 0.619125,0.640292 0.0053,0.04763 0.0635,0.04763 0.0635,0.04763 0.06879,0 0.06879,-0.02646 0.06879,-0.127 v -0.534459 c 0,-0.08996 0,-0.127 -0.05821,-0.127 -0.02646,0 -0.03704,0 -0.105834,0.0635 -0.01588,0.02117 -0.06879,0.06879 -0.08996,0.08467 -0.201084,-0.148167 -0.418042,-0.148167 -0.497417,-0.148167 -0.645584,0 -0.846667,0.354542 -0.846667,0.650876 0,0.185208 0.08467,0.333375 0.227541,0.449792 0.169334,0.137583 0.317501,0.169333 0.698501,0.243416 0.116417,0.02117 0.550334,0.105834 0.550334,0.486834 0,0.269875 -0.185209,0.481542 -0.597959,0.481542 -0.4445,0 -0.635001,-0.301625 -0.735542,-0.751417 -0.01587,-0.06879 -0.02117,-0.08996 -0.07408,-0.08996 -0.06879,0 -0.06879,0.03704 -0.06879,0.132291 v 0.698501 c 0,0.08996 0,0.127 0.05821,0.127 0.02646,0 0.03175,-0.0053 0.132292,-0.105834 0.01058,-0.01058 0.01058,-0.02117 0.105833,-0.121708 0.232834,0.22225 0.470959,0.227542 0.582084,0.227542 0.608542,0 0.851959,-0.354542 0.851959,-0.735542 z"
         id="path957" />
      <path
         d="m 18.340911,43.391666 v -0.164041 c -0.34925,0 -0.370417,-0.02646 -0.370417,-0.232834 v -1.942043 l -0.740833,0.05821 v 0.164041 c 0.343958,0 0.391583,0.03175 0.391583,0.291042 v 1.42346 c 0,0.238125 -0.05821,0.238125 -0.41275,0.238125 v 0.164041 l 0.582084,-0.01588 c 0.185208,0 0.370416,0.01058 0.550333,0.01588 z m -0.291042,-3.196168 c 0,-0.142875 -0.121708,-0.280459 -0.280458,-0.280459 -0.179917,0 -0.28575,0.148167 -0.28575,0.280459 0,0.142875 0.121708,0.280458 0.280458,0.280458 0.179917,0 0.28575,-0.148166 0.28575,-0.280458 z"
         id="path959" />
      <path
         d="m 21.335996,43.391666 v -0.164041 c -0.275167,0 -0.407459,0 -0.41275,-0.15875 v -1.010709 c 0,-0.455084 0,-0.619126 -0.164042,-0.809626 -0.07408,-0.08996 -0.248709,-0.195792 -0.555626,-0.195792 -0.386291,0 -0.635,0.227542 -0.783167,0.555626 v -0.555626 l -0.746125,0.05821 v 0.164041 c 0.370417,0 0.41275,0.03704 0.41275,0.296334 V 42.9895 c 0,0.238125 -0.05821,0.238125 -0.41275,0.238125 v 0.164041 l 0.597959,-0.01588 0.592667,0.01588 v -0.164041 c -0.354542,0 -0.412751,0 -0.412751,-0.238125 v -0.973668 c 0,-0.550333 0.375709,-0.846667 0.714376,-0.846667 0.333375,0 0.391583,0.28575 0.391583,0.587375 v 1.23296 c 0,0.238125 -0.05821,0.238125 -0.41275,0.238125 v 0.164041 l 0.597959,-0.01588 z"
         id="path961" />
    </g>
    <text
       xml:space="preserve"
       style="font-size:3.88056px;line-height:1.25;font-family:Arial;-inkscape-font-specification:Arial;stroke-width:0.264583"
       x="51.196873"
       y="20.769791"
       id="text928"><tspan
         sodipodi:role="line"
         id="tspan926"
         style="stroke-width:0.264583"
         x="51.196873"
         y="20.769791" /></text>
    <g
       aria-label="รท"
       id="text1031"
       style="font-size:5.29167px;line-height:1.25;font-family:Arial;-inkscape-font-specification:Arial;stroke-width:0.264583"
       transform="translate(16.139585,-15.478126)">
      <path
         d="m 67.05071,48.551041 c 0,-0.105833 -0.100541,-0.105833 -0.174625,-0.105833 h -3.16971 c -0.07408,0 -0.174625,0 -0.174625,0.105833 0,0.105834 0.100542,0.105834 0.179917,0.105834 h 3.159127 c 0.07937,0 0.179916,0 0.179916,-0.105834 z m -1.476376,-0.830792 c 0,-0.153458 -0.127,-0.280459 -0.280458,-0.280459 -0.153458,0 -0.280459,0.127001 -0.280459,0.280459 0,0.153458 0.127001,0.280458 0.280459,0.280458 0.153458,0 0.280458,-0.127 0.280458,-0.280458 z m 0,1.661584 c 0,-0.153458 -0.127,-0.280458 -0.280458,-0.280458 -0.153458,0 -0.280459,0.127 -0.280459,0.280458 0,0.153459 0.127001,0.280459 0.280459,0.280459 0.153458,0 0.280458,-0.127 0.280458,-0.280459 z"
         style="font-family:'Latin Modern Roman';-inkscape-font-specification:'Latin Modern Roman, '"
         id="path1037" />
    </g>
    <g
       aria-label="ร"
       id="text1035"
       style="font-size:5.29167px;line-height:1.25;font-family:Arial;-inkscape-font-specification:Arial;stroke-width:0.264583"
       transform="translate(-51.593749,-26.9875)">
      <path
         d="m 78.840546,48.207082 c 0.07408,-0.07408 0.0053,-0.142875 -0.04762,-0.195792 l -1.047751,-1.04775 1.042459,-1.047751 c 0.05292,-0.05292 0.127,-0.121708 0.05292,-0.195792 -0.07937,-0.07408 -0.148167,-0.0053 -0.201084,0.04763 l -1.042459,1.042459 -1.04775,-1.04775 c -0.05292,-0.05292 -0.121709,-0.121709 -0.201084,-0.04763 -0.07408,0.07408 0,0.148166 0.05292,0.201083 l 1.047751,1.047751 -1.047751,1.04775 c -0.05292,0.05292 -0.127,0.121709 -0.05292,0.195792 0.07937,0.07408 0.148167,0.0053 0.201084,-0.04762 l 1.04775,-1.047751 1.047751,1.047751 c 0.05292,0.05292 0.121708,0.121708 0.195792,0.04762 z"
         style="font-family:'Latin Modern Roman';-inkscape-font-specification:'Latin Modern Roman, '"
         id="path1040" />
    </g>
    <path
       style="fill:none;stroke:#000000;stroke-width:0.264583px;stroke-linecap:butt;stroke-linejoin:miter;stroke-opacity:1;marker-end:url(#TriangleStart)"
       d="m 14.485936,52.784374 c 31.601675,1.597328 49.590991,-4.36198 71.371355,-18.454687"
       id="path2178"
       sodipodi:nodetypes="cc" />
  </g>
</svg>
