<?xml version="1.0" encoding="utf-8"?>
<svg xmlns="http://www.w3.org/2000/svg" xmlns:xlink="http://www.w3.org/1999/xlink" width="600" height="400" viewBox="0 0 2400 1600">
<defs>
  <clipPath id="clip780">
    <rect x="0" y="0" width="2400" height="1600"/>
  </clipPath>
</defs>
<path clip-path="url(#clip780)" d="
M0 1600 L2400 1600 L2400 0 L0 0  Z
  " fill="#ffffff" fill-rule="evenodd" fill-opacity="1"/>
<defs>
  <clipPath id="clip781">
    <rect x="480" y="0" width="1681" height="1600"/>
  </clipPath>
</defs>
<path clip-path="url(#clip780)" d="
M253.236 1450.96 L2352.76 1450.96 L2352.76 47.2441 L253.236 47.2441  Z
  " fill="#ffffff" fill-rule="evenodd" fill-opacity="1"/>
<defs>
  <clipPath id="clip782">
    <rect x="253" y="47" width="2101" height="1405"/>
  </clipPath>
</defs>
<polyline clip-path="url(#clip782)" style="stroke:#000000; stroke-linecap:butt; stroke-linejoin:round; stroke-width:2; stroke-opacity:0.1; fill:none" points="
  312.656,1450.96 312.656,47.2441 
  "/>
<polyline clip-path="url(#clip782)" style="stroke:#000000; stroke-linecap:butt; stroke-linejoin:round; stroke-width:2; stroke-opacity:0.1; fill:none" points="
  847.975,1450.96 847.975,47.2441 
  "/>
<polyline clip-path="url(#clip782)" style="stroke:#000000; stroke-linecap:butt; stroke-linejoin:round; stroke-width:2; stroke-opacity:0.1; fill:none" points="
  1383.29,1450.96 1383.29,47.2441 
  "/>
<polyline clip-path="url(#clip782)" style="stroke:#000000; stroke-linecap:butt; stroke-linejoin:round; stroke-width:2; stroke-opacity:0.1; fill:none" points="
  1918.61,1450.96 1918.61,47.2441 
  "/>
<polyline clip-path="url(#clip780)" style="stroke:#000000; stroke-linecap:butt; stroke-linejoin:round; stroke-width:4; stroke-opacity:1; fill:none" points="
  253.236,1450.96 2352.76,1450.96 
  "/>
<polyline clip-path="url(#clip780)" style="stroke:#000000; stroke-linecap:butt; stroke-linejoin:round; stroke-width:4; stroke-opacity:1; fill:none" points="
  312.656,1450.96 312.656,1432.06 
  "/>
<polyline clip-path="url(#clip780)" style="stroke:#000000; stroke-linecap:butt; stroke-linejoin:round; stroke-width:4; stroke-opacity:1; fill:none" points="
  847.975,1450.96 847.975,1432.06 
  "/>
<polyline clip-path="url(#clip780)" style="stroke:#000000; stroke-linecap:butt; stroke-linejoin:round; stroke-width:4; stroke-opacity:1; fill:none" points="
  1383.29,1450.96 1383.29,1432.06 
  "/>
<polyline clip-path="url(#clip780)" style="stroke:#000000; stroke-linecap:butt; stroke-linejoin:round; stroke-width:4; stroke-opacity:1; fill:none" points="
  1918.61,1450.96 1918.61,1432.06 
  "/>
<path clip-path="url(#clip780)" d="M290.041 1480.15 Q286.43 1480.15 284.601 1483.72 Q282.796 1487.26 282.796 1494.39 Q282.796 1501.49 284.601 1505.06 Q286.43 1508.6 290.041 1508.6 Q293.675 1508.6 295.481 1505.06 Q297.309 1501.49 297.309 1494.39 Q297.309 1487.26 295.481 1483.72 Q293.675 1480.15 290.041 1480.15 M290.041 1476.45 Q295.851 1476.45 298.907 1481.05 Q301.985 1485.64 301.985 1494.39 Q301.985 1503.11 298.907 1507.72 Q295.851 1512.3 290.041 1512.3 Q284.231 1512.3 281.152 1507.72 Q278.096 1503.11 278.096 1494.39 Q278.096 1485.64 281.152 1481.05 Q284.231 1476.45 290.041 1476.45 Z" fill="#000000" fill-rule="evenodd" fill-opacity="1" /><path clip-path="url(#clip780)" d="M310.203 1505.75 L315.087 1505.75 L315.087 1511.63 L310.203 1511.63 L310.203 1505.75 Z" fill="#000000" fill-rule="evenodd" fill-opacity="1" /><path clip-path="url(#clip780)" d="M335.272 1480.15 Q331.661 1480.15 329.832 1483.72 Q328.027 1487.26 328.027 1494.39 Q328.027 1501.49 329.832 1505.06 Q331.661 1508.6 335.272 1508.6 Q338.906 1508.6 340.712 1505.06 Q342.541 1501.49 342.541 1494.39 Q342.541 1487.26 340.712 1483.72 Q338.906 1480.15 335.272 1480.15 M335.272 1476.45 Q341.082 1476.45 344.138 1481.05 Q347.216 1485.64 347.216 1494.39 Q347.216 1503.11 344.138 1507.72 Q341.082 1512.3 335.272 1512.3 Q329.462 1512.3 326.383 1507.72 Q323.328 1503.11 323.328 1494.39 Q323.328 1485.64 326.383 1481.05 Q329.462 1476.45 335.272 1476.45 Z" fill="#000000" fill-rule="evenodd" fill-opacity="1" /><path clip-path="url(#clip780)" d="M825.857 1480.15 Q822.246 1480.15 820.417 1483.72 Q818.612 1487.26 818.612 1494.39 Q818.612 1501.49 820.417 1505.06 Q822.246 1508.6 825.857 1508.6 Q829.491 1508.6 831.297 1505.06 Q833.126 1501.49 833.126 1494.39 Q833.126 1487.26 831.297 1483.72 Q829.491 1480.15 825.857 1480.15 M825.857 1476.45 Q831.667 1476.45 834.723 1481.05 Q837.802 1485.64 837.802 1494.39 Q837.802 1503.11 834.723 1507.72 Q831.667 1512.3 825.857 1512.3 Q820.047 1512.3 816.968 1507.72 Q813.913 1503.11 813.913 1494.39 Q813.913 1485.64 816.968 1481.05 Q820.047 1476.45 825.857 1476.45 Z" fill="#000000" fill-rule="evenodd" fill-opacity="1" /><path clip-path="url(#clip780)" d="M846.019 1505.75 L850.903 1505.75 L850.903 1511.63 L846.019 1511.63 L846.019 1505.75 Z" fill="#000000" fill-rule="evenodd" fill-opacity="1" /><path clip-path="url(#clip780)" d="M861.135 1477.07 L879.491 1477.07 L879.491 1481.01 L865.417 1481.01 L865.417 1489.48 Q866.436 1489.13 867.454 1488.97 Q868.473 1488.79 869.491 1488.79 Q875.278 1488.79 878.658 1491.96 Q882.037 1495.13 882.037 1500.54 Q882.037 1506.12 878.565 1509.22 Q875.093 1512.3 868.774 1512.3 Q866.598 1512.3 864.329 1511.93 Q862.084 1511.56 859.676 1510.82 L859.676 1506.12 Q861.76 1507.26 863.982 1507.81 Q866.204 1508.37 868.681 1508.37 Q872.686 1508.37 875.024 1506.26 Q877.362 1504.16 877.362 1500.54 Q877.362 1496.93 875.024 1494.83 Q872.686 1492.72 868.681 1492.72 Q866.806 1492.72 864.931 1493.14 Q863.079 1493.55 861.135 1494.43 L861.135 1477.07 Z" fill="#000000" fill-rule="evenodd" fill-opacity="1" /><path clip-path="url(#clip780)" d="M1350.45 1507.7 L1358.09 1507.7 L1358.09 1481.33 L1349.78 1483 L1349.78 1478.74 L1358.04 1477.07 L1362.72 1477.07 L1362.72 1507.7 L1370.35 1507.7 L1370.35 1511.63 L1350.45 1511.63 L1350.45 1507.7 Z" fill="#000000" fill-rule="evenodd" fill-opacity="1" /><path clip-path="url(#clip780)" d="M1379.8 1505.75 L1384.68 1505.75 L1384.68 1511.63 L1379.8 1511.63 L1379.8 1505.75 Z" fill="#000000" fill-rule="evenodd" fill-opacity="1" /><path clip-path="url(#clip780)" d="M1404.87 1480.15 Q1401.26 1480.15 1399.43 1483.72 Q1397.62 1487.26 1397.62 1494.39 Q1397.62 1501.49 1399.43 1505.06 Q1401.26 1508.6 1404.87 1508.6 Q1408.5 1508.6 1410.31 1505.06 Q1412.14 1501.49 1412.14 1494.39 Q1412.14 1487.26 1410.31 1483.72 Q1408.5 1480.15 1404.87 1480.15 M1404.87 1476.45 Q1410.68 1476.45 1413.73 1481.05 Q1416.81 1485.64 1416.81 1494.39 Q1416.81 1503.11 1413.73 1507.72 Q1410.68 1512.3 1404.87 1512.3 Q1399.06 1512.3 1395.98 1507.72 Q1392.92 1503.11 1392.92 1494.39 Q1392.92 1485.64 1395.98 1481.05 Q1399.06 1476.45 1404.87 1476.45 Z" fill="#000000" fill-rule="evenodd" fill-opacity="1" /><path clip-path="url(#clip780)" d="M1886.26 1507.7 L1893.9 1507.7 L1893.9 1481.33 L1885.59 1483 L1885.59 1478.74 L1893.86 1477.07 L1898.53 1477.07 L1898.53 1507.7 L1906.17 1507.7 L1906.17 1511.63 L1886.26 1511.63 L1886.26 1507.7 Z" fill="#000000" fill-rule="evenodd" fill-opacity="1" /><path clip-path="url(#clip780)" d="M1915.61 1505.75 L1920.5 1505.75 L1920.5 1511.63 L1915.61 1511.63 L1915.61 1505.75 Z" fill="#000000" fill-rule="evenodd" fill-opacity="1" /><path clip-path="url(#clip780)" d="M1930.73 1477.07 L1949.09 1477.07 L1949.09 1481.01 L1935.01 1481.01 L1935.01 1489.48 Q1936.03 1489.13 1937.05 1488.97 Q1938.07 1488.79 1939.09 1488.79 Q1944.87 1488.79 1948.25 1491.96 Q1951.63 1495.13 1951.63 1500.54 Q1951.63 1506.12 1948.16 1509.22 Q1944.69 1512.3 1938.37 1512.3 Q1936.19 1512.3 1933.92 1511.93 Q1931.68 1511.56 1929.27 1510.82 L1929.27 1506.12 Q1931.36 1507.26 1933.58 1507.81 Q1935.8 1508.37 1938.28 1508.37 Q1942.28 1508.37 1944.62 1506.26 Q1946.96 1504.16 1946.96 1500.54 Q1946.96 1496.93 1944.62 1494.83 Q1942.28 1492.72 1938.28 1492.72 Q1936.4 1492.72 1934.53 1493.14 Q1932.67 1493.55 1930.73 1494.43 L1930.73 1477.07 Z" fill="#000000" fill-rule="evenodd" fill-opacity="1" /><path clip-path="url(#clip780)" d="M1317.17 1539.92 Q1317.17 1541.72 1316.04 1542.75 Q1314.92 1543.75 1313.63 1543.75 Q1312.4 1543.75 1311.76 1543.04 Q1311.11 1542.33 1311.11 1541.43 Q1311.11 1540.21 1312.02 1539.14 Q1312.92 1538.08 1314.27 1537.85 Q1312.95 1537.02 1310.99 1537.02 Q1309.7 1537.02 1308.57 1537.69 Q1307.48 1538.37 1306.8 1539.24 Q1306.16 1540.11 1305.58 1541.37 Q1305.03 1542.59 1304.8 1543.33 Q1304.61 1544.04 1304.45 1544.81 L1302.19 1553.83 Q1301.1 1558.11 1301.1 1559.63 Q1301.1 1561.49 1302 1562.75 Q1302.9 1563.97 1304.71 1563.97 Q1305.41 1563.97 1306.22 1563.78 Q1307.02 1563.55 1308.06 1562.98 Q1309.12 1562.36 1310.05 1561.46 Q1311.02 1560.53 1311.95 1558.95 Q1312.89 1557.37 1313.5 1555.34 Q1313.69 1554.63 1314.34 1554.63 Q1315.14 1554.63 1315.14 1555.28 Q1315.14 1555.83 1314.69 1556.98 Q1314.27 1558.11 1313.34 1559.59 Q1312.44 1561.04 1311.24 1562.36 Q1310.05 1563.65 1308.28 1564.55 Q1306.51 1565.46 1304.58 1565.46 Q1301.81 1565.46 1299.97 1563.97 Q1298.14 1562.49 1297.46 1560.43 Q1297.3 1560.72 1297.07 1561.11 Q1296.85 1561.49 1296.17 1562.36 Q1295.53 1563.2 1294.79 1563.84 Q1294.05 1564.46 1292.89 1564.94 Q1291.76 1565.46 1290.54 1565.46 Q1288.99 1565.46 1287.6 1565 Q1286.25 1564.55 1285.29 1563.52 Q1284.32 1562.49 1284.32 1561.08 Q1284.32 1559.5 1285.38 1558.4 Q1286.48 1557.27 1287.96 1557.27 Q1288.89 1557.27 1289.63 1557.82 Q1290.41 1558.37 1290.41 1559.56 Q1290.41 1560.88 1289.5 1561.88 Q1288.6 1562.88 1287.31 1563.14 Q1288.64 1563.97 1290.6 1563.97 Q1292.73 1563.97 1294.4 1562.11 Q1296.07 1560.24 1296.88 1557.11 Q1298.88 1549.61 1299.65 1546.26 Q1300.42 1542.88 1300.42 1541.43 Q1300.42 1540.08 1300.07 1539.14 Q1299.71 1538.21 1299.1 1537.79 Q1298.52 1537.34 1297.97 1537.18 Q1297.46 1537.02 1296.88 1537.02 Q1295.91 1537.02 1294.82 1537.4 Q1293.76 1537.79 1292.47 1538.69 Q1291.21 1539.56 1290.02 1541.37 Q1288.83 1543.17 1288.02 1545.65 Q1287.86 1546.39 1287.15 1546.39 Q1286.38 1546.36 1286.38 1545.71 Q1286.38 1545.17 1286.8 1544.04 Q1287.25 1542.88 1288.15 1541.43 Q1289.09 1539.98 1290.28 1538.69 Q1291.5 1537.37 1293.27 1536.47 Q1295.08 1535.57 1297.01 1535.57 Q1297.88 1535.57 1298.72 1535.76 Q1299.59 1535.92 1300.62 1536.41 Q1301.68 1536.89 1302.61 1537.95 Q1303.55 1539.01 1304.13 1540.56 Q1304.51 1539.82 1305.03 1539.11 Q1305.58 1538.4 1306.41 1537.53 Q1307.28 1536.63 1308.47 1536.12 Q1309.7 1535.57 1311.05 1535.57 Q1312.37 1535.57 1313.66 1535.92 Q1314.95 1536.24 1316.04 1537.31 Q1317.17 1538.34 1317.17 1539.92 Z" fill="#000000" fill-rule="evenodd" fill-opacity="1" /><polyline clip-path="url(#clip782)" style="stroke:#000000; stroke-linecap:butt; stroke-linejoin:round; stroke-width:2; stroke-opacity:0.1; fill:none" points="
  253.236,1295.05 2352.76,1295.05 
  "/>
<polyline clip-path="url(#clip782)" style="stroke:#000000; stroke-linecap:butt; stroke-linejoin:round; stroke-width:2; stroke-opacity:0.1; fill:none" points="
  253.236,1114.36 2352.76,1114.36 
  "/>
<polyline clip-path="url(#clip782)" style="stroke:#000000; stroke-linecap:butt; stroke-linejoin:round; stroke-width:2; stroke-opacity:0.1; fill:none" points="
  253.236,933.672 2352.76,933.672 
  "/>
<polyline clip-path="url(#clip782)" style="stroke:#000000; stroke-linecap:butt; stroke-linejoin:round; stroke-width:2; stroke-opacity:0.1; fill:none" points="
  253.236,752.983 2352.76,752.983 
  "/>
<polyline clip-path="url(#clip782)" style="stroke:#000000; stroke-linecap:butt; stroke-linejoin:round; stroke-width:2; stroke-opacity:0.1; fill:none" points="
  253.236,572.293 2352.76,572.293 
  "/>
<polyline clip-path="url(#clip782)" style="stroke:#000000; stroke-linecap:butt; stroke-linejoin:round; stroke-width:2; stroke-opacity:0.1; fill:none" points="
  253.236,391.604 2352.76,391.604 
  "/>
<polyline clip-path="url(#clip782)" style="stroke:#000000; stroke-linecap:butt; stroke-linejoin:round; stroke-width:2; stroke-opacity:0.1; fill:none" points="
  253.236,210.915 2352.76,210.915 
  "/>
<polyline clip-path="url(#clip780)" style="stroke:#000000; stroke-linecap:butt; stroke-linejoin:round; stroke-width:4; stroke-opacity:1; fill:none" points="
  253.236,1450.96 253.236,47.2441 
  "/>
<polyline clip-path="url(#clip780)" style="stroke:#000000; stroke-linecap:butt; stroke-linejoin:round; stroke-width:4; stroke-opacity:1; fill:none" points="
  253.236,1295.05 272.134,1295.05 
  "/>
<polyline clip-path="url(#clip780)" style="stroke:#000000; stroke-linecap:butt; stroke-linejoin:round; stroke-width:4; stroke-opacity:1; fill:none" points="
  253.236,1114.36 272.134,1114.36 
  "/>
<polyline clip-path="url(#clip780)" style="stroke:#000000; stroke-linecap:butt; stroke-linejoin:round; stroke-width:4; stroke-opacity:1; fill:none" points="
  253.236,933.672 272.134,933.672 
  "/>
<polyline clip-path="url(#clip780)" style="stroke:#000000; stroke-linecap:butt; stroke-linejoin:round; stroke-width:4; stroke-opacity:1; fill:none" points="
  253.236,752.983 272.134,752.983 
  "/>
<polyline clip-path="url(#clip780)" style="stroke:#000000; stroke-linecap:butt; stroke-linejoin:round; stroke-width:4; stroke-opacity:1; fill:none" points="
  253.236,572.293 272.134,572.293 
  "/>
<polyline clip-path="url(#clip780)" style="stroke:#000000; stroke-linecap:butt; stroke-linejoin:round; stroke-width:4; stroke-opacity:1; fill:none" points="
  253.236,391.604 272.134,391.604 
  "/>
<polyline clip-path="url(#clip780)" style="stroke:#000000; stroke-linecap:butt; stroke-linejoin:round; stroke-width:4; stroke-opacity:1; fill:none" points="
  253.236,210.915 272.134,210.915 
  "/>
<path clip-path="url(#clip780)" d="M111.288 1295.5 L140.963 1295.5 L140.963 1299.44 L111.288 1299.44 L111.288 1295.5 Z" fill="#000000" fill-rule="evenodd" fill-opacity="1" /><path clip-path="url(#clip780)" d="M151.866 1308.4 L159.505 1308.4 L159.505 1282.03 L151.195 1283.7 L151.195 1279.44 L159.459 1277.77 L164.135 1277.77 L164.135 1308.4 L171.773 1308.4 L171.773 1312.33 L151.866 1312.33 L151.866 1308.4 Z" fill="#000000" fill-rule="evenodd" fill-opacity="1" /><path clip-path="url(#clip780)" d="M181.218 1306.45 L186.102 1306.45 L186.102 1312.33 L181.218 1312.33 L181.218 1306.45 Z" fill="#000000" fill-rule="evenodd" fill-opacity="1" /><path clip-path="url(#clip780)" d="M196.333 1277.77 L214.69 1277.77 L214.69 1281.71 L200.616 1281.71 L200.616 1290.18 Q201.634 1289.83 202.653 1289.67 Q203.671 1289.48 204.69 1289.48 Q210.477 1289.48 213.857 1292.65 Q217.236 1295.83 217.236 1301.24 Q217.236 1306.82 213.764 1309.92 Q210.292 1313 203.972 1313 Q201.796 1313 199.528 1312.63 Q197.283 1312.26 194.875 1311.52 L194.875 1306.82 Q196.958 1307.96 199.181 1308.51 Q201.403 1309.07 203.88 1309.07 Q207.884 1309.07 210.222 1306.96 Q212.56 1304.85 212.56 1301.24 Q212.56 1297.63 210.222 1295.53 Q207.884 1293.42 203.88 1293.42 Q202.005 1293.42 200.13 1293.84 Q198.278 1294.25 196.333 1295.13 L196.333 1277.77 Z" fill="#000000" fill-rule="evenodd" fill-opacity="1" /><path clip-path="url(#clip780)" d="M110.292 1114.81 L139.968 1114.81 L139.968 1118.75 L110.292 1118.75 L110.292 1114.81 Z" fill="#000000" fill-rule="evenodd" fill-opacity="1" /><path clip-path="url(#clip780)" d="M150.871 1127.71 L158.51 1127.71 L158.51 1101.34 L150.199 1103.01 L150.199 1098.75 L158.463 1097.08 L163.139 1097.08 L163.139 1127.71 L170.778 1127.71 L170.778 1131.64 L150.871 1131.64 L150.871 1127.71 Z" fill="#000000" fill-rule="evenodd" fill-opacity="1" /><path clip-path="url(#clip780)" d="M180.222 1125.76 L185.107 1125.76 L185.107 1131.64 L180.222 1131.64 L180.222 1125.76 Z" fill="#000000" fill-rule="evenodd" fill-opacity="1" /><path clip-path="url(#clip780)" d="M205.292 1100.16 Q201.681 1100.16 199.852 1103.72 Q198.046 1107.27 198.046 1114.4 Q198.046 1121.5 199.852 1125.07 Q201.681 1128.61 205.292 1128.61 Q208.926 1128.61 210.732 1125.07 Q212.56 1121.5 212.56 1114.4 Q212.56 1107.27 210.732 1103.72 Q208.926 1100.16 205.292 1100.16 M205.292 1096.46 Q211.102 1096.46 214.157 1101.06 Q217.236 1105.65 217.236 1114.4 Q217.236 1123.12 214.157 1127.73 Q211.102 1132.31 205.292 1132.31 Q199.482 1132.31 196.403 1127.73 Q193.347 1123.12 193.347 1114.4 Q193.347 1105.65 196.403 1101.06 Q199.482 1096.46 205.292 1096.46 Z" fill="#000000" fill-rule="evenodd" fill-opacity="1" /><path clip-path="url(#clip780)" d="M111.288 934.123 L140.963 934.123 L140.963 938.059 L111.288 938.059 L111.288 934.123 Z" fill="#000000" fill-rule="evenodd" fill-opacity="1" /><path clip-path="url(#clip780)" d="M161.056 919.471 Q157.445 919.471 155.616 923.036 Q153.811 926.577 153.811 933.707 Q153.811 940.813 155.616 944.378 Q157.445 947.92 161.056 947.92 Q164.69 947.92 166.496 944.378 Q168.324 940.813 168.324 933.707 Q168.324 926.577 166.496 923.036 Q164.69 919.471 161.056 919.471 M161.056 915.767 Q166.866 915.767 169.922 920.374 Q173 924.957 173 933.707 Q173 942.434 169.922 947.04 Q166.866 951.623 161.056 951.623 Q155.246 951.623 152.167 947.04 Q149.111 942.434 149.111 933.707 Q149.111 924.957 152.167 920.374 Q155.246 915.767 161.056 915.767 Z" fill="#000000" fill-rule="evenodd" fill-opacity="1" /><path clip-path="url(#clip780)" d="M181.218 945.072 L186.102 945.072 L186.102 950.952 L181.218 950.952 L181.218 945.072 Z" fill="#000000" fill-rule="evenodd" fill-opacity="1" /><path clip-path="url(#clip780)" d="M196.333 916.392 L214.69 916.392 L214.69 920.327 L200.616 920.327 L200.616 928.799 Q201.634 928.452 202.653 928.29 Q203.671 928.105 204.69 928.105 Q210.477 928.105 213.857 931.276 Q217.236 934.448 217.236 939.864 Q217.236 945.443 213.764 948.545 Q210.292 951.623 203.972 951.623 Q201.796 951.623 199.528 951.253 Q197.283 950.883 194.875 950.142 L194.875 945.443 Q196.958 946.577 199.181 947.133 Q201.403 947.688 203.88 947.688 Q207.884 947.688 210.222 945.582 Q212.56 943.475 212.56 939.864 Q212.56 936.253 210.222 934.147 Q207.884 932.04 203.88 932.04 Q202.005 932.04 200.13 932.457 Q198.278 932.873 196.333 933.753 L196.333 916.392 Z" fill="#000000" fill-rule="evenodd" fill-opacity="1" /><path clip-path="url(#clip780)" d="M160.06 738.781 Q156.449 738.781 154.621 742.346 Q152.815 745.888 152.815 753.017 Q152.815 760.124 154.621 763.689 Q156.449 767.23 160.06 767.23 Q163.695 767.23 165.5 763.689 Q167.329 760.124 167.329 753.017 Q167.329 745.888 165.5 742.346 Q163.695 738.781 160.06 738.781 M160.06 735.078 Q165.871 735.078 168.926 739.684 Q172.005 744.267 172.005 753.017 Q172.005 761.744 168.926 766.351 Q165.871 770.934 160.06 770.934 Q154.25 770.934 151.172 766.351 Q148.116 761.744 148.116 753.017 Q148.116 744.267 151.172 739.684 Q154.25 735.078 160.06 735.078 Z" fill="#000000" fill-rule="evenodd" fill-opacity="1" /><path clip-path="url(#clip780)" d="M180.222 764.383 L185.107 764.383 L185.107 770.263 L180.222 770.263 L180.222 764.383 Z" fill="#000000" fill-rule="evenodd" fill-opacity="1" /><path clip-path="url(#clip780)" d="M205.292 738.781 Q201.681 738.781 199.852 742.346 Q198.046 745.888 198.046 753.017 Q198.046 760.124 199.852 763.689 Q201.681 767.23 205.292 767.23 Q208.926 767.23 210.732 763.689 Q212.56 760.124 212.56 753.017 Q212.56 745.888 210.732 742.346 Q208.926 738.781 205.292 738.781 M205.292 735.078 Q211.102 735.078 214.157 739.684 Q217.236 744.267 217.236 753.017 Q217.236 761.744 214.157 766.351 Q211.102 770.934 205.292 770.934 Q199.482 770.934 196.403 766.351 Q193.347 761.744 193.347 753.017 Q193.347 744.267 196.403 739.684 Q199.482 735.078 205.292 735.078 Z" fill="#000000" fill-rule="evenodd" fill-opacity="1" /><path clip-path="url(#clip780)" d="M161.056 558.092 Q157.445 558.092 155.616 561.657 Q153.811 565.198 153.811 572.328 Q153.811 579.434 155.616 582.999 Q157.445 586.541 161.056 586.541 Q164.69 586.541 166.496 582.999 Q168.324 579.434 168.324 572.328 Q168.324 565.198 166.496 561.657 Q164.69 558.092 161.056 558.092 M161.056 554.388 Q166.866 554.388 169.922 558.995 Q173 563.578 173 572.328 Q173 581.055 169.922 585.661 Q166.866 590.245 161.056 590.245 Q155.246 590.245 152.167 585.661 Q149.111 581.055 149.111 572.328 Q149.111 563.578 152.167 558.995 Q155.246 554.388 161.056 554.388 Z" fill="#000000" fill-rule="evenodd" fill-opacity="1" /><path clip-path="url(#clip780)" d="M181.218 583.694 L186.102 583.694 L186.102 589.573 L181.218 589.573 L181.218 583.694 Z" fill="#000000" fill-rule="evenodd" fill-opacity="1" /><path clip-path="url(#clip780)" d="M196.333 555.013 L214.69 555.013 L214.69 558.948 L200.616 558.948 L200.616 567.421 Q201.634 567.073 202.653 566.911 Q203.671 566.726 204.69 566.726 Q210.477 566.726 213.857 569.897 Q217.236 573.069 217.236 578.485 Q217.236 584.064 213.764 587.166 Q210.292 590.245 203.972 590.245 Q201.796 590.245 199.528 589.874 Q197.283 589.504 194.875 588.763 L194.875 584.064 Q196.958 585.198 199.181 585.754 Q201.403 586.309 203.88 586.309 Q207.884 586.309 210.222 584.203 Q212.56 582.097 212.56 578.485 Q212.56 574.874 210.222 572.768 Q207.884 570.661 203.88 570.661 Q202.005 570.661 200.13 571.078 Q198.278 571.495 196.333 572.374 L196.333 555.013 Z" fill="#000000" fill-rule="evenodd" fill-opacity="1" /><path clip-path="url(#clip780)" d="M150.871 404.949 L158.51 404.949 L158.51 378.583 L150.199 380.25 L150.199 375.991 L158.463 374.324 L163.139 374.324 L163.139 404.949 L170.778 404.949 L170.778 408.884 L150.871 408.884 L150.871 404.949 Z" fill="#000000" fill-rule="evenodd" fill-opacity="1" /><path clip-path="url(#clip780)" d="M180.222 403.004 L185.107 403.004 L185.107 408.884 L180.222 408.884 L180.222 403.004 Z" fill="#000000" fill-rule="evenodd" fill-opacity="1" /><path clip-path="url(#clip780)" d="M205.292 377.403 Q201.681 377.403 199.852 380.967 Q198.046 384.509 198.046 391.639 Q198.046 398.745 199.852 402.31 Q201.681 405.852 205.292 405.852 Q208.926 405.852 210.732 402.31 Q212.56 398.745 212.56 391.639 Q212.56 384.509 210.732 380.967 Q208.926 377.403 205.292 377.403 M205.292 373.699 Q211.102 373.699 214.157 378.305 Q217.236 382.889 217.236 391.639 Q217.236 400.365 214.157 404.972 Q211.102 409.555 205.292 409.555 Q199.482 409.555 196.403 404.972 Q193.347 400.365 193.347 391.639 Q193.347 382.889 196.403 378.305 Q199.482 373.699 205.292 373.699 Z" fill="#000000" fill-rule="evenodd" fill-opacity="1" /><path clip-path="url(#clip780)" d="M151.866 224.259 L159.505 224.259 L159.505 197.894 L151.195 199.56 L151.195 195.301 L159.459 193.635 L164.135 193.635 L164.135 224.259 L171.773 224.259 L171.773 228.195 L151.866 228.195 L151.866 224.259 Z" fill="#000000" fill-rule="evenodd" fill-opacity="1" /><path clip-path="url(#clip780)" d="M181.218 222.315 L186.102 222.315 L186.102 228.195 L181.218 228.195 L181.218 222.315 Z" fill="#000000" fill-rule="evenodd" fill-opacity="1" /><path clip-path="url(#clip780)" d="M196.333 193.635 L214.69 193.635 L214.69 197.57 L200.616 197.57 L200.616 206.042 Q201.634 205.695 202.653 205.533 Q203.671 205.347 204.69 205.347 Q210.477 205.347 213.857 208.519 Q217.236 211.69 217.236 217.107 Q217.236 222.685 213.764 225.787 Q210.292 228.866 203.972 228.866 Q201.796 228.866 199.528 228.495 Q197.283 228.125 194.875 227.384 L194.875 222.685 Q196.958 223.82 199.181 224.375 Q201.403 224.931 203.88 224.931 Q207.884 224.931 210.222 222.824 Q212.56 220.718 212.56 217.107 Q212.56 213.496 210.222 211.389 Q207.884 209.283 203.88 209.283 Q202.005 209.283 200.13 209.699 Q198.278 210.116 196.333 210.996 L196.333 193.635 Z" fill="#000000" fill-rule="evenodd" fill-opacity="1" /><path clip-path="url(#clip780)" d="M22.5327 779.521 Q24.304 779.521 25.399 780.648 Q26.494 781.743 26.494 783.128 Q26.494 784.126 25.8821 784.867 Q25.2702 785.576 24.2074 785.576 Q23.1124 785.576 21.953 784.738 Q20.7936 783.901 20.6325 782.001 Q19.4409 783.257 19.4409 785.254 Q19.4409 786.252 20.085 787.089 Q20.697 787.895 21.6953 788.345 Q22.7259 788.829 28.5552 789.924 Q30.4553 790.278 32.2911 790.6 Q34.1268 790.922 36.0592 791.308 L36.0592 785.833 Q36.0592 785.125 36.0914 784.835 Q36.1236 784.545 36.2846 784.32 Q36.4456 784.062 36.7999 784.062 Q37.7017 784.062 37.9271 784.481 Q38.1203 784.867 38.1203 786.027 L38.1203 791.695 L59.0219 795.656 Q59.6338 795.753 61.5662 796.171 Q63.4663 796.558 66.5903 797.492 Q69.7465 798.426 71.6144 799.36 Q72.6772 799.875 73.6756 800.551 Q74.7062 801.196 75.7368 802.13 Q76.7674 803.064 77.3793 804.287 Q78.0234 805.511 78.0234 806.799 Q78.0234 808.989 76.7996 810.696 Q75.5757 812.403 73.4824 812.403 Q71.711 812.403 70.616 811.308 Q69.521 810.181 69.521 808.796 Q69.521 807.798 70.133 807.089 Q70.7449 806.349 71.8077 806.349 Q72.2585 806.349 72.7738 806.51 Q73.2891 806.671 73.8688 807.025 Q74.4807 807.379 74.8994 808.152 Q75.3181 808.925 75.3825 809.988 Q76.5741 808.732 76.5741 806.799 Q76.5741 806.188 76.3165 805.64 Q76.091 805.093 75.5113 804.642 Q74.9316 804.159 74.3519 803.804 Q73.8044 803.45 72.7416 803.096 Q71.711 802.741 70.9381 802.516 Q70.1652 802.291 68.7803 802.001 Q67.3955 801.679 66.5581 801.518 Q65.753 801.357 64.1749 801.067 L38.1203 796.139 L38.1203 800.487 Q38.1203 801.26 38.0881 801.582 Q38.0559 801.872 37.8949 802.097 Q37.7017 802.323 37.3152 802.323 Q36.7033 802.323 36.4456 802.065 Q36.1558 801.775 36.1236 801.453 Q36.0592 801.131 36.0592 800.358 L36.0592 795.785 Q27.9111 794.239 25.7211 793.627 Q23.4022 792.919 21.792 791.824 Q20.1495 790.729 19.3765 789.505 Q18.6036 788.281 18.3137 787.283 Q17.9917 786.252 17.9917 785.254 Q17.9917 782.999 19.2155 781.26 Q20.4071 779.521 22.5327 779.521 Z" fill="#000000" fill-rule="evenodd" fill-opacity="1" /><path clip-path="url(#clip780)" d="M48.0075 770.641 Q36.8643 770.641 27.8789 766.487 Q24.1108 764.715 20.9546 762.235 Q17.7984 759.755 16.4136 758.113 Q15.0287 756.47 15.0287 756.02 Q15.0287 755.375 15.6728 755.343 Q15.9949 755.343 16.8 756.213 Q27.6212 766.841 48.0075 766.809 Q68.4582 766.809 78.8607 756.47 Q79.9879 755.343 80.3422 755.343 Q80.9863 755.343 80.9863 756.02 Q80.9863 756.47 79.6659 758.049 Q78.3454 759.627 75.3181 762.074 Q72.2907 764.522 68.5871 766.293 Q59.6016 770.641 48.0075 770.641 Z" fill="#000000" fill-rule="evenodd" fill-opacity="1" /><path clip-path="url(#clip780)" d="M39.6984 717.48 Q41.5019 717.48 42.5325 718.607 Q43.5309 719.734 43.5309 721.022 Q43.5309 722.246 42.8224 722.89 Q42.1139 723.534 41.2121 723.534 Q39.9883 723.534 38.9255 722.633 Q37.8627 721.731 37.6372 720.378 Q36.7999 721.699 36.7999 723.663 Q36.7999 724.951 37.4762 726.079 Q38.1525 727.174 39.0221 727.85 Q39.8917 728.494 41.1477 729.074 Q42.3715 729.621 43.1122 729.847 Q43.8208 730.04 44.5937 730.201 L53.6113 732.455 Q57.8947 733.55 59.4084 733.55 Q61.2763 733.55 62.5324 732.649 Q63.7562 731.747 63.7562 729.943 Q63.7562 729.235 63.563 728.43 Q63.3375 727.625 62.7578 726.594 Q62.1459 725.531 61.2441 724.597 Q60.3102 723.631 58.7321 722.697 Q57.154 721.763 55.125 721.151 Q54.4165 720.958 54.4165 720.314 Q54.4165 719.509 55.0606 719.509 Q55.6081 719.509 56.7675 719.96 Q57.8947 720.378 59.3762 721.312 Q60.8255 722.214 62.1459 723.406 Q63.4341 724.597 64.3359 726.368 Q65.2377 728.14 65.2377 730.072 Q65.2377 732.842 63.7562 734.678 Q62.2747 736.513 60.2135 737.19 Q60.5034 737.351 60.8899 737.576 Q61.2763 737.802 62.1459 738.478 Q62.9833 739.122 63.6274 739.863 Q64.2393 740.603 64.7224 741.763 Q65.2377 742.89 65.2377 744.114 Q65.2377 745.66 64.7868 747.045 Q64.3359 748.397 63.3053 749.363 Q62.2747 750.33 60.8577 750.33 Q59.2796 750.33 58.1846 749.267 Q57.0574 748.172 57.0574 746.69 Q57.0574 745.756 57.6049 745.016 Q58.1524 744.243 59.344 744.243 Q60.6644 744.243 61.6628 745.145 Q62.6612 746.046 62.9188 747.335 Q63.7562 746.014 63.7562 744.05 Q63.7562 741.924 61.8883 740.249 Q60.0203 738.575 56.8963 737.769 Q49.3924 735.773 46.043 735 Q42.6614 734.227 41.2121 734.227 Q39.8594 734.227 38.9255 734.581 Q37.9915 734.935 37.5728 735.547 Q37.1219 736.127 36.9609 736.674 Q36.7999 737.19 36.7999 737.769 Q36.7999 738.736 37.1864 739.831 Q37.5728 740.893 38.4746 742.182 Q39.3442 743.438 41.1477 744.629 Q42.9512 745.821 45.4311 746.626 Q46.1718 746.787 46.1718 747.496 Q46.1396 748.268 45.4955 748.268 Q44.948 748.268 43.8208 747.85 Q42.6614 747.399 41.2121 746.497 Q39.7628 745.563 38.4746 744.372 Q37.1542 743.148 36.2524 741.376 Q35.3506 739.573 35.3506 737.641 Q35.3506 736.771 35.5439 735.934 Q35.7049 735.064 36.188 734.033 Q36.6711 732.971 37.7339 732.037 Q38.7967 731.103 40.3425 730.523 Q39.6018 730.137 38.8933 729.621 Q38.1847 729.074 37.3152 728.236 Q36.4134 727.367 35.8981 726.175 Q35.3506 724.951 35.3506 723.599 Q35.3506 722.278 35.7049 720.99 Q36.0269 719.702 37.0897 718.607 Q38.1203 717.48 39.6984 717.48 Z" fill="#000000" fill-rule="evenodd" fill-opacity="1" /><path clip-path="url(#clip780)" d="M80.3422 711.129 Q80.0202 711.129 79.215 710.291 Q68.3938 699.663 48.0075 699.663 Q27.5568 699.663 17.2187 709.872 Q16.0271 711.129 15.6728 711.129 Q15.0287 711.129 15.0287 710.484 Q15.0287 710.034 16.3492 708.455 Q17.6696 706.845 20.697 704.43 Q23.7243 701.982 27.428 700.179 Q36.4134 695.831 48.0075 695.831 Q59.1508 695.831 68.1362 699.985 Q71.9043 701.757 75.0605 704.236 Q78.2166 706.716 79.6015 708.359 Q80.9863 710.001 80.9863 710.484 Q80.9863 711.129 80.3422 711.129 Z" fill="#000000" fill-rule="evenodd" fill-opacity="1" /><polyline clip-path="url(#clip782)" style="stroke:#009af9; stroke-linecap:butt; stroke-linejoin:round; stroke-width:4; stroke-opacity:1; fill:none" points="
  312.656,752.983 331.999,753.102 510.853,766.536 618.336,786.715 709.212,811.755 807.929,847.622 898.937,888.46 996.508,939.174 1109.55,1002.25 1210.01,1053.39 
  1298.11,1082.61 1346.13,1086.75 1394.16,1078.41 1418.31,1068.29 1442.46,1053.5 1466.62,1033.48 1490.77,1007.71 1517.48,971.896 1544.19,927.847 1570.89,875.163 
  1597.6,813.746 1648.42,674.504 1699.24,515.187 1725.66,431.802 1752.08,354.92 1765.29,321.185 1778.5,292.036 1791.71,268.711 1804.92,252.549 1816.04,245.537 
  1827.16,245.479 1838.28,253.251 1849.4,269.698 1860.52,295.601 1871.64,331.626 1882.76,378.266 1893.88,435.768 1907.46,520.548 1921.03,620.343 1934.61,732.88 
  1948.19,854.338 1961.76,979.057 1975.34,1099.32 1982.13,1154.78 1988.92,1205.29 1995.71,1249.32 2002.49,1285.28 2008.88,1310.25 2015.26,1325.27 2021.64,1329.03 
  2028.02,1320.32 2034.4,1298.11 2040.78,1261.6 2047.16,1210.34 2053.54,1144.31 2059.92,1064.03 2066.31,970.676 2072.69,866.167 2079.07,753.267 2085.45,635.65 
  2091.83,517.921 2098.21,405.583 2104.59,304.92 2109.7,237.303 2114.82,185.192 2117.37,166.072 2119.93,152.145 2122.48,143.811 2125.04,141.438 2127.59,145.351 
  2130.15,155.826 2132.71,173.076 2135.26,197.248 2137.82,228.404 2140.37,266.516 2142.93,311.455 2145.49,362.977 2148.04,420.72 2150.6,484.191 2153.15,552.759 
  2155.71,625.653 2160.82,780.604 2165.93,940.001 2168.49,1017.95 2171.04,1092.69 2173.6,1162.57 2176.15,1225.9 2178.71,1280.96 2181.27,1326.05 2183.82,1359.57 
  2186.38,1380.03 2188.93,1386.12 2191.49,1376.81 2194.05,1351.37 2196.6,1309.49 2199.16,1251.29 2201.71,1177.46 2204.27,1089.23 2206.82,988.481 2209.38,877.726 
  2211.94,760.133 2214.49,639.483 2217.05,520.108 2219.6,406.782 2222.16,304.571 2223.44,259.247 2224.71,218.63 2225.99,183.337 2227.27,153.959 2228.55,131.049 
  2229.83,115.11 2231.1,106.587 2232.38,105.857 2233.66,113.21 2234.94,128.849 2236.22,152.868 2237.49,185.25 2238.77,225.854 2240.05,274.408 2241.33,330.498 
  2242.6,393.57 2243.88,462.92 2245.16,537.698 2246.44,616.906 2247.72,699.41 2250.27,869.107 2252.83,1035.32 2254.11,1113.16 2255.38,1185.3 2256.66,1250.08 
  2257.94,1305.9 2259.22,1351.23 2260.5,1384.67 2261.77,1405.01 2263.05,1411.23 2264.33,1402.61 2265.61,1378.72 2266.88,1339.48 2268.16,1285.23 2268.56,1265.6 
  2268.95,1244.66 2269.34,1222.42 2269.74,1198.93 2270.52,1148.35 2271.31,1093.32 2272.88,971.752 2274.46,838.581 2276.03,699.103 2277.6,559.404 2279.18,426.148 
  2280.75,306.298 2281.54,253.574 2282.32,206.771 2283.11,166.678 2283.9,134.031 2284.68,109.495 2285.47,93.6489 2286.26,86.9719 2287.04,89.8294 2287.83,102.459 
  2288.62,124.958 2289.4,157.272 2290.19,199.186 2290.98,250.315 2291.76,310.103 2292.55,377.817 2293.34,452.547 
  "/>
</svg>
