<?xml version="1.0" encoding="utf-8"?>
<svg xmlns="http://www.w3.org/2000/svg" xmlns:xlink="http://www.w3.org/1999/xlink" width="600" height="400" viewBox="0 0 2400 1600">
<defs>
  <clipPath id="clip570">
    <rect x="0" y="0" width="2400" height="1600"/>
  </clipPath>
</defs>
<path clip-path="url(#clip570)" d="
M0 1600 L2400 1600 L2400 0 L0 0  Z
  " fill="#ffffff" fill-rule="evenodd" fill-opacity="1"/>
<defs>
  <clipPath id="clip571">
    <rect x="480" y="0" width="1681" height="1600"/>
  </clipPath>
</defs>
<defs>
  <clipPath id="clip572">
    <rect x="156" y="47" width="2198" height="1405"/>
  </clipPath>
</defs>
<path clip-path="url(#clip570)" d="
M155.765 1450.96 L2352.76 1450.96 L2352.76 47.2441 L155.765 47.2441  Z
  " fill="#ffffff" fill-rule="evenodd" fill-opacity="1"/>
<defs>
  <clipPath id="clip573">
    <rect x="155" y="47" width="2198" height="1405"/>
  </clipPath>
</defs>
<polyline clip-path="url(#clip573)" style="stroke:#000000; stroke-linecap:butt; stroke-linejoin:round; stroke-width:2; stroke-opacity:0.1; fill:none" points="
  217.944,1450.96 217.944,47.2441 
  "/>
<polyline clip-path="url(#clip573)" style="stroke:#000000; stroke-linecap:butt; stroke-linejoin:round; stroke-width:2; stroke-opacity:0.1; fill:none" points="
  678.529,1450.96 678.529,47.2441 
  "/>
<polyline clip-path="url(#clip573)" style="stroke:#000000; stroke-linecap:butt; stroke-linejoin:round; stroke-width:2; stroke-opacity:0.1; fill:none" points="
  1139.11,1450.96 1139.11,47.2441 
  "/>
<polyline clip-path="url(#clip573)" style="stroke:#000000; stroke-linecap:butt; stroke-linejoin:round; stroke-width:2; stroke-opacity:0.1; fill:none" points="
  1599.7,1450.96 1599.7,47.2441 
  "/>
<polyline clip-path="url(#clip573)" style="stroke:#000000; stroke-linecap:butt; stroke-linejoin:round; stroke-width:2; stroke-opacity:0.1; fill:none" points="
  2060.28,1450.96 2060.28,47.2441 
  "/>
<polyline clip-path="url(#clip570)" style="stroke:#000000; stroke-linecap:butt; stroke-linejoin:round; stroke-width:4; stroke-opacity:1; fill:none" points="
  155.765,1450.96 2352.76,1450.96 
  "/>
<polyline clip-path="url(#clip570)" style="stroke:#000000; stroke-linecap:butt; stroke-linejoin:round; stroke-width:4; stroke-opacity:1; fill:none" points="
  217.944,1450.96 217.944,1432.06 
  "/>
<polyline clip-path="url(#clip570)" style="stroke:#000000; stroke-linecap:butt; stroke-linejoin:round; stroke-width:4; stroke-opacity:1; fill:none" points="
  678.529,1450.96 678.529,1432.06 
  "/>
<polyline clip-path="url(#clip570)" style="stroke:#000000; stroke-linecap:butt; stroke-linejoin:round; stroke-width:4; stroke-opacity:1; fill:none" points="
  1139.11,1450.96 1139.11,1432.06 
  "/>
<polyline clip-path="url(#clip570)" style="stroke:#000000; stroke-linecap:butt; stroke-linejoin:round; stroke-width:4; stroke-opacity:1; fill:none" points="
  1599.7,1450.96 1599.7,1432.06 
  "/>
<polyline clip-path="url(#clip570)" style="stroke:#000000; stroke-linecap:butt; stroke-linejoin:round; stroke-width:4; stroke-opacity:1; fill:none" points="
  2060.28,1450.96 2060.28,1432.06 
  "/>
<path clip-path="url(#clip570)" d="M208.326 1507.7 L215.965 1507.7 L215.965 1481.33 L207.655 1483 L207.655 1478.74 L215.918 1477.07 L220.594 1477.07 L220.594 1507.7 L228.233 1507.7 L228.233 1511.63 L208.326 1511.63 L208.326 1507.7 Z" fill="#000000" fill-rule="evenodd" fill-opacity="1" /><path clip-path="url(#clip570)" d="M673.182 1507.7 L689.501 1507.7 L689.501 1511.63 L667.557 1511.63 L667.557 1507.7 Q670.219 1504.94 674.802 1500.31 Q679.409 1495.66 680.589 1494.32 Q682.835 1491.79 683.714 1490.06 Q684.617 1488.3 684.617 1486.61 Q684.617 1483.85 682.673 1482.12 Q680.751 1480.38 677.649 1480.38 Q675.45 1480.38 672.997 1481.15 Q670.566 1481.91 667.788 1483.46 L667.788 1478.74 Q670.612 1477.6 673.066 1477.03 Q675.52 1476.45 677.557 1476.45 Q682.927 1476.45 686.122 1479.13 Q689.316 1481.82 689.316 1486.31 Q689.316 1488.44 688.506 1490.36 Q687.719 1492.26 685.612 1494.85 Q685.034 1495.52 681.932 1498.74 Q678.83 1501.93 673.182 1507.7 Z" fill="#000000" fill-rule="evenodd" fill-opacity="1" /><path clip-path="url(#clip570)" d="M1143.36 1493 Q1146.72 1493.72 1148.59 1495.98 Q1150.49 1498.25 1150.49 1501.59 Q1150.49 1506.7 1146.97 1509.5 Q1143.45 1512.3 1136.97 1512.3 Q1134.8 1512.3 1132.48 1511.86 Q1130.19 1511.45 1127.74 1510.59 L1127.74 1506.08 Q1129.68 1507.21 1132 1507.79 Q1134.31 1508.37 1136.83 1508.37 Q1141.23 1508.37 1143.52 1506.63 Q1145.84 1504.9 1145.84 1501.59 Q1145.84 1498.53 1143.69 1496.82 Q1141.56 1495.08 1137.74 1495.08 L1133.71 1495.08 L1133.71 1491.24 L1137.92 1491.24 Q1141.37 1491.24 1143.2 1489.87 Q1145.03 1488.48 1145.03 1485.89 Q1145.03 1483.23 1143.13 1481.82 Q1141.26 1480.38 1137.74 1480.38 Q1135.82 1480.38 1133.62 1480.8 Q1131.42 1481.22 1128.78 1482.1 L1128.78 1477.93 Q1131.44 1477.19 1133.76 1476.82 Q1136.09 1476.45 1138.15 1476.45 Q1143.48 1476.45 1146.58 1478.88 Q1149.68 1481.29 1149.68 1485.41 Q1149.68 1488.28 1148.04 1490.27 Q1146.39 1492.23 1143.36 1493 Z" fill="#000000" fill-rule="evenodd" fill-opacity="1" /><path clip-path="url(#clip570)" d="M1602.71 1481.15 L1590.9 1499.6 L1602.71 1499.6 L1602.71 1481.15 M1601.48 1477.07 L1607.36 1477.07 L1607.36 1499.6 L1612.29 1499.6 L1612.29 1503.48 L1607.36 1503.48 L1607.36 1511.63 L1602.71 1511.63 L1602.71 1503.48 L1587.11 1503.48 L1587.11 1498.97 L1601.48 1477.07 Z" fill="#000000" fill-rule="evenodd" fill-opacity="1" /><path clip-path="url(#clip570)" d="M2050.56 1477.07 L2068.92 1477.07 L2068.92 1481.01 L2054.84 1481.01 L2054.84 1489.48 Q2055.86 1489.13 2056.88 1488.97 Q2057.9 1488.79 2058.92 1488.79 Q2064.71 1488.79 2068.09 1491.96 Q2071.46 1495.13 2071.46 1500.54 Q2071.46 1506.12 2067.99 1509.22 Q2064.52 1512.3 2058.2 1512.3 Q2056.03 1512.3 2053.76 1511.93 Q2051.51 1511.56 2049.1 1510.82 L2049.1 1506.12 Q2051.19 1507.26 2053.41 1507.81 Q2055.63 1508.37 2058.11 1508.37 Q2062.11 1508.37 2064.45 1506.26 Q2066.79 1504.16 2066.79 1500.54 Q2066.79 1496.93 2064.45 1494.83 Q2062.11 1492.72 2058.11 1492.72 Q2056.23 1492.72 2054.36 1493.14 Q2052.51 1493.55 2050.56 1494.43 L2050.56 1477.07 Z" fill="#000000" fill-rule="evenodd" fill-opacity="1" /><path clip-path="url(#clip570)" d="M1268.43 1539.92 Q1268.43 1541.72 1267.31 1542.75 Q1266.18 1543.75 1264.89 1543.75 Q1263.67 1543.75 1263.02 1543.04 Q1262.38 1542.33 1262.38 1541.43 Q1262.38 1540.21 1263.28 1539.14 Q1264.18 1538.08 1265.54 1537.85 Q1264.21 1537.02 1262.25 1537.02 Q1260.96 1537.02 1259.83 1537.69 Q1258.74 1538.37 1258.06 1539.24 Q1257.42 1540.11 1256.84 1541.37 Q1256.29 1542.59 1256.07 1543.33 Q1255.87 1544.04 1255.71 1544.81 L1253.46 1553.83 Q1252.36 1558.11 1252.36 1559.63 Q1252.36 1561.49 1253.26 1562.75 Q1254.17 1563.97 1255.97 1563.97 Q1256.68 1563.97 1257.48 1563.78 Q1258.29 1563.55 1259.32 1562.98 Q1260.38 1562.36 1261.32 1561.46 Q1262.28 1560.53 1263.22 1558.95 Q1264.15 1557.37 1264.76 1555.34 Q1264.96 1554.63 1265.6 1554.63 Q1266.4 1554.63 1266.4 1555.28 Q1266.4 1555.83 1265.95 1556.98 Q1265.54 1558.11 1264.6 1559.59 Q1263.7 1561.04 1262.51 1562.36 Q1261.32 1563.65 1259.54 1564.55 Q1257.77 1565.46 1255.84 1565.46 Q1253.07 1565.46 1251.24 1563.97 Q1249.4 1562.49 1248.72 1560.43 Q1248.56 1560.72 1248.34 1561.11 Q1248.11 1561.49 1247.44 1562.36 Q1246.79 1563.2 1246.05 1563.84 Q1245.31 1564.46 1244.15 1564.94 Q1243.02 1565.46 1241.8 1565.46 Q1240.25 1565.46 1238.87 1565 Q1237.52 1564.55 1236.55 1563.52 Q1235.58 1562.49 1235.58 1561.08 Q1235.58 1559.5 1236.65 1558.4 Q1237.74 1557.27 1239.22 1557.27 Q1240.16 1557.27 1240.9 1557.82 Q1241.67 1558.37 1241.67 1559.56 Q1241.67 1560.88 1240.77 1561.88 Q1239.87 1562.88 1238.58 1563.14 Q1239.9 1563.97 1241.86 1563.97 Q1243.99 1563.97 1245.66 1562.11 Q1247.34 1560.24 1248.14 1557.11 Q1250.14 1549.61 1250.91 1546.26 Q1251.69 1542.88 1251.69 1541.43 Q1251.69 1540.08 1251.33 1539.14 Q1250.98 1538.21 1250.37 1537.79 Q1249.79 1537.34 1249.24 1537.18 Q1248.72 1537.02 1248.14 1537.02 Q1247.18 1537.02 1246.08 1537.4 Q1245.02 1537.79 1243.73 1538.69 Q1242.48 1539.56 1241.28 1541.37 Q1240.09 1543.17 1239.29 1545.65 Q1239.13 1546.39 1238.42 1546.39 Q1237.65 1546.36 1237.65 1545.71 Q1237.65 1545.17 1238.06 1544.04 Q1238.51 1542.88 1239.42 1541.43 Q1240.35 1539.98 1241.54 1538.69 Q1242.77 1537.37 1244.54 1536.47 Q1246.34 1535.57 1248.27 1535.57 Q1249.14 1535.57 1249.98 1535.76 Q1250.85 1535.92 1251.88 1536.41 Q1252.94 1536.89 1253.88 1537.95 Q1254.81 1539.01 1255.39 1540.56 Q1255.78 1539.82 1256.29 1539.11 Q1256.84 1538.4 1257.68 1537.53 Q1258.55 1536.63 1259.74 1536.12 Q1260.96 1535.57 1262.31 1535.57 Q1263.64 1535.57 1264.92 1535.92 Q1266.21 1536.24 1267.31 1537.31 Q1268.43 1538.34 1268.43 1539.92 Z" fill="#000000" fill-rule="evenodd" fill-opacity="1" /><polyline clip-path="url(#clip573)" style="stroke:#000000; stroke-linecap:butt; stroke-linejoin:round; stroke-width:2; stroke-opacity:0.1; fill:none" points="
  155.765,1313.62 2352.76,1313.62 
  "/>
<polyline clip-path="url(#clip573)" style="stroke:#000000; stroke-linecap:butt; stroke-linejoin:round; stroke-width:2; stroke-opacity:0.1; fill:none" points="
  155.765,1042.99 2352.76,1042.99 
  "/>
<polyline clip-path="url(#clip573)" style="stroke:#000000; stroke-linecap:butt; stroke-linejoin:round; stroke-width:2; stroke-opacity:0.1; fill:none" points="
  155.765,772.349 2352.76,772.349 
  "/>
<polyline clip-path="url(#clip573)" style="stroke:#000000; stroke-linecap:butt; stroke-linejoin:round; stroke-width:2; stroke-opacity:0.1; fill:none" points="
  155.765,501.712 2352.76,501.712 
  "/>
<polyline clip-path="url(#clip573)" style="stroke:#000000; stroke-linecap:butt; stroke-linejoin:round; stroke-width:2; stroke-opacity:0.1; fill:none" points="
  155.765,231.075 2352.76,231.075 
  "/>
<polyline clip-path="url(#clip570)" style="stroke:#000000; stroke-linecap:butt; stroke-linejoin:round; stroke-width:4; stroke-opacity:1; fill:none" points="
  155.765,1450.96 155.765,47.2441 
  "/>
<polyline clip-path="url(#clip570)" style="stroke:#000000; stroke-linecap:butt; stroke-linejoin:round; stroke-width:4; stroke-opacity:1; fill:none" points="
  155.765,1313.62 174.663,1313.62 
  "/>
<polyline clip-path="url(#clip570)" style="stroke:#000000; stroke-linecap:butt; stroke-linejoin:round; stroke-width:4; stroke-opacity:1; fill:none" points="
  155.765,1042.99 174.663,1042.99 
  "/>
<polyline clip-path="url(#clip570)" style="stroke:#000000; stroke-linecap:butt; stroke-linejoin:round; stroke-width:4; stroke-opacity:1; fill:none" points="
  155.765,772.349 174.663,772.349 
  "/>
<polyline clip-path="url(#clip570)" style="stroke:#000000; stroke-linecap:butt; stroke-linejoin:round; stroke-width:4; stroke-opacity:1; fill:none" points="
  155.765,501.712 174.663,501.712 
  "/>
<polyline clip-path="url(#clip570)" style="stroke:#000000; stroke-linecap:butt; stroke-linejoin:round; stroke-width:4; stroke-opacity:1; fill:none" points="
  155.765,231.075 174.663,231.075 
  "/>
<path clip-path="url(#clip570)" d="M63.5847 1299.42 Q59.9736 1299.42 58.1449 1302.99 Q56.3393 1306.53 56.3393 1313.66 Q56.3393 1320.76 58.1449 1324.33 Q59.9736 1327.87 63.5847 1327.87 Q67.2189 1327.87 69.0244 1324.33 Q70.8531 1320.76 70.8531 1313.66 Q70.8531 1306.53 69.0244 1302.99 Q67.2189 1299.42 63.5847 1299.42 M63.5847 1295.72 Q69.3948 1295.72 72.4503 1300.32 Q75.529 1304.91 75.529 1313.66 Q75.529 1322.38 72.4503 1326.99 Q69.3948 1331.57 63.5847 1331.57 Q57.7745 1331.57 54.6958 1326.99 Q51.6403 1322.38 51.6403 1313.66 Q51.6403 1304.91 54.6958 1300.32 Q57.7745 1295.72 63.5847 1295.72 Z" fill="#000000" fill-rule="evenodd" fill-opacity="1" /><path clip-path="url(#clip570)" d="M83.7466 1325.02 L88.6308 1325.02 L88.6308 1330.9 L83.7466 1330.9 L83.7466 1325.02 Z" fill="#000000" fill-rule="evenodd" fill-opacity="1" /><path clip-path="url(#clip570)" d="M98.8622 1296.34 L117.219 1296.34 L117.219 1300.28 L103.145 1300.28 L103.145 1308.75 Q104.163 1308.4 105.182 1308.24 Q106.2 1308.06 107.219 1308.06 Q113.006 1308.06 116.385 1311.23 Q119.765 1314.4 119.765 1319.81 Q119.765 1325.39 116.293 1328.5 Q112.82 1331.57 106.501 1331.57 Q104.325 1331.57 102.057 1331.2 Q99.8113 1330.83 97.4039 1330.09 L97.4039 1325.39 Q99.4872 1326.53 101.709 1327.08 Q103.932 1327.64 106.408 1327.64 Q110.413 1327.64 112.751 1325.53 Q115.089 1323.43 115.089 1319.81 Q115.089 1316.2 112.751 1314.1 Q110.413 1311.99 106.408 1311.99 Q104.534 1311.99 102.659 1312.41 Q100.807 1312.82 98.8622 1313.7 L98.8622 1296.34 Z" fill="#000000" fill-rule="evenodd" fill-opacity="1" /><path clip-path="url(#clip570)" d="M53.3995 1056.33 L61.0384 1056.33 L61.0384 1029.97 L52.7282 1031.63 L52.7282 1027.37 L60.9921 1025.71 L65.668 1025.71 L65.668 1056.33 L73.3068 1056.33 L73.3068 1060.27 L53.3995 1060.27 L53.3995 1056.33 Z" fill="#000000" fill-rule="evenodd" fill-opacity="1" /><path clip-path="url(#clip570)" d="M82.7512 1054.39 L87.6354 1054.39 L87.6354 1060.27 L82.7512 1060.27 L82.7512 1054.39 Z" fill="#000000" fill-rule="evenodd" fill-opacity="1" /><path clip-path="url(#clip570)" d="M107.821 1028.78 Q104.209 1028.78 102.381 1032.35 Q100.575 1035.89 100.575 1043.02 Q100.575 1050.13 102.381 1053.69 Q104.209 1057.23 107.821 1057.23 Q111.455 1057.23 113.26 1053.69 Q115.089 1050.13 115.089 1043.02 Q115.089 1035.89 113.26 1032.35 Q111.455 1028.78 107.821 1028.78 M107.821 1025.08 Q113.631 1025.08 116.686 1029.69 Q119.765 1034.27 119.765 1043.02 Q119.765 1051.75 116.686 1056.35 Q113.631 1060.94 107.821 1060.94 Q102.01 1060.94 98.9317 1056.35 Q95.8761 1051.75 95.8761 1043.02 Q95.8761 1034.27 98.9317 1029.69 Q102.01 1025.08 107.821 1025.08 Z" fill="#000000" fill-rule="evenodd" fill-opacity="1" /><path clip-path="url(#clip570)" d="M54.3949 785.694 L62.0337 785.694 L62.0337 759.328 L53.7236 760.995 L53.7236 756.736 L61.9874 755.069 L66.6633 755.069 L66.6633 785.694 L74.3022 785.694 L74.3022 789.629 L54.3949 789.629 L54.3949 785.694 Z" fill="#000000" fill-rule="evenodd" fill-opacity="1" /><path clip-path="url(#clip570)" d="M83.7466 783.749 L88.6308 783.749 L88.6308 789.629 L83.7466 789.629 L83.7466 783.749 Z" fill="#000000" fill-rule="evenodd" fill-opacity="1" /><path clip-path="url(#clip570)" d="M98.8622 755.069 L117.219 755.069 L117.219 759.004 L103.145 759.004 L103.145 767.476 Q104.163 767.129 105.182 766.967 Q106.2 766.782 107.219 766.782 Q113.006 766.782 116.385 769.953 Q119.765 773.124 119.765 778.541 Q119.765 784.12 116.293 787.222 Q112.82 790.3 106.501 790.3 Q104.325 790.3 102.057 789.93 Q99.8113 789.559 97.4039 788.819 L97.4039 784.12 Q99.4872 785.254 101.709 785.81 Q103.932 786.365 106.408 786.365 Q110.413 786.365 112.751 784.259 Q115.089 782.152 115.089 778.541 Q115.089 774.93 112.751 772.823 Q110.413 770.717 106.408 770.717 Q104.534 770.717 102.659 771.134 Q100.807 771.55 98.8622 772.43 L98.8622 755.069 Z" fill="#000000" fill-rule="evenodd" fill-opacity="1" /><path clip-path="url(#clip570)" d="M56.6171 515.057 L72.9365 515.057 L72.9365 518.992 L50.9921 518.992 L50.9921 515.057 Q53.6541 512.302 58.2375 507.673 Q62.8439 503.02 64.0245 501.677 Q66.2698 499.154 67.1494 497.418 Q68.0522 495.659 68.0522 493.969 Q68.0522 491.214 66.1078 489.478 Q64.1865 487.742 61.0847 487.742 Q58.8856 487.742 56.4319 488.506 Q54.0014 489.27 51.2236 490.821 L51.2236 486.099 Q54.0477 484.964 56.5014 484.386 Q58.955 483.807 60.9921 483.807 Q66.3624 483.807 69.5568 486.492 Q72.7513 489.177 72.7513 493.668 Q72.7513 495.798 71.9411 497.719 Q71.1541 499.617 69.0476 502.21 Q68.4689 502.881 65.367 506.099 Q62.2652 509.293 56.6171 515.057 Z" fill="#000000" fill-rule="evenodd" fill-opacity="1" /><path clip-path="url(#clip570)" d="M82.7512 513.112 L87.6354 513.112 L87.6354 518.992 L82.7512 518.992 L82.7512 513.112 Z" fill="#000000" fill-rule="evenodd" fill-opacity="1" /><path clip-path="url(#clip570)" d="M107.821 487.511 Q104.209 487.511 102.381 491.076 Q100.575 494.617 100.575 501.747 Q100.575 508.853 102.381 512.418 Q104.209 515.96 107.821 515.96 Q111.455 515.96 113.26 512.418 Q115.089 508.853 115.089 501.747 Q115.089 494.617 113.26 491.076 Q111.455 487.511 107.821 487.511 M107.821 483.807 Q113.631 483.807 116.686 488.413 Q119.765 492.997 119.765 501.747 Q119.765 510.474 116.686 515.08 Q113.631 519.663 107.821 519.663 Q102.01 519.663 98.9317 515.08 Q95.8761 510.474 95.8761 501.747 Q95.8761 492.997 98.9317 488.413 Q102.01 483.807 107.821 483.807 Z" fill="#000000" fill-rule="evenodd" fill-opacity="1" /><path clip-path="url(#clip570)" d="M57.6125 244.42 L73.9318 244.42 L73.9318 248.355 L51.9875 248.355 L51.9875 244.42 Q54.6495 241.665 59.2328 237.036 Q63.8393 232.383 65.0198 231.04 Q67.2652 228.517 68.1448 226.781 Q69.0476 225.022 69.0476 223.332 Q69.0476 220.577 67.1032 218.841 Q65.1819 217.105 62.08 217.105 Q59.881 217.105 57.4273 217.869 Q54.9967 218.633 52.219 220.184 L52.219 215.462 Q55.043 214.328 57.4967 213.749 Q59.9504 213.17 61.9874 213.17 Q67.3578 213.17 70.5522 215.855 Q73.7466 218.54 73.7466 223.031 Q73.7466 225.161 72.9365 227.082 Q72.1494 228.98 70.0429 231.573 Q69.4642 232.244 66.3624 235.462 Q63.2606 238.656 57.6125 244.42 Z" fill="#000000" fill-rule="evenodd" fill-opacity="1" /><path clip-path="url(#clip570)" d="M83.7466 242.476 L88.6308 242.476 L88.6308 248.355 L83.7466 248.355 L83.7466 242.476 Z" fill="#000000" fill-rule="evenodd" fill-opacity="1" /><path clip-path="url(#clip570)" d="M98.8622 213.795 L117.219 213.795 L117.219 217.73 L103.145 217.73 L103.145 226.202 Q104.163 225.855 105.182 225.693 Q106.2 225.508 107.219 225.508 Q113.006 225.508 116.385 228.679 Q119.765 231.851 119.765 237.267 Q119.765 242.846 116.293 245.948 Q112.82 249.026 106.501 249.026 Q104.325 249.026 102.057 248.656 Q99.8113 248.286 97.4039 247.545 L97.4039 242.846 Q99.4872 243.98 101.709 244.536 Q103.932 245.091 106.408 245.091 Q110.413 245.091 112.751 242.985 Q115.089 240.878 115.089 237.267 Q115.089 233.656 112.751 231.55 Q110.413 229.443 106.408 229.443 Q104.534 229.443 102.659 229.86 Q100.807 230.277 98.8622 231.156 L98.8622 213.795 Z" fill="#000000" fill-rule="evenodd" fill-opacity="1" /><circle clip-path="url(#clip573)" cx="217.944" cy="222.906" r="14" fill="#009af9" fill-rule="evenodd" fill-opacity="1" stroke="#000000" stroke-opacity="1" stroke-width="3.2"/>
<circle clip-path="url(#clip573)" cx="365.989" cy="688.64" r="14" fill="#009af9" fill-rule="evenodd" fill-opacity="1" stroke="#000000" stroke-opacity="1" stroke-width="3.2"/>
<circle clip-path="url(#clip573)" cx="514.034" cy="1128.13" r="14" fill="#009af9" fill-rule="evenodd" fill-opacity="1" stroke="#000000" stroke-opacity="1" stroke-width="3.2"/>
<circle clip-path="url(#clip573)" cx="662.08" cy="1342.8" r="14" fill="#009af9" fill-rule="evenodd" fill-opacity="1" stroke="#000000" stroke-opacity="1" stroke-width="3.2"/>
<circle clip-path="url(#clip573)" cx="810.125" cy="1375.89" r="14" fill="#009af9" fill-rule="evenodd" fill-opacity="1" stroke="#000000" stroke-opacity="1" stroke-width="3.2"/>
<circle clip-path="url(#clip573)" cx="958.17" cy="1332.29" r="14" fill="#009af9" fill-rule="evenodd" fill-opacity="1" stroke="#000000" stroke-opacity="1" stroke-width="3.2"/>
<circle clip-path="url(#clip573)" cx="1106.22" cy="1227.67" r="14" fill="#009af9" fill-rule="evenodd" fill-opacity="1" stroke="#000000" stroke-opacity="1" stroke-width="3.2"/>
<circle clip-path="url(#clip573)" cx="1254.26" cy="940.097" r="14" fill="#009af9" fill-rule="evenodd" fill-opacity="1" stroke="#000000" stroke-opacity="1" stroke-width="3.2"/>
<circle clip-path="url(#clip573)" cx="1402.31" cy="434.036" r="14" fill="#009af9" fill-rule="evenodd" fill-opacity="1" stroke="#000000" stroke-opacity="1" stroke-width="3.2"/>
<circle clip-path="url(#clip573)" cx="1550.35" cy="90.2895" r="14" fill="#009af9" fill-rule="evenodd" fill-opacity="1" stroke="#000000" stroke-opacity="1" stroke-width="3.2"/>
<circle clip-path="url(#clip573)" cx="1698.4" cy="321.104" r="14" fill="#009af9" fill-rule="evenodd" fill-opacity="1" stroke="#000000" stroke-opacity="1" stroke-width="3.2"/>
<circle clip-path="url(#clip573)" cx="1846.44" cy="843.05" r="14" fill="#009af9" fill-rule="evenodd" fill-opacity="1" stroke="#000000" stroke-opacity="1" stroke-width="3.2"/>
<circle clip-path="url(#clip573)" cx="1994.49" cy="1192.7" r="14" fill="#009af9" fill-rule="evenodd" fill-opacity="1" stroke="#000000" stroke-opacity="1" stroke-width="3.2"/>
<circle clip-path="url(#clip573)" cx="2142.53" cy="1321.25" r="14" fill="#009af9" fill-rule="evenodd" fill-opacity="1" stroke="#000000" stroke-opacity="1" stroke-width="3.2"/>
<circle clip-path="url(#clip573)" cx="2290.58" cy="1365.37" r="14" fill="#009af9" fill-rule="evenodd" fill-opacity="1" stroke="#000000" stroke-opacity="1" stroke-width="3.2"/>
<polyline clip-path="url(#clip573)" style="stroke:#e26f46; stroke-linecap:butt; stroke-linejoin:round; stroke-width:4; stroke-opacity:1; fill:none" points="
  217.944,222.906 228.359,257.021 238.774,294.081 249.19,332.871 259.605,372.159 270.02,410.818 280.435,447.934 290.851,482.886 301.266,515.401 311.681,545.562 
  322.096,573.777 332.512,600.715 342.927,627.211 353.342,654.152 363.757,682.363 374.173,712.492 384.588,744.924 395.003,779.729 405.418,816.634 415.833,855.05 
  426.249,894.128 436.664,932.847 447.079,970.126 457.494,1004.94 467.91,1036.43 478.325,1064 488.74,1087.4 499.155,1106.71 509.571,1122.37 519.986,1135.11 
  530.401,1145.89 540.816,1155.76 551.232,1165.76 561.647,1176.81 572.062,1189.58 582.477,1204.46 592.893,1221.49 603.308,1240.34 613.723,1260.41 624.138,1280.83 
  634.554,1300.62 644.969,1318.78 655.384,1334.42 665.799,1346.83 676.215,1355.61 686.63,1360.69 697.045,1362.37 707.46,1361.23 717.875,1358.14 728.291,1354.1 
  738.706,1350.18 749.121,1347.37 759.536,1346.47 769.952,1348 780.367,1352.18 790.782,1358.83 801.197,1367.47 811.613,1377.34 822.028,1387.47 832.443,1396.84 
  842.858,1404.44 853.274,1409.44 863.689,1411.23 874.104,1409.55 884.519,1404.45 894.935,1396.36 905.35,1385.96 915.765,1374.18 926.18,1362.04 936.596,1350.54 
  947.011,1340.56 957.426,1332.76 967.841,1327.48 978.257,1324.71 988.672,1324.12 999.087,1325.04 1009.5,1326.56 1019.92,1327.65 1030.33,1327.25 1040.75,1324.38 
  1051.16,1318.29 1061.58,1308.49 1071.99,1294.85 1082.41,1277.56 1092.82,1257.17 1103.24,1234.45 1113.65,1210.38 1124.07,1185.95 1134.49,1162.1 1144.9,1139.62 
  1155.32,1119 1165.73,1100.41 1176.15,1083.69 1186.56,1068.34 1196.98,1053.57 1207.39,1038.44 1217.81,1021.88 1228.22,1002.92 1238.64,980.707 1249.05,954.656 
  1259.47,924.508 1269.88,890.363 1280.3,852.675 1290.71,812.203 1301.13,769.941 1311.54,727.006 1321.96,684.522 1332.37,643.511 1342.79,604.778 1353.21,568.844 
  1363.62,535.896 1374.04,505.785 1384.45,478.059 1394.87,452.035 1405.28,426.894 1415.7,401.796 1426.11,375.998 1436.53,348.956 1446.94,320.408 1457.36,290.428 
  1467.77,259.435 1478.19,228.168 1488.6,197.615 1499.02,168.925 1509.43,143.29 1519.85,121.821 1530.26,105.443 1540.68,94.7926 1551.09,90.1583 1561.51,91.4546 
  1571.93,98.2354 1582.34,109.748 1592.76,125.018 1603.17,142.957 1613.59,162.485 1624,182.643 1634.42,202.692 1644.83,222.191 1655.25,241.027 1665.66,259.42 
  1676.08,277.873 1686.49,297.106 1696.91,317.947 1707.32,341.221 1717.74,367.639 1728.15,397.688 1738.57,431.564 1748.98,469.121 1759.4,509.871 1769.81,553.02 
  1780.23,597.538 1790.65,642.256 1801.06,685.986 1811.48,727.636 1821.89,766.32 1832.31,801.446 1842.72,832.772 1853.14,860.415 1863.55,884.837 1873.97,906.776 
  1884.38,927.158 1894.8,946.982 1905.21,967.205 1915.63,988.625 1926.04,1011.79 1936.46,1036.92 1946.87,1063.92 1957.29,1092.32 1967.7,1121.41 1978.12,1150.27 
  1988.53,1177.87 1998.95,1203.24 2009.37,1225.53 2019.78,1244.12 2030.2,1258.74 2040.61,1269.44 2051.03,1276.61 2061.44,1280.97 2071.86,1283.44 2082.27,1285.07 
  2092.69,1286.94 2103.1,1289.99 2113.52,1294.95 2123.93,1302.26 2134.35,1312.02 2144.76,1323.98 2155.18,1337.55 2165.59,1351.91 2176.01,1366.09 2186.42,1379.06 
  2196.84,1389.88 2207.25,1397.8 2217.67,1402.34 2228.09,1403.34 2238.5,1401.02 2248.92,1395.89 2259.33,1388.77 2269.75,1380.62 2280.16,1372.49 2290.58,1365.37 
  
  "/>
<polyline clip-path="url(#clip573)" style="stroke:#3da44d; stroke-linecap:butt; stroke-linejoin:round; stroke-width:4; stroke-opacity:1; fill:none" points="
  217.944,222.906 228.359,251.104 238.774,280.358 249.19,310.58 259.605,341.679 270.02,373.566 280.435,406.15 290.851,439.343 301.266,473.053 311.681,507.192 
  322.096,541.669 332.512,576.395 342.927,611.279 353.342,646.233 363.757,681.166 374.173,715.988 384.588,750.61 395.003,784.941 405.418,818.893 415.833,852.374 
  426.249,885.296 436.664,917.569 447.079,949.102 457.494,979.805 467.91,1009.59 478.325,1038.37 488.74,1066.04 499.155,1092.53 509.571,1117.74 519.986,1141.59 
  530.401,1164.05 540.816,1185.16 551.232,1204.95 561.647,1223.45 572.062,1240.71 582.477,1256.75 592.893,1271.61 603.308,1285.32 613.723,1297.91 624.138,1309.43 
  634.554,1319.9 644.969,1329.36 655.384,1337.84 665.799,1345.38 676.215,1352.02 686.63,1357.8 697.045,1362.75 707.46,1366.93 717.875,1370.38 728.291,1373.15 
  738.706,1375.27 749.121,1376.78 759.536,1377.74 769.952,1378.19 780.367,1378.16 790.782,1377.71 801.197,1376.87 811.613,1375.7 822.028,1374.22 832.443,1372.45 
  842.858,1370.39 853.274,1368.08 863.689,1365.5 874.104,1362.68 884.519,1359.62 894.935,1356.34 905.35,1352.85 915.765,1349.16 926.18,1345.28 936.596,1341.22 
  947.011,1337 957.426,1332.61 967.841,1328.08 978.257,1323.34 988.672,1318.36 999.087,1313.07 1009.5,1307.42 1019.92,1301.35 1030.33,1294.81 1040.75,1287.74 
  1051.16,1280.08 1061.58,1271.79 1071.99,1262.79 1082.41,1253.05 1092.82,1242.51 1103.24,1231.1 1113.65,1218.77 1124.07,1205.48 1134.49,1191.18 1144.9,1175.83 
  1155.32,1159.38 1165.73,1141.79 1176.15,1123.02 1186.56,1103.02 1196.98,1081.75 1207.39,1059.17 1217.81,1035.23 1228.22,1009.88 1238.64,983.091 1249.05,954.81 
  1259.47,924.999 1269.88,893.714 1280.3,861.109 1290.71,827.338 1301.13,792.56 1311.54,756.93 1321.96,720.604 1332.37,683.74 1342.79,646.493 1353.21,609.02 
  1363.62,571.478 1374.04,534.023 1384.45,496.811 1394.87,459.999 1405.28,423.744 1415.7,388.221 1426.11,353.64 1436.53,320.216 1446.94,288.162 1457.36,257.691 
  1467.77,229.016 1478.19,202.353 1488.6,177.913 1499.02,155.911 1509.43,136.559 1519.85,120.073 1530.26,106.665 1540.68,96.5489 1551.09,89.9381 1561.51,86.9719 
  1571.93,87.5493 1582.34,91.5209 1592.76,98.7371 1603.17,109.049 1613.59,122.306 1624,138.359 1634.42,157.06 1644.83,178.258 1655.25,201.804 1665.66,227.548 
  1676.08,255.342 1686.49,285.035 1696.91,316.478 1707.32,349.516 1717.74,383.955 1728.15,419.587 1738.57,456.205 1748.98,493.6 1759.4,531.565 1769.81,569.891 
  1780.23,608.372 1790.65,646.798 1801.06,684.962 1811.48,722.656 1821.89,759.673 1832.31,795.804 1842.72,830.841 1853.14,864.587 1863.55,896.967 1873.97,927.992 
  1884.38,957.676 1894.8,986.031 1905.21,1013.07 1915.63,1038.8 1926.04,1063.25 1936.46,1086.42 1946.87,1108.32 1957.29,1128.97 1967.7,1148.38 1978.12,1166.57 
  1988.53,1183.54 1998.95,1199.32 2009.37,1213.92 2019.78,1227.41 2030.2,1239.84 2040.61,1251.26 2051.03,1261.73 2061.44,1271.31 2071.86,1280.04 2082.27,1287.98 
  2092.69,1295.19 2103.1,1301.72 2113.52,1307.63 2123.93,1312.97 2134.35,1317.79 2144.76,1322.15 2155.18,1326.11 2165.59,1329.71 2176.01,1333.02 2186.42,1336.08 
  2196.84,1338.96 2207.25,1341.7 2217.67,1344.36 2228.09,1347 2238.5,1349.67 2248.92,1352.42 2259.33,1355.31 2269.75,1358.4 2280.16,1361.74 2290.58,1365.37 
  
  "/>
<path clip-path="url(#clip570)" d="
M228.998 301.395 L1145.42 301.395 L1145.42 94.0346 L228.998 94.0346  Z
  " fill="#ffffff" fill-rule="evenodd" fill-opacity="1"/>
<polyline clip-path="url(#clip570)" style="stroke:#000000; stroke-linecap:butt; stroke-linejoin:round; stroke-width:4; stroke-opacity:1; fill:none" points="
  228.998,301.395 1145.42,301.395 1145.42,94.0346 228.998,94.0346 228.998,301.395 
  "/>
<circle clip-path="url(#clip570)" cx="326.642" cy="145.875" r="23" fill="#009af9" fill-rule="evenodd" fill-opacity="1" stroke="#000000" stroke-opacity="1" stroke-width="5.12"/>
<path clip-path="url(#clip570)" d="M438.129 165.562 Q436.323 170.192 434.61 171.604 Q432.897 173.016 430.027 173.016 L426.624 173.016 L426.624 169.451 L429.124 169.451 Q430.883 169.451 431.855 168.618 Q432.828 167.784 434.008 164.682 L434.772 162.738 L424.286 137.229 L428.8 137.229 L436.902 157.507 L445.004 137.229 L449.517 137.229 L438.129 165.562 Z" fill="#000000" fill-rule="evenodd" fill-opacity="1" /><path clip-path="url(#clip570)" d="M467.272 149.173 Q470.142 149.729 471.739 151.419 Q473.337 153.108 473.337 155.608 Q473.337 159.613 470.351 161.719 Q467.365 163.826 461.855 163.826 Q460.003 163.826 458.036 163.502 Q456.091 163.178 454.008 162.53 L454.008 158.571 Q455.652 159.428 457.619 159.868 Q459.587 160.284 461.74 160.284 Q465.235 160.284 467.179 158.988 Q469.147 157.692 469.147 155.608 Q469.147 153.571 467.411 152.345 Q465.675 151.095 462.503 151.095 L459.078 151.095 L459.078 147.576 L462.665 147.576 Q465.351 147.576 466.902 146.558 Q468.476 145.516 468.476 143.895 Q468.476 142.414 466.855 141.349 Q465.258 140.284 462.503 140.284 Q460.86 140.284 458.985 140.585 Q457.133 140.886 454.888 141.558 L454.888 137.692 Q457.156 137.136 459.124 136.858 Q461.091 136.581 462.851 136.581 Q467.388 136.581 470.003 138.409 Q472.642 140.215 472.642 143.479 Q472.642 145.632 471.253 147.136 Q469.864 148.618 467.272 149.173 Z" fill="#000000" fill-rule="evenodd" fill-opacity="1" /><path clip-path="url(#clip570)" d="M477.897 163.155 L477.897 159.613 Q482.11 158.965 483.406 156.048 Q484.98 151.951 484.98 141.465 L484.98 137.229 L502.503 137.229 L502.503 163.155 L498.244 163.155 L498.244 140.632 L489.239 140.632 L489.239 143.201 Q489.239 153.201 487.202 157.692 Q485.026 162.483 477.897 163.155 Z" fill="#000000" fill-rule="evenodd" fill-opacity="1" /><path clip-path="url(#clip570)" d="M535.397 137.229 L539.656 137.229 L539.656 163.155 L535.397 163.155 L535.397 137.229 M537.526 136.604 L537.526 136.604 M527.04 155.469 Q527.04 153.386 525.512 152.298 Q524.008 151.21 521.091 151.21 L515.026 151.21 L515.026 159.752 L521.091 159.752 Q524.008 159.752 525.512 158.664 Q527.04 157.553 527.04 155.469 M510.744 137.229 L515.026 137.229 L515.026 147.807 L521.276 147.807 Q526.23 147.807 528.892 149.706 Q531.577 151.581 531.577 155.469 Q531.577 159.358 528.892 161.256 Q526.23 163.155 521.276 163.155 L510.744 163.155 L510.744 137.229 Z" fill="#000000" fill-rule="evenodd" fill-opacity="1" /><path clip-path="url(#clip570)" d="M585.443 137.229 L585.443 163.155 L581.206 163.155 L581.206 142.345 L568.707 163.155 L563.244 163.155 L563.244 137.229 L567.48 137.229 L567.48 157.993 L579.956 137.229 L585.443 137.229 Z" fill="#000000" fill-rule="evenodd" fill-opacity="1" /><path clip-path="url(#clip570)" d="M594.054 137.229 L598.336 137.229 L598.336 147.807 L612.155 147.807 L612.155 137.229 L616.438 137.229 L616.438 163.155 L612.155 163.155 L612.155 151.21 L598.336 151.21 L598.336 163.155 L594.054 163.155 L594.054 137.229 Z" fill="#000000" fill-rule="evenodd" fill-opacity="1" /><path clip-path="url(#clip570)" d="M622.132 137.229 L646.97 137.229 L646.97 140.632 L636.646 140.632 L636.646 163.155 L632.456 163.155 L632.456 140.632 L622.132 140.632 L622.132 137.229 Z" fill="#000000" fill-rule="evenodd" fill-opacity="1" /><path clip-path="url(#clip570)" d="M675.002 149.127 L675.002 151.21 L655.419 151.21 Q655.697 155.608 658.058 157.923 Q660.442 160.215 664.678 160.215 Q667.132 160.215 669.424 159.613 Q671.738 159.011 674.007 157.807 L674.007 161.835 Q671.715 162.807 669.308 163.317 Q666.9 163.826 664.424 163.826 Q658.22 163.826 654.586 160.215 Q650.975 156.604 650.975 150.446 Q650.975 144.081 654.401 140.354 Q657.85 136.604 663.683 136.604 Q668.914 136.604 671.947 139.983 Q675.002 143.34 675.002 149.127 M670.743 147.877 Q670.697 144.382 668.775 142.298 Q666.877 140.215 663.729 140.215 Q660.164 140.215 658.012 142.229 Q655.882 144.243 655.558 147.9 L670.743 147.877 Z" fill="#000000" fill-rule="evenodd" fill-opacity="1" /><path clip-path="url(#clip570)" d="M686.113 159.266 L686.113 173.016 L681.831 173.016 L681.831 137.229 L686.113 137.229 L686.113 141.164 Q687.456 138.849 689.493 137.738 Q691.553 136.604 694.4 136.604 Q699.123 136.604 702.062 140.354 Q705.025 144.104 705.025 150.215 Q705.025 156.326 702.062 160.076 Q699.123 163.826 694.4 163.826 Q691.553 163.826 689.493 162.715 Q687.456 161.581 686.113 159.266 M700.604 150.215 Q700.604 145.516 698.66 142.854 Q696.738 140.169 693.359 140.169 Q689.979 140.169 688.035 142.854 Q686.113 145.516 686.113 150.215 Q686.113 154.914 688.035 157.599 Q689.979 160.261 693.359 160.261 Q696.738 160.261 698.66 157.599 Q700.604 154.914 700.604 150.215 Z" fill="#000000" fill-rule="evenodd" fill-opacity="1" /><path clip-path="url(#clip570)" d="M734.308 137.229 L734.308 163.155 L730.025 163.155 L730.025 140.632 L716.206 140.632 L716.206 163.155 L711.923 163.155 L711.923 137.229 L734.308 137.229 Z" fill="#000000" fill-rule="evenodd" fill-opacity="1" /><path clip-path="url(#clip570)" d="M753.127 140.215 Q749.701 140.215 747.71 142.9 Q745.719 145.562 745.719 150.215 Q745.719 154.868 747.687 157.553 Q749.678 160.215 753.127 160.215 Q756.53 160.215 758.52 157.53 Q760.511 154.844 760.511 150.215 Q760.511 145.608 758.52 142.923 Q756.53 140.215 753.127 140.215 M753.127 136.604 Q758.682 136.604 761.854 140.215 Q765.025 143.826 765.025 150.215 Q765.025 156.581 761.854 160.215 Q758.682 163.826 753.127 163.826 Q747.548 163.826 744.377 160.215 Q741.229 156.581 741.229 150.215 Q741.229 143.826 744.377 140.215 Q747.548 136.604 753.127 136.604 Z" fill="#000000" fill-rule="evenodd" fill-opacity="1" /><path clip-path="url(#clip570)" d="M769.377 163.155 L769.377 159.613 Q773.59 158.965 774.886 156.048 Q776.46 151.951 776.46 141.465 L776.46 137.229 L793.983 137.229 L793.983 163.155 L789.724 163.155 L789.724 140.632 L780.719 140.632 L780.719 143.201 Q780.719 153.201 778.682 157.692 Q776.506 162.483 769.377 163.155 Z" fill="#000000" fill-rule="evenodd" fill-opacity="1" /><path clip-path="url(#clip570)" d="M806.668 144.706 Q806.668 146.627 808.15 147.715 Q809.631 148.803 812.386 148.803 L818.127 148.803 L818.127 140.632 L812.386 140.632 Q809.631 140.632 808.15 141.696 Q806.668 142.761 806.668 144.706 M800.603 163.155 L808.52 151.789 Q805.835 151.187 804.053 149.613 Q802.27 148.016 802.27 144.706 Q802.27 140.956 804.747 139.104 Q807.247 137.229 812.27 137.229 L822.409 137.229 L822.409 163.155 L818.127 163.155 L818.127 152.206 L812.826 152.206 L805.187 163.155 L800.603 163.155 Z" fill="#000000" fill-rule="evenodd" fill-opacity="1" /><path clip-path="url(#clip570)" d="M853.126 163.155 L830.742 163.155 L830.742 137.229 L835.025 137.229 L835.025 159.752 L848.844 159.752 L848.844 137.229 L853.126 137.229 L853.126 159.752 L856.529 159.752 L856.529 169.706 L853.126 169.706 L853.126 163.155 Z" fill="#000000" fill-rule="evenodd" fill-opacity="1" /><path clip-path="url(#clip570)" d="M885.209 137.229 L885.209 163.155 L880.973 163.155 L880.973 142.345 L868.473 163.155 L863.011 163.155 L863.011 137.229 L867.247 137.229 L867.247 157.993 L879.723 137.229 L885.209 137.229 Z" fill="#000000" fill-rule="evenodd" fill-opacity="1" /><path clip-path="url(#clip570)" d="M916.02 137.229 L916.02 163.155 L911.783 163.155 L911.783 142.345 L899.283 163.155 L893.821 163.155 L893.821 137.229 L898.057 137.229 L898.057 157.993 L910.533 137.229 L916.02 137.229 Z" fill="#000000" fill-rule="evenodd" fill-opacity="1" /><polyline clip-path="url(#clip570)" style="stroke:#e26f46; stroke-linecap:butt; stroke-linejoin:round; stroke-width:4; stroke-opacity:1; fill:none" points="
  253.409,197.715 399.875,197.715 
  "/>
<path clip-path="url(#clip570)" d="M448.314 200.967 L448.314 203.05 L428.73 203.05 Q429.008 207.448 431.369 209.763 Q433.754 212.055 437.99 212.055 Q440.443 212.055 442.735 211.453 Q445.05 210.851 447.318 209.647 L447.318 213.675 Q445.027 214.647 442.619 215.157 Q440.212 215.666 437.735 215.666 Q431.531 215.666 427.897 212.055 Q424.286 208.444 424.286 202.286 Q424.286 195.921 427.712 192.194 Q431.161 188.444 436.994 188.444 Q442.226 188.444 445.258 191.823 Q448.314 195.18 448.314 200.967 M444.054 199.717 Q444.008 196.222 442.087 194.138 Q440.189 192.055 437.041 192.055 Q433.476 192.055 431.323 194.069 Q429.193 196.083 428.869 199.74 L444.054 199.717 Z" fill="#000000" fill-rule="evenodd" fill-opacity="1" /><path clip-path="url(#clip570)" d="M476.022 189.069 L466.647 201.685 L476.508 214.995 L471.485 214.995 L463.939 204.81 L456.392 214.995 L451.369 214.995 L461.439 201.43 L452.226 189.069 L457.249 189.069 L464.124 198.305 L470.999 189.069 L476.022 189.069 Z" fill="#000000" fill-rule="evenodd" fill-opacity="1" /><path clip-path="url(#clip570)" d="M486.647 211.106 L486.647 224.856 L482.364 224.856 L482.364 189.069 L486.647 189.069 L486.647 193.004 Q487.989 190.689 490.026 189.578 Q492.087 188.444 494.934 188.444 Q499.656 188.444 502.596 192.194 Q505.559 195.944 505.559 202.055 Q505.559 208.166 502.596 211.916 Q499.656 215.666 494.934 215.666 Q492.087 215.666 490.026 214.555 Q487.989 213.421 486.647 211.106 M501.137 202.055 Q501.137 197.356 499.193 194.694 Q497.272 192.009 493.892 192.009 Q490.513 192.009 488.568 194.694 Q486.647 197.356 486.647 202.055 Q486.647 206.754 488.568 209.439 Q490.513 212.101 493.892 212.101 Q497.272 212.101 499.193 209.439 Q501.137 206.754 501.137 202.055 Z" fill="#000000" fill-rule="evenodd" fill-opacity="1" /><path clip-path="url(#clip570)" d="M522.85 179.023 Q519.748 184.347 518.244 189.555 Q516.739 194.763 516.739 200.11 Q516.739 205.458 518.244 210.712 Q519.772 215.944 522.85 221.245 L519.147 221.245 Q515.674 215.805 513.938 210.55 Q512.225 205.296 512.225 200.11 Q512.225 194.948 513.938 189.717 Q515.651 184.486 519.147 179.023 L522.85 179.023 Z" fill="#000000" fill-rule="evenodd" fill-opacity="1" /><path clip-path="url(#clip570)" d="M547.642 189.833 L547.642 193.86 Q545.836 192.935 543.892 192.472 Q541.947 192.009 539.864 192.009 Q536.693 192.009 535.096 192.981 Q533.522 193.953 533.522 195.898 Q533.522 197.379 534.656 198.235 Q535.79 199.069 539.216 199.833 L540.674 200.157 Q545.211 201.129 547.109 202.911 Q549.031 204.671 549.031 207.842 Q549.031 211.453 546.16 213.559 Q543.313 215.666 538.313 215.666 Q536.23 215.666 533.961 215.249 Q531.716 214.856 529.216 214.046 L529.216 209.647 Q531.577 210.874 533.869 211.499 Q536.16 212.101 538.406 212.101 Q541.415 212.101 543.035 211.083 Q544.656 210.041 544.656 208.166 Q544.656 206.43 543.475 205.504 Q542.318 204.578 538.359 203.722 L536.878 203.374 Q532.92 202.541 531.16 200.828 Q529.401 199.092 529.401 196.083 Q529.401 192.425 531.994 190.435 Q534.586 188.444 539.355 188.444 Q541.716 188.444 543.799 188.791 Q545.883 189.138 547.642 189.833 Z" fill="#000000" fill-rule="evenodd" fill-opacity="1" /><path clip-path="url(#clip570)" d="M555.813 189.069 L560.072 189.069 L560.072 214.995 L555.813 214.995 L555.813 189.069 M555.813 178.976 L560.072 178.976 L560.072 184.37 L555.813 184.37 L555.813 178.976 Z" fill="#000000" fill-rule="evenodd" fill-opacity="1" /><path clip-path="url(#clip570)" d="M590.535 199.347 L590.535 214.995 L586.276 214.995 L586.276 199.485 Q586.276 195.805 584.841 193.976 Q583.406 192.148 580.535 192.148 Q577.086 192.148 575.095 194.347 Q573.105 196.546 573.105 200.342 L573.105 214.995 L568.822 214.995 L568.822 189.069 L573.105 189.069 L573.105 193.097 Q574.632 190.759 576.693 189.601 Q578.776 188.444 581.484 188.444 Q585.952 188.444 588.243 191.222 Q590.535 193.976 590.535 199.347 Z" fill="#000000" fill-rule="evenodd" fill-opacity="1" /><path clip-path="url(#clip570)" d="M609.262 179.023 Q606.16 184.347 604.655 189.555 Q603.151 194.763 603.151 200.11 Q603.151 205.458 604.655 210.712 Q606.183 215.944 609.262 221.245 L605.558 221.245 Q602.086 215.805 600.35 210.55 Q598.637 205.296 598.637 200.11 Q598.637 194.948 600.35 189.717 Q602.063 184.486 605.558 179.023 L609.262 179.023 Z" fill="#000000" fill-rule="evenodd" fill-opacity="1" /><path clip-path="url(#clip570)" d="M622.155 211.059 L638.475 211.059 L638.475 214.995 L616.53 214.995 L616.53 211.059 Q619.192 208.305 623.776 203.675 Q628.382 199.022 629.563 197.68 Q631.808 195.157 632.688 193.421 Q633.59 191.661 633.59 189.972 Q633.59 187.217 631.646 185.481 Q629.725 183.745 626.623 183.745 Q624.424 183.745 621.97 184.509 Q619.54 185.273 616.762 186.823 L616.762 182.101 Q619.586 180.967 622.04 180.388 Q624.493 179.81 626.53 179.81 Q631.901 179.81 635.095 182.495 Q638.29 185.18 638.29 189.671 Q638.29 191.8 637.479 193.722 Q636.692 195.62 634.586 198.212 Q634.007 198.884 630.905 202.101 Q627.803 205.296 622.155 211.059 Z" fill="#000000" fill-rule="evenodd" fill-opacity="1" /><path clip-path="url(#clip570)" d="M669.238 189.069 L659.863 201.685 L669.725 214.995 L664.701 214.995 L657.155 204.81 L649.609 214.995 L644.586 214.995 L654.655 201.43 L645.442 189.069 L650.465 189.069 L657.34 198.305 L664.215 189.069 L669.238 189.069 Z" fill="#000000" fill-rule="evenodd" fill-opacity="1" /><path clip-path="url(#clip570)" d="M675.072 179.023 L678.775 179.023 Q682.248 184.486 683.961 189.717 Q685.697 194.948 685.697 200.11 Q685.697 205.296 683.961 210.55 Q682.248 215.805 678.775 221.245 L675.072 221.245 Q678.15 215.944 679.655 210.712 Q681.183 205.458 681.183 200.11 Q681.183 194.763 679.655 189.555 Q678.15 184.347 675.072 179.023 Z" fill="#000000" fill-rule="evenodd" fill-opacity="1" /><path clip-path="url(#clip570)" d="M693.567 179.023 L697.271 179.023 Q700.743 184.486 702.456 189.717 Q704.192 194.948 704.192 200.11 Q704.192 205.296 702.456 210.55 Q700.743 215.805 697.271 221.245 L693.567 221.245 Q696.646 215.944 698.15 210.712 Q699.678 205.458 699.678 200.11 Q699.678 194.763 698.15 189.555 Q696.646 184.347 693.567 179.023 Z" fill="#000000" fill-rule="evenodd" fill-opacity="1" /><path clip-path="url(#clip570)" d="M745.141 185.273 L745.141 198.166 L758.034 198.166 L758.034 202.101 L745.141 202.101 L745.141 214.995 L741.252 214.995 L741.252 202.101 L728.358 202.101 L728.358 198.166 L741.252 198.166 L741.252 185.273 L745.141 185.273 Z" fill="#000000" fill-rule="evenodd" fill-opacity="1" /><path clip-path="url(#clip570)" d="M793.196 183.513 Q789.585 183.513 787.756 187.078 Q785.951 190.62 785.951 197.749 Q785.951 204.856 787.756 208.421 Q789.585 211.962 793.196 211.962 Q796.83 211.962 798.636 208.421 Q800.465 204.856 800.465 197.749 Q800.465 190.62 798.636 187.078 Q796.83 183.513 793.196 183.513 M793.196 179.81 Q799.006 179.81 802.062 184.416 Q805.14 188.999 805.14 197.749 Q805.14 206.476 802.062 211.083 Q799.006 215.666 793.196 215.666 Q787.386 215.666 784.307 211.083 Q781.252 206.476 781.252 197.749 Q781.252 188.999 784.307 184.416 Q787.386 179.81 793.196 179.81 Z" fill="#000000" fill-rule="evenodd" fill-opacity="1" /><path clip-path="url(#clip570)" d="M813.358 209.115 L818.242 209.115 L818.242 214.995 L813.358 214.995 L813.358 209.115 Z" fill="#000000" fill-rule="evenodd" fill-opacity="1" /><path clip-path="url(#clip570)" d="M838.427 183.513 Q834.816 183.513 832.988 187.078 Q831.182 190.62 831.182 197.749 Q831.182 204.856 832.988 208.421 Q834.816 211.962 838.427 211.962 Q842.062 211.962 843.867 208.421 Q845.696 204.856 845.696 197.749 Q845.696 190.62 843.867 187.078 Q842.062 183.513 838.427 183.513 M838.427 179.81 Q844.237 179.81 847.293 184.416 Q850.372 188.999 850.372 197.749 Q850.372 206.476 847.293 211.083 Q844.237 215.666 838.427 215.666 Q832.617 215.666 829.538 211.083 Q826.483 206.476 826.483 197.749 Q826.483 188.999 829.538 184.416 Q832.617 179.81 838.427 179.81 Z" fill="#000000" fill-rule="evenodd" fill-opacity="1" /><path clip-path="url(#clip570)" d="M858.636 180.435 L876.992 180.435 L876.992 184.37 L862.918 184.37 L862.918 192.842 Q863.936 192.495 864.955 192.333 Q865.973 192.148 866.992 192.148 Q872.779 192.148 876.159 195.319 Q879.538 198.49 879.538 203.907 Q879.538 209.485 876.066 212.587 Q872.594 215.666 866.274 215.666 Q864.098 215.666 861.83 215.296 Q859.585 214.925 857.177 214.184 L857.177 209.485 Q859.261 210.62 861.483 211.175 Q863.705 211.731 866.182 211.731 Q870.186 211.731 872.524 209.624 Q874.862 207.518 874.862 203.907 Q874.862 200.296 872.524 198.189 Q870.186 196.083 866.182 196.083 Q864.307 196.083 862.432 196.499 Q860.58 196.916 858.636 197.796 L858.636 180.435 Z" fill="#000000" fill-rule="evenodd" fill-opacity="1" /><path clip-path="url(#clip570)" d="M905.973 186.129 L897.663 190.62 L905.973 195.134 L904.631 197.402 L896.853 192.703 L896.853 201.43 L894.214 201.43 L894.214 192.703 L886.436 197.402 L885.094 195.134 L893.404 190.62 L885.094 186.129 L886.436 183.837 L894.214 188.536 L894.214 179.81 L896.853 179.81 L896.853 188.536 L904.631 183.837 L905.973 186.129 Z" fill="#000000" fill-rule="evenodd" fill-opacity="1" /><path clip-path="url(#clip570)" d="M928.381 189.833 L928.381 193.86 Q926.575 192.935 924.631 192.472 Q922.686 192.009 920.603 192.009 Q917.432 192.009 915.834 192.981 Q914.26 193.953 914.26 195.898 Q914.26 197.379 915.395 198.235 Q916.529 199.069 919.955 199.833 L921.413 200.157 Q925.95 201.129 927.848 202.911 Q929.769 204.671 929.769 207.842 Q929.769 211.453 926.899 213.559 Q924.052 215.666 919.052 215.666 Q916.969 215.666 914.7 215.249 Q912.455 214.856 909.955 214.046 L909.955 209.647 Q912.316 210.874 914.607 211.499 Q916.899 212.101 919.144 212.101 Q922.154 212.101 923.774 211.083 Q925.394 210.041 925.394 208.166 Q925.394 206.43 924.214 205.504 Q923.057 204.578 919.098 203.722 L917.617 203.374 Q913.658 202.541 911.899 200.828 Q910.14 199.092 910.14 196.083 Q910.14 192.425 912.732 190.435 Q915.325 188.444 920.094 188.444 Q922.455 188.444 924.538 188.791 Q926.621 189.138 928.381 189.833 Z" fill="#000000" fill-rule="evenodd" fill-opacity="1" /><path clip-path="url(#clip570)" d="M936.552 189.069 L940.811 189.069 L940.811 214.995 L936.552 214.995 L936.552 189.069 M936.552 178.976 L940.811 178.976 L940.811 184.37 L936.552 184.37 L936.552 178.976 Z" fill="#000000" fill-rule="evenodd" fill-opacity="1" /><path clip-path="url(#clip570)" d="M971.274 199.347 L971.274 214.995 L967.015 214.995 L967.015 199.485 Q967.015 195.805 965.579 193.976 Q964.144 192.148 961.274 192.148 Q957.825 192.148 955.834 194.347 Q953.843 196.546 953.843 200.342 L953.843 214.995 L949.561 214.995 L949.561 189.069 L953.843 189.069 L953.843 193.097 Q955.371 190.759 957.431 189.601 Q959.515 188.444 962.223 188.444 Q966.691 188.444 968.982 191.222 Q971.274 193.976 971.274 199.347 Z" fill="#000000" fill-rule="evenodd" fill-opacity="1" /><path clip-path="url(#clip570)" d="M990.001 179.023 Q986.899 184.347 985.394 189.555 Q983.89 194.763 983.89 200.11 Q983.89 205.458 985.394 210.712 Q986.922 215.944 990.001 221.245 L986.297 221.245 Q982.825 215.805 981.089 210.55 Q979.376 205.296 979.376 200.11 Q979.376 194.948 981.089 189.717 Q982.802 184.486 986.297 179.023 L990.001 179.023 Z" fill="#000000" fill-rule="evenodd" fill-opacity="1" /><path clip-path="url(#clip570)" d="M999.676 211.059 L1007.32 211.059 L1007.32 184.694 L999.005 186.361 L999.005 182.101 L1007.27 180.435 L1011.94 180.435 L1011.94 211.059 L1019.58 211.059 L1019.58 214.995 L999.676 214.995 L999.676 211.059 Z" fill="#000000" fill-rule="evenodd" fill-opacity="1" /><path clip-path="url(#clip570)" d="M1029.07 180.435 L1047.43 180.435 L1047.43 184.37 L1033.36 184.37 L1033.36 192.842 Q1034.38 192.495 1035.39 192.333 Q1036.41 192.148 1037.43 192.148 Q1043.22 192.148 1046.6 195.319 Q1049.98 198.49 1049.98 203.907 Q1049.98 209.485 1046.5 212.587 Q1043.03 215.666 1036.71 215.666 Q1034.54 215.666 1032.27 215.296 Q1030.02 214.925 1027.62 214.184 L1027.62 209.485 Q1029.7 210.62 1031.92 211.175 Q1034.14 211.731 1036.62 211.731 Q1040.63 211.731 1042.96 209.624 Q1045.3 207.518 1045.3 203.907 Q1045.3 200.296 1042.96 198.189 Q1040.63 196.083 1036.62 196.083 Q1034.75 196.083 1032.87 196.499 Q1031.02 196.916 1029.07 197.796 L1029.07 180.435 Z" fill="#000000" fill-rule="evenodd" fill-opacity="1" /><path clip-path="url(#clip570)" d="M1080.14 189.069 L1070.76 201.685 L1080.63 214.995 L1075.6 214.995 L1068.06 204.81 L1060.51 214.995 L1055.49 214.995 L1065.56 201.43 L1056.34 189.069 L1061.37 189.069 L1068.24 198.305 L1075.12 189.069 L1080.14 189.069 Z" fill="#000000" fill-rule="evenodd" fill-opacity="1" /><path clip-path="url(#clip570)" d="M1085.97 179.023 L1089.68 179.023 Q1093.15 184.486 1094.86 189.717 Q1096.6 194.948 1096.6 200.11 Q1096.6 205.296 1094.86 210.55 Q1093.15 215.805 1089.68 221.245 L1085.97 221.245 Q1089.05 215.944 1090.56 210.712 Q1092.08 205.458 1092.08 200.11 Q1092.08 194.763 1090.56 189.555 Q1089.05 184.347 1085.97 179.023 Z" fill="#000000" fill-rule="evenodd" fill-opacity="1" /><polyline clip-path="url(#clip570)" style="stroke:#3da44d; stroke-linecap:butt; stroke-linejoin:round; stroke-width:4; stroke-opacity:1; fill:none" points="
  253.409,249.555 399.875,249.555 
  "/>
<path clip-path="url(#clip570)" d="M424.286 240.909 L428.522 240.909 L428.522 253.085 L440.536 240.909 L445.767 240.909 L435.86 250.932 L447.041 266.835 L442.272 266.835 L433.082 253.756 L428.522 258.386 L428.522 266.835 L424.286 266.835 L424.286 240.909 Z" fill="#000000" fill-rule="evenodd" fill-opacity="1" /><path clip-path="url(#clip570)" d="M463.869 269.242 Q462.064 273.872 460.351 275.284 Q458.638 276.696 455.767 276.696 L452.365 276.696 L452.365 273.131 L454.865 273.131 Q456.624 273.131 457.596 272.298 Q458.568 271.464 459.749 268.362 L460.513 266.418 L450.027 240.909 L454.54 240.909 L462.642 261.187 L470.744 240.909 L475.258 240.909 L463.869 269.242 Z" fill="#000000" fill-rule="evenodd" fill-opacity="1" /><path clip-path="url(#clip570)" d="M491.415 240.284 Q496.971 240.284 500.142 243.895 Q503.313 247.506 503.313 253.895 Q503.313 260.261 500.142 263.895 Q496.971 267.506 491.415 267.506 Q485.837 267.506 482.758 263.987 Q479.679 260.469 479.517 253.895 L479.378 248.594 Q479.263 245.839 479.263 244.89 Q479.263 241.187 480.605 238.455 Q482.712 234.173 486.346 232.321 Q490.003 230.469 496.114 230.423 Q498.938 230.4 500.188 230.006 L501.369 233.386 Q500.235 233.849 499.193 233.872 L493.406 234.265 Q490.489 234.474 488.73 235.492 Q484.124 238.201 483.684 241.742 L483.522 243.038 Q486.531 240.284 491.415 240.284 M491.415 243.895 Q487.989 243.895 485.999 246.58 Q484.008 249.242 484.008 253.895 Q484.008 258.548 485.976 261.233 Q487.966 263.895 491.415 263.895 Q494.818 263.895 496.809 261.21 Q498.8 258.524 498.8 253.895 Q498.8 249.288 496.809 246.603 Q494.818 243.895 491.415 243.895 Z" fill="#000000" fill-rule="evenodd" fill-opacity="1" /><path clip-path="url(#clip570)" d="M532.41 240.909 L532.41 266.835 L528.174 266.835 L528.174 246.025 L515.674 266.835 L510.211 266.835 L510.211 240.909 L514.448 240.909 L514.448 261.673 L526.924 240.909 L532.41 240.909 Z" fill="#000000" fill-rule="evenodd" fill-opacity="1" /><path clip-path="url(#clip570)" d="M556.16 266.835 L556.16 255.932 L548.221 255.932 Q544.679 255.932 542.318 253.733 Q540.188 251.742 540.188 247.483 L540.188 240.909 L544.447 240.909 L544.447 247.089 Q544.447 249.798 545.651 251.163 Q546.878 252.529 549.285 252.529 L556.16 252.529 L556.16 240.909 L560.42 240.909 L560.42 266.835 L556.16 266.835 Z" fill="#000000" fill-rule="evenodd" fill-opacity="1" /><path clip-path="url(#clip570)" d="M591.368 252.807 L591.368 254.89 L571.785 254.89 Q572.063 259.288 574.424 261.603 Q576.808 263.895 581.044 263.895 Q583.498 263.895 585.79 263.293 Q588.105 262.691 590.373 261.487 L590.373 265.515 Q588.081 266.487 585.674 266.997 Q583.267 267.506 580.79 267.506 Q574.586 267.506 570.952 263.895 Q567.341 260.284 567.341 254.126 Q567.341 247.761 570.767 244.034 Q574.216 240.284 580.049 240.284 Q585.281 240.284 588.313 243.663 Q591.368 247.02 591.368 252.807 M587.109 251.557 Q587.063 248.062 585.142 245.978 Q583.244 243.895 580.095 243.895 Q576.531 243.895 574.378 245.909 Q572.248 247.923 571.924 251.58 L587.109 251.557 Z" fill="#000000" fill-rule="evenodd" fill-opacity="1" /><path clip-path="url(#clip570)" d="M617.016 241.904 L617.016 245.886 Q615.211 244.89 613.382 244.404 Q611.577 243.895 609.725 243.895 Q605.581 243.895 603.29 246.534 Q600.998 249.15 600.998 253.895 Q600.998 258.64 603.29 261.279 Q605.581 263.895 609.725 263.895 Q611.577 263.895 613.382 263.409 Q615.211 262.899 617.016 261.904 L617.016 265.839 Q615.234 266.673 613.313 267.089 Q611.415 267.506 609.262 267.506 Q603.405 267.506 599.956 263.825 Q596.507 260.145 596.507 253.895 Q596.507 247.552 599.98 243.918 Q603.475 240.284 609.54 240.284 Q611.507 240.284 613.382 240.701 Q615.257 241.094 617.016 241.904 Z" fill="#000000" fill-rule="evenodd" fill-opacity="1" /><path clip-path="url(#clip570)" d="M624.262 240.909 L628.498 240.909 L628.498 253.085 L640.512 240.909 L645.743 240.909 L635.836 250.932 L647.016 266.835 L642.248 266.835 L633.058 253.756 L628.498 258.386 L628.498 266.835 L624.262 266.835 L624.262 240.909 Z" fill="#000000" fill-rule="evenodd" fill-opacity="1" /><path clip-path="url(#clip570)" d="M675.095 240.909 L675.095 266.835 L670.859 266.835 L670.859 246.025 L658.359 266.835 L652.896 266.835 L652.896 240.909 L657.132 240.909 L657.132 261.673 L669.609 240.909 L675.095 240.909 Z" fill="#000000" fill-rule="evenodd" fill-opacity="1" /><path clip-path="url(#clip570)" d="M705.905 240.909 L705.905 266.835 L701.669 266.835 L701.669 246.025 L689.169 266.835 L683.706 266.835 L683.706 240.909 L687.942 240.909 L687.942 261.673 L700.419 240.909 L705.905 240.909 M687.572 230.816 L690.303 230.816 Q690.558 232.552 691.669 233.432 Q692.803 234.289 694.817 234.289 Q696.808 234.289 697.919 233.432 Q699.03 232.576 699.331 230.816 L702.062 230.816 Q701.831 234.126 700.002 235.793 Q698.173 237.46 694.817 237.46 Q691.461 237.46 689.632 235.793 Q687.803 234.126 687.572 230.816 Z" fill="#000000" fill-rule="evenodd" fill-opacity="1" /><path clip-path="url(#clip570)" d="M748.405 241.904 L748.405 245.886 Q746.599 244.89 744.77 244.404 Q742.965 243.895 741.113 243.895 Q736.97 243.895 734.678 246.534 Q732.386 249.15 732.386 253.895 Q732.386 258.64 734.678 261.279 Q736.97 263.895 741.113 263.895 Q742.965 263.895 744.77 263.409 Q746.599 262.899 748.405 261.904 L748.405 265.839 Q746.622 266.673 744.701 267.089 Q742.803 267.506 740.65 267.506 Q734.794 267.506 731.345 263.825 Q727.896 260.145 727.896 253.895 Q727.896 247.552 731.368 243.918 Q734.863 240.284 740.928 240.284 Q742.895 240.284 744.77 240.701 Q746.645 241.094 748.405 241.904 Z" fill="#000000" fill-rule="evenodd" fill-opacity="1" /><path clip-path="url(#clip570)" d="M778.034 240.909 L778.034 266.835 L773.752 266.835 L773.752 244.312 L759.932 244.312 L759.932 266.835 L755.65 266.835 L755.65 240.909 L778.034 240.909 Z" fill="#000000" fill-rule="evenodd" fill-opacity="1" /><path clip-path="url(#clip570)" d="M784.099 266.835 L784.099 263.293 Q788.312 262.645 789.608 259.728 Q791.182 255.631 791.182 245.145 L791.182 240.909 L808.705 240.909 L808.705 266.835 L804.446 266.835 L804.446 244.312 L795.441 244.312 L795.441 246.881 Q795.441 256.881 793.404 261.372 Q791.229 266.163 784.099 266.835 Z" fill="#000000" fill-rule="evenodd" fill-opacity="1" /><path clip-path="url(#clip570)" d="M828.89 253.802 Q823.728 253.802 821.738 254.983 Q819.747 256.163 819.747 259.011 Q819.747 261.279 821.228 262.622 Q822.733 263.941 825.302 263.941 Q828.844 263.941 830.974 261.441 Q833.126 258.918 833.126 254.751 L833.126 253.802 L828.89 253.802 M837.386 252.043 L837.386 266.835 L833.126 266.835 L833.126 262.899 Q831.668 265.261 829.492 266.395 Q827.316 267.506 824.168 267.506 Q820.187 267.506 817.826 265.284 Q815.488 263.038 815.488 259.288 Q815.488 254.913 818.404 252.691 Q821.344 250.469 827.154 250.469 L833.126 250.469 L833.126 250.052 Q833.126 247.113 831.182 245.515 Q829.261 243.895 825.765 243.895 Q823.543 243.895 821.437 244.427 Q819.33 244.96 817.386 246.025 L817.386 242.089 Q819.724 241.187 821.923 240.747 Q824.122 240.284 826.205 240.284 Q831.83 240.284 834.608 243.201 Q837.386 246.117 837.386 252.043 Z" fill="#000000" fill-rule="evenodd" fill-opacity="1" /><path clip-path="url(#clip570)" d="M868.196 240.909 L868.196 266.835 L863.96 266.835 L863.96 246.025 L851.46 266.835 L845.997 266.835 L845.997 240.909 L850.233 240.909 L850.233 261.673 L862.71 240.909 L868.196 240.909 M849.862 230.816 L852.594 230.816 Q852.849 232.552 853.96 233.432 Q855.094 234.289 857.108 234.289 Q859.099 234.289 860.21 233.432 Q861.321 232.576 861.622 230.816 L864.353 230.816 Q864.122 234.126 862.293 235.793 Q860.464 237.46 857.108 237.46 Q853.751 237.46 851.923 235.793 Q850.094 234.126 849.862 230.816 Z" fill="#000000" fill-rule="evenodd" fill-opacity="1" /><path clip-path="url(#clip570)" d="M876.807 240.909 L881.089 240.909 L881.089 251.487 L894.909 251.487 L894.909 240.909 L899.191 240.909 L899.191 266.835 L894.909 266.835 L894.909 254.89 L881.089 254.89 L881.089 266.835 L876.807 266.835 L876.807 240.909 Z" fill="#000000" fill-rule="evenodd" fill-opacity="1" /></svg>
