<?xml version="1.0" encoding="utf-8"?>
<svg xmlns="http://www.w3.org/2000/svg" xmlns:xlink="http://www.w3.org/1999/xlink" width="600" height="400" viewBox="0 0 2400 1600">
<defs>
  <clipPath id="clip080">
    <rect x="0" y="0" width="2400" height="1600"/>
  </clipPath>
</defs>
<path clip-path="url(#clip080)" d="
M0 1600 L2400 1600 L2400 0 L0 0  Z
  " fill="#ffffff" fill-rule="evenodd" fill-opacity="1"/>
<defs>
  <clipPath id="clip081">
    <rect x="480" y="0" width="1681" height="1600"/>
  </clipPath>
</defs>
<defs>
  <clipPath id="clip082">
    <rect x="155" y="47" width="2198" height="1405"/>
  </clipPath>
</defs>
<path clip-path="url(#clip080)" d="
M246.511 1441.94 L2352.76 1441.94 L2352.76 47.2441 L246.511 47.2441  Z
  " fill="#ffffff" fill-rule="evenodd" fill-opacity="1"/>
<defs>
  <clipPath id="clip083">
    <rect x="246" y="47" width="2107" height="1396"/>
  </clipPath>
</defs>
<polyline clip-path="url(#clip083)" style="stroke:#000000; stroke-linecap:butt; stroke-linejoin:round; stroke-width:2; stroke-opacity:0.1; fill:none" points="
  451.165,1441.94 451.165,47.2441 
  "/>
<polyline clip-path="url(#clip083)" style="stroke:#000000; stroke-linecap:butt; stroke-linejoin:round; stroke-width:2; stroke-opacity:0.1; fill:none" points="
  942.501,1441.94 942.501,47.2441 
  "/>
<polyline clip-path="url(#clip083)" style="stroke:#000000; stroke-linecap:butt; stroke-linejoin:round; stroke-width:2; stroke-opacity:0.1; fill:none" points="
  1433.84,1441.94 1433.84,47.2441 
  "/>
<polyline clip-path="url(#clip083)" style="stroke:#000000; stroke-linecap:butt; stroke-linejoin:round; stroke-width:2; stroke-opacity:0.1; fill:none" points="
  1925.17,1441.94 1925.17,47.2441 
  "/>
<polyline clip-path="url(#clip080)" style="stroke:#000000; stroke-linecap:butt; stroke-linejoin:round; stroke-width:4; stroke-opacity:1; fill:none" points="
  246.511,1441.94 2352.76,1441.94 
  "/>
<polyline clip-path="url(#clip080)" style="stroke:#000000; stroke-linecap:butt; stroke-linejoin:round; stroke-width:4; stroke-opacity:1; fill:none" points="
  451.165,1441.94 451.165,1423.04 
  "/>
<polyline clip-path="url(#clip080)" style="stroke:#000000; stroke-linecap:butt; stroke-linejoin:round; stroke-width:4; stroke-opacity:1; fill:none" points="
  942.501,1441.94 942.501,1423.04 
  "/>
<polyline clip-path="url(#clip080)" style="stroke:#000000; stroke-linecap:butt; stroke-linejoin:round; stroke-width:4; stroke-opacity:1; fill:none" points="
  1433.84,1441.94 1433.84,1423.04 
  "/>
<polyline clip-path="url(#clip080)" style="stroke:#000000; stroke-linecap:butt; stroke-linejoin:round; stroke-width:4; stroke-opacity:1; fill:none" points="
  1925.17,1441.94 1925.17,1423.04 
  "/>
<path clip-path="url(#clip080)" d="M359.646 1506.18 Q359.646 1504.75 360.419 1504.21 Q361.192 1503.65 362.012 1503.65 Q363.112 1503.65 363.745 1504.35 Q364.401 1505.03 364.401 1505.99 Q364.401 1506.95 363.745 1507.65 Q363.112 1508.33 362.012 1508.33 Q361.473 1508.33 361.192 1508.24 Q361.824 1510.44 363.745 1512.03 Q365.689 1513.62 368.242 1513.62 Q371.451 1513.62 373.371 1510.51 Q374.519 1508.49 374.519 1503.93 Q374.519 1499.9 373.652 1497.88 Q372.317 1494.82 369.577 1494.82 Q365.689 1494.82 363.393 1498.17 Q363.112 1498.59 362.784 1498.61 Q362.316 1498.61 362.199 1498.35 Q362.105 1498.07 362.105 1497.35 L362.105 1483.15 Q362.105 1482 362.574 1482 Q362.761 1482 363.159 1482.14 Q366.181 1483.48 369.53 1483.5 Q372.973 1483.5 376.065 1482.1 Q376.299 1481.96 376.44 1481.96 Q376.908 1481.96 376.932 1482.5 Q376.932 1482.68 376.533 1483.25 Q376.159 1483.78 375.339 1484.51 Q374.519 1485.21 373.465 1485.89 Q372.411 1486.57 370.865 1487.04 Q369.343 1487.48 367.656 1487.48 Q365.642 1487.48 363.581 1486.85 L363.581 1496.2 Q366.064 1493.76 369.671 1493.76 Q373.512 1493.76 376.159 1496.85 Q378.805 1499.95 378.805 1504.26 Q378.805 1508.78 375.667 1511.87 Q372.552 1514.96 368.336 1514.96 Q364.494 1514.96 362.058 1512.22 Q359.646 1509.48 359.646 1506.18 Z" fill="#000000" fill-rule="evenodd" fill-opacity="1" /><path clip-path="url(#clip080)" d="M423.339 1513.18 Q423.105 1513.46 422.683 1513.46 Q422.285 1513.46 422.004 1513.18 L412.073 1503.25 L402.141 1513.18 Q401.86 1513.46 401.439 1513.46 Q401.041 1513.46 400.783 1513.18 Q400.502 1512.92 400.502 1512.52 Q400.502 1512.13 400.783 1511.84 L410.714 1501.91 L400.783 1491.98 Q400.502 1491.7 400.502 1491.3 Q400.502 1490.88 400.783 1490.65 Q401.041 1490.37 401.439 1490.37 Q401.86 1490.37 402.141 1490.65 L412.073 1500.58 L422.004 1490.65 Q422.285 1490.37 422.683 1490.37 Q423.105 1490.37 423.339 1490.65 Q423.62 1490.88 423.62 1491.3 Q423.62 1491.7 423.339 1491.98 L413.408 1501.91 L423.339 1511.84 Q423.62 1512.13 423.62 1512.55 Q423.62 1512.94 423.339 1513.18 Z" fill="#000000" fill-rule="evenodd" fill-opacity="1" /><path clip-path="url(#clip080)" d="M446.221 1486.52 L446.221 1485.03 Q451.983 1485.03 454.958 1481.96 Q455.778 1481.96 455.918 1482.14 Q456.059 1482.33 456.059 1483.2 L456.059 1510.11 Q456.059 1511.54 456.761 1511.98 Q457.464 1512.43 460.532 1512.43 L462.055 1512.43 L462.055 1513.91 Q460.368 1513.76 454.279 1513.76 Q448.189 1513.76 446.526 1513.91 L446.526 1512.43 L448.048 1512.43 Q451.07 1512.43 451.796 1512.01 Q452.522 1511.56 452.522 1510.11 L452.522 1485.26 Q450.016 1486.52 446.221 1486.52 Z" fill="#000000" fill-rule="evenodd" fill-opacity="1" /><path clip-path="url(#clip080)" d="M469.971 1498.56 Q469.971 1491.51 471.751 1487.67 Q474.234 1481.96 480.09 1481.96 Q481.331 1481.96 482.619 1482.31 Q483.931 1482.64 485.571 1483.92 Q487.234 1485.21 488.241 1487.32 Q490.161 1491.4 490.161 1498.56 Q490.161 1505.57 488.381 1509.38 Q485.781 1514.96 480.043 1514.96 Q477.888 1514.96 475.686 1513.86 Q473.508 1512.76 472.126 1510.11 Q469.971 1506.15 469.971 1498.56 M473.953 1497.98 Q473.953 1505.22 474.468 1508.1 Q475.054 1511.21 476.647 1512.57 Q478.263 1513.91 480.043 1513.91 Q481.963 1513.91 483.556 1512.48 Q485.172 1511.02 485.664 1507.91 Q486.203 1504.84 486.18 1497.98 Q486.18 1491.3 485.711 1488.63 Q485.079 1485.52 483.392 1484.28 Q481.729 1483.01 480.043 1483.01 Q479.41 1483.01 478.731 1483.2 Q478.075 1483.39 477.115 1483.92 Q476.155 1484.46 475.405 1485.8 Q474.679 1487.13 474.328 1489.15 Q473.953 1491.75 473.953 1497.98 Z" fill="#000000" fill-rule="evenodd" fill-opacity="1" /><path clip-path="url(#clip080)" d="M517.243 1479.31 Q517.439 1479.5 517.439 1479.78 Q517.439 1480.06 517.243 1480.26 Q517.046 1480.45 516.767 1480.45 L495.748 1480.45 Q495.469 1480.45 495.272 1480.26 Q495.076 1480.06 495.076 1479.78 Q495.076 1479.5 495.272 1479.31 Q495.469 1479.11 495.748 1479.11 L516.767 1479.11 Q517.046 1479.11 517.243 1479.31 Z" fill="#000000" fill-rule="evenodd" fill-opacity="1" /><path clip-path="url(#clip080)" d="M520.938 1483.65 Q520.938 1482.65 521.512 1482.18 Q522.086 1481.7 522.824 1481.7 Q523.595 1481.7 524.136 1482.21 Q524.693 1482.7 524.693 1483.57 Q524.693 1484.5 524.037 1485.03 Q523.398 1485.55 522.48 1485.42 Q523.283 1486.77 524.759 1487.37 Q526.251 1487.98 527.628 1487.98 Q529.071 1487.98 530.235 1486.73 Q531.415 1485.49 531.415 1482.44 Q531.415 1479.85 530.399 1478.36 Q529.399 1476.86 527.415 1476.86 L525.939 1476.86 Q525.431 1476.86 525.283 1476.81 Q525.136 1476.76 525.136 1476.49 Q525.136 1476.16 525.644 1476.09 Q526.152 1476.09 526.956 1475.99 Q528.907 1475.93 529.94 1474.24 Q530.874 1472.67 530.874 1470.42 Q530.874 1468.37 529.891 1467.52 Q528.923 1466.65 527.661 1466.65 Q526.48 1466.65 525.185 1467.14 Q523.89 1467.63 523.185 1468.73 Q525.267 1468.73 525.267 1470.42 Q525.267 1471.16 524.791 1471.65 Q524.332 1472.12 523.562 1472.12 Q522.824 1472.12 522.332 1471.67 Q521.84 1471.19 521.84 1470.39 Q521.84 1468.47 523.545 1467.14 Q525.267 1465.81 527.792 1465.81 Q530.284 1465.81 532.12 1467.12 Q533.973 1468.44 533.973 1470.45 Q533.973 1472.44 532.661 1474.06 Q531.35 1475.68 529.268 1476.35 Q531.825 1476.86 533.35 1478.6 Q534.875 1480.32 534.875 1482.44 Q534.875 1485.06 532.809 1487 Q530.743 1488.91 527.726 1488.91 Q524.939 1488.91 522.939 1487.41 Q520.938 1485.9 520.938 1483.65 Z" fill="#000000" fill-rule="evenodd" fill-opacity="1" /><path clip-path="url(#clip080)" d="M894.27 1485.72 L894.27 1484.22 Q900.032 1484.22 903.007 1481.15 Q903.826 1481.15 903.967 1481.34 Q904.108 1481.53 904.108 1482.39 L904.108 1509.3 Q904.108 1510.73 904.81 1511.18 Q905.513 1511.62 908.581 1511.62 L910.104 1511.62 L910.104 1513.1 Q908.417 1512.96 902.327 1512.96 Q896.238 1512.96 894.575 1513.1 L894.575 1511.62 L896.097 1511.62 Q899.119 1511.62 899.845 1511.2 Q900.571 1510.76 900.571 1509.3 L900.571 1484.45 Q898.065 1485.72 894.27 1485.72 Z" fill="#000000" fill-rule="evenodd" fill-opacity="1" /><path clip-path="url(#clip080)" d="M918.02 1497.76 Q918.02 1490.71 919.8 1486.87 Q922.283 1481.15 928.139 1481.15 Q929.38 1481.15 930.668 1481.5 Q931.98 1481.83 933.619 1483.12 Q935.282 1484.41 936.29 1486.51 Q938.21 1490.59 938.21 1497.76 Q938.21 1504.76 936.43 1508.58 Q933.83 1514.15 928.092 1514.15 Q925.937 1514.15 923.735 1513.05 Q921.557 1511.95 920.175 1509.3 Q918.02 1505.35 918.02 1497.76 M922.002 1497.17 Q922.002 1504.41 922.517 1507.29 Q923.103 1510.41 924.696 1511.76 Q926.312 1513.1 928.092 1513.1 Q930.012 1513.1 931.605 1511.67 Q933.221 1510.22 933.713 1507.1 Q934.252 1504.03 934.228 1497.17 Q934.228 1490.5 933.76 1487.83 Q933.128 1484.71 931.441 1483.47 Q929.778 1482.2 928.092 1482.2 Q927.459 1482.2 926.78 1482.39 Q926.124 1482.58 925.164 1483.12 Q924.204 1483.66 923.454 1484.99 Q922.728 1486.33 922.377 1488.34 Q922.002 1490.94 922.002 1497.17 Z" fill="#000000" fill-rule="evenodd" fill-opacity="1" /><path clip-path="url(#clip080)" d="M965.291 1479.23 Q965.488 1479.43 965.488 1479.71 Q965.488 1479.99 965.291 1480.18 Q965.095 1480.38 964.816 1480.38 L943.797 1480.38 Q943.518 1480.38 943.321 1480.18 Q943.124 1479.99 943.124 1479.71 Q943.124 1479.43 943.321 1479.23 Q943.518 1479.04 943.797 1479.04 L964.816 1479.04 Q965.095 1479.04 965.291 1479.23 Z" fill="#000000" fill-rule="evenodd" fill-opacity="1" /><path clip-path="url(#clip080)" d="M968.987 1488.1 Q968.987 1487.5 969.037 1487.32 Q969.102 1487.14 969.365 1486.86 L975.808 1479.68 Q979.333 1475.71 979.333 1472.25 Q979.333 1470 978.153 1468.4 Q976.989 1466.79 974.841 1466.79 Q973.365 1466.79 972.119 1467.69 Q970.873 1468.59 970.299 1470.2 Q970.397 1470.17 970.742 1470.17 Q971.578 1470.17 972.037 1470.69 Q972.512 1471.22 972.512 1471.92 Q972.512 1472.82 971.922 1473.26 Q971.348 1473.69 970.775 1473.69 Q970.545 1473.69 970.233 1473.64 Q969.938 1473.59 969.463 1473.13 Q968.987 1472.66 968.987 1471.82 Q968.987 1469.48 970.758 1467.61 Q972.545 1465.74 975.267 1465.74 Q978.349 1465.74 980.366 1467.58 Q982.399 1469.4 982.399 1472.25 Q982.399 1473.25 982.088 1474.17 Q981.792 1475.07 981.383 1475.77 Q980.989 1476.48 979.907 1477.61 Q978.825 1478.74 977.956 1479.54 Q977.087 1480.35 975.136 1482.05 L971.578 1485.51 L977.628 1485.51 Q980.579 1485.51 980.809 1485.25 Q981.137 1484.77 981.547 1482.27 L982.399 1482.27 L981.448 1488.1 L968.987 1488.1 Z" fill="#000000" fill-rule="evenodd" fill-opacity="1" /><path clip-path="url(#clip080)" d="M1342.32 1505.37 Q1342.32 1503.94 1343.09 1503.4 Q1343.86 1502.84 1344.68 1502.84 Q1345.79 1502.84 1346.42 1503.54 Q1347.07 1504.22 1347.07 1505.18 Q1347.07 1506.14 1346.42 1506.85 Q1345.79 1507.52 1344.68 1507.52 Q1344.15 1507.52 1343.86 1507.43 Q1344.5 1509.63 1346.42 1511.23 Q1348.36 1512.82 1350.92 1512.82 Q1354.12 1512.82 1356.04 1509.7 Q1357.19 1507.69 1357.19 1503.12 Q1357.19 1499.09 1356.33 1497.08 Q1354.99 1494.01 1352.25 1494.01 Q1348.36 1494.01 1346.07 1497.36 Q1345.79 1497.78 1345.46 1497.8 Q1344.99 1497.8 1344.87 1497.55 Q1344.78 1497.27 1344.78 1496.54 L1344.78 1482.35 Q1344.78 1481.2 1345.25 1481.2 Q1345.43 1481.2 1345.83 1481.34 Q1348.85 1482.67 1352.2 1482.7 Q1355.65 1482.7 1358.74 1481.29 Q1358.97 1481.15 1359.11 1481.15 Q1359.58 1481.15 1359.6 1481.69 Q1359.6 1481.88 1359.21 1482.44 Q1358.83 1482.98 1358.01 1483.7 Q1357.19 1484.41 1356.14 1485.09 Q1355.08 1485.77 1353.54 1486.23 Q1352.02 1486.68 1350.33 1486.68 Q1348.32 1486.68 1346.25 1486.05 L1346.25 1495.39 Q1348.74 1492.96 1352.34 1492.96 Q1356.19 1492.96 1358.83 1496.05 Q1361.48 1499.14 1361.48 1503.45 Q1361.48 1507.97 1358.34 1511.06 Q1355.22 1514.15 1351.01 1514.15 Q1347.17 1514.15 1344.73 1511.41 Q1342.32 1508.67 1342.32 1505.37 Z" fill="#000000" fill-rule="evenodd" fill-opacity="1" /><path clip-path="url(#clip080)" d="M1406.01 1512.37 Q1405.78 1512.65 1405.36 1512.65 Q1404.96 1512.65 1404.68 1512.37 L1394.75 1502.44 L1384.81 1512.37 Q1384.53 1512.65 1384.11 1512.65 Q1383.71 1512.65 1383.46 1512.37 Q1383.18 1512.12 1383.18 1511.72 Q1383.18 1511.32 1383.46 1511.04 L1393.39 1501.11 L1383.46 1491.18 Q1383.18 1490.89 1383.18 1490.5 Q1383.18 1490.07 1383.46 1489.84 Q1383.71 1489.56 1384.11 1489.56 Q1384.53 1489.56 1384.81 1489.84 L1394.75 1499.77 L1404.68 1489.84 Q1404.96 1489.56 1405.36 1489.56 Q1405.78 1489.56 1406.01 1489.84 Q1406.29 1490.07 1406.29 1490.5 Q1406.29 1490.89 1406.01 1491.18 L1396.08 1501.11 L1406.01 1511.04 Q1406.29 1511.32 1406.29 1511.74 Q1406.29 1512.14 1406.01 1512.37 Z" fill="#000000" fill-rule="evenodd" fill-opacity="1" /><path clip-path="url(#clip080)" d="M1428.89 1485.72 L1428.89 1484.22 Q1434.66 1484.22 1437.63 1481.15 Q1438.45 1481.15 1438.59 1481.34 Q1438.73 1481.53 1438.73 1482.39 L1438.73 1509.3 Q1438.73 1510.73 1439.43 1511.18 Q1440.14 1511.62 1443.21 1511.62 L1444.73 1511.62 L1444.73 1513.1 Q1443.04 1512.96 1436.95 1512.96 Q1430.86 1512.96 1429.2 1513.1 L1429.2 1511.62 L1430.72 1511.62 Q1433.74 1511.62 1434.47 1511.2 Q1435.2 1510.76 1435.2 1509.3 L1435.2 1484.45 Q1432.69 1485.72 1428.89 1485.72 Z" fill="#000000" fill-rule="evenodd" fill-opacity="1" /><path clip-path="url(#clip080)" d="M1452.64 1497.76 Q1452.64 1490.71 1454.42 1486.87 Q1456.91 1481.15 1462.76 1481.15 Q1464 1481.15 1465.29 1481.5 Q1466.6 1481.83 1468.24 1483.12 Q1469.91 1484.41 1470.91 1486.51 Q1472.83 1490.59 1472.83 1497.76 Q1472.83 1504.76 1471.05 1508.58 Q1468.45 1514.15 1462.72 1514.15 Q1460.56 1514.15 1458.36 1513.05 Q1456.18 1511.95 1454.8 1509.3 Q1452.64 1505.35 1452.64 1497.76 M1456.63 1497.17 Q1456.63 1504.41 1457.14 1507.29 Q1457.73 1510.41 1459.32 1511.76 Q1460.94 1513.1 1462.72 1513.1 Q1464.64 1513.1 1466.23 1511.67 Q1467.85 1510.22 1468.34 1507.1 Q1468.88 1504.03 1468.85 1497.17 Q1468.85 1490.5 1468.38 1487.83 Q1467.75 1484.71 1466.07 1483.47 Q1464.4 1482.2 1462.72 1482.2 Q1462.08 1482.2 1461.4 1482.39 Q1460.75 1482.58 1459.79 1483.12 Q1458.83 1483.66 1458.08 1484.99 Q1457.35 1486.33 1457 1488.34 Q1456.63 1490.94 1456.63 1497.17 Z" fill="#000000" fill-rule="evenodd" fill-opacity="1" /><path clip-path="url(#clip080)" d="M1499.92 1479.23 Q1500.11 1479.43 1500.11 1479.71 Q1500.11 1479.99 1499.92 1480.18 Q1499.72 1480.38 1499.44 1480.38 L1478.42 1480.38 Q1478.14 1480.38 1477.95 1480.18 Q1477.75 1479.99 1477.75 1479.71 Q1477.75 1479.43 1477.95 1479.23 Q1478.14 1479.04 1478.42 1479.04 L1499.44 1479.04 Q1499.72 1479.04 1499.92 1479.23 Z" fill="#000000" fill-rule="evenodd" fill-opacity="1" /><path clip-path="url(#clip080)" d="M1503.61 1488.1 Q1503.61 1487.5 1503.66 1487.32 Q1503.73 1487.14 1503.99 1486.86 L1510.43 1479.68 Q1513.96 1475.71 1513.96 1472.25 Q1513.96 1470 1512.78 1468.4 Q1511.61 1466.79 1509.46 1466.79 Q1507.99 1466.79 1506.74 1467.69 Q1505.5 1468.59 1504.92 1470.2 Q1505.02 1470.17 1505.37 1470.17 Q1506.2 1470.17 1506.66 1470.69 Q1507.14 1471.22 1507.14 1471.92 Q1507.14 1472.82 1506.55 1473.26 Q1505.97 1473.69 1505.4 1473.69 Q1505.17 1473.69 1504.86 1473.64 Q1504.56 1473.59 1504.09 1473.13 Q1503.61 1472.66 1503.61 1471.82 Q1503.61 1469.48 1505.38 1467.61 Q1507.17 1465.74 1509.89 1465.74 Q1512.97 1465.74 1514.99 1467.58 Q1517.02 1469.4 1517.02 1472.25 Q1517.02 1473.25 1516.71 1474.17 Q1516.42 1475.07 1516.01 1475.77 Q1515.61 1476.48 1514.53 1477.61 Q1513.45 1478.74 1512.58 1479.54 Q1511.71 1480.35 1509.76 1482.05 L1506.2 1485.51 L1512.25 1485.51 Q1515.2 1485.51 1515.43 1485.25 Q1515.76 1484.77 1516.17 1482.27 L1517.02 1482.27 L1516.07 1488.1 L1503.61 1488.1 Z" fill="#000000" fill-rule="evenodd" fill-opacity="1" /><path clip-path="url(#clip080)" d="M1876.94 1485.72 L1876.94 1484.22 Q1882.71 1484.22 1885.68 1481.15 Q1886.5 1481.15 1886.64 1481.34 Q1886.78 1481.53 1886.78 1482.39 L1886.78 1509.3 Q1886.78 1510.73 1887.48 1511.18 Q1888.19 1511.62 1891.25 1511.62 L1892.78 1511.62 L1892.78 1513.1 Q1891.09 1512.96 1885 1512.96 Q1878.91 1512.96 1877.25 1513.1 L1877.25 1511.62 L1878.77 1511.62 Q1881.79 1511.62 1882.52 1511.2 Q1883.24 1510.76 1883.24 1509.3 L1883.24 1484.45 Q1880.74 1485.72 1876.94 1485.72 Z" fill="#000000" fill-rule="evenodd" fill-opacity="1" /><path clip-path="url(#clip080)" d="M1900.69 1497.76 Q1900.69 1490.71 1902.47 1486.87 Q1904.96 1481.15 1910.81 1481.15 Q1912.05 1481.15 1913.34 1481.5 Q1914.65 1481.83 1916.29 1483.12 Q1917.96 1484.41 1918.96 1486.51 Q1920.88 1490.59 1920.88 1497.76 Q1920.88 1504.76 1919.1 1508.58 Q1916.5 1514.15 1910.76 1514.15 Q1908.61 1514.15 1906.41 1513.05 Q1904.23 1511.95 1902.85 1509.3 Q1900.69 1505.35 1900.69 1497.76 M1904.68 1497.17 Q1904.68 1504.41 1905.19 1507.29 Q1905.78 1510.41 1907.37 1511.76 Q1908.98 1513.1 1910.76 1513.1 Q1912.69 1513.1 1914.28 1511.67 Q1915.89 1510.22 1916.39 1507.1 Q1916.93 1504.03 1916.9 1497.17 Q1916.9 1490.5 1916.43 1487.83 Q1915.8 1484.71 1914.11 1483.47 Q1912.45 1482.2 1910.76 1482.2 Q1910.13 1482.2 1909.45 1482.39 Q1908.8 1482.58 1907.84 1483.12 Q1906.88 1483.66 1906.13 1484.99 Q1905.4 1486.33 1905.05 1488.34 Q1904.68 1490.94 1904.68 1497.17 Z" fill="#000000" fill-rule="evenodd" fill-opacity="1" /><path clip-path="url(#clip080)" d="M1947.96 1479.23 Q1948.16 1479.43 1948.16 1479.71 Q1948.16 1479.99 1947.96 1480.18 Q1947.77 1480.38 1947.49 1480.38 L1926.47 1480.38 Q1926.19 1480.38 1925.99 1480.18 Q1925.8 1479.99 1925.8 1479.71 Q1925.8 1479.43 1925.99 1479.23 Q1926.19 1479.04 1926.47 1479.04 L1947.49 1479.04 Q1947.77 1479.04 1947.96 1479.23 Z" fill="#000000" fill-rule="evenodd" fill-opacity="1" /><path clip-path="url(#clip080)" d="M1951.66 1468.94 L1951.66 1467.89 Q1955.69 1467.89 1957.78 1465.74 Q1958.35 1465.74 1958.45 1465.87 Q1958.55 1466 1958.55 1466.61 L1958.55 1485.45 Q1958.55 1486.45 1959.04 1486.76 Q1959.53 1487.07 1961.68 1487.07 L1962.74 1487.07 L1962.74 1488.1 Q1961.56 1488 1957.3 1488 Q1953.04 1488 1951.87 1488.1 L1951.87 1487.07 L1952.94 1487.07 Q1955.05 1487.07 1955.56 1486.77 Q1956.07 1486.46 1956.07 1485.45 L1956.07 1468.05 Q1954.32 1468.94 1951.66 1468.94 Z" fill="#000000" fill-rule="evenodd" fill-opacity="1" /><path clip-path="url(#clip080)" d="M1313.2 1558.15 Q1313.2 1558.4 1312.91 1559.4 Q1312.62 1560.4 1311.91 1561.95 Q1311.23 1563.49 1310.3 1564.91 Q1309.36 1566.29 1307.82 1567.32 Q1306.3 1568.32 1304.57 1568.32 Q1302.25 1568.32 1300.7 1566.78 Q1299.15 1565.23 1299.15 1562.91 Q1299.15 1562.59 1299.19 1562.27 Q1299.22 1561.95 1299.25 1561.75 Q1299.28 1561.53 1299.38 1561.17 Q1299.51 1560.79 1299.54 1560.62 Q1299.61 1560.46 1299.77 1559.98 Q1299.96 1559.47 1300.02 1559.27 Q1304.11 1548.84 1304.11 1544.49 Q1304.11 1539.88 1300.54 1539.88 Q1297.35 1539.88 1294.19 1542.2 Q1292.75 1543.36 1291.36 1545.42 Q1289.98 1547.48 1289.72 1548.26 Q1289.43 1549.93 1289.01 1551.22 Q1288.82 1552.12 1287.88 1555.63 L1286.43 1561.59 L1285.18 1566.58 Q1284.92 1567.29 1284.21 1567.81 Q1283.5 1568.32 1282.73 1568.32 Q1282.09 1568.32 1281.44 1567.87 Q1280.83 1567.45 1280.83 1566.45 Q1280.83 1565.94 1281.09 1565 L1290.65 1527 L1290.85 1525.71 Q1290.85 1525.33 1290.68 1525.13 Q1290.56 1524.91 1289.78 1524.75 Q1289.04 1524.59 1287.56 1524.59 Q1286.95 1524.59 1286.66 1524.55 Q1286.4 1524.52 1286.18 1524.36 Q1285.95 1524.17 1285.95 1523.78 Q1285.95 1523.23 1286.18 1522.94 Q1286.43 1522.62 1286.63 1522.56 Q1286.82 1522.49 1287.21 1522.46 Q1287.75 1522.43 1289.59 1522.27 Q1291.43 1522.07 1293 1521.95 Q1294.58 1521.82 1295.26 1521.82 Q1295.64 1521.82 1295.84 1522.01 Q1296.06 1522.17 1296.09 1522.36 L1296.13 1522.53 L1290.97 1543.49 Q1295.06 1538.44 1300.73 1538.44 Q1304.4 1538.44 1306.37 1540.34 Q1308.33 1542.2 1308.33 1545.49 Q1308.33 1549.26 1304.31 1559.98 Q1303.12 1562.98 1303.12 1564.68 Q1303.12 1565.81 1303.47 1566.33 Q1303.86 1566.84 1304.69 1566.84 Q1305.98 1566.84 1307.11 1566.1 Q1308.27 1565.33 1309.07 1564.07 Q1309.88 1562.78 1310.43 1561.49 Q1311.01 1560.17 1311.42 1558.69 Q1311.68 1557.89 1311.81 1557.69 Q1311.97 1557.5 1312.42 1557.5 Q1313.2 1557.5 1313.2 1558.15 Z" fill="#000000" fill-rule="evenodd" fill-opacity="1" /><polyline clip-path="url(#clip083)" style="stroke:#000000; stroke-linecap:butt; stroke-linejoin:round; stroke-width:2; stroke-opacity:0.1; fill:none" points="
  246.511,1402.46 2352.76,1402.46 
  "/>
<polyline clip-path="url(#clip083)" style="stroke:#000000; stroke-linecap:butt; stroke-linejoin:round; stroke-width:2; stroke-opacity:0.1; fill:none" points="
  246.511,1105.83 2352.76,1105.83 
  "/>
<polyline clip-path="url(#clip083)" style="stroke:#000000; stroke-linecap:butt; stroke-linejoin:round; stroke-width:2; stroke-opacity:0.1; fill:none" points="
  246.511,809.195 2352.76,809.195 
  "/>
<polyline clip-path="url(#clip083)" style="stroke:#000000; stroke-linecap:butt; stroke-linejoin:round; stroke-width:2; stroke-opacity:0.1; fill:none" points="
  246.511,512.562 2352.76,512.562 
  "/>
<polyline clip-path="url(#clip083)" style="stroke:#000000; stroke-linecap:butt; stroke-linejoin:round; stroke-width:2; stroke-opacity:0.1; fill:none" points="
  246.511,215.928 2352.76,215.928 
  "/>
<polyline clip-path="url(#clip080)" style="stroke:#000000; stroke-linecap:butt; stroke-linejoin:round; stroke-width:4; stroke-opacity:1; fill:none" points="
  246.511,1441.94 246.511,47.2441 
  "/>
<polyline clip-path="url(#clip080)" style="stroke:#000000; stroke-linecap:butt; stroke-linejoin:round; stroke-width:4; stroke-opacity:1; fill:none" points="
  246.511,1402.46 265.409,1402.46 
  "/>
<polyline clip-path="url(#clip080)" style="stroke:#000000; stroke-linecap:butt; stroke-linejoin:round; stroke-width:4; stroke-opacity:1; fill:none" points="
  246.511,1105.83 265.409,1105.83 
  "/>
<polyline clip-path="url(#clip080)" style="stroke:#000000; stroke-linecap:butt; stroke-linejoin:round; stroke-width:4; stroke-opacity:1; fill:none" points="
  246.511,809.195 265.409,809.195 
  "/>
<polyline clip-path="url(#clip080)" style="stroke:#000000; stroke-linecap:butt; stroke-linejoin:round; stroke-width:4; stroke-opacity:1; fill:none" points="
  246.511,512.562 265.409,512.562 
  "/>
<polyline clip-path="url(#clip080)" style="stroke:#000000; stroke-linecap:butt; stroke-linejoin:round; stroke-width:4; stroke-opacity:1; fill:none" points="
  246.511,215.928 265.409,215.928 
  "/>
<path clip-path="url(#clip080)" d="M118.637 1402.91 L148.312 1402.91 L148.312 1406.85 L118.637 1406.85 L118.637 1402.91 Z" fill="#000000" fill-rule="evenodd" fill-opacity="1" /><path clip-path="url(#clip080)" d="M159.215 1415.81 L166.854 1415.81 L166.854 1389.44 L158.544 1391.11 L158.544 1386.85 L166.808 1385.18 L171.484 1385.18 L171.484 1415.81 L179.122 1415.81 L179.122 1419.74 L159.215 1419.74 L159.215 1415.81 Z" fill="#000000" fill-rule="evenodd" fill-opacity="1" /><path clip-path="url(#clip080)" d="M198.567 1388.26 Q194.956 1388.26 193.127 1391.83 Q191.321 1395.37 191.321 1402.5 Q191.321 1409.6 193.127 1413.17 Q194.956 1416.71 198.567 1416.71 Q202.201 1416.71 204.007 1413.17 Q205.835 1409.6 205.835 1402.5 Q205.835 1395.37 204.007 1391.83 Q202.201 1388.26 198.567 1388.26 M198.567 1384.56 Q204.377 1384.56 207.432 1389.16 Q210.511 1393.75 210.511 1402.5 Q210.511 1411.22 207.432 1415.83 Q204.377 1420.41 198.567 1420.41 Q192.757 1420.41 189.678 1415.83 Q186.622 1411.22 186.622 1402.5 Q186.622 1393.75 189.678 1389.16 Q192.757 1384.56 198.567 1384.56 Z" fill="#000000" fill-rule="evenodd" fill-opacity="1" /><path clip-path="url(#clip080)" d="M148.891 1106.28 L178.567 1106.28 L178.567 1110.22 L148.891 1110.22 L148.891 1106.28 Z" fill="#000000" fill-rule="evenodd" fill-opacity="1" /><path clip-path="url(#clip080)" d="M198.659 1106.7 Q195.326 1106.7 193.405 1108.48 Q191.507 1110.26 191.507 1113.39 Q191.507 1116.51 193.405 1118.29 Q195.326 1120.08 198.659 1120.08 Q201.993 1120.08 203.914 1118.29 Q205.835 1116.49 205.835 1113.39 Q205.835 1110.26 203.914 1108.48 Q202.016 1106.7 198.659 1106.7 M193.983 1104.71 Q190.974 1103.97 189.284 1101.91 Q187.618 1099.85 187.618 1096.88 Q187.618 1092.74 190.558 1090.33 Q193.52 1087.92 198.659 1087.92 Q203.821 1087.92 206.761 1090.33 Q209.701 1092.74 209.701 1096.88 Q209.701 1099.85 208.011 1101.91 Q206.344 1103.97 203.358 1104.71 Q206.738 1105.49 208.613 1107.79 Q210.511 1110.08 210.511 1113.39 Q210.511 1118.41 207.432 1121.1 Q204.377 1123.78 198.659 1123.78 Q192.942 1123.78 189.863 1121.1 Q186.808 1118.41 186.808 1113.39 Q186.808 1110.08 188.706 1107.79 Q190.604 1105.49 193.983 1104.71 M192.27 1097.32 Q192.27 1100.01 193.937 1101.51 Q195.627 1103.02 198.659 1103.02 Q201.669 1103.02 203.358 1101.51 Q205.071 1100.01 205.071 1097.32 Q205.071 1094.64 203.358 1093.13 Q201.669 1091.63 198.659 1091.63 Q195.627 1091.63 193.937 1093.13 Q192.27 1094.64 192.27 1097.32 Z" fill="#000000" fill-rule="evenodd" fill-opacity="1" /><path clip-path="url(#clip080)" d="M148.636 809.647 L178.312 809.647 L178.312 813.582 L148.636 813.582 L148.636 809.647 Z" fill="#000000" fill-rule="evenodd" fill-opacity="1" /><path clip-path="url(#clip080)" d="M198.983 807.332 Q195.835 807.332 193.983 809.485 Q192.155 811.637 192.155 815.387 Q192.155 819.114 193.983 821.29 Q195.835 823.443 198.983 823.443 Q202.132 823.443 203.96 821.29 Q205.812 819.114 205.812 815.387 Q205.812 811.637 203.96 809.485 Q202.132 807.332 198.983 807.332 M208.266 792.679 L208.266 796.938 Q206.507 796.105 204.701 795.665 Q202.919 795.225 201.159 795.225 Q196.53 795.225 194.076 798.35 Q191.645 801.475 191.298 807.795 Q192.664 805.781 194.724 804.716 Q196.784 803.628 199.261 803.628 Q204.469 803.628 207.479 806.8 Q210.511 809.948 210.511 815.387 Q210.511 820.711 207.363 823.929 Q204.215 827.147 198.983 827.147 Q192.988 827.147 189.817 822.563 Q186.646 817.957 186.646 809.23 Q186.646 801.036 190.534 796.175 Q194.423 791.29 200.974 791.29 Q202.733 791.29 204.516 791.638 Q206.321 791.985 208.266 792.679 Z" fill="#000000" fill-rule="evenodd" fill-opacity="1" /><path clip-path="url(#clip080)" d="M148.312 513.013 L177.988 513.013 L177.988 516.948 L148.312 516.948 L148.312 513.013 Z" fill="#000000" fill-rule="evenodd" fill-opacity="1" /><path clip-path="url(#clip080)" d="M200.928 499.356 L189.122 517.805 L200.928 517.805 L200.928 499.356 M199.701 495.282 L205.581 495.282 L205.581 517.805 L210.511 517.805 L210.511 521.693 L205.581 521.693 L205.581 529.842 L200.928 529.842 L200.928 521.693 L185.326 521.693 L185.326 517.18 L199.701 495.282 Z" fill="#000000" fill-rule="evenodd" fill-opacity="1" /><path clip-path="url(#clip080)" d="M150.396 216.379 L180.071 216.379 L180.071 220.314 L150.396 220.314 L150.396 216.379 Z" fill="#000000" fill-rule="evenodd" fill-opacity="1" /><path clip-path="url(#clip080)" d="M194.192 229.273 L210.511 229.273 L210.511 233.208 L188.567 233.208 L188.567 229.273 Q191.229 226.518 195.812 221.888 Q200.419 217.236 201.599 215.893 Q203.844 213.37 204.724 211.634 Q205.627 209.874 205.627 208.185 Q205.627 205.43 203.682 203.694 Q201.761 201.958 198.659 201.958 Q196.46 201.958 194.007 202.722 Q191.576 203.486 188.798 205.037 L188.798 200.314 Q191.622 199.18 194.076 198.601 Q196.53 198.023 198.567 198.023 Q203.937 198.023 207.132 200.708 Q210.326 203.393 210.326 207.884 Q210.326 210.013 209.516 211.935 Q208.729 213.833 206.622 216.425 Q206.044 217.097 202.942 220.314 Q199.84 223.509 194.192 229.273 Z" fill="#000000" fill-rule="evenodd" fill-opacity="1" /><path clip-path="url(#clip080)" d="M75.9743 899.371 L14.5578 899.371 Q12.1101 899.371 12.1101 898.051 Q12.1101 896.73 14.0747 896.73 L75.4912 896.73 Q77.9389 896.73 77.9389 898.051 Q77.9389 899.371 75.9743 899.371 Z" fill="#000000" fill-rule="evenodd" fill-opacity="1" /><path clip-path="url(#clip080)" d="M75.9743 881.65 L14.5578 881.65 Q12.1101 881.65 12.1101 880.33 Q12.1101 879.009 14.0747 879.009 L75.4912 879.009 Q77.9389 879.009 77.9389 880.33 Q77.9389 881.65 75.9743 881.65 Z" fill="#000000" fill-rule="evenodd" fill-opacity="1" /><path clip-path="url(#clip080)" d="M19.5497 836.062 Q21.321 836.062 22.416 837.19 Q23.511 838.285 23.511 839.67 Q23.511 840.668 22.8991 841.409 Q22.2872 842.117 21.2244 842.117 Q20.1294 842.117 18.97 841.28 Q17.8105 840.442 17.6495 838.542 Q16.4579 839.798 16.4579 841.795 Q16.4579 842.794 17.102 843.631 Q17.7139 844.436 18.7123 844.887 Q19.7429 845.37 25.5722 846.465 Q27.4723 846.819 29.308 847.141 Q31.1438 847.463 33.0761 847.85 L33.0761 842.375 Q33.0761 841.666 33.1083 841.376 Q33.1405 841.087 33.3016 840.861 Q33.4626 840.604 33.8169 840.604 Q34.7186 840.604 34.9441 841.022 Q35.1373 841.409 35.1373 842.568 L35.1373 848.236 L56.0389 852.198 Q56.6508 852.294 58.5832 852.713 Q60.4833 853.099 63.6073 854.033 Q66.7635 854.967 68.6314 855.901 Q69.6942 856.417 70.6926 857.093 Q71.7232 857.737 72.7537 858.671 Q73.7843 859.605 74.3962 860.829 Q75.0404 862.053 75.0404 863.341 Q75.0404 865.531 73.8165 867.238 Q72.5927 868.945 70.4993 868.945 Q68.728 868.945 67.633 867.85 Q66.538 866.722 66.538 865.338 Q66.538 864.339 67.1499 863.631 Q67.7618 862.89 68.8246 862.89 Q69.2755 862.89 69.7908 863.051 Q70.3061 863.212 70.8858 863.566 Q71.4977 863.921 71.9164 864.693 Q72.3351 865.466 72.3995 866.529 Q73.5911 865.273 73.5911 863.341 Q73.5911 862.729 73.3334 862.181 Q73.108 861.634 72.5283 861.183 Q71.9486 860.7 71.3689 860.346 Q70.8214 859.991 69.7586 859.637 Q68.728 859.283 67.9551 859.057 Q67.1821 858.832 65.7973 858.542 Q64.4124 858.22 63.5751 858.059 Q62.7699 857.898 61.1918 857.608 L35.1373 852.681 L35.1373 857.028 Q35.1373 857.801 35.1051 858.123 Q35.0729 858.413 34.9119 858.639 Q34.7186 858.864 34.3322 858.864 Q33.7202 858.864 33.4626 858.607 Q33.1727 858.317 33.1405 857.995 Q33.0761 857.673 33.0761 856.9 L33.0761 852.326 Q24.928 850.781 22.738 850.169 Q20.4192 849.46 18.8089 848.365 Q17.1664 847.27 16.3935 846.046 Q15.6205 844.822 15.3307 843.824 Q15.0086 842.794 15.0086 841.795 Q15.0086 839.541 16.2325 837.802 Q17.4241 836.062 19.5497 836.062 Z" fill="#000000" fill-rule="evenodd" fill-opacity="1" /><path clip-path="url(#clip080)" d="M44.0905 775.106 Q44.477 774.719 45.0245 774.719 Q45.572 774.719 45.9585 775.106 Q46.3449 775.492 46.3449 776.04 L46.3449 817.327 Q46.3449 817.875 45.9585 818.261 Q45.572 818.648 45.0245 818.648 Q44.477 818.648 44.0905 818.261 Q43.7041 817.875 43.7041 817.327 L43.7041 776.04 Q43.7041 775.492 44.0905 775.106 Z" fill="#000000" fill-rule="evenodd" fill-opacity="1" /><path clip-path="url(#clip080)" d="M15.685 710.401 L30.1132 713.976 Q30.9827 714.169 31.2082 714.33 Q31.4336 714.491 31.4336 714.942 Q31.4336 715.296 31.2726 715.522 Q31.1116 715.715 30.9505 715.715 L30.7895 715.747 Q30.6929 715.747 30.2098 715.683 Q29.6945 715.618 28.8572 715.554 Q28.0198 715.489 27.0858 715.489 Q21.8041 715.489 19.3564 718.066 Q16.8766 720.61 16.8766 724.99 Q16.8766 728.017 18.4869 730.723 Q20.0972 733.428 22.6414 734.974 Q25.1535 736.52 27.7944 736.52 Q30.2098 736.52 31.7557 735.296 Q33.3016 734.072 33.8169 732.494 L35.0085 728.082 Q36.2001 723.444 36.7154 722.124 Q37.1985 720.803 38.2935 719.708 Q41.3208 716.456 46.0229 716.456 Q50.0808 716.456 54.0099 718.742 Q57.9068 721.029 60.4511 724.958 Q62.9632 728.887 62.9632 733.235 Q62.9632 740.868 58.2289 744.378 L61.9648 747.599 Q62.6733 748.211 62.8021 748.404 Q62.9632 748.565 62.9632 748.79 Q62.9632 749.08 62.7699 749.306 Q62.6089 749.531 62.319 749.531 Q62.0936 749.531 54.5252 747.631 Q46.9568 745.731 46.7958 745.57 Q46.5382 745.312 46.5382 744.893 Q46.5382 744.12 47.2789 744.12 Q47.4721 744.185 47.7298 744.249 Q50.0486 744.636 51.3046 744.636 Q53.6557 744.636 55.4592 743.831 Q57.2305 743.025 58.2611 741.834 Q59.2595 740.61 59.9036 738.967 Q60.5155 737.325 60.741 735.94 Q60.9342 734.555 60.9342 733.106 Q60.9342 729.982 59.1307 727.212 Q57.3271 724.41 54.5252 722.832 Q51.7233 721.222 48.7926 721.222 Q47.2467 721.222 46.0551 721.641 Q44.8313 722.059 44.1549 722.639 Q43.4786 723.187 42.9633 724.121 Q42.448 725.054 42.2548 725.699 Q42.0294 726.311 41.8039 727.277 L39.936 734.33 Q39.0986 737.164 36.6832 739.193 Q34.2677 741.19 30.5641 741.19 Q26.6672 741.19 23.0601 738.903 Q19.4208 736.584 17.2308 732.816 Q15.0086 729.016 15.0086 724.926 Q15.0086 721.705 16.2647 719.225 Q17.4885 716.745 19.7751 715.489 L16.007 712.301 Q15.2663 711.657 15.1375 711.528 Q15.0086 711.367 15.0086 711.142 Q15.0086 710.755 15.2341 710.594 Q15.4595 710.401 15.685 710.401 Z" fill="#000000" fill-rule="evenodd" fill-opacity="1" /><path clip-path="url(#clip080)" d="M75.3838 681.084 Q75.5641 681.084 76.263 681.287 Q76.9619 681.49 78.044 681.986 Q79.1261 682.459 80.118 683.113 Q81.0874 683.767 81.8089 684.849 Q82.5077 685.909 82.5077 687.126 Q82.5077 688.749 81.4256 689.831 Q80.3435 690.913 78.7203 690.913 Q78.4949 690.913 78.2694 690.891 Q78.044 690.868 77.9087 690.846 Q77.7509 690.823 77.5029 690.756 Q77.2324 690.665 77.1197 690.643 Q77.007 690.598 76.6688 690.485 Q76.3081 690.35 76.1728 690.305 Q68.8685 687.442 65.8251 687.442 Q62.6013 687.442 62.6013 689.944 Q62.6013 692.176 64.2245 694.385 Q65.036 695.4 66.4789 696.369 Q67.9217 697.338 68.4627 697.519 Q69.635 697.722 70.5368 698.015 Q71.168 698.15 73.6253 698.804 L77.796 699.818 L81.2903 700.697 Q81.7863 700.878 82.147 701.374 Q82.5077 701.87 82.5077 702.411 Q82.5077 702.862 82.1921 703.313 Q81.899 703.741 81.2002 703.741 Q80.8395 703.741 80.1857 703.561 L53.5836 696.865 L52.6819 696.73 Q52.4113 696.73 52.2761 696.842 Q52.1183 696.933 52.0056 697.474 Q51.8928 697.992 51.8928 699.029 Q51.8928 699.458 51.8703 699.66 Q51.8477 699.841 51.735 699.999 Q51.5998 700.156 51.3292 700.156 Q50.946 700.156 50.7431 699.999 Q50.5176 699.818 50.4726 699.683 Q50.4275 699.548 50.4049 699.277 Q50.3824 698.894 50.2697 697.609 Q50.1344 696.324 50.0442 695.219 Q49.954 694.115 49.954 693.641 Q49.954 693.371 50.0893 693.235 Q50.202 693.078 50.3373 693.055 L50.45 693.032 L65.1262 696.64 Q61.5868 693.776 61.5868 689.809 Q61.5868 687.239 62.9169 685.863 Q64.2245 684.488 66.524 684.488 Q69.1616 684.488 76.6688 687.306 Q78.7654 688.14 79.9602 688.14 Q80.7493 688.14 81.11 687.892 Q81.4707 687.622 81.4707 687.036 Q81.4707 686.134 80.9522 685.345 Q80.4111 684.533 79.5319 683.97 Q78.6301 683.406 77.7284 683.023 Q76.8041 682.617 75.767 682.324 Q75.2034 682.144 75.0682 682.054 Q74.9329 681.941 74.9329 681.625 Q74.9329 681.084 75.3838 681.084 Z" fill="#000000" fill-rule="evenodd" fill-opacity="1" /><path clip-path="url(#clip080)" d="M75.9743 674.268 L14.5578 674.268 Q12.1101 674.268 12.1101 672.948 Q12.1101 671.627 14.0747 671.627 L75.4912 671.627 Q77.9389 671.627 77.9389 672.948 Q77.9389 674.268 75.9743 674.268 Z" fill="#000000" fill-rule="evenodd" fill-opacity="1" /><path clip-path="url(#clip080)" d="M75.9743 647.043 L14.5578 647.043 Q12.1101 647.043 12.1101 645.722 Q12.1101 644.402 14.0747 644.402 L75.4912 644.402 Q77.9389 644.402 77.9389 645.722 Q77.9389 647.043 75.9743 647.043 Z" fill="#000000" fill-rule="evenodd" fill-opacity="1" /><path clip-path="url(#clip080)" d="M79.9425 596.453 Q82.6929 596.453 85.0826 597.535 Q87.4497 598.595 88.9376 600.669 Q90.4255 602.721 90.4255 605.313 Q90.4255 609.326 87.2243 613.158 Q86.5705 613.925 85.9618 614.466 Q85.3531 615.007 82.5576 617.307 Q83.2114 617.69 83.8201 618.096 Q84.4063 618.501 85.7364 619.651 Q87.0665 620.801 87.9908 621.996 Q88.9151 623.168 89.6816 624.994 Q90.4255 626.798 90.4255 628.669 Q90.4255 630.653 89.5238 632.344 Q88.5995 634.012 87.1341 635.116 Q85.6462 636.199 83.7976 636.807 Q81.9264 637.393 79.9876 637.393 Q77.2372 637.393 74.8701 636.334 Q72.4804 635.252 70.9925 633.2 Q69.5046 631.126 69.5046 628.534 Q69.5046 624.498 72.6833 620.688 Q73.3371 619.922 73.9458 619.381 Q74.5545 618.84 77.35 616.54 Q76.854 616.247 76.4031 615.931 Q75.9297 615.616 74.8926 614.827 Q73.8556 614.038 73.0215 613.113 Q72.1874 612.167 71.3307 610.972 Q70.474 609.777 70.0006 608.266 Q69.5046 606.756 69.5046 605.178 Q69.5046 603.194 70.4289 601.526 Q71.3307 599.835 72.8186 598.753 Q74.284 597.648 76.1551 597.062 Q78.0037 596.453 79.9425 596.453 M79.9425 597.468 Q78.3419 597.468 76.7864 597.941 Q75.2308 598.415 73.9233 599.316 Q72.5932 600.196 71.7816 601.638 Q70.97 603.081 70.97 604.84 Q70.97 606.688 71.759 608.402 Q72.5255 610.092 73.8331 611.423 Q75.1406 612.73 76.358 613.632 Q77.5754 614.534 78.9731 615.323 Q79.4691 614.917 81.7686 613.181 Q84.0681 611.423 84.8797 610.679 Q88.1937 607.635 88.1937 604.569 Q88.1937 601.638 85.804 599.564 Q83.3918 597.468 79.9425 597.468 M80.957 618.524 Q80.4836 618.907 78.1841 620.688 Q75.862 622.447 75.0505 623.191 Q71.7139 626.257 71.7139 629.278 Q71.7139 632.208 74.1262 634.305 Q76.5384 636.379 79.9876 636.379 Q81.5882 636.379 83.1438 635.905 Q84.6993 635.432 86.0069 634.553 Q87.3145 633.651 88.126 632.208 Q88.9376 630.765 88.9376 629.007 Q88.9376 627.519 88.3966 626.099 Q87.8555 624.656 87.0439 623.574 Q86.2323 622.492 85.1051 621.477 Q83.9779 620.463 83.0085 619.809 Q82.0391 619.133 80.957 618.524 Z" fill="#000000" fill-rule="evenodd" fill-opacity="1" /><polyline clip-path="url(#clip083)" style="stroke:#009af9; stroke-linecap:butt; stroke-linejoin:round; stroke-width:4; stroke-opacity:1; fill:none" points="
  2293.15,86.7165 1986.25,209.71 993.836,832.143 602.149,1061.01 306.122,1237.41 
  "/>
<path clip-path="url(#clip083)" d="M2293.15 102.716 L2281.83 98.0285 L2277.15 86.7165 L2281.83 75.4045 L2293.15 70.7165 L2304.46 75.4045 L2309.15 86.7165 L2304.46 98.0285 Z" fill="#009af9" fill-rule="evenodd" fill-opacity="1" stroke="#000000" stroke-opacity="1" stroke-width="3.2"/>
<path clip-path="url(#clip083)" d="M1986.25 225.71 L1974.93 221.022 L1970.25 209.71 L1974.93 198.398 L1986.25 193.71 L1997.56 198.398 L2002.25 209.71 L1997.56 221.022 Z" fill="#009af9" fill-rule="evenodd" fill-opacity="1" stroke="#000000" stroke-opacity="1" stroke-width="3.2"/>
<path clip-path="url(#clip083)" d="M993.836 848.143 L982.524 843.455 L977.836 832.143 L982.524 820.831 L993.836 816.143 L1005.15 820.831 L1009.84 832.143 L1005.15 843.455 Z" fill="#009af9" fill-rule="evenodd" fill-opacity="1" stroke="#000000" stroke-opacity="1" stroke-width="3.2"/>
<path clip-path="url(#clip083)" d="M602.149 1077.01 L590.837 1072.33 L586.149 1061.01 L590.837 1049.7 L602.149 1045.01 L613.461 1049.7 L618.149 1061.01 L613.461 1072.33 Z" fill="#009af9" fill-rule="evenodd" fill-opacity="1" stroke="#000000" stroke-opacity="1" stroke-width="3.2"/>
<path clip-path="url(#clip083)" d="M306.122 1253.41 L294.81 1248.72 L290.122 1237.41 L294.81 1226.1 L306.122 1221.41 L317.434 1226.1 L322.122 1237.41 L317.434 1248.72 Z" fill="#009af9" fill-rule="evenodd" fill-opacity="1" stroke="#000000" stroke-opacity="1" stroke-width="3.2"/>
<polyline clip-path="url(#clip083)" style="stroke:#e26f46; stroke-linecap:butt; stroke-linejoin:round; stroke-width:4; stroke-opacity:1; fill:none" stroke-dasharray="16, 10" points="
  451.165,1402.46 2219.98,334.581 
  "/>
<path clip-path="url(#clip080)" d="
M316.719 805.182 L733.94 805.182 L733.94 623.405 L316.719 623.405  Z
  " fill="#ffffff" fill-rule="evenodd" fill-opacity="1"/>
<polyline clip-path="url(#clip080)" style="stroke:#000000; stroke-linecap:butt; stroke-linejoin:round; stroke-width:4; stroke-opacity:1; fill:none" points="
  316.719,805.182 733.94,805.182 733.94,623.405 316.719,623.405 316.719,805.182 
  "/>
<polyline clip-path="url(#clip080)" style="stroke:#009af9; stroke-linecap:butt; stroke-linejoin:round; stroke-width:4; stroke-opacity:1; fill:none" points="
  340.122,683.997 480.538,683.997 
  "/>
<path clip-path="url(#clip080)" d="M410.33 709.597 L392.231 702.097 L384.73 683.997 L392.231 665.898 L410.33 658.397 L428.429 665.898 L435.93 683.997 L428.429 702.097 Z" fill="#009af9" fill-rule="evenodd" fill-opacity="1" stroke="#000000" stroke-opacity="1" stroke-width="5.12"/>
<path clip-path="url(#clip080)" d="M515.839 678.338 Q512.413 678.338 510.422 681.023 Q508.432 683.685 508.432 688.338 Q508.432 692.99 510.399 695.676 Q512.39 698.338 515.839 698.338 Q519.242 698.338 521.233 695.652 Q523.223 692.967 523.223 688.338 Q523.223 683.731 521.233 681.046 Q519.242 678.338 515.839 678.338 M515.839 674.727 Q521.395 674.727 524.566 678.338 Q527.737 681.949 527.737 688.338 Q527.737 694.703 524.566 698.338 Q521.395 701.949 515.839 701.949 Q510.26 701.949 507.089 698.338 Q503.941 694.703 503.941 688.338 Q503.941 681.949 507.089 678.338 Q510.26 674.727 515.839 674.727 Z" fill="#000000" fill-rule="evenodd" fill-opacity="1" /><path clip-path="url(#clip080)" d="M554.149 697.875 L565.121 697.875 L565.121 675.352 L569.404 675.352 L569.404 701.277 L534.635 701.277 L534.635 675.352 L538.918 675.352 L538.918 697.875 L549.867 697.875 L549.867 675.352 L554.149 675.352 L554.149 697.875 Z" fill="#000000" fill-rule="evenodd" fill-opacity="1" /><path clip-path="url(#clip080)" d="M600.214 675.352 L600.214 701.277 L595.978 701.277 L595.978 680.467 L583.478 701.277 L578.015 701.277 L578.015 675.352 L582.251 675.352 L582.251 696.115 L594.728 675.352 L600.214 675.352 Z" fill="#000000" fill-rule="evenodd" fill-opacity="1" /><path clip-path="url(#clip080)" d="M619.264 674.727 Q624.82 674.727 627.991 678.338 Q631.163 681.949 631.163 688.338 Q631.163 694.703 627.991 698.338 Q624.82 701.949 619.264 701.949 Q613.686 701.949 610.607 698.43 Q607.528 694.912 607.366 688.338 L607.228 683.037 Q607.112 680.282 607.112 679.333 Q607.112 675.629 608.454 672.898 Q610.561 668.616 614.195 666.764 Q617.852 664.912 623.964 664.866 Q626.788 664.842 628.038 664.449 L629.218 667.828 Q628.084 668.291 627.042 668.315 L621.255 668.708 Q618.339 668.916 616.579 669.935 Q611.973 672.643 611.533 676.185 L611.371 677.481 Q614.38 674.727 619.264 674.727 M619.264 678.338 Q615.839 678.338 613.848 681.023 Q611.857 683.685 611.857 688.338 Q611.857 692.99 613.825 695.676 Q615.815 698.338 619.264 698.338 Q622.667 698.338 624.658 695.652 Q626.649 692.967 626.649 688.338 Q626.649 683.731 624.658 681.046 Q622.667 678.338 619.264 678.338 Z" fill="#000000" fill-rule="evenodd" fill-opacity="1" /><path clip-path="url(#clip080)" d="M638.061 675.352 L642.297 675.352 L642.297 687.527 L654.311 675.352 L659.542 675.352 L649.635 685.375 L660.815 701.277 L656.047 701.277 L646.857 688.199 L642.297 692.828 L642.297 701.277 L638.061 701.277 L638.061 675.352 Z" fill="#000000" fill-rule="evenodd" fill-opacity="1" /><path clip-path="url(#clip080)" d="M678.639 688.245 Q673.477 688.245 671.486 689.426 Q669.496 690.606 669.496 693.453 Q669.496 695.722 670.977 697.064 Q672.482 698.384 675.051 698.384 Q678.593 698.384 680.723 695.884 Q682.875 693.361 682.875 689.194 L682.875 688.245 L678.639 688.245 M687.135 686.486 L687.135 701.277 L682.875 701.277 L682.875 697.342 Q681.417 699.703 679.241 700.838 Q677.065 701.949 673.917 701.949 Q669.936 701.949 667.574 699.726 Q665.236 697.481 665.236 693.731 Q665.236 689.356 668.153 687.134 Q671.093 684.912 676.903 684.912 L682.875 684.912 L682.875 684.495 Q682.875 681.555 680.931 679.958 Q679.01 678.338 675.514 678.338 Q673.292 678.338 671.186 678.87 Q669.079 679.403 667.135 680.467 L667.135 676.532 Q669.473 675.629 671.672 675.19 Q673.871 674.727 675.954 674.727 Q681.579 674.727 684.357 677.643 Q687.135 680.56 687.135 686.486 Z" fill="#000000" fill-rule="evenodd" fill-opacity="1" /><polyline clip-path="url(#clip080)" style="stroke:#e26f46; stroke-linecap:butt; stroke-linejoin:round; stroke-width:4; stroke-opacity:1; fill:none" stroke-dasharray="16, 10" points="
  340.122,744.59 480.538,744.59 
  "/>
<path clip-path="url(#clip080)" d="M537.107 742.095 Q537.107 745.444 535.913 748.77 Q534.742 752.073 532.68 754.79 Q530.619 757.507 527.996 759.615 Q525.373 761.723 522.304 762.894 Q519.236 764.065 516.238 764.065 Q510.921 764.065 507.431 760.575 Q503.941 757.085 503.941 751.253 Q503.941 747.177 505.768 743.125 Q507.595 739.05 510.499 736.028 Q513.404 732.983 517.222 731.086 Q521.063 729.189 524.857 729.189 Q530.244 729.189 533.664 732.773 Q537.107 736.333 537.107 742.095 M532.821 740.221 Q532.821 737.644 532.095 735.7 Q531.369 733.733 530.151 732.609 Q528.956 731.484 527.527 730.946 Q526.122 730.383 524.576 730.383 Q521.578 730.383 518.369 732.327 Q515.16 734.272 512.771 737.879 Q511.483 739.846 510.546 742.212 Q509.609 744.554 509.188 746.639 Q508.766 748.7 508.579 750.152 Q508.415 751.604 508.415 752.611 Q508.415 757.296 510.663 760.06 Q512.912 762.824 516.519 762.824 Q519.353 762.824 522.117 761.161 Q524.881 759.474 526.778 757.062 Q528.464 754.977 529.706 752.471 Q530.971 749.965 531.603 747.669 Q532.235 745.374 532.516 743.523 Q532.821 741.673 532.821 740.221 Z" fill="#000000" fill-rule="evenodd" fill-opacity="1" /><path clip-path="url(#clip080)" d="M543.433 751.019 Q543.433 742.914 546.455 736.38 Q547.743 733.639 549.546 731.344 Q551.35 729.048 552.544 728.041 Q553.739 727.034 554.067 727.034 Q554.535 727.034 554.559 727.502 Q554.559 727.737 553.926 728.322 Q546.197 736.192 546.22 751.019 Q546.22 765.892 553.739 773.457 Q554.559 774.277 554.559 774.535 Q554.559 775.003 554.067 775.003 Q553.739 775.003 552.591 774.043 Q551.444 773.083 549.663 770.881 Q547.883 768.679 546.595 765.986 Q543.433 759.451 543.433 751.019 Z" fill="#000000" fill-rule="evenodd" fill-opacity="1" /><path clip-path="url(#clip080)" d="M585.388 756.148 Q585.388 756.336 585.177 757.062 Q584.967 757.788 584.451 758.912 Q583.959 760.036 583.28 761.067 Q582.601 762.074 581.477 762.824 Q580.376 763.55 579.111 763.55 Q577.425 763.55 576.3 762.425 Q575.176 761.301 575.176 759.615 Q575.176 759.38 575.199 759.146 Q575.223 758.912 575.246 758.771 Q575.27 758.607 575.34 758.35 Q575.434 758.069 575.457 757.952 Q575.504 757.835 575.621 757.483 Q575.762 757.108 575.808 756.968 Q578.783 749.379 578.783 746.217 Q578.783 742.868 576.183 742.868 Q573.864 742.868 571.569 744.554 Q570.515 745.397 569.508 746.896 Q568.501 748.395 568.313 748.957 Q568.102 750.175 567.798 751.112 Q567.657 751.768 566.978 754.321 L565.924 758.654 L565.011 762.285 Q564.823 762.8 564.308 763.175 Q563.793 763.55 563.231 763.55 Q562.762 763.55 562.294 763.222 Q561.849 762.917 561.849 762.191 Q561.849 761.816 562.036 761.137 L568.992 733.499 L569.133 732.562 Q569.133 732.281 569.016 732.14 Q568.922 731.976 568.36 731.859 Q567.821 731.742 566.744 731.742 Q566.299 731.742 566.088 731.719 Q565.901 731.695 565.737 731.578 Q565.573 731.437 565.573 731.156 Q565.573 730.758 565.737 730.547 Q565.924 730.313 566.065 730.266 Q566.205 730.219 566.486 730.196 Q566.884 730.173 568.22 730.056 Q569.555 729.915 570.702 729.821 Q571.85 729.728 572.342 729.728 Q572.623 729.728 572.763 729.868 Q572.927 729.985 572.951 730.126 L572.974 730.243 L569.227 745.491 Q572.201 741.814 576.324 741.814 Q578.994 741.814 580.423 743.196 Q581.851 744.554 581.851 746.943 Q581.851 749.684 578.924 757.483 Q578.057 759.661 578.057 760.903 Q578.057 761.723 578.315 762.097 Q578.596 762.472 579.205 762.472 Q580.142 762.472 580.961 761.933 Q581.805 761.371 582.39 760.458 Q582.976 759.521 583.374 758.584 Q583.795 757.624 584.1 756.546 Q584.287 755.961 584.381 755.82 Q584.498 755.68 584.826 755.68 Q585.388 755.68 585.388 756.148 Z" fill="#000000" fill-rule="evenodd" fill-opacity="1" /><path clip-path="url(#clip080)" d="M590.265 731.272 L590.265 730.239 L600.578 714.483 Q600.841 714.073 601.251 714.089 Q601.628 714.089 601.71 714.237 Q601.792 714.385 601.792 714.958 L601.792 730.239 L605.153 730.239 L605.153 731.272 L601.792 731.272 L601.792 734.191 Q601.792 735.158 602.185 735.469 Q602.595 735.781 604.333 735.781 L605.038 735.781 L605.038 736.814 Q603.661 736.715 600.48 736.715 Q597.316 736.715 595.938 736.814 L595.938 735.781 L596.643 735.781 Q598.381 735.781 598.791 735.486 Q599.201 735.174 599.201 734.191 L599.201 731.272 L590.265 731.272 M591.216 730.239 L599.398 730.239 L599.398 717.713 L591.216 730.239 Z" fill="#000000" fill-rule="evenodd" fill-opacity="1" /><path clip-path="url(#clip080)" d="M610.118 774.535 Q610.118 774.301 610.727 773.715 Q618.457 765.845 618.457 751.019 Q618.457 736.145 611.032 728.627 Q610.118 727.76 610.118 727.502 Q610.118 727.034 610.587 727.034 Q610.915 727.034 612.062 727.994 Q613.233 728.955 614.99 731.156 Q616.77 733.358 618.082 736.052 Q621.244 742.587 621.244 751.019 Q621.244 759.123 618.222 765.658 Q616.934 768.398 615.131 770.693 Q613.327 772.989 612.133 773.996 Q610.938 775.003 610.587 775.003 Q610.118 775.003 610.118 774.535 Z" fill="#000000" fill-rule="evenodd" fill-opacity="1" /></svg>
