<?xml version="1.0" encoding="utf-8"?>
<svg xmlns="http://www.w3.org/2000/svg" xmlns:xlink="http://www.w3.org/1999/xlink" width="600" height="400" viewBox="0 0 2400 1600">
<defs>
  <clipPath id="clip200">
    <rect x="0" y="0" width="2400" height="1600"/>
  </clipPath>
</defs>
<path clip-path="url(#clip200)" d="
M0 1600 L2400 1600 L2400 0 L0 0  Z
  " fill="#ffffff" fill-rule="evenodd" fill-opacity="1"/>
<defs>
  <clipPath id="clip201">
    <rect x="480" y="0" width="1681" height="1600"/>
  </clipPath>
</defs>
<path clip-path="url(#clip200)" d="
M156.112 1450.96 L2352.76 1450.96 L2352.76 47.2441 L156.112 47.2441  Z
  " fill="#ffffff" fill-rule="evenodd" fill-opacity="1"/>
<defs>
  <clipPath id="clip202">
    <rect x="156" y="47" width="2198" height="1405"/>
  </clipPath>
</defs>
<polyline clip-path="url(#clip202)" style="stroke:#000000; stroke-linecap:butt; stroke-linejoin:round; stroke-width:2; stroke-opacity:0.1; fill:none" points="
  218.281,1450.96 218.281,47.2441 
  "/>
<polyline clip-path="url(#clip202)" style="stroke:#000000; stroke-linecap:butt; stroke-linejoin:round; stroke-width:2; stroke-opacity:0.1; fill:none" points="
  678.794,1450.96 678.794,47.2441 
  "/>
<polyline clip-path="url(#clip202)" style="stroke:#000000; stroke-linecap:butt; stroke-linejoin:round; stroke-width:2; stroke-opacity:0.1; fill:none" points="
  1139.31,1450.96 1139.31,47.2441 
  "/>
<polyline clip-path="url(#clip202)" style="stroke:#000000; stroke-linecap:butt; stroke-linejoin:round; stroke-width:2; stroke-opacity:0.1; fill:none" points="
  1599.82,1450.96 1599.82,47.2441 
  "/>
<polyline clip-path="url(#clip202)" style="stroke:#000000; stroke-linecap:butt; stroke-linejoin:round; stroke-width:2; stroke-opacity:0.1; fill:none" points="
  2060.33,1450.96 2060.33,47.2441 
  "/>
<polyline clip-path="url(#clip200)" style="stroke:#000000; stroke-linecap:butt; stroke-linejoin:round; stroke-width:4; stroke-opacity:1; fill:none" points="
  156.112,1450.96 2352.76,1450.96 
  "/>
<polyline clip-path="url(#clip200)" style="stroke:#000000; stroke-linecap:butt; stroke-linejoin:round; stroke-width:4; stroke-opacity:1; fill:none" points="
  218.281,1450.96 218.281,1432.06 
  "/>
<polyline clip-path="url(#clip200)" style="stroke:#000000; stroke-linecap:butt; stroke-linejoin:round; stroke-width:4; stroke-opacity:1; fill:none" points="
  678.794,1450.96 678.794,1432.06 
  "/>
<polyline clip-path="url(#clip200)" style="stroke:#000000; stroke-linecap:butt; stroke-linejoin:round; stroke-width:4; stroke-opacity:1; fill:none" points="
  1139.31,1450.96 1139.31,1432.06 
  "/>
<polyline clip-path="url(#clip200)" style="stroke:#000000; stroke-linecap:butt; stroke-linejoin:round; stroke-width:4; stroke-opacity:1; fill:none" points="
  1599.82,1450.96 1599.82,1432.06 
  "/>
<polyline clip-path="url(#clip200)" style="stroke:#000000; stroke-linecap:butt; stroke-linejoin:round; stroke-width:4; stroke-opacity:1; fill:none" points="
  2060.33,1450.96 2060.33,1432.06 
  "/>
<path clip-path="url(#clip200)" d="M208.663 1507.7 L216.302 1507.7 L216.302 1481.33 L207.992 1483 L207.992 1478.74 L216.256 1477.07 L220.932 1477.07 L220.932 1507.7 L228.571 1507.7 L228.571 1511.63 L208.663 1511.63 L208.663 1507.7 Z" fill="#000000" fill-rule="evenodd" fill-opacity="1" /><path clip-path="url(#clip200)" d="M673.446 1507.7 L689.766 1507.7 L689.766 1511.63 L667.821 1511.63 L667.821 1507.7 Q670.483 1504.94 675.067 1500.31 Q679.673 1495.66 680.854 1494.32 Q683.099 1491.79 683.979 1490.06 Q684.882 1488.3 684.882 1486.61 Q684.882 1483.85 682.937 1482.12 Q681.016 1480.38 677.914 1480.38 Q675.715 1480.38 673.261 1481.15 Q670.831 1481.91 668.053 1483.46 L668.053 1478.74 Q670.877 1477.6 673.331 1477.03 Q675.784 1476.45 677.821 1476.45 Q683.192 1476.45 686.386 1479.13 Q689.581 1481.82 689.581 1486.31 Q689.581 1488.44 688.77 1490.36 Q687.983 1492.26 685.877 1494.85 Q685.298 1495.52 682.196 1498.74 Q679.095 1501.93 673.446 1507.7 Z" fill="#000000" fill-rule="evenodd" fill-opacity="1" /><path clip-path="url(#clip200)" d="M1143.55 1493 Q1146.91 1493.72 1148.79 1495.98 Q1150.68 1498.25 1150.68 1501.59 Q1150.68 1506.7 1147.16 1509.5 Q1143.65 1512.3 1137.16 1512.3 Q1134.99 1512.3 1132.67 1511.86 Q1130.38 1511.45 1127.93 1510.59 L1127.93 1506.08 Q1129.87 1507.21 1132.19 1507.79 Q1134.5 1508.37 1137.03 1508.37 Q1141.42 1508.37 1143.72 1506.63 Q1146.03 1504.9 1146.03 1501.59 Q1146.03 1498.53 1143.88 1496.82 Q1141.75 1495.08 1137.93 1495.08 L1133.9 1495.08 L1133.9 1491.24 L1138.11 1491.24 Q1141.56 1491.24 1143.39 1489.87 Q1145.22 1488.48 1145.22 1485.89 Q1145.22 1483.23 1143.32 1481.82 Q1141.45 1480.38 1137.93 1480.38 Q1136.01 1480.38 1133.81 1480.8 Q1131.61 1481.22 1128.97 1482.1 L1128.97 1477.93 Q1131.63 1477.19 1133.95 1476.82 Q1136.29 1476.45 1138.35 1476.45 Q1143.67 1476.45 1146.77 1478.88 Q1149.87 1481.29 1149.87 1485.41 Q1149.87 1488.28 1148.23 1490.27 Q1146.59 1492.23 1143.55 1493 Z" fill="#000000" fill-rule="evenodd" fill-opacity="1" /><path clip-path="url(#clip200)" d="M1602.83 1481.15 L1591.02 1499.6 L1602.83 1499.6 L1602.83 1481.15 M1601.6 1477.07 L1607.48 1477.07 L1607.48 1499.6 L1612.41 1499.6 L1612.41 1503.48 L1607.48 1503.48 L1607.48 1511.63 L1602.83 1511.63 L1602.83 1503.48 L1587.23 1503.48 L1587.23 1498.97 L1601.6 1477.07 Z" fill="#000000" fill-rule="evenodd" fill-opacity="1" /><path clip-path="url(#clip200)" d="M2050.61 1477.07 L2068.96 1477.07 L2068.96 1481.01 L2054.89 1481.01 L2054.89 1489.48 Q2055.91 1489.13 2056.93 1488.97 Q2057.95 1488.79 2058.96 1488.79 Q2064.75 1488.79 2068.13 1491.96 Q2071.51 1495.13 2071.51 1500.54 Q2071.51 1506.12 2068.04 1509.22 Q2064.57 1512.3 2058.25 1512.3 Q2056.07 1512.3 2053.8 1511.93 Q2051.56 1511.56 2049.15 1510.82 L2049.15 1506.12 Q2051.23 1507.26 2053.46 1507.81 Q2055.68 1508.37 2058.15 1508.37 Q2062.16 1508.37 2064.5 1506.26 Q2066.84 1504.16 2066.84 1500.54 Q2066.84 1496.93 2064.5 1494.83 Q2062.16 1492.72 2058.15 1492.72 Q2056.28 1492.72 2054.4 1493.14 Q2052.55 1493.55 2050.61 1494.43 L2050.61 1477.07 Z" fill="#000000" fill-rule="evenodd" fill-opacity="1" /><path clip-path="url(#clip200)" d="M1268.61 1539.92 Q1268.61 1541.72 1267.48 1542.75 Q1266.35 1543.75 1265.06 1543.75 Q1263.84 1543.75 1263.2 1543.04 Q1262.55 1542.33 1262.55 1541.43 Q1262.55 1540.21 1263.45 1539.14 Q1264.36 1538.08 1265.71 1537.85 Q1264.39 1537.02 1262.42 1537.02 Q1261.14 1537.02 1260.01 1537.69 Q1258.91 1538.37 1258.24 1539.24 Q1257.59 1540.11 1257.01 1541.37 Q1256.47 1542.59 1256.24 1543.33 Q1256.05 1544.04 1255.89 1544.81 L1253.63 1553.83 Q1252.54 1558.11 1252.54 1559.63 Q1252.54 1561.49 1253.44 1562.75 Q1254.34 1563.97 1256.14 1563.97 Q1256.85 1563.97 1257.66 1563.78 Q1258.46 1563.55 1259.49 1562.98 Q1260.56 1562.36 1261.49 1561.46 Q1262.46 1560.53 1263.39 1558.95 Q1264.32 1557.37 1264.94 1555.34 Q1265.13 1554.63 1265.77 1554.63 Q1266.58 1554.63 1266.58 1555.28 Q1266.58 1555.83 1266.13 1556.98 Q1265.71 1558.11 1264.77 1559.59 Q1263.87 1561.04 1262.68 1562.36 Q1261.49 1563.65 1259.72 1564.55 Q1257.95 1565.46 1256.01 1565.46 Q1253.25 1565.46 1251.41 1563.97 Q1249.57 1562.49 1248.9 1560.43 Q1248.74 1560.72 1248.51 1561.11 Q1248.29 1561.49 1247.61 1562.36 Q1246.97 1563.2 1246.22 1563.84 Q1245.48 1564.46 1244.32 1564.94 Q1243.2 1565.46 1241.97 1565.46 Q1240.43 1565.46 1239.04 1565 Q1237.69 1564.55 1236.72 1563.52 Q1235.76 1562.49 1235.76 1561.08 Q1235.76 1559.5 1236.82 1558.4 Q1237.92 1557.27 1239.4 1557.27 Q1240.33 1557.27 1241.07 1557.82 Q1241.84 1558.37 1241.84 1559.56 Q1241.84 1560.88 1240.94 1561.88 Q1240.04 1562.88 1238.75 1563.14 Q1240.07 1563.97 1242.04 1563.97 Q1244.16 1563.97 1245.84 1562.11 Q1247.51 1560.24 1248.32 1557.11 Q1250.31 1549.61 1251.09 1546.26 Q1251.86 1542.88 1251.86 1541.43 Q1251.86 1540.08 1251.51 1539.14 Q1251.15 1538.21 1250.54 1537.79 Q1249.96 1537.34 1249.41 1537.18 Q1248.9 1537.02 1248.32 1537.02 Q1247.35 1537.02 1246.26 1537.4 Q1245.19 1537.79 1243.91 1538.69 Q1242.65 1539.56 1241.46 1541.37 Q1240.27 1543.17 1239.46 1545.65 Q1239.3 1546.39 1238.59 1546.39 Q1237.82 1546.36 1237.82 1545.71 Q1237.82 1545.17 1238.24 1544.04 Q1238.69 1542.88 1239.59 1541.43 Q1240.52 1539.98 1241.72 1538.69 Q1242.94 1537.37 1244.71 1536.47 Q1246.51 1535.57 1248.45 1535.57 Q1249.32 1535.57 1250.15 1535.76 Q1251.02 1535.92 1252.05 1536.41 Q1253.12 1536.89 1254.05 1537.95 Q1254.98 1539.01 1255.56 1540.56 Q1255.95 1539.82 1256.47 1539.11 Q1257.01 1538.4 1257.85 1537.53 Q1258.72 1536.63 1259.91 1536.12 Q1261.14 1535.57 1262.49 1535.57 Q1263.81 1535.57 1265.1 1535.92 Q1266.39 1536.24 1267.48 1537.31 Q1268.61 1538.34 1268.61 1539.92 Z" fill="#000000" fill-rule="evenodd" fill-opacity="1" /><polyline clip-path="url(#clip202)" style="stroke:#000000; stroke-linecap:butt; stroke-linejoin:round; stroke-width:2; stroke-opacity:0.1; fill:none" points="
  156.112,1288.36 2352.76,1288.36 
  "/>
<polyline clip-path="url(#clip202)" style="stroke:#000000; stroke-linecap:butt; stroke-linejoin:round; stroke-width:2; stroke-opacity:0.1; fill:none" points="
  156.112,1070.74 2352.76,1070.74 
  "/>
<polyline clip-path="url(#clip202)" style="stroke:#000000; stroke-linecap:butt; stroke-linejoin:round; stroke-width:2; stroke-opacity:0.1; fill:none" points="
  156.112,853.127 2352.76,853.127 
  "/>
<polyline clip-path="url(#clip202)" style="stroke:#000000; stroke-linecap:butt; stroke-linejoin:round; stroke-width:2; stroke-opacity:0.1; fill:none" points="
  156.112,635.511 2352.76,635.511 
  "/>
<polyline clip-path="url(#clip202)" style="stroke:#000000; stroke-linecap:butt; stroke-linejoin:round; stroke-width:2; stroke-opacity:0.1; fill:none" points="
  156.112,417.896 2352.76,417.896 
  "/>
<polyline clip-path="url(#clip202)" style="stroke:#000000; stroke-linecap:butt; stroke-linejoin:round; stroke-width:2; stroke-opacity:0.1; fill:none" points="
  156.112,200.281 2352.76,200.281 
  "/>
<polyline clip-path="url(#clip200)" style="stroke:#000000; stroke-linecap:butt; stroke-linejoin:round; stroke-width:4; stroke-opacity:1; fill:none" points="
  156.112,1450.96 156.112,47.2441 
  "/>
<polyline clip-path="url(#clip200)" style="stroke:#000000; stroke-linecap:butt; stroke-linejoin:round; stroke-width:4; stroke-opacity:1; fill:none" points="
  156.112,1288.36 175.01,1288.36 
  "/>
<polyline clip-path="url(#clip200)" style="stroke:#000000; stroke-linecap:butt; stroke-linejoin:round; stroke-width:4; stroke-opacity:1; fill:none" points="
  156.112,1070.74 175.01,1070.74 
  "/>
<polyline clip-path="url(#clip200)" style="stroke:#000000; stroke-linecap:butt; stroke-linejoin:round; stroke-width:4; stroke-opacity:1; fill:none" points="
  156.112,853.127 175.01,853.127 
  "/>
<polyline clip-path="url(#clip200)" style="stroke:#000000; stroke-linecap:butt; stroke-linejoin:round; stroke-width:4; stroke-opacity:1; fill:none" points="
  156.112,635.511 175.01,635.511 
  "/>
<polyline clip-path="url(#clip200)" style="stroke:#000000; stroke-linecap:butt; stroke-linejoin:round; stroke-width:4; stroke-opacity:1; fill:none" points="
  156.112,417.896 175.01,417.896 
  "/>
<polyline clip-path="url(#clip200)" style="stroke:#000000; stroke-linecap:butt; stroke-linejoin:round; stroke-width:4; stroke-opacity:1; fill:none" points="
  156.112,200.281 175.01,200.281 
  "/>
<path clip-path="url(#clip200)" d="M62.9365 1274.16 Q59.3254 1274.16 57.4967 1277.72 Q55.6912 1281.26 55.6912 1288.39 Q55.6912 1295.5 57.4967 1299.06 Q59.3254 1302.6 62.9365 1302.6 Q66.5707 1302.6 68.3763 1299.06 Q70.205 1295.5 70.205 1288.39 Q70.205 1281.26 68.3763 1277.72 Q66.5707 1274.16 62.9365 1274.16 M62.9365 1270.45 Q68.7467 1270.45 71.8022 1275.06 Q74.8809 1279.64 74.8809 1288.39 Q74.8809 1297.12 71.8022 1301.72 Q68.7467 1306.31 62.9365 1306.31 Q57.1264 1306.31 54.0477 1301.72 Q50.9921 1297.12 50.9921 1288.39 Q50.9921 1279.64 54.0477 1275.06 Q57.1264 1270.45 62.9365 1270.45 Z" fill="#000000" fill-rule="evenodd" fill-opacity="1" /><path clip-path="url(#clip200)" d="M83.0984 1299.76 L87.9827 1299.76 L87.9827 1305.64 L83.0984 1305.64 L83.0984 1299.76 Z" fill="#000000" fill-rule="evenodd" fill-opacity="1" /><path clip-path="url(#clip200)" d="M108.168 1274.16 Q104.557 1274.16 102.728 1277.72 Q100.922 1281.26 100.922 1288.39 Q100.922 1295.5 102.728 1299.06 Q104.557 1302.6 108.168 1302.6 Q111.802 1302.6 113.608 1299.06 Q115.436 1295.5 115.436 1288.39 Q115.436 1281.26 113.608 1277.72 Q111.802 1274.16 108.168 1274.16 M108.168 1270.45 Q113.978 1270.45 117.033 1275.06 Q120.112 1279.64 120.112 1288.39 Q120.112 1297.12 117.033 1301.72 Q113.978 1306.31 108.168 1306.31 Q102.358 1306.31 99.2789 1301.72 Q96.2234 1297.12 96.2234 1288.39 Q96.2234 1279.64 99.2789 1275.06 Q102.358 1270.45 108.168 1270.45 Z" fill="#000000" fill-rule="evenodd" fill-opacity="1" /><path clip-path="url(#clip200)" d="M63.9319 1056.54 Q60.3208 1056.54 58.4921 1060.11 Q56.6865 1063.65 56.6865 1070.78 Q56.6865 1077.88 58.4921 1081.45 Q60.3208 1084.99 63.9319 1084.99 Q67.5661 1084.99 69.3717 1081.45 Q71.2004 1077.88 71.2004 1070.78 Q71.2004 1063.65 69.3717 1060.11 Q67.5661 1056.54 63.9319 1056.54 M63.9319 1052.84 Q69.742 1052.84 72.7976 1057.44 Q75.8763 1062.03 75.8763 1070.78 Q75.8763 1079.5 72.7976 1084.11 Q69.742 1088.69 63.9319 1088.69 Q58.1217 1088.69 55.043 1084.11 Q51.9875 1079.5 51.9875 1070.78 Q51.9875 1062.03 55.043 1057.44 Q58.1217 1052.84 63.9319 1052.84 Z" fill="#000000" fill-rule="evenodd" fill-opacity="1" /><path clip-path="url(#clip200)" d="M84.0938 1082.14 L88.978 1082.14 L88.978 1088.02 L84.0938 1088.02 L84.0938 1082.14 Z" fill="#000000" fill-rule="evenodd" fill-opacity="1" /><path clip-path="url(#clip200)" d="M99.2095 1053.46 L117.566 1053.46 L117.566 1057.4 L103.492 1057.4 L103.492 1065.87 Q104.51 1065.52 105.529 1065.36 Q106.547 1065.17 107.566 1065.17 Q113.353 1065.17 116.733 1068.35 Q120.112 1071.52 120.112 1076.93 Q120.112 1082.51 116.64 1085.61 Q113.168 1088.69 106.848 1088.69 Q104.672 1088.69 102.404 1088.32 Q100.159 1087.95 97.7511 1087.21 L97.7511 1082.51 Q99.8345 1083.65 102.057 1084.2 Q104.279 1084.76 106.756 1084.76 Q110.76 1084.76 113.098 1082.65 Q115.436 1080.54 115.436 1076.93 Q115.436 1073.32 113.098 1071.22 Q110.76 1069.11 106.756 1069.11 Q104.881 1069.11 103.006 1069.53 Q101.154 1069.94 99.2095 1070.82 L99.2095 1053.46 Z" fill="#000000" fill-rule="evenodd" fill-opacity="1" /><path clip-path="url(#clip200)" d="M53.7467 866.471 L61.3856 866.471 L61.3856 840.106 L53.0754 841.772 L53.0754 837.513 L61.3393 835.847 L66.0152 835.847 L66.0152 866.471 L73.654 866.471 L73.654 870.407 L53.7467 870.407 L53.7467 866.471 Z" fill="#000000" fill-rule="evenodd" fill-opacity="1" /><path clip-path="url(#clip200)" d="M83.0984 864.527 L87.9827 864.527 L87.9827 870.407 L83.0984 870.407 L83.0984 864.527 Z" fill="#000000" fill-rule="evenodd" fill-opacity="1" /><path clip-path="url(#clip200)" d="M108.168 838.925 Q104.557 838.925 102.728 842.49 Q100.922 846.032 100.922 853.161 Q100.922 860.268 102.728 863.833 Q104.557 867.374 108.168 867.374 Q111.802 867.374 113.608 863.833 Q115.436 860.268 115.436 853.161 Q115.436 846.032 113.608 842.49 Q111.802 838.925 108.168 838.925 M108.168 835.222 Q113.978 835.222 117.033 839.828 Q120.112 844.411 120.112 853.161 Q120.112 861.888 117.033 866.495 Q113.978 871.078 108.168 871.078 Q102.358 871.078 99.2789 866.495 Q96.2234 861.888 96.2234 853.161 Q96.2234 844.411 99.2789 839.828 Q102.358 835.222 108.168 835.222 Z" fill="#000000" fill-rule="evenodd" fill-opacity="1" /><path clip-path="url(#clip200)" d="M54.7421 648.856 L62.381 648.856 L62.381 622.491 L54.0708 624.157 L54.0708 619.898 L62.3347 618.231 L67.0106 618.231 L67.0106 648.856 L74.6494 648.856 L74.6494 652.791 L54.7421 652.791 L54.7421 648.856 Z" fill="#000000" fill-rule="evenodd" fill-opacity="1" /><path clip-path="url(#clip200)" d="M84.0938 646.912 L88.978 646.912 L88.978 652.791 L84.0938 652.791 L84.0938 646.912 Z" fill="#000000" fill-rule="evenodd" fill-opacity="1" /><path clip-path="url(#clip200)" d="M99.2095 618.231 L117.566 618.231 L117.566 622.167 L103.492 622.167 L103.492 630.639 Q104.51 630.292 105.529 630.129 Q106.547 629.944 107.566 629.944 Q113.353 629.944 116.733 633.116 Q120.112 636.287 120.112 641.703 Q120.112 647.282 116.64 650.384 Q113.168 653.463 106.848 653.463 Q104.672 653.463 102.404 653.092 Q100.159 652.722 97.7511 651.981 L97.7511 647.282 Q99.8345 648.416 102.057 648.972 Q104.279 649.528 106.756 649.528 Q110.76 649.528 113.098 647.421 Q115.436 645.315 115.436 641.703 Q115.436 638.092 113.098 635.986 Q110.76 633.879 106.756 633.879 Q104.881 633.879 103.006 634.296 Q101.154 634.713 99.2095 635.592 L99.2095 618.231 Z" fill="#000000" fill-rule="evenodd" fill-opacity="1" /><path clip-path="url(#clip200)" d="M56.9643 431.241 L73.2837 431.241 L73.2837 435.176 L51.3393 435.176 L51.3393 431.241 Q54.0014 428.486 58.5847 423.857 Q63.1911 419.204 64.3717 417.861 Q66.617 415.338 67.4967 413.602 Q68.3994 411.843 68.3994 410.153 Q68.3994 407.399 66.455 405.662 Q64.5337 403.926 61.4319 403.926 Q59.2328 403.926 56.7791 404.69 Q54.3486 405.454 51.5708 407.005 L51.5708 402.283 Q54.3949 401.149 56.8486 400.57 Q59.3023 399.991 61.3393 399.991 Q66.7096 399.991 69.9041 402.676 Q73.0985 405.362 73.0985 409.852 Q73.0985 411.982 72.2883 413.903 Q71.5013 415.801 69.3948 418.394 Q68.8161 419.065 65.7143 422.283 Q62.6124 425.477 56.9643 431.241 Z" fill="#000000" fill-rule="evenodd" fill-opacity="1" /><path clip-path="url(#clip200)" d="M83.0984 429.297 L87.9827 429.297 L87.9827 435.176 L83.0984 435.176 L83.0984 429.297 Z" fill="#000000" fill-rule="evenodd" fill-opacity="1" /><path clip-path="url(#clip200)" d="M108.168 403.695 Q104.557 403.695 102.728 407.26 Q100.922 410.801 100.922 417.931 Q100.922 425.037 102.728 428.602 Q104.557 432.144 108.168 432.144 Q111.802 432.144 113.608 428.602 Q115.436 425.037 115.436 417.931 Q115.436 410.801 113.608 407.26 Q111.802 403.695 108.168 403.695 M108.168 399.991 Q113.978 399.991 117.033 404.598 Q120.112 409.181 120.112 417.931 Q120.112 426.658 117.033 431.264 Q113.978 435.848 108.168 435.848 Q102.358 435.848 99.2789 431.264 Q96.2234 426.658 96.2234 417.931 Q96.2234 409.181 99.2789 404.598 Q102.358 399.991 108.168 399.991 Z" fill="#000000" fill-rule="evenodd" fill-opacity="1" /><path clip-path="url(#clip200)" d="M57.9597 213.626 L74.279 213.626 L74.279 217.561 L52.3347 217.561 L52.3347 213.626 Q54.9967 210.871 59.58 206.242 Q64.1865 201.589 65.367 200.246 Q67.6124 197.723 68.492 195.987 Q69.3948 194.228 69.3948 192.538 Q69.3948 189.783 67.4504 188.047 Q65.5291 186.311 62.4272 186.311 Q60.2282 186.311 57.7745 187.075 Q55.344 187.839 52.5662 189.39 L52.5662 184.668 Q55.3903 183.533 57.8439 182.955 Q60.2976 182.376 62.3347 182.376 Q67.705 182.376 70.8994 185.061 Q74.0939 187.746 74.0939 192.237 Q74.0939 194.367 73.2837 196.288 Q72.4966 198.186 70.3902 200.779 Q69.8115 201.45 66.7096 204.668 Q63.6078 207.862 57.9597 213.626 Z" fill="#000000" fill-rule="evenodd" fill-opacity="1" /><path clip-path="url(#clip200)" d="M84.0938 211.681 L88.978 211.681 L88.978 217.561 L84.0938 217.561 L84.0938 211.681 Z" fill="#000000" fill-rule="evenodd" fill-opacity="1" /><path clip-path="url(#clip200)" d="M99.2095 183.001 L117.566 183.001 L117.566 186.936 L103.492 186.936 L103.492 195.408 Q104.51 195.061 105.529 194.899 Q106.547 194.714 107.566 194.714 Q113.353 194.714 116.733 197.885 Q120.112 201.056 120.112 206.473 Q120.112 212.052 116.64 215.154 Q113.168 218.232 106.848 218.232 Q104.672 218.232 102.404 217.862 Q100.159 217.492 97.7511 216.751 L97.7511 212.052 Q99.8345 213.186 102.057 213.742 Q104.279 214.297 106.756 214.297 Q110.76 214.297 113.098 212.191 Q115.436 210.084 115.436 206.473 Q115.436 202.862 113.098 200.756 Q110.76 198.649 106.756 198.649 Q104.881 198.649 103.006 199.066 Q101.154 199.482 99.2095 200.362 L99.2095 183.001 Z" fill="#000000" fill-rule="evenodd" fill-opacity="1" /><circle clip-path="url(#clip202)" cx="218.281" cy="193.712" r="14" fill="#009af9" fill-rule="evenodd" fill-opacity="1" stroke="#000000" stroke-opacity="1" stroke-width="3.2"/>
<circle clip-path="url(#clip202)" cx="448.537" cy="797.763" r="14" fill="#009af9" fill-rule="evenodd" fill-opacity="1" stroke="#000000" stroke-opacity="1" stroke-width="3.2"/>
<circle clip-path="url(#clip202)" cx="1139.31" cy="940.708" r="14" fill="#009af9" fill-rule="evenodd" fill-opacity="1" stroke="#000000" stroke-opacity="1" stroke-width="3.2"/>
<circle clip-path="url(#clip202)" cx="1369.56" cy="431.669" r="14" fill="#009af9" fill-rule="evenodd" fill-opacity="1" stroke="#000000" stroke-opacity="1" stroke-width="3.2"/>
<circle clip-path="url(#clip202)" cx="1645.87" cy="194.504" r="14" fill="#009af9" fill-rule="evenodd" fill-opacity="1" stroke="#000000" stroke-opacity="1" stroke-width="3.2"/>
<circle clip-path="url(#clip202)" cx="1830.07" cy="652.894" r="14" fill="#009af9" fill-rule="evenodd" fill-opacity="1" stroke="#000000" stroke-opacity="1" stroke-width="3.2"/>
<circle clip-path="url(#clip202)" cx="2290.59" cy="1112.35" r="14" fill="#009af9" fill-rule="evenodd" fill-opacity="1" stroke="#000000" stroke-opacity="1" stroke-width="3.2"/>
<polyline clip-path="url(#clip202)" style="stroke:#e26f46; stroke-linecap:butt; stroke-linejoin:round; stroke-width:4; stroke-opacity:1; fill:none" points="
  218.281,193.712 228.695,221.144 239.108,250.943 249.522,282.134 259.936,313.725 270.349,344.81 280.763,374.654 291.176,402.758 301.59,428.904 312.004,453.155 
  322.417,475.842 332.831,497.503 343.244,518.808 353.658,540.471 364.072,563.155 374.485,587.381 384.899,613.46 395.312,641.446 405.726,671.12 416.14,702.01 
  426.553,733.432 436.967,764.566 447.38,794.541 457.794,822.534 468.208,847.855 478.621,870.028 489.035,888.839 499.448,904.365 509.862,916.956 520.276,927.204 
  530.689,935.872 541.103,943.808 551.516,951.848 561.93,960.73 572.344,971.002 582.757,982.969 593.171,996.659 603.584,1011.82 613.998,1027.95 624.412,1044.37 
  634.825,1060.29 645.239,1074.89 655.652,1087.46 666.066,1097.44 676.479,1104.5 686.893,1108.59 697.307,1109.94 707.72,1109.02 718.134,1106.53 728.547,1103.29 
  738.961,1100.14 749.375,1097.88 759.788,1097.15 770.202,1098.39 780.615,1101.74 791.029,1107.09 801.443,1114.04 811.856,1121.97 822.27,1130.12 832.683,1137.65 
  843.097,1143.77 853.511,1147.79 863.924,1149.23 874.338,1147.87 884.751,1143.78 895.165,1137.27 905.579,1128.91 915.992,1119.44 926.406,1109.67 936.819,1100.42 
  947.233,1092.4 957.647,1086.13 968.06,1081.88 978.474,1079.66 988.887,1079.18 999.301,1079.92 1009.71,1081.14 1020.13,1082.02 1030.54,1081.7 1040.96,1079.39 
  1051.37,1074.49 1061.78,1066.62 1072.2,1055.64 1082.61,1041.75 1093.02,1025.35 1103.44,1007.08 1113.85,987.723 1124.26,968.078 1134.68,948.907 1145.09,930.828 
  1155.5,914.245 1165.92,899.301 1176.33,885.858 1186.75,873.512 1197.16,861.64 1207.57,849.467 1217.99,836.159 1228.4,820.911 1238.81,803.049 1249.23,782.102 
  1259.64,757.861 1270.05,730.405 1280.47,700.1 1290.88,667.558 1301.3,633.575 1311.71,599.051 1322.12,564.891 1332.54,531.914 1342.95,500.77 1353.36,471.876 
  1363.78,445.383 1374.19,421.171 1384.6,398.877 1395.02,377.951 1405.43,357.736 1415.84,337.556 1426.26,316.812 1436.67,295.067 1447.09,272.112 1457.5,248.006 
  1467.91,223.085 1478.33,197.943 1488.74,173.376 1499.15,150.307 1509.57,129.694 1519.98,112.432 1530.39,99.2623 1540.81,90.6983 1551.22,86.9719 1561.64,88.0142 
  1572.05,93.4666 1582.46,102.724 1592.88,115.002 1603.29,129.427 1613.7,145.129 1624.12,161.337 1634.53,177.459 1644.94,193.137 1655.36,208.283 1665.77,223.072 
  1676.18,237.911 1686.6,253.375 1697.01,270.133 1707.43,288.848 1717.84,310.09 1728.25,334.252 1738.67,361.491 1749.08,391.69 1759.49,424.457 1769.91,459.153 
  1780.32,494.948 1790.73,530.906 1801.15,566.068 1811.56,599.558 1821.97,630.663 1832.39,658.908 1842.8,684.096 1853.22,706.324 1863.63,725.962 1874.04,743.602 
  1884.46,759.991 1894.87,775.932 1905.28,792.193 1915.7,809.416 1926.11,828.04 1936.52,848.251 1946.94,869.956 1957.35,892.796 1967.77,916.189 1978.18,939.391 
  1988.59,961.588 1999.01,981.986 2009.42,999.905 2019.83,1014.86 2030.25,1026.61 2040.66,1035.21 2051.07,1040.98 2061.49,1044.48 2071.9,1046.47 2082.31,1047.78 
  2092.73,1049.29 2103.14,1051.74 2113.56,1055.72 2123.97,1061.6 2134.38,1069.45 2144.8,1079.07 2155.21,1089.98 2165.62,1101.53 2176.04,1112.93 2186.45,1123.36 
  2196.86,1132.06 2207.28,1138.43 2217.69,1142.08 2228.11,1142.88 2238.52,1141.01 2248.93,1136.89 2259.35,1131.16 2269.76,1124.61 2280.17,1118.07 2290.59,1112.35 
  
  "/>
<polyline clip-path="url(#clip202)" style="stroke:#3da44d; stroke-linecap:butt; stroke-linejoin:round; stroke-width:4; stroke-opacity:1; fill:none" points="
  218.281,193.712 228.695,226.19 239.108,258.198 249.522,289.733 259.936,320.791 270.349,351.372 280.763,381.471 291.176,411.086 301.59,440.214 312.004,468.852 
  322.417,496.998 332.831,524.649 343.244,551.803 353.658,578.455 364.072,604.605 374.485,630.248 384.899,655.382 395.312,680.005 405.726,704.114 416.14,727.705 
  426.553,750.777 436.967,773.325 447.38,795.349 457.794,816.844 468.208,837.809 478.621,858.24 489.035,878.134 499.448,897.49 509.862,916.303 520.276,934.572 
  530.689,952.293 541.103,969.464 551.516,986.083 561.93,1002.15 572.344,1017.65 582.757,1032.59 593.171,1046.97 603.584,1060.78 613.998,1074.03 624.412,1086.7 
  634.825,1098.79 645.239,1110.31 655.652,1121.25 666.066,1131.6 676.479,1141.37 686.893,1150.55 697.307,1159.14 707.72,1167.13 718.134,1174.53 728.547,1181.33 
  738.961,1187.52 749.375,1193.11 759.788,1198.09 770.202,1202.47 780.615,1206.22 791.029,1209.36 801.443,1211.89 811.856,1213.79 822.27,1215.06 832.683,1215.71 
  843.097,1215.73 853.511,1215.11 863.924,1213.86 874.338,1211.98 884.751,1209.45 895.165,1206.27 905.579,1202.45 915.992,1197.98 926.406,1192.86 936.819,1187.09 
  947.233,1180.65 957.647,1173.56 968.06,1165.8 978.474,1157.38 988.887,1148.29 999.301,1138.53 1009.71,1128.09 1020.13,1116.98 1030.54,1105.18 1040.96,1092.71 
  1051.37,1079.55 1061.78,1065.7 1072.2,1051.16 1082.61,1035.93 1093.02,1020 1103.44,1003.37 1113.85,986.039 1124.26,968.006 1134.68,949.265 1145.09,929.815 
  1155.5,909.685 1165.92,888.924 1176.33,867.586 1186.75,845.722 1197.16,823.384 1207.57,800.625 1217.99,777.498 1228.4,754.053 1238.81,730.343 1249.23,706.421 
  1259.64,682.339 1270.05,658.148 1280.47,633.901 1290.88,609.65 1301.3,585.448 1311.71,561.346 1322.12,537.397 1332.54,513.652 1342.95,490.165 1353.36,466.986 
  1363.78,444.169 1374.19,421.766 1384.6,399.834 1395.02,378.438 1405.43,357.643 1415.84,337.512 1426.26,318.11 1436.67,299.502 1447.09,281.753 1457.5,264.926 
  1467.91,249.087 1478.33,234.3 1488.74,220.63 1499.15,208.14 1509.57,196.897 1519.98,186.963 1530.39,178.404 1540.81,171.284 1551.22,165.668 1561.64,161.62 
  1572.05,159.205 1582.46,158.487 1592.88,159.532 1603.29,162.402 1613.7,167.164 1624.12,173.881 1634.53,182.618 1644.94,193.439 1655.36,206.389 1665.77,221.403 
  1676.18,238.38 1686.6,257.22 1697.01,277.824 1707.43,300.09 1717.84,323.92 1728.25,349.213 1738.67,375.868 1749.08,403.787 1759.49,432.867 1769.91,463.011 
  1780.32,494.116 1790.73,526.084 1801.15,558.814 1811.56,592.206 1821.97,626.16 1832.39,660.576 1842.8,695.354 1853.22,730.393 1863.63,765.593 1874.04,800.855 
  1884.46,836.078 1894.87,871.163 1905.28,906.008 1915.7,940.514 1926.11,974.581 1936.52,1008.11 1946.94,1041 1957.35,1073.15 1967.77,1104.45 1978.18,1134.82 
  1988.59,1164.15 1999.01,1192.34 2009.42,1219.29 2019.83,1244.9 2030.25,1269.07 2040.66,1291.7 2051.07,1312.69 2061.49,1331.93 2071.9,1349.34 2082.31,1364.8 
  2092.73,1378.23 2103.14,1389.51 2113.56,1398.55 2123.97,1405.26 2134.38,1409.51 2144.8,1411.23 2155.21,1410.31 2165.62,1406.64 2176.04,1400.14 2186.45,1390.69 
  2196.86,1378.19 2207.28,1362.56 2217.69,1343.68 2228.11,1321.46 2238.52,1295.8 2248.93,1266.6 2259.35,1233.75 2269.76,1197.16 2280.17,1156.73 2290.59,1112.35 
  
  "/>
<path clip-path="url(#clip200)" d="
M386.866 301.395 L1303.25 301.395 L1303.25 94.0346 L386.866 94.0346  Z
  " fill="#ffffff" fill-rule="evenodd" fill-opacity="1"/>
<polyline clip-path="url(#clip200)" style="stroke:#000000; stroke-linecap:butt; stroke-linejoin:round; stroke-width:4; stroke-opacity:1; fill:none" points="
  386.866,301.395 1303.25,301.395 1303.25,94.0346 386.866,94.0346 386.866,301.395 
  "/>
<circle clip-path="url(#clip200)" cx="484.494" cy="145.875" r="23" fill="#009af9" fill-rule="evenodd" fill-opacity="1" stroke="#000000" stroke-opacity="1" stroke-width="5.12"/>
<path clip-path="url(#clip200)" d="M595.965 165.562 Q594.16 170.192 592.447 171.604 Q590.734 173.016 587.864 173.016 L584.461 173.016 L584.461 169.451 L586.961 169.451 Q588.72 169.451 589.692 168.618 Q590.664 167.784 591.845 164.682 L592.609 162.738 L582.123 137.229 L586.637 137.229 L594.738 157.507 L602.84 137.229 L607.354 137.229 L595.965 165.562 Z" fill="#000000" fill-rule="evenodd" fill-opacity="1" /><path clip-path="url(#clip200)" d="M625.109 149.173 Q627.979 149.729 629.576 151.419 Q631.173 153.108 631.173 155.608 Q631.173 159.613 628.187 161.719 Q625.201 163.826 619.692 163.826 Q617.84 163.826 615.873 163.502 Q613.928 163.178 611.845 162.53 L611.845 158.571 Q613.488 159.428 615.456 159.868 Q617.424 160.284 619.576 160.284 Q623.072 160.284 625.016 158.988 Q626.984 157.692 626.984 155.608 Q626.984 153.571 625.248 152.345 Q623.511 151.095 620.34 151.095 L616.914 151.095 L616.914 147.576 L620.502 147.576 Q623.187 147.576 624.738 146.558 Q626.312 145.516 626.312 143.895 Q626.312 142.414 624.692 141.349 Q623.095 140.284 620.34 140.284 Q618.697 140.284 616.822 140.585 Q614.97 140.886 612.724 141.558 L612.724 137.692 Q614.993 137.136 616.961 136.858 Q618.928 136.581 620.687 136.581 Q625.224 136.581 627.84 138.409 Q630.479 140.215 630.479 143.479 Q630.479 145.632 629.09 147.136 Q627.701 148.618 625.109 149.173 Z" fill="#000000" fill-rule="evenodd" fill-opacity="1" /><path clip-path="url(#clip200)" d="M635.734 163.155 L635.734 159.613 Q639.947 158.965 641.243 156.048 Q642.817 151.951 642.817 141.465 L642.817 137.229 L660.34 137.229 L660.34 163.155 L656.081 163.155 L656.081 140.632 L647.076 140.632 L647.076 143.201 Q647.076 153.201 645.039 157.692 Q642.863 162.483 635.734 163.155 Z" fill="#000000" fill-rule="evenodd" fill-opacity="1" /><path clip-path="url(#clip200)" d="M693.233 137.229 L697.493 137.229 L697.493 163.155 L693.233 163.155 L693.233 137.229 M695.363 136.604 L695.363 136.604 M684.877 155.469 Q684.877 153.386 683.349 152.298 Q681.844 151.21 678.928 151.21 L672.863 151.21 L672.863 159.752 L678.928 159.752 Q681.844 159.752 683.349 158.664 Q684.877 157.553 684.877 155.469 M668.581 137.229 L672.863 137.229 L672.863 147.807 L679.113 147.807 Q684.067 147.807 686.729 149.706 Q689.414 151.581 689.414 155.469 Q689.414 159.358 686.729 161.256 Q684.067 163.155 679.113 163.155 L668.581 163.155 L668.581 137.229 Z" fill="#000000" fill-rule="evenodd" fill-opacity="1" /><path clip-path="url(#clip200)" d="M743.279 137.229 L743.279 163.155 L739.043 163.155 L739.043 142.345 L726.543 163.155 L721.08 163.155 L721.08 137.229 L725.316 137.229 L725.316 157.993 L737.793 137.229 L743.279 137.229 Z" fill="#000000" fill-rule="evenodd" fill-opacity="1" /><path clip-path="url(#clip200)" d="M751.89 137.229 L756.173 137.229 L756.173 147.807 L769.992 147.807 L769.992 137.229 L774.275 137.229 L774.275 163.155 L769.992 163.155 L769.992 151.21 L756.173 151.21 L756.173 163.155 L751.89 163.155 L751.89 137.229 Z" fill="#000000" fill-rule="evenodd" fill-opacity="1" /><path clip-path="url(#clip200)" d="M779.969 137.229 L804.807 137.229 L804.807 140.632 L794.483 140.632 L794.483 163.155 L790.293 163.155 L790.293 140.632 L779.969 140.632 L779.969 137.229 Z" fill="#000000" fill-rule="evenodd" fill-opacity="1" /><path clip-path="url(#clip200)" d="M832.839 149.127 L832.839 151.21 L813.256 151.21 Q813.534 155.608 815.895 157.923 Q818.279 160.215 822.515 160.215 Q824.969 160.215 827.26 159.613 Q829.575 159.011 831.844 157.807 L831.844 161.835 Q829.552 162.807 827.145 163.317 Q824.737 163.826 822.26 163.826 Q816.057 163.826 812.422 160.215 Q808.811 156.604 808.811 150.446 Q808.811 144.081 812.237 140.354 Q815.686 136.604 821.52 136.604 Q826.751 136.604 829.784 139.983 Q832.839 143.34 832.839 149.127 M828.58 147.877 Q828.534 144.382 826.612 142.298 Q824.714 140.215 821.566 140.215 Q818.001 140.215 815.848 142.229 Q813.719 144.243 813.395 147.9 L828.58 147.877 Z" fill="#000000" fill-rule="evenodd" fill-opacity="1" /><path clip-path="url(#clip200)" d="M843.95 159.266 L843.95 173.016 L839.668 173.016 L839.668 137.229 L843.95 137.229 L843.95 141.164 Q845.293 138.849 847.33 137.738 Q849.39 136.604 852.237 136.604 Q856.959 136.604 859.899 140.354 Q862.862 144.104 862.862 150.215 Q862.862 156.326 859.899 160.076 Q856.959 163.826 852.237 163.826 Q849.39 163.826 847.33 162.715 Q845.293 161.581 843.95 159.266 M858.441 150.215 Q858.441 145.516 856.496 142.854 Q854.575 140.169 851.195 140.169 Q847.816 140.169 845.871 142.854 Q843.95 145.516 843.95 150.215 Q843.95 154.914 845.871 157.599 Q847.816 160.261 851.195 160.261 Q854.575 160.261 856.496 157.599 Q858.441 154.914 858.441 150.215 Z" fill="#000000" fill-rule="evenodd" fill-opacity="1" /><path clip-path="url(#clip200)" d="M892.144 137.229 L892.144 163.155 L887.862 163.155 L887.862 140.632 L874.043 140.632 L874.043 163.155 L869.76 163.155 L869.76 137.229 L892.144 137.229 Z" fill="#000000" fill-rule="evenodd" fill-opacity="1" /><path clip-path="url(#clip200)" d="M910.964 140.215 Q907.538 140.215 905.547 142.9 Q903.556 145.562 903.556 150.215 Q903.556 154.868 905.524 157.553 Q907.515 160.215 910.964 160.215 Q914.366 160.215 916.357 157.53 Q918.348 154.844 918.348 150.215 Q918.348 145.608 916.357 142.923 Q914.366 140.215 910.964 140.215 M910.964 136.604 Q916.519 136.604 919.69 140.215 Q922.862 143.826 922.862 150.215 Q922.862 156.581 919.69 160.215 Q916.519 163.826 910.964 163.826 Q905.385 163.826 902.214 160.215 Q899.066 156.581 899.066 150.215 Q899.066 143.826 902.214 140.215 Q905.385 136.604 910.964 136.604 Z" fill="#000000" fill-rule="evenodd" fill-opacity="1" /><path clip-path="url(#clip200)" d="M927.214 163.155 L927.214 159.613 Q931.426 158.965 932.723 156.048 Q934.297 151.951 934.297 141.465 L934.297 137.229 L951.82 137.229 L951.82 163.155 L947.561 163.155 L947.561 140.632 L938.556 140.632 L938.556 143.201 Q938.556 153.201 936.519 157.692 Q934.343 162.483 927.214 163.155 Z" fill="#000000" fill-rule="evenodd" fill-opacity="1" /><path clip-path="url(#clip200)" d="M964.505 144.706 Q964.505 146.627 965.986 147.715 Q967.468 148.803 970.223 148.803 L975.963 148.803 L975.963 140.632 L970.223 140.632 Q967.468 140.632 965.986 141.696 Q964.505 142.761 964.505 144.706 M958.44 163.155 L966.357 151.789 Q963.672 151.187 961.889 149.613 Q960.107 148.016 960.107 144.706 Q960.107 140.956 962.584 139.104 Q965.084 137.229 970.107 137.229 L980.246 137.229 L980.246 163.155 L975.963 163.155 L975.963 152.206 L970.662 152.206 L963.024 163.155 L958.44 163.155 Z" fill="#000000" fill-rule="evenodd" fill-opacity="1" /><path clip-path="url(#clip200)" d="M1010.96 163.155 L988.579 163.155 L988.579 137.229 L992.861 137.229 L992.861 159.752 L1006.68 159.752 L1006.68 137.229 L1010.96 137.229 L1010.96 159.752 L1014.37 159.752 L1014.37 169.706 L1010.96 169.706 L1010.96 163.155 Z" fill="#000000" fill-rule="evenodd" fill-opacity="1" /><path clip-path="url(#clip200)" d="M1043.05 137.229 L1043.05 163.155 L1038.81 163.155 L1038.81 142.345 L1026.31 163.155 L1020.85 163.155 L1020.85 137.229 L1025.08 137.229 L1025.08 157.993 L1037.56 137.229 L1043.05 137.229 Z" fill="#000000" fill-rule="evenodd" fill-opacity="1" /><path clip-path="url(#clip200)" d="M1073.86 137.229 L1073.86 163.155 L1069.62 163.155 L1069.62 142.345 L1057.12 163.155 L1051.66 163.155 L1051.66 137.229 L1055.89 137.229 L1055.89 157.993 L1068.37 137.229 L1073.86 137.229 Z" fill="#000000" fill-rule="evenodd" fill-opacity="1" /><polyline clip-path="url(#clip200)" style="stroke:#e26f46; stroke-linecap:butt; stroke-linejoin:round; stroke-width:4; stroke-opacity:1; fill:none" points="
  411.273,197.715 557.716,197.715 
  "/>
<path clip-path="url(#clip200)" d="M606.15 200.967 L606.15 203.05 L586.567 203.05 Q586.845 207.448 589.206 209.763 Q591.59 212.055 595.826 212.055 Q598.28 212.055 600.572 211.453 Q602.887 210.851 605.155 209.647 L605.155 213.675 Q602.863 214.647 600.456 215.157 Q598.049 215.666 595.572 215.666 Q589.368 215.666 585.734 212.055 Q582.123 208.444 582.123 202.286 Q582.123 195.921 585.549 192.194 Q588.998 188.444 594.831 188.444 Q600.063 188.444 603.095 191.823 Q606.15 195.18 606.15 200.967 M601.891 199.717 Q601.845 196.222 599.924 194.138 Q598.025 192.055 594.877 192.055 Q591.313 192.055 589.16 194.069 Q587.03 196.083 586.706 199.74 L601.891 199.717 Z" fill="#000000" fill-rule="evenodd" fill-opacity="1" /><path clip-path="url(#clip200)" d="M633.859 189.069 L624.484 201.685 L634.345 214.995 L629.322 214.995 L621.775 204.81 L614.229 214.995 L609.206 214.995 L619.275 201.43 L610.062 189.069 L615.086 189.069 L621.961 198.305 L628.836 189.069 L633.859 189.069 Z" fill="#000000" fill-rule="evenodd" fill-opacity="1" /><path clip-path="url(#clip200)" d="M644.484 211.106 L644.484 224.856 L640.201 224.856 L640.201 189.069 L644.484 189.069 L644.484 193.004 Q645.826 190.689 647.863 189.578 Q649.923 188.444 652.771 188.444 Q657.493 188.444 660.433 192.194 Q663.396 195.944 663.396 202.055 Q663.396 208.166 660.433 211.916 Q657.493 215.666 652.771 215.666 Q649.923 215.666 647.863 214.555 Q645.826 213.421 644.484 211.106 M658.974 202.055 Q658.974 197.356 657.03 194.694 Q655.109 192.009 651.729 192.009 Q648.349 192.009 646.405 194.694 Q644.484 197.356 644.484 202.055 Q644.484 206.754 646.405 209.439 Q648.349 212.101 651.729 212.101 Q655.109 212.101 657.03 209.439 Q658.974 206.754 658.974 202.055 Z" fill="#000000" fill-rule="evenodd" fill-opacity="1" /><path clip-path="url(#clip200)" d="M680.687 179.023 Q677.585 184.347 676.081 189.555 Q674.576 194.763 674.576 200.11 Q674.576 205.458 676.081 210.712 Q677.608 215.944 680.687 221.245 L676.983 221.245 Q673.511 215.805 671.775 210.55 Q670.062 205.296 670.062 200.11 Q670.062 194.948 671.775 189.717 Q673.488 184.486 676.983 179.023 L680.687 179.023 Z" fill="#000000" fill-rule="evenodd" fill-opacity="1" /><path clip-path="url(#clip200)" d="M705.479 189.833 L705.479 193.86 Q703.673 192.935 701.729 192.472 Q699.784 192.009 697.701 192.009 Q694.53 192.009 692.932 192.981 Q691.358 193.953 691.358 195.898 Q691.358 197.379 692.493 198.235 Q693.627 199.069 697.053 199.833 L698.511 200.157 Q703.048 201.129 704.946 202.911 Q706.868 204.671 706.868 207.842 Q706.868 211.453 703.997 213.559 Q701.15 215.666 696.15 215.666 Q694.067 215.666 691.798 215.249 Q689.553 214.856 687.053 214.046 L687.053 209.647 Q689.414 210.874 691.706 211.499 Q693.997 212.101 696.243 212.101 Q699.252 212.101 700.872 211.083 Q702.493 210.041 702.493 208.166 Q702.493 206.43 701.312 205.504 Q700.155 204.578 696.196 203.722 L694.715 203.374 Q690.756 202.541 688.997 200.828 Q687.238 199.092 687.238 196.083 Q687.238 192.425 689.831 190.435 Q692.423 188.444 697.192 188.444 Q699.553 188.444 701.636 188.791 Q703.719 189.138 705.479 189.833 Z" fill="#000000" fill-rule="evenodd" fill-opacity="1" /><path clip-path="url(#clip200)" d="M713.65 189.069 L717.909 189.069 L717.909 214.995 L713.65 214.995 L713.65 189.069 M713.65 178.976 L717.909 178.976 L717.909 184.37 L713.65 184.37 L713.65 178.976 Z" fill="#000000" fill-rule="evenodd" fill-opacity="1" /><path clip-path="url(#clip200)" d="M748.372 199.347 L748.372 214.995 L744.113 214.995 L744.113 199.485 Q744.113 195.805 742.677 193.976 Q741.242 192.148 738.372 192.148 Q734.923 192.148 732.932 194.347 Q730.941 196.546 730.941 200.342 L730.941 214.995 L726.659 214.995 L726.659 189.069 L730.941 189.069 L730.941 193.097 Q732.469 190.759 734.529 189.601 Q736.613 188.444 739.321 188.444 Q743.789 188.444 746.08 191.222 Q748.372 193.976 748.372 199.347 Z" fill="#000000" fill-rule="evenodd" fill-opacity="1" /><path clip-path="url(#clip200)" d="M767.099 179.023 Q763.997 184.347 762.492 189.555 Q760.988 194.763 760.988 200.11 Q760.988 205.458 762.492 210.712 Q764.02 215.944 767.099 221.245 L763.395 221.245 Q759.923 215.805 758.187 210.55 Q756.474 205.296 756.474 200.11 Q756.474 194.948 758.187 189.717 Q759.9 184.486 763.395 179.023 L767.099 179.023 Z" fill="#000000" fill-rule="evenodd" fill-opacity="1" /><path clip-path="url(#clip200)" d="M779.992 211.059 L796.311 211.059 L796.311 214.995 L774.367 214.995 L774.367 211.059 Q777.029 208.305 781.612 203.675 Q786.219 199.022 787.399 197.68 Q789.645 195.157 790.524 193.421 Q791.427 191.661 791.427 189.972 Q791.427 187.217 789.483 185.481 Q787.562 183.745 784.46 183.745 Q782.261 183.745 779.807 184.509 Q777.376 185.273 774.599 186.823 L774.599 182.101 Q777.423 180.967 779.876 180.388 Q782.33 179.81 784.367 179.81 Q789.737 179.81 792.932 182.495 Q796.126 185.18 796.126 189.671 Q796.126 191.8 795.316 193.722 Q794.529 195.62 792.423 198.212 Q791.844 198.884 788.742 202.101 Q785.64 205.296 779.992 211.059 Z" fill="#000000" fill-rule="evenodd" fill-opacity="1" /><path clip-path="url(#clip200)" d="M827.075 189.069 L817.7 201.685 L827.561 214.995 L822.538 214.995 L814.992 204.81 L807.446 214.995 L802.423 214.995 L812.492 201.43 L803.279 189.069 L808.302 189.069 L815.177 198.305 L822.052 189.069 L827.075 189.069 Z" fill="#000000" fill-rule="evenodd" fill-opacity="1" /><path clip-path="url(#clip200)" d="M832.908 179.023 L836.612 179.023 Q840.084 184.486 841.797 189.717 Q843.533 194.948 843.533 200.11 Q843.533 205.296 841.797 210.55 Q840.084 215.805 836.612 221.245 L832.908 221.245 Q835.987 215.944 837.492 210.712 Q839.02 205.458 839.02 200.11 Q839.02 194.763 837.492 189.555 Q835.987 184.347 832.908 179.023 Z" fill="#000000" fill-rule="evenodd" fill-opacity="1" /><path clip-path="url(#clip200)" d="M851.404 179.023 L855.107 179.023 Q858.58 184.486 860.293 189.717 Q862.029 194.948 862.029 200.11 Q862.029 205.296 860.293 210.55 Q858.58 215.805 855.107 221.245 L851.404 221.245 Q854.482 215.944 855.987 210.712 Q857.515 205.458 857.515 200.11 Q857.515 194.763 855.987 189.555 Q854.482 184.347 851.404 179.023 Z" fill="#000000" fill-rule="evenodd" fill-opacity="1" /><path clip-path="url(#clip200)" d="M902.978 185.273 L902.978 198.166 L915.871 198.166 L915.871 202.101 L902.978 202.101 L902.978 214.995 L899.089 214.995 L899.089 202.101 L886.195 202.101 L886.195 198.166 L899.089 198.166 L899.089 185.273 L902.978 185.273 Z" fill="#000000" fill-rule="evenodd" fill-opacity="1" /><path clip-path="url(#clip200)" d="M951.033 183.513 Q947.422 183.513 945.593 187.078 Q943.788 190.62 943.788 197.749 Q943.788 204.856 945.593 208.421 Q947.422 211.962 951.033 211.962 Q954.667 211.962 956.473 208.421 Q958.301 204.856 958.301 197.749 Q958.301 190.62 956.473 187.078 Q954.667 183.513 951.033 183.513 M951.033 179.81 Q956.843 179.81 959.899 184.416 Q962.977 188.999 962.977 197.749 Q962.977 206.476 959.899 211.083 Q956.843 215.666 951.033 215.666 Q945.223 215.666 942.144 211.083 Q939.088 206.476 939.088 197.749 Q939.088 188.999 942.144 184.416 Q945.223 179.81 951.033 179.81 Z" fill="#000000" fill-rule="evenodd" fill-opacity="1" /><path clip-path="url(#clip200)" d="M971.195 209.115 L976.079 209.115 L976.079 214.995 L971.195 214.995 L971.195 209.115 Z" fill="#000000" fill-rule="evenodd" fill-opacity="1" /><path clip-path="url(#clip200)" d="M996.264 183.513 Q992.653 183.513 990.824 187.078 Q989.019 190.62 989.019 197.749 Q989.019 204.856 990.824 208.421 Q992.653 211.962 996.264 211.962 Q999.898 211.962 1001.7 208.421 Q1003.53 204.856 1003.53 197.749 Q1003.53 190.62 1001.7 187.078 Q999.898 183.513 996.264 183.513 M996.264 179.81 Q1002.07 179.81 1005.13 184.416 Q1008.21 188.999 1008.21 197.749 Q1008.21 206.476 1005.13 211.083 Q1002.07 215.666 996.264 215.666 Q990.454 215.666 987.375 211.083 Q984.32 206.476 984.32 197.749 Q984.32 188.999 987.375 184.416 Q990.454 179.81 996.264 179.81 Z" fill="#000000" fill-rule="evenodd" fill-opacity="1" /><path clip-path="url(#clip200)" d="M1016.47 180.435 L1034.83 180.435 L1034.83 184.37 L1020.75 184.37 L1020.75 192.842 Q1021.77 192.495 1022.79 192.333 Q1023.81 192.148 1024.83 192.148 Q1030.62 192.148 1034 195.319 Q1037.37 198.49 1037.37 203.907 Q1037.37 209.485 1033.9 212.587 Q1030.43 215.666 1024.11 215.666 Q1021.94 215.666 1019.67 215.296 Q1017.42 214.925 1015.01 214.184 L1015.01 209.485 Q1017.1 210.62 1019.32 211.175 Q1021.54 211.731 1024.02 211.731 Q1028.02 211.731 1030.36 209.624 Q1032.7 207.518 1032.7 203.907 Q1032.7 200.296 1030.36 198.189 Q1028.02 196.083 1024.02 196.083 Q1022.14 196.083 1020.27 196.499 Q1018.42 196.916 1016.47 197.796 L1016.47 180.435 Z" fill="#000000" fill-rule="evenodd" fill-opacity="1" /><path clip-path="url(#clip200)" d="M1063.81 186.129 L1055.5 190.62 L1063.81 195.134 L1062.47 197.402 L1054.69 192.703 L1054.69 201.43 L1052.05 201.43 L1052.05 192.703 L1044.27 197.402 L1042.93 195.134 L1051.24 190.62 L1042.93 186.129 L1044.27 183.837 L1052.05 188.536 L1052.05 179.81 L1054.69 179.81 L1054.69 188.536 L1062.47 183.837 L1063.81 186.129 Z" fill="#000000" fill-rule="evenodd" fill-opacity="1" /><path clip-path="url(#clip200)" d="M1086.22 189.833 L1086.22 193.86 Q1084.41 192.935 1082.47 192.472 Q1080.52 192.009 1078.44 192.009 Q1075.27 192.009 1073.67 192.981 Q1072.1 193.953 1072.1 195.898 Q1072.1 197.379 1073.23 198.235 Q1074.37 199.069 1077.79 199.833 L1079.25 200.157 Q1083.79 201.129 1085.68 202.911 Q1087.61 204.671 1087.61 207.842 Q1087.61 211.453 1084.74 213.559 Q1081.89 215.666 1076.89 215.666 Q1074.81 215.666 1072.54 215.249 Q1070.29 214.856 1067.79 214.046 L1067.79 209.647 Q1070.15 210.874 1072.44 211.499 Q1074.74 212.101 1076.98 212.101 Q1079.99 212.101 1081.61 211.083 Q1083.23 210.041 1083.23 208.166 Q1083.23 206.43 1082.05 205.504 Q1080.89 204.578 1076.93 203.722 L1075.45 203.374 Q1071.5 202.541 1069.74 200.828 Q1067.98 199.092 1067.98 196.083 Q1067.98 192.425 1070.57 190.435 Q1073.16 188.444 1077.93 188.444 Q1080.29 188.444 1082.37 188.791 Q1084.46 189.138 1086.22 189.833 Z" fill="#000000" fill-rule="evenodd" fill-opacity="1" /><path clip-path="url(#clip200)" d="M1094.39 189.069 L1098.65 189.069 L1098.65 214.995 L1094.39 214.995 L1094.39 189.069 M1094.39 178.976 L1098.65 178.976 L1098.65 184.37 L1094.39 184.37 L1094.39 178.976 Z" fill="#000000" fill-rule="evenodd" fill-opacity="1" /><path clip-path="url(#clip200)" d="M1129.11 199.347 L1129.11 214.995 L1124.85 214.995 L1124.85 199.485 Q1124.85 195.805 1123.42 193.976 Q1121.98 192.148 1119.11 192.148 Q1115.66 192.148 1113.67 194.347 Q1111.68 196.546 1111.68 200.342 L1111.68 214.995 L1107.4 214.995 L1107.4 189.069 L1111.68 189.069 L1111.68 193.097 Q1113.21 190.759 1115.27 189.601 Q1117.35 188.444 1120.06 188.444 Q1124.53 188.444 1126.82 191.222 Q1129.11 193.976 1129.11 199.347 Z" fill="#000000" fill-rule="evenodd" fill-opacity="1" /><path clip-path="url(#clip200)" d="M1147.84 179.023 Q1144.74 184.347 1143.23 189.555 Q1141.73 194.763 1141.73 200.11 Q1141.73 205.458 1143.23 210.712 Q1144.76 215.944 1147.84 221.245 L1144.13 221.245 Q1140.66 215.805 1138.93 210.55 Q1137.21 205.296 1137.21 200.11 Q1137.21 194.948 1138.93 189.717 Q1140.64 184.486 1144.13 179.023 L1147.84 179.023 Z" fill="#000000" fill-rule="evenodd" fill-opacity="1" /><path clip-path="url(#clip200)" d="M1157.51 211.059 L1165.15 211.059 L1165.15 184.694 L1156.84 186.361 L1156.84 182.101 L1165.11 180.435 L1169.78 180.435 L1169.78 211.059 L1177.42 211.059 L1177.42 214.995 L1157.51 214.995 L1157.51 211.059 Z" fill="#000000" fill-rule="evenodd" fill-opacity="1" /><path clip-path="url(#clip200)" d="M1186.91 180.435 L1205.27 180.435 L1205.27 184.37 L1191.19 184.37 L1191.19 192.842 Q1192.21 192.495 1193.23 192.333 Q1194.25 192.148 1195.27 192.148 Q1201.05 192.148 1204.43 195.319 Q1207.81 198.49 1207.81 203.907 Q1207.81 209.485 1204.34 212.587 Q1200.87 215.666 1194.55 215.666 Q1192.37 215.666 1190.11 215.296 Q1187.86 214.925 1185.45 214.184 L1185.45 209.485 Q1187.54 210.62 1189.76 211.175 Q1191.98 211.731 1194.46 211.731 Q1198.46 211.731 1200.8 209.624 Q1203.14 207.518 1203.14 203.907 Q1203.14 200.296 1200.8 198.189 Q1198.46 196.083 1194.46 196.083 Q1192.58 196.083 1190.71 196.499 Q1188.86 196.916 1186.91 197.796 L1186.91 180.435 Z" fill="#000000" fill-rule="evenodd" fill-opacity="1" /><path clip-path="url(#clip200)" d="M1237.98 189.069 L1228.6 201.685 L1238.46 214.995 L1233.44 214.995 L1225.89 204.81 L1218.35 214.995 L1213.32 214.995 L1223.39 201.43 L1214.18 189.069 L1219.2 189.069 L1226.08 198.305 L1232.95 189.069 L1237.98 189.069 Z" fill="#000000" fill-rule="evenodd" fill-opacity="1" /><path clip-path="url(#clip200)" d="M1243.81 179.023 L1247.51 179.023 Q1250.98 184.486 1252.7 189.717 Q1254.43 194.948 1254.43 200.11 Q1254.43 205.296 1252.7 210.55 Q1250.98 215.805 1247.51 221.245 L1243.81 221.245 Q1246.89 215.944 1248.39 210.712 Q1249.92 205.458 1249.92 200.11 Q1249.92 194.763 1248.39 189.555 Q1246.89 184.347 1243.81 179.023 Z" fill="#000000" fill-rule="evenodd" fill-opacity="1" /><polyline clip-path="url(#clip200)" style="stroke:#3da44d; stroke-linecap:butt; stroke-linejoin:round; stroke-width:4; stroke-opacity:1; fill:none" points="
  411.273,249.555 557.716,249.555 
  "/>
<path clip-path="url(#clip200)" d="M582.123 240.909 L586.359 240.909 L586.359 253.085 L598.373 240.909 L603.604 240.909 L593.697 250.932 L604.877 266.835 L600.109 266.835 L590.919 253.756 L586.359 258.386 L586.359 266.835 L582.123 266.835 L582.123 240.909 Z" fill="#000000" fill-rule="evenodd" fill-opacity="1" /><path clip-path="url(#clip200)" d="M621.706 269.242 Q619.9 273.872 618.187 275.284 Q616.474 276.696 613.604 276.696 L610.201 276.696 L610.201 273.131 L612.701 273.131 Q614.461 273.131 615.433 272.298 Q616.405 271.464 617.586 268.362 L618.349 266.418 L607.863 240.909 L612.377 240.909 L620.479 261.187 L628.581 240.909 L633.095 240.909 L621.706 269.242 Z" fill="#000000" fill-rule="evenodd" fill-opacity="1" /><path clip-path="url(#clip200)" d="M649.252 240.284 Q654.808 240.284 657.979 243.895 Q661.15 247.506 661.15 253.895 Q661.15 260.261 657.979 263.895 Q654.808 267.506 649.252 267.506 Q643.673 267.506 640.595 263.987 Q637.516 260.469 637.354 253.895 L637.215 248.594 Q637.099 245.839 637.099 244.89 Q637.099 241.187 638.442 238.455 Q640.548 234.173 644.183 232.321 Q647.84 230.469 653.951 230.423 Q656.775 230.4 658.025 230.006 L659.206 233.386 Q658.071 233.849 657.03 233.872 L651.243 234.265 Q648.326 234.474 646.567 235.492 Q641.96 238.201 641.521 241.742 L641.359 243.038 Q644.368 240.284 649.252 240.284 M649.252 243.895 Q645.826 243.895 643.835 246.58 Q641.845 249.242 641.845 253.895 Q641.845 258.548 643.812 261.233 Q645.803 263.895 649.252 263.895 Q652.655 263.895 654.646 261.21 Q656.636 258.524 656.636 253.895 Q656.636 249.288 654.646 246.603 Q652.655 243.895 649.252 243.895 Z" fill="#000000" fill-rule="evenodd" fill-opacity="1" /><path clip-path="url(#clip200)" d="M690.247 240.909 L690.247 266.835 L686.011 266.835 L686.011 246.025 L673.511 266.835 L668.048 266.835 L668.048 240.909 L672.284 240.909 L672.284 261.673 L684.761 240.909 L690.247 240.909 Z" fill="#000000" fill-rule="evenodd" fill-opacity="1" /><path clip-path="url(#clip200)" d="M713.997 266.835 L713.997 255.932 L706.057 255.932 Q702.516 255.932 700.155 253.733 Q698.025 251.742 698.025 247.483 L698.025 240.909 L702.284 240.909 L702.284 247.089 Q702.284 249.798 703.488 251.163 Q704.715 252.529 707.122 252.529 L713.997 252.529 L713.997 240.909 L718.256 240.909 L718.256 266.835 L713.997 266.835 Z" fill="#000000" fill-rule="evenodd" fill-opacity="1" /><path clip-path="url(#clip200)" d="M749.205 252.807 L749.205 254.89 L729.622 254.89 Q729.9 259.288 732.261 261.603 Q734.645 263.895 738.881 263.895 Q741.335 263.895 743.627 263.293 Q745.941 262.691 748.21 261.487 L748.21 265.515 Q745.918 266.487 743.511 266.997 Q741.103 267.506 738.627 267.506 Q732.423 267.506 728.789 263.895 Q725.178 260.284 725.178 254.126 Q725.178 247.761 728.604 244.034 Q732.053 240.284 737.886 240.284 Q743.117 240.284 746.15 243.663 Q749.205 247.02 749.205 252.807 M744.946 251.557 Q744.9 248.062 742.978 245.978 Q741.08 243.895 737.932 243.895 Q734.367 243.895 732.215 245.909 Q730.085 247.923 729.761 251.58 L744.946 251.557 Z" fill="#000000" fill-rule="evenodd" fill-opacity="1" /><path clip-path="url(#clip200)" d="M774.853 241.904 L774.853 245.886 Q773.048 244.89 771.219 244.404 Q769.413 243.895 767.562 243.895 Q763.418 243.895 761.126 246.534 Q758.835 249.15 758.835 253.895 Q758.835 258.64 761.126 261.279 Q763.418 263.895 767.562 263.895 Q769.413 263.895 771.219 263.409 Q773.048 262.899 774.853 261.904 L774.853 265.839 Q773.071 266.673 771.15 267.089 Q769.251 267.506 767.099 267.506 Q761.242 267.506 757.793 263.825 Q754.344 260.145 754.344 253.895 Q754.344 247.552 757.816 243.918 Q761.312 240.284 767.376 240.284 Q769.344 240.284 771.219 240.701 Q773.094 241.094 774.853 241.904 Z" fill="#000000" fill-rule="evenodd" fill-opacity="1" /><path clip-path="url(#clip200)" d="M782.099 240.909 L786.335 240.909 L786.335 253.085 L798.348 240.909 L803.58 240.909 L793.673 250.932 L804.853 266.835 L800.085 266.835 L790.895 253.756 L786.335 258.386 L786.335 266.835 L782.099 266.835 L782.099 240.909 Z" fill="#000000" fill-rule="evenodd" fill-opacity="1" /><path clip-path="url(#clip200)" d="M832.932 240.909 L832.932 266.835 L828.696 266.835 L828.696 246.025 L816.196 266.835 L810.733 266.835 L810.733 240.909 L814.969 240.909 L814.969 261.673 L827.446 240.909 L832.932 240.909 Z" fill="#000000" fill-rule="evenodd" fill-opacity="1" /><path clip-path="url(#clip200)" d="M863.742 240.909 L863.742 266.835 L859.506 266.835 L859.506 246.025 L847.006 266.835 L841.543 266.835 L841.543 240.909 L845.779 240.909 L845.779 261.673 L858.256 240.909 L863.742 240.909 M845.408 230.816 L848.14 230.816 Q848.395 232.552 849.506 233.432 Q850.64 234.289 852.654 234.289 Q854.644 234.289 855.756 233.432 Q856.867 232.576 857.168 230.816 L859.899 230.816 Q859.668 234.126 857.839 235.793 Q856.01 237.46 852.654 237.46 Q849.297 237.46 847.469 235.793 Q845.64 234.126 845.408 230.816 Z" fill="#000000" fill-rule="evenodd" fill-opacity="1" /><path clip-path="url(#clip200)" d="M906.241 241.904 L906.241 245.886 Q904.436 244.89 902.607 244.404 Q900.802 243.895 898.95 243.895 Q894.806 243.895 892.515 246.534 Q890.223 249.15 890.223 253.895 Q890.223 258.64 892.515 261.279 Q894.806 263.895 898.95 263.895 Q900.802 263.895 902.607 263.409 Q904.436 262.899 906.241 261.904 L906.241 265.839 Q904.459 266.673 902.538 267.089 Q900.64 267.506 898.487 267.506 Q892.63 267.506 889.181 263.825 Q885.732 260.145 885.732 253.895 Q885.732 247.552 889.204 243.918 Q892.7 240.284 898.765 240.284 Q900.732 240.284 902.607 240.701 Q904.482 241.094 906.241 241.904 Z" fill="#000000" fill-rule="evenodd" fill-opacity="1" /><path clip-path="url(#clip200)" d="M935.871 240.909 L935.871 266.835 L931.589 266.835 L931.589 244.312 L917.769 244.312 L917.769 266.835 L913.487 266.835 L913.487 240.909 L935.871 240.909 Z" fill="#000000" fill-rule="evenodd" fill-opacity="1" /><path clip-path="url(#clip200)" d="M941.936 266.835 L941.936 263.293 Q946.149 262.645 947.445 259.728 Q949.019 255.631 949.019 245.145 L949.019 240.909 L966.542 240.909 L966.542 266.835 L962.283 266.835 L962.283 244.312 L953.278 244.312 L953.278 246.881 Q953.278 256.881 951.241 261.372 Q949.065 266.163 941.936 266.835 Z" fill="#000000" fill-rule="evenodd" fill-opacity="1" /><path clip-path="url(#clip200)" d="M986.727 253.802 Q981.565 253.802 979.574 254.983 Q977.584 256.163 977.584 259.011 Q977.584 261.279 979.065 262.622 Q980.57 263.941 983.139 263.941 Q986.681 263.941 988.81 261.441 Q990.963 258.918 990.963 254.751 L990.963 253.802 L986.727 253.802 M995.222 252.043 L995.222 266.835 L990.963 266.835 L990.963 262.899 Q989.505 265.261 987.329 266.395 Q985.153 267.506 982.005 267.506 Q978.023 267.506 975.662 265.284 Q973.324 263.038 973.324 259.288 Q973.324 254.913 976.241 252.691 Q979.181 250.469 984.991 250.469 L990.963 250.469 L990.963 250.052 Q990.963 247.113 989.019 245.515 Q987.097 243.895 983.602 243.895 Q981.38 243.895 979.273 244.427 Q977.167 244.96 975.223 246.025 L975.223 242.089 Q977.56 241.187 979.76 240.747 Q981.959 240.284 984.042 240.284 Q989.667 240.284 992.445 243.201 Q995.222 246.117 995.222 252.043 Z" fill="#000000" fill-rule="evenodd" fill-opacity="1" /><path clip-path="url(#clip200)" d="M1026.03 240.909 L1026.03 266.835 L1021.8 266.835 L1021.8 246.025 L1009.3 266.835 L1003.83 266.835 L1003.83 240.909 L1008.07 240.909 L1008.07 261.673 L1020.55 240.909 L1026.03 240.909 M1007.7 230.816 L1010.43 230.816 Q1010.69 232.552 1011.8 233.432 Q1012.93 234.289 1014.94 234.289 Q1016.94 234.289 1018.05 233.432 Q1019.16 232.576 1019.46 230.816 L1022.19 230.816 Q1021.96 234.126 1020.13 235.793 Q1018.3 237.46 1014.94 237.46 Q1011.59 237.46 1009.76 235.793 Q1007.93 234.126 1007.7 230.816 Z" fill="#000000" fill-rule="evenodd" fill-opacity="1" /><path clip-path="url(#clip200)" d="M1034.64 240.909 L1038.93 240.909 L1038.93 251.487 L1052.75 251.487 L1052.75 240.909 L1057.03 240.909 L1057.03 266.835 L1052.75 266.835 L1052.75 254.89 L1038.93 254.89 L1038.93 266.835 L1034.64 266.835 L1034.64 240.909 Z" fill="#000000" fill-rule="evenodd" fill-opacity="1" /></svg>
