<?xml version="1.0" encoding="utf-8"?>
<svg xmlns="http://www.w3.org/2000/svg" xmlns:xlink="http://www.w3.org/1999/xlink" width="600" height="400" viewBox="0 0 2400 1600">
<defs>
  <clipPath id="clip150">
    <rect x="0" y="0" width="2400" height="1600"/>
  </clipPath>
</defs>
<path clip-path="url(#clip150)" d="
M0 1600 L2400 1600 L2400 0 L0 0  Z
  " fill="#ffffff" fill-rule="evenodd" fill-opacity="1"/>
<defs>
  <clipPath id="clip151">
    <rect x="480" y="0" width="1681" height="1600"/>
  </clipPath>
</defs>
<defs>
  <clipPath id="clip152">
    <rect x="156" y="47" width="2198" height="1405"/>
  </clipPath>
</defs>
<path clip-path="url(#clip150)" d="
M155.765 1450.96 L2352.76 1450.96 L2352.76 47.2441 L155.765 47.2441  Z
  " fill="#ffffff" fill-rule="evenodd" fill-opacity="1"/>
<defs>
  <clipPath id="clip153">
    <rect x="155" y="47" width="2198" height="1405"/>
  </clipPath>
</defs>
<polyline clip-path="url(#clip153)" style="stroke:#000000; stroke-linecap:butt; stroke-linejoin:round; stroke-width:2; stroke-opacity:0.1; fill:none" points="
  217.944,1450.96 217.944,47.2441 
  "/>
<polyline clip-path="url(#clip153)" style="stroke:#000000; stroke-linecap:butt; stroke-linejoin:round; stroke-width:2; stroke-opacity:0.1; fill:none" points="
  908.822,1450.96 908.822,47.2441 
  "/>
<polyline clip-path="url(#clip153)" style="stroke:#000000; stroke-linecap:butt; stroke-linejoin:round; stroke-width:2; stroke-opacity:0.1; fill:none" points="
  1599.7,1450.96 1599.7,47.2441 
  "/>
<polyline clip-path="url(#clip153)" style="stroke:#000000; stroke-linecap:butt; stroke-linejoin:round; stroke-width:2; stroke-opacity:0.1; fill:none" points="
  2290.58,1450.96 2290.58,47.2441 
  "/>
<polyline clip-path="url(#clip150)" style="stroke:#000000; stroke-linecap:butt; stroke-linejoin:round; stroke-width:4; stroke-opacity:1; fill:none" points="
  155.765,1450.96 2352.76,1450.96 
  "/>
<polyline clip-path="url(#clip150)" style="stroke:#000000; stroke-linecap:butt; stroke-linejoin:round; stroke-width:4; stroke-opacity:1; fill:none" points="
  217.944,1450.96 217.944,1432.06 
  "/>
<polyline clip-path="url(#clip150)" style="stroke:#000000; stroke-linecap:butt; stroke-linejoin:round; stroke-width:4; stroke-opacity:1; fill:none" points="
  908.822,1450.96 908.822,1432.06 
  "/>
<polyline clip-path="url(#clip150)" style="stroke:#000000; stroke-linecap:butt; stroke-linejoin:round; stroke-width:4; stroke-opacity:1; fill:none" points="
  1599.7,1450.96 1599.7,1432.06 
  "/>
<polyline clip-path="url(#clip150)" style="stroke:#000000; stroke-linecap:butt; stroke-linejoin:round; stroke-width:4; stroke-opacity:1; fill:none" points="
  2290.58,1450.96 2290.58,1432.06 
  "/>
<path clip-path="url(#clip150)" d="M187.701 1494.8 L217.377 1494.8 L217.377 1498.74 L187.701 1498.74 L187.701 1494.8 Z" fill="#000000" fill-rule="evenodd" fill-opacity="1" /><path clip-path="url(#clip150)" d="M228.279 1507.7 L235.918 1507.7 L235.918 1481.33 L227.608 1483 L227.608 1478.74 L235.872 1477.07 L240.548 1477.07 L240.548 1507.7 L248.187 1507.7 L248.187 1511.63 L228.279 1511.63 L228.279 1507.7 Z" fill="#000000" fill-rule="evenodd" fill-opacity="1" /><path clip-path="url(#clip150)" d="M908.822 1480.15 Q905.21 1480.15 903.382 1483.72 Q901.576 1487.26 901.576 1494.39 Q901.576 1501.49 903.382 1505.06 Q905.21 1508.6 908.822 1508.6 Q912.456 1508.6 914.261 1505.06 Q916.09 1501.49 916.09 1494.39 Q916.09 1487.26 914.261 1483.72 Q912.456 1480.15 908.822 1480.15 M908.822 1476.45 Q914.632 1476.45 917.687 1481.05 Q920.766 1485.64 920.766 1494.39 Q920.766 1503.11 917.687 1507.72 Q914.632 1512.3 908.822 1512.3 Q903.011 1512.3 899.933 1507.72 Q896.877 1503.11 896.877 1494.39 Q896.877 1485.64 899.933 1481.05 Q903.011 1476.45 908.822 1476.45 Z" fill="#000000" fill-rule="evenodd" fill-opacity="1" /><path clip-path="url(#clip150)" d="M1590.08 1507.7 L1597.72 1507.7 L1597.72 1481.33 L1589.41 1483 L1589.41 1478.74 L1597.67 1477.07 L1602.35 1477.07 L1602.35 1507.7 L1609.99 1507.7 L1609.99 1511.63 L1590.08 1511.63 L1590.08 1507.7 Z" fill="#000000" fill-rule="evenodd" fill-opacity="1" /><path clip-path="url(#clip150)" d="M2285.23 1507.7 L2301.55 1507.7 L2301.55 1511.63 L2279.6 1511.63 L2279.6 1507.7 Q2282.27 1504.94 2286.85 1500.31 Q2291.46 1495.66 2292.64 1494.32 Q2294.88 1491.79 2295.76 1490.06 Q2296.66 1488.3 2296.66 1486.61 Q2296.66 1483.85 2294.72 1482.12 Q2292.8 1480.38 2289.7 1480.38 Q2287.5 1480.38 2285.04 1481.15 Q2282.61 1481.91 2279.84 1483.46 L2279.84 1478.74 Q2282.66 1477.6 2285.11 1477.03 Q2287.57 1476.45 2289.6 1476.45 Q2294.98 1476.45 2298.17 1479.13 Q2301.36 1481.82 2301.36 1486.31 Q2301.36 1488.44 2300.55 1490.36 Q2299.77 1492.26 2297.66 1494.85 Q2297.08 1495.52 2293.98 1498.74 Q2290.88 1501.93 2285.23 1507.7 Z" fill="#000000" fill-rule="evenodd" fill-opacity="1" /><path clip-path="url(#clip150)" d="M1268.43 1539.92 Q1268.43 1541.72 1267.31 1542.75 Q1266.18 1543.75 1264.89 1543.75 Q1263.67 1543.75 1263.02 1543.04 Q1262.38 1542.33 1262.38 1541.43 Q1262.38 1540.21 1263.28 1539.14 Q1264.18 1538.08 1265.54 1537.85 Q1264.21 1537.02 1262.25 1537.02 Q1260.96 1537.02 1259.83 1537.69 Q1258.74 1538.37 1258.06 1539.24 Q1257.42 1540.11 1256.84 1541.37 Q1256.29 1542.59 1256.07 1543.33 Q1255.87 1544.04 1255.71 1544.81 L1253.46 1553.83 Q1252.36 1558.11 1252.36 1559.63 Q1252.36 1561.49 1253.26 1562.75 Q1254.17 1563.97 1255.97 1563.97 Q1256.68 1563.97 1257.48 1563.78 Q1258.29 1563.55 1259.32 1562.98 Q1260.38 1562.36 1261.32 1561.46 Q1262.28 1560.53 1263.22 1558.95 Q1264.15 1557.37 1264.76 1555.34 Q1264.96 1554.63 1265.6 1554.63 Q1266.4 1554.63 1266.4 1555.28 Q1266.4 1555.83 1265.95 1556.98 Q1265.54 1558.11 1264.6 1559.59 Q1263.7 1561.04 1262.51 1562.36 Q1261.32 1563.65 1259.54 1564.55 Q1257.77 1565.46 1255.84 1565.46 Q1253.07 1565.46 1251.24 1563.97 Q1249.4 1562.49 1248.72 1560.43 Q1248.56 1560.72 1248.34 1561.11 Q1248.11 1561.49 1247.44 1562.36 Q1246.79 1563.2 1246.05 1563.84 Q1245.31 1564.46 1244.15 1564.94 Q1243.02 1565.46 1241.8 1565.46 Q1240.25 1565.46 1238.87 1565 Q1237.52 1564.55 1236.55 1563.52 Q1235.58 1562.49 1235.58 1561.08 Q1235.58 1559.5 1236.65 1558.4 Q1237.74 1557.27 1239.22 1557.27 Q1240.16 1557.27 1240.9 1557.82 Q1241.67 1558.37 1241.67 1559.56 Q1241.67 1560.88 1240.77 1561.88 Q1239.87 1562.88 1238.58 1563.14 Q1239.9 1563.97 1241.86 1563.97 Q1243.99 1563.97 1245.66 1562.11 Q1247.34 1560.24 1248.14 1557.11 Q1250.14 1549.61 1250.91 1546.26 Q1251.69 1542.88 1251.69 1541.43 Q1251.69 1540.08 1251.33 1539.14 Q1250.98 1538.21 1250.37 1537.79 Q1249.79 1537.34 1249.24 1537.18 Q1248.72 1537.02 1248.14 1537.02 Q1247.18 1537.02 1246.08 1537.4 Q1245.02 1537.79 1243.73 1538.69 Q1242.48 1539.56 1241.28 1541.37 Q1240.09 1543.17 1239.29 1545.65 Q1239.13 1546.39 1238.42 1546.39 Q1237.65 1546.36 1237.65 1545.71 Q1237.65 1545.17 1238.06 1544.04 Q1238.51 1542.88 1239.42 1541.43 Q1240.35 1539.98 1241.54 1538.69 Q1242.77 1537.37 1244.54 1536.47 Q1246.34 1535.57 1248.27 1535.57 Q1249.14 1535.57 1249.98 1535.76 Q1250.85 1535.92 1251.88 1536.41 Q1252.94 1536.89 1253.88 1537.95 Q1254.81 1539.01 1255.39 1540.56 Q1255.78 1539.82 1256.29 1539.11 Q1256.84 1538.4 1257.68 1537.53 Q1258.55 1536.63 1259.74 1536.12 Q1260.96 1535.57 1262.31 1535.57 Q1263.64 1535.57 1264.92 1535.92 Q1266.21 1536.24 1267.31 1537.31 Q1268.43 1538.34 1268.43 1539.92 Z" fill="#000000" fill-rule="evenodd" fill-opacity="1" /><polyline clip-path="url(#clip153)" style="stroke:#000000; stroke-linecap:butt; stroke-linejoin:round; stroke-width:2; stroke-opacity:0.1; fill:none" points="
  155.765,1318.93 2352.76,1318.93 
  "/>
<polyline clip-path="url(#clip153)" style="stroke:#000000; stroke-linecap:butt; stroke-linejoin:round; stroke-width:2; stroke-opacity:0.1; fill:none" points="
  155.765,1040.74 2352.76,1040.74 
  "/>
<polyline clip-path="url(#clip153)" style="stroke:#000000; stroke-linecap:butt; stroke-linejoin:round; stroke-width:2; stroke-opacity:0.1; fill:none" points="
  155.765,762.553 2352.76,762.553 
  "/>
<polyline clip-path="url(#clip153)" style="stroke:#000000; stroke-linecap:butt; stroke-linejoin:round; stroke-width:2; stroke-opacity:0.1; fill:none" points="
  155.765,484.363 2352.76,484.363 
  "/>
<polyline clip-path="url(#clip153)" style="stroke:#000000; stroke-linecap:butt; stroke-linejoin:round; stroke-width:2; stroke-opacity:0.1; fill:none" points="
  155.765,206.173 2352.76,206.173 
  "/>
<polyline clip-path="url(#clip150)" style="stroke:#000000; stroke-linecap:butt; stroke-linejoin:round; stroke-width:4; stroke-opacity:1; fill:none" points="
  155.765,1450.96 155.765,47.2441 
  "/>
<polyline clip-path="url(#clip150)" style="stroke:#000000; stroke-linecap:butt; stroke-linejoin:round; stroke-width:4; stroke-opacity:1; fill:none" points="
  155.765,1318.93 174.663,1318.93 
  "/>
<polyline clip-path="url(#clip150)" style="stroke:#000000; stroke-linecap:butt; stroke-linejoin:round; stroke-width:4; stroke-opacity:1; fill:none" points="
  155.765,1040.74 174.663,1040.74 
  "/>
<polyline clip-path="url(#clip150)" style="stroke:#000000; stroke-linecap:butt; stroke-linejoin:round; stroke-width:4; stroke-opacity:1; fill:none" points="
  155.765,762.553 174.663,762.553 
  "/>
<polyline clip-path="url(#clip150)" style="stroke:#000000; stroke-linecap:butt; stroke-linejoin:round; stroke-width:4; stroke-opacity:1; fill:none" points="
  155.765,484.363 174.663,484.363 
  "/>
<polyline clip-path="url(#clip150)" style="stroke:#000000; stroke-linecap:butt; stroke-linejoin:round; stroke-width:4; stroke-opacity:1; fill:none" points="
  155.765,206.173 174.663,206.173 
  "/>
<path clip-path="url(#clip150)" d="M63.5847 1304.73 Q59.9736 1304.73 58.1449 1308.3 Q56.3393 1311.84 56.3393 1318.97 Q56.3393 1326.07 58.1449 1329.64 Q59.9736 1333.18 63.5847 1333.18 Q67.2189 1333.18 69.0244 1329.64 Q70.8531 1326.07 70.8531 1318.97 Q70.8531 1311.84 69.0244 1308.3 Q67.2189 1304.73 63.5847 1304.73 M63.5847 1301.03 Q69.3948 1301.03 72.4503 1305.63 Q75.529 1310.22 75.529 1318.97 Q75.529 1327.69 72.4503 1332.3 Q69.3948 1336.88 63.5847 1336.88 Q57.7745 1336.88 54.6958 1332.3 Q51.6403 1327.69 51.6403 1318.97 Q51.6403 1310.22 54.6958 1305.63 Q57.7745 1301.03 63.5847 1301.03 Z" fill="#000000" fill-rule="evenodd" fill-opacity="1" /><path clip-path="url(#clip150)" d="M83.7466 1330.33 L88.6308 1330.33 L88.6308 1336.21 L83.7466 1336.21 L83.7466 1330.33 Z" fill="#000000" fill-rule="evenodd" fill-opacity="1" /><path clip-path="url(#clip150)" d="M98.8622 1301.65 L117.219 1301.65 L117.219 1305.59 L103.145 1305.59 L103.145 1314.06 Q104.163 1313.71 105.182 1313.55 Q106.2 1313.37 107.219 1313.37 Q113.006 1313.37 116.385 1316.54 Q119.765 1319.71 119.765 1325.13 Q119.765 1330.7 116.293 1333.81 Q112.82 1336.88 106.501 1336.88 Q104.325 1336.88 102.057 1336.51 Q99.8113 1336.14 97.4039 1335.4 L97.4039 1330.7 Q99.4872 1331.84 101.709 1332.39 Q103.932 1332.95 106.408 1332.95 Q110.413 1332.95 112.751 1330.84 Q115.089 1328.74 115.089 1325.13 Q115.089 1321.51 112.751 1319.41 Q110.413 1317.3 106.408 1317.3 Q104.534 1317.3 102.659 1317.72 Q100.807 1318.13 98.8622 1319.01 L98.8622 1301.65 Z" fill="#000000" fill-rule="evenodd" fill-opacity="1" /><path clip-path="url(#clip150)" d="M53.3995 1054.09 L61.0384 1054.09 L61.0384 1027.72 L52.7282 1029.39 L52.7282 1025.13 L60.9921 1023.46 L65.668 1023.46 L65.668 1054.09 L73.3068 1054.09 L73.3068 1058.02 L53.3995 1058.02 L53.3995 1054.09 Z" fill="#000000" fill-rule="evenodd" fill-opacity="1" /><path clip-path="url(#clip150)" d="M82.7512 1052.14 L87.6354 1052.14 L87.6354 1058.02 L82.7512 1058.02 L82.7512 1052.14 Z" fill="#000000" fill-rule="evenodd" fill-opacity="1" /><path clip-path="url(#clip150)" d="M107.821 1026.54 Q104.209 1026.54 102.381 1030.11 Q100.575 1033.65 100.575 1040.78 Q100.575 1047.88 102.381 1051.45 Q104.209 1054.99 107.821 1054.99 Q111.455 1054.99 113.26 1051.45 Q115.089 1047.88 115.089 1040.78 Q115.089 1033.65 113.26 1030.11 Q111.455 1026.54 107.821 1026.54 M107.821 1022.84 Q113.631 1022.84 116.686 1027.44 Q119.765 1032.03 119.765 1040.78 Q119.765 1049.5 116.686 1054.11 Q113.631 1058.69 107.821 1058.69 Q102.01 1058.69 98.9317 1054.11 Q95.8761 1049.5 95.8761 1040.78 Q95.8761 1032.03 98.9317 1027.44 Q102.01 1022.84 107.821 1022.84 Z" fill="#000000" fill-rule="evenodd" fill-opacity="1" /><path clip-path="url(#clip150)" d="M54.3949 775.898 L62.0337 775.898 L62.0337 749.532 L53.7236 751.199 L53.7236 746.94 L61.9874 745.273 L66.6633 745.273 L66.6633 775.898 L74.3022 775.898 L74.3022 779.833 L54.3949 779.833 L54.3949 775.898 Z" fill="#000000" fill-rule="evenodd" fill-opacity="1" /><path clip-path="url(#clip150)" d="M83.7466 773.953 L88.6308 773.953 L88.6308 779.833 L83.7466 779.833 L83.7466 773.953 Z" fill="#000000" fill-rule="evenodd" fill-opacity="1" /><path clip-path="url(#clip150)" d="M98.8622 745.273 L117.219 745.273 L117.219 749.208 L103.145 749.208 L103.145 757.68 Q104.163 757.333 105.182 757.171 Q106.2 756.986 107.219 756.986 Q113.006 756.986 116.385 760.157 Q119.765 763.329 119.765 768.745 Q119.765 774.324 116.293 777.426 Q112.82 780.504 106.501 780.504 Q104.325 780.504 102.057 780.134 Q99.8113 779.764 97.4039 779.023 L97.4039 774.324 Q99.4872 775.458 101.709 776.014 Q103.932 776.569 106.408 776.569 Q110.413 776.569 112.751 774.463 Q115.089 772.356 115.089 768.745 Q115.089 765.134 112.751 763.028 Q110.413 760.921 106.408 760.921 Q104.534 760.921 102.659 761.338 Q100.807 761.754 98.8622 762.634 L98.8622 745.273 Z" fill="#000000" fill-rule="evenodd" fill-opacity="1" /><path clip-path="url(#clip150)" d="M56.6171 497.708 L72.9365 497.708 L72.9365 501.643 L50.9921 501.643 L50.9921 497.708 Q53.6541 494.953 58.2375 490.324 Q62.8439 485.671 64.0245 484.328 Q66.2698 481.805 67.1494 480.069 Q68.0522 478.31 68.0522 476.62 Q68.0522 473.865 66.1078 472.129 Q64.1865 470.393 61.0847 470.393 Q58.8856 470.393 56.4319 471.157 Q54.0014 471.921 51.2236 473.472 L51.2236 468.75 Q54.0477 467.615 56.5014 467.037 Q58.955 466.458 60.9921 466.458 Q66.3624 466.458 69.5568 469.143 Q72.7513 471.828 72.7513 476.319 Q72.7513 478.449 71.9411 480.37 Q71.1541 482.268 69.0476 484.861 Q68.4689 485.532 65.367 488.749 Q62.2652 491.944 56.6171 497.708 Z" fill="#000000" fill-rule="evenodd" fill-opacity="1" /><path clip-path="url(#clip150)" d="M82.7512 495.763 L87.6354 495.763 L87.6354 501.643 L82.7512 501.643 L82.7512 495.763 Z" fill="#000000" fill-rule="evenodd" fill-opacity="1" /><path clip-path="url(#clip150)" d="M107.821 470.162 Q104.209 470.162 102.381 473.726 Q100.575 477.268 100.575 484.398 Q100.575 491.504 102.381 495.069 Q104.209 498.611 107.821 498.611 Q111.455 498.611 113.26 495.069 Q115.089 491.504 115.089 484.398 Q115.089 477.268 113.26 473.726 Q111.455 470.162 107.821 470.162 M107.821 466.458 Q113.631 466.458 116.686 471.064 Q119.765 475.648 119.765 484.398 Q119.765 493.124 116.686 497.731 Q113.631 502.314 107.821 502.314 Q102.01 502.314 98.9317 497.731 Q95.8761 493.124 95.8761 484.398 Q95.8761 475.648 98.9317 471.064 Q102.01 466.458 107.821 466.458 Z" fill="#000000" fill-rule="evenodd" fill-opacity="1" /><path clip-path="url(#clip150)" d="M57.6125 219.518 L73.9318 219.518 L73.9318 223.453 L51.9875 223.453 L51.9875 219.518 Q54.6495 216.763 59.2328 212.133 Q63.8393 207.481 65.0198 206.138 Q67.2652 203.615 68.1448 201.879 Q69.0476 200.12 69.0476 198.43 Q69.0476 195.675 67.1032 193.939 Q65.1819 192.203 62.08 192.203 Q59.881 192.203 57.4273 192.967 Q54.9967 193.731 52.219 195.282 L52.219 190.559 Q55.043 189.425 57.4967 188.846 Q59.9504 188.268 61.9874 188.268 Q67.3578 188.268 70.5522 190.953 Q73.7466 193.638 73.7466 198.129 Q73.7466 200.258 72.9365 202.18 Q72.1494 204.078 70.0429 206.67 Q69.4642 207.342 66.3624 210.559 Q63.2606 213.754 57.6125 219.518 Z" fill="#000000" fill-rule="evenodd" fill-opacity="1" /><path clip-path="url(#clip150)" d="M83.7466 217.573 L88.6308 217.573 L88.6308 223.453 L83.7466 223.453 L83.7466 217.573 Z" fill="#000000" fill-rule="evenodd" fill-opacity="1" /><path clip-path="url(#clip150)" d="M98.8622 188.893 L117.219 188.893 L117.219 192.828 L103.145 192.828 L103.145 201.3 Q104.163 200.953 105.182 200.791 Q106.2 200.606 107.219 200.606 Q113.006 200.606 116.385 203.777 Q119.765 206.948 119.765 212.365 Q119.765 217.944 116.293 221.045 Q112.82 224.124 106.501 224.124 Q104.325 224.124 102.057 223.754 Q99.8113 223.383 97.4039 222.643 L97.4039 217.944 Q99.4872 219.078 101.709 219.633 Q103.932 220.189 106.408 220.189 Q110.413 220.189 112.751 218.082 Q115.089 215.976 115.089 212.365 Q115.089 208.754 112.751 206.647 Q110.413 204.541 106.408 204.541 Q104.534 204.541 102.659 204.957 Q100.807 205.374 98.8622 206.254 L98.8622 188.893 Z" fill="#000000" fill-rule="evenodd" fill-opacity="1" /><circle clip-path="url(#clip153)" cx="217.944" cy="1391.1" r="14" fill="#009af9" fill-rule="evenodd" fill-opacity="1" stroke="#000000" stroke-opacity="1" stroke-width="3.2"/>
<circle clip-path="url(#clip153)" cx="365.989" cy="1372.87" r="14" fill="#009af9" fill-rule="evenodd" fill-opacity="1" stroke="#000000" stroke-opacity="1" stroke-width="3.2"/>
<circle clip-path="url(#clip153)" cx="514.034" cy="1394.09" r="14" fill="#009af9" fill-rule="evenodd" fill-opacity="1" stroke="#000000" stroke-opacity="1" stroke-width="3.2"/>
<circle clip-path="url(#clip153)" cx="662.08" cy="1285.9" r="14" fill="#009af9" fill-rule="evenodd" fill-opacity="1" stroke="#000000" stroke-opacity="1" stroke-width="3.2"/>
<circle clip-path="url(#clip153)" cx="810.125" cy="1200.78" r="14" fill="#009af9" fill-rule="evenodd" fill-opacity="1" stroke="#000000" stroke-opacity="1" stroke-width="3.2"/>
<circle clip-path="url(#clip153)" cx="958.17" cy="931.192" r="14" fill="#009af9" fill-rule="evenodd" fill-opacity="1" stroke="#000000" stroke-opacity="1" stroke-width="3.2"/>
<circle clip-path="url(#clip153)" cx="1106.22" cy="666.899" r="14" fill="#009af9" fill-rule="evenodd" fill-opacity="1" stroke="#000000" stroke-opacity="1" stroke-width="3.2"/>
<circle clip-path="url(#clip153)" cx="1254.26" cy="280.351" r="14" fill="#009af9" fill-rule="evenodd" fill-opacity="1" stroke="#000000" stroke-opacity="1" stroke-width="3.2"/>
<circle clip-path="url(#clip153)" cx="1402.31" cy="126.644" r="14" fill="#009af9" fill-rule="evenodd" fill-opacity="1" stroke="#000000" stroke-opacity="1" stroke-width="3.2"/>
<circle clip-path="url(#clip153)" cx="1550.35" cy="117.854" r="14" fill="#009af9" fill-rule="evenodd" fill-opacity="1" stroke="#000000" stroke-opacity="1" stroke-width="3.2"/>
<circle clip-path="url(#clip153)" cx="1698.4" cy="440.751" r="14" fill="#009af9" fill-rule="evenodd" fill-opacity="1" stroke="#000000" stroke-opacity="1" stroke-width="3.2"/>
<circle clip-path="url(#clip153)" cx="1846.44" cy="727.281" r="14" fill="#009af9" fill-rule="evenodd" fill-opacity="1" stroke="#000000" stroke-opacity="1" stroke-width="3.2"/>
<circle clip-path="url(#clip153)" cx="1994.49" cy="1069.26" r="14" fill="#009af9" fill-rule="evenodd" fill-opacity="1" stroke="#000000" stroke-opacity="1" stroke-width="3.2"/>
<circle clip-path="url(#clip153)" cx="2142.53" cy="1202.63" r="14" fill="#009af9" fill-rule="evenodd" fill-opacity="1" stroke="#000000" stroke-opacity="1" stroke-width="3.2"/>
<circle clip-path="url(#clip153)" cx="2290.58" cy="1363.58" r="14" fill="#009af9" fill-rule="evenodd" fill-opacity="1" stroke="#000000" stroke-opacity="1" stroke-width="3.2"/>
<polyline clip-path="url(#clip153)" style="stroke:#e26f46; stroke-linecap:butt; stroke-linejoin:round; stroke-width:4; stroke-opacity:1; fill:none" points="
  217.944,1391.1 228.359,1398.08 238.774,1403.71 249.19,1407.82 259.605,1410.34 270.02,1411.23 280.435,1410.56 290.851,1408.45 301.266,1405.07 311.681,1400.68 
  322.096,1395.54 332.512,1389.97 342.927,1384.29 353.342,1378.82 363.757,1373.84 374.173,1369.63 384.588,1366.38 395.003,1364.27 405.418,1363.36 415.833,1363.68 
  426.249,1365.17 436.664,1367.69 447.079,1371.07 457.494,1375.04 467.91,1379.34 478.325,1383.64 488.74,1387.63 499.155,1390.98 509.571,1393.4 519.986,1394.63 
  530.401,1394.46 540.816,1392.74 551.232,1389.38 561.647,1384.37 572.062,1377.76 582.477,1369.7 592.893,1360.35 603.308,1349.96 613.723,1338.82 624.138,1327.22 
  634.554,1315.47 644.969,1303.88 655.384,1292.73 665.799,1282.26 676.215,1272.66 686.63,1264.06 697.045,1256.53 707.46,1250.05 717.875,1244.54 728.291,1239.85 
  738.706,1235.77 749.121,1232.04 759.536,1228.36 769.952,1224.41 780.367,1219.86 790.782,1214.38 801.197,1207.69 811.613,1199.52 822.028,1189.68 832.443,1178.02 
  842.858,1164.48 853.274,1149.05 863.689,1131.81 874.104,1112.9 884.519,1092.52 894.935,1070.92 905.35,1048.4 915.765,1025.27 926.18,1001.84 936.596,978.437 
  947.011,955.332 957.426,932.777 967.841,910.965 978.257,890.031 988.672,870.041 999.087,850.991 1009.5,832.811 1019.92,815.363 1030.33,798.454 1040.75,781.845 
  1051.16,765.266 1061.58,748.428 1071.99,731.042 1082.41,712.833 1092.82,693.559 1103.24,673.021 1113.65,651.077 1124.07,627.653 1134.49,602.744 1144.9,576.423 
  1155.32,548.834 1165.73,520.188 1176.15,490.76 1186.56,460.869 1196.98,430.872 1207.39,401.143 1217.81,372.063 1228.22,343.995 1238.64,317.276 1249.05,292.198 
  1259.47,268.999 1269.88,247.851 1280.3,228.856 1290.71,212.043 1301.13,197.368 1311.54,184.723 1321.96,173.938 1332.37,164.797 1342.79,157.049 1353.21,150.424 
  1363.62,144.649 1374.04,139.462 1384.45,134.63 1394.87,129.96 1405.28,125.313 1415.7,120.608 1426.11,115.832 1436.53,111.039 1446.94,106.346 1457.36,101.934 
  1467.77,98.0296 1478.19,94.9025 1488.6,92.8457 1499.02,92.1624 1509.43,93.1492 1519.85,96.0808 1530.26,101.194 1540.68,108.676 1551.09,118.65 1561.51,131.173 
  1571.93,146.224 1582.34,163.709 1592.76,183.461 1603.17,205.247 1613.59,228.775 1624,253.711 1634.42,279.689 1644.83,306.332 1655.25,333.261 1665.66,360.118 
  1676.08,386.581 1686.49,412.372 1696.91,437.275 1707.32,461.141 1717.74,483.892 1728.15,505.523 1738.57,526.101 1748.98,545.757 1759.4,564.677 1769.81,583.091 
  1780.23,601.257 1790.65,619.447 1801.06,637.931 1811.48,656.959 1821.89,676.749 1832.31,697.472 1842.72,719.241 1853.14,742.107 1863.55,766.049 1873.97,790.979 
  1884.38,816.742 1894.8,843.123 1905.21,869.859 1915.63,896.646 1926.04,923.162 1936.46,949.072 1946.87,974.056 1957.29,997.813 1967.7,1020.09 1978.12,1040.67 
  1988.53,1059.41 1998.95,1076.24 2009.37,1091.16 2019.78,1104.23 2030.2,1115.61 2040.61,1125.48 2051.03,1134.1 2061.44,1141.78 2071.86,1148.82 2082.27,1155.55 
  2092.69,1162.3 2103.1,1169.35 2113.52,1176.96 2123.93,1185.34 2134.35,1194.64 2144.76,1204.92 2155.18,1216.19 2165.59,1228.39 2176.01,1241.38 2186.42,1254.96 
  2196.84,1268.9 2207.25,1282.9 2217.67,1296.67 2228.09,1309.9 2238.5,1322.28 2248.92,1333.54 2259.33,1343.45 2269.75,1351.83 2280.16,1358.55 2290.58,1363.58 
  
  "/>
<polyline clip-path="url(#clip153)" style="stroke:#3da44d; stroke-linecap:butt; stroke-linejoin:round; stroke-width:4; stroke-opacity:1; fill:none" points="
  217.944,1391.1 228.359,1382.41 238.774,1375.25 249.19,1369.52 259.605,1365.13 270.02,1361.96 280.435,1359.92 290.851,1358.92 301.266,1358.83 311.681,1359.58 
  322.096,1361.04 332.512,1363.13 342.927,1365.74 353.342,1368.77 363.757,1372.12 374.173,1375.68 384.588,1379.36 395.003,1383.05 405.418,1386.66 415.833,1390.08 
  426.249,1393.21 436.664,1395.95 447.079,1398.2 457.494,1399.85 467.91,1400.81 478.325,1400.97 488.74,1400.23 499.155,1398.5 509.571,1395.67 519.986,1391.64 
  530.401,1386.46 540.816,1380.27 551.232,1373.24 561.647,1365.51 572.062,1357.24 582.477,1348.58 592.893,1339.68 603.308,1330.71 613.723,1321.81 624.138,1313.13 
  634.554,1304.84 644.969,1297.08 655.384,1290.01 665.799,1283.78 676.215,1278.41 686.63,1273.71 697.045,1269.49 707.46,1265.56 717.875,1261.72 728.291,1257.77 
  738.706,1253.53 749.121,1248.79 759.536,1243.35 769.952,1237.03 780.367,1229.63 790.782,1220.95 801.197,1210.8 811.613,1198.99 822.028,1185.4 832.443,1170.21 
  842.858,1153.59 853.274,1135.75 863.689,1116.88 874.104,1097.16 884.519,1076.81 894.935,1056 905.35,1034.94 915.765,1013.81 926.18,992.815 936.596,972.143 
  947.011,951.99 957.426,932.549 967.841,913.963 978.257,896.126 988.672,878.855 999.087,861.967 1009.5,845.279 1019.92,828.606 1030.33,811.766 1040.75,794.576 
  1051.16,776.852 1061.58,758.41 1071.99,739.068 1082.41,718.641 1092.82,696.948 1103.24,673.804 1113.65,649.054 1124.07,622.814 1134.49,595.356 1144.9,566.953 
  1155.32,537.878 1165.73,508.404 1176.15,478.804 1186.56,449.351 1196.98,420.318 1207.39,391.978 1217.81,364.605 1228.22,338.471 1238.64,313.85 1249.05,291.014 
  1259.47,270.228 1269.88,251.544 1280.3,234.804 1290.71,219.842 1301.13,206.49 1311.54,194.582 1321.96,183.949 1332.37,174.426 1342.79,165.846 1353.21,158.04 
  1363.62,150.842 1374.04,144.085 1384.45,137.602 1394.87,131.226 1405.28,124.791 1415.7,118.26 1426.11,111.821 1436.53,105.686 1446.94,100.067 1457.36,95.1742 
  1467.77,91.2198 1478.19,88.4152 1488.6,86.9719 1499.02,87.1014 1509.43,89.0152 1519.85,92.9248 1530.26,99.0416 1540.68,107.577 1551.09,118.743 1561.51,132.648 
  1571.93,149.07 1582.34,167.721 1592.76,188.312 1603.17,210.554 1613.59,234.159 1624,258.837 1634.42,284.301 1644.83,310.261 1655.25,336.428 1665.66,362.514 
  1676.08,388.231 1686.49,413.289 1696.91,437.401 1707.32,460.324 1717.74,482.121 1728.15,502.964 1738.57,523.029 1748.98,542.489 1759.4,561.519 1769.81,580.293 
  1780.23,598.986 1790.65,617.772 1801.06,636.826 1811.48,656.322 1821.89,676.434 1832.31,697.336 1842.72,719.204 1853.14,742.194 1863.55,766.244 1873.97,791.138 
  1884.38,816.661 1894.8,842.595 1905.21,868.723 1915.63,894.828 1926.04,920.693 1936.46,946.101 1946.87,970.834 1957.29,994.677 1967.7,1017.41 1978.12,1038.82 
  1988.53,1058.69 1998.95,1076.8 2009.37,1093.1 2019.78,1107.72 2030.2,1120.8 2040.61,1132.49 2051.03,1142.92 2061.44,1152.24 2071.86,1160.59 2082.27,1168.12 
  2092.69,1174.95 2103.1,1181.25 2113.52,1187.14 2123.93,1192.77 2134.35,1198.29 2144.76,1203.83 2155.18,1209.53 2165.59,1215.55 2176.01,1222.02 2186.42,1229.08 
  2196.84,1236.87 2207.25,1245.55 2217.67,1255.24 2228.09,1266.1 2238.5,1278.25 2248.92,1291.86 2259.33,1307.05 2269.75,1323.97 2280.16,1342.77 2290.58,1363.58 
  
  "/>
<path clip-path="url(#clip150)" d="
M228.998 301.395 L1145.42 301.395 L1145.42 94.0346 L228.998 94.0346  Z
  " fill="#ffffff" fill-rule="evenodd" fill-opacity="1"/>
<polyline clip-path="url(#clip150)" style="stroke:#000000; stroke-linecap:butt; stroke-linejoin:round; stroke-width:4; stroke-opacity:1; fill:none" points="
  228.998,301.395 1145.42,301.395 1145.42,94.0346 228.998,94.0346 228.998,301.395 
  "/>
<circle clip-path="url(#clip150)" cx="326.642" cy="145.875" r="23" fill="#009af9" fill-rule="evenodd" fill-opacity="1" stroke="#000000" stroke-opacity="1" stroke-width="5.12"/>
<path clip-path="url(#clip150)" d="M438.129 165.562 Q436.323 170.192 434.61 171.604 Q432.897 173.016 430.027 173.016 L426.624 173.016 L426.624 169.451 L429.124 169.451 Q430.883 169.451 431.855 168.618 Q432.828 167.784 434.008 164.682 L434.772 162.738 L424.286 137.229 L428.8 137.229 L436.902 157.507 L445.004 137.229 L449.517 137.229 L438.129 165.562 Z" fill="#000000" fill-rule="evenodd" fill-opacity="1" /><path clip-path="url(#clip150)" d="M467.272 149.173 Q470.142 149.729 471.739 151.419 Q473.337 153.108 473.337 155.608 Q473.337 159.613 470.351 161.719 Q467.365 163.826 461.855 163.826 Q460.003 163.826 458.036 163.502 Q456.091 163.178 454.008 162.53 L454.008 158.571 Q455.652 159.428 457.619 159.868 Q459.587 160.284 461.74 160.284 Q465.235 160.284 467.179 158.988 Q469.147 157.692 469.147 155.608 Q469.147 153.571 467.411 152.345 Q465.675 151.095 462.503 151.095 L459.078 151.095 L459.078 147.576 L462.665 147.576 Q465.351 147.576 466.902 146.558 Q468.476 145.516 468.476 143.895 Q468.476 142.414 466.855 141.349 Q465.258 140.284 462.503 140.284 Q460.86 140.284 458.985 140.585 Q457.133 140.886 454.888 141.558 L454.888 137.692 Q457.156 137.136 459.124 136.858 Q461.091 136.581 462.851 136.581 Q467.388 136.581 470.003 138.409 Q472.642 140.215 472.642 143.479 Q472.642 145.632 471.253 147.136 Q469.864 148.618 467.272 149.173 Z" fill="#000000" fill-rule="evenodd" fill-opacity="1" /><path clip-path="url(#clip150)" d="M477.897 163.155 L477.897 159.613 Q482.11 158.965 483.406 156.048 Q484.98 151.951 484.98 141.465 L484.98 137.229 L502.503 137.229 L502.503 163.155 L498.244 163.155 L498.244 140.632 L489.239 140.632 L489.239 143.201 Q489.239 153.201 487.202 157.692 Q485.026 162.483 477.897 163.155 Z" fill="#000000" fill-rule="evenodd" fill-opacity="1" /><path clip-path="url(#clip150)" d="M535.397 137.229 L539.656 137.229 L539.656 163.155 L535.397 163.155 L535.397 137.229 M537.526 136.604 L537.526 136.604 M527.04 155.469 Q527.04 153.386 525.512 152.298 Q524.008 151.21 521.091 151.21 L515.026 151.21 L515.026 159.752 L521.091 159.752 Q524.008 159.752 525.512 158.664 Q527.04 157.553 527.04 155.469 M510.744 137.229 L515.026 137.229 L515.026 147.807 L521.276 147.807 Q526.23 147.807 528.892 149.706 Q531.577 151.581 531.577 155.469 Q531.577 159.358 528.892 161.256 Q526.23 163.155 521.276 163.155 L510.744 163.155 L510.744 137.229 Z" fill="#000000" fill-rule="evenodd" fill-opacity="1" /><path clip-path="url(#clip150)" d="M585.443 137.229 L585.443 163.155 L581.206 163.155 L581.206 142.345 L568.707 163.155 L563.244 163.155 L563.244 137.229 L567.48 137.229 L567.48 157.993 L579.956 137.229 L585.443 137.229 Z" fill="#000000" fill-rule="evenodd" fill-opacity="1" /><path clip-path="url(#clip150)" d="M594.054 137.229 L598.336 137.229 L598.336 147.807 L612.155 147.807 L612.155 137.229 L616.438 137.229 L616.438 163.155 L612.155 163.155 L612.155 151.21 L598.336 151.21 L598.336 163.155 L594.054 163.155 L594.054 137.229 Z" fill="#000000" fill-rule="evenodd" fill-opacity="1" /><path clip-path="url(#clip150)" d="M622.132 137.229 L646.97 137.229 L646.97 140.632 L636.646 140.632 L636.646 163.155 L632.456 163.155 L632.456 140.632 L622.132 140.632 L622.132 137.229 Z" fill="#000000" fill-rule="evenodd" fill-opacity="1" /><path clip-path="url(#clip150)" d="M675.002 149.127 L675.002 151.21 L655.419 151.21 Q655.697 155.608 658.058 157.923 Q660.442 160.215 664.678 160.215 Q667.132 160.215 669.424 159.613 Q671.738 159.011 674.007 157.807 L674.007 161.835 Q671.715 162.807 669.308 163.317 Q666.9 163.826 664.424 163.826 Q658.22 163.826 654.586 160.215 Q650.975 156.604 650.975 150.446 Q650.975 144.081 654.401 140.354 Q657.85 136.604 663.683 136.604 Q668.914 136.604 671.947 139.983 Q675.002 143.34 675.002 149.127 M670.743 147.877 Q670.697 144.382 668.775 142.298 Q666.877 140.215 663.729 140.215 Q660.164 140.215 658.012 142.229 Q655.882 144.243 655.558 147.9 L670.743 147.877 Z" fill="#000000" fill-rule="evenodd" fill-opacity="1" /><path clip-path="url(#clip150)" d="M686.113 159.266 L686.113 173.016 L681.831 173.016 L681.831 137.229 L686.113 137.229 L686.113 141.164 Q687.456 138.849 689.493 137.738 Q691.553 136.604 694.4 136.604 Q699.123 136.604 702.062 140.354 Q705.025 144.104 705.025 150.215 Q705.025 156.326 702.062 160.076 Q699.123 163.826 694.4 163.826 Q691.553 163.826 689.493 162.715 Q687.456 161.581 686.113 159.266 M700.604 150.215 Q700.604 145.516 698.66 142.854 Q696.738 140.169 693.359 140.169 Q689.979 140.169 688.035 142.854 Q686.113 145.516 686.113 150.215 Q686.113 154.914 688.035 157.599 Q689.979 160.261 693.359 160.261 Q696.738 160.261 698.66 157.599 Q700.604 154.914 700.604 150.215 Z" fill="#000000" fill-rule="evenodd" fill-opacity="1" /><path clip-path="url(#clip150)" d="M734.308 137.229 L734.308 163.155 L730.025 163.155 L730.025 140.632 L716.206 140.632 L716.206 163.155 L711.923 163.155 L711.923 137.229 L734.308 137.229 Z" fill="#000000" fill-rule="evenodd" fill-opacity="1" /><path clip-path="url(#clip150)" d="M753.127 140.215 Q749.701 140.215 747.71 142.9 Q745.719 145.562 745.719 150.215 Q745.719 154.868 747.687 157.553 Q749.678 160.215 753.127 160.215 Q756.53 160.215 758.52 157.53 Q760.511 154.844 760.511 150.215 Q760.511 145.608 758.52 142.923 Q756.53 140.215 753.127 140.215 M753.127 136.604 Q758.682 136.604 761.854 140.215 Q765.025 143.826 765.025 150.215 Q765.025 156.581 761.854 160.215 Q758.682 163.826 753.127 163.826 Q747.548 163.826 744.377 160.215 Q741.229 156.581 741.229 150.215 Q741.229 143.826 744.377 140.215 Q747.548 136.604 753.127 136.604 Z" fill="#000000" fill-rule="evenodd" fill-opacity="1" /><path clip-path="url(#clip150)" d="M769.377 163.155 L769.377 159.613 Q773.59 158.965 774.886 156.048 Q776.46 151.951 776.46 141.465 L776.46 137.229 L793.983 137.229 L793.983 163.155 L789.724 163.155 L789.724 140.632 L780.719 140.632 L780.719 143.201 Q780.719 153.201 778.682 157.692 Q776.506 162.483 769.377 163.155 Z" fill="#000000" fill-rule="evenodd" fill-opacity="1" /><path clip-path="url(#clip150)" d="M806.668 144.706 Q806.668 146.627 808.15 147.715 Q809.631 148.803 812.386 148.803 L818.127 148.803 L818.127 140.632 L812.386 140.632 Q809.631 140.632 808.15 141.696 Q806.668 142.761 806.668 144.706 M800.603 163.155 L808.52 151.789 Q805.835 151.187 804.053 149.613 Q802.27 148.016 802.27 144.706 Q802.27 140.956 804.747 139.104 Q807.247 137.229 812.27 137.229 L822.409 137.229 L822.409 163.155 L818.127 163.155 L818.127 152.206 L812.826 152.206 L805.187 163.155 L800.603 163.155 Z" fill="#000000" fill-rule="evenodd" fill-opacity="1" /><path clip-path="url(#clip150)" d="M853.126 163.155 L830.742 163.155 L830.742 137.229 L835.025 137.229 L835.025 159.752 L848.844 159.752 L848.844 137.229 L853.126 137.229 L853.126 159.752 L856.529 159.752 L856.529 169.706 L853.126 169.706 L853.126 163.155 Z" fill="#000000" fill-rule="evenodd" fill-opacity="1" /><path clip-path="url(#clip150)" d="M885.209 137.229 L885.209 163.155 L880.973 163.155 L880.973 142.345 L868.473 163.155 L863.011 163.155 L863.011 137.229 L867.247 137.229 L867.247 157.993 L879.723 137.229 L885.209 137.229 Z" fill="#000000" fill-rule="evenodd" fill-opacity="1" /><path clip-path="url(#clip150)" d="M916.02 137.229 L916.02 163.155 L911.783 163.155 L911.783 142.345 L899.283 163.155 L893.821 163.155 L893.821 137.229 L898.057 137.229 L898.057 157.993 L910.533 137.229 L916.02 137.229 Z" fill="#000000" fill-rule="evenodd" fill-opacity="1" /><polyline clip-path="url(#clip150)" style="stroke:#e26f46; stroke-linecap:butt; stroke-linejoin:round; stroke-width:4; stroke-opacity:1; fill:none" points="
  253.409,197.715 399.875,197.715 
  "/>
<path clip-path="url(#clip150)" d="M448.314 200.967 L448.314 203.05 L428.73 203.05 Q429.008 207.448 431.369 209.763 Q433.754 212.055 437.99 212.055 Q440.443 212.055 442.735 211.453 Q445.05 210.851 447.318 209.647 L447.318 213.675 Q445.027 214.647 442.619 215.157 Q440.212 215.666 437.735 215.666 Q431.531 215.666 427.897 212.055 Q424.286 208.444 424.286 202.286 Q424.286 195.921 427.712 192.194 Q431.161 188.444 436.994 188.444 Q442.226 188.444 445.258 191.823 Q448.314 195.18 448.314 200.967 M444.054 199.717 Q444.008 196.222 442.087 194.138 Q440.189 192.055 437.041 192.055 Q433.476 192.055 431.323 194.069 Q429.193 196.083 428.869 199.74 L444.054 199.717 Z" fill="#000000" fill-rule="evenodd" fill-opacity="1" /><path clip-path="url(#clip150)" d="M476.022 189.069 L466.647 201.685 L476.508 214.995 L471.485 214.995 L463.939 204.81 L456.392 214.995 L451.369 214.995 L461.439 201.43 L452.226 189.069 L457.249 189.069 L464.124 198.305 L470.999 189.069 L476.022 189.069 Z" fill="#000000" fill-rule="evenodd" fill-opacity="1" /><path clip-path="url(#clip150)" d="M486.647 211.106 L486.647 224.856 L482.364 224.856 L482.364 189.069 L486.647 189.069 L486.647 193.004 Q487.989 190.689 490.026 189.578 Q492.087 188.444 494.934 188.444 Q499.656 188.444 502.596 192.194 Q505.559 195.944 505.559 202.055 Q505.559 208.166 502.596 211.916 Q499.656 215.666 494.934 215.666 Q492.087 215.666 490.026 214.555 Q487.989 213.421 486.647 211.106 M501.137 202.055 Q501.137 197.356 499.193 194.694 Q497.272 192.009 493.892 192.009 Q490.513 192.009 488.568 194.694 Q486.647 197.356 486.647 202.055 Q486.647 206.754 488.568 209.439 Q490.513 212.101 493.892 212.101 Q497.272 212.101 499.193 209.439 Q501.137 206.754 501.137 202.055 Z" fill="#000000" fill-rule="evenodd" fill-opacity="1" /><path clip-path="url(#clip150)" d="M522.85 179.023 Q519.748 184.347 518.244 189.555 Q516.739 194.763 516.739 200.11 Q516.739 205.458 518.244 210.712 Q519.772 215.944 522.85 221.245 L519.147 221.245 Q515.674 215.805 513.938 210.55 Q512.225 205.296 512.225 200.11 Q512.225 194.948 513.938 189.717 Q515.651 184.486 519.147 179.023 L522.85 179.023 Z" fill="#000000" fill-rule="evenodd" fill-opacity="1" /><path clip-path="url(#clip150)" d="M547.642 189.833 L547.642 193.86 Q545.836 192.935 543.892 192.472 Q541.947 192.009 539.864 192.009 Q536.693 192.009 535.096 192.981 Q533.522 193.953 533.522 195.898 Q533.522 197.379 534.656 198.235 Q535.79 199.069 539.216 199.833 L540.674 200.157 Q545.211 201.129 547.109 202.911 Q549.031 204.671 549.031 207.842 Q549.031 211.453 546.16 213.559 Q543.313 215.666 538.313 215.666 Q536.23 215.666 533.961 215.249 Q531.716 214.856 529.216 214.046 L529.216 209.647 Q531.577 210.874 533.869 211.499 Q536.16 212.101 538.406 212.101 Q541.415 212.101 543.035 211.083 Q544.656 210.041 544.656 208.166 Q544.656 206.43 543.475 205.504 Q542.318 204.578 538.359 203.722 L536.878 203.374 Q532.92 202.541 531.16 200.828 Q529.401 199.092 529.401 196.083 Q529.401 192.425 531.994 190.435 Q534.586 188.444 539.355 188.444 Q541.716 188.444 543.799 188.791 Q545.883 189.138 547.642 189.833 Z" fill="#000000" fill-rule="evenodd" fill-opacity="1" /><path clip-path="url(#clip150)" d="M555.813 189.069 L560.072 189.069 L560.072 214.995 L555.813 214.995 L555.813 189.069 M555.813 178.976 L560.072 178.976 L560.072 184.37 L555.813 184.37 L555.813 178.976 Z" fill="#000000" fill-rule="evenodd" fill-opacity="1" /><path clip-path="url(#clip150)" d="M590.535 199.347 L590.535 214.995 L586.276 214.995 L586.276 199.485 Q586.276 195.805 584.841 193.976 Q583.406 192.148 580.535 192.148 Q577.086 192.148 575.095 194.347 Q573.105 196.546 573.105 200.342 L573.105 214.995 L568.822 214.995 L568.822 189.069 L573.105 189.069 L573.105 193.097 Q574.632 190.759 576.693 189.601 Q578.776 188.444 581.484 188.444 Q585.952 188.444 588.243 191.222 Q590.535 193.976 590.535 199.347 Z" fill="#000000" fill-rule="evenodd" fill-opacity="1" /><path clip-path="url(#clip150)" d="M609.262 179.023 Q606.16 184.347 604.655 189.555 Q603.151 194.763 603.151 200.11 Q603.151 205.458 604.655 210.712 Q606.183 215.944 609.262 221.245 L605.558 221.245 Q602.086 215.805 600.35 210.55 Q598.637 205.296 598.637 200.11 Q598.637 194.948 600.35 189.717 Q602.063 184.486 605.558 179.023 L609.262 179.023 Z" fill="#000000" fill-rule="evenodd" fill-opacity="1" /><path clip-path="url(#clip150)" d="M622.155 211.059 L638.475 211.059 L638.475 214.995 L616.53 214.995 L616.53 211.059 Q619.192 208.305 623.776 203.675 Q628.382 199.022 629.563 197.68 Q631.808 195.157 632.688 193.421 Q633.59 191.661 633.59 189.972 Q633.59 187.217 631.646 185.481 Q629.725 183.745 626.623 183.745 Q624.424 183.745 621.97 184.509 Q619.54 185.273 616.762 186.823 L616.762 182.101 Q619.586 180.967 622.04 180.388 Q624.493 179.81 626.53 179.81 Q631.901 179.81 635.095 182.495 Q638.29 185.18 638.29 189.671 Q638.29 191.8 637.479 193.722 Q636.692 195.62 634.586 198.212 Q634.007 198.884 630.905 202.101 Q627.803 205.296 622.155 211.059 Z" fill="#000000" fill-rule="evenodd" fill-opacity="1" /><path clip-path="url(#clip150)" d="M669.238 189.069 L659.863 201.685 L669.725 214.995 L664.701 214.995 L657.155 204.81 L649.609 214.995 L644.586 214.995 L654.655 201.43 L645.442 189.069 L650.465 189.069 L657.34 198.305 L664.215 189.069 L669.238 189.069 Z" fill="#000000" fill-rule="evenodd" fill-opacity="1" /><path clip-path="url(#clip150)" d="M675.072 179.023 L678.775 179.023 Q682.248 184.486 683.961 189.717 Q685.697 194.948 685.697 200.11 Q685.697 205.296 683.961 210.55 Q682.248 215.805 678.775 221.245 L675.072 221.245 Q678.15 215.944 679.655 210.712 Q681.183 205.458 681.183 200.11 Q681.183 194.763 679.655 189.555 Q678.15 184.347 675.072 179.023 Z" fill="#000000" fill-rule="evenodd" fill-opacity="1" /><path clip-path="url(#clip150)" d="M693.567 179.023 L697.271 179.023 Q700.743 184.486 702.456 189.717 Q704.192 194.948 704.192 200.11 Q704.192 205.296 702.456 210.55 Q700.743 215.805 697.271 221.245 L693.567 221.245 Q696.646 215.944 698.15 210.712 Q699.678 205.458 699.678 200.11 Q699.678 194.763 698.15 189.555 Q696.646 184.347 693.567 179.023 Z" fill="#000000" fill-rule="evenodd" fill-opacity="1" /><path clip-path="url(#clip150)" d="M745.141 185.273 L745.141 198.166 L758.034 198.166 L758.034 202.101 L745.141 202.101 L745.141 214.995 L741.252 214.995 L741.252 202.101 L728.358 202.101 L728.358 198.166 L741.252 198.166 L741.252 185.273 L745.141 185.273 Z" fill="#000000" fill-rule="evenodd" fill-opacity="1" /><path clip-path="url(#clip150)" d="M793.196 183.513 Q789.585 183.513 787.756 187.078 Q785.951 190.62 785.951 197.749 Q785.951 204.856 787.756 208.421 Q789.585 211.962 793.196 211.962 Q796.83 211.962 798.636 208.421 Q800.465 204.856 800.465 197.749 Q800.465 190.62 798.636 187.078 Q796.83 183.513 793.196 183.513 M793.196 179.81 Q799.006 179.81 802.062 184.416 Q805.14 188.999 805.14 197.749 Q805.14 206.476 802.062 211.083 Q799.006 215.666 793.196 215.666 Q787.386 215.666 784.307 211.083 Q781.252 206.476 781.252 197.749 Q781.252 188.999 784.307 184.416 Q787.386 179.81 793.196 179.81 Z" fill="#000000" fill-rule="evenodd" fill-opacity="1" /><path clip-path="url(#clip150)" d="M813.358 209.115 L818.242 209.115 L818.242 214.995 L813.358 214.995 L813.358 209.115 Z" fill="#000000" fill-rule="evenodd" fill-opacity="1" /><path clip-path="url(#clip150)" d="M838.427 183.513 Q834.816 183.513 832.988 187.078 Q831.182 190.62 831.182 197.749 Q831.182 204.856 832.988 208.421 Q834.816 211.962 838.427 211.962 Q842.062 211.962 843.867 208.421 Q845.696 204.856 845.696 197.749 Q845.696 190.62 843.867 187.078 Q842.062 183.513 838.427 183.513 M838.427 179.81 Q844.237 179.81 847.293 184.416 Q850.372 188.999 850.372 197.749 Q850.372 206.476 847.293 211.083 Q844.237 215.666 838.427 215.666 Q832.617 215.666 829.538 211.083 Q826.483 206.476 826.483 197.749 Q826.483 188.999 829.538 184.416 Q832.617 179.81 838.427 179.81 Z" fill="#000000" fill-rule="evenodd" fill-opacity="1" /><path clip-path="url(#clip150)" d="M858.636 180.435 L876.992 180.435 L876.992 184.37 L862.918 184.37 L862.918 192.842 Q863.936 192.495 864.955 192.333 Q865.973 192.148 866.992 192.148 Q872.779 192.148 876.159 195.319 Q879.538 198.49 879.538 203.907 Q879.538 209.485 876.066 212.587 Q872.594 215.666 866.274 215.666 Q864.098 215.666 861.83 215.296 Q859.585 214.925 857.177 214.184 L857.177 209.485 Q859.261 210.62 861.483 211.175 Q863.705 211.731 866.182 211.731 Q870.186 211.731 872.524 209.624 Q874.862 207.518 874.862 203.907 Q874.862 200.296 872.524 198.189 Q870.186 196.083 866.182 196.083 Q864.307 196.083 862.432 196.499 Q860.58 196.916 858.636 197.796 L858.636 180.435 Z" fill="#000000" fill-rule="evenodd" fill-opacity="1" /><path clip-path="url(#clip150)" d="M905.973 186.129 L897.663 190.62 L905.973 195.134 L904.631 197.402 L896.853 192.703 L896.853 201.43 L894.214 201.43 L894.214 192.703 L886.436 197.402 L885.094 195.134 L893.404 190.62 L885.094 186.129 L886.436 183.837 L894.214 188.536 L894.214 179.81 L896.853 179.81 L896.853 188.536 L904.631 183.837 L905.973 186.129 Z" fill="#000000" fill-rule="evenodd" fill-opacity="1" /><path clip-path="url(#clip150)" d="M928.381 189.833 L928.381 193.86 Q926.575 192.935 924.631 192.472 Q922.686 192.009 920.603 192.009 Q917.432 192.009 915.834 192.981 Q914.26 193.953 914.26 195.898 Q914.26 197.379 915.395 198.235 Q916.529 199.069 919.955 199.833 L921.413 200.157 Q925.95 201.129 927.848 202.911 Q929.769 204.671 929.769 207.842 Q929.769 211.453 926.899 213.559 Q924.052 215.666 919.052 215.666 Q916.969 215.666 914.7 215.249 Q912.455 214.856 909.955 214.046 L909.955 209.647 Q912.316 210.874 914.607 211.499 Q916.899 212.101 919.144 212.101 Q922.154 212.101 923.774 211.083 Q925.394 210.041 925.394 208.166 Q925.394 206.43 924.214 205.504 Q923.057 204.578 919.098 203.722 L917.617 203.374 Q913.658 202.541 911.899 200.828 Q910.14 199.092 910.14 196.083 Q910.14 192.425 912.732 190.435 Q915.325 188.444 920.094 188.444 Q922.455 188.444 924.538 188.791 Q926.621 189.138 928.381 189.833 Z" fill="#000000" fill-rule="evenodd" fill-opacity="1" /><path clip-path="url(#clip150)" d="M936.552 189.069 L940.811 189.069 L940.811 214.995 L936.552 214.995 L936.552 189.069 M936.552 178.976 L940.811 178.976 L940.811 184.37 L936.552 184.37 L936.552 178.976 Z" fill="#000000" fill-rule="evenodd" fill-opacity="1" /><path clip-path="url(#clip150)" d="M971.274 199.347 L971.274 214.995 L967.015 214.995 L967.015 199.485 Q967.015 195.805 965.579 193.976 Q964.144 192.148 961.274 192.148 Q957.825 192.148 955.834 194.347 Q953.843 196.546 953.843 200.342 L953.843 214.995 L949.561 214.995 L949.561 189.069 L953.843 189.069 L953.843 193.097 Q955.371 190.759 957.431 189.601 Q959.515 188.444 962.223 188.444 Q966.691 188.444 968.982 191.222 Q971.274 193.976 971.274 199.347 Z" fill="#000000" fill-rule="evenodd" fill-opacity="1" /><path clip-path="url(#clip150)" d="M990.001 179.023 Q986.899 184.347 985.394 189.555 Q983.89 194.763 983.89 200.11 Q983.89 205.458 985.394 210.712 Q986.922 215.944 990.001 221.245 L986.297 221.245 Q982.825 215.805 981.089 210.55 Q979.376 205.296 979.376 200.11 Q979.376 194.948 981.089 189.717 Q982.802 184.486 986.297 179.023 L990.001 179.023 Z" fill="#000000" fill-rule="evenodd" fill-opacity="1" /><path clip-path="url(#clip150)" d="M999.676 211.059 L1007.32 211.059 L1007.32 184.694 L999.005 186.361 L999.005 182.101 L1007.27 180.435 L1011.94 180.435 L1011.94 211.059 L1019.58 211.059 L1019.58 214.995 L999.676 214.995 L999.676 211.059 Z" fill="#000000" fill-rule="evenodd" fill-opacity="1" /><path clip-path="url(#clip150)" d="M1029.07 180.435 L1047.43 180.435 L1047.43 184.37 L1033.36 184.37 L1033.36 192.842 Q1034.38 192.495 1035.39 192.333 Q1036.41 192.148 1037.43 192.148 Q1043.22 192.148 1046.6 195.319 Q1049.98 198.49 1049.98 203.907 Q1049.98 209.485 1046.5 212.587 Q1043.03 215.666 1036.71 215.666 Q1034.54 215.666 1032.27 215.296 Q1030.02 214.925 1027.62 214.184 L1027.62 209.485 Q1029.7 210.62 1031.92 211.175 Q1034.14 211.731 1036.62 211.731 Q1040.63 211.731 1042.96 209.624 Q1045.3 207.518 1045.3 203.907 Q1045.3 200.296 1042.96 198.189 Q1040.63 196.083 1036.62 196.083 Q1034.75 196.083 1032.87 196.499 Q1031.02 196.916 1029.07 197.796 L1029.07 180.435 Z" fill="#000000" fill-rule="evenodd" fill-opacity="1" /><path clip-path="url(#clip150)" d="M1080.14 189.069 L1070.76 201.685 L1080.63 214.995 L1075.6 214.995 L1068.06 204.81 L1060.51 214.995 L1055.49 214.995 L1065.56 201.43 L1056.34 189.069 L1061.37 189.069 L1068.24 198.305 L1075.12 189.069 L1080.14 189.069 Z" fill="#000000" fill-rule="evenodd" fill-opacity="1" /><path clip-path="url(#clip150)" d="M1085.97 179.023 L1089.68 179.023 Q1093.15 184.486 1094.86 189.717 Q1096.6 194.948 1096.6 200.11 Q1096.6 205.296 1094.86 210.55 Q1093.15 215.805 1089.68 221.245 L1085.97 221.245 Q1089.05 215.944 1090.56 210.712 Q1092.08 205.458 1092.08 200.11 Q1092.08 194.763 1090.56 189.555 Q1089.05 184.347 1085.97 179.023 Z" fill="#000000" fill-rule="evenodd" fill-opacity="1" /><polyline clip-path="url(#clip150)" style="stroke:#3da44d; stroke-linecap:butt; stroke-linejoin:round; stroke-width:4; stroke-opacity:1; fill:none" points="
  253.409,249.555 399.875,249.555 
  "/>
<path clip-path="url(#clip150)" d="M424.286 240.909 L428.522 240.909 L428.522 253.085 L440.536 240.909 L445.767 240.909 L435.86 250.932 L447.041 266.835 L442.272 266.835 L433.082 253.756 L428.522 258.386 L428.522 266.835 L424.286 266.835 L424.286 240.909 Z" fill="#000000" fill-rule="evenodd" fill-opacity="1" /><path clip-path="url(#clip150)" d="M463.869 269.242 Q462.064 273.872 460.351 275.284 Q458.638 276.696 455.767 276.696 L452.365 276.696 L452.365 273.131 L454.865 273.131 Q456.624 273.131 457.596 272.298 Q458.568 271.464 459.749 268.362 L460.513 266.418 L450.027 240.909 L454.54 240.909 L462.642 261.187 L470.744 240.909 L475.258 240.909 L463.869 269.242 Z" fill="#000000" fill-rule="evenodd" fill-opacity="1" /><path clip-path="url(#clip150)" d="M491.415 240.284 Q496.971 240.284 500.142 243.895 Q503.313 247.506 503.313 253.895 Q503.313 260.261 500.142 263.895 Q496.971 267.506 491.415 267.506 Q485.837 267.506 482.758 263.987 Q479.679 260.469 479.517 253.895 L479.378 248.594 Q479.263 245.839 479.263 244.89 Q479.263 241.187 480.605 238.455 Q482.712 234.173 486.346 232.321 Q490.003 230.469 496.114 230.423 Q498.938 230.4 500.188 230.006 L501.369 233.386 Q500.235 233.849 499.193 233.872 L493.406 234.265 Q490.489 234.474 488.73 235.492 Q484.124 238.201 483.684 241.742 L483.522 243.038 Q486.531 240.284 491.415 240.284 M491.415 243.895 Q487.989 243.895 485.999 246.58 Q484.008 249.242 484.008 253.895 Q484.008 258.548 485.976 261.233 Q487.966 263.895 491.415 263.895 Q494.818 263.895 496.809 261.21 Q498.8 258.524 498.8 253.895 Q498.8 249.288 496.809 246.603 Q494.818 243.895 491.415 243.895 Z" fill="#000000" fill-rule="evenodd" fill-opacity="1" /><path clip-path="url(#clip150)" d="M532.41 240.909 L532.41 266.835 L528.174 266.835 L528.174 246.025 L515.674 266.835 L510.211 266.835 L510.211 240.909 L514.448 240.909 L514.448 261.673 L526.924 240.909 L532.41 240.909 Z" fill="#000000" fill-rule="evenodd" fill-opacity="1" /><path clip-path="url(#clip150)" d="M556.16 266.835 L556.16 255.932 L548.221 255.932 Q544.679 255.932 542.318 253.733 Q540.188 251.742 540.188 247.483 L540.188 240.909 L544.447 240.909 L544.447 247.089 Q544.447 249.798 545.651 251.163 Q546.878 252.529 549.285 252.529 L556.16 252.529 L556.16 240.909 L560.42 240.909 L560.42 266.835 L556.16 266.835 Z" fill="#000000" fill-rule="evenodd" fill-opacity="1" /><path clip-path="url(#clip150)" d="M591.368 252.807 L591.368 254.89 L571.785 254.89 Q572.063 259.288 574.424 261.603 Q576.808 263.895 581.044 263.895 Q583.498 263.895 585.79 263.293 Q588.105 262.691 590.373 261.487 L590.373 265.515 Q588.081 266.487 585.674 266.997 Q583.267 267.506 580.79 267.506 Q574.586 267.506 570.952 263.895 Q567.341 260.284 567.341 254.126 Q567.341 247.761 570.767 244.034 Q574.216 240.284 580.049 240.284 Q585.281 240.284 588.313 243.663 Q591.368 247.02 591.368 252.807 M587.109 251.557 Q587.063 248.062 585.142 245.978 Q583.244 243.895 580.095 243.895 Q576.531 243.895 574.378 245.909 Q572.248 247.923 571.924 251.58 L587.109 251.557 Z" fill="#000000" fill-rule="evenodd" fill-opacity="1" /><path clip-path="url(#clip150)" d="M617.016 241.904 L617.016 245.886 Q615.211 244.89 613.382 244.404 Q611.577 243.895 609.725 243.895 Q605.581 243.895 603.29 246.534 Q600.998 249.15 600.998 253.895 Q600.998 258.64 603.29 261.279 Q605.581 263.895 609.725 263.895 Q611.577 263.895 613.382 263.409 Q615.211 262.899 617.016 261.904 L617.016 265.839 Q615.234 266.673 613.313 267.089 Q611.415 267.506 609.262 267.506 Q603.405 267.506 599.956 263.825 Q596.507 260.145 596.507 253.895 Q596.507 247.552 599.98 243.918 Q603.475 240.284 609.54 240.284 Q611.507 240.284 613.382 240.701 Q615.257 241.094 617.016 241.904 Z" fill="#000000" fill-rule="evenodd" fill-opacity="1" /><path clip-path="url(#clip150)" d="M624.262 240.909 L628.498 240.909 L628.498 253.085 L640.512 240.909 L645.743 240.909 L635.836 250.932 L647.016 266.835 L642.248 266.835 L633.058 253.756 L628.498 258.386 L628.498 266.835 L624.262 266.835 L624.262 240.909 Z" fill="#000000" fill-rule="evenodd" fill-opacity="1" /><path clip-path="url(#clip150)" d="M675.095 240.909 L675.095 266.835 L670.859 266.835 L670.859 246.025 L658.359 266.835 L652.896 266.835 L652.896 240.909 L657.132 240.909 L657.132 261.673 L669.609 240.909 L675.095 240.909 Z" fill="#000000" fill-rule="evenodd" fill-opacity="1" /><path clip-path="url(#clip150)" d="M705.905 240.909 L705.905 266.835 L701.669 266.835 L701.669 246.025 L689.169 266.835 L683.706 266.835 L683.706 240.909 L687.942 240.909 L687.942 261.673 L700.419 240.909 L705.905 240.909 M687.572 230.816 L690.303 230.816 Q690.558 232.552 691.669 233.432 Q692.803 234.289 694.817 234.289 Q696.808 234.289 697.919 233.432 Q699.03 232.576 699.331 230.816 L702.062 230.816 Q701.831 234.126 700.002 235.793 Q698.173 237.46 694.817 237.46 Q691.461 237.46 689.632 235.793 Q687.803 234.126 687.572 230.816 Z" fill="#000000" fill-rule="evenodd" fill-opacity="1" /><path clip-path="url(#clip150)" d="M748.405 241.904 L748.405 245.886 Q746.599 244.89 744.77 244.404 Q742.965 243.895 741.113 243.895 Q736.97 243.895 734.678 246.534 Q732.386 249.15 732.386 253.895 Q732.386 258.64 734.678 261.279 Q736.97 263.895 741.113 263.895 Q742.965 263.895 744.77 263.409 Q746.599 262.899 748.405 261.904 L748.405 265.839 Q746.622 266.673 744.701 267.089 Q742.803 267.506 740.65 267.506 Q734.794 267.506 731.345 263.825 Q727.896 260.145 727.896 253.895 Q727.896 247.552 731.368 243.918 Q734.863 240.284 740.928 240.284 Q742.895 240.284 744.77 240.701 Q746.645 241.094 748.405 241.904 Z" fill="#000000" fill-rule="evenodd" fill-opacity="1" /><path clip-path="url(#clip150)" d="M778.034 240.909 L778.034 266.835 L773.752 266.835 L773.752 244.312 L759.932 244.312 L759.932 266.835 L755.65 266.835 L755.65 240.909 L778.034 240.909 Z" fill="#000000" fill-rule="evenodd" fill-opacity="1" /><path clip-path="url(#clip150)" d="M784.099 266.835 L784.099 263.293 Q788.312 262.645 789.608 259.728 Q791.182 255.631 791.182 245.145 L791.182 240.909 L808.705 240.909 L808.705 266.835 L804.446 266.835 L804.446 244.312 L795.441 244.312 L795.441 246.881 Q795.441 256.881 793.404 261.372 Q791.229 266.163 784.099 266.835 Z" fill="#000000" fill-rule="evenodd" fill-opacity="1" /><path clip-path="url(#clip150)" d="M828.89 253.802 Q823.728 253.802 821.738 254.983 Q819.747 256.163 819.747 259.011 Q819.747 261.279 821.228 262.622 Q822.733 263.941 825.302 263.941 Q828.844 263.941 830.974 261.441 Q833.126 258.918 833.126 254.751 L833.126 253.802 L828.89 253.802 M837.386 252.043 L837.386 266.835 L833.126 266.835 L833.126 262.899 Q831.668 265.261 829.492 266.395 Q827.316 267.506 824.168 267.506 Q820.187 267.506 817.826 265.284 Q815.488 263.038 815.488 259.288 Q815.488 254.913 818.404 252.691 Q821.344 250.469 827.154 250.469 L833.126 250.469 L833.126 250.052 Q833.126 247.113 831.182 245.515 Q829.261 243.895 825.765 243.895 Q823.543 243.895 821.437 244.427 Q819.33 244.96 817.386 246.025 L817.386 242.089 Q819.724 241.187 821.923 240.747 Q824.122 240.284 826.205 240.284 Q831.83 240.284 834.608 243.201 Q837.386 246.117 837.386 252.043 Z" fill="#000000" fill-rule="evenodd" fill-opacity="1" /><path clip-path="url(#clip150)" d="M868.196 240.909 L868.196 266.835 L863.96 266.835 L863.96 246.025 L851.46 266.835 L845.997 266.835 L845.997 240.909 L850.233 240.909 L850.233 261.673 L862.71 240.909 L868.196 240.909 M849.862 230.816 L852.594 230.816 Q852.849 232.552 853.96 233.432 Q855.094 234.289 857.108 234.289 Q859.099 234.289 860.21 233.432 Q861.321 232.576 861.622 230.816 L864.353 230.816 Q864.122 234.126 862.293 235.793 Q860.464 237.46 857.108 237.46 Q853.751 237.46 851.923 235.793 Q850.094 234.126 849.862 230.816 Z" fill="#000000" fill-rule="evenodd" fill-opacity="1" /><path clip-path="url(#clip150)" d="M876.807 240.909 L881.089 240.909 L881.089 251.487 L894.909 251.487 L894.909 240.909 L899.191 240.909 L899.191 266.835 L894.909 266.835 L894.909 254.89 L881.089 254.89 L881.089 266.835 L876.807 266.835 L876.807 240.909 Z" fill="#000000" fill-rule="evenodd" fill-opacity="1" /></svg>
