<?xml version="1.0" encoding="UTF-8" standalone="no"?>
<!-- Created with Inkscape (http://www.inkscape.org/) -->

<svg
   width="80mm"
   height="80mm"
   viewBox="0 0 80 80"
   version="1.1"
   id="svg5"
   inkscape:version="1.2.2 (b0a8486, 2022-12-01)"
   sodipodi:docname="graph-cross-example.svg"
   xmlns:inkscape="http://www.inkscape.org/namespaces/inkscape"
   xmlns:sodipodi="http://sodipodi.sourceforge.net/DTD/sodipodi-0.dtd"
   xmlns="http://www.w3.org/2000/svg"
   xmlns:svg="http://www.w3.org/2000/svg">
  <sodipodi:namedview
     id="namedview7"
     pagecolor="#ffffff"
     bordercolor="#666666"
     borderopacity="1.0"
     inkscape:showpageshadow="2"
     inkscape:pageopacity="0.0"
     inkscape:pagecheckerboard="0"
     inkscape:deskcolor="#d1d1d1"
     inkscape:document-units="mm"
     showgrid="false"
     inkscape:zoom="1.4142136"
     inkscape:cx="147.43176"
     inkscape:cy="147.43176"
     inkscape:window-width="1440"
     inkscape:window-height="847"
     inkscape:window-x="0"
     inkscape:window-y="25"
     inkscape:window-maximized="1"
     inkscape:current-layer="layer1">
    <inkscape:grid
       type="xygrid"
       id="grid182"
       units="mm"
       spacingx="0.99999999"
       spacingy="0.99999999"
       originx="0"
       originy="0" />
  </sodipodi:namedview>
  <defs
     id="defs2">
    <marker
       style="overflow:visible"
       id="TriangleStart-4-3-6"
       refX="0"
       refY="0"
       orient="auto-start-reverse"
       inkscape:stockid="TriangleStart"
       markerWidth="5.3244081"
       markerHeight="6.155385"
       viewBox="0 0 5.3244081 6.1553851"
       inkscape:isstock="true"
       inkscape:collect="always"
       preserveAspectRatio="xMidYMid">
      <path
         transform="scale(0.5)"
         style="fill:context-stroke;fill-rule:evenodd;stroke:context-stroke;stroke-width:1pt"
         d="M 5.77,0 -2.88,5 V -5 Z"
         id="path135-9-7-1" />
    </marker>
    <marker
       style="overflow:visible"
       id="TriangleStart-4-3-6-2"
       refX="0"
       refY="0"
       orient="auto-start-reverse"
       inkscape:stockid="TriangleStart"
       markerWidth="5.3244081"
       markerHeight="6.155385"
       viewBox="0 0 5.3244081 6.1553851"
       inkscape:isstock="true"
       inkscape:collect="always"
       preserveAspectRatio="xMidYMid">
      <path
         transform="scale(0.5)"
         style="fill:context-stroke;fill-rule:evenodd;stroke:context-stroke;stroke-width:1pt"
         d="M 5.77,0 -2.88,5 V -5 Z"
         id="path135-9-7-1-91" />
    </marker>
    <marker
       style="overflow:visible"
       id="TriangleStart-4-3-6-3"
       refX="0"
       refY="0"
       orient="auto-start-reverse"
       inkscape:stockid="TriangleStart"
       markerWidth="5.3244081"
       markerHeight="6.155385"
       viewBox="0 0 5.3244081 6.1553851"
       inkscape:isstock="true"
       inkscape:collect="always"
       preserveAspectRatio="xMidYMid">
      <path
         transform="scale(0.5)"
         style="fill:context-stroke;fill-rule:evenodd;stroke:context-stroke;stroke-width:1pt"
         d="M 5.77,0 -2.88,5 V -5 Z"
         id="path135-9-7-1-3" />
    </marker>
    <marker
       style="overflow:visible"
       id="TriangleStart-4-3-6-8"
       refX="0"
       refY="0"
       orient="auto-start-reverse"
       inkscape:stockid="TriangleStart"
       markerWidth="5.3244081"
       markerHeight="6.155385"
       viewBox="0 0 5.3244081 6.1553851"
       inkscape:isstock="true"
       inkscape:collect="always"
       preserveAspectRatio="xMidYMid">
      <path
         transform="scale(0.5)"
         style="fill:context-stroke;fill-rule:evenodd;stroke:context-stroke;stroke-width:1pt"
         d="M 5.77,0 -2.88,5 V -5 Z"
         id="path135-9-7-1-8" />
    </marker>
    <marker
       style="overflow:visible"
       id="TriangleStart-4-3-6-7"
       refX="0"
       refY="0"
       orient="auto-start-reverse"
       inkscape:stockid="TriangleStart"
       markerWidth="5.3244081"
       markerHeight="6.155385"
       viewBox="0 0 5.3244081 6.1553851"
       inkscape:isstock="true"
       inkscape:collect="always"
       preserveAspectRatio="xMidYMid">
      <path
         transform="scale(0.5)"
         style="fill:context-stroke;fill-rule:evenodd;stroke:context-stroke;stroke-width:1pt"
         d="M 5.77,0 -2.88,5 V -5 Z"
         id="path135-9-7-1-6" />
    </marker>
    <marker
       style="overflow:visible"
       id="TriangleStart-4-3-6-2-3"
       refX="0"
       refY="0"
       orient="auto-start-reverse"
       inkscape:stockid="TriangleStart"
       markerWidth="5.3244081"
       markerHeight="6.155385"
       viewBox="0 0 5.3244081 6.1553851"
       inkscape:isstock="true"
       inkscape:collect="always"
       preserveAspectRatio="xMidYMid">
      <path
         transform="scale(0.5)"
         style="fill:context-stroke;fill-rule:evenodd;stroke:context-stroke;stroke-width:1pt"
         d="M 5.77,0 -2.88,5 V -5 Z"
         id="path135-9-7-1-91-8" />
    </marker>
  </defs>
  <g
     inkscape:label="Layer 1"
     inkscape:groupmode="layer"
     id="layer1">
    <circle
       style="fill:none;stroke:#1b4d7c;stroke-width:0.265;stroke-dasharray:none;stroke-opacity:1"
       id="path548-9-0-9-8-1-1"
       cx="70.1325"
       cy="25.1325"
       r="5" />
    <circle
       style="fill:none;stroke:#1b4d7c;stroke-width:0.265;stroke-dasharray:0.265, 0.265;stroke-dashoffset:0;stroke-opacity:1"
       id="path548-9-0-9-8-1-1-0"
       cx="70.1325"
       cy="40.1325"
       r="5" />
    <circle
       style="fill:none;stroke:#1b4d7c;stroke-width:0.265;stroke-dasharray:none;stroke-opacity:1"
       id="path548-9-0-9-8-1-1-0-4"
       cx="70.1325"
       cy="55.1325"
       r="5" />
    <circle
       style="fill:none;stroke:#a22a17;stroke-width:0.265;stroke-dasharray:0.265, 0.265;stroke-dashoffset:0;stroke-opacity:1"
       id="path548-5"
       cx="10"
       cy="24.8675"
       r="5" />
    <circle
       style="fill:none;stroke:#a22a17;stroke-width:0.265;stroke-dasharray:0.265, 0.265;stroke-dashoffset:0;stroke-opacity:1"
       id="path548-5-6"
       cx="10"
       cy="39.8675"
       r="5" />
    <circle
       style="fill:none;stroke:#a22a17;stroke-width:0.265;stroke-dasharray:0.265, 0.265;stroke-dashoffset:0;stroke-opacity:1"
       id="path548-5-6-7"
       cx="10"
       cy="54.8675"
       r="5" />
    <g
       id="g790"
       transform="translate(-0.13249969,-0.26499969)">
      <circle
         style="fill:none;stroke:#a22a17;stroke-width:0.265;stroke-dasharray:none;stroke-opacity:1"
         id="path548"
         cx="10.1325"
         cy="10.1325"
         r="5" />
      <g
         aria-label="x1"
         id="text571"
         style="font-size:5.29167px;line-height:1.25;font-family:Arial;-inkscape-font-specification:Arial;stroke-width:0.264583">
        <path
           d="m 11.329461,11.509376 v -0.164042 c -0.285751,0 -0.381001,-0.01058 -0.502709,-0.164042 l -0.709084,-0.915459 c 0.15875,-0.201083 0.359834,-0.4603751 0.486834,-0.5979585 0.164042,-0.1905001 0.381,-0.2698752 0.629709,-0.2751669 V 9.2286659 c -0.137584,0.010583 -0.296334,0.015875 -0.433917,0.015875 -0.15875,0 -0.439209,-0.010583 -0.508001,-0.015875 v 0.1640417 c 0.111125,0.010583 0.153459,0.079375 0.153459,0.1640418 0,0.084667 -0.05292,0.1534584 -0.07938,0.1852084 L 10.038293,10.154708 9.6255429,9.6202494 c -0.047625,-0.052917 -0.047625,-0.0635 -0.047625,-0.09525 0,-0.079375 0.079375,-0.1270001 0.1852084,-0.1322918 V 9.2286659 L 9.191626,9.2445409 c -0.1111251,0 -0.3598336,-0.00529 -0.5027086,-0.015875 v 0.1640417 c 0.3704168,0 0.3757085,0.00529 0.624417,0.3227919 l 0.5238753,0.6826255 c -0.2487085,0.3175 -0.2487085,0.328083 -0.497417,0.629709 -0.2540001,0.306916 -0.5662086,0.3175 -0.6773337,0.3175 v 0.164042 c 0.1375834,-0.01058 0.3016252,-0.01587 0.4392086,-0.01587 l 0.5027086,0.01587 v -0.164042 c -0.1164167,-0.01587 -0.1534584,-0.08467 -0.1534584,-0.164042 0,-0.116417 0.1534584,-0.291042 0.4762503,-0.672042 l 0.4021669,0.529167 c 0.04233,0.05821 0.111125,0.142875 0.111125,0.174625 0,0.04763 -0.04763,0.127 -0.1905,0.132292 v 0.164042 l 0.5715,-0.01587 c 0.142875,0 0.349251,0.0053 0.508001,0.01587 z"
           style="font-family:'Latin Modern Roman';-inkscape-font-specification:'Latin Modern Roman, '"
           id="path5589" />
        <path
           d="M 12.834146,12.56771 V 12.461082 H 12.72408 c -0.309563,0 -0.319882,-0.03783 -0.319882,-0.1651 v -1.929607 c 0,-0.08255 0,-0.08943 -0.07911,-0.08943 -0.213255,0.220133 -0.515938,0.220133 -0.626005,0.220133 v 0.106627 c 0.06879,0 0.271727,0 0.450586,-0.08943 v 1.781705 c 0,0.123825 -0.01032,0.1651 -0.319882,0.1651 h -0.110066 v 0.106628 c 0.120385,-0.01032 0.419629,-0.01032 0.557212,-0.01032 0.137584,0 0.436828,0 0.557213,0.01032 z"
           style="font-size:65%;baseline-shift:sub"
           id="path5591" />
      </g>
    </g>
    <circle
       style="fill:none;stroke:#000000;stroke-width:0.265;stroke-dasharray:none;stroke-opacity:1"
       id="path548-9-0-9-8"
       cx="40.1325"
       cy="40.1325"
       r="5" />
    <g
       aria-label="g"
       id="text2299"
       style="font-size:5.29167px;line-height:1.25;font-family:'Latin Modern Roman';-inkscape-font-specification:'Latin Modern Roman, ';stroke-width:0.264583">
      <path
         d="m 41.592507,39.137159 c 0,-0.08996 -0.0635,-0.259292 -0.269876,-0.259292 -0.105833,0 -0.338666,0.03175 -0.560917,0.248709 -0.22225,-0.174625 -0.4445,-0.1905 -0.560917,-0.1905 -0.492125,0 -0.85725,0.365125 -0.85725,0.772584 0,0.232833 0.116417,0.433917 0.248708,0.545042 -0.06879,0.07938 -0.164041,0.254 -0.164041,0.439208 0,0.164042 0.06879,0.365125 0.232833,0.470959 -0.3175,0.08996 -0.486833,0.3175 -0.486833,0.529167 0,0.381 0.523875,0.672042 1.169459,0.672042 0.624417,0 1.17475,-0.269875 1.17475,-0.682626 0,-0.185208 -0.07408,-0.455083 -0.343958,-0.60325 -0.280459,-0.148167 -0.587376,-0.148167 -0.910168,-0.148167 -0.132291,0 -0.359833,0 -0.396875,-0.0053 -0.169333,-0.02117 -0.280458,-0.185209 -0.280458,-0.354542 0,-0.02117 0,-0.142875 0.08996,-0.248709 0.206375,0.148167 0.423334,0.164042 0.523875,0.164042 0.492126,0 0.857251,-0.365125 0.857251,-0.772584 0,-0.195791 -0.08467,-0.391583 -0.216958,-0.513292 0.1905,-0.179916 0.381,-0.206375 0.47625,-0.206375 0,0 0.03704,0 0.05292,0.0053 -0.05821,0.02117 -0.08467,0.07938 -0.08467,0.142875 0,0.08996 0.06879,0.153458 0.153458,0.153458 0.05292,0 0.153459,-0.03704 0.153459,-0.15875 z m -0.931334,0.571501 c 0,0.142875 -0.0053,0.312208 -0.08467,0.4445 -0.04233,0.0635 -0.164042,0.211667 -0.375709,0.211667 -0.460375,0 -0.460375,-0.529167 -0.460375,-0.650876 0,-0.142875 0.0053,-0.312208 0.08467,-0.4445 0.04233,-0.0635 0.164042,-0.211667 0.375708,-0.211667 0.460376,0 0.460376,0.529167 0.460376,0.650876 z m 0.582083,1.984376 c 0,0.28575 -0.375708,0.550333 -0.894292,0.550333 -0.534458,0 -0.899584,-0.269875 -0.899584,-0.550333 0,-0.243417 0.201084,-0.439209 0.433917,-0.455084 h 0.312209 c 0.455083,0 1.04775,0 1.04775,0.455084 z"
         id="path5599" />
    </g>
    <g
       aria-label="f1"
       id="text3120"
       style="font-size:5.29167px;line-height:1.25;font-family:Arial;-inkscape-font-specification:Arial;stroke-width:0.264583">
      <path
         d="m 70.945378,23.627289 c 0,-0.195792 -0.195792,-0.370417 -0.476251,-0.370417 -0.370417,0 -0.820208,0.280458 -0.820208,0.841376 v 0.608542 h -0.418042 v 0.164041 h 0.418042 v 1.714501 c 0,0.238125 -0.05821,0.238125 -0.412751,0.238125 v 0.164042 l 0.603251,-0.01588 c 0.211666,0 0.460375,0 0.672042,0.01588 v -0.164042 h -0.111125 c -0.391584,0 -0.402167,-0.05821 -0.402167,-0.248708 v -1.703918 h 0.60325 V 24.70679 h -0.619125 v -0.613834 c 0,-0.465667 0.254,-0.719667 0.486833,-0.719667 0.01587,0 0.09525,0 0.174625,0.03704 -0.0635,0.02117 -0.15875,0.08996 -0.15875,0.222251 0,0.121708 0.08467,0.227541 0.227542,0.227541 0.153459,0 0.232834,-0.105833 0.232834,-0.232833 z"
         style="font-family:'Latin Modern Roman';-inkscape-font-specification:'Latin Modern Roman, '"
         id="path5602" />
      <path
         d="m 72.116687,28.045833 v -0.106627 h -0.110066 c -0.309563,0 -0.319882,-0.03783 -0.319882,-0.1651 v -1.929607 c 0,-0.08255 0,-0.08943 -0.07911,-0.08943 -0.213254,0.220134 -0.515938,0.220134 -0.626005,0.220134 v 0.106627 c 0.06879,0 0.271728,0 0.450586,-0.08943 v 1.781705 c 0,0.123825 -0.01032,0.1651 -0.319881,0.1651 h -0.110067 v 0.106627 c 0.120385,-0.01032 0.419629,-0.01032 0.557213,-0.01032 0.137583,0 0.436827,0 0.557212,0.01032 z"
         style="font-size:65%;baseline-shift:sub"
         id="path5604" />
    </g>
    <g
       aria-label="fm"
       id="text3120-1"
       style="font-size:5.29167px;line-height:1.25;font-family:Arial;-inkscape-font-specification:Arial;stroke-width:0.264583">
      <path
         d="m 70.51846,53.670727 c 0,-0.195792 -0.195792,-0.370417 -0.476251,-0.370417 -0.370417,0 -0.820208,0.280458 -0.820208,0.841375 v 0.608542 h -0.418042 v 0.164042 h 0.418042 v 1.714501 c 0,0.238125 -0.05821,0.238125 -0.412751,0.238125 v 0.164042 l 0.603251,-0.01588 c 0.211666,0 0.460375,0 0.672042,0.01588 v -0.164042 h -0.111125 c -0.391584,0 -0.402167,-0.05821 -0.402167,-0.248708 v -1.703918 h 0.60325 v -0.164042 h -0.619125 v -0.613833 c 0,-0.465667 0.254,-0.719667 0.486833,-0.719667 0.01587,0 0.09525,0 0.174625,0.03704 -0.0635,0.02117 -0.15875,0.08996 -0.15875,0.222251 0,0.121708 0.08467,0.227541 0.227542,0.227541 0.153459,0 0.232834,-0.105833 0.232834,-0.232833 z"
         style="font-family:'Latin Modern Roman';-inkscape-font-specification:'Latin Modern Roman, '"
         id="path5607" />
      <path
         d="m 73.044966,58.089271 v -0.106627 c -0.178858,0 -0.264848,0 -0.268288,-0.103188 v -0.65696 c 0,-0.295805 0,-0.402432 -0.106627,-0.526257 -0.04815,-0.05847 -0.16166,-0.127264 -0.361156,-0.127264 -0.288925,0 -0.440267,0.206375 -0.49874,0.337079 -0.04815,-0.299244 -0.302684,-0.337079 -0.457465,-0.337079 -0.25109,0 -0.41275,0.147902 -0.509059,0.361156 v -0.361156 l -0.484981,0.03784 v 0.106627 c 0.240771,0 0.268288,0.02408 0.268288,0.192617 v 0.921809 c 0,0.154781 -0.03784,0.154781 -0.268288,0.154781 v 0.106627 l 0.388673,-0.01032 0.385234,0.01032 v -0.106627 c -0.230453,0 -0.268288,0 -0.268288,-0.154781 v -0.632884 c 0,-0.357717 0.24421,-0.550334 0.464344,-0.550334 0.216694,0 0.254529,0.185738 0.254529,0.381794 v 0.801424 c 0,0.154781 -0.03784,0.154781 -0.268287,0.154781 v 0.106627 l 0.388673,-0.01032 0.385233,0.01032 v -0.106627 c -0.230452,0 -0.268287,0 -0.268287,-0.154781 v -0.632884 c 0,-0.357717 0.24421,-0.550334 0.464344,-0.550334 0.216694,0 0.254529,0.185738 0.254529,0.381794 v 0.801424 c 0,0.154781 -0.03784,0.154781 -0.268288,0.154781 v 0.106627 l 0.388673,-0.01032 z"
         style="font-size:65%;baseline-shift:sub"
         id="path5609" />
    </g>
    <path
       style="fill:none;stroke:#000000;stroke-width:0.264583px;stroke-linecap:butt;stroke-linejoin:miter;stroke-opacity:1;marker-end:url(#TriangleStart-4-3-6)"
       d="m 13.890625,12.964583 c 0,0 5.999684,0.158481 8.170892,1.923442 2.269197,1.844615 1.613947,5.911926 3.712027,7.949062 2.231818,2.166989 6.398679,1.468632 8.568452,3.697744 2.037666,2.093392 3.254288,8.137504 3.254288,8.137504"
       id="path4431"
       sodipodi:nodetypes="caaac" />
    <path
       style="fill:none;stroke:#000000;stroke-width:0.264583px;stroke-linecap:butt;stroke-linejoin:miter;stroke-opacity:1;marker-end:url(#TriangleStart-4-3-6-3)"
       d="m 14.386687,67.406105 c 0,0 5.808045,-0.204755 7.906309,-1.923442 2.262309,-1.853056 1.613947,-5.911926 3.712027,-7.949062 2.231818,-2.166989 6.398679,-1.468632 8.568452,-3.697744 2.037666,-2.093392 3.254288,-8.137504 3.254288,-8.137504"
       id="path4431-5"
       sodipodi:nodetypes="caaac" />
    <path
       style="fill:none;stroke:#000000;stroke-width:0.264583px;stroke-linecap:butt;stroke-linejoin:miter;stroke-opacity:1;marker-end:url(#TriangleStart-4-3-6)"
       d="m 14.780004,26.379502 c 0,0 4.090475,-0.667543 5.790963,0.24974 2.317232,1.24997 2.410286,4.973709 4.618385,6.407685 1.571633,1.020644 3.796639,0.374334 5.503428,1.148038 1.560503,0.707391 4.105712,3.092452 4.105712,3.092452"
       id="path4568"
       sodipodi:nodetypes="caaac" />
    <path
       style="fill:none;stroke:#000000;stroke-width:0.264583px;stroke-linecap:butt;stroke-linejoin:miter;stroke-opacity:1;marker-end:url(#TriangleStart-4-3-6-7)"
       d="m 44.361224,42.898597 c 0,0 4.090475,-0.667543 5.790963,0.24974 2.317232,1.24997 2.410286,4.973709 4.618385,6.407685 1.571633,1.020644 3.796639,0.374334 5.503428,1.148038 1.560503,0.707391 4.105712,3.092452 4.105712,3.092452"
       id="path4568-8"
       sodipodi:nodetypes="caaac" />
    <path
       style="fill:none;stroke:#000000;stroke-width:0.264583px;stroke-linecap:butt;stroke-linejoin:miter;stroke-opacity:1;marker-end:url(#TriangleStart-4-3-6-2)"
       d="m 15.058617,54.269631 c 0,0 4.090475,0.667543 5.790963,-0.24974 2.317233,-1.24997 2.410286,-4.973709 4.618385,-6.407685 1.571633,-1.020644 3.796639,-0.374334 5.503428,-1.148038 1.560503,-0.707391 4.105712,-3.092452 4.105712,-3.092452"
       id="path4568-0"
       sodipodi:nodetypes="caaac" />
    <path
       style="fill:none;stroke:#000000;stroke-width:0.264583px;stroke-linecap:butt;stroke-linejoin:miter;stroke-opacity:1;marker-end:url(#TriangleStart-4-3-6-2-3)"
       d="m 44.361222,37.534735 c 0,0 1.574912,-4.033832 3.343567,-4.946094 1.740998,-0.897997 4.071792,0.905837 5.875156,0.140752 1.80358,-0.765176 2.301856,-3.315435 3.982074,-4.323038 2.013555,-1.2075 6.817691,-1.769535 6.817691,-1.769535"
       id="path4568-0-8"
       sodipodi:nodetypes="caaac" />
    <path
       style="fill:none;stroke:#000000;stroke-width:0.264583px;stroke-linecap:butt;stroke-linejoin:miter;stroke-opacity:1;marker-end:url(#TriangleStart-4-3-6)"
       d="m 14.948958,40.018229 c 0,0 3.129555,-1.427481 4.7625,-1.256771 1.890884,0.197675 3.193867,2.520837 5.094556,2.564399 1.814416,0.04158 3.166082,-2.026616 4.970359,-2.222622 1.496103,-0.162528 4.421022,0.914994 4.421022,0.914994"
       id="path4658"
       sodipodi:nodetypes="caaac" />
    <path
       style="fill:none;stroke:#000000;stroke-width:0.264583px;stroke-linecap:butt;stroke-linejoin:miter;stroke-opacity:1;marker-end:url(#TriangleStart-4-3-6-8)"
       d="m 45.061892,39.933652 c 0,0 3.129555,-1.427481 4.7625,-1.256771 1.890884,0.197675 3.193867,2.520837 5.094556,2.564399 1.814416,0.04158 3.166082,-2.026616 4.970359,-2.222622 1.496103,-0.162528 4.421022,0.914994 4.421022,0.914994"
       id="path4658-4"
       sodipodi:nodetypes="caaac" />
    <g
       id="g796"
       transform="translate(-6.2718735,36.926876)">
      <circle
         style="fill:none;stroke:#a22a17;stroke-width:0.265;stroke-dasharray:none;stroke-opacity:1"
         id="path548-2"
         cx="16.271873"
         cy="32.940624"
         r="5" />
      <g
         aria-label="xn"
         id="text571-8"
         style="font-size:5.29167px;line-height:1.25;font-family:Arial;-inkscape-font-specification:Arial;stroke-width:0.264583">
        <path
           d="m 17.249908,34.345554 v -0.164041 c -0.28575,0 -0.381,-0.01058 -0.502709,-0.164042 l -0.709083,-0.915459 c 0.15875,-0.201084 0.359833,-0.460375 0.486833,-0.597959 0.164042,-0.1905 0.381,-0.269875 0.629709,-0.275167 v -0.164041 c -0.137584,0.01058 -0.296334,0.01588 -0.433917,0.01588 -0.15875,0 -0.439209,-0.01058 -0.508,-0.01588 v 0.164041 c 0.111125,0.01058 0.153458,0.07937 0.153458,0.164042 0,0.08467 -0.05292,0.153459 -0.07938,0.185209 l -0.328083,0.41275 -0.412751,-0.534459 c -0.04763,-0.05292 -0.04763,-0.0635 -0.04763,-0.09525 0,-0.07938 0.07938,-0.127 0.185209,-0.132292 v -0.164041 l -0.571501,0.01588 c -0.111125,0 -0.359833,-0.0053 -0.502708,-0.01588 v 0.164041 c 0.370417,0 0.375708,0.0053 0.624417,0.322792 l 0.523875,0.682626 c -0.248708,0.3175 -0.248708,0.328083 -0.497417,0.629708 -0.254,0.306917 -0.566209,0.317501 -0.677334,0.317501 v 0.164041 c 0.137584,-0.01058 0.301626,-0.01588 0.439209,-0.01588 l 0.502709,0.01588 v -0.164041 c -0.116417,-0.01588 -0.153459,-0.08467 -0.153459,-0.164042 0,-0.116417 0.153459,-0.291042 0.47625,-0.672042 l 0.402167,0.529167 c 0.04233,0.05821 0.111125,0.142875 0.111125,0.174625 0,0.04762 -0.04763,0.127 -0.1905,0.132292 v 0.164041 l 0.571501,-0.01588 c 0.142875,0 0.34925,0.0053 0.508,0.01588 z"
           style="font-family:'Latin Modern Roman';-inkscape-font-specification:'Latin Modern Roman, '"
           id="path5594" />
        <path
           d="m 19.153586,35.403888 v -0.106627 c -0.178859,0 -0.264849,0 -0.268288,-0.103187 v -0.656961 c 0,-0.295804 0,-0.402432 -0.106627,-0.526257 -0.04815,-0.05847 -0.161661,-0.127264 -0.361157,-0.127264 -0.251089,0 -0.41275,0.147902 -0.509058,0.361156 v -0.361156 l -0.484982,0.03784 v 0.106627 c 0.240771,0 0.268288,0.02408 0.268288,0.192617 v 0.921809 c 0,0.154781 -0.03784,0.154781 -0.268288,0.154781 v 0.106627 l 0.388673,-0.01032 0.385234,0.01032 v -0.106627 c -0.230452,0 -0.268288,0 -0.268288,-0.154781 v -0.632884 c 0,-0.357717 0.244211,-0.550333 0.464344,-0.550333 0.216694,0 0.254529,0.185737 0.254529,0.381794 v 0.801423 c 0,0.154781 -0.03784,0.154781 -0.268287,0.154781 v 0.106627 l 0.388673,-0.01032 z"
           style="font-size:65%;baseline-shift:sub"
           id="path5596" />
      </g>
    </g>
  </g>
</svg>
