<?xml version="1.0" encoding="utf-8"?>
<svg xmlns="http://www.w3.org/2000/svg" xmlns:xlink="http://www.w3.org/1999/xlink" width="600" height="400" viewBox="0 0 2400 1600">
<defs>
  <clipPath id="clip580">
    <rect x="0" y="0" width="2400" height="1600"/>
  </clipPath>
</defs>
<path clip-path="url(#clip580)" d="
M0 1600 L2400 1600 L2400 0 L0 0  Z
  " fill="#ffffff" fill-rule="evenodd" fill-opacity="1"/>
<defs>
  <clipPath id="clip581">
    <rect x="480" y="0" width="1681" height="1600"/>
  </clipPath>
</defs>
<path clip-path="url(#clip580)" d="
M156.112 384.294 L2352.76 384.294 L2352.76 47.2441 L156.112 47.2441  Z
  " fill="#ffffff" fill-rule="evenodd" fill-opacity="1"/>
<defs>
  <clipPath id="clip582">
    <rect x="156" y="47" width="2198" height="338"/>
  </clipPath>
</defs>
<polyline clip-path="url(#clip582)" style="stroke:#000000; stroke-linecap:butt; stroke-linejoin:round; stroke-width:2; stroke-opacity:0.1; fill:none" points="
  218.281,384.294 218.281,47.2441 
  "/>
<polyline clip-path="url(#clip582)" style="stroke:#000000; stroke-linecap:butt; stroke-linejoin:round; stroke-width:2; stroke-opacity:0.1; fill:none" points="
  909.05,384.294 909.05,47.2441 
  "/>
<polyline clip-path="url(#clip582)" style="stroke:#000000; stroke-linecap:butt; stroke-linejoin:round; stroke-width:2; stroke-opacity:0.1; fill:none" points="
  1599.82,384.294 1599.82,47.2441 
  "/>
<polyline clip-path="url(#clip582)" style="stroke:#000000; stroke-linecap:butt; stroke-linejoin:round; stroke-width:2; stroke-opacity:0.1; fill:none" points="
  2290.59,384.294 2290.59,47.2441 
  "/>
<polyline clip-path="url(#clip580)" style="stroke:#000000; stroke-linecap:butt; stroke-linejoin:round; stroke-width:4; stroke-opacity:1; fill:none" points="
  156.112,384.294 2352.76,384.294 
  "/>
<polyline clip-path="url(#clip580)" style="stroke:#000000; stroke-linecap:butt; stroke-linejoin:round; stroke-width:4; stroke-opacity:1; fill:none" points="
  218.281,384.294 218.281,365.396 
  "/>
<polyline clip-path="url(#clip580)" style="stroke:#000000; stroke-linecap:butt; stroke-linejoin:round; stroke-width:4; stroke-opacity:1; fill:none" points="
  909.05,384.294 909.05,365.396 
  "/>
<polyline clip-path="url(#clip580)" style="stroke:#000000; stroke-linecap:butt; stroke-linejoin:round; stroke-width:4; stroke-opacity:1; fill:none" points="
  1599.82,384.294 1599.82,365.396 
  "/>
<polyline clip-path="url(#clip580)" style="stroke:#000000; stroke-linecap:butt; stroke-linejoin:round; stroke-width:4; stroke-opacity:1; fill:none" points="
  2290.59,384.294 2290.59,365.396 
  "/>
<path clip-path="url(#clip580)" d="M218.281 413.484 Q214.67 413.484 212.842 417.049 Q211.036 420.591 211.036 427.72 Q211.036 434.827 212.842 438.392 Q214.67 441.933 218.281 441.933 Q221.916 441.933 223.721 438.392 Q225.55 434.827 225.55 427.72 Q225.55 420.591 223.721 417.049 Q221.916 413.484 218.281 413.484 M218.281 409.781 Q224.091 409.781 227.147 414.387 Q230.226 418.97 230.226 427.72 Q230.226 436.447 227.147 441.054 Q224.091 445.637 218.281 445.637 Q212.471 445.637 209.392 441.054 Q206.337 436.447 206.337 427.72 Q206.337 418.97 209.392 414.387 Q212.471 409.781 218.281 409.781 Z" fill="#000000" fill-rule="evenodd" fill-opacity="1" /><path clip-path="url(#clip580)" d="M899.432 441.03 L907.071 441.03 L907.071 414.665 L898.76 416.331 L898.76 412.072 L907.024 410.406 L911.7 410.406 L911.7 441.03 L919.339 441.03 L919.339 444.966 L899.432 444.966 L899.432 441.03 Z" fill="#000000" fill-rule="evenodd" fill-opacity="1" /><path clip-path="url(#clip580)" d="M1594.47 441.03 L1610.79 441.03 L1610.79 444.966 L1588.85 444.966 L1588.85 441.03 Q1591.51 438.276 1596.09 433.646 Q1600.7 428.993 1601.88 427.651 Q1604.12 425.128 1605 423.392 Q1605.91 421.632 1605.91 419.943 Q1605.91 417.188 1603.96 415.452 Q1602.04 413.716 1598.94 413.716 Q1596.74 413.716 1594.29 414.48 Q1591.86 415.244 1589.08 416.794 L1589.08 412.072 Q1591.9 410.938 1594.36 410.359 Q1596.81 409.781 1598.85 409.781 Q1604.22 409.781 1607.41 412.466 Q1610.61 415.151 1610.61 419.642 Q1610.61 421.771 1609.8 423.693 Q1609.01 425.591 1606.9 428.183 Q1606.32 428.855 1603.22 432.072 Q1600.12 435.267 1594.47 441.03 Z" fill="#000000" fill-rule="evenodd" fill-opacity="1" /><path clip-path="url(#clip580)" d="M2294.83 426.331 Q2298.19 427.049 2300.07 429.318 Q2301.96 431.586 2301.96 434.919 Q2301.96 440.035 2298.45 442.836 Q2294.93 445.637 2288.45 445.637 Q2286.27 445.637 2283.95 445.197 Q2281.66 444.78 2279.21 443.924 L2279.21 439.41 Q2281.15 440.544 2283.47 441.123 Q2285.78 441.702 2288.31 441.702 Q2292.7 441.702 2295 439.966 Q2297.31 438.23 2297.31 434.919 Q2297.31 431.864 2295.16 430.151 Q2293.03 428.415 2289.21 428.415 L2285.18 428.415 L2285.18 424.572 L2289.39 424.572 Q2292.84 424.572 2294.67 423.206 Q2296.5 421.818 2296.5 419.225 Q2296.5 416.563 2294.6 415.151 Q2292.73 413.716 2289.21 413.716 Q2287.29 413.716 2285.09 414.132 Q2282.89 414.549 2280.25 415.429 L2280.25 411.262 Q2282.91 410.521 2285.23 410.151 Q2287.57 409.781 2289.63 409.781 Q2294.95 409.781 2298.05 412.211 Q2301.15 414.619 2301.15 418.739 Q2301.15 421.609 2299.51 423.6 Q2297.87 425.568 2294.83 426.331 Z" fill="#000000" fill-rule="evenodd" fill-opacity="1" /><path clip-path="url(#clip580)" d="M1268.61 473.249 Q1268.61 475.053 1267.48 476.083 Q1266.35 477.082 1265.06 477.082 Q1263.84 477.082 1263.2 476.373 Q1262.55 475.665 1262.55 474.763 Q1262.55 473.539 1263.45 472.476 Q1264.36 471.413 1265.71 471.188 Q1264.39 470.351 1262.42 470.351 Q1261.14 470.351 1260.01 471.027 Q1258.91 471.703 1258.24 472.573 Q1257.59 473.442 1257.01 474.698 Q1256.47 475.922 1256.24 476.663 Q1256.05 477.371 1255.89 478.144 L1253.63 487.162 Q1252.54 491.445 1252.54 492.959 Q1252.54 494.827 1253.44 496.083 Q1254.34 497.307 1256.14 497.307 Q1256.85 497.307 1257.66 497.114 Q1258.46 496.888 1259.49 496.309 Q1260.56 495.697 1261.49 494.795 Q1262.46 493.861 1263.39 492.283 Q1264.32 490.705 1264.94 488.676 Q1265.13 487.967 1265.77 487.967 Q1266.58 487.967 1266.58 488.611 Q1266.58 489.159 1266.13 490.318 Q1265.71 491.445 1264.77 492.927 Q1263.87 494.376 1262.68 495.697 Q1261.49 496.985 1259.72 497.887 Q1257.95 498.788 1256.01 498.788 Q1253.25 498.788 1251.41 497.307 Q1249.57 495.825 1248.9 493.764 Q1248.74 494.054 1248.51 494.441 Q1248.29 494.827 1247.61 495.697 Q1246.97 496.534 1246.22 497.178 Q1245.48 497.79 1244.32 498.273 Q1243.2 498.788 1241.97 498.788 Q1240.43 498.788 1239.04 498.338 Q1237.69 497.887 1236.72 496.856 Q1235.76 495.825 1235.76 494.408 Q1235.76 492.83 1236.82 491.735 Q1237.92 490.608 1239.4 490.608 Q1240.33 490.608 1241.07 491.156 Q1241.84 491.703 1241.84 492.895 Q1241.84 494.215 1240.94 495.214 Q1240.04 496.212 1238.75 496.47 Q1240.07 497.307 1242.04 497.307 Q1244.16 497.307 1245.84 495.439 Q1247.51 493.571 1248.32 490.447 Q1250.31 482.943 1251.09 479.594 Q1251.86 476.212 1251.86 474.763 Q1251.86 473.41 1251.51 472.476 Q1251.15 471.542 1250.54 471.124 Q1249.96 470.673 1249.41 470.512 Q1248.9 470.351 1248.32 470.351 Q1247.35 470.351 1246.26 470.737 Q1245.19 471.124 1243.91 472.025 Q1242.65 472.895 1241.46 474.698 Q1240.27 476.502 1239.46 478.982 Q1239.3 479.723 1238.59 479.723 Q1237.82 479.69 1237.82 479.046 Q1237.82 478.499 1238.24 477.371 Q1238.69 476.212 1239.59 474.763 Q1240.52 473.314 1241.72 472.025 Q1242.94 470.705 1244.71 469.803 Q1246.51 468.901 1248.45 468.901 Q1249.32 468.901 1250.15 469.095 Q1251.02 469.256 1252.05 469.739 Q1253.12 470.222 1254.05 471.285 Q1254.98 472.347 1255.56 473.893 Q1255.95 473.153 1256.47 472.444 Q1257.01 471.735 1257.85 470.866 Q1258.72 469.964 1259.91 469.449 Q1261.14 468.901 1262.49 468.901 Q1263.81 468.901 1265.1 469.256 Q1266.39 469.578 1267.48 470.64 Q1268.61 471.671 1268.61 473.249 Z" fill="#000000" fill-rule="evenodd" fill-opacity="1" /><polyline clip-path="url(#clip582)" style="stroke:#000000; stroke-linecap:butt; stroke-linejoin:round; stroke-width:2; stroke-opacity:0.1; fill:none" points="
  156.112,374.754 2352.76,374.754 
  "/>
<polyline clip-path="url(#clip582)" style="stroke:#000000; stroke-linecap:butt; stroke-linejoin:round; stroke-width:2; stroke-opacity:0.1; fill:none" points="
  156.112,310.91 2352.76,310.91 
  "/>
<polyline clip-path="url(#clip582)" style="stroke:#000000; stroke-linecap:butt; stroke-linejoin:round; stroke-width:2; stroke-opacity:0.1; fill:none" points="
  156.112,247.066 2352.76,247.066 
  "/>
<polyline clip-path="url(#clip582)" style="stroke:#000000; stroke-linecap:butt; stroke-linejoin:round; stroke-width:2; stroke-opacity:0.1; fill:none" points="
  156.112,183.222 2352.76,183.222 
  "/>
<polyline clip-path="url(#clip582)" style="stroke:#000000; stroke-linecap:butt; stroke-linejoin:round; stroke-width:2; stroke-opacity:0.1; fill:none" points="
  156.112,119.378 2352.76,119.378 
  "/>
<polyline clip-path="url(#clip582)" style="stroke:#000000; stroke-linecap:butt; stroke-linejoin:round; stroke-width:2; stroke-opacity:0.1; fill:none" points="
  156.112,55.5344 2352.76,55.5344 
  "/>
<polyline clip-path="url(#clip580)" style="stroke:#000000; stroke-linecap:butt; stroke-linejoin:round; stroke-width:4; stroke-opacity:1; fill:none" points="
  156.112,384.294 156.112,47.2441 
  "/>
<polyline clip-path="url(#clip580)" style="stroke:#000000; stroke-linecap:butt; stroke-linejoin:round; stroke-width:4; stroke-opacity:1; fill:none" points="
  156.112,374.754 175.01,374.754 
  "/>
<polyline clip-path="url(#clip580)" style="stroke:#000000; stroke-linecap:butt; stroke-linejoin:round; stroke-width:4; stroke-opacity:1; fill:none" points="
  156.112,310.91 175.01,310.91 
  "/>
<polyline clip-path="url(#clip580)" style="stroke:#000000; stroke-linecap:butt; stroke-linejoin:round; stroke-width:4; stroke-opacity:1; fill:none" points="
  156.112,247.066 175.01,247.066 
  "/>
<polyline clip-path="url(#clip580)" style="stroke:#000000; stroke-linecap:butt; stroke-linejoin:round; stroke-width:4; stroke-opacity:1; fill:none" points="
  156.112,183.222 175.01,183.222 
  "/>
<polyline clip-path="url(#clip580)" style="stroke:#000000; stroke-linecap:butt; stroke-linejoin:round; stroke-width:4; stroke-opacity:1; fill:none" points="
  156.112,119.378 175.01,119.378 
  "/>
<polyline clip-path="url(#clip580)" style="stroke:#000000; stroke-linecap:butt; stroke-linejoin:round; stroke-width:4; stroke-opacity:1; fill:none" points="
  156.112,55.5344 175.01,55.5344 
  "/>
<path clip-path="url(#clip580)" d="M62.9365 360.553 Q59.3254 360.553 57.4967 364.118 Q55.6912 367.66 55.6912 374.789 Q55.6912 381.896 57.4967 385.46 Q59.3254 389.002 62.9365 389.002 Q66.5707 389.002 68.3763 385.46 Q70.205 381.896 70.205 374.789 Q70.205 367.66 68.3763 364.118 Q66.5707 360.553 62.9365 360.553 M62.9365 356.849 Q68.7467 356.849 71.8022 361.456 Q74.8809 366.039 74.8809 374.789 Q74.8809 383.516 71.8022 388.122 Q68.7467 392.706 62.9365 392.706 Q57.1264 392.706 54.0477 388.122 Q50.9921 383.516 50.9921 374.789 Q50.9921 366.039 54.0477 361.456 Q57.1264 356.849 62.9365 356.849 Z" fill="#000000" fill-rule="evenodd" fill-opacity="1" /><path clip-path="url(#clip580)" d="M83.0984 386.155 L87.9827 386.155 L87.9827 392.034 L83.0984 392.034 L83.0984 386.155 Z" fill="#000000" fill-rule="evenodd" fill-opacity="1" /><path clip-path="url(#clip580)" d="M108.168 360.553 Q104.557 360.553 102.728 364.118 Q100.922 367.66 100.922 374.789 Q100.922 381.896 102.728 385.46 Q104.557 389.002 108.168 389.002 Q111.802 389.002 113.608 385.46 Q115.436 381.896 115.436 374.789 Q115.436 367.66 113.608 364.118 Q111.802 360.553 108.168 360.553 M108.168 356.849 Q113.978 356.849 117.033 361.456 Q120.112 366.039 120.112 374.789 Q120.112 383.516 117.033 388.122 Q113.978 392.706 108.168 392.706 Q102.358 392.706 99.2789 388.122 Q96.2234 383.516 96.2234 374.789 Q96.2234 366.039 99.2789 361.456 Q102.358 356.849 108.168 356.849 Z" fill="#000000" fill-rule="evenodd" fill-opacity="1" /><path clip-path="url(#clip580)" d="M63.9319 296.709 Q60.3208 296.709 58.4921 300.274 Q56.6865 303.816 56.6865 310.945 Q56.6865 318.052 58.4921 321.616 Q60.3208 325.158 63.9319 325.158 Q67.5661 325.158 69.3717 321.616 Q71.2004 318.052 71.2004 310.945 Q71.2004 303.816 69.3717 300.274 Q67.5661 296.709 63.9319 296.709 M63.9319 293.005 Q69.742 293.005 72.7976 297.612 Q75.8763 302.195 75.8763 310.945 Q75.8763 319.672 72.7976 324.278 Q69.742 328.862 63.9319 328.862 Q58.1217 328.862 55.043 324.278 Q51.9875 319.672 51.9875 310.945 Q51.9875 302.195 55.043 297.612 Q58.1217 293.005 63.9319 293.005 Z" fill="#000000" fill-rule="evenodd" fill-opacity="1" /><path clip-path="url(#clip580)" d="M84.0938 322.311 L88.978 322.311 L88.978 328.19 L84.0938 328.19 L84.0938 322.311 Z" fill="#000000" fill-rule="evenodd" fill-opacity="1" /><path clip-path="url(#clip580)" d="M99.2095 293.63 L117.566 293.63 L117.566 297.566 L103.492 297.566 L103.492 306.038 Q104.51 305.691 105.529 305.529 Q106.547 305.343 107.566 305.343 Q113.353 305.343 116.733 308.515 Q120.112 311.686 120.112 317.103 Q120.112 322.681 116.64 325.783 Q113.168 328.862 106.848 328.862 Q104.672 328.862 102.404 328.491 Q100.159 328.121 97.7511 327.38 L97.7511 322.681 Q99.8345 323.815 102.057 324.371 Q104.279 324.927 106.756 324.927 Q110.76 324.927 113.098 322.82 Q115.436 320.714 115.436 317.103 Q115.436 313.491 113.098 311.385 Q110.76 309.279 106.756 309.279 Q104.881 309.279 103.006 309.695 Q101.154 310.112 99.2095 310.991 L99.2095 293.63 Z" fill="#000000" fill-rule="evenodd" fill-opacity="1" /><path clip-path="url(#clip580)" d="M53.7467 260.411 L61.3856 260.411 L61.3856 234.046 L53.0754 235.712 L53.0754 231.453 L61.3393 229.786 L66.0152 229.786 L66.0152 260.411 L73.654 260.411 L73.654 264.346 L53.7467 264.346 L53.7467 260.411 Z" fill="#000000" fill-rule="evenodd" fill-opacity="1" /><path clip-path="url(#clip580)" d="M83.0984 258.467 L87.9827 258.467 L87.9827 264.346 L83.0984 264.346 L83.0984 258.467 Z" fill="#000000" fill-rule="evenodd" fill-opacity="1" /><path clip-path="url(#clip580)" d="M108.168 232.865 Q104.557 232.865 102.728 236.43 Q100.922 239.972 100.922 247.101 Q100.922 254.208 102.728 257.772 Q104.557 261.314 108.168 261.314 Q111.802 261.314 113.608 257.772 Q115.436 254.208 115.436 247.101 Q115.436 239.972 113.608 236.43 Q111.802 232.865 108.168 232.865 M108.168 229.161 Q113.978 229.161 117.033 233.768 Q120.112 238.351 120.112 247.101 Q120.112 255.828 117.033 260.434 Q113.978 265.018 108.168 265.018 Q102.358 265.018 99.2789 260.434 Q96.2234 255.828 96.2234 247.101 Q96.2234 238.351 99.2789 233.768 Q102.358 229.161 108.168 229.161 Z" fill="#000000" fill-rule="evenodd" fill-opacity="1" /><path clip-path="url(#clip580)" d="M54.7421 196.567 L62.381 196.567 L62.381 170.202 L54.0708 171.868 L54.0708 167.609 L62.3347 165.942 L67.0106 165.942 L67.0106 196.567 L74.6494 196.567 L74.6494 200.502 L54.7421 200.502 L54.7421 196.567 Z" fill="#000000" fill-rule="evenodd" fill-opacity="1" /><path clip-path="url(#clip580)" d="M84.0938 194.623 L88.978 194.623 L88.978 200.502 L84.0938 200.502 L84.0938 194.623 Z" fill="#000000" fill-rule="evenodd" fill-opacity="1" /><path clip-path="url(#clip580)" d="M99.2095 165.942 L117.566 165.942 L117.566 169.878 L103.492 169.878 L103.492 178.35 Q104.51 178.003 105.529 177.841 Q106.547 177.655 107.566 177.655 Q113.353 177.655 116.733 180.827 Q120.112 183.998 120.112 189.415 Q120.112 194.993 116.64 198.095 Q113.168 201.174 106.848 201.174 Q104.672 201.174 102.404 200.803 Q100.159 200.433 97.7511 199.692 L97.7511 194.993 Q99.8345 196.127 102.057 196.683 Q104.279 197.239 106.756 197.239 Q110.76 197.239 113.098 195.132 Q115.436 193.026 115.436 189.415 Q115.436 185.803 113.098 183.697 Q110.76 181.59 106.756 181.59 Q104.881 181.59 103.006 182.007 Q101.154 182.424 99.2095 183.303 L99.2095 165.942 Z" fill="#000000" fill-rule="evenodd" fill-opacity="1" /><path clip-path="url(#clip580)" d="M56.9643 132.723 L73.2837 132.723 L73.2837 136.658 L51.3393 136.658 L51.3393 132.723 Q54.0014 129.969 58.5847 125.339 Q63.1911 120.686 64.3717 119.344 Q66.617 116.821 67.4967 115.084 Q68.3994 113.325 68.3994 111.635 Q68.3994 108.881 66.455 107.145 Q64.5337 105.409 61.4319 105.409 Q59.2328 105.409 56.7791 106.172 Q54.3486 106.936 51.5708 108.487 L51.5708 103.765 Q54.3949 102.631 56.8486 102.052 Q59.3023 101.473 61.3393 101.473 Q66.7096 101.473 69.9041 104.159 Q73.0985 106.844 73.0985 111.334 Q73.0985 113.464 72.2883 115.385 Q71.5013 117.284 69.3948 119.876 Q68.8161 120.547 65.7143 123.765 Q62.6124 126.959 56.9643 132.723 Z" fill="#000000" fill-rule="evenodd" fill-opacity="1" /><path clip-path="url(#clip580)" d="M83.0984 130.779 L87.9827 130.779 L87.9827 136.658 L83.0984 136.658 L83.0984 130.779 Z" fill="#000000" fill-rule="evenodd" fill-opacity="1" /><path clip-path="url(#clip580)" d="M108.168 105.177 Q104.557 105.177 102.728 108.742 Q100.922 112.284 100.922 119.413 Q100.922 126.52 102.728 130.084 Q104.557 133.626 108.168 133.626 Q111.802 133.626 113.608 130.084 Q115.436 126.52 115.436 119.413 Q115.436 112.284 113.608 108.742 Q111.802 105.177 108.168 105.177 M108.168 101.473 Q113.978 101.473 117.033 106.08 Q120.112 110.663 120.112 119.413 Q120.112 128.14 117.033 132.746 Q113.978 137.33 108.168 137.33 Q102.358 137.33 99.2789 132.746 Q96.2234 128.14 96.2234 119.413 Q96.2234 110.663 99.2789 106.08 Q102.358 101.473 108.168 101.473 Z" fill="#000000" fill-rule="evenodd" fill-opacity="1" /><path clip-path="url(#clip580)" d="M57.9597 68.8792 L74.279 68.8792 L74.279 72.8144 L52.3347 72.8144 L52.3347 68.8792 Q54.9967 66.1246 59.58 61.495 Q64.1865 56.8423 65.367 55.4997 Q67.6124 52.9766 68.492 51.2405 Q69.3948 49.4812 69.3948 47.7914 Q69.3948 45.0368 67.4504 43.3007 Q65.5291 41.5646 62.4272 41.5646 Q60.2282 41.5646 57.7745 42.3285 Q55.344 43.0923 52.5662 44.6433 L52.5662 39.9211 Q55.3903 38.7868 57.8439 38.2081 Q60.2976 37.6294 62.3347 37.6294 Q67.705 37.6294 70.8994 40.3146 Q74.0939 42.9998 74.0939 47.4905 Q74.0939 49.6201 73.2837 51.5414 Q72.4966 53.4395 70.3902 56.0321 Q69.8115 56.7034 66.7096 59.921 Q63.6078 63.1154 57.9597 68.8792 Z" fill="#000000" fill-rule="evenodd" fill-opacity="1" /><path clip-path="url(#clip580)" d="M84.0938 66.9348 L88.978 66.9348 L88.978 72.8144 L84.0938 72.8144 L84.0938 66.9348 Z" fill="#000000" fill-rule="evenodd" fill-opacity="1" /><path clip-path="url(#clip580)" d="M99.2095 38.2544 L117.566 38.2544 L117.566 42.1896 L103.492 42.1896 L103.492 50.6618 Q104.51 50.3145 105.529 50.1525 Q106.547 49.9673 107.566 49.9673 Q113.353 49.9673 116.733 53.1386 Q120.112 56.3099 120.112 61.7265 Q120.112 67.3052 116.64 70.407 Q113.168 73.4857 106.848 73.4857 Q104.672 73.4857 102.404 73.1153 Q100.159 72.745 97.7511 72.0042 L97.7511 67.3052 Q99.8345 68.4394 102.057 68.995 Q104.279 69.5505 106.756 69.5505 Q110.76 69.5505 113.098 67.4441 Q115.436 65.3376 115.436 61.7265 Q115.436 58.1154 113.098 56.0089 Q110.76 53.9025 106.756 53.9025 Q104.881 53.9025 103.006 54.3191 Q101.154 54.7358 99.2095 55.6154 L99.2095 38.2544 Z" fill="#000000" fill-rule="evenodd" fill-opacity="1" /><polyline clip-path="url(#clip582)" style="stroke:#ff0000; stroke-linecap:butt; stroke-linejoin:round; stroke-width:8; stroke-opacity:1; fill:none" points="
  218.281,374.754 223.341,373.805 228.4,372.828 233.46,371.823 238.519,370.788 285.301,359.731 332.083,345.682 378.865,328.277 425.646,307.315 453.76,293.011 
  481.874,277.491 509.988,260.865 538.102,243.287 585.642,211.998 633.182,179.886 684.824,145.913 736.465,115.027 760.27,102.421 784.074,91.1031 807.879,81.2321 
  831.684,72.936 857.204,65.8986 882.725,60.8525 908.246,57.8218 933.767,56.7832 963.336,57.9793 992.905,61.5845 1022.47,67.3668 1052.04,75.0494 1104.6,92.4328 
  1157.15,113.055 1203.24,132.456 1249.32,152.045 1299.57,172.685 1349.81,191.85 1400.35,209.151 1450.9,224.2 1506.78,238.099 1562.66,249.139 1615.83,257.074 
  1669.01,262.601 1724.29,265.867 1779.58,266.615 1826.12,265.239 1872.65,261.915 1929.47,254.947 1986.29,244.314 2013,237.862 2039.7,230.36 2066.41,221.708 
  2093.11,211.79 2114.5,202.849 2135.9,192.945 2157.29,182 2178.68,169.935 2200.07,156.664 2221.47,142.098 2242.86,126.145 2264.25,108.711 2270.83,103.032 
  2277.42,97.2006 2284,91.2148 2290.59,85.0716 
  "/>
<path clip-path="url(#clip582)" d="
M218.281 154.193 L2290.59 154.193 L2290.59 374.754 L218.281 374.754  Z
  " fill="#0000ff" fill-rule="evenodd" fill-opacity="0.1"/>
<polyline clip-path="url(#clip582)" style="stroke:#0000ff; stroke-linecap:butt; stroke-linejoin:round; stroke-width:8; stroke-opacity:1; fill:none" points="
  218.281,154.193 2290.59,154.193 
  "/>
<path clip-path="url(#clip582)" d="M1254.43 170.193 L1243.12 165.505 L1238.43 154.193 L1243.12 142.881 L1254.43 138.193 L1265.75 142.881 L1270.43 154.193 L1265.75 165.505 Z" fill="#add8e6" fill-rule="evenodd" fill-opacity="1" stroke="#000000" stroke-opacity="1" stroke-width="3.2"/>
<path clip-path="url(#clip580)" d="
M156.112 917.627 L2352.76 917.627 L2352.76 580.577 L156.112 580.577  Z
  " fill="#ffffff" fill-rule="evenodd" fill-opacity="1"/>
<defs>
  <clipPath id="clip583">
    <rect x="156" y="580" width="2198" height="338"/>
  </clipPath>
</defs>
<polyline clip-path="url(#clip583)" style="stroke:#000000; stroke-linecap:butt; stroke-linejoin:round; stroke-width:2; stroke-opacity:0.1; fill:none" points="
  218.281,917.627 218.281,580.577 
  "/>
<polyline clip-path="url(#clip583)" style="stroke:#000000; stroke-linecap:butt; stroke-linejoin:round; stroke-width:2; stroke-opacity:0.1; fill:none" points="
  909.05,917.627 909.05,580.577 
  "/>
<polyline clip-path="url(#clip583)" style="stroke:#000000; stroke-linecap:butt; stroke-linejoin:round; stroke-width:2; stroke-opacity:0.1; fill:none" points="
  1599.82,917.627 1599.82,580.577 
  "/>
<polyline clip-path="url(#clip583)" style="stroke:#000000; stroke-linecap:butt; stroke-linejoin:round; stroke-width:2; stroke-opacity:0.1; fill:none" points="
  2290.59,917.627 2290.59,580.577 
  "/>
<polyline clip-path="url(#clip580)" style="stroke:#000000; stroke-linecap:butt; stroke-linejoin:round; stroke-width:4; stroke-opacity:1; fill:none" points="
  156.112,917.627 2352.76,917.627 
  "/>
<polyline clip-path="url(#clip580)" style="stroke:#000000; stroke-linecap:butt; stroke-linejoin:round; stroke-width:4; stroke-opacity:1; fill:none" points="
  218.281,917.627 218.281,898.729 
  "/>
<polyline clip-path="url(#clip580)" style="stroke:#000000; stroke-linecap:butt; stroke-linejoin:round; stroke-width:4; stroke-opacity:1; fill:none" points="
  909.05,917.627 909.05,898.729 
  "/>
<polyline clip-path="url(#clip580)" style="stroke:#000000; stroke-linecap:butt; stroke-linejoin:round; stroke-width:4; stroke-opacity:1; fill:none" points="
  1599.82,917.627 1599.82,898.729 
  "/>
<polyline clip-path="url(#clip580)" style="stroke:#000000; stroke-linecap:butt; stroke-linejoin:round; stroke-width:4; stroke-opacity:1; fill:none" points="
  2290.59,917.627 2290.59,898.729 
  "/>
<path clip-path="url(#clip580)" d="M218.281 946.818 Q214.67 946.818 212.842 950.382 Q211.036 953.924 211.036 961.054 Q211.036 968.16 212.842 971.725 Q214.67 975.267 218.281 975.267 Q221.916 975.267 223.721 971.725 Q225.55 968.16 225.55 961.054 Q225.55 953.924 223.721 950.382 Q221.916 946.818 218.281 946.818 M218.281 943.114 Q224.091 943.114 227.147 947.72 Q230.226 952.304 230.226 961.054 Q230.226 969.78 227.147 974.387 Q224.091 978.97 218.281 978.97 Q212.471 978.97 209.392 974.387 Q206.337 969.78 206.337 961.054 Q206.337 952.304 209.392 947.72 Q212.471 943.114 218.281 943.114 Z" fill="#000000" fill-rule="evenodd" fill-opacity="1" /><path clip-path="url(#clip580)" d="M899.432 974.364 L907.071 974.364 L907.071 947.998 L898.76 949.665 L898.76 945.406 L907.024 943.739 L911.7 943.739 L911.7 974.364 L919.339 974.364 L919.339 978.299 L899.432 978.299 L899.432 974.364 Z" fill="#000000" fill-rule="evenodd" fill-opacity="1" /><path clip-path="url(#clip580)" d="M1594.47 974.364 L1610.79 974.364 L1610.79 978.299 L1588.85 978.299 L1588.85 974.364 Q1591.51 971.609 1596.09 966.98 Q1600.7 962.327 1601.88 960.984 Q1604.12 958.461 1605 956.725 Q1605.91 954.966 1605.91 953.276 Q1605.91 950.521 1603.96 948.785 Q1602.04 947.049 1598.94 947.049 Q1596.74 947.049 1594.29 947.813 Q1591.86 948.577 1589.08 950.128 L1589.08 945.406 Q1591.9 944.271 1594.36 943.693 Q1596.81 943.114 1598.85 943.114 Q1604.22 943.114 1607.41 945.799 Q1610.61 948.484 1610.61 952.975 Q1610.61 955.105 1609.8 957.026 Q1609.01 958.924 1606.9 961.517 Q1606.32 962.188 1603.22 965.405 Q1600.12 968.6 1594.47 974.364 Z" fill="#000000" fill-rule="evenodd" fill-opacity="1" /><path clip-path="url(#clip580)" d="M2294.83 959.665 Q2298.19 960.382 2300.07 962.651 Q2301.96 964.919 2301.96 968.253 Q2301.96 973.368 2298.45 976.169 Q2294.93 978.97 2288.45 978.97 Q2286.27 978.97 2283.95 978.53 Q2281.66 978.114 2279.21 977.257 L2279.21 972.743 Q2281.15 973.878 2283.47 974.456 Q2285.78 975.035 2288.31 975.035 Q2292.7 975.035 2295 973.299 Q2297.31 971.563 2297.31 968.253 Q2297.31 965.197 2295.16 963.484 Q2293.03 961.748 2289.21 961.748 L2285.18 961.748 L2285.18 957.906 L2289.39 957.906 Q2292.84 957.906 2294.67 956.54 Q2296.5 955.151 2296.5 952.558 Q2296.5 949.896 2294.6 948.484 Q2292.73 947.049 2289.21 947.049 Q2287.29 947.049 2285.09 947.466 Q2282.89 947.882 2280.25 948.762 L2280.25 944.595 Q2282.91 943.855 2285.23 943.484 Q2287.57 943.114 2289.63 943.114 Q2294.95 943.114 2298.05 945.544 Q2301.15 947.952 2301.15 952.072 Q2301.15 954.943 2299.51 956.933 Q2297.87 958.901 2294.83 959.665 Z" fill="#000000" fill-rule="evenodd" fill-opacity="1" /><path clip-path="url(#clip580)" d="M1268.61 1006.58 Q1268.61 1008.39 1267.48 1009.42 Q1266.35 1010.41 1265.06 1010.41 Q1263.84 1010.41 1263.2 1009.71 Q1262.55 1009 1262.55 1008.1 Q1262.55 1006.87 1263.45 1005.81 Q1264.36 1004.75 1265.71 1004.52 Q1264.39 1003.68 1262.42 1003.68 Q1261.14 1003.68 1260.01 1004.36 Q1258.91 1005.04 1258.24 1005.91 Q1257.59 1006.78 1257.01 1008.03 Q1256.47 1009.26 1256.24 1010 Q1256.05 1010.7 1255.89 1011.48 L1253.63 1020.5 Q1252.54 1024.78 1252.54 1026.29 Q1252.54 1028.16 1253.44 1029.42 Q1254.34 1030.64 1256.14 1030.64 Q1256.85 1030.64 1257.66 1030.45 Q1258.46 1030.22 1259.49 1029.64 Q1260.56 1029.03 1261.49 1028.13 Q1262.46 1027.19 1263.39 1025.62 Q1264.32 1024.04 1264.94 1022.01 Q1265.13 1021.3 1265.77 1021.3 Q1266.58 1021.3 1266.58 1021.94 Q1266.58 1022.49 1266.13 1023.65 Q1265.71 1024.78 1264.77 1026.26 Q1263.87 1027.71 1262.68 1029.03 Q1261.49 1030.32 1259.72 1031.22 Q1257.95 1032.12 1256.01 1032.12 Q1253.25 1032.12 1251.41 1030.64 Q1249.57 1029.16 1248.9 1027.1 Q1248.74 1027.39 1248.51 1027.77 Q1248.29 1028.16 1247.61 1029.03 Q1246.97 1029.87 1246.22 1030.51 Q1245.48 1031.12 1244.32 1031.61 Q1243.2 1032.12 1241.97 1032.12 Q1240.43 1032.12 1239.04 1031.67 Q1237.69 1031.22 1236.72 1030.19 Q1235.76 1029.16 1235.76 1027.74 Q1235.76 1026.16 1236.82 1025.07 Q1237.92 1023.94 1239.4 1023.94 Q1240.33 1023.94 1241.07 1024.49 Q1241.84 1025.04 1241.84 1026.23 Q1241.84 1027.55 1240.94 1028.55 Q1240.04 1029.55 1238.75 1029.8 Q1240.07 1030.64 1242.04 1030.64 Q1244.16 1030.64 1245.84 1028.77 Q1247.51 1026.9 1248.32 1023.78 Q1250.31 1016.28 1251.09 1012.93 Q1251.86 1009.55 1251.86 1008.1 Q1251.86 1006.74 1251.51 1005.81 Q1251.15 1004.88 1250.54 1004.46 Q1249.96 1004.01 1249.41 1003.84 Q1248.9 1003.68 1248.32 1003.68 Q1247.35 1003.68 1246.26 1004.07 Q1245.19 1004.46 1243.91 1005.36 Q1242.65 1006.23 1241.46 1008.03 Q1240.27 1009.84 1239.46 1012.32 Q1239.3 1013.06 1238.59 1013.06 Q1237.82 1013.02 1237.82 1012.38 Q1237.82 1011.83 1238.24 1010.7 Q1238.69 1009.55 1239.59 1008.1 Q1240.52 1006.65 1241.72 1005.36 Q1242.94 1004.04 1244.71 1003.14 Q1246.51 1002.23 1248.45 1002.23 Q1249.32 1002.23 1250.15 1002.43 Q1251.02 1002.59 1252.05 1003.07 Q1253.12 1003.56 1254.05 1004.62 Q1254.98 1005.68 1255.56 1007.23 Q1255.95 1006.49 1256.47 1005.78 Q1257.01 1005.07 1257.85 1004.2 Q1258.72 1003.3 1259.91 1002.78 Q1261.14 1002.23 1262.49 1002.23 Q1263.81 1002.23 1265.1 1002.59 Q1266.39 1002.91 1267.48 1003.97 Q1268.61 1005 1268.61 1006.58 Z" fill="#000000" fill-rule="evenodd" fill-opacity="1" /><polyline clip-path="url(#clip583)" style="stroke:#000000; stroke-linecap:butt; stroke-linejoin:round; stroke-width:2; stroke-opacity:0.1; fill:none" points="
  156.112,908.088 2352.76,908.088 
  "/>
<polyline clip-path="url(#clip583)" style="stroke:#000000; stroke-linecap:butt; stroke-linejoin:round; stroke-width:2; stroke-opacity:0.1; fill:none" points="
  156.112,844.244 2352.76,844.244 
  "/>
<polyline clip-path="url(#clip583)" style="stroke:#000000; stroke-linecap:butt; stroke-linejoin:round; stroke-width:2; stroke-opacity:0.1; fill:none" points="
  156.112,780.4 2352.76,780.4 
  "/>
<polyline clip-path="url(#clip583)" style="stroke:#000000; stroke-linecap:butt; stroke-linejoin:round; stroke-width:2; stroke-opacity:0.1; fill:none" points="
  156.112,716.556 2352.76,716.556 
  "/>
<polyline clip-path="url(#clip583)" style="stroke:#000000; stroke-linecap:butt; stroke-linejoin:round; stroke-width:2; stroke-opacity:0.1; fill:none" points="
  156.112,652.712 2352.76,652.712 
  "/>
<polyline clip-path="url(#clip583)" style="stroke:#000000; stroke-linecap:butt; stroke-linejoin:round; stroke-width:2; stroke-opacity:0.1; fill:none" points="
  156.112,588.868 2352.76,588.868 
  "/>
<polyline clip-path="url(#clip580)" style="stroke:#000000; stroke-linecap:butt; stroke-linejoin:round; stroke-width:4; stroke-opacity:1; fill:none" points="
  156.112,917.627 156.112,580.577 
  "/>
<polyline clip-path="url(#clip580)" style="stroke:#000000; stroke-linecap:butt; stroke-linejoin:round; stroke-width:4; stroke-opacity:1; fill:none" points="
  156.112,908.088 175.01,908.088 
  "/>
<polyline clip-path="url(#clip580)" style="stroke:#000000; stroke-linecap:butt; stroke-linejoin:round; stroke-width:4; stroke-opacity:1; fill:none" points="
  156.112,844.244 175.01,844.244 
  "/>
<polyline clip-path="url(#clip580)" style="stroke:#000000; stroke-linecap:butt; stroke-linejoin:round; stroke-width:4; stroke-opacity:1; fill:none" points="
  156.112,780.4 175.01,780.4 
  "/>
<polyline clip-path="url(#clip580)" style="stroke:#000000; stroke-linecap:butt; stroke-linejoin:round; stroke-width:4; stroke-opacity:1; fill:none" points="
  156.112,716.556 175.01,716.556 
  "/>
<polyline clip-path="url(#clip580)" style="stroke:#000000; stroke-linecap:butt; stroke-linejoin:round; stroke-width:4; stroke-opacity:1; fill:none" points="
  156.112,652.712 175.01,652.712 
  "/>
<polyline clip-path="url(#clip580)" style="stroke:#000000; stroke-linecap:butt; stroke-linejoin:round; stroke-width:4; stroke-opacity:1; fill:none" points="
  156.112,588.868 175.01,588.868 
  "/>
<path clip-path="url(#clip580)" d="M62.9365 893.886 Q59.3254 893.886 57.4967 897.451 Q55.6912 900.993 55.6912 908.123 Q55.6912 915.229 57.4967 918.794 Q59.3254 922.335 62.9365 922.335 Q66.5707 922.335 68.3763 918.794 Q70.205 915.229 70.205 908.123 Q70.205 900.993 68.3763 897.451 Q66.5707 893.886 62.9365 893.886 M62.9365 890.183 Q68.7467 890.183 71.8022 894.789 Q74.8809 899.373 74.8809 908.123 Q74.8809 916.849 71.8022 921.456 Q68.7467 926.039 62.9365 926.039 Q57.1264 926.039 54.0477 921.456 Q50.9921 916.849 50.9921 908.123 Q50.9921 899.373 54.0477 894.789 Q57.1264 890.183 62.9365 890.183 Z" fill="#000000" fill-rule="evenodd" fill-opacity="1" /><path clip-path="url(#clip580)" d="M83.0984 919.488 L87.9827 919.488 L87.9827 925.368 L83.0984 925.368 L83.0984 919.488 Z" fill="#000000" fill-rule="evenodd" fill-opacity="1" /><path clip-path="url(#clip580)" d="M108.168 893.886 Q104.557 893.886 102.728 897.451 Q100.922 900.993 100.922 908.123 Q100.922 915.229 102.728 918.794 Q104.557 922.335 108.168 922.335 Q111.802 922.335 113.608 918.794 Q115.436 915.229 115.436 908.123 Q115.436 900.993 113.608 897.451 Q111.802 893.886 108.168 893.886 M108.168 890.183 Q113.978 890.183 117.033 894.789 Q120.112 899.373 120.112 908.123 Q120.112 916.849 117.033 921.456 Q113.978 926.039 108.168 926.039 Q102.358 926.039 99.2789 921.456 Q96.2234 916.849 96.2234 908.123 Q96.2234 899.373 99.2789 894.789 Q102.358 890.183 108.168 890.183 Z" fill="#000000" fill-rule="evenodd" fill-opacity="1" /><path clip-path="url(#clip580)" d="M63.9319 830.042 Q60.3208 830.042 58.4921 833.607 Q56.6865 837.149 56.6865 844.279 Q56.6865 851.385 58.4921 854.95 Q60.3208 858.491 63.9319 858.491 Q67.5661 858.491 69.3717 854.95 Q71.2004 851.385 71.2004 844.279 Q71.2004 837.149 69.3717 833.607 Q67.5661 830.042 63.9319 830.042 M63.9319 826.339 Q69.742 826.339 72.7976 830.945 Q75.8763 835.529 75.8763 844.279 Q75.8763 853.005 72.7976 857.612 Q69.742 862.195 63.9319 862.195 Q58.1217 862.195 55.043 857.612 Q51.9875 853.005 51.9875 844.279 Q51.9875 835.529 55.043 830.945 Q58.1217 826.339 63.9319 826.339 Z" fill="#000000" fill-rule="evenodd" fill-opacity="1" /><path clip-path="url(#clip580)" d="M84.0938 855.644 L88.978 855.644 L88.978 861.524 L84.0938 861.524 L84.0938 855.644 Z" fill="#000000" fill-rule="evenodd" fill-opacity="1" /><path clip-path="url(#clip580)" d="M99.2095 826.964 L117.566 826.964 L117.566 830.899 L103.492 830.899 L103.492 839.371 Q104.51 839.024 105.529 838.862 Q106.547 838.677 107.566 838.677 Q113.353 838.677 116.733 841.848 Q120.112 845.019 120.112 850.436 Q120.112 856.015 116.64 859.116 Q113.168 862.195 106.848 862.195 Q104.672 862.195 102.404 861.825 Q100.159 861.454 97.7511 860.714 L97.7511 856.015 Q99.8345 857.149 102.057 857.704 Q104.279 858.26 106.756 858.26 Q110.76 858.26 113.098 856.153 Q115.436 854.047 115.436 850.436 Q115.436 846.825 113.098 844.718 Q110.76 842.612 106.756 842.612 Q104.881 842.612 103.006 843.029 Q101.154 843.445 99.2095 844.325 L99.2095 826.964 Z" fill="#000000" fill-rule="evenodd" fill-opacity="1" /><path clip-path="url(#clip580)" d="M53.7467 793.745 L61.3856 793.745 L61.3856 767.379 L53.0754 769.046 L53.0754 764.786 L61.3393 763.12 L66.0152 763.12 L66.0152 793.745 L73.654 793.745 L73.654 797.68 L53.7467 797.68 L53.7467 793.745 Z" fill="#000000" fill-rule="evenodd" fill-opacity="1" /><path clip-path="url(#clip580)" d="M83.0984 791.8 L87.9827 791.8 L87.9827 797.68 L83.0984 797.68 L83.0984 791.8 Z" fill="#000000" fill-rule="evenodd" fill-opacity="1" /><path clip-path="url(#clip580)" d="M108.168 766.198 Q104.557 766.198 102.728 769.763 Q100.922 773.305 100.922 780.434 Q100.922 787.541 102.728 791.106 Q104.557 794.647 108.168 794.647 Q111.802 794.647 113.608 791.106 Q115.436 787.541 115.436 780.434 Q115.436 773.305 113.608 769.763 Q111.802 766.198 108.168 766.198 M108.168 762.495 Q113.978 762.495 117.033 767.101 Q120.112 771.685 120.112 780.434 Q120.112 789.161 117.033 793.768 Q113.978 798.351 108.168 798.351 Q102.358 798.351 99.2789 793.768 Q96.2234 789.161 96.2234 780.434 Q96.2234 771.685 99.2789 767.101 Q102.358 762.495 108.168 762.495 Z" fill="#000000" fill-rule="evenodd" fill-opacity="1" /><path clip-path="url(#clip580)" d="M54.7421 729.901 L62.381 729.901 L62.381 703.535 L54.0708 705.202 L54.0708 700.942 L62.3347 699.276 L67.0106 699.276 L67.0106 729.901 L74.6494 729.901 L74.6494 733.836 L54.7421 733.836 L54.7421 729.901 Z" fill="#000000" fill-rule="evenodd" fill-opacity="1" /><path clip-path="url(#clip580)" d="M84.0938 727.956 L88.978 727.956 L88.978 733.836 L84.0938 733.836 L84.0938 727.956 Z" fill="#000000" fill-rule="evenodd" fill-opacity="1" /><path clip-path="url(#clip580)" d="M99.2095 699.276 L117.566 699.276 L117.566 703.211 L103.492 703.211 L103.492 711.683 Q104.51 711.336 105.529 711.174 Q106.547 710.989 107.566 710.989 Q113.353 710.989 116.733 714.16 Q120.112 717.331 120.112 722.748 Q120.112 728.327 116.64 731.428 Q113.168 734.507 106.848 734.507 Q104.672 734.507 102.404 734.137 Q100.159 733.766 97.7511 733.026 L97.7511 728.327 Q99.8345 729.461 102.057 730.016 Q104.279 730.572 106.756 730.572 Q110.76 730.572 113.098 728.465 Q115.436 726.359 115.436 722.748 Q115.436 719.137 113.098 717.03 Q110.76 714.924 106.756 714.924 Q104.881 714.924 103.006 715.34 Q101.154 715.757 99.2095 716.637 L99.2095 699.276 Z" fill="#000000" fill-rule="evenodd" fill-opacity="1" /><path clip-path="url(#clip580)" d="M56.9643 666.057 L73.2837 666.057 L73.2837 669.992 L51.3393 669.992 L51.3393 666.057 Q54.0014 663.302 58.5847 658.672 Q63.1911 654.02 64.3717 652.677 Q66.617 650.154 67.4967 648.418 Q68.3994 646.659 68.3994 644.969 Q68.3994 642.214 66.455 640.478 Q64.5337 638.742 61.4319 638.742 Q59.2328 638.742 56.7791 639.506 Q54.3486 640.27 51.5708 641.821 L51.5708 637.098 Q54.3949 635.964 56.8486 635.385 Q59.3023 634.807 61.3393 634.807 Q66.7096 634.807 69.9041 637.492 Q73.0985 640.177 73.0985 644.668 Q73.0985 646.797 72.2883 648.719 Q71.5013 650.617 69.3948 653.209 Q68.8161 653.881 65.7143 657.098 Q62.6124 660.293 56.9643 666.057 Z" fill="#000000" fill-rule="evenodd" fill-opacity="1" /><path clip-path="url(#clip580)" d="M83.0984 664.112 L87.9827 664.112 L87.9827 669.992 L83.0984 669.992 L83.0984 664.112 Z" fill="#000000" fill-rule="evenodd" fill-opacity="1" /><path clip-path="url(#clip580)" d="M108.168 638.51 Q104.557 638.51 102.728 642.075 Q100.922 645.617 100.922 652.746 Q100.922 659.853 102.728 663.418 Q104.557 666.959 108.168 666.959 Q111.802 666.959 113.608 663.418 Q115.436 659.853 115.436 652.746 Q115.436 645.617 113.608 642.075 Q111.802 638.51 108.168 638.51 M108.168 634.807 Q113.978 634.807 117.033 639.413 Q120.112 643.997 120.112 652.746 Q120.112 661.473 117.033 666.08 Q113.978 670.663 108.168 670.663 Q102.358 670.663 99.2789 666.08 Q96.2234 661.473 96.2234 652.746 Q96.2234 643.997 99.2789 639.413 Q102.358 634.807 108.168 634.807 Z" fill="#000000" fill-rule="evenodd" fill-opacity="1" /><path clip-path="url(#clip580)" d="M57.9597 602.213 L74.279 602.213 L74.279 606.148 L52.3347 606.148 L52.3347 602.213 Q54.9967 599.458 59.58 594.828 Q64.1865 590.176 65.367 588.833 Q67.6124 586.31 68.492 584.574 Q69.3948 582.815 69.3948 581.125 Q69.3948 578.37 67.4504 576.634 Q65.5291 574.898 62.4272 574.898 Q60.2282 574.898 57.7745 575.662 Q55.344 576.426 52.5662 577.977 L52.5662 573.254 Q55.3903 572.12 57.8439 571.541 Q60.2976 570.963 62.3347 570.963 Q67.705 570.963 70.8994 573.648 Q74.0939 576.333 74.0939 580.824 Q74.0939 582.953 73.2837 584.875 Q72.4966 586.773 70.3902 589.365 Q69.8115 590.037 66.7096 593.254 Q63.6078 596.449 57.9597 602.213 Z" fill="#000000" fill-rule="evenodd" fill-opacity="1" /><path clip-path="url(#clip580)" d="M84.0938 600.268 L88.978 600.268 L88.978 606.148 L84.0938 606.148 L84.0938 600.268 Z" fill="#000000" fill-rule="evenodd" fill-opacity="1" /><path clip-path="url(#clip580)" d="M99.2095 571.588 L117.566 571.588 L117.566 575.523 L103.492 575.523 L103.492 583.995 Q104.51 583.648 105.529 583.486 Q106.547 583.301 107.566 583.301 Q113.353 583.301 116.733 586.472 Q120.112 589.643 120.112 595.06 Q120.112 600.639 116.64 603.74 Q113.168 606.819 106.848 606.819 Q104.672 606.819 102.404 606.449 Q100.159 606.078 97.7511 605.338 L97.7511 600.639 Q99.8345 601.773 102.057 602.328 Q104.279 602.884 106.756 602.884 Q110.76 602.884 113.098 600.777 Q115.436 598.671 115.436 595.06 Q115.436 591.449 113.098 589.342 Q110.76 587.236 106.756 587.236 Q104.881 587.236 103.006 587.652 Q101.154 588.069 99.2095 588.949 L99.2095 571.588 Z" fill="#000000" fill-rule="evenodd" fill-opacity="1" /><polyline clip-path="url(#clip583)" style="stroke:#ff0000; stroke-linecap:butt; stroke-linejoin:round; stroke-width:8; stroke-opacity:1; fill:none" points="
  218.281,908.088 223.341,907.139 228.4,906.162 233.46,905.156 238.519,904.121 285.301,893.065 332.083,879.015 378.865,861.61 425.646,840.648 453.76,826.344 
  481.874,810.825 509.988,794.198 538.102,776.62 585.642,745.332 633.182,713.22 684.824,679.246 736.465,648.36 760.27,635.754 784.074,624.436 807.879,614.565 
  831.684,606.269 857.204,599.232 882.725,594.186 908.246,591.155 933.767,590.117 963.336,591.313 992.905,594.918 1022.47,600.7 1052.04,608.383 1104.6,625.766 
  1157.15,646.388 1203.24,665.79 1249.32,685.378 1299.57,706.018 1349.81,725.184 1400.35,742.485 1450.9,757.534 1506.78,771.433 1562.66,782.472 1615.83,790.407 
  1669.01,795.934 1724.29,799.2 1779.58,799.949 1826.12,798.573 1872.65,795.248 1929.47,788.28 1986.29,777.648 2013,771.195 2039.7,763.693 2066.41,755.041 
  2093.11,745.124 2114.5,736.183 2135.9,726.278 2157.29,715.334 2178.68,703.269 2200.07,689.998 2221.47,675.432 2242.86,659.478 2264.25,642.044 2270.83,636.365 
  2277.42,630.534 2284,624.548 2290.59,618.405 
  "/>
<path clip-path="url(#clip583)" d="
M218.281 813.418 L736.358 813.418 L736.358 908.088 L218.281 908.088  Z
  " fill="#0000ff" fill-rule="evenodd" fill-opacity="0.1"/>
<polyline clip-path="url(#clip583)" style="stroke:#0000ff; stroke-linecap:butt; stroke-linejoin:round; stroke-width:8; stroke-opacity:1; fill:none" points="
  218.281,813.418 736.358,813.418 
  "/>
<path clip-path="url(#clip583)" d="
M736.358 595.325 L1254.43 595.325 L1254.43 908.088 L736.358 908.088  Z
  " fill="#0000ff" fill-rule="evenodd" fill-opacity="0.1"/>
<polyline clip-path="url(#clip583)" style="stroke:#0000ff; stroke-linecap:butt; stroke-linejoin:round; stroke-width:8; stroke-opacity:1; fill:none" points="
  736.358,595.325 1254.43,595.325 
  "/>
<path clip-path="url(#clip583)" d="
M1254.43 772.904 L1772.51 772.904 L1772.51 908.088 L1254.43 908.088  Z
  " fill="#0000ff" fill-rule="evenodd" fill-opacity="0.1"/>
<polyline clip-path="url(#clip583)" style="stroke:#0000ff; stroke-linecap:butt; stroke-linejoin:round; stroke-width:8; stroke-opacity:1; fill:none" points="
  1254.43,772.904 1772.51,772.904 
  "/>
<path clip-path="url(#clip583)" d="
M1772.51 766.101 L2290.59 766.101 L2290.59 908.088 L1772.51 908.088  Z
  " fill="#0000ff" fill-rule="evenodd" fill-opacity="0.1"/>
<polyline clip-path="url(#clip583)" style="stroke:#0000ff; stroke-linecap:butt; stroke-linejoin:round; stroke-width:8; stroke-opacity:1; fill:none" points="
  1772.51,766.101 2290.59,766.101 
  "/>
<path clip-path="url(#clip583)" d="M477.319 829.418 L466.007 824.73 L461.319 813.418 L466.007 802.106 L477.319 797.418 L488.631 802.106 L493.319 813.418 L488.631 824.73 Z" fill="#add8e6" fill-rule="evenodd" fill-opacity="1" stroke="#000000" stroke-opacity="1" stroke-width="3.2"/>
<path clip-path="url(#clip583)" d="M995.396 611.325 L984.084 606.637 L979.396 595.325 L984.084 584.013 L995.396 579.325 L1006.71 584.013 L1011.4 595.325 L1006.71 606.637 Z" fill="#add8e6" fill-rule="evenodd" fill-opacity="1" stroke="#000000" stroke-opacity="1" stroke-width="3.2"/>
<path clip-path="url(#clip583)" d="M1513.47 788.904 L1502.16 784.216 L1497.47 772.904 L1502.16 761.592 L1513.47 756.904 L1524.78 761.592 L1529.47 772.904 L1524.78 784.216 Z" fill="#add8e6" fill-rule="evenodd" fill-opacity="1" stroke="#000000" stroke-opacity="1" stroke-width="3.2"/>
<path clip-path="url(#clip583)" d="M2031.55 782.101 L2020.24 777.413 L2015.55 766.101 L2020.24 754.789 L2031.55 750.101 L2042.86 754.789 L2047.55 766.101 L2042.86 777.413 Z" fill="#add8e6" fill-rule="evenodd" fill-opacity="1" stroke="#000000" stroke-opacity="1" stroke-width="3.2"/>
<path clip-path="url(#clip580)" d="
M156.112 1450.96 L2352.76 1450.96 L2352.76 1113.91 L156.112 1113.91  Z
  " fill="#ffffff" fill-rule="evenodd" fill-opacity="1"/>
<defs>
  <clipPath id="clip584">
    <rect x="156" y="1113" width="2198" height="338"/>
  </clipPath>
</defs>
<polyline clip-path="url(#clip584)" style="stroke:#000000; stroke-linecap:butt; stroke-linejoin:round; stroke-width:2; stroke-opacity:0.1; fill:none" points="
  218.281,1450.96 218.281,1113.91 
  "/>
<polyline clip-path="url(#clip584)" style="stroke:#000000; stroke-linecap:butt; stroke-linejoin:round; stroke-width:2; stroke-opacity:0.1; fill:none" points="
  909.05,1450.96 909.05,1113.91 
  "/>
<polyline clip-path="url(#clip584)" style="stroke:#000000; stroke-linecap:butt; stroke-linejoin:round; stroke-width:2; stroke-opacity:0.1; fill:none" points="
  1599.82,1450.96 1599.82,1113.91 
  "/>
<polyline clip-path="url(#clip584)" style="stroke:#000000; stroke-linecap:butt; stroke-linejoin:round; stroke-width:2; stroke-opacity:0.1; fill:none" points="
  2290.59,1450.96 2290.59,1113.91 
  "/>
<polyline clip-path="url(#clip580)" style="stroke:#000000; stroke-linecap:butt; stroke-linejoin:round; stroke-width:4; stroke-opacity:1; fill:none" points="
  156.112,1450.96 2352.76,1450.96 
  "/>
<polyline clip-path="url(#clip580)" style="stroke:#000000; stroke-linecap:butt; stroke-linejoin:round; stroke-width:4; stroke-opacity:1; fill:none" points="
  218.281,1450.96 218.281,1432.06 
  "/>
<polyline clip-path="url(#clip580)" style="stroke:#000000; stroke-linecap:butt; stroke-linejoin:round; stroke-width:4; stroke-opacity:1; fill:none" points="
  909.05,1450.96 909.05,1432.06 
  "/>
<polyline clip-path="url(#clip580)" style="stroke:#000000; stroke-linecap:butt; stroke-linejoin:round; stroke-width:4; stroke-opacity:1; fill:none" points="
  1599.82,1450.96 1599.82,1432.06 
  "/>
<polyline clip-path="url(#clip580)" style="stroke:#000000; stroke-linecap:butt; stroke-linejoin:round; stroke-width:4; stroke-opacity:1; fill:none" points="
  2290.59,1450.96 2290.59,1432.06 
  "/>
<path clip-path="url(#clip580)" d="M218.281 1480.15 Q214.67 1480.15 212.842 1483.72 Q211.036 1487.26 211.036 1494.39 Q211.036 1501.49 212.842 1505.06 Q214.67 1508.6 218.281 1508.6 Q221.916 1508.6 223.721 1505.06 Q225.55 1501.49 225.55 1494.39 Q225.55 1487.26 223.721 1483.72 Q221.916 1480.15 218.281 1480.15 M218.281 1476.45 Q224.091 1476.45 227.147 1481.05 Q230.226 1485.64 230.226 1494.39 Q230.226 1503.11 227.147 1507.72 Q224.091 1512.3 218.281 1512.3 Q212.471 1512.3 209.392 1507.72 Q206.337 1503.11 206.337 1494.39 Q206.337 1485.64 209.392 1481.05 Q212.471 1476.45 218.281 1476.45 Z" fill="#000000" fill-rule="evenodd" fill-opacity="1" /><path clip-path="url(#clip580)" d="M899.432 1507.7 L907.071 1507.7 L907.071 1481.33 L898.76 1483 L898.76 1478.74 L907.024 1477.07 L911.7 1477.07 L911.7 1507.7 L919.339 1507.7 L919.339 1511.63 L899.432 1511.63 L899.432 1507.7 Z" fill="#000000" fill-rule="evenodd" fill-opacity="1" /><path clip-path="url(#clip580)" d="M1594.47 1507.7 L1610.79 1507.7 L1610.79 1511.63 L1588.85 1511.63 L1588.85 1507.7 Q1591.51 1504.94 1596.09 1500.31 Q1600.7 1495.66 1601.88 1494.32 Q1604.12 1491.79 1605 1490.06 Q1605.91 1488.3 1605.91 1486.61 Q1605.91 1483.85 1603.96 1482.12 Q1602.04 1480.38 1598.94 1480.38 Q1596.74 1480.38 1594.29 1481.15 Q1591.86 1481.91 1589.08 1483.46 L1589.08 1478.74 Q1591.9 1477.6 1594.36 1477.03 Q1596.81 1476.45 1598.85 1476.45 Q1604.22 1476.45 1607.41 1479.13 Q1610.61 1481.82 1610.61 1486.31 Q1610.61 1488.44 1609.8 1490.36 Q1609.01 1492.26 1606.9 1494.85 Q1606.32 1495.52 1603.22 1498.74 Q1600.12 1501.93 1594.47 1507.7 Z" fill="#000000" fill-rule="evenodd" fill-opacity="1" /><path clip-path="url(#clip580)" d="M2294.83 1493 Q2298.19 1493.72 2300.07 1495.98 Q2301.96 1498.25 2301.96 1501.59 Q2301.96 1506.7 2298.45 1509.5 Q2294.93 1512.3 2288.45 1512.3 Q2286.27 1512.3 2283.95 1511.86 Q2281.66 1511.45 2279.21 1510.59 L2279.21 1506.08 Q2281.15 1507.21 2283.47 1507.79 Q2285.78 1508.37 2288.31 1508.37 Q2292.7 1508.37 2295 1506.63 Q2297.31 1504.9 2297.31 1501.59 Q2297.31 1498.53 2295.16 1496.82 Q2293.03 1495.08 2289.21 1495.08 L2285.18 1495.08 L2285.18 1491.24 L2289.39 1491.24 Q2292.84 1491.24 2294.67 1489.87 Q2296.5 1488.48 2296.5 1485.89 Q2296.5 1483.23 2294.6 1481.82 Q2292.73 1480.38 2289.21 1480.38 Q2287.29 1480.38 2285.09 1480.8 Q2282.89 1481.22 2280.25 1482.1 L2280.25 1477.93 Q2282.91 1477.19 2285.23 1476.82 Q2287.57 1476.45 2289.63 1476.45 Q2294.95 1476.45 2298.05 1478.88 Q2301.15 1481.29 2301.15 1485.41 Q2301.15 1488.28 2299.51 1490.27 Q2297.87 1492.23 2294.83 1493 Z" fill="#000000" fill-rule="evenodd" fill-opacity="1" /><path clip-path="url(#clip580)" d="M1268.61 1539.92 Q1268.61 1541.72 1267.48 1542.75 Q1266.35 1543.75 1265.06 1543.75 Q1263.84 1543.75 1263.2 1543.04 Q1262.55 1542.33 1262.55 1541.43 Q1262.55 1540.21 1263.45 1539.14 Q1264.36 1538.08 1265.71 1537.85 Q1264.39 1537.02 1262.42 1537.02 Q1261.14 1537.02 1260.01 1537.69 Q1258.91 1538.37 1258.24 1539.24 Q1257.59 1540.11 1257.01 1541.37 Q1256.47 1542.59 1256.24 1543.33 Q1256.05 1544.04 1255.89 1544.81 L1253.63 1553.83 Q1252.54 1558.11 1252.54 1559.63 Q1252.54 1561.49 1253.44 1562.75 Q1254.34 1563.97 1256.14 1563.97 Q1256.85 1563.97 1257.66 1563.78 Q1258.46 1563.55 1259.49 1562.98 Q1260.56 1562.36 1261.49 1561.46 Q1262.46 1560.53 1263.39 1558.95 Q1264.32 1557.37 1264.94 1555.34 Q1265.13 1554.63 1265.77 1554.63 Q1266.58 1554.63 1266.58 1555.28 Q1266.58 1555.83 1266.13 1556.98 Q1265.71 1558.11 1264.77 1559.59 Q1263.87 1561.04 1262.68 1562.36 Q1261.49 1563.65 1259.72 1564.55 Q1257.95 1565.46 1256.01 1565.46 Q1253.25 1565.46 1251.41 1563.97 Q1249.57 1562.49 1248.9 1560.43 Q1248.74 1560.72 1248.51 1561.11 Q1248.29 1561.49 1247.61 1562.36 Q1246.97 1563.2 1246.22 1563.84 Q1245.48 1564.46 1244.32 1564.94 Q1243.2 1565.46 1241.97 1565.46 Q1240.43 1565.46 1239.04 1565 Q1237.69 1564.55 1236.72 1563.52 Q1235.76 1562.49 1235.76 1561.08 Q1235.76 1559.5 1236.82 1558.4 Q1237.92 1557.27 1239.4 1557.27 Q1240.33 1557.27 1241.07 1557.82 Q1241.84 1558.37 1241.84 1559.56 Q1241.84 1560.88 1240.94 1561.88 Q1240.04 1562.88 1238.75 1563.14 Q1240.07 1563.97 1242.04 1563.97 Q1244.16 1563.97 1245.84 1562.11 Q1247.51 1560.24 1248.32 1557.11 Q1250.31 1549.61 1251.09 1546.26 Q1251.86 1542.88 1251.86 1541.43 Q1251.86 1540.08 1251.51 1539.14 Q1251.15 1538.21 1250.54 1537.79 Q1249.96 1537.34 1249.41 1537.18 Q1248.9 1537.02 1248.32 1537.02 Q1247.35 1537.02 1246.26 1537.4 Q1245.19 1537.79 1243.91 1538.69 Q1242.65 1539.56 1241.46 1541.37 Q1240.27 1543.17 1239.46 1545.65 Q1239.3 1546.39 1238.59 1546.39 Q1237.82 1546.36 1237.82 1545.71 Q1237.82 1545.17 1238.24 1544.04 Q1238.69 1542.88 1239.59 1541.43 Q1240.52 1539.98 1241.72 1538.69 Q1242.94 1537.37 1244.71 1536.47 Q1246.51 1535.57 1248.45 1535.57 Q1249.32 1535.57 1250.15 1535.76 Q1251.02 1535.92 1252.05 1536.41 Q1253.12 1536.89 1254.05 1537.95 Q1254.98 1539.01 1255.56 1540.56 Q1255.95 1539.82 1256.47 1539.11 Q1257.01 1538.4 1257.85 1537.53 Q1258.72 1536.63 1259.91 1536.12 Q1261.14 1535.57 1262.49 1535.57 Q1263.81 1535.57 1265.1 1535.92 Q1266.39 1536.24 1267.48 1537.31 Q1268.61 1538.34 1268.61 1539.92 Z" fill="#000000" fill-rule="evenodd" fill-opacity="1" /><polyline clip-path="url(#clip584)" style="stroke:#000000; stroke-linecap:butt; stroke-linejoin:round; stroke-width:2; stroke-opacity:0.1; fill:none" points="
  156.112,1441.42 2352.76,1441.42 
  "/>
<polyline clip-path="url(#clip584)" style="stroke:#000000; stroke-linecap:butt; stroke-linejoin:round; stroke-width:2; stroke-opacity:0.1; fill:none" points="
  156.112,1377.58 2352.76,1377.58 
  "/>
<polyline clip-path="url(#clip584)" style="stroke:#000000; stroke-linecap:butt; stroke-linejoin:round; stroke-width:2; stroke-opacity:0.1; fill:none" points="
  156.112,1313.73 2352.76,1313.73 
  "/>
<polyline clip-path="url(#clip584)" style="stroke:#000000; stroke-linecap:butt; stroke-linejoin:round; stroke-width:2; stroke-opacity:0.1; fill:none" points="
  156.112,1249.89 2352.76,1249.89 
  "/>
<polyline clip-path="url(#clip584)" style="stroke:#000000; stroke-linecap:butt; stroke-linejoin:round; stroke-width:2; stroke-opacity:0.1; fill:none" points="
  156.112,1186.05 2352.76,1186.05 
  "/>
<polyline clip-path="url(#clip584)" style="stroke:#000000; stroke-linecap:butt; stroke-linejoin:round; stroke-width:2; stroke-opacity:0.1; fill:none" points="
  156.112,1122.2 2352.76,1122.2 
  "/>
<polyline clip-path="url(#clip580)" style="stroke:#000000; stroke-linecap:butt; stroke-linejoin:round; stroke-width:4; stroke-opacity:1; fill:none" points="
  156.112,1450.96 156.112,1113.91 
  "/>
<polyline clip-path="url(#clip580)" style="stroke:#000000; stroke-linecap:butt; stroke-linejoin:round; stroke-width:4; stroke-opacity:1; fill:none" points="
  156.112,1441.42 175.01,1441.42 
  "/>
<polyline clip-path="url(#clip580)" style="stroke:#000000; stroke-linecap:butt; stroke-linejoin:round; stroke-width:4; stroke-opacity:1; fill:none" points="
  156.112,1377.58 175.01,1377.58 
  "/>
<polyline clip-path="url(#clip580)" style="stroke:#000000; stroke-linecap:butt; stroke-linejoin:round; stroke-width:4; stroke-opacity:1; fill:none" points="
  156.112,1313.73 175.01,1313.73 
  "/>
<polyline clip-path="url(#clip580)" style="stroke:#000000; stroke-linecap:butt; stroke-linejoin:round; stroke-width:4; stroke-opacity:1; fill:none" points="
  156.112,1249.89 175.01,1249.89 
  "/>
<polyline clip-path="url(#clip580)" style="stroke:#000000; stroke-linecap:butt; stroke-linejoin:round; stroke-width:4; stroke-opacity:1; fill:none" points="
  156.112,1186.05 175.01,1186.05 
  "/>
<polyline clip-path="url(#clip580)" style="stroke:#000000; stroke-linecap:butt; stroke-linejoin:round; stroke-width:4; stroke-opacity:1; fill:none" points="
  156.112,1122.2 175.01,1122.2 
  "/>
<path clip-path="url(#clip580)" d="M62.9365 1427.22 Q59.3254 1427.22 57.4967 1430.78 Q55.6912 1434.33 55.6912 1441.46 Q55.6912 1448.56 57.4967 1452.13 Q59.3254 1455.67 62.9365 1455.67 Q66.5707 1455.67 68.3763 1452.13 Q70.205 1448.56 70.205 1441.46 Q70.205 1434.33 68.3763 1430.78 Q66.5707 1427.22 62.9365 1427.22 M62.9365 1423.52 Q68.7467 1423.52 71.8022 1428.12 Q74.8809 1432.71 74.8809 1441.46 Q74.8809 1450.18 71.8022 1454.79 Q68.7467 1459.37 62.9365 1459.37 Q57.1264 1459.37 54.0477 1454.79 Q50.9921 1450.18 50.9921 1441.46 Q50.9921 1432.71 54.0477 1428.12 Q57.1264 1423.52 62.9365 1423.52 Z" fill="#000000" fill-rule="evenodd" fill-opacity="1" /><path clip-path="url(#clip580)" d="M83.0984 1452.82 L87.9827 1452.82 L87.9827 1458.7 L83.0984 1458.7 L83.0984 1452.82 Z" fill="#000000" fill-rule="evenodd" fill-opacity="1" /><path clip-path="url(#clip580)" d="M108.168 1427.22 Q104.557 1427.22 102.728 1430.78 Q100.922 1434.33 100.922 1441.46 Q100.922 1448.56 102.728 1452.13 Q104.557 1455.67 108.168 1455.67 Q111.802 1455.67 113.608 1452.13 Q115.436 1448.56 115.436 1441.46 Q115.436 1434.33 113.608 1430.78 Q111.802 1427.22 108.168 1427.22 M108.168 1423.52 Q113.978 1423.52 117.033 1428.12 Q120.112 1432.71 120.112 1441.46 Q120.112 1450.18 117.033 1454.79 Q113.978 1459.37 108.168 1459.37 Q102.358 1459.37 99.2789 1454.79 Q96.2234 1450.18 96.2234 1441.46 Q96.2234 1432.71 99.2789 1428.12 Q102.358 1423.52 108.168 1423.52 Z" fill="#000000" fill-rule="evenodd" fill-opacity="1" /><path clip-path="url(#clip580)" d="M63.9319 1363.38 Q60.3208 1363.38 58.4921 1366.94 Q56.6865 1370.48 56.6865 1377.61 Q56.6865 1384.72 58.4921 1388.28 Q60.3208 1391.82 63.9319 1391.82 Q67.5661 1391.82 69.3717 1388.28 Q71.2004 1384.72 71.2004 1377.61 Q71.2004 1370.48 69.3717 1366.94 Q67.5661 1363.38 63.9319 1363.38 M63.9319 1359.67 Q69.742 1359.67 72.7976 1364.28 Q75.8763 1368.86 75.8763 1377.61 Q75.8763 1386.34 72.7976 1390.95 Q69.742 1395.53 63.9319 1395.53 Q58.1217 1395.53 55.043 1390.95 Q51.9875 1386.34 51.9875 1377.61 Q51.9875 1368.86 55.043 1364.28 Q58.1217 1359.67 63.9319 1359.67 Z" fill="#000000" fill-rule="evenodd" fill-opacity="1" /><path clip-path="url(#clip580)" d="M84.0938 1388.98 L88.978 1388.98 L88.978 1394.86 L84.0938 1394.86 L84.0938 1388.98 Z" fill="#000000" fill-rule="evenodd" fill-opacity="1" /><path clip-path="url(#clip580)" d="M99.2095 1360.3 L117.566 1360.3 L117.566 1364.23 L103.492 1364.23 L103.492 1372.7 Q104.51 1372.36 105.529 1372.2 Q106.547 1372.01 107.566 1372.01 Q113.353 1372.01 116.733 1375.18 Q120.112 1378.35 120.112 1383.77 Q120.112 1389.35 116.64 1392.45 Q113.168 1395.53 106.848 1395.53 Q104.672 1395.53 102.404 1395.16 Q100.159 1394.79 97.7511 1394.05 L97.7511 1389.35 Q99.8345 1390.48 102.057 1391.04 Q104.279 1391.59 106.756 1391.59 Q110.76 1391.59 113.098 1389.49 Q115.436 1387.38 115.436 1383.77 Q115.436 1380.16 113.098 1378.05 Q110.76 1375.95 106.756 1375.95 Q104.881 1375.95 103.006 1376.36 Q101.154 1376.78 99.2095 1377.66 L99.2095 1360.3 Z" fill="#000000" fill-rule="evenodd" fill-opacity="1" /><path clip-path="url(#clip580)" d="M53.7467 1327.08 L61.3856 1327.08 L61.3856 1300.71 L53.0754 1302.38 L53.0754 1298.12 L61.3393 1296.45 L66.0152 1296.45 L66.0152 1327.08 L73.654 1327.08 L73.654 1331.01 L53.7467 1331.01 L53.7467 1327.08 Z" fill="#000000" fill-rule="evenodd" fill-opacity="1" /><path clip-path="url(#clip580)" d="M83.0984 1325.13 L87.9827 1325.13 L87.9827 1331.01 L83.0984 1331.01 L83.0984 1325.13 Z" fill="#000000" fill-rule="evenodd" fill-opacity="1" /><path clip-path="url(#clip580)" d="M108.168 1299.53 Q104.557 1299.53 102.728 1303.1 Q100.922 1306.64 100.922 1313.77 Q100.922 1320.87 102.728 1324.44 Q104.557 1327.98 108.168 1327.98 Q111.802 1327.98 113.608 1324.44 Q115.436 1320.87 115.436 1313.77 Q115.436 1306.64 113.608 1303.1 Q111.802 1299.53 108.168 1299.53 M108.168 1295.83 Q113.978 1295.83 117.033 1300.43 Q120.112 1305.02 120.112 1313.77 Q120.112 1322.49 117.033 1327.1 Q113.978 1331.68 108.168 1331.68 Q102.358 1331.68 99.2789 1327.1 Q96.2234 1322.49 96.2234 1313.77 Q96.2234 1305.02 99.2789 1300.43 Q102.358 1295.83 108.168 1295.83 Z" fill="#000000" fill-rule="evenodd" fill-opacity="1" /><path clip-path="url(#clip580)" d="M54.7421 1263.23 L62.381 1263.23 L62.381 1236.87 L54.0708 1238.53 L54.0708 1234.28 L62.3347 1232.61 L67.0106 1232.61 L67.0106 1263.23 L74.6494 1263.23 L74.6494 1267.17 L54.7421 1267.17 L54.7421 1263.23 Z" fill="#000000" fill-rule="evenodd" fill-opacity="1" /><path clip-path="url(#clip580)" d="M84.0938 1261.29 L88.978 1261.29 L88.978 1267.17 L84.0938 1267.17 L84.0938 1261.29 Z" fill="#000000" fill-rule="evenodd" fill-opacity="1" /><path clip-path="url(#clip580)" d="M99.2095 1232.61 L117.566 1232.61 L117.566 1236.54 L103.492 1236.54 L103.492 1245.02 Q104.51 1244.67 105.529 1244.51 Q106.547 1244.32 107.566 1244.32 Q113.353 1244.32 116.733 1247.49 Q120.112 1250.66 120.112 1256.08 Q120.112 1261.66 116.64 1264.76 Q113.168 1267.84 106.848 1267.84 Q104.672 1267.84 102.404 1267.47 Q100.159 1267.1 97.7511 1266.36 L97.7511 1261.66 Q99.8345 1262.79 102.057 1263.35 Q104.279 1263.91 106.756 1263.91 Q110.76 1263.91 113.098 1261.8 Q115.436 1259.69 115.436 1256.08 Q115.436 1252.47 113.098 1250.36 Q110.76 1248.26 106.756 1248.26 Q104.881 1248.26 103.006 1248.67 Q101.154 1249.09 99.2095 1249.97 L99.2095 1232.61 Z" fill="#000000" fill-rule="evenodd" fill-opacity="1" /><path clip-path="url(#clip580)" d="M56.9643 1199.39 L73.2837 1199.39 L73.2837 1203.33 L51.3393 1203.33 L51.3393 1199.39 Q54.0014 1196.64 58.5847 1192.01 Q63.1911 1187.35 64.3717 1186.01 Q66.617 1183.49 67.4967 1181.75 Q68.3994 1179.99 68.3994 1178.3 Q68.3994 1175.55 66.455 1173.81 Q64.5337 1172.08 61.4319 1172.08 Q59.2328 1172.08 56.7791 1172.84 Q54.3486 1173.6 51.5708 1175.15 L51.5708 1170.43 Q54.3949 1169.3 56.8486 1168.72 Q59.3023 1168.14 61.3393 1168.14 Q66.7096 1168.14 69.9041 1170.83 Q73.0985 1173.51 73.0985 1178 Q73.0985 1180.13 72.2883 1182.05 Q71.5013 1183.95 69.3948 1186.54 Q68.8161 1187.21 65.7143 1190.43 Q62.6124 1193.63 56.9643 1199.39 Z" fill="#000000" fill-rule="evenodd" fill-opacity="1" /><path clip-path="url(#clip580)" d="M83.0984 1197.45 L87.9827 1197.45 L87.9827 1203.33 L83.0984 1203.33 L83.0984 1197.45 Z" fill="#000000" fill-rule="evenodd" fill-opacity="1" /><path clip-path="url(#clip580)" d="M108.168 1171.84 Q104.557 1171.84 102.728 1175.41 Q100.922 1178.95 100.922 1186.08 Q100.922 1193.19 102.728 1196.75 Q104.557 1200.29 108.168 1200.29 Q111.802 1200.29 113.608 1196.75 Q115.436 1193.19 115.436 1186.08 Q115.436 1178.95 113.608 1175.41 Q111.802 1171.84 108.168 1171.84 M108.168 1168.14 Q113.978 1168.14 117.033 1172.75 Q120.112 1177.33 120.112 1186.08 Q120.112 1194.81 117.033 1199.41 Q113.978 1204 108.168 1204 Q102.358 1204 99.2789 1199.41 Q96.2234 1194.81 96.2234 1186.08 Q96.2234 1177.33 99.2789 1172.75 Q102.358 1168.14 108.168 1168.14 Z" fill="#000000" fill-rule="evenodd" fill-opacity="1" /><path clip-path="url(#clip580)" d="M57.9597 1135.55 L74.279 1135.55 L74.279 1139.48 L52.3347 1139.48 L52.3347 1135.55 Q54.9967 1132.79 59.58 1128.16 Q64.1865 1123.51 65.367 1122.17 Q67.6124 1119.64 68.492 1117.91 Q69.3948 1116.15 69.3948 1114.46 Q69.3948 1111.7 67.4504 1109.97 Q65.5291 1108.23 62.4272 1108.23 Q60.2282 1108.23 57.7745 1109 Q55.344 1109.76 52.5662 1111.31 L52.5662 1106.59 Q55.3903 1105.45 57.8439 1104.87 Q60.2976 1104.3 62.3347 1104.3 Q67.705 1104.3 70.8994 1106.98 Q74.0939 1109.67 74.0939 1114.16 Q74.0939 1116.29 73.2837 1118.21 Q72.4966 1120.11 70.3902 1122.7 Q69.8115 1123.37 66.7096 1126.59 Q63.6078 1129.78 57.9597 1135.55 Z" fill="#000000" fill-rule="evenodd" fill-opacity="1" /><path clip-path="url(#clip580)" d="M84.0938 1133.6 L88.978 1133.6 L88.978 1139.48 L84.0938 1139.48 L84.0938 1133.6 Z" fill="#000000" fill-rule="evenodd" fill-opacity="1" /><path clip-path="url(#clip580)" d="M99.2095 1104.92 L117.566 1104.92 L117.566 1108.86 L103.492 1108.86 L103.492 1117.33 Q104.51 1116.98 105.529 1116.82 Q106.547 1116.63 107.566 1116.63 Q113.353 1116.63 116.733 1119.81 Q120.112 1122.98 120.112 1128.39 Q120.112 1133.97 116.64 1137.07 Q113.168 1140.15 106.848 1140.15 Q104.672 1140.15 102.404 1139.78 Q100.159 1139.41 97.7511 1138.67 L97.7511 1133.97 Q99.8345 1135.11 102.057 1135.66 Q104.279 1136.22 106.756 1136.22 Q110.76 1136.22 113.098 1134.11 Q115.436 1132 115.436 1128.39 Q115.436 1124.78 113.098 1122.68 Q110.76 1120.57 106.756 1120.57 Q104.881 1120.57 103.006 1120.99 Q101.154 1121.4 99.2095 1122.28 L99.2095 1104.92 Z" fill="#000000" fill-rule="evenodd" fill-opacity="1" /><polyline clip-path="url(#clip584)" style="stroke:#ff0000; stroke-linecap:butt; stroke-linejoin:round; stroke-width:8; stroke-opacity:1; fill:none" points="
  218.281,1441.42 223.341,1440.47 228.4,1439.5 233.46,1438.49 238.519,1437.45 285.301,1426.4 332.083,1412.35 378.865,1394.94 425.646,1373.98 453.76,1359.68 
  481.874,1344.16 509.988,1327.53 538.102,1309.95 585.642,1278.66 633.182,1246.55 684.824,1212.58 736.465,1181.69 760.27,1169.09 784.074,1157.77 807.879,1147.9 
  831.684,1139.6 857.204,1132.57 882.725,1127.52 908.246,1124.49 933.767,1123.45 963.336,1124.65 992.905,1128.25 1022.47,1134.03 1052.04,1141.72 1104.6,1159.1 
  1157.15,1179.72 1203.24,1199.12 1249.32,1218.71 1299.57,1239.35 1349.81,1258.52 1400.35,1275.82 1450.9,1290.87 1506.78,1304.77 1562.66,1315.81 1615.83,1323.74 
  1669.01,1329.27 1724.29,1332.53 1779.58,1333.28 1826.12,1331.91 1872.65,1328.58 1929.47,1321.61 1986.29,1310.98 2013,1304.53 2039.7,1297.03 2066.41,1288.37 
  2093.11,1278.46 2114.5,1269.52 2135.9,1259.61 2157.29,1248.67 2178.68,1236.6 2200.07,1223.33 2221.47,1208.76 2242.86,1192.81 2264.25,1175.38 2270.83,1169.7 
  2277.42,1163.87 2284,1157.88 2290.59,1151.74 
  "/>
<path clip-path="url(#clip584)" d="
M218.281 1406.89 L477.319 1406.89 L477.319 1441.42 L218.281 1441.42  Z
  " fill="#0000ff" fill-rule="evenodd" fill-opacity="0.1"/>
<polyline clip-path="url(#clip584)" style="stroke:#0000ff; stroke-linecap:butt; stroke-linejoin:round; stroke-width:8; stroke-opacity:1; fill:none" points="
  218.281,1406.89 477.319,1406.89 
  "/>
<path clip-path="url(#clip584)" d="
M477.319 1264.36 L736.358 1264.36 L736.358 1441.42 L477.319 1441.42  Z
  " fill="#0000ff" fill-rule="evenodd" fill-opacity="0.1"/>
<polyline clip-path="url(#clip584)" style="stroke:#0000ff; stroke-linecap:butt; stroke-linejoin:round; stroke-width:8; stroke-opacity:1; fill:none" points="
  477.319,1264.36 736.358,1264.36 
  "/>
<path clip-path="url(#clip584)" d="
M736.358 1130.62 L995.396 1130.62 L995.396 1441.42 L736.358 1441.42  Z
  " fill="#0000ff" fill-rule="evenodd" fill-opacity="0.1"/>
<polyline clip-path="url(#clip584)" style="stroke:#0000ff; stroke-linecap:butt; stroke-linejoin:round; stroke-width:8; stroke-opacity:1; fill:none" points="
  736.358,1130.62 995.396,1130.62 
  "/>
<path clip-path="url(#clip584)" d="
M995.396 1166.79 L1254.43 1166.79 L1254.43 1441.42 L995.396 1441.42  Z
  " fill="#0000ff" fill-rule="evenodd" fill-opacity="0.1"/>
<polyline clip-path="url(#clip584)" style="stroke:#0000ff; stroke-linecap:butt; stroke-linejoin:round; stroke-width:8; stroke-opacity:1; fill:none" points="
  995.396,1166.79 1254.43,1166.79 
  "/>
<path clip-path="url(#clip584)" d="
M1254.43 1270.44 L1513.47 1270.44 L1513.47 1441.42 L1254.43 1441.42  Z
  " fill="#0000ff" fill-rule="evenodd" fill-opacity="0.1"/>
<polyline clip-path="url(#clip584)" style="stroke:#0000ff; stroke-linecap:butt; stroke-linejoin:round; stroke-width:8; stroke-opacity:1; fill:none" points="
  1254.43,1270.44 1513.47,1270.44 
  "/>
<path clip-path="url(#clip584)" d="
M1513.47 1326.86 L1772.51 1326.86 L1772.51 1441.42 L1513.47 1441.42  Z
  " fill="#0000ff" fill-rule="evenodd" fill-opacity="0.1"/>
<polyline clip-path="url(#clip584)" style="stroke:#0000ff; stroke-linecap:butt; stroke-linejoin:round; stroke-width:8; stroke-opacity:1; fill:none" points="
  1513.47,1326.86 1772.51,1326.86 
  "/>
<path clip-path="url(#clip584)" d="
M1772.51 1325.4 L2031.55 1325.4 L2031.55 1441.42 L1772.51 1441.42  Z
  " fill="#0000ff" fill-rule="evenodd" fill-opacity="0.1"/>
<polyline clip-path="url(#clip584)" style="stroke:#0000ff; stroke-linecap:butt; stroke-linejoin:round; stroke-width:8; stroke-opacity:1; fill:none" points="
  1772.51,1325.4 2031.55,1325.4 
  "/>
<path clip-path="url(#clip584)" d="
M2031.55 1246.62 L2290.59 1246.62 L2290.59 1441.42 L2031.55 1441.42  Z
  " fill="#0000ff" fill-rule="evenodd" fill-opacity="0.1"/>
<polyline clip-path="url(#clip584)" style="stroke:#0000ff; stroke-linecap:butt; stroke-linejoin:round; stroke-width:8; stroke-opacity:1; fill:none" points="
  2031.55,1246.62 2290.59,1246.62 
  "/>
<path clip-path="url(#clip584)" d="M347.8 1422.89 L336.488 1418.2 L331.8 1406.89 L336.488 1395.58 L347.8 1390.89 L359.112 1395.58 L363.8 1406.89 L359.112 1418.2 Z" fill="#add8e6" fill-rule="evenodd" fill-opacity="1" stroke="#000000" stroke-opacity="1" stroke-width="3.2"/>
<path clip-path="url(#clip584)" d="M606.839 1280.36 L595.527 1275.67 L590.839 1264.36 L595.527 1253.05 L606.839 1248.36 L618.151 1253.05 L622.839 1264.36 L618.151 1275.67 Z" fill="#add8e6" fill-rule="evenodd" fill-opacity="1" stroke="#000000" stroke-opacity="1" stroke-width="3.2"/>
<path clip-path="url(#clip584)" d="M865.877 1146.62 L854.565 1141.94 L849.877 1130.62 L854.565 1119.31 L865.877 1114.62 L877.189 1119.31 L881.877 1130.62 L877.189 1141.94 Z" fill="#add8e6" fill-rule="evenodd" fill-opacity="1" stroke="#000000" stroke-opacity="1" stroke-width="3.2"/>
<path clip-path="url(#clip584)" d="M1124.91 1182.79 L1113.6 1178.1 L1108.91 1166.79 L1113.6 1155.47 L1124.91 1150.79 L1136.23 1155.47 L1140.91 1166.79 L1136.23 1178.1 Z" fill="#add8e6" fill-rule="evenodd" fill-opacity="1" stroke="#000000" stroke-opacity="1" stroke-width="3.2"/>
<path clip-path="url(#clip584)" d="M1383.95 1286.44 L1372.64 1281.75 L1367.95 1270.44 L1372.64 1259.13 L1383.95 1254.44 L1395.27 1259.13 L1399.95 1270.44 L1395.27 1281.75 Z" fill="#add8e6" fill-rule="evenodd" fill-opacity="1" stroke="#000000" stroke-opacity="1" stroke-width="3.2"/>
<path clip-path="url(#clip584)" d="M1642.99 1342.86 L1631.68 1338.17 L1626.99 1326.86 L1631.68 1315.55 L1642.99 1310.86 L1654.3 1315.55 L1658.99 1326.86 L1654.3 1338.17 Z" fill="#add8e6" fill-rule="evenodd" fill-opacity="1" stroke="#000000" stroke-opacity="1" stroke-width="3.2"/>
<path clip-path="url(#clip584)" d="M1902.03 1341.4 L1890.72 1336.71 L1886.03 1325.4 L1890.72 1314.09 L1902.03 1309.4 L1913.34 1314.09 L1918.03 1325.4 L1913.34 1336.71 Z" fill="#add8e6" fill-rule="evenodd" fill-opacity="1" stroke="#000000" stroke-opacity="1" stroke-width="3.2"/>
<path clip-path="url(#clip584)" d="M2161.07 1262.62 L2149.76 1257.93 L2145.07 1246.62 L2149.76 1235.31 L2161.07 1230.62 L2172.38 1235.31 L2177.07 1246.62 L2172.38 1257.93 Z" fill="#add8e6" fill-rule="evenodd" fill-opacity="1" stroke="#000000" stroke-opacity="1" stroke-width="3.2"/>
</svg>
