<?xml version="1.0" encoding="utf-8"?>
<svg xmlns="http://www.w3.org/2000/svg" xmlns:xlink="http://www.w3.org/1999/xlink" width="600" height="400" viewBox="0 0 2400 1600">
<defs>
  <clipPath id="clip620">
    <rect x="0" y="0" width="2400" height="1600"/>
  </clipPath>
</defs>
<path clip-path="url(#clip620)" d="
M0 1600 L2400 1600 L2400 0 L0 0  Z
  " fill="#ffffff" fill-rule="evenodd" fill-opacity="1"/>
<defs>
  <clipPath id="clip621">
    <rect x="480" y="0" width="1681" height="1600"/>
  </clipPath>
</defs>
<path clip-path="url(#clip620)" d="
M250.838 1423.18 L2352.76 1423.18 L2352.76 47.2441 L250.838 47.2441  Z
  " fill="#ffffff" fill-rule="evenodd" fill-opacity="1"/>
<defs>
  <clipPath id="clip622">
    <rect x="250" y="47" width="2103" height="1377"/>
  </clipPath>
</defs>
<polyline clip-path="url(#clip622)" style="stroke:#000000; stroke-linecap:butt; stroke-linejoin:round; stroke-width:2; stroke-opacity:0.1; fill:none" points="
  490.594,1423.18 490.594,47.2441 
  "/>
<polyline clip-path="url(#clip622)" style="stroke:#000000; stroke-linecap:butt; stroke-linejoin:round; stroke-width:2; stroke-opacity:0.1; fill:none" points="
  941.262,1423.18 941.262,47.2441 
  "/>
<polyline clip-path="url(#clip622)" style="stroke:#000000; stroke-linecap:butt; stroke-linejoin:round; stroke-width:2; stroke-opacity:0.1; fill:none" points="
  1391.93,1423.18 1391.93,47.2441 
  "/>
<polyline clip-path="url(#clip622)" style="stroke:#000000; stroke-linecap:butt; stroke-linejoin:round; stroke-width:2; stroke-opacity:0.1; fill:none" points="
  1842.6,1423.18 1842.6,47.2441 
  "/>
<polyline clip-path="url(#clip622)" style="stroke:#000000; stroke-linecap:butt; stroke-linejoin:round; stroke-width:2; stroke-opacity:0.1; fill:none" points="
  2293.27,1423.18 2293.27,47.2441 
  "/>
<polyline clip-path="url(#clip620)" style="stroke:#000000; stroke-linecap:butt; stroke-linejoin:round; stroke-width:4; stroke-opacity:1; fill:none" points="
  250.838,1423.18 2352.76,1423.18 
  "/>
<polyline clip-path="url(#clip620)" style="stroke:#000000; stroke-linecap:butt; stroke-linejoin:round; stroke-width:4; stroke-opacity:1; fill:none" points="
  490.594,1423.18 490.594,1404.28 
  "/>
<polyline clip-path="url(#clip620)" style="stroke:#000000; stroke-linecap:butt; stroke-linejoin:round; stroke-width:4; stroke-opacity:1; fill:none" points="
  941.262,1423.18 941.262,1404.28 
  "/>
<polyline clip-path="url(#clip620)" style="stroke:#000000; stroke-linecap:butt; stroke-linejoin:round; stroke-width:4; stroke-opacity:1; fill:none" points="
  1391.93,1423.18 1391.93,1404.28 
  "/>
<polyline clip-path="url(#clip620)" style="stroke:#000000; stroke-linecap:butt; stroke-linejoin:round; stroke-width:4; stroke-opacity:1; fill:none" points="
  1842.6,1423.18 1842.6,1404.28 
  "/>
<polyline clip-path="url(#clip620)" style="stroke:#000000; stroke-linecap:butt; stroke-linejoin:round; stroke-width:4; stroke-opacity:1; fill:none" points="
  2293.27,1423.18 2293.27,1404.28 
  "/>
<path clip-path="url(#clip620)" d="M465.282 1479.92 L472.92 1479.92 L472.92 1453.55 L464.61 1455.22 L464.61 1450.96 L472.874 1449.29 L477.55 1449.29 L477.55 1479.92 L485.189 1479.92 L485.189 1483.85 L465.282 1483.85 L465.282 1479.92 Z" fill="#000000" fill-rule="evenodd" fill-opacity="1" /><path clip-path="url(#clip620)" d="M504.633 1452.37 Q501.022 1452.37 499.193 1455.94 Q497.388 1459.48 497.388 1466.61 Q497.388 1473.71 499.193 1477.28 Q501.022 1480.82 504.633 1480.82 Q508.267 1480.82 510.073 1477.28 Q511.902 1473.71 511.902 1466.61 Q511.902 1459.48 510.073 1455.94 Q508.267 1452.37 504.633 1452.37 M504.633 1448.67 Q510.443 1448.67 513.499 1453.27 Q516.578 1457.86 516.578 1466.61 Q516.578 1475.33 513.499 1479.94 Q510.443 1484.52 504.633 1484.52 Q498.823 1484.52 495.744 1479.94 Q492.689 1475.33 492.689 1466.61 Q492.689 1457.86 495.744 1453.27 Q498.823 1448.67 504.633 1448.67 Z" fill="#000000" fill-rule="evenodd" fill-opacity="1" /><path clip-path="url(#clip620)" d="M920.036 1479.92 L936.355 1479.92 L936.355 1483.85 L914.411 1483.85 L914.411 1479.92 Q917.073 1477.16 921.656 1472.53 Q926.262 1467.88 927.443 1466.54 Q929.688 1464.01 930.568 1462.28 Q931.471 1460.52 931.471 1458.83 Q931.471 1456.07 929.526 1454.34 Q927.605 1452.6 924.503 1452.6 Q922.304 1452.6 919.85 1453.37 Q917.42 1454.13 914.642 1455.68 L914.642 1450.96 Q917.466 1449.82 919.92 1449.25 Q922.374 1448.67 924.411 1448.67 Q929.781 1448.67 932.975 1451.35 Q936.17 1454.04 936.17 1458.53 Q936.17 1460.66 935.36 1462.58 Q934.573 1464.48 932.466 1467.07 Q931.887 1467.74 928.786 1470.96 Q925.684 1474.15 920.036 1479.92 Z" fill="#000000" fill-rule="evenodd" fill-opacity="1" /><path clip-path="url(#clip620)" d="M956.17 1452.37 Q952.559 1452.37 950.73 1455.94 Q948.924 1459.48 948.924 1466.61 Q948.924 1473.71 950.73 1477.28 Q952.559 1480.82 956.17 1480.82 Q959.804 1480.82 961.609 1477.28 Q963.438 1473.71 963.438 1466.61 Q963.438 1459.48 961.609 1455.94 Q959.804 1452.37 956.17 1452.37 M956.17 1448.67 Q961.98 1448.67 965.035 1453.27 Q968.114 1457.86 968.114 1466.61 Q968.114 1475.33 965.035 1479.94 Q961.98 1484.52 956.17 1484.52 Q950.36 1484.52 947.281 1479.94 Q944.225 1475.33 944.225 1466.61 Q944.225 1457.86 947.281 1453.27 Q950.36 1448.67 956.17 1448.67 Z" fill="#000000" fill-rule="evenodd" fill-opacity="1" /><path clip-path="url(#clip620)" d="M1380.77 1465.22 Q1384.13 1465.94 1386 1468.2 Q1387.9 1470.47 1387.9 1473.81 Q1387.9 1478.92 1384.38 1481.72 Q1380.87 1484.52 1374.38 1484.52 Q1372.21 1484.52 1369.89 1484.08 Q1367.6 1483.67 1365.15 1482.81 L1365.15 1478.3 Q1367.09 1479.43 1369.41 1480.01 Q1371.72 1480.59 1374.25 1480.59 Q1378.64 1480.59 1380.94 1478.85 Q1383.25 1477.12 1383.25 1473.81 Q1383.25 1470.75 1381.1 1469.04 Q1378.97 1467.3 1375.15 1467.3 L1371.12 1467.3 L1371.12 1463.46 L1375.33 1463.46 Q1378.78 1463.46 1380.61 1462.09 Q1382.44 1460.7 1382.44 1458.11 Q1382.44 1455.45 1380.54 1454.04 Q1378.67 1452.6 1375.15 1452.6 Q1373.23 1452.6 1371.03 1453.02 Q1368.83 1453.44 1366.19 1454.31 L1366.19 1450.15 Q1368.85 1449.41 1371.17 1449.04 Q1373.5 1448.67 1375.57 1448.67 Q1380.89 1448.67 1383.99 1451.1 Q1387.09 1453.5 1387.09 1457.63 Q1387.09 1460.5 1385.45 1462.49 Q1383.81 1464.45 1380.77 1465.22 Z" fill="#000000" fill-rule="evenodd" fill-opacity="1" /><path clip-path="url(#clip620)" d="M1406.77 1452.37 Q1403.16 1452.37 1401.33 1455.94 Q1399.52 1459.48 1399.52 1466.61 Q1399.52 1473.71 1401.33 1477.28 Q1403.16 1480.82 1406.77 1480.82 Q1410.4 1480.82 1412.21 1477.28 Q1414.04 1473.71 1414.04 1466.61 Q1414.04 1459.48 1412.21 1455.94 Q1410.4 1452.37 1406.77 1452.37 M1406.77 1448.67 Q1412.58 1448.67 1415.63 1453.27 Q1418.71 1457.86 1418.71 1466.61 Q1418.71 1475.33 1415.63 1479.94 Q1412.58 1484.52 1406.77 1484.52 Q1400.96 1484.52 1397.88 1479.94 Q1394.82 1475.33 1394.82 1466.61 Q1394.82 1457.86 1397.88 1453.27 Q1400.96 1448.67 1406.77 1448.67 Z" fill="#000000" fill-rule="evenodd" fill-opacity="1" /><path clip-path="url(#clip620)" d="M1830.77 1453.37 L1818.97 1471.81 L1830.77 1471.81 L1830.77 1453.37 M1829.54 1449.29 L1835.42 1449.29 L1835.42 1471.81 L1840.35 1471.81 L1840.35 1475.7 L1835.42 1475.7 L1835.42 1483.85 L1830.77 1483.85 L1830.77 1475.7 L1815.17 1475.7 L1815.17 1471.19 L1829.54 1449.29 Z" fill="#000000" fill-rule="evenodd" fill-opacity="1" /><path clip-path="url(#clip620)" d="M1858.09 1452.37 Q1854.47 1452.37 1852.65 1455.94 Q1850.84 1459.48 1850.84 1466.61 Q1850.84 1473.71 1852.65 1477.28 Q1854.47 1480.82 1858.09 1480.82 Q1861.72 1480.82 1863.53 1477.28 Q1865.35 1473.71 1865.35 1466.61 Q1865.35 1459.48 1863.53 1455.94 Q1861.72 1452.37 1858.09 1452.37 M1858.09 1448.67 Q1863.9 1448.67 1866.95 1453.27 Q1870.03 1457.86 1870.03 1466.61 Q1870.03 1475.33 1866.95 1479.94 Q1863.9 1484.52 1858.09 1484.52 Q1852.28 1484.52 1849.2 1479.94 Q1846.14 1475.33 1846.14 1466.61 Q1846.14 1457.86 1849.2 1453.27 Q1852.28 1448.67 1858.09 1448.67 Z" fill="#000000" fill-rule="evenodd" fill-opacity="1" /><path clip-path="url(#clip620)" d="M2267.97 1449.29 L2286.32 1449.29 L2286.32 1453.23 L2272.25 1453.23 L2272.25 1461.7 Q2273.27 1461.35 2274.29 1461.19 Q2275.3 1461 2276.32 1461 Q2282.11 1461 2285.49 1464.18 Q2288.87 1467.35 2288.87 1472.76 Q2288.87 1478.34 2285.4 1481.44 Q2281.93 1484.52 2275.61 1484.52 Q2273.43 1484.52 2271.16 1484.15 Q2268.92 1483.78 2266.51 1483.04 L2266.51 1478.34 Q2268.59 1479.48 2270.81 1480.03 Q2273.04 1480.59 2275.51 1480.59 Q2279.52 1480.59 2281.86 1478.48 Q2284.19 1476.38 2284.19 1472.76 Q2284.19 1469.15 2281.86 1467.05 Q2279.52 1464.94 2275.51 1464.94 Q2273.64 1464.94 2271.76 1465.36 Q2269.91 1465.77 2267.97 1466.65 L2267.97 1449.29 Z" fill="#000000" fill-rule="evenodd" fill-opacity="1" /><path clip-path="url(#clip620)" d="M2308.08 1452.37 Q2304.47 1452.37 2302.64 1455.94 Q2300.84 1459.48 2300.84 1466.61 Q2300.84 1473.71 2302.64 1477.28 Q2304.47 1480.82 2308.08 1480.82 Q2311.72 1480.82 2313.52 1477.28 Q2315.35 1473.71 2315.35 1466.61 Q2315.35 1459.48 2313.52 1455.94 Q2311.72 1452.37 2308.08 1452.37 M2308.08 1448.67 Q2313.89 1448.67 2316.95 1453.27 Q2320.03 1457.86 2320.03 1466.61 Q2320.03 1475.33 2316.95 1479.94 Q2313.89 1484.52 2308.08 1484.52 Q2302.27 1484.52 2299.19 1479.94 Q2296.14 1475.33 2296.14 1466.61 Q2296.14 1457.86 2299.19 1453.27 Q2302.27 1448.67 2308.08 1448.67 Z" fill="#000000" fill-rule="evenodd" fill-opacity="1" /><path clip-path="url(#clip620)" d="M1062.75 1568.04 L1062.75 1553.05 L1051.83 1553.05 Q1046.96 1553.05 1043.72 1550.03 Q1040.79 1547.29 1040.79 1541.44 L1040.79 1532.4 L1046.64 1532.4 L1046.64 1540.89 Q1046.64 1544.62 1048.3 1546.5 Q1049.99 1548.37 1053.3 1548.37 L1062.75 1548.37 L1062.75 1532.4 L1068.61 1532.4 L1068.61 1568.04 L1062.75 1568.04 Z" fill="#000000" fill-rule="evenodd" fill-opacity="1" /><path clip-path="url(#clip620)" d="M1110.97 1532.4 L1110.97 1568.04 L1105.14 1568.04 L1105.14 1539.43 L1087.96 1568.04 L1080.45 1568.04 L1080.45 1532.4 L1086.27 1532.4 L1086.27 1560.95 L1103.43 1532.4 L1110.97 1532.4 Z" fill="#000000" fill-rule="evenodd" fill-opacity="1" /><path clip-path="url(#clip620)" d="M1148.69 1533.76 L1148.69 1539.24 Q1146.2 1537.87 1143.69 1537.2 Q1141.21 1536.5 1138.66 1536.5 Q1132.96 1536.5 1129.81 1540.13 Q1126.66 1543.73 1126.66 1550.25 Q1126.66 1556.78 1129.81 1560.4 Q1132.96 1564 1138.66 1564 Q1141.21 1564 1143.69 1563.33 Q1146.2 1562.63 1148.69 1561.26 L1148.69 1566.68 Q1146.24 1567.82 1143.59 1568.39 Q1140.98 1568.97 1138.02 1568.97 Q1129.97 1568.97 1125.23 1563.91 Q1120.49 1558.85 1120.49 1550.25 Q1120.49 1541.53 1125.26 1536.53 Q1130.07 1531.54 1138.41 1531.54 Q1141.11 1531.54 1143.69 1532.11 Q1146.27 1532.65 1148.69 1533.76 Z" fill="#000000" fill-rule="evenodd" fill-opacity="1" /><path clip-path="url(#clip620)" d="M1155.15 1568.04 L1155.15 1563.17 Q1160.94 1562.28 1162.72 1558.27 Q1164.89 1552.64 1164.89 1538.22 L1164.89 1532.4 L1188.98 1532.4 L1188.98 1568.04 L1183.12 1568.04 L1183.12 1537.07 L1170.74 1537.07 L1170.74 1540.61 Q1170.74 1554.36 1167.94 1560.53 Q1164.95 1567.12 1155.15 1568.04 Z" fill="#000000" fill-rule="evenodd" fill-opacity="1" /><path clip-path="url(#clip620)" d="M1214.35 1536.5 Q1209.64 1536.5 1206.9 1540.19 Q1204.16 1543.85 1204.16 1550.25 Q1204.16 1556.65 1206.87 1560.34 Q1209.61 1564 1214.35 1564 Q1219.03 1564 1221.76 1560.31 Q1224.5 1556.62 1224.5 1550.25 Q1224.5 1543.92 1221.76 1540.23 Q1219.03 1536.5 1214.35 1536.5 M1214.35 1531.54 Q1221.99 1531.54 1226.35 1536.5 Q1230.71 1541.47 1230.71 1550.25 Q1230.71 1559 1226.35 1564 Q1221.99 1568.97 1214.35 1568.97 Q1206.68 1568.97 1202.32 1564 Q1197.99 1559 1197.99 1550.25 Q1197.99 1541.47 1202.32 1536.5 Q1206.68 1531.54 1214.35 1531.54 Z" fill="#000000" fill-rule="evenodd" fill-opacity="1" /><path clip-path="url(#clip620)" d="M1274.95 1536.5 Q1270.24 1536.5 1267.5 1540.19 Q1264.76 1543.85 1264.76 1550.25 Q1264.76 1556.65 1267.47 1560.34 Q1270.21 1564 1274.95 1564 Q1279.63 1564 1282.37 1560.31 Q1285.1 1556.62 1285.1 1550.25 Q1285.1 1543.92 1282.37 1540.23 Q1279.63 1536.5 1274.95 1536.5 M1274.95 1531.54 Q1282.59 1531.54 1286.95 1536.5 Q1291.31 1541.47 1291.31 1550.25 Q1291.31 1559 1286.95 1564 Q1282.59 1568.97 1274.95 1568.97 Q1267.28 1568.97 1262.92 1564 Q1258.59 1559 1258.59 1550.25 Q1258.59 1541.47 1262.92 1536.5 Q1267.28 1531.54 1274.95 1531.54 Z" fill="#000000" fill-rule="evenodd" fill-opacity="1" /><path clip-path="url(#clip620)" d="M1296.78 1532.4 L1330.94 1532.4 L1330.94 1537.07 L1316.74 1537.07 L1316.74 1568.04 L1310.98 1568.04 L1310.98 1537.07 L1296.78 1537.07 L1296.78 1532.4 Z" fill="#000000" fill-rule="evenodd" fill-opacity="1" /><path clip-path="url(#clip620)" d="M1344.65 1562.7 L1344.65 1581.6 L1338.77 1581.6 L1338.77 1532.4 L1344.65 1532.4 L1344.65 1537.81 Q1346.5 1534.62 1349.3 1533.1 Q1352.13 1531.54 1356.05 1531.54 Q1362.54 1531.54 1366.58 1536.69 Q1370.66 1541.85 1370.66 1550.25 Q1370.66 1558.65 1366.58 1563.81 Q1362.54 1568.97 1356.05 1568.97 Q1352.13 1568.97 1349.3 1567.44 Q1346.5 1565.88 1344.65 1562.7 M1364.58 1550.25 Q1364.58 1543.79 1361.91 1540.13 Q1359.26 1536.44 1354.62 1536.44 Q1349.97 1536.44 1347.3 1540.13 Q1344.65 1543.79 1344.65 1550.25 Q1344.65 1556.71 1347.3 1560.4 Q1349.97 1564.07 1354.62 1564.07 Q1359.26 1564.07 1361.91 1560.4 Q1364.58 1556.71 1364.58 1550.25 Z" fill="#000000" fill-rule="evenodd" fill-opacity="1" /><path clip-path="url(#clip620)" d="M1410.86 1548.76 L1410.86 1551.62 L1383.93 1551.62 Q1384.31 1557.67 1387.56 1560.85 Q1390.84 1564 1396.66 1564 Q1400.04 1564 1403.19 1563.17 Q1406.37 1562.35 1409.49 1560.69 L1409.49 1566.23 Q1406.34 1567.57 1403.03 1568.27 Q1399.72 1568.97 1396.31 1568.97 Q1387.78 1568.97 1382.78 1564 Q1377.82 1559.04 1377.82 1550.57 Q1377.82 1541.82 1382.53 1536.69 Q1387.27 1531.54 1395.29 1531.54 Q1402.49 1531.54 1406.66 1536.18 Q1410.86 1540.8 1410.86 1548.76 M1405 1547.04 Q1404.94 1542.23 1402.3 1539.37 Q1399.69 1536.5 1395.36 1536.5 Q1390.46 1536.5 1387.5 1539.27 Q1384.57 1542.04 1384.12 1547.07 L1405 1547.04 Z" fill="#000000" fill-rule="evenodd" fill-opacity="1" /><path clip-path="url(#clip620)" d="M1436.8 1548.82 Q1440.74 1549.58 1442.94 1551.91 Q1445.14 1554.23 1445.14 1557.67 Q1445.14 1563.17 1441.03 1566.07 Q1436.93 1568.97 1429.35 1568.97 Q1426.8 1568.97 1424.1 1568.52 Q1421.42 1568.08 1418.56 1567.18 L1418.56 1561.74 Q1420.82 1562.92 1423.53 1563.52 Q1426.23 1564.1 1429.19 1564.1 Q1434 1564.1 1436.67 1562.31 Q1439.38 1560.53 1439.38 1557.67 Q1439.38 1554.87 1436.99 1553.18 Q1434.6 1551.46 1430.24 1551.46 L1425.53 1551.46 L1425.53 1546.62 L1430.46 1546.62 Q1434.16 1546.62 1436.29 1545.22 Q1438.45 1543.79 1438.45 1541.56 Q1438.45 1539.53 1436.22 1538.06 Q1434.03 1536.6 1430.24 1536.6 Q1427.98 1536.6 1425.4 1537.01 Q1422.86 1537.42 1419.77 1538.35 L1419.77 1533.03 Q1422.89 1532.27 1425.59 1531.89 Q1428.3 1531.5 1430.72 1531.5 Q1436.96 1531.5 1440.55 1534.02 Q1444.18 1536.5 1444.18 1540.99 Q1444.18 1543.95 1442.27 1546.02 Q1440.36 1548.06 1436.8 1548.82 Z" fill="#000000" fill-rule="evenodd" fill-opacity="1" /><path clip-path="url(#clip620)" d="M1454.91 1532.4 L1460.73 1532.4 L1460.73 1549.14 L1477.25 1532.4 L1484.45 1532.4 L1470.82 1546.18 L1486.2 1568.04 L1479.64 1568.04 L1467 1550.06 L1460.73 1556.43 L1460.73 1568.04 L1454.91 1568.04 L1454.91 1532.4 Z" fill="#000000" fill-rule="evenodd" fill-opacity="1" /><path clip-path="url(#clip620)" d="M1508.32 1536.5 Q1503.61 1536.5 1500.87 1540.19 Q1498.13 1543.85 1498.13 1550.25 Q1498.13 1556.65 1500.84 1560.34 Q1503.57 1564 1508.32 1564 Q1513 1564 1515.73 1560.31 Q1518.47 1556.62 1518.47 1550.25 Q1518.47 1543.92 1515.73 1540.23 Q1513 1536.5 1508.32 1536.5 M1508.32 1531.54 Q1515.96 1531.54 1520.32 1536.5 Q1524.68 1541.47 1524.68 1550.25 Q1524.68 1559 1520.32 1564 Q1515.96 1568.97 1508.32 1568.97 Q1500.65 1568.97 1496.29 1564 Q1491.96 1559 1491.96 1550.25 Q1491.96 1541.47 1496.29 1536.5 Q1500.65 1531.54 1508.32 1531.54 Z" fill="#000000" fill-rule="evenodd" fill-opacity="1" /><path clip-path="url(#clip620)" d="M1540.02 1551.62 L1540.02 1563.37 L1548.36 1563.37 Q1552.37 1563.37 1554.47 1561.87 Q1556.57 1560.34 1556.57 1557.48 Q1556.57 1554.61 1554.47 1553.12 Q1552.37 1551.62 1548.36 1551.62 L1540.02 1551.62 M1540.02 1537.07 L1540.02 1546.94 L1547.72 1546.94 Q1551.03 1546.94 1553.13 1545.64 Q1555.23 1544.3 1555.23 1541.94 Q1555.23 1539.59 1553.13 1538.35 Q1551.03 1537.07 1547.72 1537.07 L1540.02 1537.07 M1534.16 1532.4 L1548.1 1532.4 Q1554.37 1532.4 1557.75 1534.69 Q1561.12 1536.98 1561.12 1541.21 Q1561.12 1544.49 1559.4 1546.43 Q1557.68 1548.34 1554.31 1548.82 Q1558.35 1549.58 1560.58 1552 Q1562.81 1554.42 1562.81 1558.05 Q1562.81 1562.82 1559.11 1565.43 Q1555.45 1568.04 1548.64 1568.04 L1534.16 1568.04 L1534.16 1532.4 Z" fill="#000000" fill-rule="evenodd" fill-opacity="1" /><polyline clip-path="url(#clip622)" style="stroke:#000000; stroke-linecap:butt; stroke-linejoin:round; stroke-width:2; stroke-opacity:0.1; fill:none" points="
  250.838,1324.62 2352.76,1324.62 
  "/>
<polyline clip-path="url(#clip622)" style="stroke:#000000; stroke-linecap:butt; stroke-linejoin:round; stroke-width:2; stroke-opacity:0.1; fill:none" points="
  250.838,1118.85 2352.76,1118.85 
  "/>
<polyline clip-path="url(#clip622)" style="stroke:#000000; stroke-linecap:butt; stroke-linejoin:round; stroke-width:2; stroke-opacity:0.1; fill:none" points="
  250.838,913.075 2352.76,913.075 
  "/>
<polyline clip-path="url(#clip622)" style="stroke:#000000; stroke-linecap:butt; stroke-linejoin:round; stroke-width:2; stroke-opacity:0.1; fill:none" points="
  250.838,707.304 2352.76,707.304 
  "/>
<polyline clip-path="url(#clip622)" style="stroke:#000000; stroke-linecap:butt; stroke-linejoin:round; stroke-width:2; stroke-opacity:0.1; fill:none" points="
  250.838,501.533 2352.76,501.533 
  "/>
<polyline clip-path="url(#clip622)" style="stroke:#000000; stroke-linecap:butt; stroke-linejoin:round; stroke-width:2; stroke-opacity:0.1; fill:none" points="
  250.838,295.762 2352.76,295.762 
  "/>
<polyline clip-path="url(#clip622)" style="stroke:#000000; stroke-linecap:butt; stroke-linejoin:round; stroke-width:2; stroke-opacity:0.1; fill:none" points="
  250.838,89.9909 2352.76,89.9909 
  "/>
<polyline clip-path="url(#clip620)" style="stroke:#000000; stroke-linecap:butt; stroke-linejoin:round; stroke-width:4; stroke-opacity:1; fill:none" points="
  250.838,1423.18 250.838,47.2441 
  "/>
<polyline clip-path="url(#clip620)" style="stroke:#000000; stroke-linecap:butt; stroke-linejoin:round; stroke-width:4; stroke-opacity:1; fill:none" points="
  250.838,1324.62 269.736,1324.62 
  "/>
<polyline clip-path="url(#clip620)" style="stroke:#000000; stroke-linecap:butt; stroke-linejoin:round; stroke-width:4; stroke-opacity:1; fill:none" points="
  250.838,1118.85 269.736,1118.85 
  "/>
<polyline clip-path="url(#clip620)" style="stroke:#000000; stroke-linecap:butt; stroke-linejoin:round; stroke-width:4; stroke-opacity:1; fill:none" points="
  250.838,913.075 269.736,913.075 
  "/>
<polyline clip-path="url(#clip620)" style="stroke:#000000; stroke-linecap:butt; stroke-linejoin:round; stroke-width:4; stroke-opacity:1; fill:none" points="
  250.838,707.304 269.736,707.304 
  "/>
<polyline clip-path="url(#clip620)" style="stroke:#000000; stroke-linecap:butt; stroke-linejoin:round; stroke-width:4; stroke-opacity:1; fill:none" points="
  250.838,501.533 269.736,501.533 
  "/>
<polyline clip-path="url(#clip620)" style="stroke:#000000; stroke-linecap:butt; stroke-linejoin:round; stroke-width:4; stroke-opacity:1; fill:none" points="
  250.838,295.762 269.736,295.762 
  "/>
<polyline clip-path="url(#clip620)" style="stroke:#000000; stroke-linecap:butt; stroke-linejoin:round; stroke-width:4; stroke-opacity:1; fill:none" points="
  250.838,89.9909 269.736,89.9909 
  "/>
<path clip-path="url(#clip620)" d="M130.441 1311.41 L118.635 1329.86 L130.441 1329.86 L130.441 1311.41 M129.214 1307.34 L135.093 1307.34 L135.093 1329.86 L140.024 1329.86 L140.024 1333.75 L135.093 1333.75 L135.093 1341.9 L130.441 1341.9 L130.441 1333.75 L114.839 1333.75 L114.839 1329.23 L129.214 1307.34 Z" fill="#000000" fill-rule="evenodd" fill-opacity="1" /><path clip-path="url(#clip620)" d="M147.755 1336.02 L152.64 1336.02 L152.64 1341.9 L147.755 1341.9 L147.755 1336.02 Z" fill="#000000" fill-rule="evenodd" fill-opacity="1" /><path clip-path="url(#clip620)" d="M172.825 1310.42 Q169.214 1310.42 167.385 1313.98 Q165.579 1317.52 165.579 1324.65 Q165.579 1331.76 167.385 1335.32 Q169.214 1338.86 172.825 1338.86 Q176.459 1338.86 178.264 1335.32 Q180.093 1331.76 180.093 1324.65 Q180.093 1317.52 178.264 1313.98 Q176.459 1310.42 172.825 1310.42 M172.825 1306.71 Q178.635 1306.71 181.69 1311.32 Q184.769 1315.9 184.769 1324.65 Q184.769 1333.38 181.69 1337.98 Q178.635 1342.57 172.825 1342.57 Q167.015 1342.57 163.936 1337.98 Q160.88 1333.38 160.88 1324.65 Q160.88 1315.9 163.936 1311.32 Q167.015 1306.71 172.825 1306.71 Z" fill="#000000" fill-rule="evenodd" fill-opacity="1" /><path clip-path="url(#clip620)" d="M202.987 1325.48 Q199.653 1325.48 197.732 1327.27 Q195.834 1329.05 195.834 1332.17 Q195.834 1335.3 197.732 1337.08 Q199.653 1338.86 202.987 1338.86 Q206.32 1338.86 208.241 1337.08 Q210.162 1335.28 210.162 1332.17 Q210.162 1329.05 208.241 1327.27 Q206.343 1325.48 202.987 1325.48 M198.311 1323.49 Q195.301 1322.75 193.612 1320.69 Q191.945 1318.63 191.945 1315.67 Q191.945 1311.53 194.885 1309.12 Q197.848 1306.71 202.987 1306.71 Q208.149 1306.71 211.088 1309.12 Q214.028 1311.53 214.028 1315.67 Q214.028 1318.63 212.338 1320.69 Q210.672 1322.75 207.686 1323.49 Q211.065 1324.28 212.94 1326.57 Q214.838 1328.86 214.838 1332.17 Q214.838 1337.2 211.76 1339.88 Q208.704 1342.57 202.987 1342.57 Q197.269 1342.57 194.19 1339.88 Q191.135 1337.2 191.135 1332.17 Q191.135 1328.86 193.033 1326.57 Q194.931 1324.28 198.311 1323.49 M196.598 1316.11 Q196.598 1318.79 198.264 1320.3 Q199.954 1321.8 202.987 1321.8 Q205.996 1321.8 207.686 1320.3 Q209.399 1318.79 209.399 1316.11 Q209.399 1313.42 207.686 1311.92 Q205.996 1310.42 202.987 1310.42 Q199.954 1310.42 198.264 1311.92 Q196.598 1313.42 196.598 1316.11 Z" fill="#000000" fill-rule="evenodd" fill-opacity="1" /><path clip-path="url(#clip620)" d="M130.348 1105.64 L118.543 1124.09 L130.348 1124.09 L130.348 1105.64 M129.121 1101.57 L135.001 1101.57 L135.001 1124.09 L139.931 1124.09 L139.931 1127.98 L135.001 1127.98 L135.001 1136.13 L130.348 1136.13 L130.348 1127.98 L114.746 1127.98 L114.746 1123.46 L129.121 1101.57 Z" fill="#000000" fill-rule="evenodd" fill-opacity="1" /><path clip-path="url(#clip620)" d="M147.663 1130.25 L152.547 1130.25 L152.547 1136.13 L147.663 1136.13 L147.663 1130.25 Z" fill="#000000" fill-rule="evenodd" fill-opacity="1" /><path clip-path="url(#clip620)" d="M163.542 1132.19 L171.181 1132.19 L171.181 1105.82 L162.871 1107.49 L162.871 1103.23 L171.135 1101.57 L175.811 1101.57 L175.811 1132.19 L183.45 1132.19 L183.45 1136.13 L163.542 1136.13 L163.542 1132.19 Z" fill="#000000" fill-rule="evenodd" fill-opacity="1" /><path clip-path="url(#clip620)" d="M202.894 1104.64 Q199.283 1104.64 197.454 1108.21 Q195.649 1111.75 195.649 1118.88 Q195.649 1125.99 197.454 1129.55 Q199.283 1133.09 202.894 1133.09 Q206.528 1133.09 208.334 1129.55 Q210.162 1125.99 210.162 1118.88 Q210.162 1111.75 208.334 1108.21 Q206.528 1104.64 202.894 1104.64 M202.894 1100.94 Q208.704 1100.94 211.76 1105.55 Q214.838 1110.13 214.838 1118.88 Q214.838 1127.61 211.76 1132.21 Q208.704 1136.8 202.894 1136.8 Q197.084 1136.8 194.005 1132.21 Q190.95 1127.61 190.95 1118.88 Q190.95 1110.13 194.005 1105.55 Q197.084 1100.94 202.894 1100.94 Z" fill="#000000" fill-rule="evenodd" fill-opacity="1" /><path clip-path="url(#clip620)" d="M131.945 899.869 L120.14 918.318 L131.945 918.318 L131.945 899.869 M130.718 895.795 L136.598 895.795 L136.598 918.318 L141.529 918.318 L141.529 922.206 L136.598 922.206 L136.598 930.355 L131.945 930.355 L131.945 922.206 L116.343 922.206 L116.343 917.693 L130.718 895.795 Z" fill="#000000" fill-rule="evenodd" fill-opacity="1" /><path clip-path="url(#clip620)" d="M149.26 924.475 L154.144 924.475 L154.144 930.355 L149.26 930.355 L149.26 924.475 Z" fill="#000000" fill-rule="evenodd" fill-opacity="1" /><path clip-path="url(#clip620)" d="M165.14 926.419 L172.778 926.419 L172.778 900.054 L164.468 901.72 L164.468 897.461 L172.732 895.795 L177.408 895.795 L177.408 926.419 L185.047 926.419 L185.047 930.355 L165.14 930.355 L165.14 926.419 Z" fill="#000000" fill-rule="evenodd" fill-opacity="1" /><path clip-path="url(#clip620)" d="M198.519 926.419 L214.838 926.419 L214.838 930.355 L192.894 930.355 L192.894 926.419 Q195.556 923.665 200.139 919.035 Q204.746 914.382 205.926 913.04 Q208.172 910.517 209.051 908.781 Q209.954 907.021 209.954 905.332 Q209.954 902.577 208.01 900.841 Q206.088 899.105 202.987 899.105 Q200.787 899.105 198.334 899.869 Q195.903 900.633 193.125 902.183 L193.125 897.461 Q195.95 896.327 198.403 895.748 Q200.857 895.17 202.894 895.17 Q208.264 895.17 211.459 897.855 Q214.653 900.54 214.653 905.031 Q214.653 907.16 213.843 909.082 Q213.056 910.98 210.949 913.572 Q210.371 914.244 207.269 917.461 Q204.167 920.656 198.519 926.419 Z" fill="#000000" fill-rule="evenodd" fill-opacity="1" /><path clip-path="url(#clip620)" d="M129.862 694.098 L118.056 712.547 L129.862 712.547 L129.862 694.098 M128.635 690.024 L134.515 690.024 L134.515 712.547 L139.445 712.547 L139.445 716.436 L134.515 716.436 L134.515 724.584 L129.862 724.584 L129.862 716.436 L114.26 716.436 L114.26 711.922 L128.635 690.024 Z" fill="#000000" fill-rule="evenodd" fill-opacity="1" /><path clip-path="url(#clip620)" d="M147.177 718.704 L152.061 718.704 L152.061 724.584 L147.177 724.584 L147.177 718.704 Z" fill="#000000" fill-rule="evenodd" fill-opacity="1" /><path clip-path="url(#clip620)" d="M163.056 720.648 L170.695 720.648 L170.695 694.283 L162.385 695.95 L162.385 691.69 L170.649 690.024 L175.325 690.024 L175.325 720.648 L182.963 720.648 L182.963 724.584 L163.056 724.584 L163.056 720.648 Z" fill="#000000" fill-rule="evenodd" fill-opacity="1" /><path clip-path="url(#clip620)" d="M205.255 694.098 L193.45 712.547 L205.255 712.547 L205.255 694.098 M204.028 690.024 L209.908 690.024 L209.908 712.547 L214.838 712.547 L214.838 716.436 L209.908 716.436 L209.908 724.584 L205.255 724.584 L205.255 716.436 L189.653 716.436 L189.653 711.922 L204.028 690.024 Z" fill="#000000" fill-rule="evenodd" fill-opacity="1" /><path clip-path="url(#clip620)" d="M130.186 488.327 L118.381 506.776 L130.186 506.776 L130.186 488.327 M128.959 484.253 L134.839 484.253 L134.839 506.776 L139.769 506.776 L139.769 510.665 L134.839 510.665 L134.839 518.813 L130.186 518.813 L130.186 510.665 L114.584 510.665 L114.584 506.151 L128.959 484.253 Z" fill="#000000" fill-rule="evenodd" fill-opacity="1" /><path clip-path="url(#clip620)" d="M147.501 512.933 L152.385 512.933 L152.385 518.813 L147.501 518.813 L147.501 512.933 Z" fill="#000000" fill-rule="evenodd" fill-opacity="1" /><path clip-path="url(#clip620)" d="M163.38 514.878 L171.019 514.878 L171.019 488.512 L162.709 490.179 L162.709 485.919 L170.973 484.253 L175.649 484.253 L175.649 514.878 L183.288 514.878 L183.288 518.813 L163.38 518.813 L163.38 514.878 Z" fill="#000000" fill-rule="evenodd" fill-opacity="1" /><path clip-path="url(#clip620)" d="M203.311 499.669 Q200.162 499.669 198.311 501.822 Q196.482 503.975 196.482 507.725 Q196.482 511.452 198.311 513.628 Q200.162 515.78 203.311 515.78 Q206.459 515.78 208.287 513.628 Q210.139 511.452 210.139 507.725 Q210.139 503.975 208.287 501.822 Q206.459 499.669 203.311 499.669 M212.593 485.017 L212.593 489.276 Q210.834 488.443 209.028 488.003 Q207.246 487.563 205.487 487.563 Q200.857 487.563 198.403 490.688 Q195.973 493.813 195.625 500.132 Q196.991 498.118 199.051 497.054 Q201.112 495.966 203.588 495.966 Q208.797 495.966 211.806 499.137 Q214.838 502.285 214.838 507.725 Q214.838 513.049 211.69 516.266 Q208.542 519.484 203.311 519.484 Q197.315 519.484 194.144 514.901 Q190.973 510.294 190.973 501.567 Q190.973 493.373 194.862 488.512 Q198.75 483.628 205.301 483.628 Q207.061 483.628 208.843 483.975 Q210.649 484.322 212.593 485.017 Z" fill="#000000" fill-rule="evenodd" fill-opacity="1" /><path clip-path="url(#clip620)" d="M130.441 282.556 L118.635 301.005 L130.441 301.005 L130.441 282.556 M129.214 278.482 L135.093 278.482 L135.093 301.005 L140.024 301.005 L140.024 304.894 L135.093 304.894 L135.093 313.042 L130.441 313.042 L130.441 304.894 L114.839 304.894 L114.839 300.38 L129.214 278.482 Z" fill="#000000" fill-rule="evenodd" fill-opacity="1" /><path clip-path="url(#clip620)" d="M147.755 307.162 L152.64 307.162 L152.64 313.042 L147.755 313.042 L147.755 307.162 Z" fill="#000000" fill-rule="evenodd" fill-opacity="1" /><path clip-path="url(#clip620)" d="M163.635 309.107 L171.274 309.107 L171.274 282.741 L162.964 284.408 L162.964 280.148 L171.227 278.482 L175.903 278.482 L175.903 309.107 L183.542 309.107 L183.542 313.042 L163.635 313.042 L163.635 309.107 Z" fill="#000000" fill-rule="evenodd" fill-opacity="1" /><path clip-path="url(#clip620)" d="M202.987 296.63 Q199.653 296.63 197.732 298.412 Q195.834 300.195 195.834 303.32 Q195.834 306.445 197.732 308.227 Q199.653 310.009 202.987 310.009 Q206.32 310.009 208.241 308.227 Q210.162 306.421 210.162 303.32 Q210.162 300.195 208.241 298.412 Q206.343 296.63 202.987 296.63 M198.311 294.639 Q195.301 293.898 193.612 291.838 Q191.945 289.778 191.945 286.815 Q191.945 282.672 194.885 280.264 Q197.848 277.857 202.987 277.857 Q208.149 277.857 211.088 280.264 Q214.028 282.672 214.028 286.815 Q214.028 289.778 212.338 291.838 Q210.672 293.898 207.686 294.639 Q211.065 295.426 212.94 297.718 Q214.838 300.009 214.838 303.32 Q214.838 308.343 211.76 311.028 Q208.704 313.713 202.987 313.713 Q197.269 313.713 194.19 311.028 Q191.135 308.343 191.135 303.32 Q191.135 300.009 193.033 297.718 Q194.931 295.426 198.311 294.639 M196.598 287.255 Q196.598 289.94 198.264 291.445 Q199.954 292.949 202.987 292.949 Q205.996 292.949 207.686 291.445 Q209.399 289.94 209.399 287.255 Q209.399 284.57 207.686 283.065 Q205.996 281.56 202.987 281.56 Q199.954 281.56 198.264 283.065 Q196.598 284.57 196.598 287.255 Z" fill="#000000" fill-rule="evenodd" fill-opacity="1" /><path clip-path="url(#clip620)" d="M130.348 76.7849 L118.543 95.2339 L130.348 95.2339 L130.348 76.7849 M129.121 72.7109 L135.001 72.7109 L135.001 95.2339 L139.931 95.2339 L139.931 99.1228 L135.001 99.1228 L135.001 107.271 L130.348 107.271 L130.348 99.1228 L114.746 99.1228 L114.746 94.6089 L129.121 72.7109 Z" fill="#000000" fill-rule="evenodd" fill-opacity="1" /><path clip-path="url(#clip620)" d="M147.663 101.391 L152.547 101.391 L152.547 107.271 L147.663 107.271 L147.663 101.391 Z" fill="#000000" fill-rule="evenodd" fill-opacity="1" /><path clip-path="url(#clip620)" d="M166.76 103.336 L183.079 103.336 L183.079 107.271 L161.135 107.271 L161.135 103.336 Q163.797 100.581 168.38 95.9515 Q172.987 91.2987 174.167 89.9561 Q176.413 87.433 177.292 85.6969 Q178.195 83.9377 178.195 82.2479 Q178.195 79.4932 176.251 77.7571 Q174.329 76.021 171.227 76.021 Q169.028 76.021 166.575 76.7849 Q164.144 77.5488 161.366 79.0997 L161.366 74.3775 Q164.19 73.2433 166.644 72.6646 Q169.098 72.0859 171.135 72.0859 Q176.505 72.0859 179.7 74.771 Q182.894 77.4562 182.894 81.9469 Q182.894 84.0766 182.084 85.9978 Q181.297 87.896 179.19 90.4886 Q178.612 91.1598 175.51 94.3774 Q172.408 97.5718 166.76 103.336 Z" fill="#000000" fill-rule="evenodd" fill-opacity="1" /><path clip-path="url(#clip620)" d="M202.894 75.7896 Q199.283 75.7896 197.454 79.3544 Q195.649 82.896 195.649 90.0256 Q195.649 97.132 197.454 100.697 Q199.283 104.238 202.894 104.238 Q206.528 104.238 208.334 100.697 Q210.162 97.132 210.162 90.0256 Q210.162 82.896 208.334 79.3544 Q206.528 75.7896 202.894 75.7896 M202.894 72.0859 Q208.704 72.0859 211.76 76.6923 Q214.838 81.2756 214.838 90.0256 Q214.838 98.7524 211.76 103.359 Q208.704 107.942 202.894 107.942 Q197.084 107.942 194.005 103.359 Q190.95 98.7524 190.95 90.0256 Q190.95 81.2756 194.005 76.6923 Q197.084 72.0859 202.894 72.0859 Z" fill="#000000" fill-rule="evenodd" fill-opacity="1" /><path clip-path="url(#clip620)" d="M28.3562 859.168 L64.0042 859.168 L64.0042 864.993 L35.3903 864.993 L64.0042 882.18 L64.0042 889.692 L28.3562 889.692 L28.3562 883.867 L56.9064 883.867 L28.3562 866.712 L28.3562 859.168 Z" fill="#000000" fill-rule="evenodd" fill-opacity="1" /><path clip-path="url(#clip620)" d="M28.3562 847.328 L28.3562 841.44 L42.9018 841.44 L42.9018 822.438 L28.3562 822.438 L28.3562 816.55 L64.0042 816.55 L64.0042 822.438 L47.5806 822.438 L47.5806 841.44 L64.0042 841.44 L64.0042 847.328 L28.3562 847.328 Z" fill="#000000" fill-rule="evenodd" fill-opacity="1" /><path clip-path="url(#clip620)" d="M28.3562 808.72 L28.3562 774.568 L33.035 774.568 L33.035 788.763 L64.0042 788.763 L64.0042 794.524 L33.035 794.524 L33.035 808.72 L28.3562 808.72 Z" fill="#000000" fill-rule="evenodd" fill-opacity="1" /><path clip-path="url(#clip620)" d="M44.7161 736.024 L47.5806 736.024 L47.5806 762.951 Q53.6281 762.569 56.8109 759.322 Q59.9619 756.044 59.9619 750.219 Q59.9619 746.845 59.1344 743.694 Q58.3069 740.511 56.6518 737.392 L62.1899 737.392 Q63.5267 740.543 64.227 743.853 Q64.9272 747.164 64.9272 750.569 Q64.9272 759.099 59.9619 764.096 Q54.9967 769.062 46.5303 769.062 Q37.7774 769.062 32.6531 764.351 Q27.4968 759.609 27.4968 751.588 Q27.4968 744.395 32.1438 740.225 Q36.7589 736.024 44.7161 736.024 M42.9973 741.88 Q38.1912 741.944 35.3266 744.585 Q32.4621 747.195 32.4621 751.524 Q32.4621 756.426 35.2312 759.386 Q38.0002 762.314 43.0292 762.76 L42.9973 741.88 Z" fill="#000000" fill-rule="evenodd" fill-opacity="1" /><path clip-path="url(#clip620)" d="M64.0042 726.634 L28.3562 726.634 L28.3562 701.49 L33.035 701.49 L33.035 720.746 L64.0042 720.746 L64.0042 726.634 Z" fill="#000000" fill-rule="evenodd" fill-opacity="1" /><path clip-path="url(#clip620)" d="M58.657 686.498 L77.5631 686.498 L77.5631 692.387 L28.3562 692.387 L28.3562 686.498 L33.7671 686.498 Q30.5842 684.652 29.0564 681.851 Q27.4968 679.019 27.4968 675.104 Q27.4968 668.611 32.6531 664.569 Q37.8093 660.494 46.212 660.494 Q54.6147 660.494 59.771 664.569 Q64.9272 668.611 64.9272 675.104 Q64.9272 679.019 63.3994 681.851 Q61.8398 684.652 58.657 686.498 M46.212 666.574 Q39.7508 666.574 36.0905 669.247 Q32.3984 671.889 32.3984 676.536 Q32.3984 681.183 36.0905 683.857 Q39.7508 686.498 46.212 686.498 Q52.6732 686.498 56.3653 683.857 Q60.0256 681.183 60.0256 676.536 Q60.0256 671.889 56.3653 669.247 Q52.6732 666.574 46.212 666.574 Z" fill="#000000" fill-rule="evenodd" fill-opacity="1" /><path clip-path="url(#clip620)" d="M46.0847 634.586 Q46.0847 641.684 47.7079 644.421 Q49.3312 647.158 53.2461 647.158 Q56.3653 647.158 58.2114 645.121 Q60.0256 643.052 60.0256 639.519 Q60.0256 634.65 56.5881 631.721 Q53.1188 628.761 47.3897 628.761 L46.0847 628.761 L46.0847 634.586 M43.6657 622.905 L64.0042 622.905 L64.0042 628.761 L58.5933 628.761 Q61.8398 630.767 63.3994 633.759 Q64.9272 636.75 64.9272 641.079 Q64.9272 646.554 61.8716 649.8 Q58.7843 653.015 53.6281 653.015 Q47.6125 653.015 44.5569 649.004 Q41.5014 644.962 41.5014 636.973 L41.5014 628.761 L40.9285 628.761 Q36.8862 628.761 34.6901 631.435 Q32.4621 634.077 32.4621 638.883 Q32.4621 641.938 33.1941 644.835 Q33.9262 647.731 35.3903 650.405 L29.9795 650.405 Q28.7381 647.19 28.1334 644.166 Q27.4968 641.143 27.4968 638.278 Q27.4968 630.544 31.5072 626.724 Q35.5176 622.905 43.6657 622.905 Z" fill="#000000" fill-rule="evenodd" fill-opacity="1" /><path clip-path="url(#clip620)" d="M64.0042 614.566 L59.1344 614.566 Q58.2432 608.773 54.2328 606.991 Q48.5991 604.826 34.1808 604.826 L28.3562 604.826 L28.3562 580.732 L64.0042 580.732 L64.0042 586.589 L33.035 586.589 L33.035 598.97 L36.568 598.97 Q50.3179 598.97 56.4926 601.771 Q63.0811 604.763 64.0042 614.566 Z" fill="#000000" fill-rule="evenodd" fill-opacity="1" /><polyline clip-path="url(#clip622)" style="stroke:#009af9; stroke-linecap:butt; stroke-linejoin:round; stroke-width:4; stroke-opacity:1; fill:none" points="
  310.327,86.1857 400.46,462.799 490.594,639.03 580.728,735.212 670.861,793.352 760.995,831.144 851.129,857.079 941.262,875.643 1031.4,889.384 1121.53,899.839 
  1211.66,907.978 1301.8,914.437 1391.93,919.649 1482.06,923.915 1572.2,927.451 1662.33,930.415 1752.47,932.923 1842.6,935.065 1932.73,936.908 2022.87,938.505 
  2113,939.899 2203.13,941.123 2293.27,942.202 
  "/>
<polyline clip-path="url(#clip622)" style="stroke:#e26f46; stroke-linecap:butt; stroke-linejoin:round; stroke-width:4; stroke-opacity:1; fill:none" points="
  310.327,1303.23 400.46,951.879 490.594,942.893 580.728,951.554 670.861,953.21 760.995,953.926 851.129,954.304 941.262,954.514 1031.4,954.638 1121.53,954.715 
  1211.66,954.765 1301.8,954.799 1391.93,954.822 1482.06,954.839 1572.2,954.851 1662.33,954.86 1752.47,954.867 1842.6,954.872 1932.73,954.876 2022.87,954.879 
  2113,954.882 2203.13,954.884 2293.27,954.885 
  "/>
<polyline clip-path="url(#clip622)" style="stroke:#3da44d; stroke-linecap:butt; stroke-linejoin:round; stroke-width:4; stroke-opacity:1; fill:none" points="
  310.327,1384.24 400.46,1199.49 490.594,1112.26 580.728,1064.47 670.861,1035.52 760.995,1016.69 851.129,1003.75 941.262,994.487 1031.4,987.627 1121.53,982.406 
  1211.66,978.341 1301.8,975.114 1391.93,972.511 1482.06,970.379 1572.2,968.612 1662.33,967.131 1752.47,965.878 1842.6,964.807 1932.73,963.886 2022.87,963.088 
  2113,962.391 2203.13,961.779 2293.27,961.24 
  "/>
<path clip-path="url(#clip620)" d="
M1374.7 300.469 L2282.69 300.469 L2282.69 93.1086 L1374.7 93.1086  Z
  " fill="#ffffff" fill-rule="evenodd" fill-opacity="1"/>
<polyline clip-path="url(#clip620)" style="stroke:#000000; stroke-linecap:butt; stroke-linejoin:round; stroke-width:4; stroke-opacity:1; fill:none" points="
  1374.7,300.469 2282.69,300.469 2282.69,93.1086 1374.7,93.1086 1374.7,300.469 
  "/>
<polyline clip-path="url(#clip620)" style="stroke:#009af9; stroke-linecap:butt; stroke-linejoin:round; stroke-width:4; stroke-opacity:1; fill:none" points="
  1398.06,144.949 1538.19,144.949 
  "/>
<path clip-path="url(#clip620)" d="M1565.96 149.289 Q1565.96 154.729 1567.63 157.043 Q1569.32 159.335 1572.17 159.335 Q1574.44 159.335 1577.07 155.446 L1577.07 143.131 Q1574.44 139.243 1572.17 139.243 Q1569.32 139.243 1567.63 141.557 Q1565.96 143.849 1565.96 149.289 M1577.07 172.09 L1577.07 158.918 Q1575.75 161.094 1574.23 161.997 Q1572.72 162.9 1570.8 162.9 Q1566.94 162.9 1564.23 159.335 Q1561.54 155.747 1561.54 149.381 Q1561.54 143.016 1564.23 139.358 Q1566.94 135.678 1570.8 135.678 Q1572.72 135.678 1574.23 136.557 Q1575.75 137.437 1577.07 139.613 L1577.07 127.669 L1581.36 127.669 L1581.36 139.613 Q1582.68 137.437 1584.18 136.557 Q1585.71 135.678 1587.63 135.678 Q1591.5 135.678 1594.18 139.358 Q1596.89 143.016 1596.89 149.381 Q1596.89 155.747 1594.18 159.335 Q1591.5 162.9 1587.63 162.9 Q1585.71 162.9 1584.18 161.997 Q1582.68 161.094 1581.36 158.918 L1581.36 172.09 L1577.07 172.09 M1592.47 149.289 Q1592.47 143.849 1590.78 141.557 Q1589.11 139.243 1586.26 139.243 Q1584 139.243 1581.36 143.131 L1581.36 155.446 Q1584 159.335 1586.26 159.335 Q1589.11 159.335 1590.78 157.043 Q1592.47 154.729 1592.47 149.289 Z" fill="#000000" fill-rule="evenodd" fill-opacity="1" /><path clip-path="url(#clip620)" d="M1614 139.289 Q1610.57 139.289 1608.58 141.974 Q1606.59 144.636 1606.59 149.289 Q1606.59 153.942 1608.56 156.627 Q1610.55 159.289 1614 159.289 Q1617.4 159.289 1619.39 156.604 Q1621.38 153.918 1621.38 149.289 Q1621.38 144.682 1619.39 141.997 Q1617.4 139.289 1614 139.289 M1614 135.678 Q1619.55 135.678 1622.72 139.289 Q1625.89 142.9 1625.89 149.289 Q1625.89 155.655 1622.72 159.289 Q1619.55 162.9 1614 162.9 Q1608.42 162.9 1605.25 159.289 Q1602.1 155.655 1602.1 149.289 Q1602.1 142.9 1605.25 139.289 Q1608.42 135.678 1614 135.678 Z" fill="#000000" fill-rule="evenodd" fill-opacity="1" /><path clip-path="url(#clip620)" d="M1637.07 158.34 L1637.07 172.09 L1632.79 172.09 L1632.79 136.303 L1637.07 136.303 L1637.07 140.238 Q1638.42 137.923 1640.45 136.812 Q1642.51 135.678 1645.36 135.678 Q1650.08 135.678 1653.02 139.428 Q1655.99 143.178 1655.99 149.289 Q1655.99 155.4 1653.02 159.15 Q1650.08 162.9 1645.36 162.9 Q1642.51 162.9 1640.45 161.789 Q1638.42 160.655 1637.07 158.34 M1651.56 149.289 Q1651.56 144.59 1649.62 141.928 Q1647.7 139.243 1644.32 139.243 Q1640.94 139.243 1639 141.928 Q1637.07 144.59 1637.07 149.289 Q1637.07 153.988 1639 156.673 Q1640.94 159.335 1644.32 159.335 Q1647.7 159.335 1649.62 156.673 Q1651.56 153.988 1651.56 149.289 Z" fill="#000000" fill-rule="evenodd" fill-opacity="1" /><path clip-path="url(#clip620)" d="M1662.88 136.303 L1669.11 136.303 L1676.47 153.664 L1683.86 136.303 L1690.04 136.303 L1690.04 162.229 L1685.75 162.229 L1685.75 140.377 L1678.6 157.252 L1674.34 157.252 L1667.17 140.377 L1667.17 162.229 L1662.88 162.229 L1662.88 136.303 Z" fill="#000000" fill-rule="evenodd" fill-opacity="1" /><path clip-path="url(#clip620)" d="M1709.6 164.636 Q1707.79 169.266 1706.08 170.678 Q1704.37 172.09 1701.49 172.09 L1698.09 172.09 L1698.09 168.525 L1700.59 168.525 Q1702.35 168.525 1703.32 167.692 Q1704.3 166.858 1705.48 163.756 L1706.24 161.812 L1695.75 136.303 L1700.27 136.303 L1708.37 156.581 L1716.47 136.303 L1720.99 136.303 L1709.6 164.636 Z" fill="#000000" fill-rule="evenodd" fill-opacity="1" /><path clip-path="url(#clip620)" d="M1724.16 162.229 L1724.16 158.687 Q1728.37 158.039 1729.67 155.122 Q1731.24 151.025 1731.24 140.539 L1731.24 136.303 L1748.76 136.303 L1748.76 162.229 L1744.5 162.229 L1744.5 139.706 L1735.5 139.706 L1735.5 142.275 Q1735.5 152.275 1733.46 156.766 Q1731.29 161.557 1724.16 162.229 Z" fill="#000000" fill-rule="evenodd" fill-opacity="1" /><path clip-path="url(#clip620)" d="M1768.95 149.196 Q1763.79 149.196 1761.8 150.377 Q1759.8 151.557 1759.8 154.405 Q1759.8 156.673 1761.29 158.016 Q1762.79 159.335 1765.36 159.335 Q1768.9 159.335 1771.03 156.835 Q1773.18 154.312 1773.18 150.145 L1773.18 149.196 L1768.95 149.196 M1777.44 147.437 L1777.44 162.229 L1773.18 162.229 L1773.18 158.293 Q1771.73 160.655 1769.55 161.789 Q1767.37 162.9 1764.23 162.9 Q1760.24 162.9 1757.88 160.678 Q1755.55 158.432 1755.55 154.682 Q1755.55 150.307 1758.46 148.085 Q1761.4 145.863 1767.21 145.863 L1773.18 145.863 L1773.18 145.446 Q1773.18 142.507 1771.24 140.909 Q1769.32 139.289 1765.82 139.289 Q1763.6 139.289 1761.49 139.821 Q1759.39 140.354 1757.44 141.419 L1757.44 137.483 Q1759.78 136.581 1761.98 136.141 Q1764.18 135.678 1766.26 135.678 Q1771.89 135.678 1774.67 138.594 Q1777.44 141.511 1777.44 147.437 Z" fill="#000000" fill-rule="evenodd" fill-opacity="1" /><path clip-path="url(#clip620)" d="M1798.21 136.303 L1823.05 136.303 L1823.05 139.706 L1812.72 139.706 L1812.72 162.229 L1808.53 162.229 L1808.53 139.706 L1798.21 139.706 L1798.21 136.303 Z" fill="#000000" fill-rule="evenodd" fill-opacity="1" /><path clip-path="url(#clip620)" d="M1833.02 158.34 L1833.02 172.09 L1828.74 172.09 L1828.74 136.303 L1833.02 136.303 L1833.02 140.238 Q1834.36 137.923 1836.4 136.812 Q1838.46 135.678 1841.31 135.678 Q1846.03 135.678 1848.97 139.428 Q1851.93 143.178 1851.93 149.289 Q1851.93 155.4 1848.97 159.15 Q1846.03 162.9 1841.31 162.9 Q1838.46 162.9 1836.4 161.789 Q1834.36 160.655 1833.02 158.34 M1847.51 149.289 Q1847.51 144.59 1845.57 141.928 Q1843.65 139.243 1840.27 139.243 Q1836.89 139.243 1834.94 141.928 Q1833.02 144.59 1833.02 149.289 Q1833.02 153.988 1834.94 156.673 Q1836.89 159.335 1840.27 159.335 Q1843.65 159.335 1845.57 156.673 Q1847.51 153.988 1847.51 149.289 Z" fill="#000000" fill-rule="evenodd" fill-opacity="1" /><path clip-path="url(#clip620)" d="M1870.78 149.196 Q1865.61 149.196 1863.62 150.377 Q1861.63 151.557 1861.63 154.405 Q1861.63 156.673 1863.11 158.016 Q1864.62 159.335 1867.19 159.335 Q1870.73 159.335 1872.86 156.835 Q1875.01 154.312 1875.01 150.145 L1875.01 149.196 L1870.78 149.196 M1879.27 147.437 L1879.27 162.229 L1875.01 162.229 L1875.01 158.293 Q1873.55 160.655 1871.38 161.789 Q1869.2 162.9 1866.05 162.9 Q1862.07 162.9 1859.71 160.678 Q1857.37 158.432 1857.37 154.682 Q1857.37 150.307 1860.29 148.085 Q1863.23 145.863 1869.04 145.863 L1875.01 145.863 L1875.01 145.446 Q1875.01 142.507 1873.07 140.909 Q1871.15 139.289 1867.65 139.289 Q1865.43 139.289 1863.32 139.821 Q1861.22 140.354 1859.27 141.419 L1859.27 137.483 Q1861.61 136.581 1863.81 136.141 Q1866.01 135.678 1868.09 135.678 Q1873.72 135.678 1876.49 138.594 Q1879.27 141.511 1879.27 147.437 Z" fill="#000000" fill-rule="evenodd" fill-opacity="1" /><path clip-path="url(#clip620)" d="M1910.27 136.303 L1910.27 162.229 L1905.98 162.229 L1905.98 139.706 L1892.17 139.706 L1892.17 162.229 L1887.88 162.229 L1887.88 136.303 L1910.27 136.303 Z" fill="#000000" fill-rule="evenodd" fill-opacity="1" /><path clip-path="url(#clip620)" d="M1941.22 148.201 L1941.22 150.284 L1921.63 150.284 Q1921.91 154.682 1924.27 156.997 Q1926.66 159.289 1930.89 159.289 Q1933.35 159.289 1935.64 158.687 Q1937.95 158.085 1940.22 156.881 L1940.22 160.909 Q1937.93 161.881 1935.52 162.391 Q1933.11 162.9 1930.64 162.9 Q1924.43 162.9 1920.8 159.289 Q1917.19 155.678 1917.19 149.52 Q1917.19 143.155 1920.61 139.428 Q1924.06 135.678 1929.9 135.678 Q1935.13 135.678 1938.16 139.057 Q1941.22 142.414 1941.22 148.201 M1936.96 146.951 Q1936.91 143.456 1934.99 141.372 Q1933.09 139.289 1929.94 139.289 Q1926.38 139.289 1924.23 141.303 Q1922.1 143.317 1921.77 146.974 L1936.96 146.951 Z" fill="#000000" fill-rule="evenodd" fill-opacity="1" /><path clip-path="url(#clip620)" d="M1970.43 162.229 L1948.04 162.229 L1948.04 136.303 L1952.33 136.303 L1952.33 158.826 L1966.15 158.826 L1966.15 136.303 L1970.43 136.303 L1970.43 158.826 L1973.83 158.826 L1973.83 168.78 L1970.43 168.78 L1970.43 162.229 Z" fill="#000000" fill-rule="evenodd" fill-opacity="1" /><path clip-path="url(#clip620)" d="M2002.51 136.303 L2002.51 162.229 L1998.28 162.229 L1998.28 141.419 L1985.78 162.229 L1980.31 162.229 L1980.31 136.303 L1984.55 136.303 L1984.55 157.067 L1997.03 136.303 L2002.51 136.303 Z" fill="#000000" fill-rule="evenodd" fill-opacity="1" /><path clip-path="url(#clip620)" d="M2033.32 136.303 L2033.32 162.229 L2029.09 162.229 L2029.09 141.419 L2016.59 162.229 L2011.12 162.229 L2011.12 136.303 L2015.36 136.303 L2015.36 157.067 L2027.84 136.303 L2033.32 136.303 M2014.99 126.21 L2017.72 126.21 Q2017.97 127.946 2019.09 128.826 Q2020.22 129.682 2022.23 129.682 Q2024.22 129.682 2025.34 128.826 Q2026.45 127.97 2026.75 126.21 L2029.48 126.21 Q2029.25 129.52 2027.42 131.187 Q2025.59 132.854 2022.23 132.854 Q2018.88 132.854 2017.05 131.187 Q2015.22 129.52 2014.99 126.21 Z" fill="#000000" fill-rule="evenodd" fill-opacity="1" /><polyline clip-path="url(#clip620)" style="stroke:#e26f46; stroke-linecap:butt; stroke-linejoin:round; stroke-width:4; stroke-opacity:1; fill:none" points="
  1398.06,196.789 1538.19,196.789 
  "/>
<path clip-path="url(#clip620)" d="M1565.96 201.129 Q1565.96 206.569 1567.63 208.883 Q1569.32 211.175 1572.17 211.175 Q1574.44 211.175 1577.07 207.286 L1577.07 194.971 Q1574.44 191.083 1572.17 191.083 Q1569.32 191.083 1567.63 193.397 Q1565.96 195.689 1565.96 201.129 M1577.07 223.93 L1577.07 210.758 Q1575.75 212.934 1574.23 213.837 Q1572.72 214.74 1570.8 214.74 Q1566.94 214.74 1564.23 211.175 Q1561.54 207.587 1561.54 201.221 Q1561.54 194.856 1564.23 191.198 Q1566.94 187.518 1570.8 187.518 Q1572.72 187.518 1574.23 188.397 Q1575.75 189.277 1577.07 191.453 L1577.07 179.509 L1581.36 179.509 L1581.36 191.453 Q1582.68 189.277 1584.18 188.397 Q1585.71 187.518 1587.63 187.518 Q1591.5 187.518 1594.18 191.198 Q1596.89 194.856 1596.89 201.221 Q1596.89 207.587 1594.18 211.175 Q1591.5 214.74 1587.63 214.74 Q1585.71 214.74 1584.18 213.837 Q1582.68 212.934 1581.36 210.758 L1581.36 223.93 L1577.07 223.93 M1592.47 201.129 Q1592.47 195.689 1590.78 193.397 Q1589.11 191.083 1586.26 191.083 Q1584 191.083 1581.36 194.971 L1581.36 207.286 Q1584 211.175 1586.26 211.175 Q1589.11 211.175 1590.78 208.883 Q1592.47 206.569 1592.47 201.129 Z" fill="#000000" fill-rule="evenodd" fill-opacity="1" /><path clip-path="url(#clip620)" d="M1614 191.129 Q1610.57 191.129 1608.58 193.814 Q1606.59 196.476 1606.59 201.129 Q1606.59 205.782 1608.56 208.467 Q1610.55 211.129 1614 211.129 Q1617.4 211.129 1619.39 208.444 Q1621.38 205.758 1621.38 201.129 Q1621.38 196.522 1619.39 193.837 Q1617.4 191.129 1614 191.129 M1614 187.518 Q1619.55 187.518 1622.72 191.129 Q1625.89 194.74 1625.89 201.129 Q1625.89 207.495 1622.72 211.129 Q1619.55 214.74 1614 214.74 Q1608.42 214.74 1605.25 211.129 Q1602.1 207.495 1602.1 201.129 Q1602.1 194.74 1605.25 191.129 Q1608.42 187.518 1614 187.518 Z" fill="#000000" fill-rule="evenodd" fill-opacity="1" /><path clip-path="url(#clip620)" d="M1637.07 210.18 L1637.07 223.93 L1632.79 223.93 L1632.79 188.143 L1637.07 188.143 L1637.07 192.078 Q1638.42 189.763 1640.45 188.652 Q1642.51 187.518 1645.36 187.518 Q1650.08 187.518 1653.02 191.268 Q1655.99 195.018 1655.99 201.129 Q1655.99 207.24 1653.02 210.99 Q1650.08 214.74 1645.36 214.74 Q1642.51 214.74 1640.45 213.629 Q1638.42 212.495 1637.07 210.18 M1651.56 201.129 Q1651.56 196.43 1649.62 193.768 Q1647.7 191.083 1644.32 191.083 Q1640.94 191.083 1639 193.768 Q1637.07 196.43 1637.07 201.129 Q1637.07 205.828 1639 208.513 Q1640.94 211.175 1644.32 211.175 Q1647.7 211.175 1649.62 208.513 Q1651.56 205.828 1651.56 201.129 Z" fill="#000000" fill-rule="evenodd" fill-opacity="1" /><path clip-path="url(#clip620)" d="M1662.88 188.143 L1669.11 188.143 L1676.47 205.504 L1683.86 188.143 L1690.04 188.143 L1690.04 214.069 L1685.75 214.069 L1685.75 192.217 L1678.6 209.092 L1674.34 209.092 L1667.17 192.217 L1667.17 214.069 L1662.88 214.069 L1662.88 188.143 Z" fill="#000000" fill-rule="evenodd" fill-opacity="1" /><path clip-path="url(#clip620)" d="M1709.6 216.476 Q1707.79 221.106 1706.08 222.518 Q1704.37 223.93 1701.49 223.93 L1698.09 223.93 L1698.09 220.365 L1700.59 220.365 Q1702.35 220.365 1703.32 219.532 Q1704.3 218.698 1705.48 215.596 L1706.24 213.652 L1695.75 188.143 L1700.27 188.143 L1708.37 208.421 L1716.47 188.143 L1720.99 188.143 L1709.6 216.476 Z" fill="#000000" fill-rule="evenodd" fill-opacity="1" /><path clip-path="url(#clip620)" d="M1724.16 214.069 L1724.16 210.527 Q1728.37 209.879 1729.67 206.962 Q1731.24 202.865 1731.24 192.379 L1731.24 188.143 L1748.76 188.143 L1748.76 214.069 L1744.5 214.069 L1744.5 191.546 L1735.5 191.546 L1735.5 194.115 Q1735.5 204.115 1733.46 208.606 Q1731.29 213.397 1724.16 214.069 Z" fill="#000000" fill-rule="evenodd" fill-opacity="1" /><path clip-path="url(#clip620)" d="M1768.95 201.036 Q1763.79 201.036 1761.8 202.217 Q1759.8 203.397 1759.8 206.245 Q1759.8 208.513 1761.29 209.856 Q1762.79 211.175 1765.36 211.175 Q1768.9 211.175 1771.03 208.675 Q1773.18 206.152 1773.18 201.985 L1773.18 201.036 L1768.95 201.036 M1777.44 199.277 L1777.44 214.069 L1773.18 214.069 L1773.18 210.133 Q1771.73 212.495 1769.55 213.629 Q1767.37 214.74 1764.23 214.74 Q1760.24 214.74 1757.88 212.518 Q1755.55 210.272 1755.55 206.522 Q1755.55 202.147 1758.46 199.925 Q1761.4 197.703 1767.21 197.703 L1773.18 197.703 L1773.18 197.286 Q1773.18 194.347 1771.24 192.749 Q1769.32 191.129 1765.82 191.129 Q1763.6 191.129 1761.49 191.661 Q1759.39 192.194 1757.44 193.259 L1757.44 189.323 Q1759.78 188.421 1761.98 187.981 Q1764.18 187.518 1766.26 187.518 Q1771.89 187.518 1774.67 190.434 Q1777.44 193.351 1777.44 199.277 Z" fill="#000000" fill-rule="evenodd" fill-opacity="1" /><path clip-path="url(#clip620)" d="M1827.35 182.171 L1827.35 187.101 Q1824.99 184.902 1822.3 183.814 Q1819.64 182.726 1816.63 182.726 Q1810.71 182.726 1807.56 186.36 Q1804.41 189.972 1804.41 196.823 Q1804.41 203.652 1807.56 207.286 Q1810.71 210.897 1816.63 210.897 Q1819.64 210.897 1822.3 209.809 Q1824.99 208.721 1827.35 206.522 L1827.35 211.407 Q1824.9 213.073 1822.14 213.907 Q1819.41 214.74 1816.36 214.74 Q1808.51 214.74 1803.99 209.948 Q1799.48 205.133 1799.48 196.823 Q1799.48 188.49 1803.99 183.698 Q1808.51 178.884 1816.36 178.884 Q1819.46 178.884 1822.19 179.717 Q1824.94 180.527 1827.35 182.171 Z" fill="#000000" fill-rule="evenodd" fill-opacity="1" /><path clip-path="url(#clip620)" d="M1856.42 188.143 L1856.42 214.069 L1852.19 214.069 L1852.19 193.259 L1839.69 214.069 L1834.23 214.069 L1834.23 188.143 L1838.46 188.143 L1838.46 208.907 L1850.94 188.143 L1856.42 188.143 Z" fill="#000000" fill-rule="evenodd" fill-opacity="1" /><path clip-path="url(#clip620)" d="M1865.04 188.143 L1871.26 188.143 L1878.62 205.504 L1886.01 188.143 L1892.19 188.143 L1892.19 214.069 L1887.91 214.069 L1887.91 192.217 L1880.75 209.092 L1876.49 209.092 L1869.32 192.217 L1869.32 214.069 L1865.04 214.069 L1865.04 188.143 Z" fill="#000000" fill-rule="evenodd" fill-opacity="1" /><path clip-path="url(#clip620)" d="M1923.18 188.143 L1923.18 214.069 L1918.9 214.069 L1918.9 191.546 L1905.08 191.546 L1905.08 214.069 L1900.8 214.069 L1900.8 188.143 L1923.18 188.143 Z" fill="#000000" fill-rule="evenodd" fill-opacity="1" /><path clip-path="url(#clip620)" d="M1950.61 189.138 L1950.61 193.12 Q1948.81 192.124 1946.98 191.638 Q1945.17 191.129 1943.32 191.129 Q1939.18 191.129 1936.89 193.768 Q1934.6 196.384 1934.6 201.129 Q1934.6 205.874 1936.89 208.513 Q1939.18 211.129 1943.32 211.129 Q1945.17 211.129 1946.98 210.643 Q1948.81 210.133 1950.61 209.138 L1950.61 213.073 Q1948.83 213.907 1946.91 214.323 Q1945.01 214.74 1942.86 214.74 Q1937 214.74 1933.55 211.059 Q1930.1 207.379 1930.1 201.129 Q1930.1 194.786 1933.58 191.152 Q1937.07 187.518 1943.14 187.518 Q1945.1 187.518 1946.98 187.935 Q1948.85 188.328 1950.61 189.138 Z" fill="#000000" fill-rule="evenodd" fill-opacity="1" /><path clip-path="url(#clip620)" d="M1968.07 191.129 Q1964.64 191.129 1962.65 193.814 Q1960.66 196.476 1960.66 201.129 Q1960.66 205.782 1962.63 208.467 Q1964.62 211.129 1968.07 211.129 Q1971.47 211.129 1973.46 208.444 Q1975.45 205.758 1975.45 201.129 Q1975.45 196.522 1973.46 193.837 Q1971.47 191.129 1968.07 191.129 M1968.07 187.518 Q1973.62 187.518 1976.79 191.129 Q1979.97 194.74 1979.97 201.129 Q1979.97 207.495 1976.79 211.129 Q1973.62 214.74 1968.07 214.74 Q1962.49 214.74 1959.32 211.129 Q1956.17 207.495 1956.17 201.129 Q1956.17 194.74 1959.32 191.129 Q1962.49 187.518 1968.07 187.518 Z" fill="#000000" fill-rule="evenodd" fill-opacity="1" /><path clip-path="url(#clip620)" d="M1986.86 188.143 L1991.15 188.143 L1991.15 198.721 L2004.97 198.721 L2004.97 188.143 L2009.25 188.143 L2009.25 214.069 L2004.97 214.069 L2004.97 202.124 L1991.15 202.124 L1991.15 214.069 L1986.86 214.069 L1986.86 188.143 Z" fill="#000000" fill-rule="evenodd" fill-opacity="1" /><path clip-path="url(#clip620)" d="M2029.8 201.036 Q2024.64 201.036 2022.65 202.217 Q2020.66 203.397 2020.66 206.245 Q2020.66 208.513 2022.14 209.856 Q2023.65 211.175 2026.22 211.175 Q2029.76 211.175 2031.89 208.675 Q2034.04 206.152 2034.04 201.985 L2034.04 201.036 L2029.8 201.036 M2038.3 199.277 L2038.3 214.069 L2034.04 214.069 L2034.04 210.133 Q2032.58 212.495 2030.41 213.629 Q2028.23 214.74 2025.08 214.74 Q2021.1 214.74 2018.74 212.518 Q2016.4 210.272 2016.4 206.522 Q2016.4 202.147 2019.32 199.925 Q2022.26 197.703 2028.07 197.703 L2034.04 197.703 L2034.04 197.286 Q2034.04 194.347 2032.09 192.749 Q2030.17 191.129 2026.68 191.129 Q2024.46 191.129 2022.35 191.661 Q2020.24 192.194 2018.3 193.259 L2018.3 189.323 Q2020.64 188.421 2022.84 187.981 Q2025.03 187.518 2027.12 187.518 Q2032.74 187.518 2035.52 190.434 Q2038.3 193.351 2038.3 199.277 Z" fill="#000000" fill-rule="evenodd" fill-opacity="1" /><polyline clip-path="url(#clip620)" style="stroke:#3da44d; stroke-linecap:butt; stroke-linejoin:round; stroke-width:4; stroke-opacity:1; fill:none" points="
  1398.06,248.629 1538.19,248.629 
  "/>
<path clip-path="url(#clip620)" d="M1565.96 252.969 Q1565.96 258.409 1567.63 260.723 Q1569.32 263.015 1572.17 263.015 Q1574.44 263.015 1577.07 259.126 L1577.07 246.811 Q1574.44 242.923 1572.17 242.923 Q1569.32 242.923 1567.63 245.237 Q1565.96 247.529 1565.96 252.969 M1577.07 275.77 L1577.07 262.598 Q1575.75 264.774 1574.23 265.677 Q1572.72 266.58 1570.8 266.58 Q1566.94 266.58 1564.23 263.015 Q1561.54 259.427 1561.54 253.061 Q1561.54 246.696 1564.23 243.038 Q1566.94 239.358 1570.8 239.358 Q1572.72 239.358 1574.23 240.237 Q1575.75 241.117 1577.07 243.293 L1577.07 231.349 L1581.36 231.349 L1581.36 243.293 Q1582.68 241.117 1584.18 240.237 Q1585.71 239.358 1587.63 239.358 Q1591.5 239.358 1594.18 243.038 Q1596.89 246.696 1596.89 253.061 Q1596.89 259.427 1594.18 263.015 Q1591.5 266.58 1587.63 266.58 Q1585.71 266.58 1584.18 265.677 Q1582.68 264.774 1581.36 262.598 L1581.36 275.77 L1577.07 275.77 M1592.47 252.969 Q1592.47 247.529 1590.78 245.237 Q1589.11 242.923 1586.26 242.923 Q1584 242.923 1581.36 246.811 L1581.36 259.126 Q1584 263.015 1586.26 263.015 Q1589.11 263.015 1590.78 260.723 Q1592.47 258.409 1592.47 252.969 Z" fill="#000000" fill-rule="evenodd" fill-opacity="1" /><path clip-path="url(#clip620)" d="M1614 242.969 Q1610.57 242.969 1608.58 245.654 Q1606.59 248.316 1606.59 252.969 Q1606.59 257.622 1608.56 260.307 Q1610.55 262.969 1614 262.969 Q1617.4 262.969 1619.39 260.284 Q1621.38 257.598 1621.38 252.969 Q1621.38 248.362 1619.39 245.677 Q1617.4 242.969 1614 242.969 M1614 239.358 Q1619.55 239.358 1622.72 242.969 Q1625.89 246.58 1625.89 252.969 Q1625.89 259.335 1622.72 262.969 Q1619.55 266.58 1614 266.58 Q1608.42 266.58 1605.25 262.969 Q1602.1 259.335 1602.1 252.969 Q1602.1 246.58 1605.25 242.969 Q1608.42 239.358 1614 239.358 Z" fill="#000000" fill-rule="evenodd" fill-opacity="1" /><path clip-path="url(#clip620)" d="M1637.07 262.02 L1637.07 275.77 L1632.79 275.77 L1632.79 239.983 L1637.07 239.983 L1637.07 243.918 Q1638.42 241.603 1640.45 240.492 Q1642.51 239.358 1645.36 239.358 Q1650.08 239.358 1653.02 243.108 Q1655.99 246.858 1655.99 252.969 Q1655.99 259.08 1653.02 262.83 Q1650.08 266.58 1645.36 266.58 Q1642.51 266.58 1640.45 265.469 Q1638.42 264.335 1637.07 262.02 M1651.56 252.969 Q1651.56 248.27 1649.62 245.608 Q1647.7 242.923 1644.32 242.923 Q1640.94 242.923 1639 245.608 Q1637.07 248.27 1637.07 252.969 Q1637.07 257.668 1639 260.353 Q1640.94 263.015 1644.32 263.015 Q1647.7 263.015 1649.62 260.353 Q1651.56 257.668 1651.56 252.969 Z" fill="#000000" fill-rule="evenodd" fill-opacity="1" /><path clip-path="url(#clip620)" d="M1662.88 239.983 L1669.11 239.983 L1676.47 257.344 L1683.86 239.983 L1690.04 239.983 L1690.04 265.909 L1685.75 265.909 L1685.75 244.057 L1678.6 260.932 L1674.34 260.932 L1667.17 244.057 L1667.17 265.909 L1662.88 265.909 L1662.88 239.983 Z" fill="#000000" fill-rule="evenodd" fill-opacity="1" /><path clip-path="url(#clip620)" d="M1709.6 268.316 Q1707.79 272.946 1706.08 274.358 Q1704.37 275.77 1701.49 275.77 L1698.09 275.77 L1698.09 272.205 L1700.59 272.205 Q1702.35 272.205 1703.32 271.372 Q1704.3 270.538 1705.48 267.436 L1706.24 265.492 L1695.75 239.983 L1700.27 239.983 L1708.37 260.261 L1716.47 239.983 L1720.99 239.983 L1709.6 268.316 Z" fill="#000000" fill-rule="evenodd" fill-opacity="1" /><path clip-path="url(#clip620)" d="M1724.16 265.909 L1724.16 262.367 Q1728.37 261.719 1729.67 258.802 Q1731.24 254.705 1731.24 244.219 L1731.24 239.983 L1748.76 239.983 L1748.76 265.909 L1744.5 265.909 L1744.5 243.386 L1735.5 243.386 L1735.5 245.955 Q1735.5 255.955 1733.46 260.446 Q1731.29 265.237 1724.16 265.909 Z" fill="#000000" fill-rule="evenodd" fill-opacity="1" /><path clip-path="url(#clip620)" d="M1768.95 252.876 Q1763.79 252.876 1761.8 254.057 Q1759.8 255.237 1759.8 258.085 Q1759.8 260.353 1761.29 261.696 Q1762.79 263.015 1765.36 263.015 Q1768.9 263.015 1771.03 260.515 Q1773.18 257.992 1773.18 253.825 L1773.18 252.876 L1768.95 252.876 M1777.44 251.117 L1777.44 265.909 L1773.18 265.909 L1773.18 261.973 Q1771.73 264.335 1769.55 265.469 Q1767.37 266.58 1764.23 266.58 Q1760.24 266.58 1757.88 264.358 Q1755.55 262.112 1755.55 258.362 Q1755.55 253.987 1758.46 251.765 Q1761.4 249.543 1767.21 249.543 L1773.18 249.543 L1773.18 249.126 Q1773.18 246.187 1771.24 244.589 Q1769.32 242.969 1765.82 242.969 Q1763.6 242.969 1761.49 243.501 Q1759.39 244.034 1757.44 245.099 L1757.44 241.163 Q1759.78 240.261 1761.98 239.821 Q1764.18 239.358 1766.26 239.358 Q1771.89 239.358 1774.67 242.274 Q1777.44 245.191 1777.44 251.117 Z" fill="#000000" fill-rule="evenodd" fill-opacity="1" /><path clip-path="url(#clip620)" d="M1823.51 239.983 L1823.51 265.909 L1819.23 265.909 L1819.23 243.386 L1805.41 243.386 L1805.41 265.909 L1801.12 265.909 L1801.12 239.983 L1823.51 239.983 Z" fill="#000000" fill-rule="evenodd" fill-opacity="1" /><path clip-path="url(#clip620)" d="M1836.4 262.02 L1836.4 275.77 L1832.12 275.77 L1832.12 239.983 L1836.4 239.983 L1836.4 243.918 Q1837.74 241.603 1839.78 240.492 Q1841.84 239.358 1844.69 239.358 Q1849.41 239.358 1852.35 243.108 Q1855.31 246.858 1855.31 252.969 Q1855.31 259.08 1852.35 262.83 Q1849.41 266.58 1844.69 266.58 Q1841.84 266.58 1839.78 265.469 Q1837.74 264.335 1836.4 262.02 M1850.89 252.969 Q1850.89 248.27 1848.95 245.608 Q1847.03 242.923 1843.65 242.923 Q1840.27 242.923 1838.32 245.608 Q1836.4 248.27 1836.4 252.969 Q1836.4 257.668 1838.32 260.353 Q1840.27 263.015 1843.65 263.015 Q1847.03 263.015 1848.95 260.353 Q1850.89 257.668 1850.89 252.969 Z" fill="#000000" fill-rule="evenodd" fill-opacity="1" /><path clip-path="url(#clip620)" d="M1866.66 247.46 Q1866.66 249.381 1868.14 250.469 Q1869.62 251.557 1872.37 251.557 L1878.11 251.557 L1878.11 243.386 L1872.37 243.386 Q1869.62 243.386 1868.14 244.45 Q1866.66 245.515 1866.66 247.46 M1860.59 265.909 L1868.51 254.543 Q1865.82 253.941 1864.04 252.367 Q1862.26 250.77 1862.26 247.46 Q1862.26 243.71 1864.73 241.858 Q1867.23 239.983 1872.26 239.983 L1882.4 239.983 L1882.4 265.909 L1878.11 265.909 L1878.11 254.96 L1872.81 254.96 L1865.17 265.909 L1860.59 265.909 Z" fill="#000000" fill-rule="evenodd" fill-opacity="1" /><path clip-path="url(#clip620)" d="M1890.73 239.983 L1896.96 239.983 L1904.32 257.344 L1911.7 239.983 L1917.88 239.983 L1917.88 265.909 L1913.6 265.909 L1913.6 244.057 L1906.45 260.932 L1902.19 260.932 L1895.01 244.057 L1895.01 265.909 L1890.73 265.909 L1890.73 239.983 Z" fill="#000000" fill-rule="evenodd" fill-opacity="1" /><path clip-path="url(#clip620)" d="M1936.7 242.969 Q1933.28 242.969 1931.29 245.654 Q1929.29 248.316 1929.29 252.969 Q1929.29 257.622 1931.26 260.307 Q1933.25 262.969 1936.7 262.969 Q1940.1 262.969 1942.1 260.284 Q1944.09 257.598 1944.09 252.969 Q1944.09 248.362 1942.1 245.677 Q1940.1 242.969 1936.7 242.969 M1936.7 239.358 Q1942.26 239.358 1945.43 242.969 Q1948.6 246.58 1948.6 252.969 Q1948.6 259.335 1945.43 262.969 Q1942.26 266.58 1936.7 266.58 Q1931.12 266.58 1927.95 262.969 Q1924.8 259.335 1924.8 252.969 Q1924.8 246.58 1927.95 242.969 Q1931.12 239.358 1936.7 239.358 Z" fill="#000000" fill-rule="evenodd" fill-opacity="1" /><path clip-path="url(#clip620)" d="M1966.45 268.316 Q1964.64 272.946 1962.93 274.358 Q1961.22 275.77 1958.35 275.77 L1954.94 275.77 L1954.94 272.205 L1957.44 272.205 Q1959.2 272.205 1960.17 271.372 Q1961.15 270.538 1962.33 267.436 L1963.09 265.492 L1952.6 239.983 L1957.12 239.983 L1965.22 260.261 L1973.32 239.983 L1977.84 239.983 L1966.45 268.316 Z" fill="#000000" fill-rule="evenodd" fill-opacity="1" /><path clip-path="url(#clip620)" d="M1983.55 265.909 L1983.55 239.983 L2001.84 239.983 L2001.84 243.386 L1987.84 243.386 L1987.84 265.909 L1983.55 265.909 Z" fill="#000000" fill-rule="evenodd" fill-opacity="1" /><path clip-path="url(#clip620)" d="M2018.67 242.969 Q2015.24 242.969 2013.25 245.654 Q2011.26 248.316 2011.26 252.969 Q2011.26 257.622 2013.23 260.307 Q2015.22 262.969 2018.67 262.969 Q2022.07 262.969 2024.06 260.284 Q2026.05 257.598 2026.05 252.969 Q2026.05 248.362 2024.06 245.677 Q2022.07 242.969 2018.67 242.969 M2018.67 239.358 Q2024.22 239.358 2027.4 242.969 Q2030.57 246.58 2030.57 252.969 Q2030.57 259.335 2027.4 262.969 Q2024.22 266.58 2018.67 266.58 Q2013.09 266.58 2009.92 262.969 Q2006.77 259.335 2006.77 252.969 Q2006.77 246.58 2009.92 242.969 Q2013.09 239.358 2018.67 239.358 Z" fill="#000000" fill-rule="evenodd" fill-opacity="1" /><path clip-path="url(#clip620)" d="M2034.92 265.909 L2034.92 262.367 Q2039.13 261.719 2040.43 258.802 Q2042 254.705 2042 244.219 L2042 239.983 L2059.53 239.983 L2059.53 265.909 L2055.27 265.909 L2055.27 243.386 L2046.26 243.386 L2046.26 245.955 Q2046.26 255.955 2044.22 260.446 Q2042.05 265.237 2034.92 265.909 Z" fill="#000000" fill-rule="evenodd" fill-opacity="1" /><path clip-path="url(#clip620)" d="M2084.06 258.223 Q2084.06 256.14 2082.53 255.052 Q2081.03 253.964 2078.11 253.964 L2072.05 253.964 L2072.05 262.506 L2078.11 262.506 Q2081.03 262.506 2082.53 261.418 Q2084.06 260.307 2084.06 258.223 M2067.77 239.983 L2072.05 239.983 L2072.05 250.561 L2078.3 250.561 Q2083.25 250.561 2085.91 252.46 Q2088.6 254.335 2088.6 258.223 Q2088.6 262.112 2085.91 264.01 Q2083.25 265.909 2078.3 265.909 L2067.77 265.909 L2067.77 239.983 Z" fill="#000000" fill-rule="evenodd" fill-opacity="1" /><path clip-path="url(#clip620)" d="M2095.71 239.983 L2099.99 239.983 L2099.99 250.561 L2113.81 250.561 L2113.81 239.983 L2118.09 239.983 L2118.09 265.909 L2113.81 265.909 L2113.81 253.964 L2099.99 253.964 L2099.99 265.909 L2095.71 265.909 L2095.71 239.983 Z" fill="#000000" fill-rule="evenodd" fill-opacity="1" /><path clip-path="url(#clip620)" d="M2148.9 239.983 L2148.9 265.909 L2144.66 265.909 L2144.66 245.099 L2132.16 265.909 L2126.7 265.909 L2126.7 239.983 L2130.94 239.983 L2130.94 260.747 L2143.41 239.983 L2148.9 239.983 Z" fill="#000000" fill-rule="evenodd" fill-opacity="1" /><path clip-path="url(#clip620)" d="M2157.51 239.983 L2161.75 239.983 L2161.75 252.159 L2173.76 239.983 L2178.99 239.983 L2169.08 250.006 L2180.27 265.909 L2175.5 265.909 L2166.31 252.83 L2161.75 257.46 L2161.75 265.909 L2157.51 265.909 L2157.51 239.983 Z" fill="#000000" fill-rule="evenodd" fill-opacity="1" /><path clip-path="url(#clip620)" d="M2196.35 242.969 Q2192.93 242.969 2190.94 245.654 Q2188.95 248.316 2188.95 252.969 Q2188.95 257.622 2190.91 260.307 Q2192.9 262.969 2196.35 262.969 Q2199.76 262.969 2201.75 260.284 Q2203.74 257.598 2203.74 252.969 Q2203.74 248.362 2201.75 245.677 Q2199.76 242.969 2196.35 242.969 M2196.35 239.358 Q2201.91 239.358 2205.08 242.969 Q2208.25 246.58 2208.25 252.969 Q2208.25 259.335 2205.08 262.969 Q2201.91 266.58 2196.35 266.58 Q2190.77 266.58 2187.6 262.969 Q2184.46 259.335 2184.46 252.969 Q2184.46 246.58 2187.6 242.969 Q2190.77 239.358 2196.35 239.358 Z" fill="#000000" fill-rule="evenodd" fill-opacity="1" /><path clip-path="url(#clip620)" d="M2219.41 253.964 L2219.41 262.506 L2225.47 262.506 Q2228.39 262.506 2229.92 261.418 Q2231.45 260.307 2231.45 258.223 Q2231.45 256.14 2229.92 255.052 Q2228.39 253.964 2225.47 253.964 L2219.41 253.964 M2219.41 243.386 L2219.41 250.561 L2225.01 250.561 Q2227.42 250.561 2228.95 249.612 Q2230.47 248.64 2230.47 246.927 Q2230.47 245.214 2228.95 244.312 Q2227.42 243.386 2225.01 243.386 L2219.41 243.386 M2215.15 239.983 L2225.29 239.983 Q2229.85 239.983 2232.3 241.649 Q2234.76 243.316 2234.76 246.395 Q2234.76 248.779 2233.51 250.191 Q2232.26 251.58 2229.8 251.927 Q2232.74 252.483 2234.36 254.242 Q2235.98 256.001 2235.98 258.64 Q2235.98 262.112 2233.3 264.01 Q2230.64 265.909 2225.68 265.909 L2215.15 265.909 L2215.15 239.983 Z" fill="#000000" fill-rule="evenodd" fill-opacity="1" /></svg>
