<?xml version="1.0" encoding="utf-8"?>
<svg xmlns="http://www.w3.org/2000/svg" xmlns:xlink="http://www.w3.org/1999/xlink" width="600" height="400" viewBox="0 0 2400 1600">
<defs>
  <clipPath id="clip480">
    <rect x="0" y="0" width="2400" height="1600"/>
  </clipPath>
</defs>
<path clip-path="url(#clip480)" d="
M0 1600 L2400 1600 L2400 0 L0 0  Z
  " fill="#ffffff" fill-rule="evenodd" fill-opacity="1"/>
<defs>
  <clipPath id="clip481">
    <rect x="480" y="0" width="1681" height="1600"/>
  </clipPath>
</defs>
<path clip-path="url(#clip480)" d="
M156.112 650.96 L2352.76 650.96 L2352.76 47.2441 L156.112 47.2441  Z
  " fill="#ffffff" fill-rule="evenodd" fill-opacity="1"/>
<defs>
  <clipPath id="clip482">
    <rect x="156" y="47" width="2198" height="605"/>
  </clipPath>
</defs>
<polyline clip-path="url(#clip482)" style="stroke:#000000; stroke-linecap:butt; stroke-linejoin:round; stroke-width:2; stroke-opacity:0.1; fill:none" points="
  218.281,650.96 218.281,47.2441 
  "/>
<polyline clip-path="url(#clip482)" style="stroke:#000000; stroke-linecap:butt; stroke-linejoin:round; stroke-width:2; stroke-opacity:0.1; fill:none" points="
  909.05,650.96 909.05,47.2441 
  "/>
<polyline clip-path="url(#clip482)" style="stroke:#000000; stroke-linecap:butt; stroke-linejoin:round; stroke-width:2; stroke-opacity:0.1; fill:none" points="
  1599.82,650.96 1599.82,47.2441 
  "/>
<polyline clip-path="url(#clip482)" style="stroke:#000000; stroke-linecap:butt; stroke-linejoin:round; stroke-width:2; stroke-opacity:0.1; fill:none" points="
  2290.59,650.96 2290.59,47.2441 
  "/>
<polyline clip-path="url(#clip480)" style="stroke:#000000; stroke-linecap:butt; stroke-linejoin:round; stroke-width:4; stroke-opacity:1; fill:none" points="
  156.112,650.96 2352.76,650.96 
  "/>
<polyline clip-path="url(#clip480)" style="stroke:#000000; stroke-linecap:butt; stroke-linejoin:round; stroke-width:4; stroke-opacity:1; fill:none" points="
  218.281,650.96 218.281,632.063 
  "/>
<polyline clip-path="url(#clip480)" style="stroke:#000000; stroke-linecap:butt; stroke-linejoin:round; stroke-width:4; stroke-opacity:1; fill:none" points="
  909.05,650.96 909.05,632.063 
  "/>
<polyline clip-path="url(#clip480)" style="stroke:#000000; stroke-linecap:butt; stroke-linejoin:round; stroke-width:4; stroke-opacity:1; fill:none" points="
  1599.82,650.96 1599.82,632.063 
  "/>
<polyline clip-path="url(#clip480)" style="stroke:#000000; stroke-linecap:butt; stroke-linejoin:round; stroke-width:4; stroke-opacity:1; fill:none" points="
  2290.59,650.96 2290.59,632.063 
  "/>
<path clip-path="url(#clip480)" d="M218.281 680.151 Q214.67 680.151 212.842 683.716 Q211.036 687.257 211.036 694.387 Q211.036 701.493 212.842 705.058 Q214.67 708.6 218.281 708.6 Q221.916 708.6 223.721 705.058 Q225.55 701.493 225.55 694.387 Q225.55 687.257 223.721 683.716 Q221.916 680.151 218.281 680.151 M218.281 676.447 Q224.091 676.447 227.147 681.054 Q230.226 685.637 230.226 694.387 Q230.226 703.114 227.147 707.72 Q224.091 712.304 218.281 712.304 Q212.471 712.304 209.392 707.72 Q206.337 703.114 206.337 694.387 Q206.337 685.637 209.392 681.054 Q212.471 676.447 218.281 676.447 Z" fill="#000000" fill-rule="evenodd" fill-opacity="1" /><path clip-path="url(#clip480)" d="M899.432 707.697 L907.071 707.697 L907.071 681.331 L898.76 682.998 L898.76 678.739 L907.024 677.072 L911.7 677.072 L911.7 707.697 L919.339 707.697 L919.339 711.632 L899.432 711.632 L899.432 707.697 Z" fill="#000000" fill-rule="evenodd" fill-opacity="1" /><path clip-path="url(#clip480)" d="M1594.47 707.697 L1610.79 707.697 L1610.79 711.632 L1588.85 711.632 L1588.85 707.697 Q1591.51 704.942 1596.09 700.313 Q1600.7 695.66 1601.88 694.318 Q1604.12 691.794 1605 690.058 Q1605.91 688.299 1605.91 686.609 Q1605.91 683.855 1603.96 682.119 Q1602.04 680.382 1598.94 680.382 Q1596.74 680.382 1594.29 681.146 Q1591.86 681.91 1589.08 683.461 L1589.08 678.739 Q1591.9 677.605 1594.36 677.026 Q1596.81 676.447 1598.85 676.447 Q1604.22 676.447 1607.41 679.132 Q1610.61 681.818 1610.61 686.308 Q1610.61 688.438 1609.8 690.359 Q1609.01 692.257 1606.9 694.85 Q1606.32 695.521 1603.22 698.739 Q1600.12 701.933 1594.47 707.697 Z" fill="#000000" fill-rule="evenodd" fill-opacity="1" /><path clip-path="url(#clip480)" d="M2294.83 692.998 Q2298.19 693.716 2300.07 695.984 Q2301.96 698.253 2301.96 701.586 Q2301.96 706.702 2298.45 709.503 Q2294.93 712.304 2288.45 712.304 Q2286.27 712.304 2283.95 711.864 Q2281.66 711.447 2279.21 710.591 L2279.21 706.077 Q2281.15 707.211 2283.47 707.79 Q2285.78 708.368 2288.31 708.368 Q2292.7 708.368 2295 706.632 Q2297.31 704.896 2297.31 701.586 Q2297.31 698.53 2295.16 696.818 Q2293.03 695.081 2289.21 695.081 L2285.18 695.081 L2285.18 691.239 L2289.39 691.239 Q2292.84 691.239 2294.67 689.873 Q2296.5 688.484 2296.5 685.892 Q2296.5 683.23 2294.6 681.818 Q2292.73 680.382 2289.21 680.382 Q2287.29 680.382 2285.09 680.799 Q2282.89 681.216 2280.25 682.095 L2280.25 677.929 Q2282.91 677.188 2285.23 676.818 Q2287.57 676.447 2289.63 676.447 Q2294.95 676.447 2298.05 678.878 Q2301.15 681.285 2301.15 685.406 Q2301.15 688.276 2299.51 690.267 Q2297.87 692.234 2294.83 692.998 Z" fill="#000000" fill-rule="evenodd" fill-opacity="1" /><path clip-path="url(#clip480)" d="M1268.61 739.916 Q1268.61 741.719 1267.48 742.75 Q1266.35 743.748 1265.06 743.748 Q1263.84 743.748 1263.2 743.04 Q1262.55 742.331 1262.55 741.429 Q1262.55 740.206 1263.45 739.143 Q1264.36 738.08 1265.71 737.855 Q1264.39 737.017 1262.42 737.017 Q1261.14 737.017 1260.01 737.694 Q1258.91 738.37 1258.24 739.239 Q1257.59 740.109 1257.01 741.365 Q1256.47 742.589 1256.24 743.33 Q1256.05 744.038 1255.89 744.811 L1253.63 753.829 Q1252.54 758.112 1252.54 759.626 Q1252.54 761.494 1253.44 762.75 Q1254.34 763.974 1256.14 763.974 Q1256.85 763.974 1257.66 763.78 Q1258.46 763.555 1259.49 762.975 Q1260.56 762.363 1261.49 761.462 Q1262.46 760.528 1263.39 758.949 Q1264.32 757.371 1264.94 755.342 Q1265.13 754.634 1265.77 754.634 Q1266.58 754.634 1266.58 755.278 Q1266.58 755.826 1266.13 756.985 Q1265.71 758.112 1264.77 759.594 Q1263.87 761.043 1262.68 762.363 Q1261.49 763.652 1259.72 764.553 Q1257.95 765.455 1256.01 765.455 Q1253.25 765.455 1251.41 763.974 Q1249.57 762.492 1248.9 760.431 Q1248.74 760.721 1248.51 761.107 Q1248.29 761.494 1247.61 762.363 Q1246.97 763.201 1246.22 763.845 Q1245.48 764.457 1244.32 764.94 Q1243.2 765.455 1241.97 765.455 Q1240.43 765.455 1239.04 765.004 Q1237.69 764.553 1236.72 763.523 Q1235.76 762.492 1235.76 761.075 Q1235.76 759.497 1236.82 758.402 Q1237.92 757.275 1239.4 757.275 Q1240.33 757.275 1241.07 757.822 Q1241.84 758.37 1241.84 759.561 Q1241.84 760.882 1240.94 761.88 Q1240.04 762.879 1238.75 763.136 Q1240.07 763.974 1242.04 763.974 Q1244.16 763.974 1245.84 762.106 Q1247.51 760.238 1248.32 757.114 Q1250.31 749.61 1251.09 746.26 Q1251.86 742.879 1251.86 741.429 Q1251.86 740.077 1251.51 739.143 Q1251.15 738.209 1250.54 737.79 Q1249.96 737.339 1249.41 737.178 Q1248.9 737.017 1248.32 737.017 Q1247.35 737.017 1246.26 737.404 Q1245.19 737.79 1243.91 738.692 Q1242.65 739.562 1241.46 741.365 Q1240.27 743.169 1239.46 745.648 Q1239.3 746.389 1238.59 746.389 Q1237.82 746.357 1237.82 745.713 Q1237.82 745.165 1238.24 744.038 Q1238.69 742.879 1239.59 741.429 Q1240.52 739.98 1241.72 738.692 Q1242.94 737.372 1244.71 736.47 Q1246.51 735.568 1248.45 735.568 Q1249.32 735.568 1250.15 735.761 Q1251.02 735.922 1252.05 736.405 Q1253.12 736.888 1254.05 737.951 Q1254.98 739.014 1255.56 740.56 Q1255.95 739.819 1256.47 739.111 Q1257.01 738.402 1257.85 737.533 Q1258.72 736.631 1259.91 736.116 Q1261.14 735.568 1262.49 735.568 Q1263.81 735.568 1265.1 735.922 Q1266.39 736.244 1267.48 737.307 Q1268.61 738.338 1268.61 739.916 Z" fill="#000000" fill-rule="evenodd" fill-opacity="1" /><polyline clip-path="url(#clip482)" style="stroke:#000000; stroke-linecap:butt; stroke-linejoin:round; stroke-width:2; stroke-opacity:0.1; fill:none" points="
  156.112,633.874 2352.76,633.874 
  "/>
<polyline clip-path="url(#clip482)" style="stroke:#000000; stroke-linecap:butt; stroke-linejoin:round; stroke-width:2; stroke-opacity:0.1; fill:none" points="
  156.112,519.518 2352.76,519.518 
  "/>
<polyline clip-path="url(#clip482)" style="stroke:#000000; stroke-linecap:butt; stroke-linejoin:round; stroke-width:2; stroke-opacity:0.1; fill:none" points="
  156.112,405.162 2352.76,405.162 
  "/>
<polyline clip-path="url(#clip482)" style="stroke:#000000; stroke-linecap:butt; stroke-linejoin:round; stroke-width:2; stroke-opacity:0.1; fill:none" points="
  156.112,290.806 2352.76,290.806 
  "/>
<polyline clip-path="url(#clip482)" style="stroke:#000000; stroke-linecap:butt; stroke-linejoin:round; stroke-width:2; stroke-opacity:0.1; fill:none" points="
  156.112,176.45 2352.76,176.45 
  "/>
<polyline clip-path="url(#clip482)" style="stroke:#000000; stroke-linecap:butt; stroke-linejoin:round; stroke-width:2; stroke-opacity:0.1; fill:none" points="
  156.112,62.0935 2352.76,62.0935 
  "/>
<polyline clip-path="url(#clip480)" style="stroke:#000000; stroke-linecap:butt; stroke-linejoin:round; stroke-width:4; stroke-opacity:1; fill:none" points="
  156.112,650.96 156.112,47.2441 
  "/>
<polyline clip-path="url(#clip480)" style="stroke:#000000; stroke-linecap:butt; stroke-linejoin:round; stroke-width:4; stroke-opacity:1; fill:none" points="
  156.112,633.874 175.01,633.874 
  "/>
<polyline clip-path="url(#clip480)" style="stroke:#000000; stroke-linecap:butt; stroke-linejoin:round; stroke-width:4; stroke-opacity:1; fill:none" points="
  156.112,519.518 175.01,519.518 
  "/>
<polyline clip-path="url(#clip480)" style="stroke:#000000; stroke-linecap:butt; stroke-linejoin:round; stroke-width:4; stroke-opacity:1; fill:none" points="
  156.112,405.162 175.01,405.162 
  "/>
<polyline clip-path="url(#clip480)" style="stroke:#000000; stroke-linecap:butt; stroke-linejoin:round; stroke-width:4; stroke-opacity:1; fill:none" points="
  156.112,290.806 175.01,290.806 
  "/>
<polyline clip-path="url(#clip480)" style="stroke:#000000; stroke-linecap:butt; stroke-linejoin:round; stroke-width:4; stroke-opacity:1; fill:none" points="
  156.112,176.45 175.01,176.45 
  "/>
<polyline clip-path="url(#clip480)" style="stroke:#000000; stroke-linecap:butt; stroke-linejoin:round; stroke-width:4; stroke-opacity:1; fill:none" points="
  156.112,62.0935 175.01,62.0935 
  "/>
<path clip-path="url(#clip480)" d="M62.9365 619.673 Q59.3254 619.673 57.4967 623.237 Q55.6912 626.779 55.6912 633.909 Q55.6912 641.015 57.4967 644.58 Q59.3254 648.122 62.9365 648.122 Q66.5707 648.122 68.3763 644.58 Q70.205 641.015 70.205 633.909 Q70.205 626.779 68.3763 623.237 Q66.5707 619.673 62.9365 619.673 M62.9365 615.969 Q68.7467 615.969 71.8022 620.575 Q74.8809 625.159 74.8809 633.909 Q74.8809 642.635 71.8022 647.242 Q68.7467 651.825 62.9365 651.825 Q57.1264 651.825 54.0477 647.242 Q50.9921 642.635 50.9921 633.909 Q50.9921 625.159 54.0477 620.575 Q57.1264 615.969 62.9365 615.969 Z" fill="#000000" fill-rule="evenodd" fill-opacity="1" /><path clip-path="url(#clip480)" d="M83.0984 645.274 L87.9827 645.274 L87.9827 651.154 L83.0984 651.154 L83.0984 645.274 Z" fill="#000000" fill-rule="evenodd" fill-opacity="1" /><path clip-path="url(#clip480)" d="M108.168 619.673 Q104.557 619.673 102.728 623.237 Q100.922 626.779 100.922 633.909 Q100.922 641.015 102.728 644.58 Q104.557 648.122 108.168 648.122 Q111.802 648.122 113.608 644.58 Q115.436 641.015 115.436 633.909 Q115.436 626.779 113.608 623.237 Q111.802 619.673 108.168 619.673 M108.168 615.969 Q113.978 615.969 117.033 620.575 Q120.112 625.159 120.112 633.909 Q120.112 642.635 117.033 647.242 Q113.978 651.825 108.168 651.825 Q102.358 651.825 99.2789 647.242 Q96.2234 642.635 96.2234 633.909 Q96.2234 625.159 99.2789 620.575 Q102.358 615.969 108.168 615.969 Z" fill="#000000" fill-rule="evenodd" fill-opacity="1" /><path clip-path="url(#clip480)" d="M63.9319 505.317 Q60.3208 505.317 58.4921 508.881 Q56.6865 512.423 56.6865 519.553 Q56.6865 526.659 58.4921 530.224 Q60.3208 533.765 63.9319 533.765 Q67.5661 533.765 69.3717 530.224 Q71.2004 526.659 71.2004 519.553 Q71.2004 512.423 69.3717 508.881 Q67.5661 505.317 63.9319 505.317 M63.9319 501.613 Q69.742 501.613 72.7976 506.219 Q75.8763 510.803 75.8763 519.553 Q75.8763 528.279 72.7976 532.886 Q69.742 537.469 63.9319 537.469 Q58.1217 537.469 55.043 532.886 Q51.9875 528.279 51.9875 519.553 Q51.9875 510.803 55.043 506.219 Q58.1217 501.613 63.9319 501.613 Z" fill="#000000" fill-rule="evenodd" fill-opacity="1" /><path clip-path="url(#clip480)" d="M84.0938 530.918 L88.978 530.918 L88.978 536.798 L84.0938 536.798 L84.0938 530.918 Z" fill="#000000" fill-rule="evenodd" fill-opacity="1" /><path clip-path="url(#clip480)" d="M99.2095 502.238 L117.566 502.238 L117.566 506.173 L103.492 506.173 L103.492 514.645 Q104.51 514.298 105.529 514.136 Q106.547 513.951 107.566 513.951 Q113.353 513.951 116.733 517.122 Q120.112 520.293 120.112 525.71 Q120.112 531.289 116.64 534.39 Q113.168 537.469 106.848 537.469 Q104.672 537.469 102.404 537.099 Q100.159 536.728 97.7511 535.988 L97.7511 531.289 Q99.8345 532.423 102.057 532.978 Q104.279 533.534 106.756 533.534 Q110.76 533.534 113.098 531.428 Q115.436 529.321 115.436 525.71 Q115.436 522.099 113.098 519.992 Q110.76 517.886 106.756 517.886 Q104.881 517.886 103.006 518.303 Q101.154 518.719 99.2095 519.599 L99.2095 502.238 Z" fill="#000000" fill-rule="evenodd" fill-opacity="1" /><path clip-path="url(#clip480)" d="M53.7467 418.507 L61.3856 418.507 L61.3856 392.141 L53.0754 393.808 L53.0754 389.548 L61.3393 387.882 L66.0152 387.882 L66.0152 418.507 L73.654 418.507 L73.654 422.442 L53.7467 422.442 L53.7467 418.507 Z" fill="#000000" fill-rule="evenodd" fill-opacity="1" /><path clip-path="url(#clip480)" d="M83.0984 416.562 L87.9827 416.562 L87.9827 422.442 L83.0984 422.442 L83.0984 416.562 Z" fill="#000000" fill-rule="evenodd" fill-opacity="1" /><path clip-path="url(#clip480)" d="M108.168 390.96 Q104.557 390.96 102.728 394.525 Q100.922 398.067 100.922 405.197 Q100.922 412.303 102.728 415.868 Q104.557 419.409 108.168 419.409 Q111.802 419.409 113.608 415.868 Q115.436 412.303 115.436 405.197 Q115.436 398.067 113.608 394.525 Q111.802 390.96 108.168 390.96 M108.168 387.257 Q113.978 387.257 117.033 391.863 Q120.112 396.447 120.112 405.197 Q120.112 413.923 117.033 418.53 Q113.978 423.113 108.168 423.113 Q102.358 423.113 99.2789 418.53 Q96.2234 413.923 96.2234 405.197 Q96.2234 396.447 99.2789 391.863 Q102.358 387.257 108.168 387.257 Z" fill="#000000" fill-rule="evenodd" fill-opacity="1" /><path clip-path="url(#clip480)" d="M54.7421 304.151 L62.381 304.151 L62.381 277.785 L54.0708 279.452 L54.0708 275.192 L62.3347 273.526 L67.0106 273.526 L67.0106 304.151 L74.6494 304.151 L74.6494 308.086 L54.7421 308.086 L54.7421 304.151 Z" fill="#000000" fill-rule="evenodd" fill-opacity="1" /><path clip-path="url(#clip480)" d="M84.0938 302.206 L88.978 302.206 L88.978 308.086 L84.0938 308.086 L84.0938 302.206 Z" fill="#000000" fill-rule="evenodd" fill-opacity="1" /><path clip-path="url(#clip480)" d="M99.2095 273.526 L117.566 273.526 L117.566 277.461 L103.492 277.461 L103.492 285.933 Q104.51 285.586 105.529 285.424 Q106.547 285.239 107.566 285.239 Q113.353 285.239 116.733 288.41 Q120.112 291.581 120.112 296.998 Q120.112 302.576 116.64 305.678 Q113.168 308.757 106.848 308.757 Q104.672 308.757 102.404 308.387 Q100.159 308.016 97.7511 307.276 L97.7511 302.576 Q99.8345 303.711 102.057 304.266 Q104.279 304.822 106.756 304.822 Q110.76 304.822 113.098 302.715 Q115.436 300.609 115.436 296.998 Q115.436 293.387 113.098 291.28 Q110.76 289.174 106.756 289.174 Q104.881 289.174 103.006 289.59 Q101.154 290.007 99.2095 290.887 L99.2095 273.526 Z" fill="#000000" fill-rule="evenodd" fill-opacity="1" /><path clip-path="url(#clip480)" d="M56.9643 189.794 L73.2837 189.794 L73.2837 193.73 L51.3393 193.73 L51.3393 189.794 Q54.0014 187.04 58.5847 182.41 Q63.1911 177.757 64.3717 176.415 Q66.617 173.892 67.4967 172.156 Q68.3994 170.396 68.3994 168.707 Q68.3994 165.952 66.455 164.216 Q64.5337 162.48 61.4319 162.48 Q59.2328 162.48 56.7791 163.244 Q54.3486 164.008 51.5708 165.558 L51.5708 160.836 Q54.3949 159.702 56.8486 159.123 Q59.3023 158.545 61.3393 158.545 Q66.7096 158.545 69.9041 161.23 Q73.0985 163.915 73.0985 168.406 Q73.0985 170.535 72.2883 172.457 Q71.5013 174.355 69.3948 176.947 Q68.8161 177.619 65.7143 180.836 Q62.6124 184.031 56.9643 189.794 Z" fill="#000000" fill-rule="evenodd" fill-opacity="1" /><path clip-path="url(#clip480)" d="M83.0984 187.85 L87.9827 187.85 L87.9827 193.73 L83.0984 193.73 L83.0984 187.85 Z" fill="#000000" fill-rule="evenodd" fill-opacity="1" /><path clip-path="url(#clip480)" d="M108.168 162.248 Q104.557 162.248 102.728 165.813 Q100.922 169.355 100.922 176.484 Q100.922 183.591 102.728 187.156 Q104.557 190.697 108.168 190.697 Q111.802 190.697 113.608 187.156 Q115.436 183.591 115.436 176.484 Q115.436 169.355 113.608 165.813 Q111.802 162.248 108.168 162.248 M108.168 158.545 Q113.978 158.545 117.033 163.151 Q120.112 167.734 120.112 176.484 Q120.112 185.211 117.033 189.818 Q113.978 194.401 108.168 194.401 Q102.358 194.401 99.2789 189.818 Q96.2234 185.211 96.2234 176.484 Q96.2234 167.734 99.2789 163.151 Q102.358 158.545 108.168 158.545 Z" fill="#000000" fill-rule="evenodd" fill-opacity="1" /><path clip-path="url(#clip480)" d="M57.9597 75.4384 L74.279 75.4384 L74.279 79.3735 L52.3347 79.3735 L52.3347 75.4384 Q54.9967 72.6838 59.58 68.0542 Q64.1865 63.4014 65.367 62.0588 Q67.6124 59.5357 68.492 57.7996 Q69.3948 56.0403 69.3948 54.3505 Q69.3948 51.5959 67.4504 49.8598 Q65.5291 48.1237 62.4272 48.1237 Q60.2282 48.1237 57.7745 48.8876 Q55.344 49.6515 52.5662 51.2024 L52.5662 46.4802 Q55.3903 45.3459 57.8439 44.7672 Q60.2976 44.1885 62.3347 44.1885 Q67.705 44.1885 70.8994 46.8737 Q74.0939 49.5589 74.0939 54.0496 Q74.0939 56.1792 73.2837 58.1005 Q72.4966 59.9986 70.3902 62.5912 Q69.8115 63.2625 66.7096 66.4801 Q63.6078 69.6745 57.9597 75.4384 Z" fill="#000000" fill-rule="evenodd" fill-opacity="1" /><path clip-path="url(#clip480)" d="M84.0938 73.4939 L88.978 73.4939 L88.978 79.3735 L84.0938 79.3735 L84.0938 73.4939 Z" fill="#000000" fill-rule="evenodd" fill-opacity="1" /><path clip-path="url(#clip480)" d="M99.2095 44.8135 L117.566 44.8135 L117.566 48.7487 L103.492 48.7487 L103.492 57.2209 Q104.51 56.8737 105.529 56.7116 Q106.547 56.5264 107.566 56.5264 Q113.353 56.5264 116.733 59.6977 Q120.112 62.869 120.112 68.2856 Q120.112 73.8643 116.64 76.9661 Q113.168 80.0448 106.848 80.0448 Q104.672 80.0448 102.404 79.6745 Q100.159 79.3041 97.7511 78.5634 L97.7511 73.8643 Q99.8345 74.9986 102.057 75.5541 Q104.279 76.1097 106.756 76.1097 Q110.76 76.1097 113.098 74.0032 Q115.436 71.8967 115.436 68.2856 Q115.436 64.6745 113.098 62.5681 Q110.76 60.4616 106.756 60.4616 Q104.881 60.4616 103.006 60.8783 Q101.154 61.2949 99.2095 62.1746 L99.2095 44.8135 Z" fill="#000000" fill-rule="evenodd" fill-opacity="1" /><polyline clip-path="url(#clip482)" style="stroke:#ff0000; stroke-linecap:butt; stroke-linejoin:round; stroke-width:8; stroke-opacity:1; fill:none" points="
  218.281,633.874 223.341,632.174 228.4,630.424 233.46,628.623 238.519,626.769 285.301,606.965 332.083,581.799 378.865,550.624 425.646,513.078 453.76,487.456 
  481.874,459.658 509.988,429.877 538.102,398.392 585.642,342.348 633.182,284.83 684.824,223.977 736.465,168.656 760.27,146.075 784.074,125.803 807.879,108.123 
  831.684,93.2629 857.204,80.6577 882.725,71.6192 908.246,66.1907 933.767,64.3304 963.336,66.4728 992.905,72.9304 1022.47,83.2876 1052.04,97.0483 1104.6,128.185 
  1157.15,165.123 1203.24,199.874 1249.32,234.961 1299.57,271.931 1349.81,306.26 1400.35,337.249 1450.9,364.204 1506.78,389.1 1562.66,408.874 1615.83,423.087 
  1669.01,432.986 1724.29,438.836 1779.58,440.177 1826.12,437.713 1872.65,431.758 1929.47,419.277 1986.29,400.232 2013,388.675 2039.7,375.237 2066.41,359.739 
  2093.11,341.976 2114.5,325.961 2135.9,308.22 2157.29,288.616 2178.68,267.006 2200.07,243.235 2221.47,217.145 2242.86,188.57 2264.25,157.342 2270.83,147.169 
  2277.42,136.725 2284,126.004 2290.59,115 
  "/>
<path clip-path="url(#clip482)" d="
M218.281 572.021 L477.319 572.021 L477.319 633.874 L218.281 633.874  Z
  " fill="#0000ff" fill-rule="evenodd" fill-opacity="0.1"/>
<polyline clip-path="url(#clip482)" style="stroke:#0000ff; stroke-linecap:butt; stroke-linejoin:round; stroke-width:8; stroke-opacity:1; fill:none" points="
  218.281,572.021 477.319,572.021 
  "/>
<path clip-path="url(#clip482)" d="
M477.319 316.726 L736.358 316.726 L736.358 633.874 L477.319 633.874  Z
  " fill="#0000ff" fill-rule="evenodd" fill-opacity="0.1"/>
<polyline clip-path="url(#clip482)" style="stroke:#0000ff; stroke-linecap:butt; stroke-linejoin:round; stroke-width:8; stroke-opacity:1; fill:none" points="
  477.319,316.726 736.358,316.726 
  "/>
<path clip-path="url(#clip482)" d="
M736.358 77.1823 L995.396 77.1823 L995.396 633.874 L736.358 633.874  Z
  " fill="#0000ff" fill-rule="evenodd" fill-opacity="0.1"/>
<polyline clip-path="url(#clip482)" style="stroke:#0000ff; stroke-linecap:butt; stroke-linejoin:round; stroke-width:8; stroke-opacity:1; fill:none" points="
  736.358,77.1823 995.396,77.1823 
  "/>
<path clip-path="url(#clip482)" d="
M995.396 141.953 L1254.43 141.953 L1254.43 633.874 L995.396 633.874  Z
  " fill="#0000ff" fill-rule="evenodd" fill-opacity="0.1"/>
<polyline clip-path="url(#clip482)" style="stroke:#0000ff; stroke-linecap:butt; stroke-linejoin:round; stroke-width:8; stroke-opacity:1; fill:none" points="
  995.396,141.953 1254.43,141.953 
  "/>
<path clip-path="url(#clip482)" d="
M1254.43 327.619 L1513.47 327.619 L1513.47 633.874 L1254.43 633.874  Z
  " fill="#0000ff" fill-rule="evenodd" fill-opacity="0.1"/>
<polyline clip-path="url(#clip482)" style="stroke:#0000ff; stroke-linecap:butt; stroke-linejoin:round; stroke-width:8; stroke-opacity:1; fill:none" points="
  1254.43,327.619 1513.47,327.619 
  "/>
<path clip-path="url(#clip482)" d="
M1513.47 428.672 L1772.51 428.672 L1772.51 633.874 L1513.47 633.874  Z
  " fill="#0000ff" fill-rule="evenodd" fill-opacity="0.1"/>
<polyline clip-path="url(#clip482)" style="stroke:#0000ff; stroke-linecap:butt; stroke-linejoin:round; stroke-width:8; stroke-opacity:1; fill:none" points="
  1513.47,428.672 1772.51,428.672 
  "/>
<path clip-path="url(#clip482)" d="
M1772.51 426.063 L2031.55 426.063 L2031.55 633.874 L1772.51 633.874  Z
  " fill="#0000ff" fill-rule="evenodd" fill-opacity="0.1"/>
<polyline clip-path="url(#clip482)" style="stroke:#0000ff; stroke-linecap:butt; stroke-linejoin:round; stroke-width:8; stroke-opacity:1; fill:none" points="
  1772.51,426.063 2031.55,426.063 
  "/>
<path clip-path="url(#clip482)" d="
M2031.55 284.949 L2290.59 284.949 L2290.59 633.874 L2031.55 633.874  Z
  " fill="#0000ff" fill-rule="evenodd" fill-opacity="0.1"/>
<polyline clip-path="url(#clip482)" style="stroke:#0000ff; stroke-linecap:butt; stroke-linejoin:round; stroke-width:8; stroke-opacity:1; fill:none" points="
  2031.55,284.949 2290.59,284.949 
  "/>
<path clip-path="url(#clip482)" d="M347.8 588.021 L336.488 583.333 L331.8 572.021 L336.488 560.709 L347.8 556.021 L359.112 560.709 L363.8 572.021 L359.112 583.333 Z" fill="#add8e6" fill-rule="evenodd" fill-opacity="1" stroke="#000000" stroke-opacity="1" stroke-width="3.2"/>
<path clip-path="url(#clip482)" d="M606.839 332.726 L595.527 328.038 L590.839 316.726 L595.527 305.414 L606.839 300.726 L618.151 305.414 L622.839 316.726 L618.151 328.038 Z" fill="#add8e6" fill-rule="evenodd" fill-opacity="1" stroke="#000000" stroke-opacity="1" stroke-width="3.2"/>
<path clip-path="url(#clip482)" d="M865.877 93.1823 L854.565 88.4943 L849.877 77.1823 L854.565 65.8703 L865.877 61.1823 L877.189 65.8703 L881.877 77.1823 L877.189 88.4943 Z" fill="#add8e6" fill-rule="evenodd" fill-opacity="1" stroke="#000000" stroke-opacity="1" stroke-width="3.2"/>
<path clip-path="url(#clip482)" d="M1124.91 157.953 L1113.6 153.265 L1108.91 141.953 L1113.6 130.641 L1124.91 125.953 L1136.23 130.641 L1140.91 141.953 L1136.23 153.265 Z" fill="#add8e6" fill-rule="evenodd" fill-opacity="1" stroke="#000000" stroke-opacity="1" stroke-width="3.2"/>
<path clip-path="url(#clip482)" d="M1383.95 343.619 L1372.64 338.931 L1367.95 327.619 L1372.64 316.307 L1383.95 311.619 L1395.27 316.307 L1399.95 327.619 L1395.27 338.931 Z" fill="#add8e6" fill-rule="evenodd" fill-opacity="1" stroke="#000000" stroke-opacity="1" stroke-width="3.2"/>
<path clip-path="url(#clip482)" d="M1642.99 444.672 L1631.68 439.984 L1626.99 428.672 L1631.68 417.36 L1642.99 412.672 L1654.3 417.36 L1658.99 428.672 L1654.3 439.984 Z" fill="#add8e6" fill-rule="evenodd" fill-opacity="1" stroke="#000000" stroke-opacity="1" stroke-width="3.2"/>
<path clip-path="url(#clip482)" d="M1902.03 442.063 L1890.72 437.375 L1886.03 426.063 L1890.72 414.751 L1902.03 410.063 L1913.34 414.751 L1918.03 426.063 L1913.34 437.375 Z" fill="#add8e6" fill-rule="evenodd" fill-opacity="1" stroke="#000000" stroke-opacity="1" stroke-width="3.2"/>
<path clip-path="url(#clip482)" d="M2161.07 300.949 L2149.76 296.261 L2145.07 284.949 L2149.76 273.637 L2161.07 268.949 L2172.38 273.637 L2177.07 284.949 L2172.38 296.261 Z" fill="#add8e6" fill-rule="evenodd" fill-opacity="1" stroke="#000000" stroke-opacity="1" stroke-width="3.2"/>
<path clip-path="url(#clip480)" d="
M156.112 1450.96 L2352.76 1450.96 L2352.76 847.244 L156.112 847.244  Z
  " fill="#ffffff" fill-rule="evenodd" fill-opacity="1"/>
<defs>
  <clipPath id="clip483">
    <rect x="156" y="847" width="2198" height="605"/>
  </clipPath>
</defs>
<polyline clip-path="url(#clip483)" style="stroke:#000000; stroke-linecap:butt; stroke-linejoin:round; stroke-width:2; stroke-opacity:0.1; fill:none" points="
  218.281,1450.96 218.281,847.244 
  "/>
<polyline clip-path="url(#clip483)" style="stroke:#000000; stroke-linecap:butt; stroke-linejoin:round; stroke-width:2; stroke-opacity:0.1; fill:none" points="
  909.05,1450.96 909.05,847.244 
  "/>
<polyline clip-path="url(#clip483)" style="stroke:#000000; stroke-linecap:butt; stroke-linejoin:round; stroke-width:2; stroke-opacity:0.1; fill:none" points="
  1599.82,1450.96 1599.82,847.244 
  "/>
<polyline clip-path="url(#clip483)" style="stroke:#000000; stroke-linecap:butt; stroke-linejoin:round; stroke-width:2; stroke-opacity:0.1; fill:none" points="
  2290.59,1450.96 2290.59,847.244 
  "/>
<polyline clip-path="url(#clip480)" style="stroke:#000000; stroke-linecap:butt; stroke-linejoin:round; stroke-width:4; stroke-opacity:1; fill:none" points="
  156.112,1450.96 2352.76,1450.96 
  "/>
<polyline clip-path="url(#clip480)" style="stroke:#000000; stroke-linecap:butt; stroke-linejoin:round; stroke-width:4; stroke-opacity:1; fill:none" points="
  218.281,1450.96 218.281,1432.06 
  "/>
<polyline clip-path="url(#clip480)" style="stroke:#000000; stroke-linecap:butt; stroke-linejoin:round; stroke-width:4; stroke-opacity:1; fill:none" points="
  909.05,1450.96 909.05,1432.06 
  "/>
<polyline clip-path="url(#clip480)" style="stroke:#000000; stroke-linecap:butt; stroke-linejoin:round; stroke-width:4; stroke-opacity:1; fill:none" points="
  1599.82,1450.96 1599.82,1432.06 
  "/>
<polyline clip-path="url(#clip480)" style="stroke:#000000; stroke-linecap:butt; stroke-linejoin:round; stroke-width:4; stroke-opacity:1; fill:none" points="
  2290.59,1450.96 2290.59,1432.06 
  "/>
<path clip-path="url(#clip480)" d="M218.281 1480.15 Q214.67 1480.15 212.842 1483.72 Q211.036 1487.26 211.036 1494.39 Q211.036 1501.49 212.842 1505.06 Q214.67 1508.6 218.281 1508.6 Q221.916 1508.6 223.721 1505.06 Q225.55 1501.49 225.55 1494.39 Q225.55 1487.26 223.721 1483.72 Q221.916 1480.15 218.281 1480.15 M218.281 1476.45 Q224.091 1476.45 227.147 1481.05 Q230.226 1485.64 230.226 1494.39 Q230.226 1503.11 227.147 1507.72 Q224.091 1512.3 218.281 1512.3 Q212.471 1512.3 209.392 1507.72 Q206.337 1503.11 206.337 1494.39 Q206.337 1485.64 209.392 1481.05 Q212.471 1476.45 218.281 1476.45 Z" fill="#000000" fill-rule="evenodd" fill-opacity="1" /><path clip-path="url(#clip480)" d="M899.432 1507.7 L907.071 1507.7 L907.071 1481.33 L898.76 1483 L898.76 1478.74 L907.024 1477.07 L911.7 1477.07 L911.7 1507.7 L919.339 1507.7 L919.339 1511.63 L899.432 1511.63 L899.432 1507.7 Z" fill="#000000" fill-rule="evenodd" fill-opacity="1" /><path clip-path="url(#clip480)" d="M1594.47 1507.7 L1610.79 1507.7 L1610.79 1511.63 L1588.85 1511.63 L1588.85 1507.7 Q1591.51 1504.94 1596.09 1500.31 Q1600.7 1495.66 1601.88 1494.32 Q1604.12 1491.79 1605 1490.06 Q1605.91 1488.3 1605.91 1486.61 Q1605.91 1483.85 1603.96 1482.12 Q1602.04 1480.38 1598.94 1480.38 Q1596.74 1480.38 1594.29 1481.15 Q1591.86 1481.91 1589.08 1483.46 L1589.08 1478.74 Q1591.9 1477.6 1594.36 1477.03 Q1596.81 1476.45 1598.85 1476.45 Q1604.22 1476.45 1607.41 1479.13 Q1610.61 1481.82 1610.61 1486.31 Q1610.61 1488.44 1609.8 1490.36 Q1609.01 1492.26 1606.9 1494.85 Q1606.32 1495.52 1603.22 1498.74 Q1600.12 1501.93 1594.47 1507.7 Z" fill="#000000" fill-rule="evenodd" fill-opacity="1" /><path clip-path="url(#clip480)" d="M2294.83 1493 Q2298.19 1493.72 2300.07 1495.98 Q2301.96 1498.25 2301.96 1501.59 Q2301.96 1506.7 2298.45 1509.5 Q2294.93 1512.3 2288.45 1512.3 Q2286.27 1512.3 2283.95 1511.86 Q2281.66 1511.45 2279.21 1510.59 L2279.21 1506.08 Q2281.15 1507.21 2283.47 1507.79 Q2285.78 1508.37 2288.31 1508.37 Q2292.7 1508.37 2295 1506.63 Q2297.31 1504.9 2297.31 1501.59 Q2297.31 1498.53 2295.16 1496.82 Q2293.03 1495.08 2289.21 1495.08 L2285.18 1495.08 L2285.18 1491.24 L2289.39 1491.24 Q2292.84 1491.24 2294.67 1489.87 Q2296.5 1488.48 2296.5 1485.89 Q2296.5 1483.23 2294.6 1481.82 Q2292.73 1480.38 2289.21 1480.38 Q2287.29 1480.38 2285.09 1480.8 Q2282.89 1481.22 2280.25 1482.1 L2280.25 1477.93 Q2282.91 1477.19 2285.23 1476.82 Q2287.57 1476.45 2289.63 1476.45 Q2294.95 1476.45 2298.05 1478.88 Q2301.15 1481.29 2301.15 1485.41 Q2301.15 1488.28 2299.51 1490.27 Q2297.87 1492.23 2294.83 1493 Z" fill="#000000" fill-rule="evenodd" fill-opacity="1" /><path clip-path="url(#clip480)" d="M1268.61 1539.92 Q1268.61 1541.72 1267.48 1542.75 Q1266.35 1543.75 1265.06 1543.75 Q1263.84 1543.75 1263.2 1543.04 Q1262.55 1542.33 1262.55 1541.43 Q1262.55 1540.21 1263.45 1539.14 Q1264.36 1538.08 1265.71 1537.85 Q1264.39 1537.02 1262.42 1537.02 Q1261.14 1537.02 1260.01 1537.69 Q1258.91 1538.37 1258.24 1539.24 Q1257.59 1540.11 1257.01 1541.37 Q1256.47 1542.59 1256.24 1543.33 Q1256.05 1544.04 1255.89 1544.81 L1253.63 1553.83 Q1252.54 1558.11 1252.54 1559.63 Q1252.54 1561.49 1253.44 1562.75 Q1254.34 1563.97 1256.14 1563.97 Q1256.85 1563.97 1257.66 1563.78 Q1258.46 1563.55 1259.49 1562.98 Q1260.56 1562.36 1261.49 1561.46 Q1262.46 1560.53 1263.39 1558.95 Q1264.32 1557.37 1264.94 1555.34 Q1265.13 1554.63 1265.77 1554.63 Q1266.58 1554.63 1266.58 1555.28 Q1266.58 1555.83 1266.13 1556.98 Q1265.71 1558.11 1264.77 1559.59 Q1263.87 1561.04 1262.68 1562.36 Q1261.49 1563.65 1259.72 1564.55 Q1257.95 1565.46 1256.01 1565.46 Q1253.25 1565.46 1251.41 1563.97 Q1249.57 1562.49 1248.9 1560.43 Q1248.74 1560.72 1248.51 1561.11 Q1248.29 1561.49 1247.61 1562.36 Q1246.97 1563.2 1246.22 1563.84 Q1245.48 1564.46 1244.32 1564.94 Q1243.2 1565.46 1241.97 1565.46 Q1240.43 1565.46 1239.04 1565 Q1237.69 1564.55 1236.72 1563.52 Q1235.76 1562.49 1235.76 1561.08 Q1235.76 1559.5 1236.82 1558.4 Q1237.92 1557.27 1239.4 1557.27 Q1240.33 1557.27 1241.07 1557.82 Q1241.84 1558.37 1241.84 1559.56 Q1241.84 1560.88 1240.94 1561.88 Q1240.04 1562.88 1238.75 1563.14 Q1240.07 1563.97 1242.04 1563.97 Q1244.16 1563.97 1245.84 1562.11 Q1247.51 1560.24 1248.32 1557.11 Q1250.31 1549.61 1251.09 1546.26 Q1251.86 1542.88 1251.86 1541.43 Q1251.86 1540.08 1251.51 1539.14 Q1251.15 1538.21 1250.54 1537.79 Q1249.96 1537.34 1249.41 1537.18 Q1248.9 1537.02 1248.32 1537.02 Q1247.35 1537.02 1246.26 1537.4 Q1245.19 1537.79 1243.91 1538.69 Q1242.65 1539.56 1241.46 1541.37 Q1240.27 1543.17 1239.46 1545.65 Q1239.3 1546.39 1238.59 1546.39 Q1237.82 1546.36 1237.82 1545.71 Q1237.82 1545.17 1238.24 1544.04 Q1238.69 1542.88 1239.59 1541.43 Q1240.52 1539.98 1241.72 1538.69 Q1242.94 1537.37 1244.71 1536.47 Q1246.51 1535.57 1248.45 1535.57 Q1249.32 1535.57 1250.15 1535.76 Q1251.02 1535.92 1252.05 1536.41 Q1253.12 1536.89 1254.05 1537.95 Q1254.98 1539.01 1255.56 1540.56 Q1255.95 1539.82 1256.47 1539.11 Q1257.01 1538.4 1257.85 1537.53 Q1258.72 1536.63 1259.91 1536.12 Q1261.14 1535.57 1262.49 1535.57 Q1263.81 1535.57 1265.1 1535.92 Q1266.39 1536.24 1267.48 1537.31 Q1268.61 1538.34 1268.61 1539.92 Z" fill="#000000" fill-rule="evenodd" fill-opacity="1" /><polyline clip-path="url(#clip483)" style="stroke:#000000; stroke-linecap:butt; stroke-linejoin:round; stroke-width:2; stroke-opacity:0.1; fill:none" points="
  156.112,1433.87 2352.76,1433.87 
  "/>
<polyline clip-path="url(#clip483)" style="stroke:#000000; stroke-linecap:butt; stroke-linejoin:round; stroke-width:2; stroke-opacity:0.1; fill:none" points="
  156.112,1319.52 2352.76,1319.52 
  "/>
<polyline clip-path="url(#clip483)" style="stroke:#000000; stroke-linecap:butt; stroke-linejoin:round; stroke-width:2; stroke-opacity:0.1; fill:none" points="
  156.112,1205.16 2352.76,1205.16 
  "/>
<polyline clip-path="url(#clip483)" style="stroke:#000000; stroke-linecap:butt; stroke-linejoin:round; stroke-width:2; stroke-opacity:0.1; fill:none" points="
  156.112,1090.81 2352.76,1090.81 
  "/>
<polyline clip-path="url(#clip483)" style="stroke:#000000; stroke-linecap:butt; stroke-linejoin:round; stroke-width:2; stroke-opacity:0.1; fill:none" points="
  156.112,976.45 2352.76,976.45 
  "/>
<polyline clip-path="url(#clip483)" style="stroke:#000000; stroke-linecap:butt; stroke-linejoin:round; stroke-width:2; stroke-opacity:0.1; fill:none" points="
  156.112,862.094 2352.76,862.094 
  "/>
<polyline clip-path="url(#clip480)" style="stroke:#000000; stroke-linecap:butt; stroke-linejoin:round; stroke-width:4; stroke-opacity:1; fill:none" points="
  156.112,1450.96 156.112,847.244 
  "/>
<polyline clip-path="url(#clip480)" style="stroke:#000000; stroke-linecap:butt; stroke-linejoin:round; stroke-width:4; stroke-opacity:1; fill:none" points="
  156.112,1433.87 175.01,1433.87 
  "/>
<polyline clip-path="url(#clip480)" style="stroke:#000000; stroke-linecap:butt; stroke-linejoin:round; stroke-width:4; stroke-opacity:1; fill:none" points="
  156.112,1319.52 175.01,1319.52 
  "/>
<polyline clip-path="url(#clip480)" style="stroke:#000000; stroke-linecap:butt; stroke-linejoin:round; stroke-width:4; stroke-opacity:1; fill:none" points="
  156.112,1205.16 175.01,1205.16 
  "/>
<polyline clip-path="url(#clip480)" style="stroke:#000000; stroke-linecap:butt; stroke-linejoin:round; stroke-width:4; stroke-opacity:1; fill:none" points="
  156.112,1090.81 175.01,1090.81 
  "/>
<polyline clip-path="url(#clip480)" style="stroke:#000000; stroke-linecap:butt; stroke-linejoin:round; stroke-width:4; stroke-opacity:1; fill:none" points="
  156.112,976.45 175.01,976.45 
  "/>
<polyline clip-path="url(#clip480)" style="stroke:#000000; stroke-linecap:butt; stroke-linejoin:round; stroke-width:4; stroke-opacity:1; fill:none" points="
  156.112,862.094 175.01,862.094 
  "/>
<path clip-path="url(#clip480)" d="M62.9365 1419.67 Q59.3254 1419.67 57.4967 1423.24 Q55.6912 1426.78 55.6912 1433.91 Q55.6912 1441.02 57.4967 1444.58 Q59.3254 1448.12 62.9365 1448.12 Q66.5707 1448.12 68.3763 1444.58 Q70.205 1441.02 70.205 1433.91 Q70.205 1426.78 68.3763 1423.24 Q66.5707 1419.67 62.9365 1419.67 M62.9365 1415.97 Q68.7467 1415.97 71.8022 1420.58 Q74.8809 1425.16 74.8809 1433.91 Q74.8809 1442.64 71.8022 1447.24 Q68.7467 1451.83 62.9365 1451.83 Q57.1264 1451.83 54.0477 1447.24 Q50.9921 1442.64 50.9921 1433.91 Q50.9921 1425.16 54.0477 1420.58 Q57.1264 1415.97 62.9365 1415.97 Z" fill="#000000" fill-rule="evenodd" fill-opacity="1" /><path clip-path="url(#clip480)" d="M83.0984 1445.27 L87.9827 1445.27 L87.9827 1451.15 L83.0984 1451.15 L83.0984 1445.27 Z" fill="#000000" fill-rule="evenodd" fill-opacity="1" /><path clip-path="url(#clip480)" d="M108.168 1419.67 Q104.557 1419.67 102.728 1423.24 Q100.922 1426.78 100.922 1433.91 Q100.922 1441.02 102.728 1444.58 Q104.557 1448.12 108.168 1448.12 Q111.802 1448.12 113.608 1444.58 Q115.436 1441.02 115.436 1433.91 Q115.436 1426.78 113.608 1423.24 Q111.802 1419.67 108.168 1419.67 M108.168 1415.97 Q113.978 1415.97 117.033 1420.58 Q120.112 1425.16 120.112 1433.91 Q120.112 1442.64 117.033 1447.24 Q113.978 1451.83 108.168 1451.83 Q102.358 1451.83 99.2789 1447.24 Q96.2234 1442.64 96.2234 1433.91 Q96.2234 1425.16 99.2789 1420.58 Q102.358 1415.97 108.168 1415.97 Z" fill="#000000" fill-rule="evenodd" fill-opacity="1" /><path clip-path="url(#clip480)" d="M63.9319 1305.32 Q60.3208 1305.32 58.4921 1308.88 Q56.6865 1312.42 56.6865 1319.55 Q56.6865 1326.66 58.4921 1330.22 Q60.3208 1333.77 63.9319 1333.77 Q67.5661 1333.77 69.3717 1330.22 Q71.2004 1326.66 71.2004 1319.55 Q71.2004 1312.42 69.3717 1308.88 Q67.5661 1305.32 63.9319 1305.32 M63.9319 1301.61 Q69.742 1301.61 72.7976 1306.22 Q75.8763 1310.8 75.8763 1319.55 Q75.8763 1328.28 72.7976 1332.89 Q69.742 1337.47 63.9319 1337.47 Q58.1217 1337.47 55.043 1332.89 Q51.9875 1328.28 51.9875 1319.55 Q51.9875 1310.8 55.043 1306.22 Q58.1217 1301.61 63.9319 1301.61 Z" fill="#000000" fill-rule="evenodd" fill-opacity="1" /><path clip-path="url(#clip480)" d="M84.0938 1330.92 L88.978 1330.92 L88.978 1336.8 L84.0938 1336.8 L84.0938 1330.92 Z" fill="#000000" fill-rule="evenodd" fill-opacity="1" /><path clip-path="url(#clip480)" d="M99.2095 1302.24 L117.566 1302.24 L117.566 1306.17 L103.492 1306.17 L103.492 1314.65 Q104.51 1314.3 105.529 1314.14 Q106.547 1313.95 107.566 1313.95 Q113.353 1313.95 116.733 1317.12 Q120.112 1320.29 120.112 1325.71 Q120.112 1331.29 116.64 1334.39 Q113.168 1337.47 106.848 1337.47 Q104.672 1337.47 102.404 1337.1 Q100.159 1336.73 97.7511 1335.99 L97.7511 1331.29 Q99.8345 1332.42 102.057 1332.98 Q104.279 1333.53 106.756 1333.53 Q110.76 1333.53 113.098 1331.43 Q115.436 1329.32 115.436 1325.71 Q115.436 1322.1 113.098 1319.99 Q110.76 1317.89 106.756 1317.89 Q104.881 1317.89 103.006 1318.3 Q101.154 1318.72 99.2095 1319.6 L99.2095 1302.24 Z" fill="#000000" fill-rule="evenodd" fill-opacity="1" /><path clip-path="url(#clip480)" d="M53.7467 1218.51 L61.3856 1218.51 L61.3856 1192.14 L53.0754 1193.81 L53.0754 1189.55 L61.3393 1187.88 L66.0152 1187.88 L66.0152 1218.51 L73.654 1218.51 L73.654 1222.44 L53.7467 1222.44 L53.7467 1218.51 Z" fill="#000000" fill-rule="evenodd" fill-opacity="1" /><path clip-path="url(#clip480)" d="M83.0984 1216.56 L87.9827 1216.56 L87.9827 1222.44 L83.0984 1222.44 L83.0984 1216.56 Z" fill="#000000" fill-rule="evenodd" fill-opacity="1" /><path clip-path="url(#clip480)" d="M108.168 1190.96 Q104.557 1190.96 102.728 1194.53 Q100.922 1198.07 100.922 1205.2 Q100.922 1212.3 102.728 1215.87 Q104.557 1219.41 108.168 1219.41 Q111.802 1219.41 113.608 1215.87 Q115.436 1212.3 115.436 1205.2 Q115.436 1198.07 113.608 1194.53 Q111.802 1190.96 108.168 1190.96 M108.168 1187.26 Q113.978 1187.26 117.033 1191.86 Q120.112 1196.45 120.112 1205.2 Q120.112 1213.92 117.033 1218.53 Q113.978 1223.11 108.168 1223.11 Q102.358 1223.11 99.2789 1218.53 Q96.2234 1213.92 96.2234 1205.2 Q96.2234 1196.45 99.2789 1191.86 Q102.358 1187.26 108.168 1187.26 Z" fill="#000000" fill-rule="evenodd" fill-opacity="1" /><path clip-path="url(#clip480)" d="M54.7421 1104.15 L62.381 1104.15 L62.381 1077.78 L54.0708 1079.45 L54.0708 1075.19 L62.3347 1073.53 L67.0106 1073.53 L67.0106 1104.15 L74.6494 1104.15 L74.6494 1108.09 L54.7421 1108.09 L54.7421 1104.15 Z" fill="#000000" fill-rule="evenodd" fill-opacity="1" /><path clip-path="url(#clip480)" d="M84.0938 1102.21 L88.978 1102.21 L88.978 1108.09 L84.0938 1108.09 L84.0938 1102.21 Z" fill="#000000" fill-rule="evenodd" fill-opacity="1" /><path clip-path="url(#clip480)" d="M99.2095 1073.53 L117.566 1073.53 L117.566 1077.46 L103.492 1077.46 L103.492 1085.93 Q104.51 1085.59 105.529 1085.42 Q106.547 1085.24 107.566 1085.24 Q113.353 1085.24 116.733 1088.41 Q120.112 1091.58 120.112 1097 Q120.112 1102.58 116.64 1105.68 Q113.168 1108.76 106.848 1108.76 Q104.672 1108.76 102.404 1108.39 Q100.159 1108.02 97.7511 1107.28 L97.7511 1102.58 Q99.8345 1103.71 102.057 1104.27 Q104.279 1104.82 106.756 1104.82 Q110.76 1104.82 113.098 1102.72 Q115.436 1100.61 115.436 1097 Q115.436 1093.39 113.098 1091.28 Q110.76 1089.17 106.756 1089.17 Q104.881 1089.17 103.006 1089.59 Q101.154 1090.01 99.2095 1090.89 L99.2095 1073.53 Z" fill="#000000" fill-rule="evenodd" fill-opacity="1" /><path clip-path="url(#clip480)" d="M56.9643 989.794 L73.2837 989.794 L73.2837 993.73 L51.3393 993.73 L51.3393 989.794 Q54.0014 987.04 58.5847 982.41 Q63.1911 977.757 64.3717 976.415 Q66.617 973.892 67.4967 972.156 Q68.3994 970.396 68.3994 968.707 Q68.3994 965.952 66.455 964.216 Q64.5337 962.48 61.4319 962.48 Q59.2328 962.48 56.7791 963.244 Q54.3486 964.008 51.5708 965.558 L51.5708 960.836 Q54.3949 959.702 56.8486 959.123 Q59.3023 958.545 61.3393 958.545 Q66.7096 958.545 69.9041 961.23 Q73.0985 963.915 73.0985 968.406 Q73.0985 970.535 72.2883 972.457 Q71.5013 974.355 69.3948 976.947 Q68.8161 977.619 65.7143 980.836 Q62.6124 984.031 56.9643 989.794 Z" fill="#000000" fill-rule="evenodd" fill-opacity="1" /><path clip-path="url(#clip480)" d="M83.0984 987.85 L87.9827 987.85 L87.9827 993.73 L83.0984 993.73 L83.0984 987.85 Z" fill="#000000" fill-rule="evenodd" fill-opacity="1" /><path clip-path="url(#clip480)" d="M108.168 962.248 Q104.557 962.248 102.728 965.813 Q100.922 969.355 100.922 976.484 Q100.922 983.591 102.728 987.156 Q104.557 990.697 108.168 990.697 Q111.802 990.697 113.608 987.156 Q115.436 983.591 115.436 976.484 Q115.436 969.355 113.608 965.813 Q111.802 962.248 108.168 962.248 M108.168 958.545 Q113.978 958.545 117.033 963.151 Q120.112 967.734 120.112 976.484 Q120.112 985.211 117.033 989.818 Q113.978 994.401 108.168 994.401 Q102.358 994.401 99.2789 989.818 Q96.2234 985.211 96.2234 976.484 Q96.2234 967.734 99.2789 963.151 Q102.358 958.545 108.168 958.545 Z" fill="#000000" fill-rule="evenodd" fill-opacity="1" /><path clip-path="url(#clip480)" d="M57.9597 875.438 L74.279 875.438 L74.279 879.374 L52.3347 879.374 L52.3347 875.438 Q54.9967 872.684 59.58 868.054 Q64.1865 863.401 65.367 862.059 Q67.6124 859.536 68.492 857.8 Q69.3948 856.04 69.3948 854.351 Q69.3948 851.596 67.4504 849.86 Q65.5291 848.124 62.4272 848.124 Q60.2282 848.124 57.7745 848.888 Q55.344 849.651 52.5662 851.202 L52.5662 846.48 Q55.3903 845.346 57.8439 844.767 Q60.2976 844.189 62.3347 844.189 Q67.705 844.189 70.8994 846.874 Q74.0939 849.559 74.0939 854.05 Q74.0939 856.179 73.2837 858.101 Q72.4966 859.999 70.3902 862.591 Q69.8115 863.263 66.7096 866.48 Q63.6078 869.675 57.9597 875.438 Z" fill="#000000" fill-rule="evenodd" fill-opacity="1" /><path clip-path="url(#clip480)" d="M84.0938 873.494 L88.978 873.494 L88.978 879.374 L84.0938 879.374 L84.0938 873.494 Z" fill="#000000" fill-rule="evenodd" fill-opacity="1" /><path clip-path="url(#clip480)" d="M99.2095 844.814 L117.566 844.814 L117.566 848.749 L103.492 848.749 L103.492 857.221 Q104.51 856.874 105.529 856.712 Q106.547 856.526 107.566 856.526 Q113.353 856.526 116.733 859.698 Q120.112 862.869 120.112 868.286 Q120.112 873.864 116.64 876.966 Q113.168 880.045 106.848 880.045 Q104.672 880.045 102.404 879.674 Q100.159 879.304 97.7511 878.563 L97.7511 873.864 Q99.8345 874.999 102.057 875.554 Q104.279 876.11 106.756 876.11 Q110.76 876.11 113.098 874.003 Q115.436 871.897 115.436 868.286 Q115.436 864.675 113.098 862.568 Q110.76 860.462 106.756 860.462 Q104.881 860.462 103.006 860.878 Q101.154 861.295 99.2095 862.175 L99.2095 844.814 Z" fill="#000000" fill-rule="evenodd" fill-opacity="1" /><polyline clip-path="url(#clip483)" style="stroke:#ff0000; stroke-linecap:butt; stroke-linejoin:round; stroke-width:8; stroke-opacity:1; fill:none" points="
  218.281,1433.87 223.341,1432.17 228.4,1430.42 233.46,1428.62 238.519,1426.77 285.301,1406.96 332.083,1381.8 378.865,1350.62 425.646,1313.08 453.76,1287.46 
  481.874,1259.66 509.988,1229.88 538.102,1198.39 585.642,1142.35 633.182,1084.83 684.824,1023.98 736.465,968.656 760.27,946.075 784.074,925.803 807.879,908.123 
  831.684,893.263 857.204,880.658 882.725,871.619 908.246,866.191 933.767,864.33 963.336,866.473 992.905,872.93 1022.47,883.288 1052.04,897.048 1104.6,928.185 
  1157.15,965.123 1203.24,999.874 1249.32,1034.96 1299.57,1071.93 1349.81,1106.26 1400.35,1137.25 1450.9,1164.2 1506.78,1189.1 1562.66,1208.87 1615.83,1223.09 
  1669.01,1232.99 1724.29,1238.84 1779.58,1240.18 1826.12,1237.71 1872.65,1231.76 1929.47,1219.28 1986.29,1200.23 2013,1188.67 2039.7,1175.24 2066.41,1159.74 
  2093.11,1141.98 2114.5,1125.96 2135.9,1108.22 2157.29,1088.62 2178.68,1067.01 2200.07,1043.24 2221.47,1017.14 2242.86,988.57 2264.25,957.342 2270.83,947.169 
  2277.42,936.725 2284,926.004 2290.59,915 
  "/>
<path clip-path="url(#clip483)" d="
M218.281 1408.04 L347.8 1408.04 L347.8 1433.87 L218.281 1433.87  Z
  " fill="#0000ff" fill-rule="evenodd" fill-opacity="0.1"/>
<polyline clip-path="url(#clip483)" style="stroke:#0000ff; stroke-linecap:butt; stroke-linejoin:round; stroke-width:8; stroke-opacity:1; fill:none" points="
  218.281,1408.04 347.8,1408.04 
  "/>
<path clip-path="url(#clip483)" d="
M347.8 1324.23 L477.319 1324.23 L477.319 1433.87 L347.8 1433.87  Z
  " fill="#0000ff" fill-rule="evenodd" fill-opacity="0.1"/>
<polyline clip-path="url(#clip483)" style="stroke:#0000ff; stroke-linecap:butt; stroke-linejoin:round; stroke-width:8; stroke-opacity:1; fill:none" points="
  347.8,1324.23 477.319,1324.23 
  "/>
<path clip-path="url(#clip483)" d="
M477.319 1193.82 L606.839 1193.82 L606.839 1433.87 L477.319 1433.87  Z
  " fill="#0000ff" fill-rule="evenodd" fill-opacity="0.1"/>
<polyline clip-path="url(#clip483)" style="stroke:#0000ff; stroke-linecap:butt; stroke-linejoin:round; stroke-width:8; stroke-opacity:1; fill:none" points="
  477.319,1193.82 606.839,1193.82 
  "/>
<path clip-path="url(#clip483)" d="
M606.839 1039.19 L736.358 1039.19 L736.358 1433.87 L606.839 1433.87  Z
  " fill="#0000ff" fill-rule="evenodd" fill-opacity="0.1"/>
<polyline clip-path="url(#clip483)" style="stroke:#0000ff; stroke-linecap:butt; stroke-linejoin:round; stroke-width:8; stroke-opacity:1; fill:none" points="
  606.839,1039.19 736.358,1039.19 
  "/>
<path clip-path="url(#clip483)" d="
M736.358 912.867 L865.877 912.867 L865.877 1433.87 L736.358 1433.87  Z
  " fill="#0000ff" fill-rule="evenodd" fill-opacity="0.1"/>
<polyline clip-path="url(#clip483)" style="stroke:#0000ff; stroke-linecap:butt; stroke-linejoin:round; stroke-width:8; stroke-opacity:1; fill:none" points="
  736.358,912.867 865.877,912.867 
  "/>
<path clip-path="url(#clip483)" d="
M865.877 864.37 L995.396 864.37 L995.396 1433.87 L865.877 1433.87  Z
  " fill="#0000ff" fill-rule="evenodd" fill-opacity="0.1"/>
<polyline clip-path="url(#clip483)" style="stroke:#0000ff; stroke-linecap:butt; stroke-linejoin:round; stroke-width:8; stroke-opacity:1; fill:none" points="
  865.877,864.37 995.396,864.37 
  "/>
<path clip-path="url(#clip483)" d="
M995.396 901.348 L1124.91 901.348 L1124.91 1433.87 L995.396 1433.87  Z
  " fill="#0000ff" fill-rule="evenodd" fill-opacity="0.1"/>
<polyline clip-path="url(#clip483)" style="stroke:#0000ff; stroke-linecap:butt; stroke-linejoin:round; stroke-width:8; stroke-opacity:1; fill:none" points="
  995.396,901.348 1124.91,901.348 
  "/>
<path clip-path="url(#clip483)" d="
M1124.91 989.54 L1254.43 989.54 L1254.43 1433.87 L1124.91 1433.87  Z
  " fill="#0000ff" fill-rule="evenodd" fill-opacity="0.1"/>
<polyline clip-path="url(#clip483)" style="stroke:#0000ff; stroke-linecap:butt; stroke-linejoin:round; stroke-width:8; stroke-opacity:1; fill:none" points="
  1124.91,989.54 1254.43,989.54 
  "/>
<path clip-path="url(#clip483)" d="
M1254.43 1085.71 L1383.95 1085.71 L1383.95 1433.87 L1254.43 1433.87  Z
  " fill="#0000ff" fill-rule="evenodd" fill-opacity="0.1"/>
<polyline clip-path="url(#clip483)" style="stroke:#0000ff; stroke-linecap:butt; stroke-linejoin:round; stroke-width:8; stroke-opacity:1; fill:none" points="
  1254.43,1085.71 1383.95,1085.71 
  "/>
<path clip-path="url(#clip483)" d="
M1383.95 1163.13 L1513.47 1163.13 L1513.47 1433.87 L1383.95 1433.87  Z
  " fill="#0000ff" fill-rule="evenodd" fill-opacity="0.1"/>
<polyline clip-path="url(#clip483)" style="stroke:#0000ff; stroke-linecap:butt; stroke-linejoin:round; stroke-width:8; stroke-opacity:1; fill:none" points="
  1383.95,1163.13 1513.47,1163.13 
  "/>
<path clip-path="url(#clip483)" d="
M1513.47 1213.49 L1642.99 1213.49 L1642.99 1433.87 L1513.47 1433.87  Z
  " fill="#0000ff" fill-rule="evenodd" fill-opacity="0.1"/>
<polyline clip-path="url(#clip483)" style="stroke:#0000ff; stroke-linecap:butt; stroke-linejoin:round; stroke-width:8; stroke-opacity:1; fill:none" points="
  1513.47,1213.49 1642.99,1213.49 
  "/>
<path clip-path="url(#clip483)" d="
M1642.99 1237.56 L1772.51 1237.56 L1772.51 1433.87 L1642.99 1433.87  Z
  " fill="#0000ff" fill-rule="evenodd" fill-opacity="0.1"/>
<polyline clip-path="url(#clip483)" style="stroke:#0000ff; stroke-linecap:butt; stroke-linejoin:round; stroke-width:8; stroke-opacity:1; fill:none" points="
  1642.99,1237.56 1772.51,1237.56 
  "/>
<path clip-path="url(#clip483)" d="
M1772.51 1236.61 L1902.03 1236.61 L1902.03 1433.87 L1772.51 1433.87  Z
  " fill="#0000ff" fill-rule="evenodd" fill-opacity="0.1"/>
<polyline clip-path="url(#clip483)" style="stroke:#0000ff; stroke-linecap:butt; stroke-linejoin:round; stroke-width:8; stroke-opacity:1; fill:none" points="
  1772.51,1236.61 1902.03,1236.61 
  "/>
<path clip-path="url(#clip483)" d="
M1902.03 1207.58 L2031.55 1207.58 L2031.55 1433.87 L1902.03 1433.87  Z
  " fill="#0000ff" fill-rule="evenodd" fill-opacity="0.1"/>
<polyline clip-path="url(#clip483)" style="stroke:#0000ff; stroke-linecap:butt; stroke-linejoin:round; stroke-width:8; stroke-opacity:1; fill:none" points="
  1902.03,1207.58 2031.55,1207.58 
  "/>
<path clip-path="url(#clip483)" d="
M2031.55 1139.69 L2161.07 1139.69 L2161.07 1433.87 L2031.55 1433.87  Z
  " fill="#0000ff" fill-rule="evenodd" fill-opacity="0.1"/>
<polyline clip-path="url(#clip483)" style="stroke:#0000ff; stroke-linecap:butt; stroke-linejoin:round; stroke-width:8; stroke-opacity:1; fill:none" points="
  2031.55,1139.69 2161.07,1139.69 
  "/>
<path clip-path="url(#clip483)" d="
M2161.07 1011.53 L2290.59 1011.53 L2290.59 1433.87 L2161.07 1433.87  Z
  " fill="#0000ff" fill-rule="evenodd" fill-opacity="0.1"/>
<polyline clip-path="url(#clip483)" style="stroke:#0000ff; stroke-linecap:butt; stroke-linejoin:round; stroke-width:8; stroke-opacity:1; fill:none" points="
  2161.07,1011.53 2290.59,1011.53 
  "/>
<path clip-path="url(#clip483)" d="M283.041 1424.04 L271.729 1419.35 L267.041 1408.04 L271.729 1396.73 L283.041 1392.04 L294.353 1396.73 L299.041 1408.04 L294.353 1419.35 Z" fill="#add8e6" fill-rule="evenodd" fill-opacity="1" stroke="#000000" stroke-opacity="1" stroke-width="3.2"/>
<path clip-path="url(#clip483)" d="M412.56 1340.23 L401.248 1335.54 L396.56 1324.23 L401.248 1312.92 L412.56 1308.23 L423.872 1312.92 L428.56 1324.23 L423.872 1335.54 Z" fill="#add8e6" fill-rule="evenodd" fill-opacity="1" stroke="#000000" stroke-opacity="1" stroke-width="3.2"/>
<path clip-path="url(#clip483)" d="M542.079 1209.82 L530.767 1205.13 L526.079 1193.82 L530.767 1182.51 L542.079 1177.82 L553.391 1182.51 L558.079 1193.82 L553.391 1205.13 Z" fill="#add8e6" fill-rule="evenodd" fill-opacity="1" stroke="#000000" stroke-opacity="1" stroke-width="3.2"/>
<path clip-path="url(#clip483)" d="M671.598 1055.19 L660.286 1050.51 L655.598 1039.19 L660.286 1027.88 L671.598 1023.19 L682.91 1027.88 L687.598 1039.19 L682.91 1050.51 Z" fill="#add8e6" fill-rule="evenodd" fill-opacity="1" stroke="#000000" stroke-opacity="1" stroke-width="3.2"/>
<path clip-path="url(#clip483)" d="M801.117 928.867 L789.805 924.179 L785.117 912.867 L789.805 901.555 L801.117 896.867 L812.429 901.555 L817.117 912.867 L812.429 924.179 Z" fill="#add8e6" fill-rule="evenodd" fill-opacity="1" stroke="#000000" stroke-opacity="1" stroke-width="3.2"/>
<path clip-path="url(#clip483)" d="M930.636 880.37 L919.324 875.682 L914.636 864.37 L919.324 853.058 L930.636 848.37 L941.948 853.058 L946.636 864.37 L941.948 875.682 Z" fill="#add8e6" fill-rule="evenodd" fill-opacity="1" stroke="#000000" stroke-opacity="1" stroke-width="3.2"/>
<path clip-path="url(#clip483)" d="M1060.16 917.348 L1048.84 912.66 L1044.16 901.348 L1048.84 890.036 L1060.16 885.348 L1071.47 890.036 L1076.16 901.348 L1071.47 912.66 Z" fill="#add8e6" fill-rule="evenodd" fill-opacity="1" stroke="#000000" stroke-opacity="1" stroke-width="3.2"/>
<path clip-path="url(#clip483)" d="M1189.67 1005.54 L1178.36 1000.85 L1173.67 989.54 L1178.36 978.228 L1189.67 973.54 L1200.99 978.228 L1205.67 989.54 L1200.99 1000.85 Z" fill="#add8e6" fill-rule="evenodd" fill-opacity="1" stroke="#000000" stroke-opacity="1" stroke-width="3.2"/>
<path clip-path="url(#clip483)" d="M1319.19 1101.71 L1307.88 1097.03 L1303.19 1085.71 L1307.88 1074.4 L1319.19 1069.71 L1330.51 1074.4 L1335.19 1085.71 L1330.51 1097.03 Z" fill="#add8e6" fill-rule="evenodd" fill-opacity="1" stroke="#000000" stroke-opacity="1" stroke-width="3.2"/>
<path clip-path="url(#clip483)" d="M1448.71 1179.13 L1437.4 1174.44 L1432.71 1163.13 L1437.4 1151.81 L1448.71 1147.13 L1460.02 1151.81 L1464.71 1163.13 L1460.02 1174.44 Z" fill="#add8e6" fill-rule="evenodd" fill-opacity="1" stroke="#000000" stroke-opacity="1" stroke-width="3.2"/>
<path clip-path="url(#clip483)" d="M1578.23 1229.49 L1566.92 1224.8 L1562.23 1213.49 L1566.92 1202.18 L1578.23 1197.49 L1589.54 1202.18 L1594.23 1213.49 L1589.54 1224.8 Z" fill="#add8e6" fill-rule="evenodd" fill-opacity="1" stroke="#000000" stroke-opacity="1" stroke-width="3.2"/>
<path clip-path="url(#clip483)" d="M1707.75 1253.56 L1696.44 1248.87 L1691.75 1237.56 L1696.44 1226.24 L1707.75 1221.56 L1719.06 1226.24 L1723.75 1237.56 L1719.06 1248.87 Z" fill="#add8e6" fill-rule="evenodd" fill-opacity="1" stroke="#000000" stroke-opacity="1" stroke-width="3.2"/>
<path clip-path="url(#clip483)" d="M1837.27 1252.61 L1825.96 1247.93 L1821.27 1236.61 L1825.96 1225.3 L1837.27 1220.61 L1848.58 1225.3 L1853.27 1236.61 L1848.58 1247.93 Z" fill="#add8e6" fill-rule="evenodd" fill-opacity="1" stroke="#000000" stroke-opacity="1" stroke-width="3.2"/>
<path clip-path="url(#clip483)" d="M1966.79 1223.58 L1955.48 1218.89 L1950.79 1207.58 L1955.48 1196.27 L1966.79 1191.58 L1978.1 1196.27 L1982.79 1207.58 L1978.1 1218.89 Z" fill="#add8e6" fill-rule="evenodd" fill-opacity="1" stroke="#000000" stroke-opacity="1" stroke-width="3.2"/>
<path clip-path="url(#clip483)" d="M2096.31 1155.69 L2085 1151 L2080.31 1139.69 L2085 1128.38 L2096.31 1123.69 L2107.62 1128.38 L2112.31 1139.69 L2107.62 1151 Z" fill="#add8e6" fill-rule="evenodd" fill-opacity="1" stroke="#000000" stroke-opacity="1" stroke-width="3.2"/>
<path clip-path="url(#clip483)" d="M2225.83 1027.53 L2214.52 1022.84 L2209.83 1011.53 L2214.52 1000.21 L2225.83 995.525 L2237.14 1000.21 L2241.83 1011.53 L2237.14 1022.84 Z" fill="#add8e6" fill-rule="evenodd" fill-opacity="1" stroke="#000000" stroke-opacity="1" stroke-width="3.2"/>
</svg>
