<?xml version="1.0" encoding="utf-8"?>
<svg xmlns="http://www.w3.org/2000/svg" xmlns:xlink="http://www.w3.org/1999/xlink" width="600" height="400" viewBox="0 0 2400 1600">
<defs>
  <clipPath id="clip820">
    <rect x="0" y="0" width="2400" height="1600"/>
  </clipPath>
</defs>
<path clip-path="url(#clip820)" d="
M0 1600 L2400 1600 L2400 0 L0 0  Z
  " fill="#ffffff" fill-rule="evenodd" fill-opacity="1"/>
<defs>
  <clipPath id="clip821">
    <rect x="480" y="0" width="1681" height="1600"/>
  </clipPath>
</defs>
<path clip-path="url(#clip820)" d="
M193.936 1486.45 L2352.76 1486.45 L2352.76 47.2441 L193.936 47.2441  Z
  " fill="#ffffff" fill-rule="evenodd" fill-opacity="1"/>
<defs>
  <clipPath id="clip822">
    <rect x="193" y="47" width="2160" height="1440"/>
  </clipPath>
</defs>
<polyline clip-path="url(#clip822)" style="stroke:#000000; stroke-linecap:butt; stroke-linejoin:round; stroke-width:2; stroke-opacity:0.1; fill:none" points="
  193.936,1486.45 193.936,47.2441 
  "/>
<polyline clip-path="url(#clip822)" style="stroke:#000000; stroke-linecap:butt; stroke-linejoin:round; stroke-width:2; stroke-opacity:0.1; fill:none" points="
  913.543,1486.45 913.543,47.2441 
  "/>
<polyline clip-path="url(#clip822)" style="stroke:#000000; stroke-linecap:butt; stroke-linejoin:round; stroke-width:2; stroke-opacity:0.1; fill:none" points="
  1633.15,1486.45 1633.15,47.2441 
  "/>
<polyline clip-path="url(#clip822)" style="stroke:#000000; stroke-linecap:butt; stroke-linejoin:round; stroke-width:2; stroke-opacity:0.1; fill:none" points="
  2352.76,1486.45 2352.76,47.2441 
  "/>
<polyline clip-path="url(#clip820)" style="stroke:#000000; stroke-linecap:butt; stroke-linejoin:round; stroke-width:4; stroke-opacity:1; fill:none" points="
  193.936,1486.45 2352.76,1486.45 
  "/>
<polyline clip-path="url(#clip820)" style="stroke:#000000; stroke-linecap:butt; stroke-linejoin:round; stroke-width:4; stroke-opacity:1; fill:none" points="
  193.936,1486.45 193.936,1467.55 
  "/>
<polyline clip-path="url(#clip820)" style="stroke:#000000; stroke-linecap:butt; stroke-linejoin:round; stroke-width:4; stroke-opacity:1; fill:none" points="
  913.543,1486.45 913.543,1467.55 
  "/>
<polyline clip-path="url(#clip820)" style="stroke:#000000; stroke-linecap:butt; stroke-linejoin:round; stroke-width:4; stroke-opacity:1; fill:none" points="
  1633.15,1486.45 1633.15,1467.55 
  "/>
<polyline clip-path="url(#clip820)" style="stroke:#000000; stroke-linecap:butt; stroke-linejoin:round; stroke-width:4; stroke-opacity:1; fill:none" points="
  2352.76,1486.45 2352.76,1467.55 
  "/>
<path clip-path="url(#clip820)" d="M163.693 1530.29 L193.369 1530.29 L193.369 1534.23 L163.693 1534.23 L163.693 1530.29 Z" fill="#000000" fill-rule="evenodd" fill-opacity="1" /><path clip-path="url(#clip820)" d="M204.272 1543.18 L211.91 1543.18 L211.91 1516.82 L203.6 1518.49 L203.6 1514.23 L211.864 1512.56 L216.54 1512.56 L216.54 1543.18 L224.179 1543.18 L224.179 1547.12 L204.272 1547.12 L204.272 1543.18 Z" fill="#000000" fill-rule="evenodd" fill-opacity="1" /><path clip-path="url(#clip820)" d="M913.543 1515.64 Q909.932 1515.64 908.103 1519.2 Q906.297 1522.75 906.297 1529.87 Q906.297 1536.98 908.103 1540.55 Q909.932 1544.09 913.543 1544.09 Q917.177 1544.09 918.982 1540.55 Q920.811 1536.98 920.811 1529.87 Q920.811 1522.75 918.982 1519.2 Q917.177 1515.64 913.543 1515.64 M913.543 1511.93 Q919.353 1511.93 922.408 1516.54 Q925.487 1521.12 925.487 1529.87 Q925.487 1538.6 922.408 1543.21 Q919.353 1547.79 913.543 1547.79 Q907.732 1547.79 904.654 1543.21 Q901.598 1538.6 901.598 1529.87 Q901.598 1521.12 904.654 1516.54 Q907.732 1511.93 913.543 1511.93 Z" fill="#000000" fill-rule="evenodd" fill-opacity="1" /><path clip-path="url(#clip820)" d="M1623.53 1543.18 L1631.17 1543.18 L1631.17 1516.82 L1622.86 1518.49 L1622.86 1514.23 L1631.12 1512.56 L1635.8 1512.56 L1635.8 1543.18 L1643.44 1543.18 L1643.44 1547.12 L1623.53 1547.12 L1623.53 1543.18 Z" fill="#000000" fill-rule="evenodd" fill-opacity="1" /><path clip-path="url(#clip820)" d="M2347.41 1543.18 L2363.73 1543.18 L2363.73 1547.12 L2341.78 1547.12 L2341.78 1543.18 Q2344.45 1540.43 2349.03 1535.8 Q2353.64 1531.15 2354.82 1529.81 Q2357.06 1527.28 2357.94 1525.55 Q2358.84 1523.79 2358.84 1522.1 Q2358.84 1519.34 2356.9 1517.61 Q2354.98 1515.87 2351.88 1515.87 Q2349.68 1515.87 2347.22 1516.63 Q2344.79 1517.4 2342.02 1518.95 L2342.02 1514.23 Q2344.84 1513.09 2347.29 1512.51 Q2349.75 1511.93 2351.78 1511.93 Q2357.15 1511.93 2360.35 1514.62 Q2363.54 1517.31 2363.54 1521.8 Q2363.54 1523.93 2362.73 1525.85 Q2361.95 1527.74 2359.84 1530.34 Q2359.26 1531.01 2356.16 1534.23 Q2353.06 1537.42 2347.41 1543.18 Z" fill="#000000" fill-rule="evenodd" fill-opacity="1" /><polyline clip-path="url(#clip822)" style="stroke:#000000; stroke-linecap:butt; stroke-linejoin:round; stroke-width:2; stroke-opacity:0.1; fill:none" points="
  193.936,1445.72 2352.76,1445.72 
  "/>
<polyline clip-path="url(#clip822)" style="stroke:#000000; stroke-linecap:butt; stroke-linejoin:round; stroke-width:2; stroke-opacity:0.1; fill:none" points="
  193.936,1145.32 2352.76,1145.32 
  "/>
<polyline clip-path="url(#clip822)" style="stroke:#000000; stroke-linecap:butt; stroke-linejoin:round; stroke-width:2; stroke-opacity:0.1; fill:none" points="
  193.936,844.925 2352.76,844.925 
  "/>
<polyline clip-path="url(#clip822)" style="stroke:#000000; stroke-linecap:butt; stroke-linejoin:round; stroke-width:2; stroke-opacity:0.1; fill:none" points="
  193.936,544.53 2352.76,544.53 
  "/>
<polyline clip-path="url(#clip822)" style="stroke:#000000; stroke-linecap:butt; stroke-linejoin:round; stroke-width:2; stroke-opacity:0.1; fill:none" points="
  193.936,244.134 2352.76,244.134 
  "/>
<polyline clip-path="url(#clip820)" style="stroke:#000000; stroke-linecap:butt; stroke-linejoin:round; stroke-width:4; stroke-opacity:1; fill:none" points="
  193.936,1486.45 193.936,47.2441 
  "/>
<polyline clip-path="url(#clip820)" style="stroke:#000000; stroke-linecap:butt; stroke-linejoin:round; stroke-width:4; stroke-opacity:1; fill:none" points="
  193.936,1445.72 212.834,1445.72 
  "/>
<polyline clip-path="url(#clip820)" style="stroke:#000000; stroke-linecap:butt; stroke-linejoin:round; stroke-width:4; stroke-opacity:1; fill:none" points="
  193.936,1145.32 212.834,1145.32 
  "/>
<polyline clip-path="url(#clip820)" style="stroke:#000000; stroke-linecap:butt; stroke-linejoin:round; stroke-width:4; stroke-opacity:1; fill:none" points="
  193.936,844.925 212.834,844.925 
  "/>
<polyline clip-path="url(#clip820)" style="stroke:#000000; stroke-linecap:butt; stroke-linejoin:round; stroke-width:4; stroke-opacity:1; fill:none" points="
  193.936,544.53 212.834,544.53 
  "/>
<polyline clip-path="url(#clip820)" style="stroke:#000000; stroke-linecap:butt; stroke-linejoin:round; stroke-width:4; stroke-opacity:1; fill:none" points="
  193.936,244.134 212.834,244.134 
  "/>
<path clip-path="url(#clip820)" d="M50.9921 1446.17 L80.6679 1446.17 L80.6679 1450.1 L50.9921 1450.1 L50.9921 1446.17 Z" fill="#000000" fill-rule="evenodd" fill-opacity="1" /><path clip-path="url(#clip820)" d="M91.5706 1459.06 L99.2095 1459.06 L99.2095 1432.69 L90.8993 1434.36 L90.8993 1430.1 L99.1632 1428.44 L103.839 1428.44 L103.839 1459.06 L111.478 1459.06 L111.478 1463 L91.5706 1463 L91.5706 1459.06 Z" fill="#000000" fill-rule="evenodd" fill-opacity="1" /><path clip-path="url(#clip820)" d="M120.922 1457.12 L125.807 1457.12 L125.807 1463 L120.922 1463 L120.922 1457.12 Z" fill="#000000" fill-rule="evenodd" fill-opacity="1" /><path clip-path="url(#clip820)" d="M145.992 1431.51 Q142.381 1431.51 140.552 1435.08 Q138.746 1438.62 138.746 1445.75 Q138.746 1452.86 140.552 1456.42 Q142.381 1459.96 145.992 1459.96 Q149.626 1459.96 151.431 1456.42 Q153.26 1452.86 153.26 1445.75 Q153.26 1438.62 151.431 1435.08 Q149.626 1431.51 145.992 1431.51 M145.992 1427.81 Q151.802 1427.81 154.857 1432.42 Q157.936 1437 157.936 1445.75 Q157.936 1454.48 154.857 1459.08 Q151.802 1463.67 145.992 1463.67 Q140.181 1463.67 137.103 1459.08 Q134.047 1454.48 134.047 1445.75 Q134.047 1437 137.103 1432.42 Q140.181 1427.81 145.992 1427.81 Z" fill="#000000" fill-rule="evenodd" fill-opacity="1" /><path clip-path="url(#clip820)" d="M51.9875 1145.77 L81.6633 1145.77 L81.6633 1149.71 L51.9875 1149.71 L51.9875 1145.77 Z" fill="#000000" fill-rule="evenodd" fill-opacity="1" /><path clip-path="url(#clip820)" d="M101.756 1131.12 Q98.1447 1131.12 96.316 1134.68 Q94.5104 1138.23 94.5104 1145.36 Q94.5104 1152.46 96.316 1156.03 Q98.1447 1159.57 101.756 1159.57 Q105.39 1159.57 107.196 1156.03 Q109.024 1152.46 109.024 1145.36 Q109.024 1138.23 107.196 1134.68 Q105.39 1131.12 101.756 1131.12 M101.756 1127.42 Q107.566 1127.42 110.621 1132.02 Q113.7 1136.61 113.7 1145.36 Q113.7 1154.08 110.621 1158.69 Q107.566 1163.27 101.756 1163.27 Q95.9456 1163.27 92.8669 1158.69 Q89.8114 1154.08 89.8114 1145.36 Q89.8114 1136.61 92.8669 1132.02 Q95.9456 1127.42 101.756 1127.42 Z" fill="#000000" fill-rule="evenodd" fill-opacity="1" /><path clip-path="url(#clip820)" d="M121.918 1156.72 L126.802 1156.72 L126.802 1162.6 L121.918 1162.6 L121.918 1156.72 Z" fill="#000000" fill-rule="evenodd" fill-opacity="1" /><path clip-path="url(#clip820)" d="M137.033 1128.04 L155.39 1128.04 L155.39 1131.98 L141.316 1131.98 L141.316 1140.45 Q142.334 1140.1 143.353 1139.94 Q144.371 1139.75 145.39 1139.75 Q151.177 1139.75 154.556 1142.92 Q157.936 1146.1 157.936 1151.51 Q157.936 1157.09 154.464 1160.19 Q150.992 1163.27 144.672 1163.27 Q142.496 1163.27 140.228 1162.9 Q137.982 1162.53 135.575 1161.79 L135.575 1157.09 Q137.658 1158.23 139.881 1158.78 Q142.103 1159.34 144.58 1159.34 Q148.584 1159.34 150.922 1157.23 Q153.26 1155.12 153.26 1151.51 Q153.26 1147.9 150.922 1145.79 Q148.584 1143.69 144.58 1143.69 Q142.705 1143.69 140.83 1144.11 Q138.978 1144.52 137.033 1145.4 L137.033 1128.04 Z" fill="#000000" fill-rule="evenodd" fill-opacity="1" /><path clip-path="url(#clip820)" d="M100.76 830.724 Q97.1493 830.724 95.3206 834.289 Q93.515 837.83 93.515 844.96 Q93.515 852.066 95.3206 855.631 Q97.1493 859.173 100.76 859.173 Q104.395 859.173 106.2 855.631 Q108.029 852.066 108.029 844.96 Q108.029 837.83 106.2 834.289 Q104.395 830.724 100.76 830.724 M100.76 827.02 Q106.571 827.02 109.626 831.627 Q112.705 836.21 112.705 844.96 Q112.705 853.687 109.626 858.293 Q106.571 862.876 100.76 862.876 Q94.9502 862.876 91.8715 858.293 Q88.816 853.687 88.816 844.96 Q88.816 836.21 91.8715 831.627 Q94.9502 827.02 100.76 827.02 Z" fill="#000000" fill-rule="evenodd" fill-opacity="1" /><path clip-path="url(#clip820)" d="M120.922 856.325 L125.807 856.325 L125.807 862.205 L120.922 862.205 L120.922 856.325 Z" fill="#000000" fill-rule="evenodd" fill-opacity="1" /><path clip-path="url(#clip820)" d="M145.992 830.724 Q142.381 830.724 140.552 834.289 Q138.746 837.83 138.746 844.96 Q138.746 852.066 140.552 855.631 Q142.381 859.173 145.992 859.173 Q149.626 859.173 151.431 855.631 Q153.26 852.066 153.26 844.96 Q153.26 837.83 151.431 834.289 Q149.626 830.724 145.992 830.724 M145.992 827.02 Q151.802 827.02 154.857 831.627 Q157.936 836.21 157.936 844.96 Q157.936 853.687 154.857 858.293 Q151.802 862.876 145.992 862.876 Q140.181 862.876 137.103 858.293 Q134.047 853.687 134.047 844.96 Q134.047 836.21 137.103 831.627 Q140.181 827.02 145.992 827.02 Z" fill="#000000" fill-rule="evenodd" fill-opacity="1" /><path clip-path="url(#clip820)" d="M101.756 530.328 Q98.1447 530.328 96.316 533.893 Q94.5104 537.435 94.5104 544.564 Q94.5104 551.671 96.316 555.236 Q98.1447 558.777 101.756 558.777 Q105.39 558.777 107.196 555.236 Q109.024 551.671 109.024 544.564 Q109.024 537.435 107.196 533.893 Q105.39 530.328 101.756 530.328 M101.756 526.625 Q107.566 526.625 110.621 531.231 Q113.7 535.815 113.7 544.564 Q113.7 553.291 110.621 557.898 Q107.566 562.481 101.756 562.481 Q95.9456 562.481 92.8669 557.898 Q89.8114 553.291 89.8114 544.564 Q89.8114 535.815 92.8669 531.231 Q95.9456 526.625 101.756 526.625 Z" fill="#000000" fill-rule="evenodd" fill-opacity="1" /><path clip-path="url(#clip820)" d="M121.918 555.93 L126.802 555.93 L126.802 561.81 L121.918 561.81 L121.918 555.93 Z" fill="#000000" fill-rule="evenodd" fill-opacity="1" /><path clip-path="url(#clip820)" d="M137.033 527.25 L155.39 527.25 L155.39 531.185 L141.316 531.185 L141.316 539.657 Q142.334 539.31 143.353 539.148 Q144.371 538.963 145.39 538.963 Q151.177 538.963 154.556 542.134 Q157.936 545.305 157.936 550.722 Q157.936 556.301 154.464 559.402 Q150.992 562.481 144.672 562.481 Q142.496 562.481 140.228 562.111 Q137.982 561.74 135.575 561 L135.575 556.301 Q137.658 557.435 139.881 557.99 Q142.103 558.546 144.58 558.546 Q148.584 558.546 150.922 556.439 Q153.26 554.333 153.26 550.722 Q153.26 547.111 150.922 545.004 Q148.584 542.898 144.58 542.898 Q142.705 542.898 140.83 543.314 Q138.978 543.731 137.033 544.611 L137.033 527.25 Z" fill="#000000" fill-rule="evenodd" fill-opacity="1" /><path clip-path="url(#clip820)" d="M91.5706 257.479 L99.2095 257.479 L99.2095 231.114 L90.8993 232.78 L90.8993 228.521 L99.1632 226.854 L103.839 226.854 L103.839 257.479 L111.478 257.479 L111.478 261.414 L91.5706 261.414 L91.5706 257.479 Z" fill="#000000" fill-rule="evenodd" fill-opacity="1" /><path clip-path="url(#clip820)" d="M120.922 255.535 L125.807 255.535 L125.807 261.414 L120.922 261.414 L120.922 255.535 Z" fill="#000000" fill-rule="evenodd" fill-opacity="1" /><path clip-path="url(#clip820)" d="M145.992 229.933 Q142.381 229.933 140.552 233.498 Q138.746 237.04 138.746 244.169 Q138.746 251.276 140.552 254.84 Q142.381 258.382 145.992 258.382 Q149.626 258.382 151.431 254.84 Q153.26 251.276 153.26 244.169 Q153.26 237.04 151.431 233.498 Q149.626 229.933 145.992 229.933 M145.992 226.229 Q151.802 226.229 154.857 230.836 Q157.936 235.419 157.936 244.169 Q157.936 252.896 154.857 257.502 Q151.802 262.086 145.992 262.086 Q140.181 262.086 137.103 257.502 Q134.047 252.896 134.047 244.169 Q134.047 235.419 137.103 230.836 Q140.181 226.229 145.992 226.229 Z" fill="#000000" fill-rule="evenodd" fill-opacity="1" /><polyline clip-path="url(#clip822)" style="stroke:#009af9; stroke-linecap:butt; stroke-linejoin:round; stroke-width:4; stroke-opacity:1; fill:none" points="
  193.936,1445.72 215.019,1439.79 409.958,1378.32 527.109,1333.26 626.158,1287.36 679.956,1257.82 733.753,1223.32 783.35,1184.72 832.946,1134.52 846.24,1117.64 
  859.533,1098.35 872.826,1075.57 886.119,1047.1 892.766,1029.24 899.413,1007.01 902.736,993.151 906.059,976.062 907.721,965.533 909.382,952.752 910.213,945.035 
  911.044,935.899 911.875,924.43 912.706,908.105 913.537,857.131 914.367,782.051 915.198,765.612 916.029,754.098 917.691,737.202 919.352,724.4 922.676,704.785 
  925.999,689.512 932.646,665.703 939.292,646.948 954.694,613.46 970.095,587.584 985.497,566.071 1000.9,547.447 1031.7,515.937 1062.5,489.526 1117.25,450.442 
  1172,417.866 1220.01,392.91 1268.02,370.442 1372.7,327.699 1478.01,290.846 1594.44,255.105 1705.23,224.711 1820.41,195.982 1917.38,173.632 2035.76,148.218 
  2147.04,125.911 2325.32,92.8173 2352.76,87.9763 
  "/>
<circle clip-path="url(#clip822)" cx="985.503" cy="566.063" r="14" fill="#e26f46" fill-rule="evenodd" fill-opacity="1" stroke="#000000" stroke-opacity="1" stroke-width="3.2"/>
<circle clip-path="url(#clip822)" cx="769.621" cy="1196.27" r="14" fill="#e26f46" fill-rule="evenodd" fill-opacity="1" stroke="#000000" stroke-opacity="1" stroke-width="3.2"/>
<circle clip-path="url(#clip822)" cx="1201.39" cy="402.259" r="14" fill="#e26f46" fill-rule="evenodd" fill-opacity="1" stroke="#000000" stroke-opacity="1" stroke-width="3.2"/>
<circle clip-path="url(#clip822)" cx="337.857" cy="1402.65" r="14" fill="#e26f46" fill-rule="evenodd" fill-opacity="1" stroke="#000000" stroke-opacity="1" stroke-width="3.2"/>
<circle clip-path="url(#clip822)" cx="2064.91" cy="142.236" r="14" fill="#e26f46" fill-rule="evenodd" fill-opacity="1" stroke="#000000" stroke-opacity="1" stroke-width="3.2"/>
<polyline clip-path="url(#clip822)" style="stroke:#ff0000; stroke-linecap:butt; stroke-linejoin:round; stroke-width:4; stroke-opacity:1; fill:none" points="
  985.503,566.063 769.621,1196.27 
  "/>
<polyline clip-path="url(#clip822)" style="stroke:#ff0000; stroke-linecap:butt; stroke-linejoin:round; stroke-width:4; stroke-opacity:1; fill:none" points="
  798.316,1168.05 769.621,1196.27 764.259,1156.38 
  "/>
<polyline clip-path="url(#clip822)" style="stroke:#ff0000; stroke-linecap:butt; stroke-linejoin:round; stroke-width:4; stroke-opacity:1; fill:none" points="
  769.621,1196.27 985.503,566.063 
  "/>
<polyline clip-path="url(#clip822)" style="stroke:#ff0000; stroke-linecap:butt; stroke-linejoin:round; stroke-width:4; stroke-opacity:1; fill:none" points="
  769.621,1196.27 1201.39,402.259 
  "/>
<polyline clip-path="url(#clip822)" style="stroke:#ff0000; stroke-linecap:butt; stroke-linejoin:round; stroke-width:4; stroke-opacity:1; fill:none" points="
  1168.37,425.286 1201.39,402.259 1200,442.484 
  "/>
<polyline clip-path="url(#clip822)" style="stroke:#ff0000; stroke-linecap:butt; stroke-linejoin:round; stroke-width:4; stroke-opacity:1; fill:none" points="
  1201.39,402.259 769.621,1196.27 
  "/>
<polyline clip-path="url(#clip822)" style="stroke:#ff0000; stroke-linecap:butt; stroke-linejoin:round; stroke-width:4; stroke-opacity:1; fill:none" points="
  1201.39,402.259 337.857,1402.65 
  "/>
<polyline clip-path="url(#clip822)" style="stroke:#ff0000; stroke-linecap:butt; stroke-linejoin:round; stroke-width:4; stroke-opacity:1; fill:none" points="
  375.006,1387.16 337.857,1402.65 347.755,1363.64 
  "/>
<polyline clip-path="url(#clip822)" style="stroke:#ff0000; stroke-linecap:butt; stroke-linejoin:round; stroke-width:4; stroke-opacity:1; fill:none" points="
  337.857,1402.65 1201.39,402.259 
  "/>
<polyline clip-path="url(#clip822)" style="stroke:#ff0000; stroke-linecap:butt; stroke-linejoin:round; stroke-width:4; stroke-opacity:1; fill:none" points="
  337.857,1402.65 2064.91,142.236 
  "/>
<polyline clip-path="url(#clip822)" style="stroke:#ff0000; stroke-linecap:butt; stroke-linejoin:round; stroke-width:4; stroke-opacity:1; fill:none" points="
  2025.22,148.919 2064.91,142.236 2046.44,177.998 
  "/>
<polyline clip-path="url(#clip822)" style="stroke:#ff0000; stroke-linecap:butt; stroke-linejoin:round; stroke-width:4; stroke-opacity:1; fill:none" points="
  2064.91,142.236 337.857,1402.65 
  "/>
<path clip-path="url(#clip820)" d="
M265.897 250.738 L790.556 250.738 L790.556 95.2176 L265.897 95.2176  Z
  " fill="#ffffff" fill-rule="evenodd" fill-opacity="1"/>
<polyline clip-path="url(#clip820)" style="stroke:#000000; stroke-linecap:butt; stroke-linejoin:round; stroke-width:4; stroke-opacity:1; fill:none" points="
  265.897,250.738 790.556,250.738 790.556,95.2176 265.897,95.2176 265.897,250.738 
  "/>
<polyline clip-path="url(#clip820)" style="stroke:#009af9; stroke-linecap:butt; stroke-linejoin:round; stroke-width:4; stroke-opacity:1; fill:none" points="
  289.884,147.058 433.805,147.058 
  "/>
<path clip-path="url(#clip820)" d="M457.792 138.412 L462.028 138.412 L462.028 150.588 L474.042 138.412 L479.273 138.412 L469.366 148.435 L480.546 164.338 L475.778 164.338 L466.588 151.259 L462.028 155.889 L462.028 164.338 L457.792 164.338 L457.792 138.412 Z" fill="#000000" fill-rule="evenodd" fill-opacity="1" /><path clip-path="url(#clip820)" d="M497.375 166.745 Q495.569 171.375 493.856 172.787 Q492.143 174.199 489.273 174.199 L485.87 174.199 L485.87 170.634 L488.37 170.634 Q490.13 170.634 491.102 169.8 Q492.074 168.967 493.255 165.865 L494.018 163.921 L483.532 138.412 L488.046 138.412 L496.148 158.689 L504.25 138.412 L508.764 138.412 L497.375 166.745 Z" fill="#000000" fill-rule="evenodd" fill-opacity="1" /><path clip-path="url(#clip820)" d="M524.921 137.787 Q530.477 137.787 533.648 141.398 Q536.819 145.009 536.819 151.398 Q536.819 157.764 533.648 161.398 Q530.477 165.009 524.921 165.009 Q519.342 165.009 516.264 161.49 Q513.185 157.972 513.023 151.398 L512.884 146.097 Q512.768 143.342 512.768 142.393 Q512.768 138.69 514.111 135.958 Q516.217 131.676 519.852 129.824 Q523.509 127.972 529.62 127.926 Q532.444 127.903 533.694 127.509 L534.875 130.889 Q533.74 131.352 532.699 131.375 L526.912 131.768 Q523.995 131.977 522.236 132.995 Q517.629 135.703 517.19 139.245 L517.028 140.541 Q520.037 137.787 524.921 137.787 M524.921 141.398 Q521.495 141.398 519.504 144.083 Q517.514 146.745 517.514 151.398 Q517.514 156.051 519.481 158.736 Q521.472 161.398 524.921 161.398 Q528.324 161.398 530.315 158.713 Q532.305 156.027 532.305 151.398 Q532.305 146.791 530.315 144.106 Q528.324 141.398 524.921 141.398 Z" fill="#000000" fill-rule="evenodd" fill-opacity="1" /><path clip-path="url(#clip820)" d="M544.481 158.458 L549.365 158.458 L549.365 164.338 L544.481 164.338 L544.481 158.458 Z" fill="#000000" fill-rule="evenodd" fill-opacity="1" /><path clip-path="url(#clip820)" d="M573.856 138.412 L578.092 138.412 L578.092 150.588 L590.106 138.412 L595.337 138.412 L585.43 148.435 L596.61 164.338 L591.842 164.338 L582.652 151.259 L578.092 155.889 L578.092 164.338 L573.856 164.338 L573.856 138.412 Z" fill="#000000" fill-rule="evenodd" fill-opacity="1" /><path clip-path="url(#clip820)" d="M612.698 141.398 Q609.272 141.398 607.282 144.083 Q605.291 146.745 605.291 151.398 Q605.291 156.051 607.259 158.736 Q609.249 161.398 612.698 161.398 Q616.101 161.398 618.092 158.713 Q620.083 156.027 620.083 151.398 Q620.083 146.791 618.092 144.106 Q616.101 141.398 612.698 141.398 M612.698 137.787 Q618.254 137.787 621.425 141.398 Q624.596 145.009 624.596 151.398 Q624.596 157.764 621.425 161.398 Q618.254 165.009 612.698 165.009 Q607.12 165.009 603.948 161.398 Q600.8 157.764 600.8 151.398 Q600.8 145.009 603.948 141.398 Q607.12 137.787 612.698 137.787 Z" fill="#000000" fill-rule="evenodd" fill-opacity="1" /><path clip-path="url(#clip820)" d="M635.777 160.449 L635.777 174.199 L631.495 174.199 L631.495 138.412 L635.777 138.412 L635.777 142.347 Q637.12 140.032 639.157 138.921 Q641.217 137.787 644.064 137.787 Q648.786 137.787 651.726 141.537 Q654.689 145.287 654.689 151.398 Q654.689 157.509 651.726 161.259 Q648.786 165.009 644.064 165.009 Q641.217 165.009 639.157 163.898 Q637.12 162.763 635.777 160.449 M650.268 151.398 Q650.268 146.699 648.323 144.037 Q646.402 141.352 643.022 141.352 Q639.643 141.352 637.698 144.037 Q635.777 146.699 635.777 151.398 Q635.777 156.097 637.698 158.782 Q639.643 161.444 643.022 161.444 Q646.402 161.444 648.323 158.782 Q650.268 156.097 650.268 151.398 Z" fill="#000000" fill-rule="evenodd" fill-opacity="1" /><path clip-path="url(#clip820)" d="M683.925 150.31 L683.925 152.393 L664.342 152.393 Q664.619 156.791 666.98 159.106 Q669.365 161.398 673.601 161.398 Q676.054 161.398 678.346 160.796 Q680.661 160.194 682.929 158.99 L682.929 163.018 Q680.638 163.99 678.23 164.5 Q675.823 165.009 673.346 165.009 Q667.142 165.009 663.508 161.398 Q659.897 157.787 659.897 151.629 Q659.897 145.264 663.323 141.537 Q666.772 137.787 672.605 137.787 Q677.837 137.787 680.869 141.166 Q683.925 144.523 683.925 150.31 M679.666 149.06 Q679.619 145.565 677.698 143.481 Q675.8 141.398 672.652 141.398 Q669.087 141.398 666.934 143.412 Q664.805 145.426 664.48 149.083 L679.666 149.06 Z" fill="#000000" fill-rule="evenodd" fill-opacity="1" /><path clip-path="url(#clip820)" d="M690.753 138.412 L695.036 138.412 L695.036 148.99 L708.855 148.99 L708.855 138.412 L713.138 138.412 L713.138 164.338 L708.855 164.338 L708.855 152.393 L695.036 152.393 L695.036 164.338 L690.753 164.338 L690.753 138.412 Z" fill="#000000" fill-rule="evenodd" fill-opacity="1" /><path clip-path="url(#clip820)" d="M738.045 156.652 Q738.045 154.569 736.517 153.481 Q735.013 152.393 732.096 152.393 L726.031 152.393 L726.031 160.935 L732.096 160.935 Q735.013 160.935 736.517 159.847 Q738.045 158.736 738.045 156.652 M721.749 138.412 L726.031 138.412 L726.031 148.99 L732.281 148.99 Q737.235 148.99 739.897 150.889 Q742.582 152.764 742.582 156.652 Q742.582 160.541 739.897 162.439 Q737.235 164.338 732.281 164.338 L721.749 164.338 L721.749 138.412 Z" fill="#000000" fill-rule="evenodd" fill-opacity="1" /><circle clip-path="url(#clip820)" cx="361.844" cy="198.898" r="23" fill="#e26f46" fill-rule="evenodd" fill-opacity="1" stroke="#000000" stroke-opacity="1" stroke-width="5.12"/>
<path clip-path="url(#clip820)" d="M479.991 190.252 L479.991 216.178 L475.755 216.178 L475.755 195.367 L463.255 216.178 L457.792 216.178 L457.792 190.252 L462.028 190.252 L462.028 211.016 L474.505 190.252 L479.991 190.252 Z" fill="#000000" fill-rule="evenodd" fill-opacity="1" /><path clip-path="url(#clip820)" d="M485.685 190.252 L510.523 190.252 L510.523 193.655 L500.199 193.655 L500.199 216.178 L496.009 216.178 L496.009 193.655 L485.685 193.655 L485.685 190.252 Z" fill="#000000" fill-rule="evenodd" fill-opacity="1" /><path clip-path="url(#clip820)" d="M538.555 202.15 L538.555 204.233 L518.972 204.233 Q519.25 208.631 521.611 210.946 Q523.995 213.238 528.231 213.238 Q530.685 213.238 532.977 212.636 Q535.291 212.034 537.56 210.83 L537.56 214.858 Q535.268 215.83 532.861 216.34 Q530.453 216.849 527.977 216.849 Q521.773 216.849 518.139 213.238 Q514.528 209.627 514.528 203.469 Q514.528 197.104 517.953 193.377 Q521.403 189.627 527.236 189.627 Q532.467 189.627 535.5 193.006 Q538.555 196.363 538.555 202.15 M534.296 200.9 Q534.25 197.405 532.328 195.321 Q530.43 193.238 527.282 193.238 Q523.717 193.238 521.565 195.252 Q519.435 197.266 519.111 200.923 L534.296 200.9 Z" fill="#000000" fill-rule="evenodd" fill-opacity="1" /><path clip-path="url(#clip820)" d="M549.666 212.289 L549.666 226.039 L545.384 226.039 L545.384 190.252 L549.666 190.252 L549.666 194.187 Q551.009 191.872 553.046 190.761 Q555.106 189.627 557.953 189.627 Q562.675 189.627 565.615 193.377 Q568.578 197.127 568.578 203.238 Q568.578 209.349 565.615 213.099 Q562.675 216.849 557.953 216.849 Q555.106 216.849 553.046 215.738 Q551.009 214.603 549.666 212.289 M564.157 203.238 Q564.157 198.539 562.213 195.877 Q560.291 193.192 556.912 193.192 Q553.532 193.192 551.588 195.877 Q549.666 198.539 549.666 203.238 Q549.666 207.937 551.588 210.622 Q553.532 213.284 556.912 213.284 Q560.291 213.284 562.213 210.622 Q564.157 207.937 564.157 203.238 Z" fill="#000000" fill-rule="evenodd" fill-opacity="1" /><path clip-path="url(#clip820)" d="M587.421 203.145 Q582.259 203.145 580.268 204.326 Q578.277 205.506 578.277 208.354 Q578.277 210.622 579.759 211.965 Q581.263 213.284 583.833 213.284 Q587.374 213.284 589.504 210.784 Q591.657 208.261 591.657 204.094 L591.657 203.145 L587.421 203.145 M595.916 201.386 L595.916 216.178 L591.657 216.178 L591.657 212.242 Q590.198 214.603 588.023 215.738 Q585.847 216.849 582.699 216.849 Q578.717 216.849 576.356 214.627 Q574.018 212.381 574.018 208.631 Q574.018 204.256 576.935 202.034 Q579.874 199.812 585.685 199.812 L591.657 199.812 L591.657 199.395 Q591.657 196.455 589.712 194.858 Q587.791 193.238 584.296 193.238 Q582.074 193.238 579.967 193.77 Q577.861 194.303 575.916 195.367 L575.916 191.432 Q578.254 190.53 580.453 190.09 Q582.652 189.627 584.736 189.627 Q590.36 189.627 593.138 192.543 Q595.916 195.46 595.916 201.386 Z" fill="#000000" fill-rule="evenodd" fill-opacity="1" /><path clip-path="url(#clip820)" d="M626.911 216.178 L604.527 216.178 L604.527 190.252 L608.809 190.252 L608.809 212.775 L622.629 212.775 L622.629 190.252 L626.911 190.252 L626.911 212.775 L630.314 212.775 L630.314 222.728 L626.911 222.728 L626.911 216.178 Z" fill="#000000" fill-rule="evenodd" fill-opacity="1" /><path clip-path="url(#clip820)" d="M658.994 190.252 L658.994 216.178 L654.758 216.178 L654.758 195.367 L642.258 216.178 L636.795 216.178 L636.795 190.252 L641.032 190.252 L641.032 211.016 L653.508 190.252 L658.994 190.252 Z" fill="#000000" fill-rule="evenodd" fill-opacity="1" /><path clip-path="url(#clip820)" d="M689.804 190.252 L689.804 216.178 L685.568 216.178 L685.568 195.367 L673.068 216.178 L667.605 216.178 L667.605 190.252 L671.842 190.252 L671.842 211.016 L684.318 190.252 L689.804 190.252 Z" fill="#000000" fill-rule="evenodd" fill-opacity="1" /></svg>
