<?xml version="1.0" encoding="utf-8"?>
<svg xmlns="http://www.w3.org/2000/svg" xmlns:xlink="http://www.w3.org/1999/xlink" width="600" height="400" viewBox="0 0 2400 1600">
<defs>
  <clipPath id="clip030">
    <rect x="0" y="0" width="2400" height="1600"/>
  </clipPath>
</defs>
<path clip-path="url(#clip030)" d="
M0 1600 L2400 1600 L2400 0 L0 0  Z
  " fill="#ffffff" fill-rule="evenodd" fill-opacity="1"/>
<defs>
  <clipPath id="clip031">
    <rect x="480" y="0" width="1681" height="1600"/>
  </clipPath>
</defs>
<defs>
  <clipPath id="clip032">
    <rect x="193" y="47" width="2160" height="1440"/>
  </clipPath>
</defs>
<path clip-path="url(#clip030)" d="
M194.422 1486.45 L2352.76 1486.45 L2352.76 47.2441 L194.422 47.2441  Z
  " fill="#ffffff" fill-rule="evenodd" fill-opacity="1"/>
<defs>
  <clipPath id="clip033">
    <rect x="194" y="47" width="2159" height="1440"/>
  </clipPath>
</defs>
<polyline clip-path="url(#clip033)" style="stroke:#000000; stroke-linecap:butt; stroke-linejoin:round; stroke-width:2; stroke-opacity:0.1; fill:none" points="
  194.422,1486.45 194.422,47.2441 
  "/>
<polyline clip-path="url(#clip033)" style="stroke:#000000; stroke-linecap:butt; stroke-linejoin:round; stroke-width:2; stroke-opacity:0.1; fill:none" points="
  734.006,1486.45 734.006,47.2441 
  "/>
<polyline clip-path="url(#clip033)" style="stroke:#000000; stroke-linecap:butt; stroke-linejoin:round; stroke-width:2; stroke-opacity:0.1; fill:none" points="
  1273.59,1486.45 1273.59,47.2441 
  "/>
<polyline clip-path="url(#clip033)" style="stroke:#000000; stroke-linecap:butt; stroke-linejoin:round; stroke-width:2; stroke-opacity:0.1; fill:none" points="
  1813.17,1486.45 1813.17,47.2441 
  "/>
<polyline clip-path="url(#clip033)" style="stroke:#000000; stroke-linecap:butt; stroke-linejoin:round; stroke-width:2; stroke-opacity:0.1; fill:none" points="
  2352.76,1486.45 2352.76,47.2441 
  "/>
<polyline clip-path="url(#clip030)" style="stroke:#000000; stroke-linecap:butt; stroke-linejoin:round; stroke-width:4; stroke-opacity:1; fill:none" points="
  194.422,1486.45 2352.76,1486.45 
  "/>
<polyline clip-path="url(#clip030)" style="stroke:#000000; stroke-linecap:butt; stroke-linejoin:round; stroke-width:4; stroke-opacity:1; fill:none" points="
  194.422,1486.45 194.422,1467.55 
  "/>
<polyline clip-path="url(#clip030)" style="stroke:#000000; stroke-linecap:butt; stroke-linejoin:round; stroke-width:4; stroke-opacity:1; fill:none" points="
  734.006,1486.45 734.006,1467.55 
  "/>
<polyline clip-path="url(#clip030)" style="stroke:#000000; stroke-linecap:butt; stroke-linejoin:round; stroke-width:4; stroke-opacity:1; fill:none" points="
  1273.59,1486.45 1273.59,1467.55 
  "/>
<polyline clip-path="url(#clip030)" style="stroke:#000000; stroke-linecap:butt; stroke-linejoin:round; stroke-width:4; stroke-opacity:1; fill:none" points="
  1813.17,1486.45 1813.17,1467.55 
  "/>
<polyline clip-path="url(#clip030)" style="stroke:#000000; stroke-linecap:butt; stroke-linejoin:round; stroke-width:4; stroke-opacity:1; fill:none" points="
  2352.76,1486.45 2352.76,1467.55 
  "/>
<path clip-path="url(#clip030)" d="M171.725 1515.64 Q168.114 1515.64 166.286 1519.2 Q164.48 1522.75 164.48 1529.87 Q164.48 1536.98 166.286 1540.55 Q168.114 1544.09 171.725 1544.09 Q175.36 1544.09 177.165 1540.55 Q178.994 1536.98 178.994 1529.87 Q178.994 1522.75 177.165 1519.2 Q175.36 1515.64 171.725 1515.64 M171.725 1511.93 Q177.536 1511.93 180.591 1516.54 Q183.67 1521.12 183.67 1529.87 Q183.67 1538.6 180.591 1543.21 Q177.536 1547.79 171.725 1547.79 Q165.915 1547.79 162.837 1543.21 Q159.781 1538.6 159.781 1529.87 Q159.781 1521.12 162.837 1516.54 Q165.915 1511.93 171.725 1511.93 Z" fill="#000000" fill-rule="evenodd" fill-opacity="1" /><path clip-path="url(#clip030)" d="M191.887 1541.24 L196.772 1541.24 L196.772 1547.12 L191.887 1547.12 L191.887 1541.24 Z" fill="#000000" fill-rule="evenodd" fill-opacity="1" /><path clip-path="url(#clip030)" d="M217.535 1527.98 Q214.387 1527.98 212.535 1530.13 Q210.707 1532.28 210.707 1536.03 Q210.707 1539.76 212.535 1541.93 Q214.387 1544.09 217.535 1544.09 Q220.684 1544.09 222.512 1541.93 Q224.364 1539.76 224.364 1536.03 Q224.364 1532.28 222.512 1530.13 Q220.684 1527.98 217.535 1527.98 M226.818 1513.32 L226.818 1517.58 Q225.059 1516.75 223.253 1516.31 Q221.471 1515.87 219.711 1515.87 Q215.082 1515.87 212.628 1519 Q210.197 1522.12 209.85 1528.44 Q211.216 1526.43 213.276 1525.36 Q215.336 1524.27 217.813 1524.27 Q223.021 1524.27 226.031 1527.44 Q229.063 1530.59 229.063 1536.03 Q229.063 1541.36 225.915 1544.57 Q222.767 1547.79 217.535 1547.79 Q211.54 1547.79 208.369 1543.21 Q205.198 1538.6 205.198 1529.87 Q205.198 1521.68 209.086 1516.82 Q212.975 1511.93 219.526 1511.93 Q221.285 1511.93 223.068 1512.28 Q224.873 1512.63 226.818 1513.32 Z" fill="#000000" fill-rule="evenodd" fill-opacity="1" /><path clip-path="url(#clip030)" d="M711.841 1515.64 Q708.23 1515.64 706.402 1519.2 Q704.596 1522.75 704.596 1529.87 Q704.596 1536.98 706.402 1540.55 Q708.23 1544.09 711.841 1544.09 Q715.476 1544.09 717.281 1540.55 Q719.11 1536.98 719.11 1529.87 Q719.11 1522.75 717.281 1519.2 Q715.476 1515.64 711.841 1515.64 M711.841 1511.93 Q717.651 1511.93 720.707 1516.54 Q723.786 1521.12 723.786 1529.87 Q723.786 1538.6 720.707 1543.21 Q717.651 1547.79 711.841 1547.79 Q706.031 1547.79 702.952 1543.21 Q699.897 1538.6 699.897 1529.87 Q699.897 1521.12 702.952 1516.54 Q706.031 1511.93 711.841 1511.93 Z" fill="#000000" fill-rule="evenodd" fill-opacity="1" /><path clip-path="url(#clip030)" d="M732.003 1541.24 L736.887 1541.24 L736.887 1547.12 L732.003 1547.12 L732.003 1541.24 Z" fill="#000000" fill-rule="evenodd" fill-opacity="1" /><path clip-path="url(#clip030)" d="M745.892 1512.56 L768.114 1512.56 L768.114 1514.55 L755.568 1547.12 L750.684 1547.12 L762.489 1516.5 L745.892 1516.5 L745.892 1512.56 Z" fill="#000000" fill-rule="evenodd" fill-opacity="1" /><path clip-path="url(#clip030)" d="M1251.02 1515.64 Q1247.41 1515.64 1245.58 1519.2 Q1243.77 1522.75 1243.77 1529.87 Q1243.77 1536.98 1245.58 1540.55 Q1247.41 1544.09 1251.02 1544.09 Q1254.65 1544.09 1256.46 1540.55 Q1258.29 1536.98 1258.29 1529.87 Q1258.29 1522.75 1256.46 1519.2 Q1254.65 1515.64 1251.02 1515.64 M1251.02 1511.93 Q1256.83 1511.93 1259.89 1516.54 Q1262.96 1521.12 1262.96 1529.87 Q1262.96 1538.6 1259.89 1543.21 Q1256.83 1547.79 1251.02 1547.79 Q1245.21 1547.79 1242.13 1543.21 Q1239.08 1538.6 1239.08 1529.87 Q1239.08 1521.12 1242.13 1516.54 Q1245.21 1511.93 1251.02 1511.93 Z" fill="#000000" fill-rule="evenodd" fill-opacity="1" /><path clip-path="url(#clip030)" d="M1271.18 1541.24 L1276.07 1541.24 L1276.07 1547.12 L1271.18 1547.12 L1271.18 1541.24 Z" fill="#000000" fill-rule="evenodd" fill-opacity="1" /><path clip-path="url(#clip030)" d="M1296.25 1530.71 Q1292.92 1530.71 1291 1532.49 Q1289.1 1534.27 1289.1 1537.4 Q1289.1 1540.52 1291 1542.31 Q1292.92 1544.09 1296.25 1544.09 Q1299.58 1544.09 1301.51 1542.31 Q1303.43 1540.5 1303.43 1537.4 Q1303.43 1534.27 1301.51 1532.49 Q1299.61 1530.71 1296.25 1530.71 M1291.58 1528.72 Q1288.57 1527.98 1286.88 1525.92 Q1285.21 1523.86 1285.21 1520.89 Q1285.21 1516.75 1288.15 1514.34 Q1291.11 1511.93 1296.25 1511.93 Q1301.41 1511.93 1304.35 1514.34 Q1307.29 1516.75 1307.29 1520.89 Q1307.29 1523.86 1305.6 1525.92 Q1303.94 1527.98 1300.95 1528.72 Q1304.33 1529.5 1306.2 1531.8 Q1308.1 1534.09 1308.1 1537.4 Q1308.1 1542.42 1305.02 1545.11 Q1301.97 1547.79 1296.25 1547.79 Q1290.53 1547.79 1287.45 1545.11 Q1284.4 1542.42 1284.4 1537.4 Q1284.4 1534.09 1286.3 1531.8 Q1288.2 1529.5 1291.58 1528.72 M1289.86 1521.33 Q1289.86 1524.02 1291.53 1525.52 Q1293.22 1527.03 1296.25 1527.03 Q1299.26 1527.03 1300.95 1525.52 Q1302.66 1524.02 1302.66 1521.33 Q1302.66 1518.65 1300.95 1517.14 Q1299.26 1515.64 1296.25 1515.64 Q1293.22 1515.64 1291.53 1517.14 Q1289.86 1518.65 1289.86 1521.33 Z" fill="#000000" fill-rule="evenodd" fill-opacity="1" /><path clip-path="url(#clip030)" d="M1790.65 1515.64 Q1787.04 1515.64 1785.21 1519.2 Q1783.4 1522.75 1783.4 1529.87 Q1783.4 1536.98 1785.21 1540.55 Q1787.04 1544.09 1790.65 1544.09 Q1794.28 1544.09 1796.09 1540.55 Q1797.92 1536.98 1797.92 1529.87 Q1797.92 1522.75 1796.09 1519.2 Q1794.28 1515.64 1790.65 1515.64 M1790.65 1511.93 Q1796.46 1511.93 1799.52 1516.54 Q1802.59 1521.12 1802.59 1529.87 Q1802.59 1538.6 1799.52 1543.21 Q1796.46 1547.79 1790.65 1547.79 Q1784.84 1547.79 1781.76 1543.21 Q1778.71 1538.6 1778.71 1529.87 Q1778.71 1521.12 1781.76 1516.54 Q1784.84 1511.93 1790.65 1511.93 Z" fill="#000000" fill-rule="evenodd" fill-opacity="1" /><path clip-path="url(#clip030)" d="M1810.81 1541.24 L1815.7 1541.24 L1815.7 1547.12 L1810.81 1547.12 L1810.81 1541.24 Z" fill="#000000" fill-rule="evenodd" fill-opacity="1" /><path clip-path="url(#clip030)" d="M1826.02 1546.4 L1826.02 1542.14 Q1827.78 1542.98 1829.58 1543.42 Q1831.39 1543.86 1833.13 1543.86 Q1837.76 1543.86 1840.19 1540.75 Q1842.64 1537.63 1842.99 1531.29 Q1841.64 1533.28 1839.58 1534.34 Q1837.52 1535.41 1835.02 1535.41 Q1829.84 1535.41 1826.81 1532.28 Q1823.8 1529.13 1823.8 1523.69 Q1823.8 1518.37 1826.95 1515.15 Q1830.09 1511.93 1835.33 1511.93 Q1841.32 1511.93 1844.47 1516.54 Q1847.64 1521.12 1847.64 1529.87 Q1847.64 1538.05 1843.75 1542.93 Q1839.89 1547.79 1833.33 1547.79 Q1831.58 1547.79 1829.77 1547.44 Q1827.96 1547.1 1826.02 1546.4 M1835.33 1531.75 Q1838.47 1531.75 1840.3 1529.6 Q1842.15 1527.44 1842.15 1523.69 Q1842.15 1519.97 1840.3 1517.81 Q1838.47 1515.64 1835.33 1515.64 Q1832.18 1515.64 1830.33 1517.81 Q1828.5 1519.97 1828.5 1523.69 Q1828.5 1527.44 1830.33 1529.6 Q1832.18 1531.75 1835.33 1531.75 Z" fill="#000000" fill-rule="evenodd" fill-opacity="1" /><path clip-path="url(#clip030)" d="M2319.91 1543.18 L2327.55 1543.18 L2327.55 1516.82 L2319.24 1518.49 L2319.24 1514.23 L2327.5 1512.56 L2332.18 1512.56 L2332.18 1543.18 L2339.82 1543.18 L2339.82 1547.12 L2319.91 1547.12 L2319.91 1543.18 Z" fill="#000000" fill-rule="evenodd" fill-opacity="1" /><path clip-path="url(#clip030)" d="M2349.26 1541.24 L2354.14 1541.24 L2354.14 1547.12 L2349.26 1547.12 L2349.26 1541.24 Z" fill="#000000" fill-rule="evenodd" fill-opacity="1" /><path clip-path="url(#clip030)" d="M2374.33 1515.64 Q2370.72 1515.64 2368.89 1519.2 Q2367.08 1522.75 2367.08 1529.87 Q2367.08 1536.98 2368.89 1540.55 Q2370.72 1544.09 2374.33 1544.09 Q2377.96 1544.09 2379.77 1540.55 Q2381.6 1536.98 2381.6 1529.87 Q2381.6 1522.75 2379.77 1519.2 Q2377.96 1515.64 2374.33 1515.64 M2374.33 1511.93 Q2380.14 1511.93 2383.2 1516.54 Q2386.27 1521.12 2386.27 1529.87 Q2386.27 1538.6 2383.2 1543.21 Q2380.14 1547.79 2374.33 1547.79 Q2368.52 1547.79 2365.44 1543.21 Q2362.39 1538.6 2362.39 1529.87 Q2362.39 1521.12 2365.44 1516.54 Q2368.52 1511.93 2374.33 1511.93 Z" fill="#000000" fill-rule="evenodd" fill-opacity="1" /><polyline clip-path="url(#clip033)" style="stroke:#000000; stroke-linecap:butt; stroke-linejoin:round; stroke-width:2; stroke-opacity:0.1; fill:none" points="
  194.422,1356.54 2352.76,1356.54 
  "/>
<polyline clip-path="url(#clip033)" style="stroke:#000000; stroke-linecap:butt; stroke-linejoin:round; stroke-width:2; stroke-opacity:0.1; fill:none" points="
  194.422,1189.44 2352.76,1189.44 
  "/>
<polyline clip-path="url(#clip033)" style="stroke:#000000; stroke-linecap:butt; stroke-linejoin:round; stroke-width:2; stroke-opacity:0.1; fill:none" points="
  194.422,1022.33 2352.76,1022.33 
  "/>
<polyline clip-path="url(#clip033)" style="stroke:#000000; stroke-linecap:butt; stroke-linejoin:round; stroke-width:2; stroke-opacity:0.1; fill:none" points="
  194.422,855.225 2352.76,855.225 
  "/>
<polyline clip-path="url(#clip033)" style="stroke:#000000; stroke-linecap:butt; stroke-linejoin:round; stroke-width:2; stroke-opacity:0.1; fill:none" points="
  194.422,688.12 2352.76,688.12 
  "/>
<polyline clip-path="url(#clip033)" style="stroke:#000000; stroke-linecap:butt; stroke-linejoin:round; stroke-width:2; stroke-opacity:0.1; fill:none" points="
  194.422,521.014 2352.76,521.014 
  "/>
<polyline clip-path="url(#clip033)" style="stroke:#000000; stroke-linecap:butt; stroke-linejoin:round; stroke-width:2; stroke-opacity:0.1; fill:none" points="
  194.422,353.909 2352.76,353.909 
  "/>
<polyline clip-path="url(#clip033)" style="stroke:#000000; stroke-linecap:butt; stroke-linejoin:round; stroke-width:2; stroke-opacity:0.1; fill:none" points="
  194.422,186.804 2352.76,186.804 
  "/>
<polyline clip-path="url(#clip030)" style="stroke:#000000; stroke-linecap:butt; stroke-linejoin:round; stroke-width:4; stroke-opacity:1; fill:none" points="
  194.422,1486.45 194.422,47.2441 
  "/>
<polyline clip-path="url(#clip030)" style="stroke:#000000; stroke-linecap:butt; stroke-linejoin:round; stroke-width:4; stroke-opacity:1; fill:none" points="
  194.422,1356.54 213.32,1356.54 
  "/>
<polyline clip-path="url(#clip030)" style="stroke:#000000; stroke-linecap:butt; stroke-linejoin:round; stroke-width:4; stroke-opacity:1; fill:none" points="
  194.422,1189.44 213.32,1189.44 
  "/>
<polyline clip-path="url(#clip030)" style="stroke:#000000; stroke-linecap:butt; stroke-linejoin:round; stroke-width:4; stroke-opacity:1; fill:none" points="
  194.422,1022.33 213.32,1022.33 
  "/>
<polyline clip-path="url(#clip030)" style="stroke:#000000; stroke-linecap:butt; stroke-linejoin:round; stroke-width:4; stroke-opacity:1; fill:none" points="
  194.422,855.225 213.32,855.225 
  "/>
<polyline clip-path="url(#clip030)" style="stroke:#000000; stroke-linecap:butt; stroke-linejoin:round; stroke-width:4; stroke-opacity:1; fill:none" points="
  194.422,688.12 213.32,688.12 
  "/>
<polyline clip-path="url(#clip030)" style="stroke:#000000; stroke-linecap:butt; stroke-linejoin:round; stroke-width:4; stroke-opacity:1; fill:none" points="
  194.422,521.014 213.32,521.014 
  "/>
<polyline clip-path="url(#clip030)" style="stroke:#000000; stroke-linecap:butt; stroke-linejoin:round; stroke-width:4; stroke-opacity:1; fill:none" points="
  194.422,353.909 213.32,353.909 
  "/>
<polyline clip-path="url(#clip030)" style="stroke:#000000; stroke-linecap:butt; stroke-linejoin:round; stroke-width:4; stroke-opacity:1; fill:none" points="
  194.422,186.804 213.32,186.804 
  "/>
<path clip-path="url(#clip030)" d="M51.5708 1356.99 L81.2466 1356.99 L81.2466 1360.93 L51.5708 1360.93 L51.5708 1356.99 Z" fill="#000000" fill-rule="evenodd" fill-opacity="1" /><path clip-path="url(#clip030)" d="M101.339 1342.34 Q97.728 1342.34 95.8993 1345.9 Q94.0937 1349.45 94.0937 1356.58 Q94.0937 1363.68 95.8993 1367.25 Q97.728 1370.79 101.339 1370.79 Q104.973 1370.79 106.779 1367.25 Q108.608 1363.68 108.608 1356.58 Q108.608 1349.45 106.779 1345.9 Q104.973 1342.34 101.339 1342.34 M101.339 1338.64 Q107.149 1338.64 110.205 1343.24 Q113.283 1347.83 113.283 1356.58 Q113.283 1365.3 110.205 1369.91 Q107.149 1374.49 101.339 1374.49 Q95.5289 1374.49 92.4502 1369.91 Q89.3947 1365.3 89.3947 1356.58 Q89.3947 1347.83 92.4502 1343.24 Q95.5289 1338.64 101.339 1338.64 Z" fill="#000000" fill-rule="evenodd" fill-opacity="1" /><path clip-path="url(#clip030)" d="M121.501 1367.94 L126.385 1367.94 L126.385 1373.82 L121.501 1373.82 L121.501 1367.94 Z" fill="#000000" fill-rule="evenodd" fill-opacity="1" /><path clip-path="url(#clip030)" d="M146.57 1357.41 Q143.237 1357.41 141.316 1359.19 Q139.418 1360.97 139.418 1364.1 Q139.418 1367.22 141.316 1369.01 Q143.237 1370.79 146.57 1370.79 Q149.904 1370.79 151.825 1369.01 Q153.746 1367.2 153.746 1364.1 Q153.746 1360.97 151.825 1359.19 Q149.927 1357.41 146.57 1357.41 M141.894 1355.42 Q138.885 1354.68 137.195 1352.62 Q135.529 1350.56 135.529 1347.59 Q135.529 1343.45 138.469 1341.04 Q141.431 1338.64 146.57 1338.64 Q151.732 1338.64 154.672 1341.04 Q157.612 1343.45 157.612 1347.59 Q157.612 1350.56 155.922 1352.62 Q154.255 1354.68 151.269 1355.42 Q154.649 1356.21 156.524 1358.5 Q158.422 1360.79 158.422 1364.1 Q158.422 1369.12 155.343 1371.81 Q152.288 1374.49 146.57 1374.49 Q140.853 1374.49 137.774 1371.81 Q134.719 1369.12 134.719 1364.1 Q134.719 1360.79 136.617 1358.5 Q138.515 1356.21 141.894 1355.42 M140.181 1348.03 Q140.181 1350.72 141.848 1352.22 Q143.538 1353.73 146.57 1353.73 Q149.58 1353.73 151.269 1352.22 Q152.982 1350.72 152.982 1348.03 Q152.982 1345.35 151.269 1343.84 Q149.58 1342.34 146.57 1342.34 Q143.538 1342.34 141.848 1343.84 Q140.181 1345.35 140.181 1348.03 Z" fill="#000000" fill-rule="evenodd" fill-opacity="1" /><path clip-path="url(#clip030)" d="M51.3162 1189.89 L80.992 1189.89 L80.992 1193.82 L51.3162 1193.82 L51.3162 1189.89 Z" fill="#000000" fill-rule="evenodd" fill-opacity="1" /><path clip-path="url(#clip030)" d="M101.084 1175.23 Q97.4734 1175.23 95.6447 1178.8 Q93.8391 1182.34 93.8391 1189.47 Q93.8391 1196.58 95.6447 1200.14 Q97.4734 1203.68 101.084 1203.68 Q104.719 1203.68 106.524 1200.14 Q108.353 1196.58 108.353 1189.47 Q108.353 1182.34 106.524 1178.8 Q104.719 1175.23 101.084 1175.23 M101.084 1171.53 Q106.895 1171.53 109.95 1176.14 Q113.029 1180.72 113.029 1189.47 Q113.029 1198.2 109.95 1202.8 Q106.895 1207.39 101.084 1207.39 Q95.2743 1207.39 92.1956 1202.8 Q89.1401 1198.2 89.1401 1189.47 Q89.1401 1180.72 92.1956 1176.14 Q95.2743 1171.53 101.084 1171.53 Z" fill="#000000" fill-rule="evenodd" fill-opacity="1" /><path clip-path="url(#clip030)" d="M121.246 1200.84 L126.131 1200.84 L126.131 1206.72 L121.246 1206.72 L121.246 1200.84 Z" fill="#000000" fill-rule="evenodd" fill-opacity="1" /><path clip-path="url(#clip030)" d="M146.894 1187.57 Q143.746 1187.57 141.894 1189.73 Q140.066 1191.88 140.066 1195.63 Q140.066 1199.35 141.894 1201.53 Q143.746 1203.68 146.894 1203.68 Q150.043 1203.68 151.871 1201.53 Q153.723 1199.35 153.723 1195.63 Q153.723 1191.88 151.871 1189.73 Q150.043 1187.57 146.894 1187.57 M156.177 1172.92 L156.177 1177.18 Q154.417 1176.35 152.612 1175.91 Q150.83 1175.47 149.07 1175.47 Q144.441 1175.47 141.987 1178.59 Q139.556 1181.72 139.209 1188.04 Q140.575 1186.02 142.635 1184.96 Q144.695 1183.87 147.172 1183.87 Q152.38 1183.87 155.39 1187.04 Q158.422 1190.19 158.422 1195.63 Q158.422 1200.95 155.274 1204.17 Q152.126 1207.39 146.894 1207.39 Q140.899 1207.39 137.728 1202.8 Q134.556 1198.2 134.556 1189.47 Q134.556 1181.28 138.445 1176.41 Q142.334 1171.53 148.885 1171.53 Q150.644 1171.53 152.427 1171.88 Q154.232 1172.23 156.177 1172.92 Z" fill="#000000" fill-rule="evenodd" fill-opacity="1" /><path clip-path="url(#clip030)" d="M50.9921 1022.78 L80.6679 1022.78 L80.6679 1026.72 L50.9921 1026.72 L50.9921 1022.78 Z" fill="#000000" fill-rule="evenodd" fill-opacity="1" /><path clip-path="url(#clip030)" d="M100.76 1008.13 Q97.1493 1008.13 95.3206 1011.69 Q93.515 1015.24 93.515 1022.37 Q93.515 1029.47 95.3206 1033.04 Q97.1493 1036.58 100.76 1036.58 Q104.395 1036.58 106.2 1033.04 Q108.029 1029.47 108.029 1022.37 Q108.029 1015.24 106.2 1011.69 Q104.395 1008.13 100.76 1008.13 M100.76 1004.43 Q106.571 1004.43 109.626 1009.03 Q112.705 1013.62 112.705 1022.37 Q112.705 1031.09 109.626 1035.7 Q106.571 1040.28 100.76 1040.28 Q94.9502 1040.28 91.8715 1035.7 Q88.816 1031.09 88.816 1022.37 Q88.816 1013.62 91.8715 1009.03 Q94.9502 1004.43 100.76 1004.43 Z" fill="#000000" fill-rule="evenodd" fill-opacity="1" /><path clip-path="url(#clip030)" d="M120.922 1033.73 L125.807 1033.73 L125.807 1039.61 L120.922 1039.61 L120.922 1033.73 Z" fill="#000000" fill-rule="evenodd" fill-opacity="1" /><path clip-path="url(#clip030)" d="M148.839 1009.12 L137.033 1027.57 L148.839 1027.57 L148.839 1009.12 M147.612 1005.05 L153.492 1005.05 L153.492 1027.57 L158.422 1027.57 L158.422 1031.46 L153.492 1031.46 L153.492 1039.61 L148.839 1039.61 L148.839 1031.46 L133.237 1031.46 L133.237 1026.95 L147.612 1005.05 Z" fill="#000000" fill-rule="evenodd" fill-opacity="1" /><path clip-path="url(#clip030)" d="M53.0754 855.676 L82.7512 855.676 L82.7512 859.612 L53.0754 859.612 L53.0754 855.676 Z" fill="#000000" fill-rule="evenodd" fill-opacity="1" /><path clip-path="url(#clip030)" d="M102.844 841.024 Q99.2326 841.024 97.4039 844.589 Q95.5984 848.13 95.5984 855.26 Q95.5984 862.366 97.4039 865.931 Q99.2326 869.473 102.844 869.473 Q106.478 869.473 108.283 865.931 Q110.112 862.366 110.112 855.26 Q110.112 848.13 108.283 844.589 Q106.478 841.024 102.844 841.024 M102.844 837.32 Q108.654 837.32 111.709 841.927 Q114.788 846.51 114.788 855.26 Q114.788 863.987 111.709 868.593 Q108.654 873.176 102.844 873.176 Q97.0335 873.176 93.9549 868.593 Q90.8993 863.987 90.8993 855.26 Q90.8993 846.51 93.9549 841.927 Q97.0335 837.32 102.844 837.32 Z" fill="#000000" fill-rule="evenodd" fill-opacity="1" /><path clip-path="url(#clip030)" d="M123.006 866.626 L127.89 866.626 L127.89 872.505 L123.006 872.505 L123.006 866.626 Z" fill="#000000" fill-rule="evenodd" fill-opacity="1" /><path clip-path="url(#clip030)" d="M142.103 868.57 L158.422 868.57 L158.422 872.505 L136.478 872.505 L136.478 868.57 Q139.14 865.815 143.723 861.186 Q148.33 856.533 149.51 855.19 Q151.755 852.667 152.635 850.931 Q153.538 849.172 153.538 847.482 Q153.538 844.727 151.593 842.991 Q149.672 841.255 146.57 841.255 Q144.371 841.255 141.918 842.019 Q139.487 842.783 136.709 844.334 L136.709 839.612 Q139.533 838.478 141.987 837.899 Q144.441 837.32 146.478 837.32 Q151.848 837.32 155.042 840.005 Q158.237 842.69 158.237 847.181 Q158.237 849.311 157.427 851.232 Q156.64 853.13 154.533 855.723 Q153.955 856.394 150.853 859.612 Q147.751 862.806 142.103 868.57 Z" fill="#000000" fill-rule="evenodd" fill-opacity="1" /><path clip-path="url(#clip030)" d="M101.246 673.918 Q97.6354 673.918 95.8067 677.483 Q94.0012 681.025 94.0012 688.155 Q94.0012 695.261 95.8067 698.826 Q97.6354 702.367 101.246 702.367 Q104.881 702.367 106.686 698.826 Q108.515 695.261 108.515 688.155 Q108.515 681.025 106.686 677.483 Q104.881 673.918 101.246 673.918 M101.246 670.215 Q107.057 670.215 110.112 674.821 Q113.191 679.405 113.191 688.155 Q113.191 696.881 110.112 701.488 Q107.057 706.071 101.246 706.071 Q95.4363 706.071 92.3576 701.488 Q89.3021 696.881 89.3021 688.155 Q89.3021 679.405 92.3576 674.821 Q95.4363 670.215 101.246 670.215 Z" fill="#000000" fill-rule="evenodd" fill-opacity="1" /><path clip-path="url(#clip030)" d="M121.408 699.52 L126.293 699.52 L126.293 705.4 L121.408 705.4 L121.408 699.52 Z" fill="#000000" fill-rule="evenodd" fill-opacity="1" /><path clip-path="url(#clip030)" d="M146.478 673.918 Q142.867 673.918 141.038 677.483 Q139.232 681.025 139.232 688.155 Q139.232 695.261 141.038 698.826 Q142.867 702.367 146.478 702.367 Q150.112 702.367 151.918 698.826 Q153.746 695.261 153.746 688.155 Q153.746 681.025 151.918 677.483 Q150.112 673.918 146.478 673.918 M146.478 670.215 Q152.288 670.215 155.343 674.821 Q158.422 679.405 158.422 688.155 Q158.422 696.881 155.343 701.488 Q152.288 706.071 146.478 706.071 Q140.668 706.071 137.589 701.488 Q134.533 696.881 134.533 688.155 Q134.533 679.405 137.589 674.821 Q140.668 670.215 146.478 670.215 Z" fill="#000000" fill-rule="evenodd" fill-opacity="1" /><path clip-path="url(#clip030)" d="M102.844 506.813 Q99.2326 506.813 97.4039 510.378 Q95.5984 513.92 95.5984 521.049 Q95.5984 528.156 97.4039 531.72 Q99.2326 535.262 102.844 535.262 Q106.478 535.262 108.283 531.72 Q110.112 528.156 110.112 521.049 Q110.112 513.92 108.283 510.378 Q106.478 506.813 102.844 506.813 M102.844 503.109 Q108.654 503.109 111.709 507.716 Q114.788 512.299 114.788 521.049 Q114.788 529.776 111.709 534.382 Q108.654 538.966 102.844 538.966 Q97.0335 538.966 93.9549 534.382 Q90.8993 529.776 90.8993 521.049 Q90.8993 512.299 93.9549 507.716 Q97.0335 503.109 102.844 503.109 Z" fill="#000000" fill-rule="evenodd" fill-opacity="1" /><path clip-path="url(#clip030)" d="M123.006 532.415 L127.89 532.415 L127.89 538.294 L123.006 538.294 L123.006 532.415 Z" fill="#000000" fill-rule="evenodd" fill-opacity="1" /><path clip-path="url(#clip030)" d="M142.103 534.359 L158.422 534.359 L158.422 538.294 L136.478 538.294 L136.478 534.359 Q139.14 531.605 143.723 526.975 Q148.33 522.322 149.51 520.98 Q151.755 518.457 152.635 516.721 Q153.538 514.961 153.538 513.271 Q153.538 510.517 151.593 508.781 Q149.672 507.045 146.57 507.045 Q144.371 507.045 141.918 507.809 Q139.487 508.572 136.709 510.123 L136.709 505.401 Q139.533 504.267 141.987 503.688 Q144.441 503.109 146.478 503.109 Q151.848 503.109 155.042 505.795 Q158.237 508.48 158.237 512.971 Q158.237 515.1 157.427 517.021 Q156.64 518.92 154.533 521.512 Q153.955 522.183 150.853 525.401 Q147.751 528.595 142.103 534.359 Z" fill="#000000" fill-rule="evenodd" fill-opacity="1" /><path clip-path="url(#clip030)" d="M100.76 339.708 Q97.1493 339.708 95.3206 343.273 Q93.515 346.814 93.515 353.944 Q93.515 361.05 95.3206 364.615 Q97.1493 368.157 100.76 368.157 Q104.395 368.157 106.2 364.615 Q108.029 361.05 108.029 353.944 Q108.029 346.814 106.2 343.273 Q104.395 339.708 100.76 339.708 M100.76 336.004 Q106.571 336.004 109.626 340.611 Q112.705 345.194 112.705 353.944 Q112.705 362.671 109.626 367.277 Q106.571 371.86 100.76 371.86 Q94.9502 371.86 91.8715 367.277 Q88.816 362.671 88.816 353.944 Q88.816 345.194 91.8715 340.611 Q94.9502 336.004 100.76 336.004 Z" fill="#000000" fill-rule="evenodd" fill-opacity="1" /><path clip-path="url(#clip030)" d="M120.922 365.31 L125.807 365.31 L125.807 371.189 L120.922 371.189 L120.922 365.31 Z" fill="#000000" fill-rule="evenodd" fill-opacity="1" /><path clip-path="url(#clip030)" d="M148.839 340.703 L137.033 359.152 L148.839 359.152 L148.839 340.703 M147.612 336.629 L153.492 336.629 L153.492 359.152 L158.422 359.152 L158.422 363.041 L153.492 363.041 L153.492 371.189 L148.839 371.189 L148.839 363.041 L133.237 363.041 L133.237 358.527 L147.612 336.629 Z" fill="#000000" fill-rule="evenodd" fill-opacity="1" /><path clip-path="url(#clip030)" d="M101.084 172.603 Q97.4734 172.603 95.6447 176.167 Q93.8391 179.709 93.8391 186.839 Q93.8391 193.945 95.6447 197.51 Q97.4734 201.051 101.084 201.051 Q104.719 201.051 106.524 197.51 Q108.353 193.945 108.353 186.839 Q108.353 179.709 106.524 176.167 Q104.719 172.603 101.084 172.603 M101.084 168.899 Q106.895 168.899 109.95 173.505 Q113.029 178.089 113.029 186.839 Q113.029 195.565 109.95 200.172 Q106.895 204.755 101.084 204.755 Q95.2743 204.755 92.1956 200.172 Q89.1401 195.565 89.1401 186.839 Q89.1401 178.089 92.1956 173.505 Q95.2743 168.899 101.084 168.899 Z" fill="#000000" fill-rule="evenodd" fill-opacity="1" /><path clip-path="url(#clip030)" d="M121.246 198.204 L126.131 198.204 L126.131 204.084 L121.246 204.084 L121.246 198.204 Z" fill="#000000" fill-rule="evenodd" fill-opacity="1" /><path clip-path="url(#clip030)" d="M146.894 184.94 Q143.746 184.94 141.894 187.093 Q140.066 189.246 140.066 192.996 Q140.066 196.723 141.894 198.899 Q143.746 201.051 146.894 201.051 Q150.043 201.051 151.871 198.899 Q153.723 196.723 153.723 192.996 Q153.723 189.246 151.871 187.093 Q150.043 184.94 146.894 184.94 M156.177 170.288 L156.177 174.547 Q154.417 173.714 152.612 173.274 Q150.83 172.834 149.07 172.834 Q144.441 172.834 141.987 175.959 Q139.556 179.084 139.209 185.403 Q140.575 183.39 142.635 182.325 Q144.695 181.237 147.172 181.237 Q152.38 181.237 155.39 184.408 Q158.422 187.556 158.422 192.996 Q158.422 198.32 155.274 201.538 Q152.126 204.755 146.894 204.755 Q140.899 204.755 137.728 200.172 Q134.556 195.565 134.556 186.839 Q134.556 178.644 138.445 173.783 Q142.334 168.899 148.885 168.899 Q150.644 168.899 152.427 169.246 Q154.232 169.593 156.177 170.288 Z" fill="#000000" fill-rule="evenodd" fill-opacity="1" /><polyline clip-path="url(#clip033)" style="stroke:#009af9; stroke-linecap:butt; stroke-linejoin:round; stroke-width:4; stroke-opacity:1; fill:none" points="
  194.422,1445.72 215.5,1436.17 410.396,1344.99 527.52,1287.58 626.547,1237.46 734.118,1181.33 833.289,1127.99 939.61,1069.05 1062.79,998.428 1172.27,933.516 
  1268.26,874.875 1372.93,809.065 1478.21,740.837 1594.61,662.971 1705.37,586.446 1820.53,504.284 1917.47,433.017 2035.83,343.325 2147.08,256.251 2325.33,110.98 
  2352.76,87.9763 
  "/>
<circle clip-path="url(#clip033)" cx="1557.44" cy="688.12" r="14" fill="#e26f46" fill-rule="evenodd" fill-opacity="1" stroke="#000000" stroke-opacity="1" stroke-width="3.2"/>
<path clip-path="url(#clip030)" d="
M1662.02 250.738 L2280.81 250.738 L2280.81 95.2176 L1662.02 95.2176  Z
  " fill="#ffffff" fill-rule="evenodd" fill-opacity="1"/>
<polyline clip-path="url(#clip030)" style="stroke:#000000; stroke-linecap:butt; stroke-linejoin:round; stroke-width:4; stroke-opacity:1; fill:none" points="
  1662.02,250.738 2280.81,250.738 2280.81,95.2176 1662.02,95.2176 1662.02,250.738 
  "/>
<polyline clip-path="url(#clip030)" style="stroke:#009af9; stroke-linecap:butt; stroke-linejoin:round; stroke-width:4; stroke-opacity:1; fill:none" points="
  1686,147.058 1829.89,147.058 
  "/>
<path clip-path="url(#clip030)" d="M1877.76 144.577 Q1877.76 145.889 1876.94 146.638 Q1876.12 147.364 1875.18 147.364 Q1874.29 147.364 1873.82 146.849 Q1873.36 146.334 1873.36 145.678 Q1873.36 144.788 1874.01 144.015 Q1874.67 143.242 1875.65 143.078 Q1874.69 142.469 1873.26 142.469 Q1872.33 142.469 1871.51 142.961 Q1870.71 143.453 1870.22 144.085 Q1869.75 144.717 1869.33 145.631 Q1868.93 146.521 1868.77 147.06 Q1868.63 147.575 1868.51 148.137 L1866.87 154.695 Q1866.07 157.811 1866.07 158.911 Q1866.07 160.27 1866.73 161.183 Q1867.38 162.074 1868.7 162.074 Q1869.21 162.074 1869.8 161.933 Q1870.38 161.769 1871.13 161.347 Q1871.9 160.902 1872.58 160.247 Q1873.29 159.567 1873.97 158.42 Q1874.64 157.272 1875.09 155.796 Q1875.23 155.281 1875.7 155.281 Q1876.28 155.281 1876.28 155.749 Q1876.28 156.148 1875.96 156.991 Q1875.65 157.811 1874.97 158.888 Q1874.32 159.942 1873.45 160.902 Q1872.58 161.839 1871.3 162.495 Q1870.01 163.151 1868.6 163.151 Q1866.59 163.151 1865.25 162.074 Q1863.92 160.996 1863.43 159.497 Q1863.31 159.708 1863.14 159.989 Q1862.98 160.27 1862.49 160.902 Q1862.02 161.511 1861.48 161.98 Q1860.94 162.425 1860.1 162.776 Q1859.28 163.151 1858.39 163.151 Q1857.27 163.151 1856.26 162.823 Q1855.27 162.495 1854.57 161.746 Q1853.87 160.996 1853.87 159.966 Q1853.87 158.818 1854.64 158.021 Q1855.44 157.202 1856.52 157.202 Q1857.2 157.202 1857.73 157.6 Q1858.3 157.998 1858.3 158.865 Q1858.3 159.825 1857.64 160.551 Q1856.98 161.277 1856.05 161.465 Q1857.01 162.074 1858.44 162.074 Q1859.98 162.074 1861.2 160.715 Q1862.42 159.357 1863 157.085 Q1864.46 151.627 1865.02 149.191 Q1865.58 146.732 1865.58 145.678 Q1865.58 144.694 1865.32 144.015 Q1865.06 143.336 1864.62 143.031 Q1864.2 142.703 1863.8 142.586 Q1863.43 142.469 1863 142.469 Q1862.3 142.469 1861.5 142.75 Q1860.73 143.031 1859.79 143.687 Q1858.88 144.319 1858.01 145.631 Q1857.15 146.943 1856.56 148.746 Q1856.45 149.285 1855.93 149.285 Q1855.37 149.261 1855.37 148.793 Q1855.37 148.395 1855.67 147.575 Q1856 146.732 1856.66 145.678 Q1857.34 144.624 1858.2 143.687 Q1859.09 142.727 1860.38 142.071 Q1861.69 141.415 1863.1 141.415 Q1863.73 141.415 1864.34 141.555 Q1864.97 141.673 1865.72 142.024 Q1866.49 142.375 1867.17 143.148 Q1867.85 143.921 1868.27 145.045 Q1868.55 144.507 1868.93 143.991 Q1869.33 143.476 1869.94 142.844 Q1870.57 142.188 1871.44 141.813 Q1872.33 141.415 1873.31 141.415 Q1874.27 141.415 1875.21 141.673 Q1876.14 141.907 1876.94 142.68 Q1877.76 143.429 1877.76 144.577 Z" fill="#000000" fill-rule="evenodd" fill-opacity="1" /><path clip-path="url(#clip030)" d="M1899.27 157.061 Q1899.46 157.272 1899.46 157.483 Q1899.46 157.694 1898.99 158.303 Q1898.55 158.911 1897.59 159.731 Q1896.63 160.551 1895.39 161.324 Q1894.15 162.097 1892.32 162.612 Q1890.49 163.151 1888.57 163.151 Q1885.13 163.151 1883.07 160.692 Q1881.03 158.232 1881.03 154.461 Q1881.03 152.049 1881.82 149.917 Q1882.62 147.762 1883.91 146.24 Q1885.22 144.717 1886.86 143.617 Q1888.52 142.492 1890.26 141.954 Q1891.99 141.415 1893.61 141.415 Q1895.97 141.415 1897.35 142.609 Q1898.74 143.804 1898.74 145.49 Q1898.74 145.889 1898.62 146.38 Q1898.53 146.872 1898.2 147.645 Q1897.89 148.418 1897.1 149.191 Q1896.3 149.941 1895.13 150.433 Q1892.53 151.533 1887.8 151.533 L1885.24 151.533 Q1884.49 154.555 1884.49 156.522 Q1884.49 157.295 1884.64 158.092 Q1884.78 158.865 1885.15 159.848 Q1885.55 160.832 1886.44 161.465 Q1887.35 162.074 1888.66 162.074 Q1889.09 162.074 1889.53 162.05 Q1890 162.027 1891.17 161.769 Q1892.36 161.511 1893.42 161.066 Q1894.47 160.621 1895.81 159.661 Q1897.17 158.677 1898.24 157.342 Q1898.62 156.85 1898.88 156.85 Q1899.09 156.85 1899.27 157.061 M1897.14 145.49 Q1897.14 144.202 1896.18 143.336 Q1895.25 142.469 1893.61 142.469 Q1893.09 142.469 1892.46 142.586 Q1891.83 142.703 1890.77 143.195 Q1889.74 143.687 1888.83 144.507 Q1887.91 145.303 1887 146.872 Q1886.09 148.418 1885.55 150.479 L1887.52 150.479 Q1888.2 150.479 1888.69 150.479 Q1889.18 150.456 1890.26 150.362 Q1891.36 150.269 1892.15 150.105 Q1892.95 149.917 1893.96 149.543 Q1894.96 149.168 1895.6 148.676 Q1896.25 148.161 1896.7 147.341 Q1897.14 146.521 1897.14 145.49 Z" fill="#000000" fill-rule="evenodd" fill-opacity="1" /><path clip-path="url(#clip030)" d="M1921.12 133.038 Q1921.12 133.956 1920.55 134.481 Q1919.97 134.989 1919.32 134.989 Q1918.7 134.989 1918.37 134.628 Q1918.04 134.268 1918.04 133.809 Q1918.04 133.186 1918.5 132.645 Q1918.96 132.103 1919.65 131.989 Q1918.97 131.562 1917.97 131.562 Q1917.32 131.562 1916.74 131.907 Q1916.19 132.251 1915.84 132.694 Q1915.51 133.136 1915.22 133.776 Q1914.94 134.399 1914.83 134.776 Q1914.73 135.137 1914.65 135.53 L1913.5 140.121 Q1912.94 142.302 1912.94 143.072 Q1912.94 144.023 1913.4 144.663 Q1913.86 145.286 1914.78 145.286 Q1915.14 145.286 1915.55 145.187 Q1915.96 145.072 1916.48 144.777 Q1917.02 144.466 1917.5 144.007 Q1917.99 143.531 1918.47 142.728 Q1918.94 141.924 1919.25 140.892 Q1919.35 140.531 1919.68 140.531 Q1920.09 140.531 1920.09 140.859 Q1920.09 141.137 1919.86 141.728 Q1919.65 142.302 1919.17 143.056 Q1918.71 143.794 1918.11 144.466 Q1917.5 145.122 1916.6 145.581 Q1915.7 146.04 1914.71 146.04 Q1913.3 146.04 1912.37 145.286 Q1911.43 144.531 1911.09 143.482 Q1911.01 143.63 1910.89 143.826 Q1910.78 144.023 1910.43 144.466 Q1910.1 144.892 1909.73 145.22 Q1909.35 145.532 1908.76 145.777 Q1908.19 146.04 1907.56 146.04 Q1906.78 146.04 1906.07 145.81 Q1905.38 145.581 1904.89 145.056 Q1904.4 144.531 1904.4 143.81 Q1904.4 143.007 1904.94 142.449 Q1905.5 141.875 1906.25 141.875 Q1906.73 141.875 1907.1 142.154 Q1907.5 142.433 1907.5 143.039 Q1907.5 143.712 1907.04 144.22 Q1906.58 144.728 1905.92 144.859 Q1906.6 145.286 1907.6 145.286 Q1908.68 145.286 1909.53 144.335 Q1910.38 143.384 1910.79 141.793 Q1911.81 137.973 1912.2 136.268 Q1912.6 134.546 1912.6 133.809 Q1912.6 133.12 1912.42 132.645 Q1912.24 132.169 1911.92 131.956 Q1911.63 131.726 1911.35 131.644 Q1911.09 131.562 1910.79 131.562 Q1910.3 131.562 1909.74 131.759 Q1909.2 131.956 1908.55 132.415 Q1907.91 132.858 1907.3 133.776 Q1906.69 134.694 1906.28 135.956 Q1906.2 136.334 1905.84 136.334 Q1905.45 136.317 1905.45 135.989 Q1905.45 135.711 1905.66 135.137 Q1905.89 134.546 1906.35 133.809 Q1906.83 133.071 1907.43 132.415 Q1908.05 131.743 1908.96 131.284 Q1909.87 130.825 1910.86 130.825 Q1911.3 130.825 1911.73 130.923 Q1912.17 131.005 1912.69 131.251 Q1913.24 131.497 1913.71 132.038 Q1914.19 132.579 1914.48 133.366 Q1914.68 132.989 1914.94 132.628 Q1915.22 132.267 1915.65 131.825 Q1916.09 131.366 1916.7 131.103 Q1917.32 130.825 1918.01 130.825 Q1918.68 130.825 1919.33 131.005 Q1919.99 131.169 1920.55 131.71 Q1921.12 132.235 1921.12 133.038 Z" fill="#000000" fill-rule="evenodd" fill-opacity="1" /><path clip-path="url(#clip030)" d="M1971.05 149.941 Q1971.33 150.222 1971.33 150.62 Q1971.33 151.018 1971.05 151.299 Q1970.77 151.58 1970.37 151.58 L1940.34 151.58 Q1939.94 151.58 1939.66 151.299 Q1939.38 151.018 1939.38 150.62 Q1939.38 150.222 1939.66 149.941 Q1939.94 149.66 1940.34 149.66 L1970.37 149.66 Q1970.77 149.66 1971.05 149.941 Z" fill="#000000" fill-rule="evenodd" fill-opacity="1" /><path clip-path="url(#clip030)" d="M1989.63 162.612 Q1989.63 161.746 1989.7 161.488 Q1989.8 161.23 1990.17 160.832 L1999.38 150.573 Q2004.41 144.905 2004.41 139.963 Q2004.41 136.754 2002.73 134.458 Q2001.06 132.163 1998 132.163 Q1995.89 132.163 1994.11 133.451 Q1992.33 134.74 1991.51 137.035 Q1991.65 136.988 1992.14 136.988 Q1993.33 136.988 1993.99 137.738 Q1994.67 138.487 1994.67 139.494 Q1994.67 140.783 1993.83 141.415 Q1993.01 142.024 1992.19 142.024 Q1991.86 142.024 1991.41 141.954 Q1990.99 141.883 1990.31 141.228 Q1989.63 140.548 1989.63 139.354 Q1989.63 136.004 1992.16 133.334 Q1994.72 130.664 1998.61 130.664 Q2003.01 130.664 2005.89 133.287 Q2008.79 135.887 2008.79 139.963 Q2008.79 141.392 2008.35 142.703 Q2007.93 143.991 2007.34 144.999 Q2006.78 146.006 2005.23 147.622 Q2003.69 149.238 2002.45 150.386 Q2001.2 151.533 1998.42 153.969 L1993.33 158.911 L2001.98 158.911 Q2006.19 158.911 2006.52 158.537 Q2006.99 157.857 2007.58 154.274 L2008.79 154.274 L2007.44 162.612 L1989.63 162.612 Z" fill="#000000" fill-rule="evenodd" fill-opacity="1" /><circle clip-path="url(#clip030)" cx="1757.94" cy="198.898" r="23" fill="#e26f46" fill-rule="evenodd" fill-opacity="1" stroke="#000000" stroke-opacity="1" stroke-width="5.12"/>
<path clip-path="url(#clip030)" d="M1853.87 190.252 L1860.1 190.252 L1867.46 207.613 L1874.84 190.252 L1881.02 190.252 L1881.02 216.178 L1876.74 216.178 L1876.74 194.326 L1869.59 211.201 L1865.33 211.201 L1858.15 194.326 L1858.15 216.178 L1853.87 216.178 L1853.87 190.252 Z" fill="#000000" fill-rule="evenodd" fill-opacity="1" /><path clip-path="url(#clip030)" d="M1911.97 202.15 L1911.97 204.233 L1892.39 204.233 Q1892.67 208.631 1895.03 210.946 Q1897.41 213.238 1901.65 213.238 Q1904.1 213.238 1906.39 212.636 Q1908.71 212.034 1910.98 210.83 L1910.98 214.858 Q1908.68 215.83 1906.28 216.34 Q1903.87 216.849 1901.39 216.849 Q1895.19 216.849 1891.55 213.238 Q1887.94 209.627 1887.94 203.469 Q1887.94 197.104 1891.37 193.377 Q1894.82 189.627 1900.65 189.627 Q1905.88 189.627 1908.92 193.006 Q1911.97 196.363 1911.97 202.15 M1907.71 200.9 Q1907.67 197.405 1905.74 195.321 Q1903.85 193.238 1900.7 193.238 Q1897.13 193.238 1894.98 195.252 Q1892.85 197.266 1892.53 200.923 L1907.71 200.9 Z" fill="#000000" fill-rule="evenodd" fill-opacity="1" /><path clip-path="url(#clip030)" d="M1915.88 190.252 L1940.72 190.252 L1940.72 193.655 L1930.4 193.655 L1930.4 216.178 L1926.21 216.178 L1926.21 193.655 L1915.88 193.655 L1915.88 190.252 Z" fill="#000000" fill-rule="evenodd" fill-opacity="1" /><path clip-path="url(#clip030)" d="M1956.62 193.238 Q1953.2 193.238 1951.21 195.923 Q1949.22 198.585 1949.22 203.238 Q1949.22 207.891 1951.18 210.576 Q1953.17 213.238 1956.62 213.238 Q1960.03 213.238 1962.02 210.553 Q1964.01 207.867 1964.01 203.238 Q1964.01 198.631 1962.02 195.946 Q1960.03 193.238 1956.62 193.238 M1956.62 189.627 Q1962.18 189.627 1965.35 193.238 Q1968.52 196.849 1968.52 203.238 Q1968.52 209.604 1965.35 213.238 Q1962.18 216.849 1956.62 216.849 Q1951.04 216.849 1947.87 213.238 Q1944.73 209.604 1944.73 203.238 Q1944.73 196.849 1947.87 193.238 Q1951.04 189.627 1956.62 189.627 Z" fill="#000000" fill-rule="evenodd" fill-opacity="1" /><path clip-path="url(#clip030)" d="M1981.37 212.775 L1993.73 212.775 L1993.73 193.655 L1984.77 193.655 L1984.77 196.895 Q1984.77 206.432 1982.04 211.525 L1981.37 212.775 M1975.19 212.775 Q1977.29 211.849 1978.22 209.881 Q1980.49 204.997 1980.49 195.159 L1980.49 190.252 L1998.01 190.252 L1998.01 212.775 L2001.41 212.775 L2001.41 222.728 L1998.01 222.728 L1998.01 216.178 L1976.99 216.178 L1976.99 222.728 L1973.59 222.728 L1973.59 212.775 L1975.19 212.775 Z" fill="#000000" fill-rule="evenodd" fill-opacity="1" /><path clip-path="url(#clip030)" d="M2042.09 191.247 L2042.09 195.229 Q2040.28 194.233 2038.45 193.747 Q2036.65 193.238 2034.79 193.238 Q2030.65 193.238 2028.36 195.877 Q2026.07 198.492 2026.07 203.238 Q2026.07 207.983 2028.36 210.622 Q2030.65 213.238 2034.79 213.238 Q2036.65 213.238 2038.45 212.752 Q2040.28 212.242 2042.09 211.247 L2042.09 215.182 Q2040.3 216.016 2038.38 216.432 Q2036.48 216.849 2034.33 216.849 Q2028.47 216.849 2025.03 213.168 Q2021.58 209.488 2021.58 203.238 Q2021.58 196.895 2025.05 193.261 Q2028.54 189.627 2034.61 189.627 Q2036.58 189.627 2038.45 190.043 Q2040.33 190.437 2042.09 191.247 Z" fill="#000000" fill-rule="evenodd" fill-opacity="1" /><path clip-path="url(#clip030)" d="M2071.67 202.15 L2071.67 204.233 L2052.09 204.233 Q2052.36 208.631 2054.72 210.946 Q2057.11 213.238 2061.34 213.238 Q2063.8 213.238 2066.09 212.636 Q2068.4 212.034 2070.67 210.83 L2070.67 214.858 Q2068.38 215.83 2065.97 216.34 Q2063.57 216.849 2061.09 216.849 Q2054.89 216.849 2051.25 213.238 Q2047.64 209.627 2047.64 203.469 Q2047.64 197.104 2051.07 193.377 Q2054.52 189.627 2060.35 189.627 Q2065.58 189.627 2068.61 193.006 Q2071.67 196.363 2071.67 202.15 M2067.41 200.9 Q2067.36 197.405 2065.44 195.321 Q2063.54 193.238 2060.4 193.238 Q2056.83 193.238 2054.68 195.252 Q2052.55 197.266 2052.22 200.923 L2067.41 200.9 Z" fill="#000000" fill-rule="evenodd" fill-opacity="1" /><path clip-path="url(#clip030)" d="M2078.5 190.252 L2082.73 190.252 L2082.73 202.428 L2094.75 190.252 L2099.98 190.252 L2090.07 200.275 L2101.25 216.178 L2096.48 216.178 L2087.29 203.099 L2082.73 207.729 L2082.73 216.178 L2078.5 216.178 L2078.5 190.252 Z" fill="#000000" fill-rule="evenodd" fill-opacity="1" /><path clip-path="url(#clip030)" d="M2118.08 218.585 Q2116.28 223.215 2114.56 224.627 Q2112.85 226.039 2109.98 226.039 L2106.58 226.039 L2106.58 222.474 L2109.08 222.474 Q2110.84 222.474 2111.81 221.64 Q2112.78 220.807 2113.96 217.705 L2114.72 215.761 L2104.24 190.252 L2108.75 190.252 L2116.85 210.529 L2124.96 190.252 L2129.47 190.252 L2118.08 218.585 Z" fill="#000000" fill-rule="evenodd" fill-opacity="1" /><path clip-path="url(#clip030)" d="M2169.96 216.178 L2135.19 216.178 L2135.19 190.252 L2139.47 190.252 L2139.47 212.775 L2150.42 212.775 L2150.42 190.252 L2154.7 190.252 L2154.7 212.775 L2165.67 212.775 L2165.67 190.252 L2169.96 190.252 L2169.96 212.775 L2173.36 212.775 L2173.36 222.728 L2169.96 222.728 L2169.96 216.178 Z" fill="#000000" fill-rule="evenodd" fill-opacity="1" /><path clip-path="url(#clip030)" d="M2202.04 190.252 L2202.04 216.178 L2197.8 216.178 L2197.8 195.367 L2185.3 216.178 L2179.84 216.178 L2179.84 190.252 L2184.08 190.252 L2184.08 211.016 L2196.55 190.252 L2202.04 190.252 Z" fill="#000000" fill-rule="evenodd" fill-opacity="1" /><path clip-path="url(#clip030)" d="M2232.36 190.252 L2222.99 202.867 L2232.85 216.178 L2227.83 216.178 L2220.28 205.992 L2212.73 216.178 L2207.71 216.178 L2217.78 202.613 L2208.57 190.252 L2213.59 190.252 L2220.46 199.488 L2227.34 190.252 L2232.36 190.252 Z" fill="#000000" fill-rule="evenodd" fill-opacity="1" /></svg>
