<?xml version="1.0" encoding="utf-8"?>
<svg xmlns="http://www.w3.org/2000/svg" xmlns:xlink="http://www.w3.org/1999/xlink" width="600" height="400" viewBox="0 0 2400 1600">
<defs>
  <clipPath id="clip660">
    <rect x="0" y="0" width="2400" height="1600"/>
  </clipPath>
</defs>
<path clip-path="url(#clip660)" d="
M0 1600 L2400 1600 L2400 0 L0 0  Z
  " fill="#ffffff" fill-rule="evenodd" fill-opacity="1"/>
<defs>
  <clipPath id="clip661">
    <rect x="480" y="0" width="1681" height="1600"/>
  </clipPath>
</defs>
<path clip-path="url(#clip660)" d="
M250.352 1423.18 L2352.76 1423.18 L2352.76 47.2441 L250.352 47.2441  Z
  " fill="#ffffff" fill-rule="evenodd" fill-opacity="1"/>
<defs>
  <clipPath id="clip662">
    <rect x="250" y="47" width="2103" height="1377"/>
  </clipPath>
</defs>
<polyline clip-path="url(#clip662)" style="stroke:#000000; stroke-linecap:butt; stroke-linejoin:round; stroke-width:2; stroke-opacity:0.1; fill:none" points="
  400.009,1423.18 400.009,47.2441 
  "/>
<polyline clip-path="url(#clip662)" style="stroke:#000000; stroke-linecap:butt; stroke-linejoin:round; stroke-width:2; stroke-opacity:0.1; fill:none" points="
  850.781,1423.18 850.781,47.2441 
  "/>
<polyline clip-path="url(#clip662)" style="stroke:#000000; stroke-linecap:butt; stroke-linejoin:round; stroke-width:2; stroke-opacity:0.1; fill:none" points="
  1301.55,1423.18 1301.55,47.2441 
  "/>
<polyline clip-path="url(#clip662)" style="stroke:#000000; stroke-linecap:butt; stroke-linejoin:round; stroke-width:2; stroke-opacity:0.1; fill:none" points="
  1752.33,1423.18 1752.33,47.2441 
  "/>
<polyline clip-path="url(#clip662)" style="stroke:#000000; stroke-linecap:butt; stroke-linejoin:round; stroke-width:2; stroke-opacity:0.1; fill:none" points="
  2203.1,1423.18 2203.1,47.2441 
  "/>
<polyline clip-path="url(#clip660)" style="stroke:#000000; stroke-linecap:butt; stroke-linejoin:round; stroke-width:4; stroke-opacity:1; fill:none" points="
  250.352,1423.18 2352.76,1423.18 
  "/>
<polyline clip-path="url(#clip660)" style="stroke:#000000; stroke-linecap:butt; stroke-linejoin:round; stroke-width:4; stroke-opacity:1; fill:none" points="
  400.009,1423.18 400.009,1404.28 
  "/>
<polyline clip-path="url(#clip660)" style="stroke:#000000; stroke-linecap:butt; stroke-linejoin:round; stroke-width:4; stroke-opacity:1; fill:none" points="
  850.781,1423.18 850.781,1404.28 
  "/>
<polyline clip-path="url(#clip660)" style="stroke:#000000; stroke-linecap:butt; stroke-linejoin:round; stroke-width:4; stroke-opacity:1; fill:none" points="
  1301.55,1423.18 1301.55,1404.28 
  "/>
<polyline clip-path="url(#clip660)" style="stroke:#000000; stroke-linecap:butt; stroke-linejoin:round; stroke-width:4; stroke-opacity:1; fill:none" points="
  1752.33,1423.18 1752.33,1404.28 
  "/>
<polyline clip-path="url(#clip660)" style="stroke:#000000; stroke-linecap:butt; stroke-linejoin:round; stroke-width:4; stroke-opacity:1; fill:none" points="
  2203.1,1423.18 2203.1,1404.28 
  "/>
<path clip-path="url(#clip660)" d="M390.287 1449.29 L408.643 1449.29 L408.643 1453.23 L394.569 1453.23 L394.569 1461.7 Q395.587 1461.35 396.606 1461.19 Q397.624 1461 398.643 1461 Q404.43 1461 407.81 1464.18 Q411.189 1467.35 411.189 1472.76 Q411.189 1478.34 407.717 1481.44 Q404.245 1484.52 397.925 1484.52 Q395.75 1484.52 393.481 1484.15 Q391.236 1483.78 388.828 1483.04 L388.828 1478.34 Q390.912 1479.48 393.134 1480.03 Q395.356 1480.59 397.833 1480.59 Q401.837 1480.59 404.175 1478.48 Q406.513 1476.38 406.513 1472.76 Q406.513 1469.15 404.175 1467.05 Q401.837 1464.94 397.833 1464.94 Q395.958 1464.94 394.083 1465.36 Q392.231 1465.77 390.287 1466.65 L390.287 1449.29 Z" fill="#000000" fill-rule="evenodd" fill-opacity="1" /><path clip-path="url(#clip660)" d="M825.469 1479.92 L833.108 1479.92 L833.108 1453.55 L824.798 1455.22 L824.798 1450.96 L833.062 1449.29 L837.737 1449.29 L837.737 1479.92 L845.376 1479.92 L845.376 1483.85 L825.469 1483.85 L825.469 1479.92 Z" fill="#000000" fill-rule="evenodd" fill-opacity="1" /><path clip-path="url(#clip660)" d="M864.821 1452.37 Q861.21 1452.37 859.381 1455.94 Q857.575 1459.48 857.575 1466.61 Q857.575 1473.71 859.381 1477.28 Q861.21 1480.82 864.821 1480.82 Q868.455 1480.82 870.26 1477.28 Q872.089 1473.71 872.089 1466.61 Q872.089 1459.48 870.26 1455.94 Q868.455 1452.37 864.821 1452.37 M864.821 1448.67 Q870.631 1448.67 873.686 1453.27 Q876.765 1457.86 876.765 1466.61 Q876.765 1475.33 873.686 1479.94 Q870.631 1484.52 864.821 1484.52 Q859.011 1484.52 855.932 1479.94 Q852.876 1475.33 852.876 1466.61 Q852.876 1457.86 855.932 1453.27 Q859.011 1448.67 864.821 1448.67 Z" fill="#000000" fill-rule="evenodd" fill-opacity="1" /><path clip-path="url(#clip660)" d="M1276.74 1479.92 L1284.38 1479.92 L1284.38 1453.55 L1276.07 1455.22 L1276.07 1450.96 L1284.33 1449.29 L1289.01 1449.29 L1289.01 1479.92 L1296.65 1479.92 L1296.65 1483.85 L1276.74 1483.85 L1276.74 1479.92 Z" fill="#000000" fill-rule="evenodd" fill-opacity="1" /><path clip-path="url(#clip660)" d="M1306.14 1449.29 L1324.49 1449.29 L1324.49 1453.23 L1310.42 1453.23 L1310.42 1461.7 Q1311.44 1461.35 1312.46 1461.19 Q1313.48 1461 1314.49 1461 Q1320.28 1461 1323.66 1464.18 Q1327.04 1467.35 1327.04 1472.76 Q1327.04 1478.34 1323.57 1481.44 Q1320.1 1484.52 1313.78 1484.52 Q1311.6 1484.52 1309.33 1484.15 Q1307.09 1483.78 1304.68 1483.04 L1304.68 1478.34 Q1306.76 1479.48 1308.98 1480.03 Q1311.21 1480.59 1313.68 1480.59 Q1317.69 1480.59 1320.03 1478.48 Q1322.36 1476.38 1322.36 1472.76 Q1322.36 1469.15 1320.03 1467.05 Q1317.69 1464.94 1313.68 1464.94 Q1311.81 1464.94 1309.93 1465.36 Q1308.08 1465.77 1306.14 1466.65 L1306.14 1449.29 Z" fill="#000000" fill-rule="evenodd" fill-opacity="1" /><path clip-path="url(#clip660)" d="M1731.1 1479.92 L1747.42 1479.92 L1747.42 1483.85 L1725.48 1483.85 L1725.48 1479.92 Q1728.14 1477.16 1732.72 1472.53 Q1737.33 1467.88 1738.51 1466.54 Q1740.75 1464.01 1741.63 1462.28 Q1742.54 1460.52 1742.54 1458.83 Q1742.54 1456.07 1740.59 1454.34 Q1738.67 1452.6 1735.57 1452.6 Q1733.37 1452.6 1730.91 1453.37 Q1728.48 1454.13 1725.71 1455.68 L1725.71 1450.96 Q1728.53 1449.82 1730.98 1449.25 Q1733.44 1448.67 1735.47 1448.67 Q1740.85 1448.67 1744.04 1451.35 Q1747.23 1454.04 1747.23 1458.53 Q1747.23 1460.66 1746.42 1462.58 Q1745.64 1464.48 1743.53 1467.07 Q1742.95 1467.74 1739.85 1470.96 Q1736.75 1474.15 1731.1 1479.92 Z" fill="#000000" fill-rule="evenodd" fill-opacity="1" /><path clip-path="url(#clip660)" d="M1767.23 1452.37 Q1763.62 1452.37 1761.79 1455.94 Q1759.99 1459.48 1759.99 1466.61 Q1759.99 1473.71 1761.79 1477.28 Q1763.62 1480.82 1767.23 1480.82 Q1770.87 1480.82 1772.67 1477.28 Q1774.5 1473.71 1774.5 1466.61 Q1774.5 1459.48 1772.67 1455.94 Q1770.87 1452.37 1767.23 1452.37 M1767.23 1448.67 Q1773.04 1448.67 1776.1 1453.27 Q1779.18 1457.86 1779.18 1466.61 Q1779.18 1475.33 1776.1 1479.94 Q1773.04 1484.52 1767.23 1484.52 Q1761.42 1484.52 1758.35 1479.94 Q1755.29 1475.33 1755.29 1466.61 Q1755.29 1457.86 1758.35 1453.27 Q1761.42 1448.67 1767.23 1448.67 Z" fill="#000000" fill-rule="evenodd" fill-opacity="1" /><path clip-path="url(#clip660)" d="M2182.37 1479.92 L2198.69 1479.92 L2198.69 1483.85 L2176.75 1483.85 L2176.75 1479.92 Q2179.41 1477.16 2183.99 1472.53 Q2188.6 1467.88 2189.78 1466.54 Q2192.02 1464.01 2192.9 1462.28 Q2193.81 1460.52 2193.81 1458.83 Q2193.81 1456.07 2191.86 1454.34 Q2189.94 1452.6 2186.84 1452.6 Q2184.64 1452.6 2182.19 1453.37 Q2179.75 1454.13 2176.98 1455.68 L2176.98 1450.96 Q2179.8 1449.82 2182.25 1449.25 Q2184.71 1448.67 2186.75 1448.67 Q2192.12 1448.67 2195.31 1451.35 Q2198.5 1454.04 2198.5 1458.53 Q2198.5 1460.66 2197.69 1462.58 Q2196.91 1464.48 2194.8 1467.07 Q2194.22 1467.74 2191.12 1470.96 Q2188.02 1474.15 2182.37 1479.92 Z" fill="#000000" fill-rule="evenodd" fill-opacity="1" /><path clip-path="url(#clip660)" d="M2208.55 1449.29 L2226.91 1449.29 L2226.91 1453.23 L2212.83 1453.23 L2212.83 1461.7 Q2213.85 1461.35 2214.87 1461.19 Q2215.89 1461 2216.91 1461 Q2222.69 1461 2226.07 1464.18 Q2229.45 1467.35 2229.45 1472.76 Q2229.45 1478.34 2225.98 1481.44 Q2222.51 1484.52 2216.19 1484.52 Q2214.01 1484.52 2211.75 1484.15 Q2209.5 1483.78 2207.09 1483.04 L2207.09 1478.34 Q2209.18 1479.48 2211.4 1480.03 Q2213.62 1480.59 2216.1 1480.59 Q2220.1 1480.59 2222.44 1478.48 Q2224.78 1476.38 2224.78 1472.76 Q2224.78 1469.15 2222.44 1467.05 Q2220.1 1464.94 2216.1 1464.94 Q2214.22 1464.94 2212.35 1465.36 Q2210.5 1465.77 2208.55 1466.65 L2208.55 1449.29 Z" fill="#000000" fill-rule="evenodd" fill-opacity="1" /><path clip-path="url(#clip660)" d="M1062.51 1568.04 L1062.51 1553.05 L1051.59 1553.05 Q1046.72 1553.05 1043.47 1550.03 Q1040.54 1547.29 1040.54 1541.44 L1040.54 1532.4 L1046.4 1532.4 L1046.4 1540.89 Q1046.4 1544.62 1048.06 1546.5 Q1049.74 1548.37 1053.05 1548.37 L1062.51 1548.37 L1062.51 1532.4 L1068.36 1532.4 L1068.36 1568.04 L1062.51 1568.04 Z" fill="#000000" fill-rule="evenodd" fill-opacity="1" /><path clip-path="url(#clip660)" d="M1110.73 1532.4 L1110.73 1568.04 L1104.9 1568.04 L1104.9 1539.43 L1087.71 1568.04 L1080.2 1568.04 L1080.2 1532.4 L1086.03 1532.4 L1086.03 1560.95 L1103.18 1532.4 L1110.73 1532.4 Z" fill="#000000" fill-rule="evenodd" fill-opacity="1" /><path clip-path="url(#clip660)" d="M1148.44 1533.76 L1148.44 1539.24 Q1145.96 1537.87 1143.45 1537.2 Q1140.96 1536.5 1138.42 1536.5 Q1132.72 1536.5 1129.57 1540.13 Q1126.42 1543.73 1126.42 1550.25 Q1126.42 1556.78 1129.57 1560.4 Q1132.72 1564 1138.42 1564 Q1140.96 1564 1143.45 1563.33 Q1145.96 1562.63 1148.44 1561.26 L1148.44 1566.68 Q1145.99 1567.82 1143.35 1568.39 Q1140.74 1568.97 1137.78 1568.97 Q1129.73 1568.97 1124.99 1563.91 Q1120.24 1558.85 1120.24 1550.25 Q1120.24 1541.53 1125.02 1536.53 Q1129.82 1531.54 1138.16 1531.54 Q1140.87 1531.54 1143.45 1532.11 Q1146.02 1532.65 1148.44 1533.76 Z" fill="#000000" fill-rule="evenodd" fill-opacity="1" /><path clip-path="url(#clip660)" d="M1154.9 1568.04 L1154.9 1563.17 Q1160.7 1562.28 1162.48 1558.27 Q1164.64 1552.64 1164.64 1538.22 L1164.64 1532.4 L1188.74 1532.4 L1188.74 1568.04 L1182.88 1568.04 L1182.88 1537.07 L1170.5 1537.07 L1170.5 1540.61 Q1170.5 1554.36 1167.7 1560.53 Q1164.71 1567.12 1154.9 1568.04 Z" fill="#000000" fill-rule="evenodd" fill-opacity="1" /><path clip-path="url(#clip660)" d="M1214.11 1536.5 Q1209.39 1536.5 1206.66 1540.19 Q1203.92 1543.85 1203.92 1550.25 Q1203.92 1556.65 1206.63 1560.34 Q1209.36 1564 1214.11 1564 Q1218.78 1564 1221.52 1560.31 Q1224.26 1556.62 1224.26 1550.25 Q1224.26 1543.92 1221.52 1540.23 Q1218.78 1536.5 1214.11 1536.5 M1214.11 1531.54 Q1221.74 1531.54 1226.1 1536.5 Q1230.47 1541.47 1230.47 1550.25 Q1230.47 1559 1226.1 1564 Q1221.74 1568.97 1214.11 1568.97 Q1206.43 1568.97 1202.07 1564 Q1197.75 1559 1197.75 1550.25 Q1197.75 1541.47 1202.07 1536.5 Q1206.43 1531.54 1214.11 1531.54 Z" fill="#000000" fill-rule="evenodd" fill-opacity="1" /><path clip-path="url(#clip660)" d="M1274.71 1536.5 Q1270 1536.5 1267.26 1540.19 Q1264.52 1543.85 1264.52 1550.25 Q1264.52 1556.65 1267.23 1560.34 Q1269.96 1564 1274.71 1564 Q1279.39 1564 1282.12 1560.31 Q1284.86 1556.62 1284.86 1550.25 Q1284.86 1543.92 1282.12 1540.23 Q1279.39 1536.5 1274.71 1536.5 M1274.71 1531.54 Q1282.35 1531.54 1286.71 1536.5 Q1291.07 1541.47 1291.07 1550.25 Q1291.07 1559 1286.71 1564 Q1282.35 1568.97 1274.71 1568.97 Q1267.04 1568.97 1262.68 1564 Q1258.35 1559 1258.35 1550.25 Q1258.35 1541.47 1262.68 1536.5 Q1267.04 1531.54 1274.71 1531.54 Z" fill="#000000" fill-rule="evenodd" fill-opacity="1" /><path clip-path="url(#clip660)" d="M1296.54 1532.4 L1330.69 1532.4 L1330.69 1537.07 L1316.5 1537.07 L1316.5 1568.04 L1310.74 1568.04 L1310.74 1537.07 L1296.54 1537.07 L1296.54 1532.4 Z" fill="#000000" fill-rule="evenodd" fill-opacity="1" /><path clip-path="url(#clip660)" d="M1344.41 1562.7 L1344.41 1581.6 L1338.52 1581.6 L1338.52 1532.4 L1344.41 1532.4 L1344.41 1537.81 Q1346.26 1534.62 1349.06 1533.1 Q1351.89 1531.54 1355.81 1531.54 Q1362.3 1531.54 1366.34 1536.69 Q1370.42 1541.85 1370.42 1550.25 Q1370.42 1558.65 1366.34 1563.81 Q1362.3 1568.97 1355.81 1568.97 Q1351.89 1568.97 1349.06 1567.44 Q1346.26 1565.88 1344.41 1562.7 M1364.34 1550.25 Q1364.34 1543.79 1361.66 1540.13 Q1359.02 1536.44 1354.37 1536.44 Q1349.73 1536.44 1347.05 1540.13 Q1344.41 1543.79 1344.41 1550.25 Q1344.41 1556.71 1347.05 1560.4 Q1349.73 1564.07 1354.37 1564.07 Q1359.02 1564.07 1361.66 1560.4 Q1364.34 1556.71 1364.34 1550.25 Z" fill="#000000" fill-rule="evenodd" fill-opacity="1" /><path clip-path="url(#clip660)" d="M1410.61 1548.76 L1410.61 1551.62 L1383.69 1551.62 Q1384.07 1557.67 1387.32 1560.85 Q1390.59 1564 1396.42 1564 Q1399.79 1564 1402.94 1563.17 Q1406.13 1562.35 1409.25 1560.69 L1409.25 1566.23 Q1406.09 1567.57 1402.78 1568.27 Q1399.47 1568.97 1396.07 1568.97 Q1387.54 1568.97 1382.54 1564 Q1377.58 1559.04 1377.58 1550.57 Q1377.58 1541.82 1382.29 1536.69 Q1387.03 1531.54 1395.05 1531.54 Q1402.24 1531.54 1406.41 1536.18 Q1410.61 1540.8 1410.61 1548.76 M1404.76 1547.04 Q1404.69 1542.23 1402.05 1539.37 Q1399.44 1536.5 1395.11 1536.5 Q1390.21 1536.5 1387.25 1539.27 Q1384.32 1542.04 1383.88 1547.07 L1404.76 1547.04 Z" fill="#000000" fill-rule="evenodd" fill-opacity="1" /><path clip-path="url(#clip660)" d="M1436.55 1548.82 Q1440.5 1549.58 1442.7 1551.91 Q1444.89 1554.23 1444.89 1557.67 Q1444.89 1563.17 1440.79 1566.07 Q1436.68 1568.97 1429.11 1568.97 Q1426.56 1568.97 1423.86 1568.52 Q1421.18 1568.08 1418.32 1567.18 L1418.32 1561.74 Q1420.58 1562.92 1423.28 1563.52 Q1425.99 1564.1 1428.95 1564.1 Q1433.75 1564.1 1436.43 1562.31 Q1439.13 1560.53 1439.13 1557.67 Q1439.13 1554.87 1436.75 1553.18 Q1434.36 1551.46 1430 1551.46 L1425.29 1551.46 L1425.29 1546.62 L1430.22 1546.62 Q1433.91 1546.62 1436.05 1545.22 Q1438.21 1543.79 1438.21 1541.56 Q1438.21 1539.53 1435.98 1538.06 Q1433.79 1536.6 1430 1536.6 Q1427.74 1536.6 1425.16 1537.01 Q1422.61 1537.42 1419.53 1538.35 L1419.53 1533.03 Q1422.65 1532.27 1425.35 1531.89 Q1428.06 1531.5 1430.48 1531.5 Q1436.71 1531.5 1440.31 1534.02 Q1443.94 1536.5 1443.94 1540.99 Q1443.94 1543.95 1442.03 1546.02 Q1440.12 1548.06 1436.55 1548.82 Z" fill="#000000" fill-rule="evenodd" fill-opacity="1" /><path clip-path="url(#clip660)" d="M1454.67 1532.4 L1460.49 1532.4 L1460.49 1549.14 L1477.01 1532.4 L1484.2 1532.4 L1470.58 1546.18 L1485.95 1568.04 L1479.4 1568.04 L1466.76 1550.06 L1460.49 1556.43 L1460.49 1568.04 L1454.67 1568.04 L1454.67 1532.4 Z" fill="#000000" fill-rule="evenodd" fill-opacity="1" /><path clip-path="url(#clip660)" d="M1508.07 1536.5 Q1503.36 1536.5 1500.63 1540.19 Q1497.89 1543.85 1497.89 1550.25 Q1497.89 1556.65 1500.59 1560.34 Q1503.33 1564 1508.07 1564 Q1512.75 1564 1515.49 1560.31 Q1518.23 1556.62 1518.23 1550.25 Q1518.23 1543.92 1515.49 1540.23 Q1512.75 1536.5 1508.07 1536.5 M1508.07 1531.54 Q1515.71 1531.54 1520.07 1536.5 Q1524.43 1541.47 1524.43 1550.25 Q1524.43 1559 1520.07 1564 Q1515.71 1568.97 1508.07 1568.97 Q1500.4 1568.97 1496.04 1564 Q1491.71 1559 1491.71 1550.25 Q1491.71 1541.47 1496.04 1536.5 Q1500.4 1531.54 1508.07 1531.54 Z" fill="#000000" fill-rule="evenodd" fill-opacity="1" /><path clip-path="url(#clip660)" d="M1539.77 1551.62 L1539.77 1563.37 L1548.11 1563.37 Q1552.12 1563.37 1554.22 1561.87 Q1556.33 1560.34 1556.33 1557.48 Q1556.33 1554.61 1554.22 1553.12 Q1552.12 1551.62 1548.11 1551.62 L1539.77 1551.62 M1539.77 1537.07 L1539.77 1546.94 L1547.48 1546.94 Q1550.79 1546.94 1552.89 1545.64 Q1554.99 1544.3 1554.99 1541.94 Q1554.99 1539.59 1552.89 1538.35 Q1550.79 1537.07 1547.48 1537.07 L1539.77 1537.07 M1533.92 1532.4 L1547.86 1532.4 Q1554.13 1532.4 1557.5 1534.69 Q1560.88 1536.98 1560.88 1541.21 Q1560.88 1544.49 1559.16 1546.43 Q1557.44 1548.34 1554.07 1548.82 Q1558.11 1549.58 1560.34 1552 Q1562.56 1554.42 1562.56 1558.05 Q1562.56 1562.82 1558.87 1565.43 Q1555.21 1568.04 1548.4 1568.04 L1533.92 1568.04 L1533.92 1532.4 Z" fill="#000000" fill-rule="evenodd" fill-opacity="1" /><polyline clip-path="url(#clip662)" style="stroke:#000000; stroke-linecap:butt; stroke-linejoin:round; stroke-width:2; stroke-opacity:0.1; fill:none" points="
  250.352,1255.06 2352.76,1255.06 
  "/>
<polyline clip-path="url(#clip662)" style="stroke:#000000; stroke-linecap:butt; stroke-linejoin:round; stroke-width:2; stroke-opacity:0.1; fill:none" points="
  250.352,1031.13 2352.76,1031.13 
  "/>
<polyline clip-path="url(#clip662)" style="stroke:#000000; stroke-linecap:butt; stroke-linejoin:round; stroke-width:2; stroke-opacity:0.1; fill:none" points="
  250.352,807.197 2352.76,807.197 
  "/>
<polyline clip-path="url(#clip662)" style="stroke:#000000; stroke-linecap:butt; stroke-linejoin:round; stroke-width:2; stroke-opacity:0.1; fill:none" points="
  250.352,583.267 2352.76,583.267 
  "/>
<polyline clip-path="url(#clip662)" style="stroke:#000000; stroke-linecap:butt; stroke-linejoin:round; stroke-width:2; stroke-opacity:0.1; fill:none" points="
  250.352,359.337 2352.76,359.337 
  "/>
<polyline clip-path="url(#clip662)" style="stroke:#000000; stroke-linecap:butt; stroke-linejoin:round; stroke-width:2; stroke-opacity:0.1; fill:none" points="
  250.352,135.407 2352.76,135.407 
  "/>
<polyline clip-path="url(#clip660)" style="stroke:#000000; stroke-linecap:butt; stroke-linejoin:round; stroke-width:4; stroke-opacity:1; fill:none" points="
  250.352,1423.18 250.352,47.2441 
  "/>
<polyline clip-path="url(#clip660)" style="stroke:#000000; stroke-linecap:butt; stroke-linejoin:round; stroke-width:4; stroke-opacity:1; fill:none" points="
  250.352,1255.06 269.25,1255.06 
  "/>
<polyline clip-path="url(#clip660)" style="stroke:#000000; stroke-linecap:butt; stroke-linejoin:round; stroke-width:4; stroke-opacity:1; fill:none" points="
  250.352,1031.13 269.25,1031.13 
  "/>
<polyline clip-path="url(#clip660)" style="stroke:#000000; stroke-linecap:butt; stroke-linejoin:round; stroke-width:4; stroke-opacity:1; fill:none" points="
  250.352,807.197 269.25,807.197 
  "/>
<polyline clip-path="url(#clip660)" style="stroke:#000000; stroke-linecap:butt; stroke-linejoin:round; stroke-width:4; stroke-opacity:1; fill:none" points="
  250.352,583.267 269.25,583.267 
  "/>
<polyline clip-path="url(#clip660)" style="stroke:#000000; stroke-linecap:butt; stroke-linejoin:round; stroke-width:4; stroke-opacity:1; fill:none" points="
  250.352,359.337 269.25,359.337 
  "/>
<polyline clip-path="url(#clip660)" style="stroke:#000000; stroke-linecap:butt; stroke-linejoin:round; stroke-width:4; stroke-opacity:1; fill:none" points="
  250.352,135.407 269.25,135.407 
  "/>
<path clip-path="url(#clip660)" d="M130.857 1241.85 L119.052 1260.3 L130.857 1260.3 L130.857 1241.85 M129.63 1237.78 L135.51 1237.78 L135.51 1260.3 L140.441 1260.3 L140.441 1264.19 L135.51 1264.19 L135.51 1272.34 L130.857 1272.34 L130.857 1264.19 L115.256 1264.19 L115.256 1259.67 L129.63 1237.78 Z" fill="#000000" fill-rule="evenodd" fill-opacity="1" /><path clip-path="url(#clip660)" d="M148.172 1266.46 L153.056 1266.46 L153.056 1272.34 L148.172 1272.34 L148.172 1266.46 Z" fill="#000000" fill-rule="evenodd" fill-opacity="1" /><path clip-path="url(#clip660)" d="M173.241 1240.85 Q169.63 1240.85 167.802 1244.42 Q165.996 1247.96 165.996 1255.09 Q165.996 1262.2 167.802 1265.76 Q169.63 1269.3 173.241 1269.3 Q176.876 1269.3 178.681 1265.76 Q180.51 1262.2 180.51 1255.09 Q180.51 1247.96 178.681 1244.42 Q176.876 1240.85 173.241 1240.85 M173.241 1237.15 Q179.051 1237.15 182.107 1241.76 Q185.186 1246.34 185.186 1255.09 Q185.186 1263.82 182.107 1268.42 Q179.051 1273.01 173.241 1273.01 Q167.431 1273.01 164.352 1268.42 Q161.297 1263.82 161.297 1255.09 Q161.297 1246.34 164.352 1241.76 Q167.431 1237.15 173.241 1237.15 Z" fill="#000000" fill-rule="evenodd" fill-opacity="1" /><path clip-path="url(#clip660)" d="M193.45 1237.78 L211.806 1237.78 L211.806 1241.71 L197.732 1241.71 L197.732 1250.18 Q198.75 1249.84 199.769 1249.67 Q200.787 1249.49 201.806 1249.49 Q207.593 1249.49 210.973 1252.66 Q214.352 1255.83 214.352 1261.25 Q214.352 1266.83 210.88 1269.93 Q207.408 1273.01 201.088 1273.01 Q198.912 1273.01 196.644 1272.64 Q194.399 1272.27 191.991 1271.53 L191.991 1266.83 Q194.075 1267.96 196.297 1268.52 Q198.519 1269.07 200.996 1269.07 Q205 1269.07 207.338 1266.97 Q209.676 1264.86 209.676 1261.25 Q209.676 1257.64 207.338 1255.53 Q205 1253.42 200.996 1253.42 Q199.121 1253.42 197.246 1253.84 Q195.394 1254.26 193.45 1255.14 L193.45 1237.78 Z" fill="#000000" fill-rule="evenodd" fill-opacity="1" /><path clip-path="url(#clip660)" d="M129.862 1017.92 L118.056 1036.37 L129.862 1036.37 L129.862 1017.92 M128.635 1013.85 L134.515 1013.85 L134.515 1036.37 L139.445 1036.37 L139.445 1040.26 L134.515 1040.26 L134.515 1048.41 L129.862 1048.41 L129.862 1040.26 L114.26 1040.26 L114.26 1035.74 L128.635 1013.85 Z" fill="#000000" fill-rule="evenodd" fill-opacity="1" /><path clip-path="url(#clip660)" d="M147.177 1042.53 L152.061 1042.53 L152.061 1048.41 L147.177 1048.41 L147.177 1042.53 Z" fill="#000000" fill-rule="evenodd" fill-opacity="1" /><path clip-path="url(#clip660)" d="M163.056 1044.47 L170.695 1044.47 L170.695 1018.11 L162.385 1019.77 L162.385 1015.51 L170.649 1013.85 L175.325 1013.85 L175.325 1044.47 L182.963 1044.47 L182.963 1048.41 L163.056 1048.41 L163.056 1044.47 Z" fill="#000000" fill-rule="evenodd" fill-opacity="1" /><path clip-path="url(#clip660)" d="M202.408 1016.93 Q198.797 1016.93 196.968 1020.49 Q195.163 1024.03 195.163 1031.16 Q195.163 1038.27 196.968 1041.83 Q198.797 1045.37 202.408 1045.37 Q206.042 1045.37 207.848 1041.83 Q209.676 1038.27 209.676 1031.16 Q209.676 1024.03 207.848 1020.49 Q206.042 1016.93 202.408 1016.93 M202.408 1013.22 Q208.218 1013.22 211.274 1017.83 Q214.352 1022.41 214.352 1031.16 Q214.352 1039.89 211.274 1044.49 Q208.218 1049.08 202.408 1049.08 Q196.598 1049.08 193.519 1044.49 Q190.463 1039.89 190.463 1031.16 Q190.463 1022.41 193.519 1017.83 Q196.598 1013.22 202.408 1013.22 Z" fill="#000000" fill-rule="evenodd" fill-opacity="1" /><path clip-path="url(#clip660)" d="M130.857 793.991 L119.052 812.44 L130.857 812.44 L130.857 793.991 M129.63 789.917 L135.51 789.917 L135.51 812.44 L140.441 812.44 L140.441 816.328 L135.51 816.328 L135.51 824.477 L130.857 824.477 L130.857 816.328 L115.256 816.328 L115.256 811.815 L129.63 789.917 Z" fill="#000000" fill-rule="evenodd" fill-opacity="1" /><path clip-path="url(#clip660)" d="M148.172 818.597 L153.056 818.597 L153.056 824.477 L148.172 824.477 L148.172 818.597 Z" fill="#000000" fill-rule="evenodd" fill-opacity="1" /><path clip-path="url(#clip660)" d="M164.052 820.541 L171.69 820.541 L171.69 794.176 L163.38 795.842 L163.38 791.583 L171.644 789.917 L176.32 789.917 L176.32 820.541 L183.959 820.541 L183.959 824.477 L164.052 824.477 L164.052 820.541 Z" fill="#000000" fill-rule="evenodd" fill-opacity="1" /><path clip-path="url(#clip660)" d="M193.45 789.917 L211.806 789.917 L211.806 793.852 L197.732 793.852 L197.732 802.324 Q198.75 801.977 199.769 801.815 Q200.787 801.629 201.806 801.629 Q207.593 801.629 210.973 804.801 Q214.352 807.972 214.352 813.389 Q214.352 818.967 210.88 822.069 Q207.408 825.148 201.088 825.148 Q198.912 825.148 196.644 824.777 Q194.399 824.407 191.991 823.666 L191.991 818.967 Q194.075 820.102 196.297 820.657 Q198.519 821.213 200.996 821.213 Q205 821.213 207.338 819.106 Q209.676 817 209.676 813.389 Q209.676 809.778 207.338 807.671 Q205 805.565 200.996 805.565 Q199.121 805.565 197.246 805.981 Q195.394 806.398 193.45 807.278 L193.45 789.917 Z" fill="#000000" fill-rule="evenodd" fill-opacity="1" /><path clip-path="url(#clip660)" d="M129.862 570.061 L118.056 588.51 L129.862 588.51 L129.862 570.061 M128.635 565.987 L134.515 565.987 L134.515 588.51 L139.445 588.51 L139.445 592.399 L134.515 592.399 L134.515 600.547 L129.862 600.547 L129.862 592.399 L114.26 592.399 L114.26 587.885 L128.635 565.987 Z" fill="#000000" fill-rule="evenodd" fill-opacity="1" /><path clip-path="url(#clip660)" d="M147.177 594.667 L152.061 594.667 L152.061 600.547 L147.177 600.547 L147.177 594.667 Z" fill="#000000" fill-rule="evenodd" fill-opacity="1" /><path clip-path="url(#clip660)" d="M166.274 596.612 L182.593 596.612 L182.593 600.547 L160.649 600.547 L160.649 596.612 Q163.311 593.857 167.894 589.227 Q172.501 584.575 173.681 583.232 Q175.926 580.709 176.806 578.973 Q177.709 577.214 177.709 575.524 Q177.709 572.769 175.764 571.033 Q173.843 569.297 170.741 569.297 Q168.542 569.297 166.089 570.061 Q163.658 570.825 160.88 572.376 L160.88 567.653 Q163.704 566.519 166.158 565.94 Q168.612 565.362 170.649 565.362 Q176.019 565.362 179.214 568.047 Q182.408 570.732 182.408 575.223 Q182.408 577.352 181.598 579.274 Q180.811 581.172 178.704 583.764 Q178.126 584.436 175.024 587.653 Q171.922 590.848 166.274 596.612 Z" fill="#000000" fill-rule="evenodd" fill-opacity="1" /><path clip-path="url(#clip660)" d="M202.408 569.065 Q198.797 569.065 196.968 572.63 Q195.163 576.172 195.163 583.301 Q195.163 590.408 196.968 593.973 Q198.797 597.514 202.408 597.514 Q206.042 597.514 207.848 593.973 Q209.676 590.408 209.676 583.301 Q209.676 576.172 207.848 572.63 Q206.042 569.065 202.408 569.065 M202.408 565.362 Q208.218 565.362 211.274 569.968 Q214.352 574.551 214.352 583.301 Q214.352 592.028 211.274 596.635 Q208.218 601.218 202.408 601.218 Q196.598 601.218 193.519 596.635 Q190.463 592.028 190.463 583.301 Q190.463 574.551 193.519 569.968 Q196.598 565.362 202.408 565.362 Z" fill="#000000" fill-rule="evenodd" fill-opacity="1" /><path clip-path="url(#clip660)" d="M130.857 346.131 L119.052 364.58 L130.857 364.58 L130.857 346.131 M129.63 342.057 L135.51 342.057 L135.51 364.58 L140.441 364.58 L140.441 368.469 L135.51 368.469 L135.51 376.617 L130.857 376.617 L130.857 368.469 L115.256 368.469 L115.256 363.955 L129.63 342.057 Z" fill="#000000" fill-rule="evenodd" fill-opacity="1" /><path clip-path="url(#clip660)" d="M148.172 370.737 L153.056 370.737 L153.056 376.617 L148.172 376.617 L148.172 370.737 Z" fill="#000000" fill-rule="evenodd" fill-opacity="1" /><path clip-path="url(#clip660)" d="M167.269 372.682 L183.588 372.682 L183.588 376.617 L161.644 376.617 L161.644 372.682 Q164.306 369.927 168.889 365.297 Q173.496 360.645 174.677 359.302 Q176.922 356.779 177.801 355.043 Q178.704 353.284 178.704 351.594 Q178.704 348.839 176.76 347.103 Q174.839 345.367 171.737 345.367 Q169.538 345.367 167.084 346.131 Q164.653 346.895 161.876 348.446 L161.876 343.724 Q164.7 342.589 167.153 342.011 Q169.607 341.432 171.644 341.432 Q177.014 341.432 180.209 344.117 Q183.403 346.802 183.403 351.293 Q183.403 353.423 182.593 355.344 Q181.806 357.242 179.7 359.835 Q179.121 360.506 176.019 363.723 Q172.917 366.918 167.269 372.682 Z" fill="#000000" fill-rule="evenodd" fill-opacity="1" /><path clip-path="url(#clip660)" d="M193.45 342.057 L211.806 342.057 L211.806 345.992 L197.732 345.992 L197.732 354.464 Q198.75 354.117 199.769 353.955 Q200.787 353.77 201.806 353.77 Q207.593 353.77 210.973 356.941 Q214.352 360.112 214.352 365.529 Q214.352 371.108 210.88 374.209 Q207.408 377.288 201.088 377.288 Q198.912 377.288 196.644 376.918 Q194.399 376.547 191.991 375.807 L191.991 371.108 Q194.075 372.242 196.297 372.797 Q198.519 373.353 200.996 373.353 Q205 373.353 207.338 371.247 Q209.676 369.14 209.676 365.529 Q209.676 361.918 207.338 359.811 Q205 357.705 200.996 357.705 Q199.121 357.705 197.246 358.122 Q195.394 358.538 193.45 359.418 L193.45 342.057 Z" fill="#000000" fill-rule="evenodd" fill-opacity="1" /><path clip-path="url(#clip660)" d="M129.862 122.201 L118.056 140.65 L129.862 140.65 L129.862 122.201 M128.635 118.127 L134.515 118.127 L134.515 140.65 L139.445 140.65 L139.445 144.539 L134.515 144.539 L134.515 152.687 L129.862 152.687 L129.862 144.539 L114.26 144.539 L114.26 140.025 L128.635 118.127 Z" fill="#000000" fill-rule="evenodd" fill-opacity="1" /><path clip-path="url(#clip660)" d="M147.177 146.807 L152.061 146.807 L152.061 152.687 L147.177 152.687 L147.177 146.807 Z" fill="#000000" fill-rule="evenodd" fill-opacity="1" /><path clip-path="url(#clip660)" d="M176.413 134.053 Q179.769 134.77 181.644 137.039 Q183.542 139.307 183.542 142.641 Q183.542 147.757 180.024 150.557 Q176.505 153.358 170.024 153.358 Q167.848 153.358 165.533 152.919 Q163.241 152.502 160.788 151.645 L160.788 147.132 Q162.732 148.266 165.047 148.844 Q167.362 149.423 169.885 149.423 Q174.283 149.423 176.575 147.687 Q178.889 145.951 178.889 142.641 Q178.889 139.585 176.737 137.872 Q174.607 136.136 170.788 136.136 L166.76 136.136 L166.76 132.294 L170.973 132.294 Q174.422 132.294 176.251 130.928 Q178.079 129.539 178.079 126.946 Q178.079 124.284 176.181 122.872 Q174.306 121.437 170.788 121.437 Q168.866 121.437 166.667 121.854 Q164.468 122.271 161.829 123.15 L161.829 118.984 Q164.491 118.243 166.806 117.872 Q169.144 117.502 171.204 117.502 Q176.528 117.502 179.63 119.933 Q182.732 122.34 182.732 126.46 Q182.732 129.331 181.089 131.321 Q179.445 133.289 176.413 134.053 Z" fill="#000000" fill-rule="evenodd" fill-opacity="1" /><path clip-path="url(#clip660)" d="M202.408 121.206 Q198.797 121.206 196.968 124.771 Q195.163 128.312 195.163 135.442 Q195.163 142.548 196.968 146.113 Q198.797 149.655 202.408 149.655 Q206.042 149.655 207.848 146.113 Q209.676 142.548 209.676 135.442 Q209.676 128.312 207.848 124.771 Q206.042 121.206 202.408 121.206 M202.408 117.502 Q208.218 117.502 211.274 122.108 Q214.352 126.692 214.352 135.442 Q214.352 144.169 211.274 148.775 Q208.218 153.358 202.408 153.358 Q196.598 153.358 193.519 148.775 Q190.463 144.169 190.463 135.442 Q190.463 126.692 193.519 122.108 Q196.598 117.502 202.408 117.502 Z" fill="#000000" fill-rule="evenodd" fill-opacity="1" /><path clip-path="url(#clip660)" d="M28.3562 859.168 L64.0042 859.168 L64.0042 864.993 L35.3903 864.993 L64.0042 882.18 L64.0042 889.692 L28.3562 889.692 L28.3562 883.867 L56.9064 883.867 L28.3562 866.712 L28.3562 859.168 Z" fill="#000000" fill-rule="evenodd" fill-opacity="1" /><path clip-path="url(#clip660)" d="M28.3562 847.328 L28.3562 841.44 L42.9018 841.44 L42.9018 822.438 L28.3562 822.438 L28.3562 816.55 L64.0042 816.55 L64.0042 822.438 L47.5806 822.438 L47.5806 841.44 L64.0042 841.44 L64.0042 847.328 L28.3562 847.328 Z" fill="#000000" fill-rule="evenodd" fill-opacity="1" /><path clip-path="url(#clip660)" d="M28.3562 808.72 L28.3562 774.568 L33.035 774.568 L33.035 788.763 L64.0042 788.763 L64.0042 794.524 L33.035 794.524 L33.035 808.72 L28.3562 808.72 Z" fill="#000000" fill-rule="evenodd" fill-opacity="1" /><path clip-path="url(#clip660)" d="M44.7161 736.024 L47.5806 736.024 L47.5806 762.951 Q53.6281 762.569 56.8109 759.322 Q59.9619 756.044 59.9619 750.219 Q59.9619 746.845 59.1344 743.694 Q58.3069 740.511 56.6518 737.392 L62.1899 737.392 Q63.5267 740.543 64.227 743.853 Q64.9272 747.164 64.9272 750.569 Q64.9272 759.099 59.9619 764.096 Q54.9967 769.062 46.5303 769.062 Q37.7774 769.062 32.6531 764.351 Q27.4968 759.609 27.4968 751.588 Q27.4968 744.395 32.1438 740.225 Q36.7589 736.024 44.7161 736.024 M42.9973 741.88 Q38.1912 741.944 35.3266 744.585 Q32.4621 747.195 32.4621 751.524 Q32.4621 756.426 35.2312 759.386 Q38.0002 762.314 43.0292 762.76 L42.9973 741.88 Z" fill="#000000" fill-rule="evenodd" fill-opacity="1" /><path clip-path="url(#clip660)" d="M64.0042 726.634 L28.3562 726.634 L28.3562 701.49 L33.035 701.49 L33.035 720.746 L64.0042 720.746 L64.0042 726.634 Z" fill="#000000" fill-rule="evenodd" fill-opacity="1" /><path clip-path="url(#clip660)" d="M58.657 686.498 L77.5631 686.498 L77.5631 692.387 L28.3562 692.387 L28.3562 686.498 L33.7671 686.498 Q30.5842 684.652 29.0564 681.851 Q27.4968 679.019 27.4968 675.104 Q27.4968 668.611 32.6531 664.569 Q37.8093 660.494 46.212 660.494 Q54.6147 660.494 59.771 664.569 Q64.9272 668.611 64.9272 675.104 Q64.9272 679.019 63.3994 681.851 Q61.8398 684.652 58.657 686.498 M46.212 666.574 Q39.7508 666.574 36.0905 669.247 Q32.3984 671.889 32.3984 676.536 Q32.3984 681.183 36.0905 683.857 Q39.7508 686.498 46.212 686.498 Q52.6732 686.498 56.3653 683.857 Q60.0256 681.183 60.0256 676.536 Q60.0256 671.889 56.3653 669.247 Q52.6732 666.574 46.212 666.574 Z" fill="#000000" fill-rule="evenodd" fill-opacity="1" /><path clip-path="url(#clip660)" d="M46.0847 634.586 Q46.0847 641.684 47.7079 644.421 Q49.3312 647.158 53.2461 647.158 Q56.3653 647.158 58.2114 645.121 Q60.0256 643.052 60.0256 639.519 Q60.0256 634.65 56.5881 631.721 Q53.1188 628.761 47.3897 628.761 L46.0847 628.761 L46.0847 634.586 M43.6657 622.905 L64.0042 622.905 L64.0042 628.761 L58.5933 628.761 Q61.8398 630.767 63.3994 633.759 Q64.9272 636.75 64.9272 641.079 Q64.9272 646.554 61.8716 649.8 Q58.7843 653.015 53.6281 653.015 Q47.6125 653.015 44.5569 649.004 Q41.5014 644.962 41.5014 636.973 L41.5014 628.761 L40.9285 628.761 Q36.8862 628.761 34.6901 631.435 Q32.4621 634.077 32.4621 638.883 Q32.4621 641.938 33.1941 644.835 Q33.9262 647.731 35.3903 650.405 L29.9795 650.405 Q28.7381 647.19 28.1334 644.166 Q27.4968 641.143 27.4968 638.278 Q27.4968 630.544 31.5072 626.724 Q35.5176 622.905 43.6657 622.905 Z" fill="#000000" fill-rule="evenodd" fill-opacity="1" /><path clip-path="url(#clip660)" d="M64.0042 614.566 L59.1344 614.566 Q58.2432 608.773 54.2328 606.991 Q48.5991 604.826 34.1808 604.826 L28.3562 604.826 L28.3562 580.732 L64.0042 580.732 L64.0042 586.589 L33.035 586.589 L33.035 598.97 L36.568 598.97 Q50.3179 598.97 56.4926 601.771 Q63.0811 604.763 64.0042 614.566 Z" fill="#000000" fill-rule="evenodd" fill-opacity="1" /><polyline clip-path="url(#clip662)" style="stroke:#009af9; stroke-linecap:butt; stroke-linejoin:round; stroke-width:4; stroke-opacity:1; fill:none" points="
  309.854,106.861 490.163,581.61 670.472,745.55 850.781,822.263 1031.09,864.131 1211.4,889.439 1391.71,905.89 1572.02,917.18 1752.33,925.26 1932.64,931.242 
  2112.94,935.793 2293.25,939.336 
  "/>
<path clip-path="url(#clip662)" d="M309.854 122.861 L298.542 118.173 L293.854 106.861 L298.542 95.5495 L309.854 90.8615 L321.166 95.5495 L325.854 106.861 L321.166 118.173 Z" fill="#009af9" fill-rule="evenodd" fill-opacity="1" stroke="#000000" stroke-opacity="1" stroke-width="3.2"/>
<path clip-path="url(#clip662)" d="M490.163 597.61 L478.851 592.922 L474.163 581.61 L478.851 570.298 L490.163 565.61 L501.475 570.298 L506.163 581.61 L501.475 592.922 Z" fill="#009af9" fill-rule="evenodd" fill-opacity="1" stroke="#000000" stroke-opacity="1" stroke-width="3.2"/>
<path clip-path="url(#clip662)" d="M670.472 761.55 L659.16 756.862 L654.472 745.55 L659.16 734.238 L670.472 729.55 L681.784 734.238 L686.472 745.55 L681.784 756.862 Z" fill="#009af9" fill-rule="evenodd" fill-opacity="1" stroke="#000000" stroke-opacity="1" stroke-width="3.2"/>
<path clip-path="url(#clip662)" d="M850.781 838.263 L839.469 833.575 L834.781 822.263 L839.469 810.951 L850.781 806.263 L862.093 810.951 L866.781 822.263 L862.093 833.575 Z" fill="#009af9" fill-rule="evenodd" fill-opacity="1" stroke="#000000" stroke-opacity="1" stroke-width="3.2"/>
<path clip-path="url(#clip662)" d="M1031.09 880.131 L1019.78 875.443 L1015.09 864.131 L1019.78 852.819 L1031.09 848.131 L1042.4 852.819 L1047.09 864.131 L1042.4 875.443 Z" fill="#009af9" fill-rule="evenodd" fill-opacity="1" stroke="#000000" stroke-opacity="1" stroke-width="3.2"/>
<path clip-path="url(#clip662)" d="M1211.4 905.439 L1200.09 900.751 L1195.4 889.439 L1200.09 878.127 L1211.4 873.439 L1222.71 878.127 L1227.4 889.439 L1222.71 900.751 Z" fill="#009af9" fill-rule="evenodd" fill-opacity="1" stroke="#000000" stroke-opacity="1" stroke-width="3.2"/>
<path clip-path="url(#clip662)" d="M1391.71 921.89 L1380.4 917.202 L1375.71 905.89 L1380.4 894.578 L1391.71 889.89 L1403.02 894.578 L1407.71 905.89 L1403.02 917.202 Z" fill="#009af9" fill-rule="evenodd" fill-opacity="1" stroke="#000000" stroke-opacity="1" stroke-width="3.2"/>
<path clip-path="url(#clip662)" d="M1572.02 933.18 L1560.71 928.492 L1556.02 917.18 L1560.71 905.868 L1572.02 901.18 L1583.33 905.868 L1588.02 917.18 L1583.33 928.492 Z" fill="#009af9" fill-rule="evenodd" fill-opacity="1" stroke="#000000" stroke-opacity="1" stroke-width="3.2"/>
<path clip-path="url(#clip662)" d="M1752.33 941.26 L1741.01 936.572 L1736.33 925.26 L1741.01 913.948 L1752.33 909.26 L1763.64 913.948 L1768.33 925.26 L1763.64 936.572 Z" fill="#009af9" fill-rule="evenodd" fill-opacity="1" stroke="#000000" stroke-opacity="1" stroke-width="3.2"/>
<path clip-path="url(#clip662)" d="M1932.64 947.242 L1921.32 942.554 L1916.64 931.242 L1921.32 919.93 L1932.64 915.242 L1943.95 919.93 L1948.64 931.242 L1943.95 942.554 Z" fill="#009af9" fill-rule="evenodd" fill-opacity="1" stroke="#000000" stroke-opacity="1" stroke-width="3.2"/>
<path clip-path="url(#clip662)" d="M2112.94 951.793 L2101.63 947.105 L2096.94 935.793 L2101.63 924.481 L2112.94 919.793 L2124.26 924.481 L2128.94 935.793 L2124.26 947.105 Z" fill="#009af9" fill-rule="evenodd" fill-opacity="1" stroke="#000000" stroke-opacity="1" stroke-width="3.2"/>
<path clip-path="url(#clip662)" d="M2293.25 955.336 L2281.94 950.648 L2277.25 939.336 L2281.94 928.024 L2293.25 923.336 L2304.57 928.024 L2309.25 939.336 L2304.57 950.648 Z" fill="#009af9" fill-rule="evenodd" fill-opacity="1" stroke="#000000" stroke-opacity="1" stroke-width="3.2"/>
<polyline clip-path="url(#clip662)" style="stroke:#e26f46; stroke-linecap:butt; stroke-linejoin:round; stroke-width:4; stroke-opacity:1; fill:none" points="
  309.854,86.1857 490.163,1111.39 670.472,958.446 850.781,954.534 1031.09,958.305 1211.4,959.025 1391.71,959.337 1572.02,959.501 1752.33,959.593 1932.64,959.647 
  2112.94,959.681 2293.25,959.702 
  "/>
<path clip-path="url(#clip662)" d="M309.854 102.186 L298.542 97.4977 L293.854 86.1857 L298.542 74.8737 L309.854 70.1857 L321.166 74.8737 L325.854 86.1857 L321.166 97.4977 Z" fill="#e26f46" fill-rule="evenodd" fill-opacity="1" stroke="#000000" stroke-opacity="1" stroke-width="3.2"/>
<path clip-path="url(#clip662)" d="M490.163 1127.39 L478.851 1122.7 L474.163 1111.39 L478.851 1100.08 L490.163 1095.39 L501.475 1100.08 L506.163 1111.39 L501.475 1122.7 Z" fill="#e26f46" fill-rule="evenodd" fill-opacity="1" stroke="#000000" stroke-opacity="1" stroke-width="3.2"/>
<path clip-path="url(#clip662)" d="M670.472 974.446 L659.16 969.758 L654.472 958.446 L659.16 947.134 L670.472 942.446 L681.784 947.134 L686.472 958.446 L681.784 969.758 Z" fill="#e26f46" fill-rule="evenodd" fill-opacity="1" stroke="#000000" stroke-opacity="1" stroke-width="3.2"/>
<path clip-path="url(#clip662)" d="M850.781 970.534 L839.469 965.846 L834.781 954.534 L839.469 943.222 L850.781 938.534 L862.093 943.222 L866.781 954.534 L862.093 965.846 Z" fill="#e26f46" fill-rule="evenodd" fill-opacity="1" stroke="#000000" stroke-opacity="1" stroke-width="3.2"/>
<path clip-path="url(#clip662)" d="M1031.09 974.305 L1019.78 969.617 L1015.09 958.305 L1019.78 946.993 L1031.09 942.305 L1042.4 946.993 L1047.09 958.305 L1042.4 969.617 Z" fill="#e26f46" fill-rule="evenodd" fill-opacity="1" stroke="#000000" stroke-opacity="1" stroke-width="3.2"/>
<path clip-path="url(#clip662)" d="M1211.4 975.025 L1200.09 970.337 L1195.4 959.025 L1200.09 947.713 L1211.4 943.025 L1222.71 947.713 L1227.4 959.025 L1222.71 970.337 Z" fill="#e26f46" fill-rule="evenodd" fill-opacity="1" stroke="#000000" stroke-opacity="1" stroke-width="3.2"/>
<path clip-path="url(#clip662)" d="M1391.71 975.337 L1380.4 970.649 L1375.71 959.337 L1380.4 948.025 L1391.71 943.337 L1403.02 948.025 L1407.71 959.337 L1403.02 970.649 Z" fill="#e26f46" fill-rule="evenodd" fill-opacity="1" stroke="#000000" stroke-opacity="1" stroke-width="3.2"/>
<path clip-path="url(#clip662)" d="M1572.02 975.501 L1560.71 970.813 L1556.02 959.501 L1560.71 948.189 L1572.02 943.501 L1583.33 948.189 L1588.02 959.501 L1583.33 970.813 Z" fill="#e26f46" fill-rule="evenodd" fill-opacity="1" stroke="#000000" stroke-opacity="1" stroke-width="3.2"/>
<path clip-path="url(#clip662)" d="M1752.33 975.593 L1741.01 970.905 L1736.33 959.593 L1741.01 948.281 L1752.33 943.593 L1763.64 948.281 L1768.33 959.593 L1763.64 970.905 Z" fill="#e26f46" fill-rule="evenodd" fill-opacity="1" stroke="#000000" stroke-opacity="1" stroke-width="3.2"/>
<path clip-path="url(#clip662)" d="M1932.64 975.647 L1921.32 970.959 L1916.64 959.647 L1921.32 948.335 L1932.64 943.647 L1943.95 948.335 L1948.64 959.647 L1943.95 970.959 Z" fill="#e26f46" fill-rule="evenodd" fill-opacity="1" stroke="#000000" stroke-opacity="1" stroke-width="3.2"/>
<path clip-path="url(#clip662)" d="M2112.94 975.681 L2101.63 970.993 L2096.94 959.681 L2101.63 948.369 L2112.94 943.681 L2124.26 948.369 L2128.94 959.681 L2124.26 970.993 Z" fill="#e26f46" fill-rule="evenodd" fill-opacity="1" stroke="#000000" stroke-opacity="1" stroke-width="3.2"/>
<path clip-path="url(#clip662)" d="M2293.25 975.702 L2281.94 971.014 L2277.25 959.702 L2281.94 948.39 L2293.25 943.702 L2304.57 948.39 L2309.25 959.702 L2304.57 971.014 Z" fill="#e26f46" fill-rule="evenodd" fill-opacity="1" stroke="#000000" stroke-opacity="1" stroke-width="3.2"/>
<polyline clip-path="url(#clip662)" style="stroke:#3da44d; stroke-linecap:butt; stroke-linejoin:round; stroke-width:4; stroke-opacity:1; fill:none" points="
  309.854,1384.24 490.163,1146.65 670.472,1066.23 850.781,1028.26 1031.09,1007.46 1211.4,994.856 1391.71,986.657 1572.02,981.026 1752.33,976.993 1932.64,974.007 
  2112.94,971.734 2293.25,969.965 
  "/>
<path clip-path="url(#clip662)" d="M309.854 1400.24 L298.542 1395.55 L293.854 1384.24 L298.542 1372.93 L309.854 1368.24 L321.166 1372.93 L325.854 1384.24 L321.166 1395.55 Z" fill="#3da44d" fill-rule="evenodd" fill-opacity="1" stroke="#000000" stroke-opacity="1" stroke-width="3.2"/>
<path clip-path="url(#clip662)" d="M490.163 1162.65 L478.851 1157.96 L474.163 1146.65 L478.851 1135.34 L490.163 1130.65 L501.475 1135.34 L506.163 1146.65 L501.475 1157.96 Z" fill="#3da44d" fill-rule="evenodd" fill-opacity="1" stroke="#000000" stroke-opacity="1" stroke-width="3.2"/>
<path clip-path="url(#clip662)" d="M670.472 1082.23 L659.16 1077.54 L654.472 1066.23 L659.16 1054.92 L670.472 1050.23 L681.784 1054.92 L686.472 1066.23 L681.784 1077.54 Z" fill="#3da44d" fill-rule="evenodd" fill-opacity="1" stroke="#000000" stroke-opacity="1" stroke-width="3.2"/>
<path clip-path="url(#clip662)" d="M850.781 1044.26 L839.469 1039.57 L834.781 1028.26 L839.469 1016.95 L850.781 1012.26 L862.093 1016.95 L866.781 1028.26 L862.093 1039.57 Z" fill="#3da44d" fill-rule="evenodd" fill-opacity="1" stroke="#000000" stroke-opacity="1" stroke-width="3.2"/>
<path clip-path="url(#clip662)" d="M1031.09 1023.46 L1019.78 1018.77 L1015.09 1007.46 L1019.78 996.143 L1031.09 991.455 L1042.4 996.143 L1047.09 1007.46 L1042.4 1018.77 Z" fill="#3da44d" fill-rule="evenodd" fill-opacity="1" stroke="#000000" stroke-opacity="1" stroke-width="3.2"/>
<path clip-path="url(#clip662)" d="M1211.4 1010.86 L1200.09 1006.17 L1195.4 994.856 L1200.09 983.544 L1211.4 978.856 L1222.71 983.544 L1227.4 994.856 L1222.71 1006.17 Z" fill="#3da44d" fill-rule="evenodd" fill-opacity="1" stroke="#000000" stroke-opacity="1" stroke-width="3.2"/>
<path clip-path="url(#clip662)" d="M1391.71 1002.66 L1380.4 997.969 L1375.71 986.657 L1380.4 975.345 L1391.71 970.657 L1403.02 975.345 L1407.71 986.657 L1403.02 997.969 Z" fill="#3da44d" fill-rule="evenodd" fill-opacity="1" stroke="#000000" stroke-opacity="1" stroke-width="3.2"/>
<path clip-path="url(#clip662)" d="M1572.02 997.026 L1560.71 992.338 L1556.02 981.026 L1560.71 969.714 L1572.02 965.026 L1583.33 969.714 L1588.02 981.026 L1583.33 992.338 Z" fill="#3da44d" fill-rule="evenodd" fill-opacity="1" stroke="#000000" stroke-opacity="1" stroke-width="3.2"/>
<path clip-path="url(#clip662)" d="M1752.33 992.993 L1741.01 988.305 L1736.33 976.993 L1741.01 965.681 L1752.33 960.993 L1763.64 965.681 L1768.33 976.993 L1763.64 988.305 Z" fill="#3da44d" fill-rule="evenodd" fill-opacity="1" stroke="#000000" stroke-opacity="1" stroke-width="3.2"/>
<path clip-path="url(#clip662)" d="M1932.64 990.007 L1921.32 985.319 L1916.64 974.007 L1921.32 962.695 L1932.64 958.007 L1943.95 962.695 L1948.64 974.007 L1943.95 985.319 Z" fill="#3da44d" fill-rule="evenodd" fill-opacity="1" stroke="#000000" stroke-opacity="1" stroke-width="3.2"/>
<path clip-path="url(#clip662)" d="M2112.94 987.734 L2101.63 983.046 L2096.94 971.734 L2101.63 960.422 L2112.94 955.734 L2124.26 960.422 L2128.94 971.734 L2124.26 983.046 Z" fill="#3da44d" fill-rule="evenodd" fill-opacity="1" stroke="#000000" stroke-opacity="1" stroke-width="3.2"/>
<path clip-path="url(#clip662)" d="M2293.25 985.965 L2281.94 981.277 L2277.25 969.965 L2281.94 958.653 L2293.25 953.965 L2304.57 958.653 L2309.25 969.965 L2304.57 981.277 Z" fill="#3da44d" fill-rule="evenodd" fill-opacity="1" stroke="#000000" stroke-opacity="1" stroke-width="3.2"/>
<path clip-path="url(#clip660)" d="
M1374.63 300.469 L2282.68 300.469 L2282.68 93.1086 L1374.63 93.1086  Z
  " fill="#ffffff" fill-rule="evenodd" fill-opacity="1"/>
<polyline clip-path="url(#clip660)" style="stroke:#000000; stroke-linecap:butt; stroke-linejoin:round; stroke-width:4; stroke-opacity:1; fill:none" points="
  1374.63,300.469 2282.68,300.469 2282.68,93.1086 1374.63,93.1086 1374.63,300.469 
  "/>
<polyline clip-path="url(#clip660)" style="stroke:#009af9; stroke-linecap:butt; stroke-linejoin:round; stroke-width:4; stroke-opacity:1; fill:none" points="
  1397.99,144.949 1538.15,144.949 
  "/>
<path clip-path="url(#clip660)" d="M1468.07 170.549 L1449.98 163.048 L1442.47 144.949 L1449.98 126.849 L1468.07 119.349 L1486.17 126.849 L1493.67 144.949 L1486.17 163.048 Z" fill="#009af9" fill-rule="evenodd" fill-opacity="1" stroke="#000000" stroke-opacity="1" stroke-width="5.12"/>
<path clip-path="url(#clip660)" d="M1565.94 149.289 Q1565.94 154.729 1567.6 157.043 Q1569.29 159.335 1572.14 159.335 Q1574.41 159.335 1577.05 155.446 L1577.05 143.131 Q1574.41 139.243 1572.14 139.243 Q1569.29 139.243 1567.6 141.557 Q1565.94 143.849 1565.94 149.289 M1577.05 172.09 L1577.05 158.918 Q1575.73 161.094 1574.2 161.997 Q1572.7 162.9 1570.77 162.9 Q1566.91 162.9 1564.2 159.335 Q1561.51 155.747 1561.51 149.381 Q1561.51 143.016 1564.2 139.358 Q1566.91 135.678 1570.77 135.678 Q1572.7 135.678 1574.2 136.557 Q1575.73 137.437 1577.05 139.613 L1577.05 127.669 L1581.33 127.669 L1581.33 139.613 Q1582.65 137.437 1584.15 136.557 Q1585.68 135.678 1587.6 135.678 Q1591.47 135.678 1594.15 139.358 Q1596.86 143.016 1596.86 149.381 Q1596.86 155.747 1594.15 159.335 Q1591.47 162.9 1587.6 162.9 Q1585.68 162.9 1584.15 161.997 Q1582.65 161.094 1581.33 158.918 L1581.33 172.09 L1577.05 172.09 M1592.44 149.289 Q1592.44 143.849 1590.75 141.557 Q1589.08 139.243 1586.24 139.243 Q1583.97 139.243 1581.33 143.131 L1581.33 155.446 Q1583.97 159.335 1586.24 159.335 Q1589.08 159.335 1590.75 157.043 Q1592.44 154.729 1592.44 149.289 Z" fill="#000000" fill-rule="evenodd" fill-opacity="1" /><path clip-path="url(#clip660)" d="M1613.97 139.289 Q1610.54 139.289 1608.55 141.974 Q1606.56 144.636 1606.56 149.289 Q1606.56 153.942 1608.53 156.627 Q1610.52 159.289 1613.97 159.289 Q1617.37 159.289 1619.36 156.604 Q1621.35 153.918 1621.35 149.289 Q1621.35 144.682 1619.36 141.997 Q1617.37 139.289 1613.97 139.289 M1613.97 135.678 Q1619.52 135.678 1622.7 139.289 Q1625.87 142.9 1625.87 149.289 Q1625.87 155.655 1622.7 159.289 Q1619.52 162.9 1613.97 162.9 Q1608.39 162.9 1605.22 159.289 Q1602.07 155.655 1602.07 149.289 Q1602.07 142.9 1605.22 139.289 Q1608.39 135.678 1613.97 135.678 Z" fill="#000000" fill-rule="evenodd" fill-opacity="1" /><path clip-path="url(#clip660)" d="M1637.05 158.34 L1637.05 172.09 L1632.76 172.09 L1632.76 136.303 L1637.05 136.303 L1637.05 140.238 Q1638.39 137.923 1640.43 136.812 Q1642.49 135.678 1645.33 135.678 Q1650.06 135.678 1653 139.428 Q1655.96 143.178 1655.96 149.289 Q1655.96 155.4 1653 159.15 Q1650.06 162.9 1645.33 162.9 Q1642.49 162.9 1640.43 161.789 Q1638.39 160.655 1637.05 158.34 M1651.54 149.289 Q1651.54 144.59 1649.59 141.928 Q1647.67 139.243 1644.29 139.243 Q1640.91 139.243 1638.97 141.928 Q1637.05 144.59 1637.05 149.289 Q1637.05 153.988 1638.97 156.673 Q1640.91 159.335 1644.29 159.335 Q1647.67 159.335 1649.59 156.673 Q1651.54 153.988 1651.54 149.289 Z" fill="#000000" fill-rule="evenodd" fill-opacity="1" /><path clip-path="url(#clip660)" d="M1662.86 136.303 L1669.08 136.303 L1676.44 153.664 L1683.83 136.303 L1690.01 136.303 L1690.01 162.229 L1685.73 162.229 L1685.73 140.377 L1678.57 157.252 L1674.32 157.252 L1667.14 140.377 L1667.14 162.229 L1662.86 162.229 L1662.86 136.303 Z" fill="#000000" fill-rule="evenodd" fill-opacity="1" /><path clip-path="url(#clip660)" d="M1709.57 164.636 Q1707.76 169.266 1706.05 170.678 Q1704.34 172.09 1701.47 172.09 L1698.07 172.09 L1698.07 168.525 L1700.57 168.525 Q1702.32 168.525 1703.3 167.692 Q1704.27 166.858 1705.45 163.756 L1706.21 161.812 L1695.73 136.303 L1700.24 136.303 L1708.34 156.581 L1716.44 136.303 L1720.96 136.303 L1709.57 164.636 Z" fill="#000000" fill-rule="evenodd" fill-opacity="1" /><path clip-path="url(#clip660)" d="M1724.13 162.229 L1724.13 158.687 Q1728.34 158.039 1729.64 155.122 Q1731.21 151.025 1731.21 140.539 L1731.21 136.303 L1748.74 136.303 L1748.74 162.229 L1744.48 162.229 L1744.48 139.706 L1735.47 139.706 L1735.47 142.275 Q1735.47 152.275 1733.44 156.766 Q1731.26 161.557 1724.13 162.229 Z" fill="#000000" fill-rule="evenodd" fill-opacity="1" /><path clip-path="url(#clip660)" d="M1768.92 149.196 Q1763.76 149.196 1761.77 150.377 Q1759.78 151.557 1759.78 154.405 Q1759.78 156.673 1761.26 158.016 Q1762.76 159.335 1765.33 159.335 Q1768.87 159.335 1771 156.835 Q1773.16 154.312 1773.16 150.145 L1773.16 149.196 L1768.92 149.196 M1777.42 147.437 L1777.42 162.229 L1773.16 162.229 L1773.16 158.293 Q1771.7 160.655 1769.52 161.789 Q1767.35 162.9 1764.2 162.9 Q1760.22 162.9 1757.86 160.678 Q1755.52 158.432 1755.52 154.682 Q1755.52 150.307 1758.44 148.085 Q1761.37 145.863 1767.19 145.863 L1773.16 145.863 L1773.16 145.446 Q1773.16 142.507 1771.21 140.909 Q1769.29 139.289 1765.8 139.289 Q1763.57 139.289 1761.47 139.821 Q1759.36 140.354 1757.42 141.419 L1757.42 137.483 Q1759.75 136.581 1761.95 136.141 Q1764.15 135.678 1766.24 135.678 Q1771.86 135.678 1774.64 138.594 Q1777.42 141.511 1777.42 147.437 Z" fill="#000000" fill-rule="evenodd" fill-opacity="1" /><path clip-path="url(#clip660)" d="M1798.18 136.303 L1823.02 136.303 L1823.02 139.706 L1812.69 139.706 L1812.69 162.229 L1808.5 162.229 L1808.5 139.706 L1798.18 139.706 L1798.18 136.303 Z" fill="#000000" fill-rule="evenodd" fill-opacity="1" /><path clip-path="url(#clip660)" d="M1832.99 158.34 L1832.99 172.09 L1828.71 172.09 L1828.71 136.303 L1832.99 136.303 L1832.99 140.238 Q1834.34 137.923 1836.37 136.812 Q1838.43 135.678 1841.28 135.678 Q1846 135.678 1848.94 139.428 Q1851.91 143.178 1851.91 149.289 Q1851.91 155.4 1848.94 159.15 Q1846 162.9 1841.28 162.9 Q1838.43 162.9 1836.37 161.789 Q1834.34 160.655 1832.99 158.34 M1847.49 149.289 Q1847.49 144.59 1845.54 141.928 Q1843.62 139.243 1840.24 139.243 Q1836.86 139.243 1834.92 141.928 Q1832.99 144.59 1832.99 149.289 Q1832.99 153.988 1834.92 156.673 Q1836.86 159.335 1840.24 159.335 Q1843.62 159.335 1845.54 156.673 Q1847.49 153.988 1847.49 149.289 Z" fill="#000000" fill-rule="evenodd" fill-opacity="1" /><path clip-path="url(#clip660)" d="M1870.75 149.196 Q1865.59 149.196 1863.6 150.377 Q1861.61 151.557 1861.61 154.405 Q1861.61 156.673 1863.09 158.016 Q1864.59 159.335 1867.16 159.335 Q1870.7 159.335 1872.83 156.835 Q1874.99 154.312 1874.99 150.145 L1874.99 149.196 L1870.75 149.196 M1879.24 147.437 L1879.24 162.229 L1874.99 162.229 L1874.99 158.293 Q1873.53 160.655 1871.35 161.789 Q1869.18 162.9 1866.03 162.9 Q1862.05 162.9 1859.68 160.678 Q1857.35 158.432 1857.35 154.682 Q1857.35 150.307 1860.26 148.085 Q1863.2 145.863 1869.01 145.863 L1874.99 145.863 L1874.99 145.446 Q1874.99 142.507 1873.04 140.909 Q1871.12 139.289 1867.62 139.289 Q1865.4 139.289 1863.3 139.821 Q1861.19 140.354 1859.24 141.419 L1859.24 137.483 Q1861.58 136.581 1863.78 136.141 Q1865.98 135.678 1868.06 135.678 Q1873.69 135.678 1876.47 138.594 Q1879.24 141.511 1879.24 147.437 Z" fill="#000000" fill-rule="evenodd" fill-opacity="1" /><path clip-path="url(#clip660)" d="M1910.24 136.303 L1910.24 162.229 L1905.96 162.229 L1905.96 139.706 L1892.14 139.706 L1892.14 162.229 L1887.86 162.229 L1887.86 136.303 L1910.24 136.303 Z" fill="#000000" fill-rule="evenodd" fill-opacity="1" /><path clip-path="url(#clip660)" d="M1941.19 148.201 L1941.19 150.284 L1921.61 150.284 Q1921.88 154.682 1924.24 156.997 Q1926.63 159.289 1930.86 159.289 Q1933.32 159.289 1935.61 158.687 Q1937.92 158.085 1940.19 156.881 L1940.19 160.909 Q1937.9 161.881 1935.49 162.391 Q1933.09 162.9 1930.61 162.9 Q1924.41 162.9 1920.77 159.289 Q1917.16 155.678 1917.16 149.52 Q1917.16 143.155 1920.59 139.428 Q1924.04 135.678 1929.87 135.678 Q1935.1 135.678 1938.13 139.057 Q1941.19 142.414 1941.19 148.201 M1936.93 146.951 Q1936.88 143.456 1934.96 141.372 Q1933.06 139.289 1929.92 139.289 Q1926.35 139.289 1924.2 141.303 Q1922.07 143.317 1921.74 146.974 L1936.93 146.951 Z" fill="#000000" fill-rule="evenodd" fill-opacity="1" /><path clip-path="url(#clip660)" d="M1970.4 162.229 L1948.02 162.229 L1948.02 136.303 L1952.3 136.303 L1952.3 158.826 L1966.12 158.826 L1966.12 136.303 L1970.4 136.303 L1970.4 158.826 L1973.8 158.826 L1973.8 168.78 L1970.4 168.78 L1970.4 162.229 Z" fill="#000000" fill-rule="evenodd" fill-opacity="1" /><path clip-path="url(#clip660)" d="M2002.48 136.303 L2002.48 162.229 L1998.25 162.229 L1998.25 141.419 L1985.75 162.229 L1980.29 162.229 L1980.29 136.303 L1984.52 136.303 L1984.52 157.067 L1997 136.303 L2002.48 136.303 Z" fill="#000000" fill-rule="evenodd" fill-opacity="1" /><path clip-path="url(#clip660)" d="M2033.29 136.303 L2033.29 162.229 L2029.06 162.229 L2029.06 141.419 L2016.56 162.229 L2011.1 162.229 L2011.1 136.303 L2015.33 136.303 L2015.33 157.067 L2027.81 136.303 L2033.29 136.303 M2014.96 126.21 L2017.69 126.21 Q2017.95 127.946 2019.06 128.826 Q2020.19 129.682 2022.21 129.682 Q2024.2 129.682 2025.31 128.826 Q2026.42 127.97 2026.72 126.21 L2029.45 126.21 Q2029.22 129.52 2027.39 131.187 Q2025.56 132.854 2022.21 132.854 Q2018.85 132.854 2017.02 131.187 Q2015.19 129.52 2014.96 126.21 Z" fill="#000000" fill-rule="evenodd" fill-opacity="1" /><polyline clip-path="url(#clip660)" style="stroke:#e26f46; stroke-linecap:butt; stroke-linejoin:round; stroke-width:4; stroke-opacity:1; fill:none" points="
  1397.99,196.789 1538.15,196.789 
  "/>
<path clip-path="url(#clip660)" d="M1468.07 222.389 L1449.98 214.888 L1442.47 196.789 L1449.98 178.689 L1468.07 171.189 L1486.17 178.689 L1493.67 196.789 L1486.17 214.888 Z" fill="#e26f46" fill-rule="evenodd" fill-opacity="1" stroke="#000000" stroke-opacity="1" stroke-width="5.12"/>
<path clip-path="url(#clip660)" d="M1565.94 201.129 Q1565.94 206.569 1567.6 208.883 Q1569.29 211.175 1572.14 211.175 Q1574.41 211.175 1577.05 207.286 L1577.05 194.971 Q1574.41 191.083 1572.14 191.083 Q1569.29 191.083 1567.6 193.397 Q1565.94 195.689 1565.94 201.129 M1577.05 223.93 L1577.05 210.758 Q1575.73 212.934 1574.2 213.837 Q1572.7 214.74 1570.77 214.74 Q1566.91 214.74 1564.2 211.175 Q1561.51 207.587 1561.51 201.221 Q1561.51 194.856 1564.2 191.198 Q1566.91 187.518 1570.77 187.518 Q1572.7 187.518 1574.2 188.397 Q1575.73 189.277 1577.05 191.453 L1577.05 179.509 L1581.33 179.509 L1581.33 191.453 Q1582.65 189.277 1584.15 188.397 Q1585.68 187.518 1587.6 187.518 Q1591.47 187.518 1594.15 191.198 Q1596.86 194.856 1596.86 201.221 Q1596.86 207.587 1594.15 211.175 Q1591.47 214.74 1587.6 214.74 Q1585.68 214.74 1584.15 213.837 Q1582.65 212.934 1581.33 210.758 L1581.33 223.93 L1577.05 223.93 M1592.44 201.129 Q1592.44 195.689 1590.75 193.397 Q1589.08 191.083 1586.24 191.083 Q1583.97 191.083 1581.33 194.971 L1581.33 207.286 Q1583.97 211.175 1586.24 211.175 Q1589.08 211.175 1590.75 208.883 Q1592.44 206.569 1592.44 201.129 Z" fill="#000000" fill-rule="evenodd" fill-opacity="1" /><path clip-path="url(#clip660)" d="M1613.97 191.129 Q1610.54 191.129 1608.55 193.814 Q1606.56 196.476 1606.56 201.129 Q1606.56 205.782 1608.53 208.467 Q1610.52 211.129 1613.97 211.129 Q1617.37 211.129 1619.36 208.444 Q1621.35 205.758 1621.35 201.129 Q1621.35 196.522 1619.36 193.837 Q1617.37 191.129 1613.97 191.129 M1613.97 187.518 Q1619.52 187.518 1622.7 191.129 Q1625.87 194.74 1625.87 201.129 Q1625.87 207.495 1622.7 211.129 Q1619.52 214.74 1613.97 214.74 Q1608.39 214.74 1605.22 211.129 Q1602.07 207.495 1602.07 201.129 Q1602.07 194.74 1605.22 191.129 Q1608.39 187.518 1613.97 187.518 Z" fill="#000000" fill-rule="evenodd" fill-opacity="1" /><path clip-path="url(#clip660)" d="M1637.05 210.18 L1637.05 223.93 L1632.76 223.93 L1632.76 188.143 L1637.05 188.143 L1637.05 192.078 Q1638.39 189.763 1640.43 188.652 Q1642.49 187.518 1645.33 187.518 Q1650.06 187.518 1653 191.268 Q1655.96 195.018 1655.96 201.129 Q1655.96 207.24 1653 210.99 Q1650.06 214.74 1645.33 214.74 Q1642.49 214.74 1640.43 213.629 Q1638.39 212.495 1637.05 210.18 M1651.54 201.129 Q1651.54 196.43 1649.59 193.768 Q1647.67 191.083 1644.29 191.083 Q1640.91 191.083 1638.97 193.768 Q1637.05 196.43 1637.05 201.129 Q1637.05 205.828 1638.97 208.513 Q1640.91 211.175 1644.29 211.175 Q1647.67 211.175 1649.59 208.513 Q1651.54 205.828 1651.54 201.129 Z" fill="#000000" fill-rule="evenodd" fill-opacity="1" /><path clip-path="url(#clip660)" d="M1662.86 188.143 L1669.08 188.143 L1676.44 205.504 L1683.83 188.143 L1690.01 188.143 L1690.01 214.069 L1685.73 214.069 L1685.73 192.217 L1678.57 209.092 L1674.32 209.092 L1667.14 192.217 L1667.14 214.069 L1662.86 214.069 L1662.86 188.143 Z" fill="#000000" fill-rule="evenodd" fill-opacity="1" /><path clip-path="url(#clip660)" d="M1709.57 216.476 Q1707.76 221.106 1706.05 222.518 Q1704.34 223.93 1701.47 223.93 L1698.07 223.93 L1698.07 220.365 L1700.57 220.365 Q1702.32 220.365 1703.3 219.532 Q1704.27 218.698 1705.45 215.596 L1706.21 213.652 L1695.73 188.143 L1700.24 188.143 L1708.34 208.421 L1716.44 188.143 L1720.96 188.143 L1709.57 216.476 Z" fill="#000000" fill-rule="evenodd" fill-opacity="1" /><path clip-path="url(#clip660)" d="M1724.13 214.069 L1724.13 210.527 Q1728.34 209.879 1729.64 206.962 Q1731.21 202.865 1731.21 192.379 L1731.21 188.143 L1748.74 188.143 L1748.74 214.069 L1744.48 214.069 L1744.48 191.546 L1735.47 191.546 L1735.47 194.115 Q1735.47 204.115 1733.44 208.606 Q1731.26 213.397 1724.13 214.069 Z" fill="#000000" fill-rule="evenodd" fill-opacity="1" /><path clip-path="url(#clip660)" d="M1768.92 201.036 Q1763.76 201.036 1761.77 202.217 Q1759.78 203.397 1759.78 206.245 Q1759.78 208.513 1761.26 209.856 Q1762.76 211.175 1765.33 211.175 Q1768.87 211.175 1771 208.675 Q1773.16 206.152 1773.16 201.985 L1773.16 201.036 L1768.92 201.036 M1777.42 199.277 L1777.42 214.069 L1773.16 214.069 L1773.16 210.133 Q1771.7 212.495 1769.52 213.629 Q1767.35 214.74 1764.2 214.74 Q1760.22 214.74 1757.86 212.518 Q1755.52 210.272 1755.52 206.522 Q1755.52 202.147 1758.44 199.925 Q1761.37 197.703 1767.19 197.703 L1773.16 197.703 L1773.16 197.286 Q1773.16 194.347 1771.21 192.749 Q1769.29 191.129 1765.8 191.129 Q1763.57 191.129 1761.47 191.661 Q1759.36 192.194 1757.42 193.259 L1757.42 189.323 Q1759.75 188.421 1761.95 187.981 Q1764.15 187.518 1766.24 187.518 Q1771.86 187.518 1774.64 190.434 Q1777.42 193.351 1777.42 199.277 Z" fill="#000000" fill-rule="evenodd" fill-opacity="1" /><path clip-path="url(#clip660)" d="M1827.32 182.171 L1827.32 187.101 Q1824.96 184.902 1822.28 183.814 Q1819.62 182.726 1816.61 182.726 Q1810.68 182.726 1807.53 186.36 Q1804.38 189.972 1804.38 196.823 Q1804.38 203.652 1807.53 207.286 Q1810.68 210.897 1816.61 210.897 Q1819.62 210.897 1822.28 209.809 Q1824.96 208.721 1827.32 206.522 L1827.32 211.407 Q1824.87 213.073 1822.12 213.907 Q1819.38 214.74 1816.33 214.74 Q1808.48 214.74 1803.97 209.948 Q1799.45 205.133 1799.45 196.823 Q1799.45 188.49 1803.97 183.698 Q1808.48 178.884 1816.33 178.884 Q1819.43 178.884 1822.16 179.717 Q1824.92 180.527 1827.32 182.171 Z" fill="#000000" fill-rule="evenodd" fill-opacity="1" /><path clip-path="url(#clip660)" d="M1856.4 188.143 L1856.4 214.069 L1852.16 214.069 L1852.16 193.259 L1839.66 214.069 L1834.2 214.069 L1834.2 188.143 L1838.43 188.143 L1838.43 208.907 L1850.91 188.143 L1856.4 188.143 Z" fill="#000000" fill-rule="evenodd" fill-opacity="1" /><path clip-path="url(#clip660)" d="M1865.01 188.143 L1871.24 188.143 L1878.6 205.504 L1885.98 188.143 L1892.16 188.143 L1892.16 214.069 L1887.88 214.069 L1887.88 192.217 L1880.73 209.092 L1876.47 209.092 L1869.29 192.217 L1869.29 214.069 L1865.01 214.069 L1865.01 188.143 Z" fill="#000000" fill-rule="evenodd" fill-opacity="1" /><path clip-path="url(#clip660)" d="M1923.16 188.143 L1923.16 214.069 L1918.87 214.069 L1918.87 191.546 L1905.05 191.546 L1905.05 214.069 L1900.77 214.069 L1900.77 188.143 L1923.16 188.143 Z" fill="#000000" fill-rule="evenodd" fill-opacity="1" /><path clip-path="url(#clip660)" d="M1950.59 189.138 L1950.59 193.12 Q1948.78 192.124 1946.95 191.638 Q1945.15 191.129 1943.3 191.129 Q1939.15 191.129 1936.86 193.768 Q1934.57 196.384 1934.57 201.129 Q1934.57 205.874 1936.86 208.513 Q1939.15 211.129 1943.3 211.129 Q1945.15 211.129 1946.95 210.643 Q1948.78 210.133 1950.59 209.138 L1950.59 213.073 Q1948.8 213.907 1946.88 214.323 Q1944.99 214.74 1942.83 214.74 Q1936.98 214.74 1933.53 211.059 Q1930.08 207.379 1930.08 201.129 Q1930.08 194.786 1933.55 191.152 Q1937.05 187.518 1943.11 187.518 Q1945.08 187.518 1946.95 187.935 Q1948.83 188.328 1950.59 189.138 Z" fill="#000000" fill-rule="evenodd" fill-opacity="1" /><path clip-path="url(#clip660)" d="M1968.04 191.129 Q1964.61 191.129 1962.62 193.814 Q1960.63 196.476 1960.63 201.129 Q1960.63 205.782 1962.6 208.467 Q1964.59 211.129 1968.04 211.129 Q1971.44 211.129 1973.43 208.444 Q1975.42 205.758 1975.42 201.129 Q1975.42 196.522 1973.43 193.837 Q1971.44 191.129 1968.04 191.129 M1968.04 187.518 Q1973.6 187.518 1976.77 191.129 Q1979.94 194.74 1979.94 201.129 Q1979.94 207.495 1976.77 211.129 Q1973.6 214.74 1968.04 214.74 Q1962.46 214.74 1959.29 211.129 Q1956.14 207.495 1956.14 201.129 Q1956.14 194.74 1959.29 191.129 Q1962.46 187.518 1968.04 187.518 Z" fill="#000000" fill-rule="evenodd" fill-opacity="1" /><path clip-path="url(#clip660)" d="M1986.84 188.143 L1991.12 188.143 L1991.12 198.721 L2004.94 198.721 L2004.94 188.143 L2009.22 188.143 L2009.22 214.069 L2004.94 214.069 L2004.94 202.124 L1991.12 202.124 L1991.12 214.069 L1986.84 214.069 L1986.84 188.143 Z" fill="#000000" fill-rule="evenodd" fill-opacity="1" /><path clip-path="url(#clip660)" d="M2029.78 201.036 Q2024.61 201.036 2022.62 202.217 Q2020.63 203.397 2020.63 206.245 Q2020.63 208.513 2022.11 209.856 Q2023.62 211.175 2026.19 211.175 Q2029.73 211.175 2031.86 208.675 Q2034.01 206.152 2034.01 201.985 L2034.01 201.036 L2029.78 201.036 M2038.27 199.277 L2038.27 214.069 L2034.01 214.069 L2034.01 210.133 Q2032.55 212.495 2030.38 213.629 Q2028.2 214.74 2025.05 214.74 Q2021.07 214.74 2018.71 212.518 Q2016.37 210.272 2016.37 206.522 Q2016.37 202.147 2019.29 199.925 Q2022.23 197.703 2028.04 197.703 L2034.01 197.703 L2034.01 197.286 Q2034.01 194.347 2032.07 192.749 Q2030.15 191.129 2026.65 191.129 Q2024.43 191.129 2022.32 191.661 Q2020.22 192.194 2018.27 193.259 L2018.27 189.323 Q2020.61 188.421 2022.81 187.981 Q2025.01 187.518 2027.09 187.518 Q2032.72 187.518 2035.49 190.434 Q2038.27 193.351 2038.27 199.277 Z" fill="#000000" fill-rule="evenodd" fill-opacity="1" /><polyline clip-path="url(#clip660)" style="stroke:#3da44d; stroke-linecap:butt; stroke-linejoin:round; stroke-width:4; stroke-opacity:1; fill:none" points="
  1397.99,248.629 1538.15,248.629 
  "/>
<path clip-path="url(#clip660)" d="M1468.07 274.229 L1449.98 266.728 L1442.47 248.629 L1449.98 230.529 L1468.07 223.029 L1486.17 230.529 L1493.67 248.629 L1486.17 266.728 Z" fill="#3da44d" fill-rule="evenodd" fill-opacity="1" stroke="#000000" stroke-opacity="1" stroke-width="5.12"/>
<path clip-path="url(#clip660)" d="M1565.94 252.969 Q1565.94 258.409 1567.6 260.723 Q1569.29 263.015 1572.14 263.015 Q1574.41 263.015 1577.05 259.126 L1577.05 246.811 Q1574.41 242.923 1572.14 242.923 Q1569.29 242.923 1567.6 245.237 Q1565.94 247.529 1565.94 252.969 M1577.05 275.77 L1577.05 262.598 Q1575.73 264.774 1574.2 265.677 Q1572.7 266.58 1570.77 266.58 Q1566.91 266.58 1564.2 263.015 Q1561.51 259.427 1561.51 253.061 Q1561.51 246.696 1564.2 243.038 Q1566.91 239.358 1570.77 239.358 Q1572.7 239.358 1574.2 240.237 Q1575.73 241.117 1577.05 243.293 L1577.05 231.349 L1581.33 231.349 L1581.33 243.293 Q1582.65 241.117 1584.15 240.237 Q1585.68 239.358 1587.6 239.358 Q1591.47 239.358 1594.15 243.038 Q1596.86 246.696 1596.86 253.061 Q1596.86 259.427 1594.15 263.015 Q1591.47 266.58 1587.6 266.58 Q1585.68 266.58 1584.15 265.677 Q1582.65 264.774 1581.33 262.598 L1581.33 275.77 L1577.05 275.77 M1592.44 252.969 Q1592.44 247.529 1590.75 245.237 Q1589.08 242.923 1586.24 242.923 Q1583.97 242.923 1581.33 246.811 L1581.33 259.126 Q1583.97 263.015 1586.24 263.015 Q1589.08 263.015 1590.75 260.723 Q1592.44 258.409 1592.44 252.969 Z" fill="#000000" fill-rule="evenodd" fill-opacity="1" /><path clip-path="url(#clip660)" d="M1613.97 242.969 Q1610.54 242.969 1608.55 245.654 Q1606.56 248.316 1606.56 252.969 Q1606.56 257.622 1608.53 260.307 Q1610.52 262.969 1613.97 262.969 Q1617.37 262.969 1619.36 260.284 Q1621.35 257.598 1621.35 252.969 Q1621.35 248.362 1619.36 245.677 Q1617.37 242.969 1613.97 242.969 M1613.97 239.358 Q1619.52 239.358 1622.7 242.969 Q1625.87 246.58 1625.87 252.969 Q1625.87 259.335 1622.7 262.969 Q1619.52 266.58 1613.97 266.58 Q1608.39 266.58 1605.22 262.969 Q1602.07 259.335 1602.07 252.969 Q1602.07 246.58 1605.22 242.969 Q1608.39 239.358 1613.97 239.358 Z" fill="#000000" fill-rule="evenodd" fill-opacity="1" /><path clip-path="url(#clip660)" d="M1637.05 262.02 L1637.05 275.77 L1632.76 275.77 L1632.76 239.983 L1637.05 239.983 L1637.05 243.918 Q1638.39 241.603 1640.43 240.492 Q1642.49 239.358 1645.33 239.358 Q1650.06 239.358 1653 243.108 Q1655.96 246.858 1655.96 252.969 Q1655.96 259.08 1653 262.83 Q1650.06 266.58 1645.33 266.58 Q1642.49 266.58 1640.43 265.469 Q1638.39 264.335 1637.05 262.02 M1651.54 252.969 Q1651.54 248.27 1649.59 245.608 Q1647.67 242.923 1644.29 242.923 Q1640.91 242.923 1638.97 245.608 Q1637.05 248.27 1637.05 252.969 Q1637.05 257.668 1638.97 260.353 Q1640.91 263.015 1644.29 263.015 Q1647.67 263.015 1649.59 260.353 Q1651.54 257.668 1651.54 252.969 Z" fill="#000000" fill-rule="evenodd" fill-opacity="1" /><path clip-path="url(#clip660)" d="M1662.86 239.983 L1669.08 239.983 L1676.44 257.344 L1683.83 239.983 L1690.01 239.983 L1690.01 265.909 L1685.73 265.909 L1685.73 244.057 L1678.57 260.932 L1674.32 260.932 L1667.14 244.057 L1667.14 265.909 L1662.86 265.909 L1662.86 239.983 Z" fill="#000000" fill-rule="evenodd" fill-opacity="1" /><path clip-path="url(#clip660)" d="M1709.57 268.316 Q1707.76 272.946 1706.05 274.358 Q1704.34 275.77 1701.47 275.77 L1698.07 275.77 L1698.07 272.205 L1700.57 272.205 Q1702.32 272.205 1703.3 271.372 Q1704.27 270.538 1705.45 267.436 L1706.21 265.492 L1695.73 239.983 L1700.24 239.983 L1708.34 260.261 L1716.44 239.983 L1720.96 239.983 L1709.57 268.316 Z" fill="#000000" fill-rule="evenodd" fill-opacity="1" /><path clip-path="url(#clip660)" d="M1724.13 265.909 L1724.13 262.367 Q1728.34 261.719 1729.64 258.802 Q1731.21 254.705 1731.21 244.219 L1731.21 239.983 L1748.74 239.983 L1748.74 265.909 L1744.48 265.909 L1744.48 243.386 L1735.47 243.386 L1735.47 245.955 Q1735.47 255.955 1733.44 260.446 Q1731.26 265.237 1724.13 265.909 Z" fill="#000000" fill-rule="evenodd" fill-opacity="1" /><path clip-path="url(#clip660)" d="M1768.92 252.876 Q1763.76 252.876 1761.77 254.057 Q1759.78 255.237 1759.78 258.085 Q1759.78 260.353 1761.26 261.696 Q1762.76 263.015 1765.33 263.015 Q1768.87 263.015 1771 260.515 Q1773.16 257.992 1773.16 253.825 L1773.16 252.876 L1768.92 252.876 M1777.42 251.117 L1777.42 265.909 L1773.16 265.909 L1773.16 261.973 Q1771.7 264.335 1769.52 265.469 Q1767.35 266.58 1764.2 266.58 Q1760.22 266.58 1757.86 264.358 Q1755.52 262.112 1755.52 258.362 Q1755.52 253.987 1758.44 251.765 Q1761.37 249.543 1767.19 249.543 L1773.16 249.543 L1773.16 249.126 Q1773.16 246.187 1771.21 244.589 Q1769.29 242.969 1765.8 242.969 Q1763.57 242.969 1761.47 243.501 Q1759.36 244.034 1757.42 245.099 L1757.42 241.163 Q1759.75 240.261 1761.95 239.821 Q1764.15 239.358 1766.24 239.358 Q1771.86 239.358 1774.64 242.274 Q1777.42 245.191 1777.42 251.117 Z" fill="#000000" fill-rule="evenodd" fill-opacity="1" /><path clip-path="url(#clip660)" d="M1823.48 239.983 L1823.48 265.909 L1819.2 265.909 L1819.2 243.386 L1805.38 243.386 L1805.38 265.909 L1801.1 265.909 L1801.1 239.983 L1823.48 239.983 Z" fill="#000000" fill-rule="evenodd" fill-opacity="1" /><path clip-path="url(#clip660)" d="M1836.37 262.02 L1836.37 275.77 L1832.09 275.77 L1832.09 239.983 L1836.37 239.983 L1836.37 243.918 Q1837.72 241.603 1839.75 240.492 Q1841.81 239.358 1844.66 239.358 Q1849.38 239.358 1852.32 243.108 Q1855.29 246.858 1855.29 252.969 Q1855.29 259.08 1852.32 262.83 Q1849.38 266.58 1844.66 266.58 Q1841.81 266.58 1839.75 265.469 Q1837.72 264.335 1836.37 262.02 M1850.87 252.969 Q1850.87 248.27 1848.92 245.608 Q1847 242.923 1843.62 242.923 Q1840.24 242.923 1838.3 245.608 Q1836.37 248.27 1836.37 252.969 Q1836.37 257.668 1838.3 260.353 Q1840.24 263.015 1843.62 263.015 Q1847 263.015 1848.92 260.353 Q1850.87 257.668 1850.87 252.969 Z" fill="#000000" fill-rule="evenodd" fill-opacity="1" /><path clip-path="url(#clip660)" d="M1866.63 247.46 Q1866.63 249.381 1868.11 250.469 Q1869.59 251.557 1872.35 251.557 L1878.09 251.557 L1878.09 243.386 L1872.35 243.386 Q1869.59 243.386 1868.11 244.45 Q1866.63 245.515 1866.63 247.46 M1860.56 265.909 L1868.48 254.543 Q1865.8 253.941 1864.01 252.367 Q1862.23 250.77 1862.23 247.46 Q1862.23 243.71 1864.71 241.858 Q1867.21 239.983 1872.23 239.983 L1882.37 239.983 L1882.37 265.909 L1878.09 265.909 L1878.09 254.96 L1872.79 254.96 L1865.15 265.909 L1860.56 265.909 Z" fill="#000000" fill-rule="evenodd" fill-opacity="1" /><path clip-path="url(#clip660)" d="M1890.7 239.983 L1896.93 239.983 L1904.29 257.344 L1911.68 239.983 L1917.86 239.983 L1917.86 265.909 L1913.57 265.909 L1913.57 244.057 L1906.42 260.932 L1902.16 260.932 L1894.99 244.057 L1894.99 265.909 L1890.7 265.909 L1890.7 239.983 Z" fill="#000000" fill-rule="evenodd" fill-opacity="1" /><path clip-path="url(#clip660)" d="M1936.67 242.969 Q1933.25 242.969 1931.26 245.654 Q1929.27 248.316 1929.27 252.969 Q1929.27 257.622 1931.24 260.307 Q1933.23 262.969 1936.67 262.969 Q1940.08 262.969 1942.07 260.284 Q1944.06 257.598 1944.06 252.969 Q1944.06 248.362 1942.07 245.677 Q1940.08 242.969 1936.67 242.969 M1936.67 239.358 Q1942.23 239.358 1945.4 242.969 Q1948.57 246.58 1948.57 252.969 Q1948.57 259.335 1945.4 262.969 Q1942.23 266.58 1936.67 266.58 Q1931.1 266.58 1927.92 262.969 Q1924.78 259.335 1924.78 252.969 Q1924.78 246.58 1927.92 242.969 Q1931.1 239.358 1936.67 239.358 Z" fill="#000000" fill-rule="evenodd" fill-opacity="1" /><path clip-path="url(#clip660)" d="M1966.42 268.316 Q1964.61 272.946 1962.9 274.358 Q1961.19 275.77 1958.32 275.77 L1954.92 275.77 L1954.92 272.205 L1957.42 272.205 Q1959.17 272.205 1960.15 271.372 Q1961.12 270.538 1962.3 267.436 L1963.06 265.492 L1952.58 239.983 L1957.09 239.983 L1965.19 260.261 L1973.3 239.983 L1977.81 239.983 L1966.42 268.316 Z" fill="#000000" fill-rule="evenodd" fill-opacity="1" /><path clip-path="url(#clip660)" d="M1983.53 265.909 L1983.53 239.983 L2001.81 239.983 L2001.81 243.386 L1987.81 243.386 L1987.81 265.909 L1983.53 265.909 Z" fill="#000000" fill-rule="evenodd" fill-opacity="1" /><path clip-path="url(#clip660)" d="M2018.64 242.969 Q2015.22 242.969 2013.23 245.654 Q2011.23 248.316 2011.23 252.969 Q2011.23 257.622 2013.2 260.307 Q2015.19 262.969 2018.64 262.969 Q2022.04 262.969 2024.04 260.284 Q2026.03 257.598 2026.03 252.969 Q2026.03 248.362 2024.04 245.677 Q2022.04 242.969 2018.64 242.969 M2018.64 239.358 Q2024.2 239.358 2027.37 242.969 Q2030.54 246.58 2030.54 252.969 Q2030.54 259.335 2027.37 262.969 Q2024.2 266.58 2018.64 266.58 Q2013.06 266.58 2009.89 262.969 Q2006.74 259.335 2006.74 252.969 Q2006.74 246.58 2009.89 242.969 Q2013.06 239.358 2018.64 239.358 Z" fill="#000000" fill-rule="evenodd" fill-opacity="1" /><path clip-path="url(#clip660)" d="M2034.89 265.909 L2034.89 262.367 Q2039.1 261.719 2040.4 258.802 Q2041.98 254.705 2041.98 244.219 L2041.98 239.983 L2059.5 239.983 L2059.5 265.909 L2055.24 265.909 L2055.24 243.386 L2046.23 243.386 L2046.23 245.955 Q2046.23 255.955 2044.2 260.446 Q2042.02 265.237 2034.89 265.909 Z" fill="#000000" fill-rule="evenodd" fill-opacity="1" /><path clip-path="url(#clip660)" d="M2084.04 258.223 Q2084.04 256.14 2082.51 255.052 Q2081 253.964 2078.09 253.964 L2072.02 253.964 L2072.02 262.506 L2078.09 262.506 Q2081 262.506 2082.51 261.418 Q2084.04 260.307 2084.04 258.223 M2067.74 239.983 L2072.02 239.983 L2072.02 250.561 L2078.27 250.561 Q2083.23 250.561 2085.89 252.46 Q2088.57 254.335 2088.57 258.223 Q2088.57 262.112 2085.89 264.01 Q2083.23 265.909 2078.27 265.909 L2067.74 265.909 L2067.74 239.983 Z" fill="#000000" fill-rule="evenodd" fill-opacity="1" /><path clip-path="url(#clip660)" d="M2095.68 239.983 L2099.96 239.983 L2099.96 250.561 L2113.78 250.561 L2113.78 239.983 L2118.06 239.983 L2118.06 265.909 L2113.78 265.909 L2113.78 253.964 L2099.96 253.964 L2099.96 265.909 L2095.68 265.909 L2095.68 239.983 Z" fill="#000000" fill-rule="evenodd" fill-opacity="1" /><path clip-path="url(#clip660)" d="M2148.87 239.983 L2148.87 265.909 L2144.64 265.909 L2144.64 245.099 L2132.14 265.909 L2126.67 265.909 L2126.67 239.983 L2130.91 239.983 L2130.91 260.747 L2143.39 239.983 L2148.87 239.983 Z" fill="#000000" fill-rule="evenodd" fill-opacity="1" /><path clip-path="url(#clip660)" d="M2157.48 239.983 L2161.72 239.983 L2161.72 252.159 L2173.73 239.983 L2178.97 239.983 L2169.06 250.006 L2180.24 265.909 L2175.47 265.909 L2166.28 252.83 L2161.72 257.46 L2161.72 265.909 L2157.48 265.909 L2157.48 239.983 Z" fill="#000000" fill-rule="evenodd" fill-opacity="1" /><path clip-path="url(#clip660)" d="M2196.33 242.969 Q2192.9 242.969 2190.91 245.654 Q2188.92 248.316 2188.92 252.969 Q2188.92 257.622 2190.89 260.307 Q2192.88 262.969 2196.33 262.969 Q2199.73 262.969 2201.72 260.284 Q2203.71 257.598 2203.71 252.969 Q2203.71 248.362 2201.72 245.677 Q2199.73 242.969 2196.33 242.969 M2196.33 239.358 Q2201.88 239.358 2205.05 242.969 Q2208.22 246.58 2208.22 252.969 Q2208.22 259.335 2205.05 262.969 Q2201.88 266.58 2196.33 266.58 Q2190.75 266.58 2187.58 262.969 Q2184.43 259.335 2184.43 252.969 Q2184.43 246.58 2187.58 242.969 Q2190.75 239.358 2196.33 239.358 Z" fill="#000000" fill-rule="evenodd" fill-opacity="1" /><path clip-path="url(#clip660)" d="M2219.38 253.964 L2219.38 262.506 L2225.45 262.506 Q2228.36 262.506 2229.89 261.418 Q2231.42 260.307 2231.42 258.223 Q2231.42 256.14 2229.89 255.052 Q2228.36 253.964 2225.45 253.964 L2219.38 253.964 M2219.38 243.386 L2219.38 250.561 L2224.98 250.561 Q2227.39 250.561 2228.92 249.612 Q2230.45 248.64 2230.45 246.927 Q2230.45 245.214 2228.92 244.312 Q2227.39 243.386 2224.98 243.386 L2219.38 243.386 M2215.12 239.983 L2225.26 239.983 Q2229.82 239.983 2232.28 241.649 Q2234.73 243.316 2234.73 246.395 Q2234.73 248.779 2233.48 250.191 Q2232.23 251.58 2229.78 251.927 Q2232.71 252.483 2234.34 254.242 Q2235.96 256.001 2235.96 258.64 Q2235.96 262.112 2233.27 264.01 Q2230.61 265.909 2225.65 265.909 L2215.12 265.909 L2215.12 239.983 Z" fill="#000000" fill-rule="evenodd" fill-opacity="1" /></svg>
