<?xml version="1.0" encoding="utf-8"?>
<svg xmlns="http://www.w3.org/2000/svg" xmlns:xlink="http://www.w3.org/1999/xlink" width="600" height="400" viewBox="0 0 2400 1600">
<defs>
  <clipPath id="clip540">
    <rect x="0" y="0" width="2400" height="1600"/>
  </clipPath>
</defs>
<path clip-path="url(#clip540)" d="
M0 1600 L2400 1600 L2400 0 L0 0  Z
  " fill="#ffffff" fill-rule="evenodd" fill-opacity="1"/>
<defs>
  <clipPath id="clip541">
    <rect x="480" y="0" width="1681" height="1600"/>
  </clipPath>
</defs>
<defs>
  <clipPath id="clip542">
    <rect x="156" y="47" width="2198" height="1405"/>
  </clipPath>
</defs>
<path clip-path="url(#clip540)" d="
M155.765 1450.96 L2352.76 1450.96 L2352.76 47.2441 L155.765 47.2441  Z
  " fill="#ffffff" fill-rule="evenodd" fill-opacity="1"/>
<defs>
  <clipPath id="clip543">
    <rect x="155" y="47" width="2198" height="1405"/>
  </clipPath>
</defs>
<polyline clip-path="url(#clip543)" style="stroke:#000000; stroke-linecap:butt; stroke-linejoin:round; stroke-width:2; stroke-opacity:0.1; fill:none" points="
  217.944,1450.96 217.944,47.2441 
  "/>
<polyline clip-path="url(#clip543)" style="stroke:#000000; stroke-linecap:butt; stroke-linejoin:round; stroke-width:2; stroke-opacity:0.1; fill:none" points="
  908.822,1450.96 908.822,47.2441 
  "/>
<polyline clip-path="url(#clip543)" style="stroke:#000000; stroke-linecap:butt; stroke-linejoin:round; stroke-width:2; stroke-opacity:0.1; fill:none" points="
  1599.7,1450.96 1599.7,47.2441 
  "/>
<polyline clip-path="url(#clip543)" style="stroke:#000000; stroke-linecap:butt; stroke-linejoin:round; stroke-width:2; stroke-opacity:0.1; fill:none" points="
  2290.58,1450.96 2290.58,47.2441 
  "/>
<polyline clip-path="url(#clip540)" style="stroke:#000000; stroke-linecap:butt; stroke-linejoin:round; stroke-width:4; stroke-opacity:1; fill:none" points="
  155.765,1450.96 2352.76,1450.96 
  "/>
<polyline clip-path="url(#clip540)" style="stroke:#000000; stroke-linecap:butt; stroke-linejoin:round; stroke-width:4; stroke-opacity:1; fill:none" points="
  217.944,1450.96 217.944,1432.06 
  "/>
<polyline clip-path="url(#clip540)" style="stroke:#000000; stroke-linecap:butt; stroke-linejoin:round; stroke-width:4; stroke-opacity:1; fill:none" points="
  908.822,1450.96 908.822,1432.06 
  "/>
<polyline clip-path="url(#clip540)" style="stroke:#000000; stroke-linecap:butt; stroke-linejoin:round; stroke-width:4; stroke-opacity:1; fill:none" points="
  1599.7,1450.96 1599.7,1432.06 
  "/>
<polyline clip-path="url(#clip540)" style="stroke:#000000; stroke-linecap:butt; stroke-linejoin:round; stroke-width:4; stroke-opacity:1; fill:none" points="
  2290.58,1450.96 2290.58,1432.06 
  "/>
<path clip-path="url(#clip540)" d="M187.701 1494.8 L217.377 1494.8 L217.377 1498.74 L187.701 1498.74 L187.701 1494.8 Z" fill="#000000" fill-rule="evenodd" fill-opacity="1" /><path clip-path="url(#clip540)" d="M228.279 1507.7 L235.918 1507.7 L235.918 1481.33 L227.608 1483 L227.608 1478.74 L235.872 1477.07 L240.548 1477.07 L240.548 1507.7 L248.187 1507.7 L248.187 1511.63 L228.279 1511.63 L228.279 1507.7 Z" fill="#000000" fill-rule="evenodd" fill-opacity="1" /><path clip-path="url(#clip540)" d="M908.822 1480.15 Q905.21 1480.15 903.382 1483.72 Q901.576 1487.26 901.576 1494.39 Q901.576 1501.49 903.382 1505.06 Q905.21 1508.6 908.822 1508.6 Q912.456 1508.6 914.261 1505.06 Q916.09 1501.49 916.09 1494.39 Q916.09 1487.26 914.261 1483.72 Q912.456 1480.15 908.822 1480.15 M908.822 1476.45 Q914.632 1476.45 917.687 1481.05 Q920.766 1485.64 920.766 1494.39 Q920.766 1503.11 917.687 1507.72 Q914.632 1512.3 908.822 1512.3 Q903.011 1512.3 899.933 1507.72 Q896.877 1503.11 896.877 1494.39 Q896.877 1485.64 899.933 1481.05 Q903.011 1476.45 908.822 1476.45 Z" fill="#000000" fill-rule="evenodd" fill-opacity="1" /><path clip-path="url(#clip540)" d="M1590.08 1507.7 L1597.72 1507.7 L1597.72 1481.33 L1589.41 1483 L1589.41 1478.74 L1597.67 1477.07 L1602.35 1477.07 L1602.35 1507.7 L1609.99 1507.7 L1609.99 1511.63 L1590.08 1511.63 L1590.08 1507.7 Z" fill="#000000" fill-rule="evenodd" fill-opacity="1" /><path clip-path="url(#clip540)" d="M2285.23 1507.7 L2301.55 1507.7 L2301.55 1511.63 L2279.6 1511.63 L2279.6 1507.7 Q2282.27 1504.94 2286.85 1500.31 Q2291.46 1495.66 2292.64 1494.32 Q2294.88 1491.79 2295.76 1490.06 Q2296.66 1488.3 2296.66 1486.61 Q2296.66 1483.85 2294.72 1482.12 Q2292.8 1480.38 2289.7 1480.38 Q2287.5 1480.38 2285.04 1481.15 Q2282.61 1481.91 2279.84 1483.46 L2279.84 1478.74 Q2282.66 1477.6 2285.11 1477.03 Q2287.57 1476.45 2289.6 1476.45 Q2294.98 1476.45 2298.17 1479.13 Q2301.36 1481.82 2301.36 1486.31 Q2301.36 1488.44 2300.55 1490.36 Q2299.77 1492.26 2297.66 1494.85 Q2297.08 1495.52 2293.98 1498.74 Q2290.88 1501.93 2285.23 1507.7 Z" fill="#000000" fill-rule="evenodd" fill-opacity="1" /><path clip-path="url(#clip540)" d="M1268.43 1539.92 Q1268.43 1541.72 1267.31 1542.75 Q1266.18 1543.75 1264.89 1543.75 Q1263.67 1543.75 1263.02 1543.04 Q1262.38 1542.33 1262.38 1541.43 Q1262.38 1540.21 1263.28 1539.14 Q1264.18 1538.08 1265.54 1537.85 Q1264.21 1537.02 1262.25 1537.02 Q1260.96 1537.02 1259.83 1537.69 Q1258.74 1538.37 1258.06 1539.24 Q1257.42 1540.11 1256.84 1541.37 Q1256.29 1542.59 1256.07 1543.33 Q1255.87 1544.04 1255.71 1544.81 L1253.46 1553.83 Q1252.36 1558.11 1252.36 1559.63 Q1252.36 1561.49 1253.26 1562.75 Q1254.17 1563.97 1255.97 1563.97 Q1256.68 1563.97 1257.48 1563.78 Q1258.29 1563.55 1259.32 1562.98 Q1260.38 1562.36 1261.32 1561.46 Q1262.28 1560.53 1263.22 1558.95 Q1264.15 1557.37 1264.76 1555.34 Q1264.96 1554.63 1265.6 1554.63 Q1266.4 1554.63 1266.4 1555.28 Q1266.4 1555.83 1265.95 1556.98 Q1265.54 1558.11 1264.6 1559.59 Q1263.7 1561.04 1262.51 1562.36 Q1261.32 1563.65 1259.54 1564.55 Q1257.77 1565.46 1255.84 1565.46 Q1253.07 1565.46 1251.24 1563.97 Q1249.4 1562.49 1248.72 1560.43 Q1248.56 1560.72 1248.34 1561.11 Q1248.11 1561.49 1247.44 1562.36 Q1246.79 1563.2 1246.05 1563.84 Q1245.31 1564.46 1244.15 1564.94 Q1243.02 1565.46 1241.8 1565.46 Q1240.25 1565.46 1238.87 1565 Q1237.52 1564.55 1236.55 1563.52 Q1235.58 1562.49 1235.58 1561.08 Q1235.58 1559.5 1236.65 1558.4 Q1237.74 1557.27 1239.22 1557.27 Q1240.16 1557.27 1240.9 1557.82 Q1241.67 1558.37 1241.67 1559.56 Q1241.67 1560.88 1240.77 1561.88 Q1239.87 1562.88 1238.58 1563.14 Q1239.9 1563.97 1241.86 1563.97 Q1243.99 1563.97 1245.66 1562.11 Q1247.34 1560.24 1248.14 1557.11 Q1250.14 1549.61 1250.91 1546.26 Q1251.69 1542.88 1251.69 1541.43 Q1251.69 1540.08 1251.33 1539.14 Q1250.98 1538.21 1250.37 1537.79 Q1249.79 1537.34 1249.24 1537.18 Q1248.72 1537.02 1248.14 1537.02 Q1247.18 1537.02 1246.08 1537.4 Q1245.02 1537.79 1243.73 1538.69 Q1242.48 1539.56 1241.28 1541.37 Q1240.09 1543.17 1239.29 1545.65 Q1239.13 1546.39 1238.42 1546.39 Q1237.65 1546.36 1237.65 1545.71 Q1237.65 1545.17 1238.06 1544.04 Q1238.51 1542.88 1239.42 1541.43 Q1240.35 1539.98 1241.54 1538.69 Q1242.77 1537.37 1244.54 1536.47 Q1246.34 1535.57 1248.27 1535.57 Q1249.14 1535.57 1249.98 1535.76 Q1250.85 1535.92 1251.88 1536.41 Q1252.94 1536.89 1253.88 1537.95 Q1254.81 1539.01 1255.39 1540.56 Q1255.78 1539.82 1256.29 1539.11 Q1256.84 1538.4 1257.68 1537.53 Q1258.55 1536.63 1259.74 1536.12 Q1260.96 1535.57 1262.31 1535.57 Q1263.64 1535.57 1264.92 1535.92 Q1266.21 1536.24 1267.31 1537.31 Q1268.43 1538.34 1268.43 1539.92 Z" fill="#000000" fill-rule="evenodd" fill-opacity="1" /><polyline clip-path="url(#clip543)" style="stroke:#000000; stroke-linecap:butt; stroke-linejoin:round; stroke-width:2; stroke-opacity:0.1; fill:none" points="
  155.765,1333.25 2352.76,1333.25 
  "/>
<polyline clip-path="url(#clip543)" style="stroke:#000000; stroke-linecap:butt; stroke-linejoin:round; stroke-width:2; stroke-opacity:0.1; fill:none" points="
  155.765,1044.59 2352.76,1044.59 
  "/>
<polyline clip-path="url(#clip543)" style="stroke:#000000; stroke-linecap:butt; stroke-linejoin:round; stroke-width:2; stroke-opacity:0.1; fill:none" points="
  155.765,755.932 2352.76,755.932 
  "/>
<polyline clip-path="url(#clip543)" style="stroke:#000000; stroke-linecap:butt; stroke-linejoin:round; stroke-width:2; stroke-opacity:0.1; fill:none" points="
  155.765,467.273 2352.76,467.273 
  "/>
<polyline clip-path="url(#clip543)" style="stroke:#000000; stroke-linecap:butt; stroke-linejoin:round; stroke-width:2; stroke-opacity:0.1; fill:none" points="
  155.765,178.614 2352.76,178.614 
  "/>
<polyline clip-path="url(#clip540)" style="stroke:#000000; stroke-linecap:butt; stroke-linejoin:round; stroke-width:4; stroke-opacity:1; fill:none" points="
  155.765,1450.96 155.765,47.2441 
  "/>
<polyline clip-path="url(#clip540)" style="stroke:#000000; stroke-linecap:butt; stroke-linejoin:round; stroke-width:4; stroke-opacity:1; fill:none" points="
  155.765,1333.25 174.663,1333.25 
  "/>
<polyline clip-path="url(#clip540)" style="stroke:#000000; stroke-linecap:butt; stroke-linejoin:round; stroke-width:4; stroke-opacity:1; fill:none" points="
  155.765,1044.59 174.663,1044.59 
  "/>
<polyline clip-path="url(#clip540)" style="stroke:#000000; stroke-linecap:butt; stroke-linejoin:round; stroke-width:4; stroke-opacity:1; fill:none" points="
  155.765,755.932 174.663,755.932 
  "/>
<polyline clip-path="url(#clip540)" style="stroke:#000000; stroke-linecap:butt; stroke-linejoin:round; stroke-width:4; stroke-opacity:1; fill:none" points="
  155.765,467.273 174.663,467.273 
  "/>
<polyline clip-path="url(#clip540)" style="stroke:#000000; stroke-linecap:butt; stroke-linejoin:round; stroke-width:4; stroke-opacity:1; fill:none" points="
  155.765,178.614 174.663,178.614 
  "/>
<path clip-path="url(#clip540)" d="M63.5847 1319.05 Q59.9736 1319.05 58.1449 1322.61 Q56.3393 1326.15 56.3393 1333.28 Q56.3393 1340.39 58.1449 1343.96 Q59.9736 1347.5 63.5847 1347.5 Q67.2189 1347.5 69.0244 1343.96 Q70.8531 1340.39 70.8531 1333.28 Q70.8531 1326.15 69.0244 1322.61 Q67.2189 1319.05 63.5847 1319.05 M63.5847 1315.34 Q69.3948 1315.34 72.4503 1319.95 Q75.529 1324.53 75.529 1333.28 Q75.529 1342.01 72.4503 1346.62 Q69.3948 1351.2 63.5847 1351.2 Q57.7745 1351.2 54.6958 1346.62 Q51.6403 1342.01 51.6403 1333.28 Q51.6403 1324.53 54.6958 1319.95 Q57.7745 1315.34 63.5847 1315.34 Z" fill="#000000" fill-rule="evenodd" fill-opacity="1" /><path clip-path="url(#clip540)" d="M83.7466 1344.65 L88.6308 1344.65 L88.6308 1350.53 L83.7466 1350.53 L83.7466 1344.65 Z" fill="#000000" fill-rule="evenodd" fill-opacity="1" /><path clip-path="url(#clip540)" d="M98.8622 1315.97 L117.219 1315.97 L117.219 1319.9 L103.145 1319.9 L103.145 1328.38 Q104.163 1328.03 105.182 1327.87 Q106.2 1327.68 107.219 1327.68 Q113.006 1327.68 116.385 1330.85 Q119.765 1334.02 119.765 1339.44 Q119.765 1345.02 116.293 1348.12 Q112.82 1351.2 106.501 1351.2 Q104.325 1351.2 102.057 1350.83 Q99.8113 1350.46 97.4039 1349.72 L97.4039 1345.02 Q99.4872 1346.15 101.709 1346.71 Q103.932 1347.27 106.408 1347.27 Q110.413 1347.27 112.751 1345.16 Q115.089 1343.05 115.089 1339.44 Q115.089 1335.83 112.751 1333.72 Q110.413 1331.62 106.408 1331.62 Q104.534 1331.62 102.659 1332.03 Q100.807 1332.45 98.8622 1333.33 L98.8622 1315.97 Z" fill="#000000" fill-rule="evenodd" fill-opacity="1" /><path clip-path="url(#clip540)" d="M53.3995 1057.94 L61.0384 1057.94 L61.0384 1031.57 L52.7282 1033.24 L52.7282 1028.98 L60.9921 1027.31 L65.668 1027.31 L65.668 1057.94 L73.3068 1057.94 L73.3068 1061.87 L53.3995 1061.87 L53.3995 1057.94 Z" fill="#000000" fill-rule="evenodd" fill-opacity="1" /><path clip-path="url(#clip540)" d="M82.7512 1055.99 L87.6354 1055.99 L87.6354 1061.87 L82.7512 1061.87 L82.7512 1055.99 Z" fill="#000000" fill-rule="evenodd" fill-opacity="1" /><path clip-path="url(#clip540)" d="M107.821 1030.39 Q104.209 1030.39 102.381 1033.95 Q100.575 1037.5 100.575 1044.63 Q100.575 1051.73 102.381 1055.3 Q104.209 1058.84 107.821 1058.84 Q111.455 1058.84 113.26 1055.3 Q115.089 1051.73 115.089 1044.63 Q115.089 1037.5 113.26 1033.95 Q111.455 1030.39 107.821 1030.39 M107.821 1026.69 Q113.631 1026.69 116.686 1031.29 Q119.765 1035.88 119.765 1044.63 Q119.765 1053.35 116.686 1057.96 Q113.631 1062.54 107.821 1062.54 Q102.01 1062.54 98.9317 1057.96 Q95.8761 1053.35 95.8761 1044.63 Q95.8761 1035.88 98.9317 1031.29 Q102.01 1026.69 107.821 1026.69 Z" fill="#000000" fill-rule="evenodd" fill-opacity="1" /><path clip-path="url(#clip540)" d="M54.3949 769.277 L62.0337 769.277 L62.0337 742.911 L53.7236 744.578 L53.7236 740.318 L61.9874 738.652 L66.6633 738.652 L66.6633 769.277 L74.3022 769.277 L74.3022 773.212 L54.3949 773.212 L54.3949 769.277 Z" fill="#000000" fill-rule="evenodd" fill-opacity="1" /><path clip-path="url(#clip540)" d="M83.7466 767.332 L88.6308 767.332 L88.6308 773.212 L83.7466 773.212 L83.7466 767.332 Z" fill="#000000" fill-rule="evenodd" fill-opacity="1" /><path clip-path="url(#clip540)" d="M98.8622 738.652 L117.219 738.652 L117.219 742.587 L103.145 742.587 L103.145 751.059 Q104.163 750.712 105.182 750.55 Q106.2 750.365 107.219 750.365 Q113.006 750.365 116.385 753.536 Q119.765 756.707 119.765 762.124 Q119.765 767.703 116.293 770.804 Q112.82 773.883 106.501 773.883 Q104.325 773.883 102.057 773.513 Q99.8113 773.142 97.4039 772.402 L97.4039 767.703 Q99.4872 768.837 101.709 769.392 Q103.932 769.948 106.408 769.948 Q110.413 769.948 112.751 767.841 Q115.089 765.735 115.089 762.124 Q115.089 758.513 112.751 756.406 Q110.413 754.3 106.408 754.3 Q104.534 754.3 102.659 754.717 Q100.807 755.133 98.8622 756.013 L98.8622 738.652 Z" fill="#000000" fill-rule="evenodd" fill-opacity="1" /><path clip-path="url(#clip540)" d="M56.6171 480.618 L72.9365 480.618 L72.9365 484.553 L50.9921 484.553 L50.9921 480.618 Q53.6541 477.863 58.2375 473.234 Q62.8439 468.581 64.0245 467.238 Q66.2698 464.715 67.1494 462.979 Q68.0522 461.22 68.0522 459.53 Q68.0522 456.775 66.1078 455.039 Q64.1865 453.303 61.0847 453.303 Q58.8856 453.303 56.4319 454.067 Q54.0014 454.831 51.2236 456.382 L51.2236 451.66 Q54.0477 450.526 56.5014 449.947 Q58.955 449.368 60.9921 449.368 Q66.3624 449.368 69.5568 452.053 Q72.7513 454.738 72.7513 459.229 Q72.7513 461.359 71.9411 463.28 Q71.1541 465.178 69.0476 467.771 Q68.4689 468.442 65.367 471.66 Q62.2652 474.854 56.6171 480.618 Z" fill="#000000" fill-rule="evenodd" fill-opacity="1" /><path clip-path="url(#clip540)" d="M82.7512 478.674 L87.6354 478.674 L87.6354 484.553 L82.7512 484.553 L82.7512 478.674 Z" fill="#000000" fill-rule="evenodd" fill-opacity="1" /><path clip-path="url(#clip540)" d="M107.821 453.072 Q104.209 453.072 102.381 456.637 Q100.575 460.178 100.575 467.308 Q100.575 474.414 102.381 477.979 Q104.209 481.521 107.821 481.521 Q111.455 481.521 113.26 477.979 Q115.089 474.414 115.089 467.308 Q115.089 460.178 113.26 456.637 Q111.455 453.072 107.821 453.072 M107.821 449.368 Q113.631 449.368 116.686 453.975 Q119.765 458.558 119.765 467.308 Q119.765 476.035 116.686 480.641 Q113.631 485.224 107.821 485.224 Q102.01 485.224 98.9317 480.641 Q95.8761 476.035 95.8761 467.308 Q95.8761 458.558 98.9317 453.975 Q102.01 449.368 107.821 449.368 Z" fill="#000000" fill-rule="evenodd" fill-opacity="1" /><path clip-path="url(#clip540)" d="M57.6125 191.959 L73.9318 191.959 L73.9318 195.894 L51.9875 195.894 L51.9875 191.959 Q54.6495 189.205 59.2328 184.575 Q63.8393 179.922 65.0198 178.58 Q67.2652 176.057 68.1448 174.32 Q69.0476 172.561 69.0476 170.871 Q69.0476 168.117 67.1032 166.381 Q65.1819 164.645 62.08 164.645 Q59.881 164.645 57.4273 165.409 Q54.9967 166.172 52.219 167.723 L52.219 163.001 Q55.043 161.867 57.4967 161.288 Q59.9504 160.709 61.9874 160.709 Q67.3578 160.709 70.5522 163.395 Q73.7466 166.08 73.7466 170.571 Q73.7466 172.7 72.9365 174.621 Q72.1494 176.52 70.0429 179.112 Q69.4642 179.783 66.3624 183.001 Q63.2606 186.195 57.6125 191.959 Z" fill="#000000" fill-rule="evenodd" fill-opacity="1" /><path clip-path="url(#clip540)" d="M83.7466 190.015 L88.6308 190.015 L88.6308 195.894 L83.7466 195.894 L83.7466 190.015 Z" fill="#000000" fill-rule="evenodd" fill-opacity="1" /><path clip-path="url(#clip540)" d="M98.8622 161.334 L117.219 161.334 L117.219 165.27 L103.145 165.27 L103.145 173.742 Q104.163 173.395 105.182 173.233 Q106.2 173.047 107.219 173.047 Q113.006 173.047 116.385 176.219 Q119.765 179.39 119.765 184.807 Q119.765 190.385 116.293 193.487 Q112.82 196.566 106.501 196.566 Q104.325 196.566 102.057 196.195 Q99.8113 195.825 97.4039 195.084 L97.4039 190.385 Q99.4872 191.519 101.709 192.075 Q103.932 192.631 106.408 192.631 Q110.413 192.631 112.751 190.524 Q115.089 188.418 115.089 184.807 Q115.089 181.195 112.751 179.089 Q110.413 176.983 106.408 176.983 Q104.534 176.983 102.659 177.399 Q100.807 177.816 98.8622 178.695 L98.8622 161.334 Z" fill="#000000" fill-rule="evenodd" fill-opacity="1" /><circle clip-path="url(#clip543)" cx="217.944" cy="1408.13" r="14" fill="#009af9" fill-rule="evenodd" fill-opacity="1" stroke="#000000" stroke-opacity="1" stroke-width="3.2"/>
<circle clip-path="url(#clip543)" cx="365.989" cy="1389.21" r="14" fill="#009af9" fill-rule="evenodd" fill-opacity="1" stroke="#000000" stroke-opacity="1" stroke-width="3.2"/>
<circle clip-path="url(#clip543)" cx="514.034" cy="1411.23" r="14" fill="#009af9" fill-rule="evenodd" fill-opacity="1" stroke="#000000" stroke-opacity="1" stroke-width="3.2"/>
<circle clip-path="url(#clip543)" cx="662.08" cy="1298.98" r="14" fill="#009af9" fill-rule="evenodd" fill-opacity="1" stroke="#000000" stroke-opacity="1" stroke-width="3.2"/>
<circle clip-path="url(#clip543)" cx="810.125" cy="1210.65" r="14" fill="#009af9" fill-rule="evenodd" fill-opacity="1" stroke="#000000" stroke-opacity="1" stroke-width="3.2"/>
<circle clip-path="url(#clip543)" cx="958.17" cy="930.917" r="14" fill="#009af9" fill-rule="evenodd" fill-opacity="1" stroke="#000000" stroke-opacity="1" stroke-width="3.2"/>
<circle clip-path="url(#clip543)" cx="1106.22" cy="656.678" r="14" fill="#009af9" fill-rule="evenodd" fill-opacity="1" stroke="#000000" stroke-opacity="1" stroke-width="3.2"/>
<circle clip-path="url(#clip543)" cx="1254.26" cy="255.584" r="14" fill="#009af9" fill-rule="evenodd" fill-opacity="1" stroke="#000000" stroke-opacity="1" stroke-width="3.2"/>
<circle clip-path="url(#clip543)" cx="1402.31" cy="96.0935" r="14" fill="#009af9" fill-rule="evenodd" fill-opacity="1" stroke="#000000" stroke-opacity="1" stroke-width="3.2"/>
<circle clip-path="url(#clip543)" cx="1550.35" cy="86.9719" r="14" fill="#009af9" fill-rule="evenodd" fill-opacity="1" stroke="#000000" stroke-opacity="1" stroke-width="3.2"/>
<circle clip-path="url(#clip543)" cx="1698.4" cy="422.02" r="14" fill="#009af9" fill-rule="evenodd" fill-opacity="1" stroke="#000000" stroke-opacity="1" stroke-width="3.2"/>
<circle clip-path="url(#clip543)" cx="1846.44" cy="719.333" r="14" fill="#009af9" fill-rule="evenodd" fill-opacity="1" stroke="#000000" stroke-opacity="1" stroke-width="3.2"/>
<circle clip-path="url(#clip543)" cx="1994.49" cy="1074.18" r="14" fill="#009af9" fill-rule="evenodd" fill-opacity="1" stroke="#000000" stroke-opacity="1" stroke-width="3.2"/>
<circle clip-path="url(#clip543)" cx="2142.53" cy="1212.57" r="14" fill="#009af9" fill-rule="evenodd" fill-opacity="1" stroke="#000000" stroke-opacity="1" stroke-width="3.2"/>
<circle clip-path="url(#clip543)" cx="2290.58" cy="1379.57" r="14" fill="#009af9" fill-rule="evenodd" fill-opacity="1" stroke="#000000" stroke-opacity="1" stroke-width="3.2"/>
<path clip-path="url(#clip540)" d="
M228.998 197.715 L658.524 197.715 L658.524 94.0346 L228.998 94.0346  Z
  " fill="#ffffff" fill-rule="evenodd" fill-opacity="1"/>
<polyline clip-path="url(#clip540)" style="stroke:#000000; stroke-linecap:butt; stroke-linejoin:round; stroke-width:4; stroke-opacity:1; fill:none" points="
  228.998,197.715 658.524,197.715 658.524,94.0346 228.998,94.0346 228.998,197.715 
  "/>
<circle clip-path="url(#clip540)" cx="326.642" cy="145.875" r="23" fill="#009af9" fill-rule="evenodd" fill-opacity="1" stroke="#000000" stroke-opacity="1" stroke-width="5.12"/>
<path clip-path="url(#clip540)" d="M432.064 159.752 L444.425 159.752 L444.425 140.632 L435.467 140.632 L435.467 143.872 Q435.467 153.409 432.735 158.502 L432.064 159.752 M425.883 159.752 Q427.99 158.826 428.916 156.858 Q431.184 151.974 431.184 142.136 L431.184 137.229 L448.707 137.229 L448.707 159.752 L452.11 159.752 L452.11 169.706 L448.707 169.706 L448.707 163.155 L427.689 163.155 L427.689 169.706 L424.286 169.706 L424.286 159.752 L425.883 159.752 Z" fill="#000000" fill-rule="evenodd" fill-opacity="1" /><path clip-path="url(#clip540)" d="M470.837 150.122 Q465.675 150.122 463.684 151.303 Q461.693 152.483 461.693 155.331 Q461.693 157.599 463.175 158.942 Q464.679 160.261 467.249 160.261 Q470.79 160.261 472.92 157.761 Q475.073 155.238 475.073 151.071 L475.073 150.122 L470.837 150.122 M479.332 148.363 L479.332 163.155 L475.073 163.155 L475.073 159.219 Q473.614 161.581 471.439 162.715 Q469.263 163.826 466.115 163.826 Q462.133 163.826 459.772 161.604 Q457.434 159.358 457.434 155.608 Q457.434 151.233 460.351 149.011 Q463.29 146.789 469.101 146.789 L475.073 146.789 L475.073 146.372 Q475.073 143.433 473.128 141.835 Q471.207 140.215 467.712 140.215 Q465.49 140.215 463.383 140.747 Q461.277 141.28 459.332 142.345 L459.332 138.409 Q461.67 137.507 463.869 137.067 Q466.068 136.604 468.152 136.604 Q473.777 136.604 476.554 139.521 Q479.332 142.437 479.332 148.363 Z" fill="#000000" fill-rule="evenodd" fill-opacity="1" /><path clip-path="url(#clip540)" d="M487.943 137.229 L492.225 137.229 L492.225 147.807 L506.045 147.807 L506.045 137.229 L510.327 137.229 L510.327 163.155 L506.045 163.155 L506.045 151.21 L492.225 151.21 L492.225 163.155 L487.943 163.155 L487.943 137.229 Z" fill="#000000" fill-rule="evenodd" fill-opacity="1" /><path clip-path="url(#clip540)" d="M518.938 137.229 L523.221 137.229 L523.221 147.807 L537.04 147.807 L537.04 137.229 L541.322 137.229 L541.322 163.155 L537.04 163.155 L537.04 151.21 L523.221 151.21 L523.221 163.155 L518.938 163.155 L518.938 137.229 Z" fill="#000000" fill-rule="evenodd" fill-opacity="1" /><path clip-path="url(#clip540)" d="M574.586 137.229 L578.845 137.229 L578.845 163.155 L574.586 163.155 L574.586 137.229 M576.716 136.604 L576.716 136.604 M566.23 155.469 Q566.23 153.386 564.702 152.298 Q563.197 151.21 560.281 151.21 L554.216 151.21 L554.216 159.752 L560.281 159.752 Q563.197 159.752 564.702 158.664 Q566.23 157.553 566.23 155.469 M549.934 137.229 L554.216 137.229 L554.216 147.807 L560.466 147.807 Q565.42 147.807 568.082 149.706 Q570.767 151.581 570.767 155.469 Q570.767 159.358 568.082 161.256 Q565.42 163.155 560.466 163.155 L549.934 163.155 L549.934 137.229 Z" fill="#000000" fill-rule="evenodd" fill-opacity="1" /><path clip-path="url(#clip540)" d="M609.702 149.127 L609.702 151.21 L590.118 151.21 Q590.396 155.608 592.757 157.923 Q595.142 160.215 599.378 160.215 Q601.831 160.215 604.123 159.613 Q606.438 159.011 608.706 157.807 L608.706 161.835 Q606.415 162.807 604.007 163.317 Q601.6 163.826 599.123 163.826 Q592.919 163.826 589.285 160.215 Q585.674 156.604 585.674 150.446 Q585.674 144.081 589.1 140.354 Q592.549 136.604 598.382 136.604 Q603.614 136.604 606.646 139.983 Q609.702 143.34 609.702 149.127 M605.442 147.877 Q605.396 144.382 603.475 142.298 Q601.577 140.215 598.429 140.215 Q594.864 140.215 592.711 142.229 Q590.581 144.243 590.257 147.9 L605.442 147.877 Z" fill="#000000" fill-rule="evenodd" fill-opacity="1" /></svg>
