<?xml version="1.0" encoding="utf-8"?>
<svg xmlns="http://www.w3.org/2000/svg" xmlns:xlink="http://www.w3.org/1999/xlink" width="600" height="400" viewBox="0 0 2400 1600">
<defs>
  <clipPath id="clip580">
    <rect x="0" y="0" width="2400" height="1600"/>
  </clipPath>
</defs>
<path clip-path="url(#clip580)" d="
M0 1600 L2400 1600 L2400 0 L0 0  Z
  " fill="#ffffff" fill-rule="evenodd" fill-opacity="1"/>
<defs>
  <clipPath id="clip581">
    <rect x="480" y="0" width="1681" height="1600"/>
  </clipPath>
</defs>
<defs>
  <clipPath id="clip582">
    <rect x="155" y="47" width="2198" height="1405"/>
  </clipPath>
</defs>
<path clip-path="url(#clip580)" d="
M137.362 1450.96 L2352.76 1450.96 L2352.76 47.2441 L137.362 47.2441  Z
  " fill="#ffffff" fill-rule="evenodd" fill-opacity="1"/>
<defs>
  <clipPath id="clip583">
    <rect x="137" y="47" width="2216" height="1405"/>
  </clipPath>
</defs>
<polyline clip-path="url(#clip583)" style="stroke:#000000; stroke-linecap:butt; stroke-linejoin:round; stroke-width:2; stroke-opacity:0.1; fill:none" points="
  200.062,1450.96 200.062,47.2441 
  "/>
<polyline clip-path="url(#clip583)" style="stroke:#000000; stroke-linecap:butt; stroke-linejoin:round; stroke-width:2; stroke-opacity:0.1; fill:none" points="
  896.727,1450.96 896.727,47.2441 
  "/>
<polyline clip-path="url(#clip583)" style="stroke:#000000; stroke-linecap:butt; stroke-linejoin:round; stroke-width:2; stroke-opacity:0.1; fill:none" points="
  1593.39,1450.96 1593.39,47.2441 
  "/>
<polyline clip-path="url(#clip583)" style="stroke:#000000; stroke-linecap:butt; stroke-linejoin:round; stroke-width:2; stroke-opacity:0.1; fill:none" points="
  2290.06,1450.96 2290.06,47.2441 
  "/>
<polyline clip-path="url(#clip580)" style="stroke:#000000; stroke-linecap:butt; stroke-linejoin:round; stroke-width:4; stroke-opacity:1; fill:none" points="
  137.362,1450.96 2352.76,1450.96 
  "/>
<polyline clip-path="url(#clip580)" style="stroke:#000000; stroke-linecap:butt; stroke-linejoin:round; stroke-width:4; stroke-opacity:1; fill:none" points="
  200.062,1450.96 200.062,1432.06 
  "/>
<polyline clip-path="url(#clip580)" style="stroke:#000000; stroke-linecap:butt; stroke-linejoin:round; stroke-width:4; stroke-opacity:1; fill:none" points="
  896.727,1450.96 896.727,1432.06 
  "/>
<polyline clip-path="url(#clip580)" style="stroke:#000000; stroke-linecap:butt; stroke-linejoin:round; stroke-width:4; stroke-opacity:1; fill:none" points="
  1593.39,1450.96 1593.39,1432.06 
  "/>
<polyline clip-path="url(#clip580)" style="stroke:#000000; stroke-linecap:butt; stroke-linejoin:round; stroke-width:4; stroke-opacity:1; fill:none" points="
  2290.06,1450.96 2290.06,1432.06 
  "/>
<path clip-path="url(#clip580)" d="M169.819 1494.8 L199.495 1494.8 L199.495 1498.74 L169.819 1498.74 L169.819 1494.8 Z" fill="#000000" fill-rule="evenodd" fill-opacity="1" /><path clip-path="url(#clip580)" d="M210.398 1507.7 L218.036 1507.7 L218.036 1481.33 L209.726 1483 L209.726 1478.74 L217.99 1477.07 L222.666 1477.07 L222.666 1507.7 L230.305 1507.7 L230.305 1511.63 L210.398 1511.63 L210.398 1507.7 Z" fill="#000000" fill-rule="evenodd" fill-opacity="1" /><path clip-path="url(#clip580)" d="M896.727 1480.15 Q893.116 1480.15 891.287 1483.72 Q889.481 1487.26 889.481 1494.39 Q889.481 1501.49 891.287 1505.06 Q893.116 1508.6 896.727 1508.6 Q900.361 1508.6 902.167 1505.06 Q903.995 1501.49 903.995 1494.39 Q903.995 1487.26 902.167 1483.72 Q900.361 1480.15 896.727 1480.15 M896.727 1476.45 Q902.537 1476.45 905.592 1481.05 Q908.671 1485.64 908.671 1494.39 Q908.671 1503.11 905.592 1507.72 Q902.537 1512.3 896.727 1512.3 Q890.917 1512.3 887.838 1507.72 Q884.782 1503.11 884.782 1494.39 Q884.782 1485.64 887.838 1481.05 Q890.917 1476.45 896.727 1476.45 Z" fill="#000000" fill-rule="evenodd" fill-opacity="1" /><path clip-path="url(#clip580)" d="M1583.77 1507.7 L1591.41 1507.7 L1591.41 1481.33 L1583.1 1483 L1583.1 1478.74 L1591.37 1477.07 L1596.04 1477.07 L1596.04 1507.7 L1603.68 1507.7 L1603.68 1511.63 L1583.77 1511.63 L1583.77 1507.7 Z" fill="#000000" fill-rule="evenodd" fill-opacity="1" /><path clip-path="url(#clip580)" d="M2284.71 1507.7 L2301.03 1507.7 L2301.03 1511.63 L2279.08 1511.63 L2279.08 1507.7 Q2281.75 1504.94 2286.33 1500.31 Q2290.94 1495.66 2292.12 1494.32 Q2294.36 1491.79 2295.24 1490.06 Q2296.14 1488.3 2296.14 1486.61 Q2296.14 1483.85 2294.2 1482.12 Q2292.28 1480.38 2289.18 1480.38 Q2286.98 1480.38 2284.52 1481.15 Q2282.09 1481.91 2279.32 1483.46 L2279.32 1478.74 Q2282.14 1477.6 2284.59 1477.03 Q2287.05 1476.45 2289.08 1476.45 Q2294.45 1476.45 2297.65 1479.13 Q2300.84 1481.82 2300.84 1486.31 Q2300.84 1488.44 2300.03 1490.36 Q2299.25 1492.26 2297.14 1494.85 Q2296.56 1495.52 2293.46 1498.74 Q2290.36 1501.93 2284.71 1507.7 Z" fill="#000000" fill-rule="evenodd" fill-opacity="1" /><path clip-path="url(#clip580)" d="M1259.23 1539.92 Q1259.23 1541.72 1258.11 1542.75 Q1256.98 1543.75 1255.69 1543.75 Q1254.47 1543.75 1253.82 1543.04 Q1253.18 1542.33 1253.18 1541.43 Q1253.18 1540.21 1254.08 1539.14 Q1254.98 1538.08 1256.33 1537.85 Q1255.01 1537.02 1253.05 1537.02 Q1251.76 1537.02 1250.63 1537.69 Q1249.54 1538.37 1248.86 1539.24 Q1248.22 1540.11 1247.64 1541.37 Q1247.09 1542.59 1246.87 1543.33 Q1246.67 1544.04 1246.51 1544.81 L1244.26 1553.83 Q1243.16 1558.11 1243.16 1559.63 Q1243.16 1561.49 1244.06 1562.75 Q1244.97 1563.97 1246.77 1563.97 Q1247.48 1563.97 1248.28 1563.78 Q1249.09 1563.55 1250.12 1562.98 Q1251.18 1562.36 1252.11 1561.46 Q1253.08 1560.53 1254.02 1558.95 Q1254.95 1557.37 1255.56 1555.34 Q1255.75 1554.63 1256.4 1554.63 Q1257.2 1554.63 1257.2 1555.28 Q1257.2 1555.83 1256.75 1556.98 Q1256.33 1558.11 1255.4 1559.59 Q1254.5 1561.04 1253.31 1562.36 Q1252.11 1563.65 1250.34 1564.55 Q1248.57 1565.46 1246.64 1565.46 Q1243.87 1565.46 1242.03 1563.97 Q1240.2 1562.49 1239.52 1560.43 Q1239.36 1560.72 1239.14 1561.11 Q1238.91 1561.49 1238.23 1562.36 Q1237.59 1563.2 1236.85 1563.84 Q1236.11 1564.46 1234.95 1564.94 Q1233.82 1565.46 1232.6 1565.46 Q1231.05 1565.46 1229.67 1565 Q1228.31 1564.55 1227.35 1563.52 Q1226.38 1562.49 1226.38 1561.08 Q1226.38 1559.5 1227.45 1558.4 Q1228.54 1557.27 1230.02 1557.27 Q1230.96 1557.27 1231.7 1557.82 Q1232.47 1558.37 1232.47 1559.56 Q1232.47 1560.88 1231.57 1561.88 Q1230.67 1562.88 1229.38 1563.14 Q1230.7 1563.97 1232.66 1563.97 Q1234.79 1563.97 1236.46 1562.11 Q1238.14 1560.24 1238.94 1557.11 Q1240.94 1549.61 1241.71 1546.26 Q1242.49 1542.88 1242.49 1541.43 Q1242.49 1540.08 1242.13 1539.14 Q1241.78 1538.21 1241.16 1537.79 Q1240.59 1537.34 1240.04 1537.18 Q1239.52 1537.02 1238.94 1537.02 Q1237.98 1537.02 1236.88 1537.4 Q1235.82 1537.79 1234.53 1538.69 Q1233.27 1539.56 1232.08 1541.37 Q1230.89 1543.17 1230.09 1545.65 Q1229.93 1546.39 1229.22 1546.39 Q1228.44 1546.36 1228.44 1545.71 Q1228.44 1545.17 1228.86 1544.04 Q1229.31 1542.88 1230.21 1541.43 Q1231.15 1539.98 1232.34 1538.69 Q1233.56 1537.37 1235.34 1536.47 Q1237.14 1535.57 1239.07 1535.57 Q1239.94 1535.57 1240.78 1535.76 Q1241.65 1535.92 1242.68 1536.41 Q1243.74 1536.89 1244.68 1537.95 Q1245.61 1539.01 1246.19 1540.56 Q1246.58 1539.82 1247.09 1539.11 Q1247.64 1538.4 1248.48 1537.53 Q1249.35 1536.63 1250.54 1536.12 Q1251.76 1535.57 1253.11 1535.57 Q1254.43 1535.57 1255.72 1535.92 Q1257.01 1536.24 1258.11 1537.31 Q1259.23 1538.34 1259.23 1539.92 Z" fill="#000000" fill-rule="evenodd" fill-opacity="1" /><polyline clip-path="url(#clip583)" style="stroke:#000000; stroke-linecap:butt; stroke-linejoin:round; stroke-width:2; stroke-opacity:0.1; fill:none" points="
  137.362,1310.58 2352.76,1310.58 
  "/>
<polyline clip-path="url(#clip583)" style="stroke:#000000; stroke-linecap:butt; stroke-linejoin:round; stroke-width:2; stroke-opacity:0.1; fill:none" points="
  137.362,1044.21 2352.76,1044.21 
  "/>
<polyline clip-path="url(#clip583)" style="stroke:#000000; stroke-linecap:butt; stroke-linejoin:round; stroke-width:2; stroke-opacity:0.1; fill:none" points="
  137.362,777.848 2352.76,777.848 
  "/>
<polyline clip-path="url(#clip583)" style="stroke:#000000; stroke-linecap:butt; stroke-linejoin:round; stroke-width:2; stroke-opacity:0.1; fill:none" points="
  137.362,511.482 2352.76,511.482 
  "/>
<polyline clip-path="url(#clip583)" style="stroke:#000000; stroke-linecap:butt; stroke-linejoin:round; stroke-width:2; stroke-opacity:0.1; fill:none" points="
  137.362,245.116 2352.76,245.116 
  "/>
<polyline clip-path="url(#clip580)" style="stroke:#000000; stroke-linecap:butt; stroke-linejoin:round; stroke-width:4; stroke-opacity:1; fill:none" points="
  137.362,1450.96 137.362,47.2441 
  "/>
<polyline clip-path="url(#clip580)" style="stroke:#000000; stroke-linecap:butt; stroke-linejoin:round; stroke-width:4; stroke-opacity:1; fill:none" points="
  137.362,1310.58 156.26,1310.58 
  "/>
<polyline clip-path="url(#clip580)" style="stroke:#000000; stroke-linecap:butt; stroke-linejoin:round; stroke-width:4; stroke-opacity:1; fill:none" points="
  137.362,1044.21 156.26,1044.21 
  "/>
<polyline clip-path="url(#clip580)" style="stroke:#000000; stroke-linecap:butt; stroke-linejoin:round; stroke-width:4; stroke-opacity:1; fill:none" points="
  137.362,777.848 156.26,777.848 
  "/>
<polyline clip-path="url(#clip580)" style="stroke:#000000; stroke-linecap:butt; stroke-linejoin:round; stroke-width:4; stroke-opacity:1; fill:none" points="
  137.362,511.482 156.26,511.482 
  "/>
<polyline clip-path="url(#clip580)" style="stroke:#000000; stroke-linecap:butt; stroke-linejoin:round; stroke-width:4; stroke-opacity:1; fill:none" points="
  137.362,245.116 156.26,245.116 
  "/>
<path clip-path="url(#clip580)" d="M89.4178 1296.38 Q85.8068 1296.38 83.9781 1299.94 Q82.1725 1303.48 82.1725 1310.61 Q82.1725 1317.72 83.9781 1321.28 Q85.8068 1324.83 89.4178 1324.83 Q93.0521 1324.83 94.8576 1321.28 Q96.6863 1317.72 96.6863 1310.61 Q96.6863 1303.48 94.8576 1299.94 Q93.0521 1296.38 89.4178 1296.38 M89.4178 1292.67 Q95.228 1292.67 98.2835 1297.28 Q101.362 1301.86 101.362 1310.61 Q101.362 1319.34 98.2835 1323.95 Q95.228 1328.53 89.4178 1328.53 Q83.6077 1328.53 80.529 1323.95 Q77.4735 1319.34 77.4735 1310.61 Q77.4735 1301.86 80.529 1297.28 Q83.6077 1292.67 89.4178 1292.67 Z" fill="#000000" fill-rule="evenodd" fill-opacity="1" /><path clip-path="url(#clip580)" d="M94.2326 1042.86 Q97.5891 1043.58 99.4641 1045.85 Q101.362 1048.11 101.362 1051.45 Q101.362 1056.56 97.8437 1059.36 Q94.3252 1062.16 87.8438 1062.16 Q85.6679 1062.16 83.3531 1061.72 Q81.0614 1061.31 78.6077 1060.45 L78.6077 1055.94 Q80.5522 1057.07 82.867 1057.65 Q85.1818 1058.23 87.7049 1058.23 Q92.103 1058.23 94.3947 1056.49 Q96.7095 1054.76 96.7095 1051.45 Q96.7095 1048.39 94.5567 1046.68 Q92.4271 1044.94 88.6077 1044.94 L84.5799 1044.94 L84.5799 1041.1 L88.7928 1041.1 Q92.2419 1041.1 94.0706 1039.73 Q95.8993 1038.35 95.8993 1035.75 Q95.8993 1033.09 94.0012 1031.68 Q92.1262 1030.24 88.6077 1030.24 Q86.6864 1030.24 84.4873 1030.66 Q82.2883 1031.08 79.6494 1031.96 L79.6494 1027.79 Q82.3114 1027.05 84.6262 1026.68 Q86.9642 1026.31 89.0243 1026.31 Q94.3484 1026.31 97.4502 1028.74 Q100.552 1031.15 100.552 1035.27 Q100.552 1038.14 98.9085 1040.13 Q97.265 1042.1 94.2326 1042.86 Z" fill="#000000" fill-rule="evenodd" fill-opacity="1" /><path clip-path="url(#clip580)" d="M89.8345 775.984 Q86.6864 775.984 84.8345 778.137 Q83.0058 780.29 83.0058 784.04 Q83.0058 787.767 84.8345 789.942 Q86.6864 792.095 89.8345 792.095 Q92.9826 792.095 94.8113 789.942 Q96.6632 787.767 96.6632 784.04 Q96.6632 780.29 94.8113 778.137 Q92.9826 775.984 89.8345 775.984 M99.1169 761.331 L99.1169 765.591 Q97.3576 764.757 95.5521 764.318 Q93.7697 763.878 92.0104 763.878 Q87.3808 763.878 84.9271 767.003 Q82.4966 770.128 82.1494 776.447 Q83.5151 774.433 85.5753 773.368 Q87.6354 772.281 90.1123 772.281 Q95.3206 772.281 98.3298 775.452 Q101.362 778.6 101.362 784.04 Q101.362 789.364 98.2141 792.581 Q95.066 795.799 89.8345 795.799 Q83.8392 795.799 80.6679 791.216 Q77.4966 786.609 77.4966 777.882 Q77.4966 769.688 81.3855 764.827 Q85.2743 759.943 91.8252 759.943 Q93.5845 759.943 95.3669 760.29 Q97.1724 760.637 99.1169 761.331 Z" fill="#000000" fill-rule="evenodd" fill-opacity="1" /><path clip-path="url(#clip580)" d="M79.742 528.044 L79.742 523.785 Q81.5012 524.618 83.3068 525.058 Q85.1123 525.498 86.8484 525.498 Q91.478 525.498 93.9086 522.396 Q96.3623 519.271 96.7095 512.929 Q95.3669 514.919 93.3067 515.984 Q91.2465 517.049 88.7466 517.049 Q83.5614 517.049 80.529 513.924 Q77.5198 510.776 77.5198 505.336 Q77.5198 500.012 80.6679 496.795 Q83.816 493.577 89.0475 493.577 Q95.0428 493.577 98.1909 498.183 Q101.362 502.767 101.362 511.517 Q101.362 519.688 97.4734 524.572 Q93.6076 529.433 87.0567 529.433 Q85.2975 529.433 83.492 529.086 Q81.6864 528.739 79.742 528.044 M89.0475 513.392 Q92.1956 513.392 94.0243 511.239 Q95.8761 509.086 95.8761 505.336 Q95.8761 501.609 94.0243 499.457 Q92.1956 497.281 89.0475 497.281 Q85.8993 497.281 84.0475 499.457 Q82.2188 501.609 82.2188 505.336 Q82.2188 509.086 84.0475 511.239 Q85.8993 513.392 89.0475 513.392 Z" fill="#000000" fill-rule="evenodd" fill-opacity="1" /><path clip-path="url(#clip580)" d="M51.6634 258.461 L59.3023 258.461 L59.3023 232.096 L50.9921 233.762 L50.9921 229.503 L59.256 227.836 L63.9319 227.836 L63.9319 258.461 L71.5707 258.461 L71.5707 262.396 L51.6634 262.396 L51.6634 258.461 Z" fill="#000000" fill-rule="evenodd" fill-opacity="1" /><path clip-path="url(#clip580)" d="M85.0429 258.461 L101.362 258.461 L101.362 262.396 L79.4179 262.396 L79.4179 258.461 Q82.0799 255.707 86.6632 251.077 Q91.2697 246.424 92.4502 245.082 Q94.6956 242.558 95.5752 240.822 Q96.478 239.063 96.478 237.373 Q96.478 234.619 94.5336 232.883 Q92.6123 231.146 89.5104 231.146 Q87.3114 231.146 84.8577 231.91 Q82.4271 232.674 79.6494 234.225 L79.6494 229.503 Q82.4734 228.369 84.9271 227.79 Q87.3808 227.211 89.4178 227.211 Q94.7882 227.211 97.9826 229.896 Q101.177 232.582 101.177 237.072 Q101.177 239.202 100.367 241.123 Q99.5798 243.021 97.4734 245.614 Q96.8947 246.285 93.7928 249.503 Q90.691 252.697 85.0429 258.461 Z" fill="#000000" fill-rule="evenodd" fill-opacity="1" /><circle clip-path="url(#clip583)" cx="200.062" cy="1277.7" r="14" fill="#009af9" fill-rule="evenodd" fill-opacity="1" stroke="#000000" stroke-opacity="1" stroke-width="3.2"/>
<circle clip-path="url(#clip583)" cx="349.347" cy="1274.79" r="14" fill="#009af9" fill-rule="evenodd" fill-opacity="1" stroke="#000000" stroke-opacity="1" stroke-width="3.2"/>
<circle clip-path="url(#clip583)" cx="498.633" cy="1278.18" r="14" fill="#009af9" fill-rule="evenodd" fill-opacity="1" stroke="#000000" stroke-opacity="1" stroke-width="3.2"/>
<circle clip-path="url(#clip583)" cx="647.918" cy="1260.91" r="14" fill="#009af9" fill-rule="evenodd" fill-opacity="1" stroke="#000000" stroke-opacity="1" stroke-width="3.2"/>
<circle clip-path="url(#clip583)" cx="797.203" cy="1247.33" r="14" fill="#009af9" fill-rule="evenodd" fill-opacity="1" stroke="#000000" stroke-opacity="1" stroke-width="3.2"/>
<circle clip-path="url(#clip583)" cx="946.488" cy="1204.31" r="14" fill="#009af9" fill-rule="evenodd" fill-opacity="1" stroke="#000000" stroke-opacity="1" stroke-width="3.2"/>
<circle clip-path="url(#clip583)" cx="1095.77" cy="1162.13" r="14" fill="#009af9" fill-rule="evenodd" fill-opacity="1" stroke="#000000" stroke-opacity="1" stroke-width="3.2"/>
<circle clip-path="url(#clip583)" cx="1245.06" cy="1100.45" r="14" fill="#009af9" fill-rule="evenodd" fill-opacity="1" stroke="#000000" stroke-opacity="1" stroke-width="3.2"/>
<circle clip-path="url(#clip583)" cx="1394.34" cy="1075.92" r="14" fill="#009af9" fill-rule="evenodd" fill-opacity="1" stroke="#000000" stroke-opacity="1" stroke-width="3.2"/>
<circle clip-path="url(#clip583)" cx="1543.63" cy="1074.51" r="14" fill="#009af9" fill-rule="evenodd" fill-opacity="1" stroke="#000000" stroke-opacity="1" stroke-width="3.2"/>
<circle clip-path="url(#clip583)" cx="1692.91" cy="1126.04" r="14" fill="#009af9" fill-rule="evenodd" fill-opacity="1" stroke="#000000" stroke-opacity="1" stroke-width="3.2"/>
<circle clip-path="url(#clip583)" cx="1842.2" cy="1171.77" r="14" fill="#009af9" fill-rule="evenodd" fill-opacity="1" stroke="#000000" stroke-opacity="1" stroke-width="3.2"/>
<circle clip-path="url(#clip583)" cx="1991.49" cy="1226.34" r="14" fill="#009af9" fill-rule="evenodd" fill-opacity="1" stroke="#000000" stroke-opacity="1" stroke-width="3.2"/>
<circle clip-path="url(#clip583)" cx="2140.77" cy="1247.62" r="14" fill="#009af9" fill-rule="evenodd" fill-opacity="1" stroke="#000000" stroke-opacity="1" stroke-width="3.2"/>
<circle clip-path="url(#clip583)" cx="2290.06" cy="1273.31" r="14" fill="#009af9" fill-rule="evenodd" fill-opacity="1" stroke="#000000" stroke-opacity="1" stroke-width="3.2"/>
<polyline clip-path="url(#clip583)" style="stroke:#e26f46; stroke-linecap:butt; stroke-linejoin:round; stroke-width:4; stroke-opacity:1; fill:none" points="
  200.062,1277.7 210.565,692.532 221.067,346.832 231.569,177.741 242.072,135.032 252.574,179.055 263.077,278.963 273.579,411.177 284.082,558.074 294.584,706.858 
  305.087,848.608 315.589,977.471 326.092,1089.98 336.594,1184.51 347.097,1260.77 357.599,1319.47 368.102,1361.97 378.604,1390.08 389.107,1405.79 399.609,1411.23 
  410.112,1408.46 420.614,1399.42 431.117,1385.91 441.619,1369.51 452.122,1351.58 462.624,1333.25 473.127,1315.44 483.629,1298.83 494.132,1283.95 504.634,1271.11 
  515.137,1260.49 525.639,1252.16 536.141,1246.04 546.644,1242.02 557.146,1239.88 567.649,1239.38 578.151,1240.25 588.654,1242.2 599.156,1244.96 609.659,1248.24 
  620.161,1251.8 630.664,1255.41 641.166,1258.86 651.669,1261.98 662.171,1264.65 672.674,1266.77 683.176,1268.25 693.679,1269.06 704.181,1269.19 714.684,1268.65 
  725.186,1267.47 735.689,1265.71 746.191,1263.42 756.694,1260.68 767.196,1257.57 777.699,1254.16 788.201,1250.54 798.704,1246.79 809.206,1242.97 819.709,1239.16 
  830.211,1235.41 840.713,1231.77 851.216,1228.27 861.718,1224.95 872.221,1221.81 882.723,1218.86 893.226,1216.1 903.728,1213.52 914.231,1211.09 924.733,1208.8 
  935.236,1206.6 945.738,1204.46 956.241,1202.35 966.743,1200.22 977.246,1198.05 987.748,1195.78 998.251,1193.4 1008.75,1190.86 1019.26,1188.15 1029.76,1185.25 
  1040.26,1182.13 1050.76,1178.8 1061.27,1175.25 1071.77,1171.48 1082.27,1167.51 1092.77,1163.35 1103.28,1159.03 1113.78,1154.56 1124.28,1149.98 1134.78,1145.32 
  1145.29,1140.63 1155.79,1135.92 1166.29,1131.24 1176.79,1126.63 1187.3,1122.12 1197.8,1117.75 1208.3,1113.53 1218.8,1109.52 1229.31,1105.71 1239.81,1102.14 
  1250.31,1098.81 1260.81,1095.75 1271.32,1092.94 1281.82,1090.39 1292.32,1088.09 1302.82,1086.04 1313.33,1084.22 1323.83,1082.62 1334.33,1081.21 1344.83,1079.98 
  1355.34,1078.9 1365.84,1077.96 1376.34,1077.13 1386.84,1076.39 1397.35,1075.73 1407.85,1075.14 1418.35,1074.59 1428.85,1074.09 1439.35,1073.64 1449.86,1073.23 
  1460.36,1072.87 1470.86,1072.59 1481.36,1072.4 1491.87,1072.31 1502.37,1072.37 1512.87,1072.59 1523.37,1073.01 1533.88,1073.66 1544.38,1074.59 1554.88,1075.82 
  1565.38,1077.38 1575.89,1079.3 1586.39,1081.61 1596.89,1084.32 1607.39,1087.44 1617.9,1090.97 1628.4,1094.91 1638.9,1099.24 1649.4,1103.92 1659.91,1108.91 
  1670.41,1114.18 1680.91,1119.64 1691.41,1125.24 1701.92,1130.88 1712.42,1136.5 1722.92,1141.98 1733.42,1147.25 1743.93,1152.2 1754.43,1156.75 1764.93,1160.82 
  1775.43,1164.33 1785.94,1167.22 1796.44,1169.46 1806.94,1171.03 1817.44,1171.94 1827.95,1172.24 1838.45,1171.98 1848.95,1171.27 1859.45,1170.25 1869.96,1169.09 
  1880.46,1168 1890.96,1167.2 1901.46,1166.97 1911.97,1167.58 1922.47,1169.31 1932.97,1172.46 1943.47,1177.3 1953.98,1184.07 1964.48,1192.98 1974.98,1204.14 
  1985.48,1217.62 1995.99,1233.35 2006.49,1251.12 2016.99,1270.58 2027.49,1291.21 2038,1312.27 2048.5,1332.8 2059,1351.63 2069.5,1367.35 2080.01,1378.32 
  2090.51,1382.7 2101.01,1378.47 2111.51,1363.52 2122.02,1335.69 2132.52,1292.92 2143.02,1233.38 2153.52,1155.69 2164.03,1059.18 2174.53,944.163 2185.03,812.379 
  2195.53,667.441 2206.04,515.427 2216.54,365.569 2227.04,231.077 2237.54,130.12 2248.05,86.9719 2258.55,133.356 2269.05,310.01 2279.55,668.499 2290.06,1273.31 
  
  "/>
<path clip-path="url(#clip580)" d="
M211.209 249.555 L777.778 249.555 L777.778 94.0346 L211.209 94.0346  Z
  " fill="#ffffff" fill-rule="evenodd" fill-opacity="1"/>
<polyline clip-path="url(#clip580)" style="stroke:#000000; stroke-linecap:butt; stroke-linejoin:round; stroke-width:4; stroke-opacity:1; fill:none" points="
  211.209,249.555 777.778,249.555 777.778,94.0346 211.209,94.0346 211.209,249.555 
  "/>
<circle clip-path="url(#clip580)" cx="309.671" cy="145.875" r="23" fill="#009af9" fill-rule="evenodd" fill-opacity="1" stroke="#000000" stroke-opacity="1" stroke-width="5.12"/>
<path clip-path="url(#clip580)" d="M415.91 159.752 L428.271 159.752 L428.271 140.632 L419.313 140.632 L419.313 143.872 Q419.313 153.409 416.582 158.502 L415.91 159.752 M409.73 159.752 Q411.836 158.826 412.762 156.858 Q415.031 151.974 415.031 142.136 L415.031 137.229 L432.554 137.229 L432.554 159.752 L435.956 159.752 L435.956 169.706 L432.554 169.706 L432.554 163.155 L411.535 163.155 L411.535 169.706 L408.133 169.706 L408.133 159.752 L409.73 159.752 Z" fill="#000000" fill-rule="evenodd" fill-opacity="1" /><path clip-path="url(#clip580)" d="M454.683 150.122 Q449.521 150.122 447.531 151.303 Q445.54 152.483 445.54 155.331 Q445.54 157.599 447.021 158.942 Q448.526 160.261 451.095 160.261 Q454.637 160.261 456.767 157.761 Q458.919 155.238 458.919 151.071 L458.919 150.122 L454.683 150.122 M463.179 148.363 L463.179 163.155 L458.919 163.155 L458.919 159.219 Q457.461 161.581 455.285 162.715 Q453.109 163.826 449.961 163.826 Q445.98 163.826 443.618 161.604 Q441.281 159.358 441.281 155.608 Q441.281 151.233 444.197 149.011 Q447.137 146.789 452.947 146.789 L458.919 146.789 L458.919 146.372 Q458.919 143.433 456.975 141.835 Q455.054 140.215 451.558 140.215 Q449.336 140.215 447.23 140.747 Q445.123 141.28 443.179 142.345 L443.179 138.409 Q445.517 137.507 447.716 137.067 Q449.915 136.604 451.998 136.604 Q457.623 136.604 460.401 139.521 Q463.179 142.437 463.179 148.363 Z" fill="#000000" fill-rule="evenodd" fill-opacity="1" /><path clip-path="url(#clip580)" d="M471.79 137.229 L476.072 137.229 L476.072 147.807 L489.891 147.807 L489.891 137.229 L494.174 137.229 L494.174 163.155 L489.891 163.155 L489.891 151.21 L476.072 151.21 L476.072 163.155 L471.79 163.155 L471.79 137.229 Z" fill="#000000" fill-rule="evenodd" fill-opacity="1" /><path clip-path="url(#clip580)" d="M502.785 137.229 L507.067 137.229 L507.067 147.807 L520.887 147.807 L520.887 137.229 L525.169 137.229 L525.169 163.155 L520.887 163.155 L520.887 151.21 L507.067 151.21 L507.067 163.155 L502.785 163.155 L502.785 137.229 Z" fill="#000000" fill-rule="evenodd" fill-opacity="1" /><path clip-path="url(#clip580)" d="M558.433 137.229 L562.692 137.229 L562.692 163.155 L558.433 163.155 L558.433 137.229 M560.562 136.604 L560.562 136.604 M550.076 155.469 Q550.076 153.386 548.548 152.298 Q547.044 151.21 544.127 151.21 L538.062 151.21 L538.062 159.752 L544.127 159.752 Q547.044 159.752 548.548 158.664 Q550.076 157.553 550.076 155.469 M533.78 137.229 L538.062 137.229 L538.062 147.807 L544.312 147.807 Q549.266 147.807 551.928 149.706 Q554.613 151.581 554.613 155.469 Q554.613 159.358 551.928 161.256 Q549.266 163.155 544.312 163.155 L533.78 163.155 L533.78 137.229 Z" fill="#000000" fill-rule="evenodd" fill-opacity="1" /><path clip-path="url(#clip580)" d="M593.548 149.127 L593.548 151.21 L573.965 151.21 Q574.243 155.608 576.604 157.923 Q578.988 160.215 583.224 160.215 Q585.678 160.215 587.97 159.613 Q590.284 159.011 592.553 157.807 L592.553 161.835 Q590.261 162.807 587.854 163.317 Q585.446 163.826 582.97 163.826 Q576.766 163.826 573.132 160.215 Q569.521 156.604 569.521 150.446 Q569.521 144.081 572.946 140.354 Q576.396 136.604 582.229 136.604 Q587.46 136.604 590.493 139.983 Q593.548 143.34 593.548 149.127 M589.289 147.877 Q589.243 144.382 587.321 142.298 Q585.423 140.215 582.275 140.215 Q578.71 140.215 576.558 142.229 Q574.428 144.243 574.104 147.9 L589.289 147.877 Z" fill="#000000" fill-rule="evenodd" fill-opacity="1" /><polyline clip-path="url(#clip580)" style="stroke:#e26f46; stroke-linecap:butt; stroke-linejoin:round; stroke-width:4; stroke-opacity:1; fill:none" points="
  235.824,197.715 383.517,197.715 
  "/>
<path clip-path="url(#clip580)" d="M430.332 189.069 L430.332 214.995 L426.095 214.995 L426.095 194.185 L413.595 214.995 L408.133 214.995 L408.133 189.069 L412.369 189.069 L412.369 209.833 L424.845 189.069 L430.332 189.069 Z" fill="#000000" fill-rule="evenodd" fill-opacity="1" /><path clip-path="url(#clip580)" d="M438.943 189.069 L443.225 189.069 L443.225 199.647 L457.044 199.647 L457.044 189.069 L461.327 189.069 L461.327 214.995 L457.044 214.995 L457.044 203.05 L443.225 203.05 L443.225 214.995 L438.943 214.995 L438.943 189.069 Z" fill="#000000" fill-rule="evenodd" fill-opacity="1" /><path clip-path="url(#clip580)" d="M467.021 189.069 L491.859 189.069 L491.859 192.472 L481.535 192.472 L481.535 214.995 L477.345 214.995 L477.345 192.472 L467.021 192.472 L467.021 189.069 Z" fill="#000000" fill-rule="evenodd" fill-opacity="1" /><path clip-path="url(#clip580)" d="M519.891 200.967 L519.891 203.05 L500.308 203.05 Q500.586 207.448 502.947 209.763 Q505.331 212.055 509.567 212.055 Q512.021 212.055 514.313 211.453 Q516.627 210.851 518.896 209.647 L518.896 213.675 Q516.604 214.647 514.197 215.157 Q511.789 215.666 509.313 215.666 Q503.109 215.666 499.475 212.055 Q495.864 208.444 495.864 202.286 Q495.864 195.921 499.289 192.194 Q502.739 188.444 508.572 188.444 Q513.803 188.444 516.836 191.823 Q519.891 195.18 519.891 200.967 M515.632 199.717 Q515.586 196.222 513.664 194.138 Q511.766 192.055 508.618 192.055 Q505.053 192.055 502.901 194.069 Q500.771 196.083 500.447 199.74 L515.632 199.717 Z" fill="#000000" fill-rule="evenodd" fill-opacity="1" /><path clip-path="url(#clip580)" d="M531.002 211.106 L531.002 224.856 L526.72 224.856 L526.72 189.069 L531.002 189.069 L531.002 193.004 Q532.345 190.689 534.382 189.578 Q536.442 188.444 539.289 188.444 Q544.011 188.444 546.951 192.194 Q549.914 195.944 549.914 202.055 Q549.914 208.166 546.951 211.916 Q544.011 215.666 539.289 215.666 Q536.442 215.666 534.382 214.555 Q532.345 213.421 531.002 211.106 M545.493 202.055 Q545.493 197.356 543.549 194.694 Q541.627 192.009 538.248 192.009 Q534.868 192.009 532.924 194.694 Q531.002 197.356 531.002 202.055 Q531.002 206.754 532.924 209.439 Q534.868 212.101 538.248 212.101 Q541.627 212.101 543.549 209.439 Q545.493 206.754 545.493 202.055 Z" fill="#000000" fill-rule="evenodd" fill-opacity="1" /><path clip-path="url(#clip580)" d="M579.196 189.069 L579.196 214.995 L574.914 214.995 L574.914 192.472 L561.095 192.472 L561.095 214.995 L556.812 214.995 L556.812 189.069 L579.196 189.069 Z" fill="#000000" fill-rule="evenodd" fill-opacity="1" /><path clip-path="url(#clip580)" d="M598.016 192.055 Q594.59 192.055 592.599 194.74 Q590.608 197.402 590.608 202.055 Q590.608 206.708 592.576 209.393 Q594.567 212.055 598.016 212.055 Q601.419 212.055 603.409 209.37 Q605.4 206.684 605.4 202.055 Q605.4 197.448 603.409 194.763 Q601.419 192.055 598.016 192.055 M598.016 188.444 Q603.571 188.444 606.743 192.055 Q609.914 195.666 609.914 202.055 Q609.914 208.421 606.743 212.055 Q603.571 215.666 598.016 215.666 Q592.437 215.666 589.266 212.055 Q586.118 208.421 586.118 202.055 Q586.118 195.666 589.266 192.055 Q592.437 188.444 598.016 188.444 Z" fill="#000000" fill-rule="evenodd" fill-opacity="1" /><path clip-path="url(#clip580)" d="M614.266 214.995 L614.266 211.453 Q618.479 210.805 619.775 207.888 Q621.349 203.791 621.349 193.305 L621.349 189.069 L638.872 189.069 L638.872 214.995 L634.613 214.995 L634.613 192.472 L625.608 192.472 L625.608 195.041 Q625.608 205.041 623.571 209.532 Q621.395 214.323 614.266 214.995 Z" fill="#000000" fill-rule="evenodd" fill-opacity="1" /><path clip-path="url(#clip580)" d="M651.557 196.546 Q651.557 198.467 653.039 199.555 Q654.52 200.643 657.275 200.643 L663.015 200.643 L663.015 192.472 L657.275 192.472 Q654.52 192.472 653.039 193.536 Q651.557 194.601 651.557 196.546 M645.492 214.995 L653.409 203.629 Q650.724 203.027 648.941 201.453 Q647.159 199.856 647.159 196.546 Q647.159 192.796 649.636 190.944 Q652.136 189.069 657.159 189.069 L667.298 189.069 L667.298 214.995 L663.015 214.995 L663.015 204.046 L657.715 204.046 L650.076 214.995 L645.492 214.995 Z" fill="#000000" fill-rule="evenodd" fill-opacity="1" /><path clip-path="url(#clip580)" d="M675.631 189.069 L679.914 189.069 L679.914 199.647 L693.733 199.647 L693.733 189.069 L698.015 189.069 L698.015 214.995 L693.733 214.995 L693.733 203.05 L679.914 203.05 L679.914 214.995 L675.631 214.995 L675.631 189.069 Z" fill="#000000" fill-rule="evenodd" fill-opacity="1" /><path clip-path="url(#clip580)" d="M703.71 189.069 L728.548 189.069 L728.548 192.472 L718.223 192.472 L718.223 214.995 L714.034 214.995 L714.034 192.472 L703.71 192.472 L703.71 189.069 Z" fill="#000000" fill-rule="evenodd" fill-opacity="1" /></svg>
