<?xml version="1.0" encoding="utf-8"?>
<svg xmlns="http://www.w3.org/2000/svg" xmlns:xlink="http://www.w3.org/1999/xlink" width="600" height="400" viewBox="0 0 2400 1600">
<defs>
  <clipPath id="clip210">
    <rect x="0" y="0" width="2400" height="1600"/>
  </clipPath>
</defs>
<path clip-path="url(#clip210)" d="
M0 1600 L2400 1600 L2400 0 L0 0  Z
  " fill="#ffffff" fill-rule="evenodd" fill-opacity="1"/>
<defs>
  <clipPath id="clip211">
    <rect x="480" y="0" width="1681" height="1600"/>
  </clipPath>
</defs>
<defs>
  <clipPath id="clip212">
    <rect x="147" y="47" width="2206" height="1405"/>
  </clipPath>
</defs>
<path clip-path="url(#clip210)" d="
M155.765 1450.96 L2352.76 1450.96 L2352.76 47.2441 L155.765 47.2441  Z
  " fill="#ffffff" fill-rule="evenodd" fill-opacity="1"/>
<defs>
  <clipPath id="clip213">
    <rect x="155" y="47" width="2198" height="1405"/>
  </clipPath>
</defs>
<polyline clip-path="url(#clip213)" style="stroke:#000000; stroke-linecap:butt; stroke-linejoin:round; stroke-width:2; stroke-opacity:0.1; fill:none" points="
  217.944,1450.96 217.944,47.2441 
  "/>
<polyline clip-path="url(#clip213)" style="stroke:#000000; stroke-linecap:butt; stroke-linejoin:round; stroke-width:2; stroke-opacity:0.1; fill:none" points="
  908.822,1450.96 908.822,47.2441 
  "/>
<polyline clip-path="url(#clip213)" style="stroke:#000000; stroke-linecap:butt; stroke-linejoin:round; stroke-width:2; stroke-opacity:0.1; fill:none" points="
  1599.7,1450.96 1599.7,47.2441 
  "/>
<polyline clip-path="url(#clip213)" style="stroke:#000000; stroke-linecap:butt; stroke-linejoin:round; stroke-width:2; stroke-opacity:0.1; fill:none" points="
  2290.58,1450.96 2290.58,47.2441 
  "/>
<polyline clip-path="url(#clip210)" style="stroke:#000000; stroke-linecap:butt; stroke-linejoin:round; stroke-width:4; stroke-opacity:1; fill:none" points="
  155.765,1450.96 2352.76,1450.96 
  "/>
<polyline clip-path="url(#clip210)" style="stroke:#000000; stroke-linecap:butt; stroke-linejoin:round; stroke-width:4; stroke-opacity:1; fill:none" points="
  217.944,1450.96 217.944,1432.06 
  "/>
<polyline clip-path="url(#clip210)" style="stroke:#000000; stroke-linecap:butt; stroke-linejoin:round; stroke-width:4; stroke-opacity:1; fill:none" points="
  908.822,1450.96 908.822,1432.06 
  "/>
<polyline clip-path="url(#clip210)" style="stroke:#000000; stroke-linecap:butt; stroke-linejoin:round; stroke-width:4; stroke-opacity:1; fill:none" points="
  1599.7,1450.96 1599.7,1432.06 
  "/>
<polyline clip-path="url(#clip210)" style="stroke:#000000; stroke-linecap:butt; stroke-linejoin:round; stroke-width:4; stroke-opacity:1; fill:none" points="
  2290.58,1450.96 2290.58,1432.06 
  "/>
<path clip-path="url(#clip210)" d="M187.701 1494.8 L217.377 1494.8 L217.377 1498.74 L187.701 1498.74 L187.701 1494.8 Z" fill="#000000" fill-rule="evenodd" fill-opacity="1" /><path clip-path="url(#clip210)" d="M228.279 1507.7 L235.918 1507.7 L235.918 1481.33 L227.608 1483 L227.608 1478.74 L235.872 1477.07 L240.548 1477.07 L240.548 1507.7 L248.187 1507.7 L248.187 1511.63 L228.279 1511.63 L228.279 1507.7 Z" fill="#000000" fill-rule="evenodd" fill-opacity="1" /><path clip-path="url(#clip210)" d="M908.822 1480.15 Q905.21 1480.15 903.382 1483.72 Q901.576 1487.26 901.576 1494.39 Q901.576 1501.49 903.382 1505.06 Q905.21 1508.6 908.822 1508.6 Q912.456 1508.6 914.261 1505.06 Q916.09 1501.49 916.09 1494.39 Q916.09 1487.26 914.261 1483.72 Q912.456 1480.15 908.822 1480.15 M908.822 1476.45 Q914.632 1476.45 917.687 1481.05 Q920.766 1485.64 920.766 1494.39 Q920.766 1503.11 917.687 1507.72 Q914.632 1512.3 908.822 1512.3 Q903.011 1512.3 899.933 1507.72 Q896.877 1503.11 896.877 1494.39 Q896.877 1485.64 899.933 1481.05 Q903.011 1476.45 908.822 1476.45 Z" fill="#000000" fill-rule="evenodd" fill-opacity="1" /><path clip-path="url(#clip210)" d="M1590.08 1507.7 L1597.72 1507.7 L1597.72 1481.33 L1589.41 1483 L1589.41 1478.74 L1597.67 1477.07 L1602.35 1477.07 L1602.35 1507.7 L1609.99 1507.7 L1609.99 1511.63 L1590.08 1511.63 L1590.08 1507.7 Z" fill="#000000" fill-rule="evenodd" fill-opacity="1" /><path clip-path="url(#clip210)" d="M2285.23 1507.7 L2301.55 1507.7 L2301.55 1511.63 L2279.6 1511.63 L2279.6 1507.7 Q2282.27 1504.94 2286.85 1500.31 Q2291.46 1495.66 2292.64 1494.32 Q2294.88 1491.79 2295.76 1490.06 Q2296.66 1488.3 2296.66 1486.61 Q2296.66 1483.85 2294.72 1482.12 Q2292.8 1480.38 2289.7 1480.38 Q2287.5 1480.38 2285.04 1481.15 Q2282.61 1481.91 2279.84 1483.46 L2279.84 1478.74 Q2282.66 1477.6 2285.11 1477.03 Q2287.57 1476.45 2289.6 1476.45 Q2294.98 1476.45 2298.17 1479.13 Q2301.36 1481.82 2301.36 1486.31 Q2301.36 1488.44 2300.55 1490.36 Q2299.77 1492.26 2297.66 1494.85 Q2297.08 1495.52 2293.98 1498.74 Q2290.88 1501.93 2285.23 1507.7 Z" fill="#000000" fill-rule="evenodd" fill-opacity="1" /><path clip-path="url(#clip210)" d="M1268.43 1539.92 Q1268.43 1541.72 1267.31 1542.75 Q1266.18 1543.75 1264.89 1543.75 Q1263.67 1543.75 1263.02 1543.04 Q1262.38 1542.33 1262.38 1541.43 Q1262.38 1540.21 1263.28 1539.14 Q1264.18 1538.08 1265.54 1537.85 Q1264.21 1537.02 1262.25 1537.02 Q1260.96 1537.02 1259.83 1537.69 Q1258.74 1538.37 1258.06 1539.24 Q1257.42 1540.11 1256.84 1541.37 Q1256.29 1542.59 1256.07 1543.33 Q1255.87 1544.04 1255.71 1544.81 L1253.46 1553.83 Q1252.36 1558.11 1252.36 1559.63 Q1252.36 1561.49 1253.26 1562.75 Q1254.17 1563.97 1255.97 1563.97 Q1256.68 1563.97 1257.48 1563.78 Q1258.29 1563.55 1259.32 1562.98 Q1260.38 1562.36 1261.32 1561.46 Q1262.28 1560.53 1263.22 1558.95 Q1264.15 1557.37 1264.76 1555.34 Q1264.96 1554.63 1265.6 1554.63 Q1266.4 1554.63 1266.4 1555.28 Q1266.4 1555.83 1265.95 1556.98 Q1265.54 1558.11 1264.6 1559.59 Q1263.7 1561.04 1262.51 1562.36 Q1261.32 1563.65 1259.54 1564.55 Q1257.77 1565.46 1255.84 1565.46 Q1253.07 1565.46 1251.24 1563.97 Q1249.4 1562.49 1248.72 1560.43 Q1248.56 1560.72 1248.34 1561.11 Q1248.11 1561.49 1247.44 1562.36 Q1246.79 1563.2 1246.05 1563.84 Q1245.31 1564.46 1244.15 1564.94 Q1243.02 1565.46 1241.8 1565.46 Q1240.25 1565.46 1238.87 1565 Q1237.52 1564.55 1236.55 1563.52 Q1235.58 1562.49 1235.58 1561.08 Q1235.58 1559.5 1236.65 1558.4 Q1237.74 1557.27 1239.22 1557.27 Q1240.16 1557.27 1240.9 1557.82 Q1241.67 1558.37 1241.67 1559.56 Q1241.67 1560.88 1240.77 1561.88 Q1239.87 1562.88 1238.58 1563.14 Q1239.9 1563.97 1241.86 1563.97 Q1243.99 1563.97 1245.66 1562.11 Q1247.34 1560.24 1248.14 1557.11 Q1250.14 1549.61 1250.91 1546.26 Q1251.69 1542.88 1251.69 1541.43 Q1251.69 1540.08 1251.33 1539.14 Q1250.98 1538.21 1250.37 1537.79 Q1249.79 1537.34 1249.24 1537.18 Q1248.72 1537.02 1248.14 1537.02 Q1247.18 1537.02 1246.08 1537.4 Q1245.02 1537.79 1243.73 1538.69 Q1242.48 1539.56 1241.28 1541.37 Q1240.09 1543.17 1239.29 1545.65 Q1239.13 1546.39 1238.42 1546.39 Q1237.65 1546.36 1237.65 1545.71 Q1237.65 1545.17 1238.06 1544.04 Q1238.51 1542.88 1239.42 1541.43 Q1240.35 1539.98 1241.54 1538.69 Q1242.77 1537.37 1244.54 1536.47 Q1246.34 1535.57 1248.27 1535.57 Q1249.14 1535.57 1249.98 1535.76 Q1250.85 1535.92 1251.88 1536.41 Q1252.94 1536.89 1253.88 1537.95 Q1254.81 1539.01 1255.39 1540.56 Q1255.78 1539.82 1256.29 1539.11 Q1256.84 1538.4 1257.68 1537.53 Q1258.55 1536.63 1259.74 1536.12 Q1260.96 1535.57 1262.31 1535.57 Q1263.64 1535.57 1264.92 1535.92 Q1266.21 1536.24 1267.31 1537.31 Q1268.43 1538.34 1268.43 1539.92 Z" fill="#000000" fill-rule="evenodd" fill-opacity="1" /><polyline clip-path="url(#clip213)" style="stroke:#000000; stroke-linecap:butt; stroke-linejoin:round; stroke-width:2; stroke-opacity:0.1; fill:none" points="
  155.765,1318.57 2352.76,1318.57 
  "/>
<polyline clip-path="url(#clip213)" style="stroke:#000000; stroke-linecap:butt; stroke-linejoin:round; stroke-width:2; stroke-opacity:0.1; fill:none" points="
  155.765,1039.29 2352.76,1039.29 
  "/>
<polyline clip-path="url(#clip213)" style="stroke:#000000; stroke-linecap:butt; stroke-linejoin:round; stroke-width:2; stroke-opacity:0.1; fill:none" points="
  155.765,760.001 2352.76,760.001 
  "/>
<polyline clip-path="url(#clip213)" style="stroke:#000000; stroke-linecap:butt; stroke-linejoin:round; stroke-width:2; stroke-opacity:0.1; fill:none" points="
  155.765,480.716 2352.76,480.716 
  "/>
<polyline clip-path="url(#clip213)" style="stroke:#000000; stroke-linecap:butt; stroke-linejoin:round; stroke-width:2; stroke-opacity:0.1; fill:none" points="
  155.765,201.431 2352.76,201.431 
  "/>
<polyline clip-path="url(#clip210)" style="stroke:#000000; stroke-linecap:butt; stroke-linejoin:round; stroke-width:4; stroke-opacity:1; fill:none" points="
  155.765,1450.96 155.765,47.2441 
  "/>
<polyline clip-path="url(#clip210)" style="stroke:#000000; stroke-linecap:butt; stroke-linejoin:round; stroke-width:4; stroke-opacity:1; fill:none" points="
  155.765,1318.57 174.663,1318.57 
  "/>
<polyline clip-path="url(#clip210)" style="stroke:#000000; stroke-linecap:butt; stroke-linejoin:round; stroke-width:4; stroke-opacity:1; fill:none" points="
  155.765,1039.29 174.663,1039.29 
  "/>
<polyline clip-path="url(#clip210)" style="stroke:#000000; stroke-linecap:butt; stroke-linejoin:round; stroke-width:4; stroke-opacity:1; fill:none" points="
  155.765,760.001 174.663,760.001 
  "/>
<polyline clip-path="url(#clip210)" style="stroke:#000000; stroke-linecap:butt; stroke-linejoin:round; stroke-width:4; stroke-opacity:1; fill:none" points="
  155.765,480.716 174.663,480.716 
  "/>
<polyline clip-path="url(#clip210)" style="stroke:#000000; stroke-linecap:butt; stroke-linejoin:round; stroke-width:4; stroke-opacity:1; fill:none" points="
  155.765,201.431 174.663,201.431 
  "/>
<path clip-path="url(#clip210)" d="M63.5847 1304.37 Q59.9736 1304.37 58.1449 1307.93 Q56.3393 1311.48 56.3393 1318.6 Q56.3393 1325.71 58.1449 1329.28 Q59.9736 1332.82 63.5847 1332.82 Q67.2189 1332.82 69.0244 1329.28 Q70.8531 1325.71 70.8531 1318.6 Q70.8531 1311.48 69.0244 1307.93 Q67.2189 1304.37 63.5847 1304.37 M63.5847 1300.67 Q69.3948 1300.67 72.4503 1305.27 Q75.529 1309.86 75.529 1318.6 Q75.529 1327.33 72.4503 1331.94 Q69.3948 1336.52 63.5847 1336.52 Q57.7745 1336.52 54.6958 1331.94 Q51.6403 1327.33 51.6403 1318.6 Q51.6403 1309.86 54.6958 1305.27 Q57.7745 1300.67 63.5847 1300.67 Z" fill="#000000" fill-rule="evenodd" fill-opacity="1" /><path clip-path="url(#clip210)" d="M83.7466 1329.97 L88.6308 1329.97 L88.6308 1335.85 L83.7466 1335.85 L83.7466 1329.97 Z" fill="#000000" fill-rule="evenodd" fill-opacity="1" /><path clip-path="url(#clip210)" d="M98.8622 1301.29 L117.219 1301.29 L117.219 1305.23 L103.145 1305.23 L103.145 1313.7 Q104.163 1313.35 105.182 1313.19 Q106.2 1313 107.219 1313 Q113.006 1313 116.385 1316.17 Q119.765 1319.35 119.765 1324.76 Q119.765 1330.34 116.293 1333.44 Q112.82 1336.52 106.501 1336.52 Q104.325 1336.52 102.057 1336.15 Q99.8113 1335.78 97.4039 1335.04 L97.4039 1330.34 Q99.4872 1331.48 101.709 1332.03 Q103.932 1332.59 106.408 1332.59 Q110.413 1332.59 112.751 1330.48 Q115.089 1328.37 115.089 1324.76 Q115.089 1321.15 112.751 1319.04 Q110.413 1316.94 106.408 1316.94 Q104.534 1316.94 102.659 1317.35 Q100.807 1317.77 98.8622 1318.65 L98.8622 1301.29 Z" fill="#000000" fill-rule="evenodd" fill-opacity="1" /><path clip-path="url(#clip210)" d="M53.3995 1052.63 L61.0384 1052.63 L61.0384 1026.26 L52.7282 1027.93 L52.7282 1023.67 L60.9921 1022.01 L65.668 1022.01 L65.668 1052.63 L73.3068 1052.63 L73.3068 1056.57 L53.3995 1056.57 L53.3995 1052.63 Z" fill="#000000" fill-rule="evenodd" fill-opacity="1" /><path clip-path="url(#clip210)" d="M82.7512 1050.69 L87.6354 1050.69 L87.6354 1056.57 L82.7512 1056.57 L82.7512 1050.69 Z" fill="#000000" fill-rule="evenodd" fill-opacity="1" /><path clip-path="url(#clip210)" d="M107.821 1025.08 Q104.209 1025.08 102.381 1028.65 Q100.575 1032.19 100.575 1039.32 Q100.575 1046.43 102.381 1049.99 Q104.209 1053.53 107.821 1053.53 Q111.455 1053.53 113.26 1049.99 Q115.089 1046.43 115.089 1039.32 Q115.089 1032.19 113.26 1028.65 Q111.455 1025.08 107.821 1025.08 M107.821 1021.38 Q113.631 1021.38 116.686 1025.99 Q119.765 1030.57 119.765 1039.32 Q119.765 1048.05 116.686 1052.65 Q113.631 1057.24 107.821 1057.24 Q102.01 1057.24 98.9317 1052.65 Q95.8761 1048.05 95.8761 1039.32 Q95.8761 1030.57 98.9317 1025.99 Q102.01 1021.38 107.821 1021.38 Z" fill="#000000" fill-rule="evenodd" fill-opacity="1" /><path clip-path="url(#clip210)" d="M54.3949 773.345 L62.0337 773.345 L62.0337 746.98 L53.7236 748.646 L53.7236 744.387 L61.9874 742.721 L66.6633 742.721 L66.6633 773.345 L74.3022 773.345 L74.3022 777.281 L54.3949 777.281 L54.3949 773.345 Z" fill="#000000" fill-rule="evenodd" fill-opacity="1" /><path clip-path="url(#clip210)" d="M83.7466 771.401 L88.6308 771.401 L88.6308 777.281 L83.7466 777.281 L83.7466 771.401 Z" fill="#000000" fill-rule="evenodd" fill-opacity="1" /><path clip-path="url(#clip210)" d="M98.8622 742.721 L117.219 742.721 L117.219 746.656 L103.145 746.656 L103.145 755.128 Q104.163 754.781 105.182 754.619 Q106.2 754.433 107.219 754.433 Q113.006 754.433 116.385 757.605 Q119.765 760.776 119.765 766.193 Q119.765 771.771 116.293 774.873 Q112.82 777.952 106.501 777.952 Q104.325 777.952 102.057 777.582 Q99.8113 777.211 97.4039 776.47 L97.4039 771.771 Q99.4872 772.906 101.709 773.461 Q103.932 774.017 106.408 774.017 Q110.413 774.017 112.751 771.91 Q115.089 769.804 115.089 766.193 Q115.089 762.582 112.751 760.475 Q110.413 758.369 106.408 758.369 Q104.534 758.369 102.659 758.785 Q100.807 759.202 98.8622 760.082 L98.8622 742.721 Z" fill="#000000" fill-rule="evenodd" fill-opacity="1" /><path clip-path="url(#clip210)" d="M56.6171 494.061 L72.9365 494.061 L72.9365 497.996 L50.9921 497.996 L50.9921 494.061 Q53.6541 491.306 58.2375 486.676 Q62.8439 482.024 64.0245 480.681 Q66.2698 478.158 67.1494 476.422 Q68.0522 474.663 68.0522 472.973 Q68.0522 470.218 66.1078 468.482 Q64.1865 466.746 61.0847 466.746 Q58.8856 466.746 56.4319 467.51 Q54.0014 468.274 51.2236 469.825 L51.2236 465.102 Q54.0477 463.968 56.5014 463.389 Q58.955 462.811 60.9921 462.811 Q66.3624 462.811 69.5568 465.496 Q72.7513 468.181 72.7513 472.672 Q72.7513 474.801 71.9411 476.723 Q71.1541 478.621 69.0476 481.213 Q68.4689 481.885 65.367 485.102 Q62.2652 488.297 56.6171 494.061 Z" fill="#000000" fill-rule="evenodd" fill-opacity="1" /><path clip-path="url(#clip210)" d="M82.7512 492.116 L87.6354 492.116 L87.6354 497.996 L82.7512 497.996 L82.7512 492.116 Z" fill="#000000" fill-rule="evenodd" fill-opacity="1" /><path clip-path="url(#clip210)" d="M107.821 466.514 Q104.209 466.514 102.381 470.079 Q100.575 473.621 100.575 480.75 Q100.575 487.857 102.381 491.422 Q104.209 494.963 107.821 494.963 Q111.455 494.963 113.26 491.422 Q115.089 487.857 115.089 480.75 Q115.089 473.621 113.26 470.079 Q111.455 466.514 107.821 466.514 M107.821 462.811 Q113.631 462.811 116.686 467.417 Q119.765 472.001 119.765 480.75 Q119.765 489.477 116.686 494.084 Q113.631 498.667 107.821 498.667 Q102.01 498.667 98.9317 494.084 Q95.8761 489.477 95.8761 480.75 Q95.8761 472.001 98.9317 467.417 Q102.01 462.811 107.821 462.811 Z" fill="#000000" fill-rule="evenodd" fill-opacity="1" /><path clip-path="url(#clip210)" d="M57.6125 214.776 L73.9318 214.776 L73.9318 218.711 L51.9875 218.711 L51.9875 214.776 Q54.6495 212.021 59.2328 207.392 Q63.8393 202.739 65.0198 201.396 Q67.2652 198.873 68.1448 197.137 Q69.0476 195.378 69.0476 193.688 Q69.0476 190.933 67.1032 189.197 Q65.1819 187.461 62.08 187.461 Q59.881 187.461 57.4273 188.225 Q54.9967 188.989 52.219 190.54 L52.219 185.818 Q55.043 184.683 57.4967 184.105 Q59.9504 183.526 61.9874 183.526 Q67.3578 183.526 70.5522 186.211 Q73.7466 188.896 73.7466 193.387 Q73.7466 195.517 72.9365 197.438 Q72.1494 199.336 70.0429 201.929 Q69.4642 202.6 66.3624 205.817 Q63.2606 209.012 57.6125 214.776 Z" fill="#000000" fill-rule="evenodd" fill-opacity="1" /><path clip-path="url(#clip210)" d="M83.7466 212.831 L88.6308 212.831 L88.6308 218.711 L83.7466 218.711 L83.7466 212.831 Z" fill="#000000" fill-rule="evenodd" fill-opacity="1" /><path clip-path="url(#clip210)" d="M98.8622 184.151 L117.219 184.151 L117.219 188.086 L103.145 188.086 L103.145 196.558 Q104.163 196.211 105.182 196.049 Q106.2 195.864 107.219 195.864 Q113.006 195.864 116.385 199.035 Q119.765 202.206 119.765 207.623 Q119.765 213.202 116.293 216.304 Q112.82 219.382 106.501 219.382 Q104.325 219.382 102.057 219.012 Q99.8113 218.641 97.4039 217.901 L97.4039 213.202 Q99.4872 214.336 101.709 214.891 Q103.932 215.447 106.408 215.447 Q110.413 215.447 112.751 213.341 Q115.089 211.234 115.089 207.623 Q115.089 204.012 112.751 201.905 Q110.413 199.799 106.408 199.799 Q104.534 199.799 102.659 200.216 Q100.807 200.632 98.8622 201.512 L98.8622 184.151 Z" fill="#000000" fill-rule="evenodd" fill-opacity="1" /><circle clip-path="url(#clip213)" cx="217.944" cy="1391.02" r="14" fill="#009af9" fill-rule="evenodd" fill-opacity="1" stroke="#000000" stroke-opacity="1" stroke-width="3.2"/>
<circle clip-path="url(#clip213)" cx="563.383" cy="1383.27" r="14" fill="#009af9" fill-rule="evenodd" fill-opacity="1" stroke="#000000" stroke-opacity="1" stroke-width="3.2"/>
<circle clip-path="url(#clip213)" cx="908.822" cy="1039.29" r="14" fill="#009af9" fill-rule="evenodd" fill-opacity="1" stroke="#000000" stroke-opacity="1" stroke-width="3.2"/>
<circle clip-path="url(#clip213)" cx="1254.26" cy="275.901" r="14" fill="#009af9" fill-rule="evenodd" fill-opacity="1" stroke="#000000" stroke-opacity="1" stroke-width="3.2"/>
<circle clip-path="url(#clip213)" cx="1599.7" cy="193.001" r="14" fill="#009af9" fill-rule="evenodd" fill-opacity="1" stroke="#000000" stroke-opacity="1" stroke-width="3.2"/>
<circle clip-path="url(#clip213)" cx="1945.14" cy="968.233" r="14" fill="#009af9" fill-rule="evenodd" fill-opacity="1" stroke="#000000" stroke-opacity="1" stroke-width="3.2"/>
<circle clip-path="url(#clip213)" cx="2290.58" cy="1363.39" r="14" fill="#009af9" fill-rule="evenodd" fill-opacity="1" stroke="#000000" stroke-opacity="1" stroke-width="3.2"/>
<polyline clip-path="url(#clip213)" style="stroke:#e26f46; stroke-linecap:butt; stroke-linejoin:round; stroke-width:4; stroke-opacity:1; fill:none" points="
  217.944,1391.02 228.359,1398.03 238.774,1403.68 249.19,1407.81 259.605,1410.33 270.02,1411.23 280.435,1410.56 290.851,1408.44 301.266,1405.05 311.681,1400.63 
  322.096,1395.48 332.512,1389.89 342.927,1384.19 353.342,1378.69 363.757,1373.69 374.173,1369.46 384.588,1366.21 395.003,1364.08 405.418,1363.17 415.833,1363.5 
  426.249,1364.99 436.664,1367.52 447.079,1370.91 457.494,1374.9 467.91,1379.21 478.325,1383.53 488.74,1387.53 499.155,1390.9 509.571,1393.33 519.986,1394.57 
  530.401,1394.4 540.816,1392.67 551.232,1389.29 561.647,1384.26 572.062,1377.63 582.477,1369.53 592.893,1360.15 603.308,1349.72 613.723,1338.53 624.138,1326.89 
  634.554,1315.09 644.969,1303.46 655.384,1292.26 665.799,1281.75 676.215,1272.11 686.63,1263.48 697.045,1255.92 707.46,1249.41 717.875,1243.88 728.291,1239.17 
  738.706,1235.08 749.121,1231.34 759.536,1227.64 769.952,1223.68 780.367,1219.1 790.782,1213.6 801.197,1206.88 811.613,1198.69 822.028,1188.81 832.443,1177.1 
  842.858,1163.51 853.274,1148.02 863.689,1130.71 874.104,1111.72 884.519,1091.26 894.935,1069.58 905.35,1046.97 915.765,1023.75 926.18,1000.23 936.596,976.734 
  947.011,953.538 957.426,930.894 967.841,908.997 978.257,887.98 988.672,867.911 999.087,848.787 1009.5,830.535 1019.92,813.018 1030.33,796.043 1040.75,779.369 
  1051.16,762.724 1061.58,745.82 1071.99,728.365 1082.41,710.085 1092.82,690.735 1103.24,670.116 1113.65,648.086 1124.07,624.569 1134.49,599.563 1144.9,573.138 
  1155.32,545.44 1165.73,516.682 1176.15,487.138 1186.56,457.129 1196.98,427.014 1207.39,397.169 1217.81,367.974 1228.22,339.795 1238.64,312.971 1249.05,287.795 
  1259.47,264.504 1269.88,243.273 1280.3,224.203 1290.71,207.324 1301.13,192.592 1311.54,179.897 1321.96,169.069 1332.37,159.892 1342.79,152.114 1353.21,145.463 
  1363.62,139.665 1374.04,134.458 1384.45,129.607 1394.87,124.919 1405.28,120.253 1415.7,115.53 1426.11,110.735 1436.53,105.923 1446.94,101.212 1457.36,96.7816 
  1467.77,92.8622 1478.19,89.7228 1488.6,87.658 1499.02,86.9719 1509.43,87.9627 1519.85,90.9058 1530.26,96.0393 1540.68,103.55 1551.09,113.564 1561.51,126.136 
  1571.93,141.246 1582.34,158.8 1592.76,178.63 1603.17,200.501 1613.59,224.122 1624,249.156 1634.42,275.237 1644.83,301.984 1655.25,329.019 1665.66,355.982 
  1676.08,382.549 1686.49,408.442 1696.91,433.443 1707.32,457.403 1717.74,480.243 1728.15,501.959 1738.57,522.618 1748.98,542.352 1759.4,561.346 1769.81,579.832 
  1780.23,598.07 1790.65,616.331 1801.06,634.888 1811.48,653.991 1821.89,673.859 1832.31,694.663 1842.72,716.518 1853.14,739.474 1863.55,763.511 1873.97,788.539 
  1884.38,814.403 1894.8,840.888 1905.21,867.728 1915.63,894.622 1926.04,921.241 1936.46,947.254 1946.87,972.336 1957.29,996.186 1967.7,1018.55 1978.12,1039.21 
  1988.53,1058.03 1998.95,1074.92 2009.37,1089.9 2019.78,1103.03 2030.2,1114.44 2040.61,1124.35 2051.03,1133.01 2061.44,1140.72 2071.86,1147.79 2082.27,1154.54 
  2092.69,1161.32 2103.1,1168.39 2113.52,1176.04 2123.93,1184.45 2134.35,1193.78 2144.76,1204.11 2155.18,1215.42 2165.59,1227.67 2176.01,1240.71 2186.42,1254.35 
  2196.84,1268.34 2207.25,1282.4 2217.67,1296.22 2228.09,1309.5 2238.5,1321.93 2248.92,1333.23 2259.33,1343.18 2269.75,1351.59 2280.16,1358.34 2290.58,1363.39 
  
  "/>
<path clip-path="url(#clip210)" d="
M228.998 249.555 L1145.42 249.555 L1145.42 94.0346 L228.998 94.0346  Z
  " fill="#ffffff" fill-rule="evenodd" fill-opacity="1"/>
<polyline clip-path="url(#clip210)" style="stroke:#000000; stroke-linecap:butt; stroke-linejoin:round; stroke-width:4; stroke-opacity:1; fill:none" points="
  228.998,249.555 1145.42,249.555 1145.42,94.0346 228.998,94.0346 228.998,249.555 
  "/>
<circle clip-path="url(#clip210)" cx="326.642" cy="145.875" r="23" fill="#009af9" fill-rule="evenodd" fill-opacity="1" stroke="#000000" stroke-opacity="1" stroke-width="5.12"/>
<path clip-path="url(#clip210)" d="M432.064 159.752 L444.425 159.752 L444.425 140.632 L435.467 140.632 L435.467 143.872 Q435.467 153.409 432.735 158.502 L432.064 159.752 M425.883 159.752 Q427.99 158.826 428.916 156.858 Q431.184 151.974 431.184 142.136 L431.184 137.229 L448.707 137.229 L448.707 159.752 L452.11 159.752 L452.11 169.706 L448.707 169.706 L448.707 163.155 L427.689 163.155 L427.689 169.706 L424.286 169.706 L424.286 159.752 L425.883 159.752 Z" fill="#000000" fill-rule="evenodd" fill-opacity="1" /><path clip-path="url(#clip210)" d="M470.837 150.122 Q465.675 150.122 463.684 151.303 Q461.693 152.483 461.693 155.331 Q461.693 157.599 463.175 158.942 Q464.679 160.261 467.249 160.261 Q470.79 160.261 472.92 157.761 Q475.073 155.238 475.073 151.071 L475.073 150.122 L470.837 150.122 M479.332 148.363 L479.332 163.155 L475.073 163.155 L475.073 159.219 Q473.614 161.581 471.439 162.715 Q469.263 163.826 466.115 163.826 Q462.133 163.826 459.772 161.604 Q457.434 159.358 457.434 155.608 Q457.434 151.233 460.351 149.011 Q463.29 146.789 469.101 146.789 L475.073 146.789 L475.073 146.372 Q475.073 143.433 473.128 141.835 Q471.207 140.215 467.712 140.215 Q465.49 140.215 463.383 140.747 Q461.277 141.28 459.332 142.345 L459.332 138.409 Q461.67 137.507 463.869 137.067 Q466.068 136.604 468.152 136.604 Q473.777 136.604 476.554 139.521 Q479.332 142.437 479.332 148.363 Z" fill="#000000" fill-rule="evenodd" fill-opacity="1" /><path clip-path="url(#clip210)" d="M487.943 137.229 L492.225 137.229 L492.225 147.807 L506.045 147.807 L506.045 137.229 L510.327 137.229 L510.327 163.155 L506.045 163.155 L506.045 151.21 L492.225 151.21 L492.225 163.155 L487.943 163.155 L487.943 137.229 Z" fill="#000000" fill-rule="evenodd" fill-opacity="1" /><path clip-path="url(#clip210)" d="M518.938 137.229 L523.221 137.229 L523.221 147.807 L537.04 147.807 L537.04 137.229 L541.322 137.229 L541.322 163.155 L537.04 163.155 L537.04 151.21 L523.221 151.21 L523.221 163.155 L518.938 163.155 L518.938 137.229 Z" fill="#000000" fill-rule="evenodd" fill-opacity="1" /><path clip-path="url(#clip210)" d="M574.586 137.229 L578.845 137.229 L578.845 163.155 L574.586 163.155 L574.586 137.229 M576.716 136.604 L576.716 136.604 M566.23 155.469 Q566.23 153.386 564.702 152.298 Q563.197 151.21 560.281 151.21 L554.216 151.21 L554.216 159.752 L560.281 159.752 Q563.197 159.752 564.702 158.664 Q566.23 157.553 566.23 155.469 M549.934 137.229 L554.216 137.229 L554.216 147.807 L560.466 147.807 Q565.42 147.807 568.082 149.706 Q570.767 151.581 570.767 155.469 Q570.767 159.358 568.082 161.256 Q565.42 163.155 560.466 163.155 L549.934 163.155 L549.934 137.229 Z" fill="#000000" fill-rule="evenodd" fill-opacity="1" /><path clip-path="url(#clip210)" d="M609.702 149.127 L609.702 151.21 L590.118 151.21 Q590.396 155.608 592.757 157.923 Q595.142 160.215 599.378 160.215 Q601.831 160.215 604.123 159.613 Q606.438 159.011 608.706 157.807 L608.706 161.835 Q606.415 162.807 604.007 163.317 Q601.6 163.826 599.123 163.826 Q592.919 163.826 589.285 160.215 Q585.674 156.604 585.674 150.446 Q585.674 144.081 589.1 140.354 Q592.549 136.604 598.382 136.604 Q603.614 136.604 606.646 139.983 Q609.702 143.34 609.702 149.127 M605.442 147.877 Q605.396 144.382 603.475 142.298 Q601.577 140.215 598.429 140.215 Q594.864 140.215 592.711 142.229 Q590.581 144.243 590.257 147.9 L605.442 147.877 Z" fill="#000000" fill-rule="evenodd" fill-opacity="1" /><polyline clip-path="url(#clip210)" style="stroke:#e26f46; stroke-linecap:butt; stroke-linejoin:round; stroke-width:4; stroke-opacity:1; fill:none" points="
  253.409,197.715 399.875,197.715 
  "/>
<path clip-path="url(#clip210)" d="M448.314 200.967 L448.314 203.05 L428.73 203.05 Q429.008 207.448 431.369 209.763 Q433.754 212.055 437.99 212.055 Q440.443 212.055 442.735 211.453 Q445.05 210.851 447.318 209.647 L447.318 213.675 Q445.027 214.647 442.619 215.157 Q440.212 215.666 437.735 215.666 Q431.531 215.666 427.897 212.055 Q424.286 208.444 424.286 202.286 Q424.286 195.921 427.712 192.194 Q431.161 188.444 436.994 188.444 Q442.226 188.444 445.258 191.823 Q448.314 195.18 448.314 200.967 M444.054 199.717 Q444.008 196.222 442.087 194.138 Q440.189 192.055 437.041 192.055 Q433.476 192.055 431.323 194.069 Q429.193 196.083 428.869 199.74 L444.054 199.717 Z" fill="#000000" fill-rule="evenodd" fill-opacity="1" /><path clip-path="url(#clip210)" d="M476.022 189.069 L466.647 201.685 L476.508 214.995 L471.485 214.995 L463.939 204.81 L456.392 214.995 L451.369 214.995 L461.439 201.43 L452.226 189.069 L457.249 189.069 L464.124 198.305 L470.999 189.069 L476.022 189.069 Z" fill="#000000" fill-rule="evenodd" fill-opacity="1" /><path clip-path="url(#clip210)" d="M486.647 211.106 L486.647 224.856 L482.364 224.856 L482.364 189.069 L486.647 189.069 L486.647 193.004 Q487.989 190.689 490.026 189.578 Q492.087 188.444 494.934 188.444 Q499.656 188.444 502.596 192.194 Q505.559 195.944 505.559 202.055 Q505.559 208.166 502.596 211.916 Q499.656 215.666 494.934 215.666 Q492.087 215.666 490.026 214.555 Q487.989 213.421 486.647 211.106 M501.137 202.055 Q501.137 197.356 499.193 194.694 Q497.272 192.009 493.892 192.009 Q490.513 192.009 488.568 194.694 Q486.647 197.356 486.647 202.055 Q486.647 206.754 488.568 209.439 Q490.513 212.101 493.892 212.101 Q497.272 212.101 499.193 209.439 Q501.137 206.754 501.137 202.055 Z" fill="#000000" fill-rule="evenodd" fill-opacity="1" /><path clip-path="url(#clip210)" d="M522.85 179.023 Q519.748 184.347 518.244 189.555 Q516.739 194.763 516.739 200.11 Q516.739 205.458 518.244 210.712 Q519.772 215.944 522.85 221.245 L519.147 221.245 Q515.674 215.805 513.938 210.55 Q512.225 205.296 512.225 200.11 Q512.225 194.948 513.938 189.717 Q515.651 184.486 519.147 179.023 L522.85 179.023 Z" fill="#000000" fill-rule="evenodd" fill-opacity="1" /><path clip-path="url(#clip210)" d="M547.642 189.833 L547.642 193.86 Q545.836 192.935 543.892 192.472 Q541.947 192.009 539.864 192.009 Q536.693 192.009 535.096 192.981 Q533.522 193.953 533.522 195.898 Q533.522 197.379 534.656 198.235 Q535.79 199.069 539.216 199.833 L540.674 200.157 Q545.211 201.129 547.109 202.911 Q549.031 204.671 549.031 207.842 Q549.031 211.453 546.16 213.559 Q543.313 215.666 538.313 215.666 Q536.23 215.666 533.961 215.249 Q531.716 214.856 529.216 214.046 L529.216 209.647 Q531.577 210.874 533.869 211.499 Q536.16 212.101 538.406 212.101 Q541.415 212.101 543.035 211.083 Q544.656 210.041 544.656 208.166 Q544.656 206.43 543.475 205.504 Q542.318 204.578 538.359 203.722 L536.878 203.374 Q532.92 202.541 531.16 200.828 Q529.401 199.092 529.401 196.083 Q529.401 192.425 531.994 190.435 Q534.586 188.444 539.355 188.444 Q541.716 188.444 543.799 188.791 Q545.883 189.138 547.642 189.833 Z" fill="#000000" fill-rule="evenodd" fill-opacity="1" /><path clip-path="url(#clip210)" d="M555.813 189.069 L560.072 189.069 L560.072 214.995 L555.813 214.995 L555.813 189.069 M555.813 178.976 L560.072 178.976 L560.072 184.37 L555.813 184.37 L555.813 178.976 Z" fill="#000000" fill-rule="evenodd" fill-opacity="1" /><path clip-path="url(#clip210)" d="M590.535 199.347 L590.535 214.995 L586.276 214.995 L586.276 199.485 Q586.276 195.805 584.841 193.976 Q583.406 192.148 580.535 192.148 Q577.086 192.148 575.095 194.347 Q573.105 196.546 573.105 200.342 L573.105 214.995 L568.822 214.995 L568.822 189.069 L573.105 189.069 L573.105 193.097 Q574.632 190.759 576.693 189.601 Q578.776 188.444 581.484 188.444 Q585.952 188.444 588.243 191.222 Q590.535 193.976 590.535 199.347 Z" fill="#000000" fill-rule="evenodd" fill-opacity="1" /><path clip-path="url(#clip210)" d="M609.262 179.023 Q606.16 184.347 604.655 189.555 Q603.151 194.763 603.151 200.11 Q603.151 205.458 604.655 210.712 Q606.183 215.944 609.262 221.245 L605.558 221.245 Q602.086 215.805 600.35 210.55 Q598.637 205.296 598.637 200.11 Q598.637 194.948 600.35 189.717 Q602.063 184.486 605.558 179.023 L609.262 179.023 Z" fill="#000000" fill-rule="evenodd" fill-opacity="1" /><path clip-path="url(#clip210)" d="M622.155 211.059 L638.475 211.059 L638.475 214.995 L616.53 214.995 L616.53 211.059 Q619.192 208.305 623.776 203.675 Q628.382 199.022 629.563 197.68 Q631.808 195.157 632.688 193.421 Q633.59 191.661 633.59 189.972 Q633.59 187.217 631.646 185.481 Q629.725 183.745 626.623 183.745 Q624.424 183.745 621.97 184.509 Q619.54 185.273 616.762 186.823 L616.762 182.101 Q619.586 180.967 622.04 180.388 Q624.493 179.81 626.53 179.81 Q631.901 179.81 635.095 182.495 Q638.29 185.18 638.29 189.671 Q638.29 191.8 637.479 193.722 Q636.692 195.62 634.586 198.212 Q634.007 198.884 630.905 202.101 Q627.803 205.296 622.155 211.059 Z" fill="#000000" fill-rule="evenodd" fill-opacity="1" /><path clip-path="url(#clip210)" d="M669.238 189.069 L659.863 201.685 L669.725 214.995 L664.701 214.995 L657.155 204.81 L649.609 214.995 L644.586 214.995 L654.655 201.43 L645.442 189.069 L650.465 189.069 L657.34 198.305 L664.215 189.069 L669.238 189.069 Z" fill="#000000" fill-rule="evenodd" fill-opacity="1" /><path clip-path="url(#clip210)" d="M675.072 179.023 L678.775 179.023 Q682.248 184.486 683.961 189.717 Q685.697 194.948 685.697 200.11 Q685.697 205.296 683.961 210.55 Q682.248 215.805 678.775 221.245 L675.072 221.245 Q678.15 215.944 679.655 210.712 Q681.183 205.458 681.183 200.11 Q681.183 194.763 679.655 189.555 Q678.15 184.347 675.072 179.023 Z" fill="#000000" fill-rule="evenodd" fill-opacity="1" /><path clip-path="url(#clip210)" d="M693.567 179.023 L697.271 179.023 Q700.743 184.486 702.456 189.717 Q704.192 194.948 704.192 200.11 Q704.192 205.296 702.456 210.55 Q700.743 215.805 697.271 221.245 L693.567 221.245 Q696.646 215.944 698.15 210.712 Q699.678 205.458 699.678 200.11 Q699.678 194.763 698.15 189.555 Q696.646 184.347 693.567 179.023 Z" fill="#000000" fill-rule="evenodd" fill-opacity="1" /><path clip-path="url(#clip210)" d="M745.141 185.273 L745.141 198.166 L758.034 198.166 L758.034 202.101 L745.141 202.101 L745.141 214.995 L741.252 214.995 L741.252 202.101 L728.358 202.101 L728.358 198.166 L741.252 198.166 L741.252 185.273 L745.141 185.273 Z" fill="#000000" fill-rule="evenodd" fill-opacity="1" /><path clip-path="url(#clip210)" d="M793.196 183.513 Q789.585 183.513 787.756 187.078 Q785.951 190.62 785.951 197.749 Q785.951 204.856 787.756 208.421 Q789.585 211.962 793.196 211.962 Q796.83 211.962 798.636 208.421 Q800.465 204.856 800.465 197.749 Q800.465 190.62 798.636 187.078 Q796.83 183.513 793.196 183.513 M793.196 179.81 Q799.006 179.81 802.062 184.416 Q805.14 188.999 805.14 197.749 Q805.14 206.476 802.062 211.083 Q799.006 215.666 793.196 215.666 Q787.386 215.666 784.307 211.083 Q781.252 206.476 781.252 197.749 Q781.252 188.999 784.307 184.416 Q787.386 179.81 793.196 179.81 Z" fill="#000000" fill-rule="evenodd" fill-opacity="1" /><path clip-path="url(#clip210)" d="M813.358 209.115 L818.242 209.115 L818.242 214.995 L813.358 214.995 L813.358 209.115 Z" fill="#000000" fill-rule="evenodd" fill-opacity="1" /><path clip-path="url(#clip210)" d="M838.427 183.513 Q834.816 183.513 832.988 187.078 Q831.182 190.62 831.182 197.749 Q831.182 204.856 832.988 208.421 Q834.816 211.962 838.427 211.962 Q842.062 211.962 843.867 208.421 Q845.696 204.856 845.696 197.749 Q845.696 190.62 843.867 187.078 Q842.062 183.513 838.427 183.513 M838.427 179.81 Q844.237 179.81 847.293 184.416 Q850.372 188.999 850.372 197.749 Q850.372 206.476 847.293 211.083 Q844.237 215.666 838.427 215.666 Q832.617 215.666 829.538 211.083 Q826.483 206.476 826.483 197.749 Q826.483 188.999 829.538 184.416 Q832.617 179.81 838.427 179.81 Z" fill="#000000" fill-rule="evenodd" fill-opacity="1" /><path clip-path="url(#clip210)" d="M858.636 180.435 L876.992 180.435 L876.992 184.37 L862.918 184.37 L862.918 192.842 Q863.936 192.495 864.955 192.333 Q865.973 192.148 866.992 192.148 Q872.779 192.148 876.159 195.319 Q879.538 198.49 879.538 203.907 Q879.538 209.485 876.066 212.587 Q872.594 215.666 866.274 215.666 Q864.098 215.666 861.83 215.296 Q859.585 214.925 857.177 214.184 L857.177 209.485 Q859.261 210.62 861.483 211.175 Q863.705 211.731 866.182 211.731 Q870.186 211.731 872.524 209.624 Q874.862 207.518 874.862 203.907 Q874.862 200.296 872.524 198.189 Q870.186 196.083 866.182 196.083 Q864.307 196.083 862.432 196.499 Q860.58 196.916 858.636 197.796 L858.636 180.435 Z" fill="#000000" fill-rule="evenodd" fill-opacity="1" /><path clip-path="url(#clip210)" d="M905.973 186.129 L897.663 190.62 L905.973 195.134 L904.631 197.402 L896.853 192.703 L896.853 201.43 L894.214 201.43 L894.214 192.703 L886.436 197.402 L885.094 195.134 L893.404 190.62 L885.094 186.129 L886.436 183.837 L894.214 188.536 L894.214 179.81 L896.853 179.81 L896.853 188.536 L904.631 183.837 L905.973 186.129 Z" fill="#000000" fill-rule="evenodd" fill-opacity="1" /><path clip-path="url(#clip210)" d="M928.381 189.833 L928.381 193.86 Q926.575 192.935 924.631 192.472 Q922.686 192.009 920.603 192.009 Q917.432 192.009 915.834 192.981 Q914.26 193.953 914.26 195.898 Q914.26 197.379 915.395 198.235 Q916.529 199.069 919.955 199.833 L921.413 200.157 Q925.95 201.129 927.848 202.911 Q929.769 204.671 929.769 207.842 Q929.769 211.453 926.899 213.559 Q924.052 215.666 919.052 215.666 Q916.969 215.666 914.7 215.249 Q912.455 214.856 909.955 214.046 L909.955 209.647 Q912.316 210.874 914.607 211.499 Q916.899 212.101 919.144 212.101 Q922.154 212.101 923.774 211.083 Q925.394 210.041 925.394 208.166 Q925.394 206.43 924.214 205.504 Q923.057 204.578 919.098 203.722 L917.617 203.374 Q913.658 202.541 911.899 200.828 Q910.14 199.092 910.14 196.083 Q910.14 192.425 912.732 190.435 Q915.325 188.444 920.094 188.444 Q922.455 188.444 924.538 188.791 Q926.621 189.138 928.381 189.833 Z" fill="#000000" fill-rule="evenodd" fill-opacity="1" /><path clip-path="url(#clip210)" d="M936.552 189.069 L940.811 189.069 L940.811 214.995 L936.552 214.995 L936.552 189.069 M936.552 178.976 L940.811 178.976 L940.811 184.37 L936.552 184.37 L936.552 178.976 Z" fill="#000000" fill-rule="evenodd" fill-opacity="1" /><path clip-path="url(#clip210)" d="M971.274 199.347 L971.274 214.995 L967.015 214.995 L967.015 199.485 Q967.015 195.805 965.579 193.976 Q964.144 192.148 961.274 192.148 Q957.825 192.148 955.834 194.347 Q953.843 196.546 953.843 200.342 L953.843 214.995 L949.561 214.995 L949.561 189.069 L953.843 189.069 L953.843 193.097 Q955.371 190.759 957.431 189.601 Q959.515 188.444 962.223 188.444 Q966.691 188.444 968.982 191.222 Q971.274 193.976 971.274 199.347 Z" fill="#000000" fill-rule="evenodd" fill-opacity="1" /><path clip-path="url(#clip210)" d="M990.001 179.023 Q986.899 184.347 985.394 189.555 Q983.89 194.763 983.89 200.11 Q983.89 205.458 985.394 210.712 Q986.922 215.944 990.001 221.245 L986.297 221.245 Q982.825 215.805 981.089 210.55 Q979.376 205.296 979.376 200.11 Q979.376 194.948 981.089 189.717 Q982.802 184.486 986.297 179.023 L990.001 179.023 Z" fill="#000000" fill-rule="evenodd" fill-opacity="1" /><path clip-path="url(#clip210)" d="M999.676 211.059 L1007.32 211.059 L1007.32 184.694 L999.005 186.361 L999.005 182.101 L1007.27 180.435 L1011.94 180.435 L1011.94 211.059 L1019.58 211.059 L1019.58 214.995 L999.676 214.995 L999.676 211.059 Z" fill="#000000" fill-rule="evenodd" fill-opacity="1" /><path clip-path="url(#clip210)" d="M1029.07 180.435 L1047.43 180.435 L1047.43 184.37 L1033.36 184.37 L1033.36 192.842 Q1034.38 192.495 1035.39 192.333 Q1036.41 192.148 1037.43 192.148 Q1043.22 192.148 1046.6 195.319 Q1049.98 198.49 1049.98 203.907 Q1049.98 209.485 1046.5 212.587 Q1043.03 215.666 1036.71 215.666 Q1034.54 215.666 1032.27 215.296 Q1030.02 214.925 1027.62 214.184 L1027.62 209.485 Q1029.7 210.62 1031.92 211.175 Q1034.14 211.731 1036.62 211.731 Q1040.63 211.731 1042.96 209.624 Q1045.3 207.518 1045.3 203.907 Q1045.3 200.296 1042.96 198.189 Q1040.63 196.083 1036.62 196.083 Q1034.75 196.083 1032.87 196.499 Q1031.02 196.916 1029.07 197.796 L1029.07 180.435 Z" fill="#000000" fill-rule="evenodd" fill-opacity="1" /><path clip-path="url(#clip210)" d="M1080.14 189.069 L1070.76 201.685 L1080.63 214.995 L1075.6 214.995 L1068.06 204.81 L1060.51 214.995 L1055.49 214.995 L1065.56 201.43 L1056.34 189.069 L1061.37 189.069 L1068.24 198.305 L1075.12 189.069 L1080.14 189.069 Z" fill="#000000" fill-rule="evenodd" fill-opacity="1" /><path clip-path="url(#clip210)" d="M1085.97 179.023 L1089.68 179.023 Q1093.15 184.486 1094.86 189.717 Q1096.6 194.948 1096.6 200.11 Q1096.6 205.296 1094.86 210.55 Q1093.15 215.805 1089.68 221.245 L1085.97 221.245 Q1089.05 215.944 1090.56 210.712 Q1092.08 205.458 1092.08 200.11 Q1092.08 194.763 1090.56 189.555 Q1089.05 184.347 1085.97 179.023 Z" fill="#000000" fill-rule="evenodd" fill-opacity="1" /></svg>
