<?xml version="1.0" encoding="utf-8"?>
<svg xmlns="http://www.w3.org/2000/svg" xmlns:xlink="http://www.w3.org/1999/xlink" width="600" height="400" viewBox="0 0 2400 1600">
<defs>
  <clipPath id="clip300">
    <rect x="0" y="0" width="2400" height="1600"/>
  </clipPath>
</defs>
<path clip-path="url(#clip300)" d="
M0 1600 L2400 1600 L2400 0 L0 0  Z
  " fill="#ffffff" fill-rule="evenodd" fill-opacity="1"/>
<defs>
  <clipPath id="clip301">
    <rect x="480" y="0" width="1681" height="1600"/>
  </clipPath>
</defs>
<defs>
  <clipPath id="clip302">
    <rect x="156" y="47" width="2198" height="1405"/>
  </clipPath>
</defs>
<path clip-path="url(#clip300)" d="
M147.478 1450.96 L2352.76 1450.96 L2352.76 47.2441 L147.478 47.2441  Z
  " fill="#ffffff" fill-rule="evenodd" fill-opacity="1"/>
<defs>
  <clipPath id="clip303">
    <rect x="147" y="47" width="2206" height="1405"/>
  </clipPath>
</defs>
<polyline clip-path="url(#clip303)" style="stroke:#000000; stroke-linecap:butt; stroke-linejoin:round; stroke-width:2; stroke-opacity:0.1; fill:none" points="
  209.891,1450.96 209.891,47.2441 
  "/>
<polyline clip-path="url(#clip303)" style="stroke:#000000; stroke-linecap:butt; stroke-linejoin:round; stroke-width:2; stroke-opacity:0.1; fill:none" points="
  672.214,1450.96 672.214,47.2441 
  "/>
<polyline clip-path="url(#clip303)" style="stroke:#000000; stroke-linecap:butt; stroke-linejoin:round; stroke-width:2; stroke-opacity:0.1; fill:none" points="
  1134.54,1450.96 1134.54,47.2441 
  "/>
<polyline clip-path="url(#clip303)" style="stroke:#000000; stroke-linecap:butt; stroke-linejoin:round; stroke-width:2; stroke-opacity:0.1; fill:none" points="
  1596.86,1450.96 1596.86,47.2441 
  "/>
<polyline clip-path="url(#clip303)" style="stroke:#000000; stroke-linecap:butt; stroke-linejoin:round; stroke-width:2; stroke-opacity:0.1; fill:none" points="
  2059.18,1450.96 2059.18,47.2441 
  "/>
<polyline clip-path="url(#clip300)" style="stroke:#000000; stroke-linecap:butt; stroke-linejoin:round; stroke-width:4; stroke-opacity:1; fill:none" points="
  147.478,1450.96 2352.76,1450.96 
  "/>
<polyline clip-path="url(#clip300)" style="stroke:#000000; stroke-linecap:butt; stroke-linejoin:round; stroke-width:4; stroke-opacity:1; fill:none" points="
  209.891,1450.96 209.891,1432.06 
  "/>
<polyline clip-path="url(#clip300)" style="stroke:#000000; stroke-linecap:butt; stroke-linejoin:round; stroke-width:4; stroke-opacity:1; fill:none" points="
  672.214,1450.96 672.214,1432.06 
  "/>
<polyline clip-path="url(#clip300)" style="stroke:#000000; stroke-linecap:butt; stroke-linejoin:round; stroke-width:4; stroke-opacity:1; fill:none" points="
  1134.54,1450.96 1134.54,1432.06 
  "/>
<polyline clip-path="url(#clip300)" style="stroke:#000000; stroke-linecap:butt; stroke-linejoin:round; stroke-width:4; stroke-opacity:1; fill:none" points="
  1596.86,1450.96 1596.86,1432.06 
  "/>
<polyline clip-path="url(#clip300)" style="stroke:#000000; stroke-linecap:butt; stroke-linejoin:round; stroke-width:4; stroke-opacity:1; fill:none" points="
  2059.18,1450.96 2059.18,1432.06 
  "/>
<path clip-path="url(#clip300)" d="M200.273 1507.7 L207.912 1507.7 L207.912 1481.33 L199.602 1483 L199.602 1478.74 L207.866 1477.07 L212.542 1477.07 L212.542 1507.7 L220.181 1507.7 L220.181 1511.63 L200.273 1511.63 L200.273 1507.7 Z" fill="#000000" fill-rule="evenodd" fill-opacity="1" /><path clip-path="url(#clip300)" d="M666.867 1507.7 L683.186 1507.7 L683.186 1511.63 L661.242 1511.63 L661.242 1507.7 Q663.904 1504.94 668.487 1500.31 Q673.093 1495.66 674.274 1494.32 Q676.519 1491.79 677.399 1490.06 Q678.302 1488.3 678.302 1486.61 Q678.302 1483.85 676.357 1482.12 Q674.436 1480.38 671.334 1480.38 Q669.135 1480.38 666.681 1481.15 Q664.251 1481.91 661.473 1483.46 L661.473 1478.74 Q664.297 1477.6 666.751 1477.03 Q669.205 1476.45 671.242 1476.45 Q676.612 1476.45 679.806 1479.13 Q683.001 1481.82 683.001 1486.31 Q683.001 1488.44 682.191 1490.36 Q681.404 1492.26 679.297 1494.85 Q678.718 1495.52 675.617 1498.74 Q672.515 1501.93 666.867 1507.7 Z" fill="#000000" fill-rule="evenodd" fill-opacity="1" /><path clip-path="url(#clip300)" d="M1138.78 1493 Q1142.14 1493.72 1144.02 1495.98 Q1145.91 1498.25 1145.91 1501.59 Q1145.91 1506.7 1142.4 1509.5 Q1138.88 1512.3 1132.4 1512.3 Q1130.22 1512.3 1127.9 1511.86 Q1125.61 1511.45 1123.16 1510.59 L1123.16 1506.08 Q1125.1 1507.21 1127.42 1507.79 Q1129.73 1508.37 1132.26 1508.37 Q1136.65 1508.37 1138.95 1506.63 Q1141.26 1504.9 1141.26 1501.59 Q1141.26 1498.53 1139.11 1496.82 Q1136.98 1495.08 1133.16 1495.08 L1129.13 1495.08 L1129.13 1491.24 L1133.34 1491.24 Q1136.79 1491.24 1138.62 1489.87 Q1140.45 1488.48 1140.45 1485.89 Q1140.45 1483.23 1138.55 1481.82 Q1136.68 1480.38 1133.16 1480.38 Q1131.24 1480.38 1129.04 1480.8 Q1126.84 1481.22 1124.2 1482.1 L1124.2 1477.93 Q1126.86 1477.19 1129.18 1476.82 Q1131.52 1476.45 1133.58 1476.45 Q1138.9 1476.45 1142 1478.88 Q1145.1 1481.29 1145.1 1485.41 Q1145.1 1488.28 1143.46 1490.27 Q1141.82 1492.23 1138.78 1493 Z" fill="#000000" fill-rule="evenodd" fill-opacity="1" /><path clip-path="url(#clip300)" d="M1599.87 1481.15 L1588.06 1499.6 L1599.87 1499.6 L1599.87 1481.15 M1598.64 1477.07 L1604.52 1477.07 L1604.52 1499.6 L1609.45 1499.6 L1609.45 1503.48 L1604.52 1503.48 L1604.52 1511.63 L1599.87 1511.63 L1599.87 1503.48 L1584.27 1503.48 L1584.27 1498.97 L1598.64 1477.07 Z" fill="#000000" fill-rule="evenodd" fill-opacity="1" /><path clip-path="url(#clip300)" d="M2049.46 1477.07 L2067.82 1477.07 L2067.82 1481.01 L2053.74 1481.01 L2053.74 1489.48 Q2054.76 1489.13 2055.78 1488.97 Q2056.8 1488.79 2057.82 1488.79 Q2063.6 1488.79 2066.98 1491.96 Q2070.36 1495.13 2070.36 1500.54 Q2070.36 1506.12 2066.89 1509.22 Q2063.42 1512.3 2057.1 1512.3 Q2054.92 1512.3 2052.65 1511.93 Q2050.41 1511.56 2048 1510.82 L2048 1506.12 Q2050.08 1507.26 2052.31 1507.81 Q2054.53 1508.37 2057.01 1508.37 Q2061.01 1508.37 2063.35 1506.26 Q2065.69 1504.16 2065.69 1500.54 Q2065.69 1496.93 2063.35 1494.83 Q2061.01 1492.72 2057.01 1492.72 Q2055.13 1492.72 2053.26 1493.14 Q2051.4 1493.55 2049.46 1494.43 L2049.46 1477.07 Z" fill="#000000" fill-rule="evenodd" fill-opacity="1" /><path clip-path="url(#clip300)" d="M1264.29 1539.92 Q1264.29 1541.72 1263.16 1542.75 Q1262.04 1543.75 1260.75 1543.75 Q1259.52 1543.75 1258.88 1543.04 Q1258.24 1542.33 1258.24 1541.43 Q1258.24 1540.21 1259.14 1539.14 Q1260.04 1538.08 1261.39 1537.85 Q1260.07 1537.02 1258.11 1537.02 Q1256.82 1537.02 1255.69 1537.69 Q1254.6 1538.37 1253.92 1539.24 Q1253.28 1540.11 1252.7 1541.37 Q1252.15 1542.59 1251.92 1543.33 Q1251.73 1544.04 1251.57 1544.81 L1249.31 1553.83 Q1248.22 1558.11 1248.22 1559.63 Q1248.22 1561.49 1249.12 1562.75 Q1250.02 1563.97 1251.83 1563.97 Q1252.54 1563.97 1253.34 1563.78 Q1254.15 1563.55 1255.18 1562.98 Q1256.24 1562.36 1257.17 1561.46 Q1258.14 1560.53 1259.07 1558.95 Q1260.01 1557.37 1260.62 1555.34 Q1260.81 1554.63 1261.46 1554.63 Q1262.26 1554.63 1262.26 1555.28 Q1262.26 1555.83 1261.81 1556.98 Q1261.39 1558.11 1260.46 1559.59 Q1259.56 1561.04 1258.36 1562.36 Q1257.17 1563.65 1255.4 1564.55 Q1253.63 1565.46 1251.7 1565.46 Q1248.93 1565.46 1247.09 1563.97 Q1245.26 1562.49 1244.58 1560.43 Q1244.42 1560.72 1244.19 1561.11 Q1243.97 1561.49 1243.29 1562.36 Q1242.65 1563.2 1241.91 1563.84 Q1241.17 1564.46 1240.01 1564.94 Q1238.88 1565.46 1237.66 1565.46 Q1236.11 1565.46 1234.73 1565 Q1233.37 1564.55 1232.41 1563.52 Q1231.44 1562.49 1231.44 1561.08 Q1231.44 1559.5 1232.5 1558.4 Q1233.6 1557.27 1235.08 1557.27 Q1236.01 1557.27 1236.75 1557.82 Q1237.53 1558.37 1237.53 1559.56 Q1237.53 1560.88 1236.63 1561.88 Q1235.72 1562.88 1234.44 1563.14 Q1235.76 1563.97 1237.72 1563.97 Q1239.85 1563.97 1241.52 1562.11 Q1243.2 1560.24 1244 1557.11 Q1246 1549.61 1246.77 1546.26 Q1247.54 1542.88 1247.54 1541.43 Q1247.54 1540.08 1247.19 1539.14 Q1246.83 1538.21 1246.22 1537.79 Q1245.64 1537.34 1245.1 1537.18 Q1244.58 1537.02 1244 1537.02 Q1243.03 1537.02 1241.94 1537.4 Q1240.88 1537.79 1239.59 1538.69 Q1238.33 1539.56 1237.14 1541.37 Q1235.95 1543.17 1235.14 1545.65 Q1234.98 1546.39 1234.27 1546.39 Q1233.5 1546.36 1233.5 1545.71 Q1233.5 1545.17 1233.92 1544.04 Q1234.37 1542.88 1235.27 1541.43 Q1236.21 1539.98 1237.4 1538.69 Q1238.62 1537.37 1240.39 1536.47 Q1242.2 1535.57 1244.13 1535.57 Q1245 1535.57 1245.84 1535.76 Q1246.71 1535.92 1247.74 1536.41 Q1248.8 1536.89 1249.73 1537.95 Q1250.67 1539.01 1251.25 1540.56 Q1251.63 1539.82 1252.15 1539.11 Q1252.7 1538.4 1253.53 1537.53 Q1254.4 1536.63 1255.59 1536.12 Q1256.82 1535.57 1258.17 1535.57 Q1259.49 1535.57 1260.78 1535.92 Q1262.07 1536.24 1263.16 1537.31 Q1264.29 1538.34 1264.29 1539.92 Z" fill="#000000" fill-rule="evenodd" fill-opacity="1" /><polyline clip-path="url(#clip303)" style="stroke:#000000; stroke-linecap:butt; stroke-linejoin:round; stroke-width:2; stroke-opacity:0.1; fill:none" points="
  147.478,1279.2 2352.76,1279.2 
  "/>
<polyline clip-path="url(#clip303)" style="stroke:#000000; stroke-linecap:butt; stroke-linejoin:round; stroke-width:2; stroke-opacity:0.1; fill:none" points="
  147.478,958.518 2352.76,958.518 
  "/>
<polyline clip-path="url(#clip303)" style="stroke:#000000; stroke-linecap:butt; stroke-linejoin:round; stroke-width:2; stroke-opacity:0.1; fill:none" points="
  147.478,637.831 2352.76,637.831 
  "/>
<polyline clip-path="url(#clip303)" style="stroke:#000000; stroke-linecap:butt; stroke-linejoin:round; stroke-width:2; stroke-opacity:0.1; fill:none" points="
  147.478,317.144 2352.76,317.144 
  "/>
<polyline clip-path="url(#clip300)" style="stroke:#000000; stroke-linecap:butt; stroke-linejoin:round; stroke-width:4; stroke-opacity:1; fill:none" points="
  147.478,1450.96 147.478,47.2441 
  "/>
<polyline clip-path="url(#clip300)" style="stroke:#000000; stroke-linecap:butt; stroke-linejoin:round; stroke-width:4; stroke-opacity:1; fill:none" points="
  147.478,1279.2 166.376,1279.2 
  "/>
<polyline clip-path="url(#clip300)" style="stroke:#000000; stroke-linecap:butt; stroke-linejoin:round; stroke-width:4; stroke-opacity:1; fill:none" points="
  147.478,958.518 166.376,958.518 
  "/>
<polyline clip-path="url(#clip300)" style="stroke:#000000; stroke-linecap:butt; stroke-linejoin:round; stroke-width:4; stroke-opacity:1; fill:none" points="
  147.478,637.831 166.376,637.831 
  "/>
<polyline clip-path="url(#clip300)" style="stroke:#000000; stroke-linecap:butt; stroke-linejoin:round; stroke-width:4; stroke-opacity:1; fill:none" points="
  147.478,317.144 166.376,317.144 
  "/>
<path clip-path="url(#clip300)" d="M50.9921 1279.66 L80.6679 1279.66 L80.6679 1283.59 L50.9921 1283.59 L50.9921 1279.66 Z" fill="#000000" fill-rule="evenodd" fill-opacity="1" /><path clip-path="url(#clip300)" d="M91.5706 1292.55 L99.2095 1292.55 L99.2095 1266.18 L90.8993 1267.85 L90.8993 1263.59 L99.1632 1261.92 L103.839 1261.92 L103.839 1292.55 L111.478 1292.55 L111.478 1296.48 L91.5706 1296.48 L91.5706 1292.55 Z" fill="#000000" fill-rule="evenodd" fill-opacity="1" /><path clip-path="url(#clip300)" d="M99.5335 944.317 Q95.9224 944.317 94.0937 947.881 Q92.2882 951.423 92.2882 958.553 Q92.2882 965.659 94.0937 969.224 Q95.9224 972.765 99.5335 972.765 Q103.168 972.765 104.973 969.224 Q106.802 965.659 106.802 958.553 Q106.802 951.423 104.973 947.881 Q103.168 944.317 99.5335 944.317 M99.5335 940.613 Q105.344 940.613 108.399 945.219 Q111.478 949.803 111.478 958.553 Q111.478 967.279 108.399 971.886 Q105.344 976.469 99.5335 976.469 Q93.7234 976.469 90.6447 971.886 Q87.5892 967.279 87.5892 958.553 Q87.5892 949.803 90.6447 945.219 Q93.7234 940.613 99.5335 940.613 Z" fill="#000000" fill-rule="evenodd" fill-opacity="1" /><path clip-path="url(#clip300)" d="M91.5706 651.176 L99.2095 651.176 L99.2095 624.81 L90.8993 626.477 L90.8993 622.218 L99.1632 620.551 L103.839 620.551 L103.839 651.176 L111.478 651.176 L111.478 655.111 L91.5706 655.111 L91.5706 651.176 Z" fill="#000000" fill-rule="evenodd" fill-opacity="1" /><path clip-path="url(#clip300)" d="M95.1586 330.489 L111.478 330.489 L111.478 334.424 L89.5336 334.424 L89.5336 330.489 Q92.1956 327.735 96.7789 323.105 Q101.385 318.452 102.566 317.11 Q104.811 314.586 105.691 312.85 Q106.594 311.091 106.594 309.401 Q106.594 306.647 104.649 304.911 Q102.728 303.175 99.6261 303.175 Q97.4271 303.175 94.9734 303.938 Q92.5428 304.702 89.7651 306.253 L89.7651 301.531 Q92.5891 300.397 95.0428 299.818 Q97.4965 299.239 99.5335 299.239 Q104.904 299.239 108.098 301.925 Q111.293 304.61 111.293 309.1 Q111.293 311.23 110.483 313.151 Q109.696 315.049 107.589 317.642 Q107.01 318.313 103.909 321.531 Q100.807 324.725 95.1586 330.489 Z" fill="#000000" fill-rule="evenodd" fill-opacity="1" /><circle clip-path="url(#clip303)" cx="209.891" cy="162.388" r="14" fill="#009af9" fill-rule="evenodd" fill-opacity="1" stroke="#000000" stroke-opacity="1" stroke-width="3.2"/>
<circle clip-path="url(#clip303)" cx="441.053" cy="589.227" r="14" fill="#009af9" fill-rule="evenodd" fill-opacity="1" stroke="#000000" stroke-opacity="1" stroke-width="3.2"/>
<circle clip-path="url(#clip303)" cx="1134.54" cy="716.006" r="14" fill="#009af9" fill-rule="evenodd" fill-opacity="1" stroke="#000000" stroke-opacity="1" stroke-width="3.2"/>
<circle clip-path="url(#clip303)" cx="1365.7" cy="339.922" r="14" fill="#009af9" fill-rule="evenodd" fill-opacity="1" stroke="#000000" stroke-opacity="1" stroke-width="3.2"/>
<circle clip-path="url(#clip303)" cx="1643.09" cy="136.966" r="14" fill="#009af9" fill-rule="evenodd" fill-opacity="1" stroke="#000000" stroke-opacity="1" stroke-width="3.2"/>
<circle clip-path="url(#clip303)" cx="1828.02" cy="474.277" r="14" fill="#009af9" fill-rule="evenodd" fill-opacity="1" stroke="#000000" stroke-opacity="1" stroke-width="3.2"/>
<circle clip-path="url(#clip303)" cx="2290.34" cy="840.543" r="14" fill="#009af9" fill-rule="evenodd" fill-opacity="1" stroke="#000000" stroke-opacity="1" stroke-width="3.2"/>
<polyline clip-path="url(#clip303)" style="stroke:#e26f46; stroke-linecap:butt; stroke-linejoin:round; stroke-width:4; stroke-opacity:1; fill:none" points="
  209.891,162.388 220.346,177.953 230.8,194.604 241.255,212.226 251.71,230.7 262.164,249.905 272.619,269.721 283.073,290.029 293.528,310.712 303.982,331.658 
  314.437,352.756 324.891,373.906 335.346,395.01 345.8,415.977 356.255,436.726 366.709,457.181 377.164,477.274 387.618,496.944 398.073,516.141 408.527,534.818 
  418.982,552.937 429.437,570.468 439.891,587.386 450.346,603.672 460.8,619.314 471.255,634.304 481.709,648.638 492.164,662.318 502.618,675.347 513.073,687.735 
  523.527,699.491 533.982,710.629 544.436,721.163 554.891,731.109 565.345,740.485 575.8,749.31 586.254,757.602 596.709,765.381 607.163,772.666 617.618,779.476 
  628.073,785.831 638.527,791.75 648.982,797.251 659.436,802.35 669.891,807.066 680.345,811.413 690.8,815.408 701.254,819.065 711.709,822.397 722.163,825.415 
  732.618,828.133 743.072,830.56 753.527,832.706 763.981,834.578 774.436,836.186 784.89,837.534 795.345,838.628 805.799,839.473 816.254,840.073 826.709,840.429 
  837.163,840.544 847.618,840.417 858.072,840.048 868.527,839.436 878.981,838.577 889.436,837.47 899.89,836.108 910.345,834.487 920.799,832.601 931.254,830.441 
  941.708,827.999 952.163,825.266 962.617,822.231 973.072,818.883 983.526,815.209 993.981,811.196 1004.44,806.829 1014.89,802.094 1025.34,796.974 1035.8,791.452 
  1046.25,785.511 1056.71,779.132 1067.16,772.298 1077.62,764.987 1088.07,757.182 1098.53,748.863 1108.98,740.01 1119.44,730.605 1129.89,720.628 1140.34,710.063 
  1150.8,698.894 1161.25,687.105 1171.71,674.684 1182.16,661.621 1192.62,647.907 1203.07,633.539 1213.53,618.515 1223.98,602.839 1234.44,586.519 1244.89,569.569 
  1255.34,552.007 1265.8,533.857 1276.25,515.152 1286.71,495.93 1297.16,476.236 1307.62,456.123 1318.07,435.651 1328.53,414.889 1338.98,393.912 1349.43,372.804 
  1359.89,351.654 1370.34,330.561 1380.8,309.627 1391.25,288.96 1401.71,268.675 1412.16,248.888 1422.62,229.718 1433.07,211.285 1443.53,193.711 1453.98,177.113 
  1464.43,161.609 1474.89,147.307 1485.34,134.316 1495.8,122.731 1506.25,112.641 1516.71,104.127 1527.16,97.2542 1537.62,92.0786 1548.07,88.6419 1558.53,86.9719 
  1568.98,87.0824 1579.43,88.9723 1589.89,92.6263 1600.34,98.0147 1610.8,105.094 1621.25,113.808 1631.71,124.087 1642.16,135.851 1652.62,149.011 1663.07,163.467 
  1673.53,179.113 1683.98,195.838 1694.43,213.525 1704.89,232.056 1715.34,251.309 1725.8,271.164 1736.25,291.503 1746.71,312.209 1757.16,333.168 1767.62,354.274 
  1778.07,375.424 1788.53,396.521 1798.98,417.475 1809.43,438.205 1819.89,458.636 1830.34,478.7 1840.8,498.339 1851.25,517.499 1861.71,536.137 1872.16,554.215 
  1882.62,571.703 1893.07,588.576 1903.52,604.817 1913.98,620.412 1924.43,635.355 1934.89,649.642 1945.34,663.275 1955.8,676.258 1966.25,688.6 1976.71,700.311 
  1987.16,711.405 1997.62,721.896 2008.07,731.801 2018.52,741.137 2028.98,749.923 2039.43,758.177 2049.89,765.92 2060.34,773.17 2070.8,779.947 2081.25,786.271 
  2091.71,792.159 2102.16,797.63 2112.62,802.701 2123.07,807.39 2133.52,811.712 2143.98,815.682 2154.43,819.315 2164.89,822.624 2175.34,825.62 2185.8,828.317 
  2196.25,830.723 2206.71,832.849 2217.16,834.702 2227.62,836.291 2238.07,837.621 2248.52,838.697 2258.98,839.525 2269.43,840.107 2279.89,840.446 2290.34,840.543 
  
  "/>
<polyline clip-path="url(#clip303)" style="stroke:#3da44d; stroke-linecap:butt; stroke-linejoin:round; stroke-width:4; stroke-opacity:1; fill:none" points="
  209.891,162.388 220.346,196.725 230.8,228.766 241.255,258.679 251.71,286.621 262.164,312.742 272.619,337.184 283.073,360.082 293.528,381.562 303.982,401.742 
  314.437,420.735 324.891,438.646 335.346,455.572 345.8,471.607 356.255,486.835 366.709,501.336 377.164,515.184 387.618,528.446 398.073,541.187 408.527,553.463 
  418.982,565.326 429.437,576.825 439.891,588.003 450.346,598.898 460.8,609.546 471.255,619.976 481.709,630.214 492.164,640.285 502.618,650.208 513.073,659.998 
  523.527,669.669 533.982,679.231 544.436,688.69 554.891,698.052 565.345,707.318 575.8,716.488 586.254,725.559 596.709,734.527 607.163,743.386 617.618,752.127 
  628.073,760.74 638.527,769.215 648.982,777.537 659.436,785.694 669.891,793.671 680.345,801.451 690.8,809.018 701.254,816.354 711.709,823.442 722.163,830.262 
  732.618,836.795 743.072,843.024 753.527,848.927 763.981,854.486 774.436,859.681 784.89,864.493 795.345,868.903 805.799,872.892 816.254,876.441 826.709,879.533 
  837.163,882.15 847.618,884.276 858.072,885.894 868.527,886.989 878.981,887.547 889.436,887.555 899.89,886.999 910.345,885.868 920.799,884.152 931.254,881.841 
  941.708,878.928 952.163,875.405 962.617,871.266 973.072,866.508 983.526,861.128 993.981,855.123 1004.44,848.494 1014.89,841.242 1025.34,833.369 1035.8,824.88 
  1046.25,815.781 1056.71,806.078 1067.16,795.781 1077.62,784.9 1088.07,773.447 1098.53,761.436 1108.98,748.88 1119.44,735.797 1129.89,722.205 1140.34,708.124 
  1150.8,693.575 1161.25,678.58 1171.71,663.164 1182.16,647.352 1192.62,631.172 1203.07,614.652 1213.53,597.821 1223.98,580.713 1234.44,563.358 1244.89,545.791 
  1255.34,528.048 1265.8,510.164 1276.25,492.178 1286.71,474.127 1297.16,456.052 1307.62,437.994 1318.07,419.993 1328.53,402.094 1338.98,384.338 1349.43,366.77 
  1359.89,349.436 1370.34,332.379 1380.8,315.647 1391.25,299.285 1401.71,283.34 1412.16,267.859 1422.62,252.89 1433.07,238.478 1443.53,224.672 1453.98,211.519 
  1464.43,199.065 1474.89,187.357 1485.34,176.442 1495.8,166.363 1506.25,157.167 1516.71,148.898 1527.16,141.598 1537.62,135.31 1548.07,130.075 1558.53,125.933 
  1568.98,122.922 1579.43,121.079 1589.89,120.439 1600.34,121.036 1610.8,122.9 1621.25,126.062 1631.71,130.547 1642.16,136.381 1652.62,143.586 1663.07,152.18 
  1673.53,162.181 1683.98,173.601 1694.43,186.45 1704.89,200.736 1715.34,216.461 1725.8,233.624 1736.25,252.221 1746.71,272.244 1757.16,293.678 1767.62,316.507 
  1778.07,340.708 1788.53,366.255 1798.98,393.114 1809.43,421.248 1819.89,450.615 1830.34,481.165 1840.8,512.844 1851.25,545.591 1861.71,579.34 1872.16,614.015 
  1882.62,649.537 1893.07,685.819 1903.52,722.765 1913.98,760.273 1924.43,798.234 1934.89,836.529 1945.34,875.032 1955.8,913.609 1966.25,952.116 1976.71,990.402 
  1987.16,1028.3 1997.62,1065.65 2008.07,1102.27 2018.52,1137.96 2028.98,1172.52 2039.43,1205.75 2049.89,1237.42 2060.34,1267.29 2070.8,1295.13 2081.25,1320.68 
  2091.71,1343.66 2102.16,1363.81 2112.62,1380.82 2123.07,1394.39 2133.52,1404.21 2143.98,1409.94 2154.43,1411.23 2164.89,1407.73 2175.34,1399.06 2185.8,1384.84 
  2196.25,1364.66 2206.71,1338.1 2217.16,1304.73 2227.62,1264.1 2238.07,1215.74 2248.52,1159.17 2258.98,1093.89 2269.43,1019.38 2279.89,935.119 2290.34,840.543 
  
  "/>
<path clip-path="url(#clip300)" d="
M562.359 301.395 L1299.12 301.395 L1299.12 94.0346 L562.359 94.0346  Z
  " fill="#ffffff" fill-rule="evenodd" fill-opacity="1"/>
<polyline clip-path="url(#clip300)" style="stroke:#000000; stroke-linecap:butt; stroke-linejoin:round; stroke-width:4; stroke-opacity:1; fill:none" points="
  562.359,301.395 1299.12,301.395 1299.12,94.0346 562.359,94.0346 562.359,301.395 
  "/>
<circle clip-path="url(#clip300)" cx="660.371" cy="145.875" r="23" fill="#009af9" fill-rule="evenodd" fill-opacity="1" stroke="#000000" stroke-opacity="1" stroke-width="5.12"/>
<path clip-path="url(#clip300)" d="M772.226 165.562 Q770.42 170.192 768.707 171.604 Q766.994 173.016 764.124 173.016 L760.721 173.016 L760.721 169.451 L763.221 169.451 Q764.981 169.451 765.953 168.618 Q766.925 167.784 768.106 164.682 L768.869 162.738 L758.383 137.229 L762.897 137.229 L770.999 157.507 L779.101 137.229 L783.615 137.229 L772.226 165.562 Z" fill="#000000" fill-rule="evenodd" fill-opacity="1" /><path clip-path="url(#clip300)" d="M801.369 149.173 Q804.24 149.729 805.837 151.419 Q807.434 153.108 807.434 155.608 Q807.434 159.613 804.448 161.719 Q801.462 163.826 795.953 163.826 Q794.101 163.826 792.133 163.502 Q790.189 163.178 788.105 162.53 L788.105 158.571 Q789.749 159.428 791.717 159.868 Q793.684 160.284 795.837 160.284 Q799.332 160.284 801.277 158.988 Q803.244 157.692 803.244 155.608 Q803.244 153.571 801.508 152.345 Q799.772 151.095 796.601 151.095 L793.175 151.095 L793.175 147.576 L796.763 147.576 Q799.448 147.576 800.999 146.558 Q802.573 145.516 802.573 143.895 Q802.573 142.414 800.953 141.349 Q799.355 140.284 796.601 140.284 Q794.957 140.284 793.082 140.585 Q791.23 140.886 788.985 141.558 L788.985 137.692 Q791.254 137.136 793.221 136.858 Q795.189 136.581 796.948 136.581 Q801.485 136.581 804.101 138.409 Q806.74 140.215 806.74 143.479 Q806.74 145.632 805.351 147.136 Q803.962 148.618 801.369 149.173 Z" fill="#000000" fill-rule="evenodd" fill-opacity="1" /><path clip-path="url(#clip300)" d="M811.994 163.155 L811.994 159.613 Q816.207 158.965 817.503 156.048 Q819.078 151.951 819.078 141.465 L819.078 137.229 L836.601 137.229 L836.601 163.155 L832.341 163.155 L832.341 140.632 L823.337 140.632 L823.337 143.201 Q823.337 153.201 821.3 157.692 Q819.124 162.483 811.994 163.155 Z" fill="#000000" fill-rule="evenodd" fill-opacity="1" /><path clip-path="url(#clip300)" d="M869.494 137.229 L873.753 137.229 L873.753 163.155 L869.494 163.155 L869.494 137.229 M871.624 136.604 L871.624 136.604 M861.138 155.469 Q861.138 153.386 859.61 152.298 Q858.105 151.21 855.188 151.21 L849.124 151.21 L849.124 159.752 L855.188 159.752 Q858.105 159.752 859.61 158.664 Q861.138 157.553 861.138 155.469 M844.841 137.229 L849.124 137.229 L849.124 147.807 L855.374 147.807 Q860.327 147.807 862.989 149.706 Q865.675 151.581 865.675 155.469 Q865.675 159.358 862.989 161.256 Q860.327 163.155 855.374 163.155 L844.841 163.155 L844.841 137.229 Z" fill="#000000" fill-rule="evenodd" fill-opacity="1" /><path clip-path="url(#clip300)" d="M919.54 137.229 L919.54 163.155 L915.304 163.155 L915.304 142.345 L902.804 163.155 L897.341 163.155 L897.341 137.229 L901.577 137.229 L901.577 157.993 L914.054 137.229 L919.54 137.229 Z" fill="#000000" fill-rule="evenodd" fill-opacity="1" /><path clip-path="url(#clip300)" d="M928.151 137.229 L932.433 137.229 L932.433 147.807 L946.253 147.807 L946.253 137.229 L950.535 137.229 L950.535 163.155 L946.253 163.155 L946.253 151.21 L932.433 151.21 L932.433 163.155 L928.151 163.155 L928.151 137.229 Z" fill="#000000" fill-rule="evenodd" fill-opacity="1" /><path clip-path="url(#clip300)" d="M956.23 137.229 L981.067 137.229 L981.067 140.632 L970.743 140.632 L970.743 163.155 L966.554 163.155 L966.554 140.632 L956.23 140.632 L956.23 137.229 Z" fill="#000000" fill-rule="evenodd" fill-opacity="1" /><path clip-path="url(#clip300)" d="M1009.1 149.127 L1009.1 151.21 L989.516 151.21 Q989.794 155.608 992.155 157.923 Q994.54 160.215 998.776 160.215 Q1001.23 160.215 1003.52 159.613 Q1005.84 159.011 1008.1 157.807 L1008.1 161.835 Q1005.81 162.807 1003.41 163.317 Q1001 163.826 998.521 163.826 Q992.317 163.826 988.683 160.215 Q985.072 156.604 985.072 150.446 Q985.072 144.081 988.498 140.354 Q991.947 136.604 997.78 136.604 Q1003.01 136.604 1006.04 139.983 Q1009.1 143.34 1009.1 149.127 M1004.84 147.877 Q1004.79 144.382 1002.87 142.298 Q1000.97 140.215 997.827 140.215 Q994.262 140.215 992.109 142.229 Q989.979 144.243 989.655 147.9 L1004.84 147.877 Z" fill="#000000" fill-rule="evenodd" fill-opacity="1" /><path clip-path="url(#clip300)" d="M1020.21 159.266 L1020.21 173.016 L1015.93 173.016 L1015.93 137.229 L1020.21 137.229 L1020.21 141.164 Q1021.55 138.849 1023.59 137.738 Q1025.65 136.604 1028.5 136.604 Q1033.22 136.604 1036.16 140.354 Q1039.12 144.104 1039.12 150.215 Q1039.12 156.326 1036.16 160.076 Q1033.22 163.826 1028.5 163.826 Q1025.65 163.826 1023.59 162.715 Q1021.55 161.581 1020.21 159.266 M1034.7 150.215 Q1034.7 145.516 1032.76 142.854 Q1030.84 140.169 1027.46 140.169 Q1024.08 140.169 1022.13 142.854 Q1020.21 145.516 1020.21 150.215 Q1020.21 154.914 1022.13 157.599 Q1024.08 160.261 1027.46 160.261 Q1030.84 160.261 1032.76 157.599 Q1034.7 154.914 1034.7 150.215 Z" fill="#000000" fill-rule="evenodd" fill-opacity="1" /><path clip-path="url(#clip300)" d="M1068.4 137.229 L1068.4 163.155 L1064.12 163.155 L1064.12 140.632 L1050.3 140.632 L1050.3 163.155 L1046.02 163.155 L1046.02 137.229 L1068.4 137.229 Z" fill="#000000" fill-rule="evenodd" fill-opacity="1" /><path clip-path="url(#clip300)" d="M1087.22 140.215 Q1083.8 140.215 1081.81 142.9 Q1079.82 145.562 1079.82 150.215 Q1079.82 154.868 1081.78 157.553 Q1083.78 160.215 1087.22 160.215 Q1090.63 160.215 1092.62 157.53 Q1094.61 154.844 1094.61 150.215 Q1094.61 145.608 1092.62 142.923 Q1090.63 140.215 1087.22 140.215 M1087.22 136.604 Q1092.78 136.604 1095.95 140.215 Q1099.12 143.826 1099.12 150.215 Q1099.12 156.581 1095.95 160.215 Q1092.78 163.826 1087.22 163.826 Q1081.65 163.826 1078.47 160.215 Q1075.33 156.581 1075.33 150.215 Q1075.33 143.826 1078.47 140.215 Q1081.65 136.604 1087.22 136.604 Z" fill="#000000" fill-rule="evenodd" fill-opacity="1" /><path clip-path="url(#clip300)" d="M1103.47 163.155 L1103.47 159.613 Q1107.69 158.965 1108.98 156.048 Q1110.56 151.951 1110.56 141.465 L1110.56 137.229 L1128.08 137.229 L1128.08 163.155 L1123.82 163.155 L1123.82 140.632 L1114.82 140.632 L1114.82 143.201 Q1114.82 153.201 1112.78 157.692 Q1110.6 162.483 1103.47 163.155 Z" fill="#000000" fill-rule="evenodd" fill-opacity="1" /><path clip-path="url(#clip300)" d="M1140.77 144.706 Q1140.77 146.627 1142.25 147.715 Q1143.73 148.803 1146.48 148.803 L1152.22 148.803 L1152.22 140.632 L1146.48 140.632 Q1143.73 140.632 1142.25 141.696 Q1140.77 142.761 1140.77 144.706 M1134.7 163.155 L1142.62 151.789 Q1139.93 151.187 1138.15 149.613 Q1136.37 148.016 1136.37 144.706 Q1136.37 140.956 1138.84 139.104 Q1141.34 137.229 1146.37 137.229 L1156.51 137.229 L1156.51 163.155 L1152.22 163.155 L1152.22 152.206 L1146.92 152.206 L1139.28 163.155 L1134.7 163.155 Z" fill="#000000" fill-rule="evenodd" fill-opacity="1" /><path clip-path="url(#clip300)" d="M1187.22 163.155 L1164.84 163.155 L1164.84 137.229 L1169.12 137.229 L1169.12 159.752 L1182.94 159.752 L1182.94 137.229 L1187.22 137.229 L1187.22 159.752 L1190.63 159.752 L1190.63 169.706 L1187.22 169.706 L1187.22 163.155 Z" fill="#000000" fill-rule="evenodd" fill-opacity="1" /><path clip-path="url(#clip300)" d="M1219.31 137.229 L1219.31 163.155 L1215.07 163.155 L1215.07 142.345 L1202.57 163.155 L1197.11 163.155 L1197.11 137.229 L1201.34 137.229 L1201.34 157.993 L1213.82 137.229 L1219.31 137.229 Z" fill="#000000" fill-rule="evenodd" fill-opacity="1" /><path clip-path="url(#clip300)" d="M1250.12 137.229 L1250.12 163.155 L1245.88 163.155 L1245.88 142.345 L1233.38 163.155 L1227.92 163.155 L1227.92 137.229 L1232.15 137.229 L1232.15 157.993 L1244.63 137.229 L1250.12 137.229 Z" fill="#000000" fill-rule="evenodd" fill-opacity="1" /><polyline clip-path="url(#clip300)" style="stroke:#e26f46; stroke-linecap:butt; stroke-linejoin:round; stroke-width:4; stroke-opacity:1; fill:none" points="
  586.862,197.715 733.88,197.715 
  "/>
<path clip-path="url(#clip300)" d="M782.411 200.967 L782.411 203.05 L762.828 203.05 Q763.106 207.448 765.467 209.763 Q767.851 212.055 772.087 212.055 Q774.541 212.055 776.832 211.453 Q779.147 210.851 781.416 209.647 L781.416 213.675 Q779.124 214.647 776.717 215.157 Q774.309 215.666 771.832 215.666 Q765.629 215.666 761.995 212.055 Q758.383 208.444 758.383 202.286 Q758.383 195.921 761.809 192.194 Q765.258 188.444 771.092 188.444 Q776.323 188.444 779.356 191.823 Q782.411 195.18 782.411 200.967 M778.152 199.717 Q778.106 196.222 776.184 194.138 Q774.286 192.055 771.138 192.055 Q767.573 192.055 765.42 194.069 Q763.291 196.083 762.967 199.74 L778.152 199.717 Z" fill="#000000" fill-rule="evenodd" fill-opacity="1" /><path clip-path="url(#clip300)" d="M810.119 189.069 L800.744 201.685 L810.605 214.995 L805.582 214.995 L798.036 204.81 L790.49 214.995 L785.467 214.995 L795.536 201.43 L786.323 189.069 L791.346 189.069 L798.221 198.305 L805.096 189.069 L810.119 189.069 Z" fill="#000000" fill-rule="evenodd" fill-opacity="1" /><path clip-path="url(#clip300)" d="M820.744 211.106 L820.744 224.856 L816.462 224.856 L816.462 189.069 L820.744 189.069 L820.744 193.004 Q822.087 190.689 824.124 189.578 Q826.184 188.444 829.031 188.444 Q833.753 188.444 836.693 192.194 Q839.656 195.944 839.656 202.055 Q839.656 208.166 836.693 211.916 Q833.753 215.666 829.031 215.666 Q826.184 215.666 824.124 214.555 Q822.087 213.421 820.744 211.106 M835.235 202.055 Q835.235 197.356 833.29 194.694 Q831.369 192.009 827.99 192.009 Q824.61 192.009 822.665 194.694 Q820.744 197.356 820.744 202.055 Q820.744 206.754 822.665 209.439 Q824.61 212.101 827.99 212.101 Q831.369 212.101 833.29 209.439 Q835.235 206.754 835.235 202.055 Z" fill="#000000" fill-rule="evenodd" fill-opacity="1" /><path clip-path="url(#clip300)" d="M856.948 179.023 Q853.846 184.347 852.341 189.555 Q850.837 194.763 850.837 200.11 Q850.837 205.458 852.341 210.712 Q853.869 215.944 856.948 221.245 L853.244 221.245 Q849.772 215.805 848.036 210.55 Q846.323 205.296 846.323 200.11 Q846.323 194.948 848.036 189.717 Q849.749 184.486 853.244 179.023 L856.948 179.023 Z" fill="#000000" fill-rule="evenodd" fill-opacity="1" /><path clip-path="url(#clip300)" d="M881.739 189.833 L881.739 193.86 Q879.934 192.935 877.989 192.472 Q876.045 192.009 873.962 192.009 Q870.79 192.009 869.193 192.981 Q867.619 193.953 867.619 195.898 Q867.619 197.379 868.753 198.235 Q869.887 199.069 873.313 199.833 L874.772 200.157 Q879.309 201.129 881.207 202.911 Q883.128 204.671 883.128 207.842 Q883.128 211.453 880.258 213.559 Q877.411 215.666 872.411 215.666 Q870.327 215.666 868.059 215.249 Q865.813 214.856 863.313 214.046 L863.313 209.647 Q865.675 210.874 867.966 211.499 Q870.258 212.101 872.503 212.101 Q875.512 212.101 877.133 211.083 Q878.753 210.041 878.753 208.166 Q878.753 206.43 877.573 205.504 Q876.415 204.578 872.457 203.722 L870.975 203.374 Q867.017 202.541 865.258 200.828 Q863.499 199.092 863.499 196.083 Q863.499 192.425 866.091 190.435 Q868.684 188.444 873.452 188.444 Q875.813 188.444 877.897 188.791 Q879.98 189.138 881.739 189.833 Z" fill="#000000" fill-rule="evenodd" fill-opacity="1" /><path clip-path="url(#clip300)" d="M889.911 189.069 L894.17 189.069 L894.17 214.995 L889.911 214.995 L889.911 189.069 M889.911 178.976 L894.17 178.976 L894.17 184.37 L889.911 184.37 L889.911 178.976 Z" fill="#000000" fill-rule="evenodd" fill-opacity="1" /><path clip-path="url(#clip300)" d="M924.633 199.347 L924.633 214.995 L920.373 214.995 L920.373 199.485 Q920.373 195.805 918.938 193.976 Q917.503 192.148 914.633 192.148 Q911.184 192.148 909.193 194.347 Q907.202 196.546 907.202 200.342 L907.202 214.995 L902.92 214.995 L902.92 189.069 L907.202 189.069 L907.202 193.097 Q908.73 190.759 910.79 189.601 Q912.873 188.444 915.582 188.444 Q920.049 188.444 922.341 191.222 Q924.633 193.976 924.633 199.347 Z" fill="#000000" fill-rule="evenodd" fill-opacity="1" /><path clip-path="url(#clip300)" d="M943.359 179.023 Q940.257 184.347 938.753 189.555 Q937.248 194.763 937.248 200.11 Q937.248 205.458 938.753 210.712 Q940.281 215.944 943.359 221.245 L939.656 221.245 Q936.183 215.805 934.447 210.55 Q932.734 205.296 932.734 200.11 Q932.734 194.948 934.447 189.717 Q936.16 184.486 939.656 179.023 L943.359 179.023 Z" fill="#000000" fill-rule="evenodd" fill-opacity="1" /><path clip-path="url(#clip300)" d="M956.253 211.059 L972.572 211.059 L972.572 214.995 L950.628 214.995 L950.628 211.059 Q953.29 208.305 957.873 203.675 Q962.48 199.022 963.66 197.68 Q965.905 195.157 966.785 193.421 Q967.688 191.661 967.688 189.972 Q967.688 187.217 965.743 185.481 Q963.822 183.745 960.72 183.745 Q958.521 183.745 956.068 184.509 Q953.637 185.273 950.859 186.823 L950.859 182.101 Q953.683 180.967 956.137 180.388 Q958.591 179.81 960.628 179.81 Q965.998 179.81 969.192 182.495 Q972.387 185.18 972.387 189.671 Q972.387 191.8 971.577 193.722 Q970.79 195.62 968.683 198.212 Q968.105 198.884 965.003 202.101 Q961.901 205.296 956.253 211.059 Z" fill="#000000" fill-rule="evenodd" fill-opacity="1" /><path clip-path="url(#clip300)" d="M1003.34 189.069 L993.961 201.685 L1003.82 214.995 L998.799 214.995 L991.253 204.81 L983.706 214.995 L978.683 214.995 L988.753 201.43 L979.54 189.069 L984.563 189.069 L991.438 198.305 L998.313 189.069 L1003.34 189.069 Z" fill="#000000" fill-rule="evenodd" fill-opacity="1" /><path clip-path="url(#clip300)" d="M1009.17 179.023 L1012.87 179.023 Q1016.35 184.486 1018.06 189.717 Q1019.79 194.948 1019.79 200.11 Q1019.79 205.296 1018.06 210.55 Q1016.35 215.805 1012.87 221.245 L1009.17 221.245 Q1012.25 215.944 1013.75 210.712 Q1015.28 205.458 1015.28 200.11 Q1015.28 194.763 1013.75 189.555 Q1012.25 184.347 1009.17 179.023 Z" fill="#000000" fill-rule="evenodd" fill-opacity="1" /><path clip-path="url(#clip300)" d="M1027.66 179.023 L1031.37 179.023 Q1034.84 184.486 1036.55 189.717 Q1038.29 194.948 1038.29 200.11 Q1038.29 205.296 1036.55 210.55 Q1034.84 215.805 1031.37 221.245 L1027.66 221.245 Q1030.74 215.944 1032.25 210.712 Q1033.78 205.458 1033.78 200.11 Q1033.78 194.763 1032.25 189.555 Q1030.74 184.347 1027.66 179.023 Z" fill="#000000" fill-rule="evenodd" fill-opacity="1" /><polyline clip-path="url(#clip300)" style="stroke:#3da44d; stroke-linecap:butt; stroke-linejoin:round; stroke-width:4; stroke-opacity:1; fill:none" points="
  586.862,249.555 733.88,249.555 
  "/>
<path clip-path="url(#clip300)" d="M780.582 240.909 L780.582 266.835 L776.346 266.835 L776.346 246.025 L763.846 266.835 L758.383 266.835 L758.383 240.909 L762.62 240.909 L762.62 261.673 L775.096 240.909 L780.582 240.909 Z" fill="#000000" fill-rule="evenodd" fill-opacity="1" /><path clip-path="url(#clip300)" d="M789.193 240.909 L793.476 240.909 L793.476 251.487 L807.295 251.487 L807.295 240.909 L811.578 240.909 L811.578 266.835 L807.295 266.835 L807.295 254.89 L793.476 254.89 L793.476 266.835 L789.193 266.835 L789.193 240.909 Z" fill="#000000" fill-rule="evenodd" fill-opacity="1" /><path clip-path="url(#clip300)" d="M817.272 240.909 L842.11 240.909 L842.11 244.312 L831.786 244.312 L831.786 266.835 L827.596 266.835 L827.596 244.312 L817.272 244.312 L817.272 240.909 Z" fill="#000000" fill-rule="evenodd" fill-opacity="1" /><path clip-path="url(#clip300)" d="M870.142 252.807 L870.142 254.89 L850.559 254.89 Q850.837 259.288 853.198 261.603 Q855.582 263.895 859.818 263.895 Q862.272 263.895 864.563 263.293 Q866.878 262.691 869.147 261.487 L869.147 265.515 Q866.855 266.487 864.448 266.997 Q862.04 267.506 859.563 267.506 Q853.36 267.506 849.726 263.895 Q846.114 260.284 846.114 254.126 Q846.114 247.761 849.54 244.034 Q852.989 240.284 858.823 240.284 Q864.054 240.284 867.087 243.663 Q870.142 247.02 870.142 252.807 M865.883 251.557 Q865.837 248.062 863.915 245.978 Q862.017 243.895 858.869 243.895 Q855.304 243.895 853.151 245.909 Q851.022 247.923 850.698 251.58 L865.883 251.557 Z" fill="#000000" fill-rule="evenodd" fill-opacity="1" /><path clip-path="url(#clip300)" d="M881.253 262.946 L881.253 276.696 L876.971 276.696 L876.971 240.909 L881.253 240.909 L881.253 244.844 Q882.596 242.529 884.633 241.418 Q886.693 240.284 889.54 240.284 Q894.262 240.284 897.202 244.034 Q900.165 247.784 900.165 253.895 Q900.165 260.006 897.202 263.756 Q894.262 267.506 889.54 267.506 Q886.693 267.506 884.633 266.395 Q882.596 265.261 881.253 262.946 M895.744 253.895 Q895.744 249.196 893.799 246.534 Q891.878 243.849 888.498 243.849 Q885.119 243.849 883.174 246.534 Q881.253 249.196 881.253 253.895 Q881.253 258.594 883.174 261.279 Q885.119 263.941 888.498 263.941 Q891.878 263.941 893.799 261.279 Q895.744 258.594 895.744 253.895 Z" fill="#000000" fill-rule="evenodd" fill-opacity="1" /><path clip-path="url(#clip300)" d="M929.447 240.909 L929.447 266.835 L925.165 266.835 L925.165 244.312 L911.346 244.312 L911.346 266.835 L907.063 266.835 L907.063 240.909 L929.447 240.909 Z" fill="#000000" fill-rule="evenodd" fill-opacity="1" /><path clip-path="url(#clip300)" d="M948.267 243.895 Q944.841 243.895 942.85 246.58 Q940.859 249.242 940.859 253.895 Q940.859 258.548 942.827 261.233 Q944.818 263.895 948.267 263.895 Q951.669 263.895 953.66 261.21 Q955.651 258.524 955.651 253.895 Q955.651 249.288 953.66 246.603 Q951.669 243.895 948.267 243.895 M948.267 240.284 Q953.822 240.284 956.993 243.895 Q960.165 247.506 960.165 253.895 Q960.165 260.261 956.993 263.895 Q953.822 267.506 948.267 267.506 Q942.688 267.506 939.517 263.895 Q936.369 260.261 936.369 253.895 Q936.369 247.506 939.517 243.895 Q942.688 240.284 948.267 240.284 Z" fill="#000000" fill-rule="evenodd" fill-opacity="1" /><path clip-path="url(#clip300)" d="M964.517 266.835 L964.517 263.293 Q968.73 262.645 970.026 259.728 Q971.6 255.631 971.6 245.145 L971.6 240.909 L989.123 240.909 L989.123 266.835 L984.864 266.835 L984.864 244.312 L975.859 244.312 L975.859 246.881 Q975.859 256.881 973.822 261.372 Q971.646 266.163 964.517 266.835 Z" fill="#000000" fill-rule="evenodd" fill-opacity="1" /><path clip-path="url(#clip300)" d="M1001.81 248.386 Q1001.81 250.307 1003.29 251.395 Q1004.77 252.483 1007.53 252.483 L1013.27 252.483 L1013.27 244.312 L1007.53 244.312 Q1004.77 244.312 1003.29 245.376 Q1001.81 246.441 1001.81 248.386 M995.743 266.835 L1003.66 255.469 Q1000.97 254.867 999.192 253.293 Q997.41 251.696 997.41 248.386 Q997.41 244.636 999.887 242.784 Q1002.39 240.909 1007.41 240.909 L1017.55 240.909 L1017.55 266.835 L1013.27 266.835 L1013.27 255.886 L1007.97 255.886 L1000.33 266.835 L995.743 266.835 Z" fill="#000000" fill-rule="evenodd" fill-opacity="1" /><path clip-path="url(#clip300)" d="M1025.88 240.909 L1030.16 240.909 L1030.16 251.487 L1043.98 251.487 L1043.98 240.909 L1048.27 240.909 L1048.27 266.835 L1043.98 266.835 L1043.98 254.89 L1030.16 254.89 L1030.16 266.835 L1025.88 266.835 L1025.88 240.909 Z" fill="#000000" fill-rule="evenodd" fill-opacity="1" /><path clip-path="url(#clip300)" d="M1053.96 240.909 L1078.8 240.909 L1078.8 244.312 L1068.47 244.312 L1068.47 266.835 L1064.28 266.835 L1064.28 244.312 L1053.96 244.312 L1053.96 240.909 Z" fill="#000000" fill-rule="evenodd" fill-opacity="1" /></svg>
