<?xml version="1.0" encoding="utf-8"?>
<svg xmlns="http://www.w3.org/2000/svg" xmlns:xlink="http://www.w3.org/1999/xlink" width="600" height="400" viewBox="0 0 2400 1600">
<defs>
  <clipPath id="clip500">
    <rect x="0" y="0" width="2400" height="1600"/>
  </clipPath>
</defs>
<path clip-path="url(#clip500)" d="
M0 1600 L2400 1600 L2400 0 L0 0  Z
  " fill="#ffffff" fill-rule="evenodd" fill-opacity="1"/>
<defs>
  <clipPath id="clip501">
    <rect x="480" y="0" width="1681" height="1600"/>
  </clipPath>
</defs>
<defs>
  <clipPath id="clip502">
    <rect x="155" y="47" width="2198" height="1405"/>
  </clipPath>
</defs>
<path clip-path="url(#clip500)" d="
M156.112 1450.96 L2352.76 1450.96 L2352.76 47.2441 L156.112 47.2441  Z
  " fill="#ffffff" fill-rule="evenodd" fill-opacity="1"/>
<defs>
  <clipPath id="clip503">
    <rect x="156" y="47" width="2198" height="1405"/>
  </clipPath>
</defs>
<polyline clip-path="url(#clip503)" style="stroke:#000000; stroke-linecap:butt; stroke-linejoin:round; stroke-width:2; stroke-opacity:0.1; fill:none" points="
  218.281,1450.96 218.281,47.2441 
  "/>
<polyline clip-path="url(#clip503)" style="stroke:#000000; stroke-linecap:butt; stroke-linejoin:round; stroke-width:2; stroke-opacity:0.1; fill:none" points="
  909.05,1450.96 909.05,47.2441 
  "/>
<polyline clip-path="url(#clip503)" style="stroke:#000000; stroke-linecap:butt; stroke-linejoin:round; stroke-width:2; stroke-opacity:0.1; fill:none" points="
  1599.82,1450.96 1599.82,47.2441 
  "/>
<polyline clip-path="url(#clip503)" style="stroke:#000000; stroke-linecap:butt; stroke-linejoin:round; stroke-width:2; stroke-opacity:0.1; fill:none" points="
  2290.59,1450.96 2290.59,47.2441 
  "/>
<polyline clip-path="url(#clip500)" style="stroke:#000000; stroke-linecap:butt; stroke-linejoin:round; stroke-width:4; stroke-opacity:1; fill:none" points="
  156.112,1450.96 2352.76,1450.96 
  "/>
<polyline clip-path="url(#clip500)" style="stroke:#000000; stroke-linecap:butt; stroke-linejoin:round; stroke-width:4; stroke-opacity:1; fill:none" points="
  218.281,1450.96 218.281,1432.06 
  "/>
<polyline clip-path="url(#clip500)" style="stroke:#000000; stroke-linecap:butt; stroke-linejoin:round; stroke-width:4; stroke-opacity:1; fill:none" points="
  909.05,1450.96 909.05,1432.06 
  "/>
<polyline clip-path="url(#clip500)" style="stroke:#000000; stroke-linecap:butt; stroke-linejoin:round; stroke-width:4; stroke-opacity:1; fill:none" points="
  1599.82,1450.96 1599.82,1432.06 
  "/>
<polyline clip-path="url(#clip500)" style="stroke:#000000; stroke-linecap:butt; stroke-linejoin:round; stroke-width:4; stroke-opacity:1; fill:none" points="
  2290.59,1450.96 2290.59,1432.06 
  "/>
<path clip-path="url(#clip500)" d="M188.038 1494.8 L217.714 1494.8 L217.714 1498.74 L188.038 1498.74 L188.038 1494.8 Z" fill="#000000" fill-rule="evenodd" fill-opacity="1" /><path clip-path="url(#clip500)" d="M228.617 1507.7 L236.256 1507.7 L236.256 1481.33 L227.946 1483 L227.946 1478.74 L236.209 1477.07 L240.885 1477.07 L240.885 1507.7 L248.524 1507.7 L248.524 1511.63 L228.617 1511.63 L228.617 1507.7 Z" fill="#000000" fill-rule="evenodd" fill-opacity="1" /><path clip-path="url(#clip500)" d="M909.05 1480.15 Q905.439 1480.15 903.61 1483.72 Q901.804 1487.26 901.804 1494.39 Q901.804 1501.49 903.61 1505.06 Q905.439 1508.6 909.05 1508.6 Q912.684 1508.6 914.49 1505.06 Q916.318 1501.49 916.318 1494.39 Q916.318 1487.26 914.49 1483.72 Q912.684 1480.15 909.05 1480.15 M909.05 1476.45 Q914.86 1476.45 917.915 1481.05 Q920.994 1485.64 920.994 1494.39 Q920.994 1503.11 917.915 1507.72 Q914.86 1512.3 909.05 1512.3 Q903.24 1512.3 900.161 1507.72 Q897.105 1503.11 897.105 1494.39 Q897.105 1485.64 900.161 1481.05 Q903.24 1476.45 909.05 1476.45 Z" fill="#000000" fill-rule="evenodd" fill-opacity="1" /><path clip-path="url(#clip500)" d="M1590.2 1507.7 L1597.84 1507.7 L1597.84 1481.33 L1589.53 1483 L1589.53 1478.74 L1597.79 1477.07 L1602.47 1477.07 L1602.47 1507.7 L1610.11 1507.7 L1610.11 1511.63 L1590.2 1511.63 L1590.2 1507.7 Z" fill="#000000" fill-rule="evenodd" fill-opacity="1" /><path clip-path="url(#clip500)" d="M2285.24 1507.7 L2301.56 1507.7 L2301.56 1511.63 L2279.61 1511.63 L2279.61 1507.7 Q2282.28 1504.94 2286.86 1500.31 Q2291.47 1495.66 2292.65 1494.32 Q2294.89 1491.79 2295.77 1490.06 Q2296.67 1488.3 2296.67 1486.61 Q2296.67 1483.85 2294.73 1482.12 Q2292.81 1480.38 2289.71 1480.38 Q2287.51 1480.38 2285.05 1481.15 Q2282.62 1481.91 2279.85 1483.46 L2279.85 1478.74 Q2282.67 1477.6 2285.12 1477.03 Q2287.58 1476.45 2289.61 1476.45 Q2294.98 1476.45 2298.18 1479.13 Q2301.37 1481.82 2301.37 1486.31 Q2301.37 1488.44 2300.56 1490.36 Q2299.78 1492.26 2297.67 1494.85 Q2297.09 1495.52 2293.99 1498.74 Q2290.89 1501.93 2285.24 1507.7 Z" fill="#000000" fill-rule="evenodd" fill-opacity="1" /><path clip-path="url(#clip500)" d="M1268.61 1539.92 Q1268.61 1541.72 1267.48 1542.75 Q1266.35 1543.75 1265.06 1543.75 Q1263.84 1543.75 1263.2 1543.04 Q1262.55 1542.33 1262.55 1541.43 Q1262.55 1540.21 1263.45 1539.14 Q1264.36 1538.08 1265.71 1537.85 Q1264.39 1537.02 1262.42 1537.02 Q1261.14 1537.02 1260.01 1537.69 Q1258.91 1538.37 1258.24 1539.24 Q1257.59 1540.11 1257.01 1541.37 Q1256.47 1542.59 1256.24 1543.33 Q1256.05 1544.04 1255.89 1544.81 L1253.63 1553.83 Q1252.54 1558.11 1252.54 1559.63 Q1252.54 1561.49 1253.44 1562.75 Q1254.34 1563.97 1256.14 1563.97 Q1256.85 1563.97 1257.66 1563.78 Q1258.46 1563.55 1259.49 1562.98 Q1260.56 1562.36 1261.49 1561.46 Q1262.46 1560.53 1263.39 1558.95 Q1264.32 1557.37 1264.94 1555.34 Q1265.13 1554.63 1265.77 1554.63 Q1266.58 1554.63 1266.58 1555.28 Q1266.58 1555.83 1266.13 1556.98 Q1265.71 1558.11 1264.77 1559.59 Q1263.87 1561.04 1262.68 1562.36 Q1261.49 1563.65 1259.72 1564.55 Q1257.95 1565.46 1256.01 1565.46 Q1253.25 1565.46 1251.41 1563.97 Q1249.57 1562.49 1248.9 1560.43 Q1248.74 1560.72 1248.51 1561.11 Q1248.29 1561.49 1247.61 1562.36 Q1246.97 1563.2 1246.22 1563.84 Q1245.48 1564.46 1244.32 1564.94 Q1243.2 1565.46 1241.97 1565.46 Q1240.43 1565.46 1239.04 1565 Q1237.69 1564.55 1236.72 1563.52 Q1235.76 1562.49 1235.76 1561.08 Q1235.76 1559.5 1236.82 1558.4 Q1237.92 1557.27 1239.4 1557.27 Q1240.33 1557.27 1241.07 1557.82 Q1241.84 1558.37 1241.84 1559.56 Q1241.84 1560.88 1240.94 1561.88 Q1240.04 1562.88 1238.75 1563.14 Q1240.07 1563.97 1242.04 1563.97 Q1244.16 1563.97 1245.84 1562.11 Q1247.51 1560.24 1248.32 1557.11 Q1250.31 1549.61 1251.09 1546.26 Q1251.86 1542.88 1251.86 1541.43 Q1251.86 1540.08 1251.51 1539.14 Q1251.15 1538.21 1250.54 1537.79 Q1249.96 1537.34 1249.41 1537.18 Q1248.9 1537.02 1248.32 1537.02 Q1247.35 1537.02 1246.26 1537.4 Q1245.19 1537.79 1243.91 1538.69 Q1242.65 1539.56 1241.46 1541.37 Q1240.27 1543.17 1239.46 1545.65 Q1239.3 1546.39 1238.59 1546.39 Q1237.82 1546.36 1237.82 1545.71 Q1237.82 1545.17 1238.24 1544.04 Q1238.69 1542.88 1239.59 1541.43 Q1240.52 1539.98 1241.72 1538.69 Q1242.94 1537.37 1244.71 1536.47 Q1246.51 1535.57 1248.45 1535.57 Q1249.32 1535.57 1250.15 1535.76 Q1251.02 1535.92 1252.05 1536.41 Q1253.12 1536.89 1254.05 1537.95 Q1254.98 1539.01 1255.56 1540.56 Q1255.95 1539.82 1256.47 1539.11 Q1257.01 1538.4 1257.85 1537.53 Q1258.72 1536.63 1259.91 1536.12 Q1261.14 1535.57 1262.49 1535.57 Q1263.81 1535.57 1265.1 1535.92 Q1266.39 1536.24 1267.48 1537.31 Q1268.61 1538.34 1268.61 1539.92 Z" fill="#000000" fill-rule="evenodd" fill-opacity="1" /><polyline clip-path="url(#clip503)" style="stroke:#000000; stroke-linecap:butt; stroke-linejoin:round; stroke-width:2; stroke-opacity:0.1; fill:none" points="
  156.112,1338.17 2352.76,1338.17 
  "/>
<polyline clip-path="url(#clip503)" style="stroke:#000000; stroke-linecap:butt; stroke-linejoin:round; stroke-width:2; stroke-opacity:0.1; fill:none" points="
  156.112,1085.36 2352.76,1085.36 
  "/>
<polyline clip-path="url(#clip503)" style="stroke:#000000; stroke-linecap:butt; stroke-linejoin:round; stroke-width:2; stroke-opacity:0.1; fill:none" points="
  156.112,832.55 2352.76,832.55 
  "/>
<polyline clip-path="url(#clip503)" style="stroke:#000000; stroke-linecap:butt; stroke-linejoin:round; stroke-width:2; stroke-opacity:0.1; fill:none" points="
  156.112,579.738 2352.76,579.738 
  "/>
<polyline clip-path="url(#clip503)" style="stroke:#000000; stroke-linecap:butt; stroke-linejoin:round; stroke-width:2; stroke-opacity:0.1; fill:none" points="
  156.112,326.927 2352.76,326.927 
  "/>
<polyline clip-path="url(#clip503)" style="stroke:#000000; stroke-linecap:butt; stroke-linejoin:round; stroke-width:2; stroke-opacity:0.1; fill:none" points="
  156.112,74.1149 2352.76,74.1149 
  "/>
<polyline clip-path="url(#clip500)" style="stroke:#000000; stroke-linecap:butt; stroke-linejoin:round; stroke-width:4; stroke-opacity:1; fill:none" points="
  156.112,1450.96 156.112,47.2441 
  "/>
<polyline clip-path="url(#clip500)" style="stroke:#000000; stroke-linecap:butt; stroke-linejoin:round; stroke-width:4; stroke-opacity:1; fill:none" points="
  156.112,1338.17 175.01,1338.17 
  "/>
<polyline clip-path="url(#clip500)" style="stroke:#000000; stroke-linecap:butt; stroke-linejoin:round; stroke-width:4; stroke-opacity:1; fill:none" points="
  156.112,1085.36 175.01,1085.36 
  "/>
<polyline clip-path="url(#clip500)" style="stroke:#000000; stroke-linecap:butt; stroke-linejoin:round; stroke-width:4; stroke-opacity:1; fill:none" points="
  156.112,832.55 175.01,832.55 
  "/>
<polyline clip-path="url(#clip500)" style="stroke:#000000; stroke-linecap:butt; stroke-linejoin:round; stroke-width:4; stroke-opacity:1; fill:none" points="
  156.112,579.738 175.01,579.738 
  "/>
<polyline clip-path="url(#clip500)" style="stroke:#000000; stroke-linecap:butt; stroke-linejoin:round; stroke-width:4; stroke-opacity:1; fill:none" points="
  156.112,326.927 175.01,326.927 
  "/>
<polyline clip-path="url(#clip500)" style="stroke:#000000; stroke-linecap:butt; stroke-linejoin:round; stroke-width:4; stroke-opacity:1; fill:none" points="
  156.112,74.1149 175.01,74.1149 
  "/>
<path clip-path="url(#clip500)" d="M62.9365 1323.97 Q59.3254 1323.97 57.4967 1327.54 Q55.6912 1331.08 55.6912 1338.21 Q55.6912 1345.31 57.4967 1348.88 Q59.3254 1352.42 62.9365 1352.42 Q66.5707 1352.42 68.3763 1348.88 Q70.205 1345.31 70.205 1338.21 Q70.205 1331.08 68.3763 1327.54 Q66.5707 1323.97 62.9365 1323.97 M62.9365 1320.27 Q68.7467 1320.27 71.8022 1324.87 Q74.8809 1329.46 74.8809 1338.21 Q74.8809 1346.93 71.8022 1351.54 Q68.7467 1356.12 62.9365 1356.12 Q57.1264 1356.12 54.0477 1351.54 Q50.9921 1346.93 50.9921 1338.21 Q50.9921 1329.46 54.0477 1324.87 Q57.1264 1320.27 62.9365 1320.27 Z" fill="#000000" fill-rule="evenodd" fill-opacity="1" /><path clip-path="url(#clip500)" d="M83.0984 1349.57 L87.9827 1349.57 L87.9827 1355.45 L83.0984 1355.45 L83.0984 1349.57 Z" fill="#000000" fill-rule="evenodd" fill-opacity="1" /><path clip-path="url(#clip500)" d="M108.168 1323.97 Q104.557 1323.97 102.728 1327.54 Q100.922 1331.08 100.922 1338.21 Q100.922 1345.31 102.728 1348.88 Q104.557 1352.42 108.168 1352.42 Q111.802 1352.42 113.608 1348.88 Q115.436 1345.31 115.436 1338.21 Q115.436 1331.08 113.608 1327.54 Q111.802 1323.97 108.168 1323.97 M108.168 1320.27 Q113.978 1320.27 117.033 1324.87 Q120.112 1329.46 120.112 1338.21 Q120.112 1346.93 117.033 1351.54 Q113.978 1356.12 108.168 1356.12 Q102.358 1356.12 99.2789 1351.54 Q96.2234 1346.93 96.2234 1338.21 Q96.2234 1329.46 99.2789 1324.87 Q102.358 1320.27 108.168 1320.27 Z" fill="#000000" fill-rule="evenodd" fill-opacity="1" /><path clip-path="url(#clip500)" d="M63.9319 1071.16 Q60.3208 1071.16 58.4921 1074.73 Q56.6865 1078.27 56.6865 1085.4 Q56.6865 1092.5 58.4921 1096.07 Q60.3208 1099.61 63.9319 1099.61 Q67.5661 1099.61 69.3717 1096.07 Q71.2004 1092.5 71.2004 1085.4 Q71.2004 1078.27 69.3717 1074.73 Q67.5661 1071.16 63.9319 1071.16 M63.9319 1067.46 Q69.742 1067.46 72.7976 1072.06 Q75.8763 1076.65 75.8763 1085.4 Q75.8763 1094.12 72.7976 1098.73 Q69.742 1103.31 63.9319 1103.31 Q58.1217 1103.31 55.043 1098.73 Q51.9875 1094.12 51.9875 1085.4 Q51.9875 1076.65 55.043 1072.06 Q58.1217 1067.46 63.9319 1067.46 Z" fill="#000000" fill-rule="evenodd" fill-opacity="1" /><path clip-path="url(#clip500)" d="M84.0938 1096.76 L88.978 1096.76 L88.978 1102.64 L84.0938 1102.64 L84.0938 1096.76 Z" fill="#000000" fill-rule="evenodd" fill-opacity="1" /><path clip-path="url(#clip500)" d="M99.2095 1068.08 L117.566 1068.08 L117.566 1072.02 L103.492 1072.02 L103.492 1080.49 Q104.51 1080.14 105.529 1079.98 Q106.547 1079.79 107.566 1079.79 Q113.353 1079.79 116.733 1082.97 Q120.112 1086.14 120.112 1091.55 Q120.112 1097.13 116.64 1100.23 Q113.168 1103.31 106.848 1103.31 Q104.672 1103.31 102.404 1102.94 Q100.159 1102.57 97.7511 1101.83 L97.7511 1097.13 Q99.8345 1098.27 102.057 1098.82 Q104.279 1099.38 106.756 1099.38 Q110.76 1099.38 113.098 1097.27 Q115.436 1095.16 115.436 1091.55 Q115.436 1087.94 113.098 1085.84 Q110.76 1083.73 106.756 1083.73 Q104.881 1083.73 103.006 1084.15 Q101.154 1084.56 99.2095 1085.44 L99.2095 1068.08 Z" fill="#000000" fill-rule="evenodd" fill-opacity="1" /><path clip-path="url(#clip500)" d="M53.7467 845.895 L61.3856 845.895 L61.3856 819.529 L53.0754 821.196 L53.0754 816.937 L61.3393 815.27 L66.0152 815.27 L66.0152 845.895 L73.654 845.895 L73.654 849.83 L53.7467 849.83 L53.7467 845.895 Z" fill="#000000" fill-rule="evenodd" fill-opacity="1" /><path clip-path="url(#clip500)" d="M83.0984 843.95 L87.9827 843.95 L87.9827 849.83 L83.0984 849.83 L83.0984 843.95 Z" fill="#000000" fill-rule="evenodd" fill-opacity="1" /><path clip-path="url(#clip500)" d="M108.168 818.349 Q104.557 818.349 102.728 821.913 Q100.922 825.455 100.922 832.585 Q100.922 839.691 102.728 843.256 Q104.557 846.797 108.168 846.797 Q111.802 846.797 113.608 843.256 Q115.436 839.691 115.436 832.585 Q115.436 825.455 113.608 821.913 Q111.802 818.349 108.168 818.349 M108.168 814.645 Q113.978 814.645 117.033 819.251 Q120.112 823.835 120.112 832.585 Q120.112 841.311 117.033 845.918 Q113.978 850.501 108.168 850.501 Q102.358 850.501 99.2789 845.918 Q96.2234 841.311 96.2234 832.585 Q96.2234 823.835 99.2789 819.251 Q102.358 814.645 108.168 814.645 Z" fill="#000000" fill-rule="evenodd" fill-opacity="1" /><path clip-path="url(#clip500)" d="M54.7421 593.083 L62.381 593.083 L62.381 566.717 L54.0708 568.384 L54.0708 564.125 L62.3347 562.458 L67.0106 562.458 L67.0106 593.083 L74.6494 593.083 L74.6494 597.018 L54.7421 597.018 L54.7421 593.083 Z" fill="#000000" fill-rule="evenodd" fill-opacity="1" /><path clip-path="url(#clip500)" d="M84.0938 591.139 L88.978 591.139 L88.978 597.018 L84.0938 597.018 L84.0938 591.139 Z" fill="#000000" fill-rule="evenodd" fill-opacity="1" /><path clip-path="url(#clip500)" d="M99.2095 562.458 L117.566 562.458 L117.566 566.393 L103.492 566.393 L103.492 574.866 Q104.51 574.518 105.529 574.356 Q106.547 574.171 107.566 574.171 Q113.353 574.171 116.733 577.342 Q120.112 580.514 120.112 585.93 Q120.112 591.509 116.64 594.611 Q113.168 597.689 106.848 597.689 Q104.672 597.689 102.404 597.319 Q100.159 596.949 97.7511 596.208 L97.7511 591.509 Q99.8345 592.643 102.057 593.199 Q104.279 593.754 106.756 593.754 Q110.76 593.754 113.098 591.648 Q115.436 589.541 115.436 585.93 Q115.436 582.319 113.098 580.213 Q110.76 578.106 106.756 578.106 Q104.881 578.106 103.006 578.523 Q101.154 578.94 99.2095 579.819 L99.2095 562.458 Z" fill="#000000" fill-rule="evenodd" fill-opacity="1" /><path clip-path="url(#clip500)" d="M56.9643 340.271 L73.2837 340.271 L73.2837 344.207 L51.3393 344.207 L51.3393 340.271 Q54.0014 337.517 58.5847 332.887 Q63.1911 328.234 64.3717 326.892 Q66.617 324.369 67.4967 322.633 Q68.3994 320.873 68.3994 319.184 Q68.3994 316.429 66.455 314.693 Q64.5337 312.957 61.4319 312.957 Q59.2328 312.957 56.7791 313.721 Q54.3486 314.484 51.5708 316.035 L51.5708 311.313 Q54.3949 310.179 56.8486 309.6 Q59.3023 309.022 61.3393 309.022 Q66.7096 309.022 69.9041 311.707 Q73.0985 314.392 73.0985 318.883 Q73.0985 321.012 72.2883 322.934 Q71.5013 324.832 69.3948 327.424 Q68.8161 328.096 65.7143 331.313 Q62.6124 334.508 56.9643 340.271 Z" fill="#000000" fill-rule="evenodd" fill-opacity="1" /><path clip-path="url(#clip500)" d="M83.0984 338.327 L87.9827 338.327 L87.9827 344.207 L83.0984 344.207 L83.0984 338.327 Z" fill="#000000" fill-rule="evenodd" fill-opacity="1" /><path clip-path="url(#clip500)" d="M108.168 312.725 Q104.557 312.725 102.728 316.29 Q100.922 319.832 100.922 326.961 Q100.922 334.068 102.728 337.632 Q104.557 341.174 108.168 341.174 Q111.802 341.174 113.608 337.632 Q115.436 334.068 115.436 326.961 Q115.436 319.832 113.608 316.29 Q111.802 312.725 108.168 312.725 M108.168 309.022 Q113.978 309.022 117.033 313.628 Q120.112 318.211 120.112 326.961 Q120.112 335.688 117.033 340.295 Q113.978 344.878 108.168 344.878 Q102.358 344.878 99.2789 340.295 Q96.2234 335.688 96.2234 326.961 Q96.2234 318.211 99.2789 313.628 Q102.358 309.022 108.168 309.022 Z" fill="#000000" fill-rule="evenodd" fill-opacity="1" /><path clip-path="url(#clip500)" d="M57.9597 87.4597 L74.279 87.4597 L74.279 91.3949 L52.3347 91.3949 L52.3347 87.4597 Q54.9967 84.7051 59.58 80.0755 Q64.1865 75.4227 65.367 74.0801 Q67.6124 71.557 68.492 69.8209 Q69.3948 68.0617 69.3948 66.3719 Q69.3948 63.6172 67.4504 61.8811 Q65.5291 60.145 62.4272 60.145 Q60.2282 60.145 57.7745 60.9089 Q55.344 61.6728 52.5662 63.2237 L52.5662 58.5015 Q55.3903 57.3673 57.8439 56.7886 Q60.2976 56.2099 62.3347 56.2099 Q67.705 56.2099 70.8994 58.895 Q74.0939 61.5802 74.0939 66.0709 Q74.0939 68.2005 73.2837 70.1218 Q72.4966 72.02 70.3902 74.6126 Q69.8115 75.2838 66.7096 78.5014 Q63.6078 81.6958 57.9597 87.4597 Z" fill="#000000" fill-rule="evenodd" fill-opacity="1" /><path clip-path="url(#clip500)" d="M84.0938 85.5153 L88.978 85.5153 L88.978 91.3949 L84.0938 91.3949 L84.0938 85.5153 Z" fill="#000000" fill-rule="evenodd" fill-opacity="1" /><path clip-path="url(#clip500)" d="M99.2095 56.8349 L117.566 56.8349 L117.566 60.77 L103.492 60.77 L103.492 69.2422 Q104.51 68.895 105.529 68.733 Q106.547 68.5478 107.566 68.5478 Q113.353 68.5478 116.733 71.719 Q120.112 74.8903 120.112 80.307 Q120.112 85.8856 116.64 88.9875 Q113.168 92.0662 106.848 92.0662 Q104.672 92.0662 102.404 91.6958 Q100.159 91.3254 97.7511 90.5847 L97.7511 85.8856 Q99.8345 87.0199 102.057 87.5754 Q104.279 88.131 106.756 88.131 Q110.76 88.131 113.098 86.0245 Q115.436 83.9181 115.436 80.307 Q115.436 76.6959 113.098 74.5894 Q110.76 72.4829 106.756 72.4829 Q104.881 72.4829 103.006 72.8996 Q101.154 73.3163 99.2095 74.1959 L99.2095 56.8349 Z" fill="#000000" fill-rule="evenodd" fill-opacity="1" /><circle clip-path="url(#clip503)" cx="218.281" cy="1150.94" r="14" fill="#009af9" fill-rule="evenodd" fill-opacity="1" stroke="#000000" stroke-opacity="1" stroke-width="3.2"/>
<circle clip-path="url(#clip503)" cx="736.358" cy="1010.67" r="14" fill="#009af9" fill-rule="evenodd" fill-opacity="1" stroke="#000000" stroke-opacity="1" stroke-width="3.2"/>
<circle clip-path="url(#clip503)" cx="1254.43" cy="141.526" r="14" fill="#009af9" fill-rule="evenodd" fill-opacity="1" stroke="#000000" stroke-opacity="1" stroke-width="3.2"/>
<circle clip-path="url(#clip503)" cx="1772.51" cy="420.787" r="14" fill="#009af9" fill-rule="evenodd" fill-opacity="1" stroke="#000000" stroke-opacity="1" stroke-width="3.2"/>
<circle clip-path="url(#clip503)" cx="2290.59" cy="1125.93" r="14" fill="#009af9" fill-rule="evenodd" fill-opacity="1" stroke="#000000" stroke-opacity="1" stroke-width="3.2"/>
<polyline clip-path="url(#clip503)" style="stroke:#e26f46; stroke-linecap:butt; stroke-linejoin:round; stroke-width:4; stroke-opacity:1; fill:none" points="
  218.281,1150.94 228.695,1180.09 239.108,1207.27 249.522,1232.53 259.936,1255.91 270.349,1277.45 280.763,1297.22 291.176,1315.23 301.59,1331.56 312.004,1346.22 
  322.417,1359.28 332.831,1370.77 343.244,1380.73 353.658,1389.21 364.072,1396.25 374.485,1401.88 384.899,1406.16 395.312,1409.12 405.726,1410.79 416.14,1411.23 
  426.553,1410.47 436.967,1408.54 447.38,1405.49 457.794,1401.36 468.208,1396.17 478.621,1389.97 489.035,1382.8 499.448,1374.69 509.862,1365.67 520.276,1355.79 
  530.689,1345.07 541.103,1333.55 551.516,1321.27 561.93,1308.25 572.344,1294.54 582.757,1280.16 593.171,1265.14 603.584,1249.53 613.998,1233.34 624.412,1216.61 
  634.825,1199.38 645.239,1181.67 655.652,1163.5 666.066,1144.92 676.479,1125.95 686.893,1106.61 697.307,1086.94 707.72,1066.97 718.134,1046.71 728.547,1026.2 
  738.961,1005.47 749.375,984.533 759.788,963.422 770.202,942.162 780.615,920.776 791.029,899.288 801.443,877.724 811.856,856.105 822.27,834.455 832.683,812.797 
  843.097,791.152 853.511,769.543 863.924,747.989 874.338,726.514 884.751,705.135 895.165,683.875 905.579,662.751 915.992,641.784 926.406,620.992 936.819,600.393 
  947.233,580.005 957.647,559.845 968.06,539.931 978.474,520.28 988.887,500.906 999.301,481.826 1009.71,463.056 1020.13,444.609 1030.54,426.501 1040.96,408.746 
  1051.37,391.357 1061.78,374.347 1072.2,357.73 1082.61,341.517 1093.02,325.72 1103.44,310.351 1113.85,295.421 1124.26,280.941 1134.68,266.92 1145.09,253.368 
  1155.5,240.296 1165.92,227.711 1176.33,215.623 1186.75,204.039 1197.16,192.967 1207.57,182.414 1217.99,172.388 1228.4,162.894 1238.81,153.938 1249.23,145.526 
  1259.64,137.664 1270.05,130.355 1280.47,123.604 1290.88,117.415 1301.3,111.792 1311.71,106.737 1322.12,102.252 1332.54,98.3408 1342.95,95.0041 1353.36,92.2434 
  1363.78,90.0596 1374.19,88.4532 1384.6,87.4241 1395.02,86.9719 1405.43,87.0959 1415.84,87.7947 1426.26,89.0667 1436.67,90.9098 1447.09,93.3214 1457.5,96.2987 
  1467.91,99.8382 1478.33,103.936 1488.74,108.588 1499.15,113.79 1509.57,119.536 1519.98,125.821 1530.39,132.64 1540.81,139.985 1551.22,147.85 1561.64,156.228 
  1572.05,165.11 1582.46,174.491 1592.88,184.359 1603.29,194.708 1613.7,205.526 1624.12,216.806 1634.53,228.536 1644.94,240.706 1655.36,253.305 1665.77,266.321 
  1676.18,279.743 1686.6,293.559 1697.01,307.755 1707.43,322.318 1717.84,337.236 1728.25,352.493 1738.67,368.076 1749.08,383.97 1759.49,400.159 1769.91,416.628 
  1780.32,433.36 1790.73,450.34 1801.15,467.55 1811.56,484.972 1821.97,502.59 1832.39,520.384 1842.8,538.337 1853.22,556.428 1863.63,574.639 1874.04,592.95 
  1884.46,611.34 1894.87,629.788 1905.28,648.274 1915.7,666.775 1926.11,685.27 1936.52,703.736 1946.94,722.151 1957.35,740.49 1967.77,758.73 1978.18,776.848 
  1988.59,794.818 1999.01,812.615 2009.42,830.214 2019.83,847.589 2030.25,864.714 2040.66,881.562 2051.07,898.107 2061.49,914.319 2071.9,930.172 2082.31,945.637 
  2092.73,960.685 2103.14,975.286 2113.56,989.412 2123.97,1003.03 2134.38,1016.12 2144.8,1028.63 2155.21,1040.55 2165.62,1051.84 2176.04,1062.46 2186.45,1072.39 
  2196.86,1081.59 2207.28,1090.03 2217.69,1097.67 2228.11,1104.48 2238.52,1110.43 2248.93,1115.47 2259.35,1119.58 2269.76,1122.72 2280.17,1124.85 2290.59,1125.93 
  
  "/>
<path clip-path="url(#clip500)" d="
M229.334 249.555 L793.82 249.555 L793.82 94.0346 L229.334 94.0346  Z
  " fill="#ffffff" fill-rule="evenodd" fill-opacity="1"/>
<polyline clip-path="url(#clip500)" style="stroke:#000000; stroke-linecap:butt; stroke-linejoin:round; stroke-width:4; stroke-opacity:1; fill:none" points="
  229.334,249.555 793.82,249.555 793.82,94.0346 229.334,94.0346 229.334,249.555 
  "/>
<circle clip-path="url(#clip500)" cx="326.962" cy="145.875" r="23" fill="#009af9" fill-rule="evenodd" fill-opacity="1" stroke="#000000" stroke-opacity="1" stroke-width="5.12"/>
<path clip-path="url(#clip500)" d="M432.369 159.752 L444.73 159.752 L444.73 140.632 L435.771 140.632 L435.771 143.872 Q435.771 153.409 433.04 158.502 L432.369 159.752 M426.188 159.752 Q428.294 158.826 429.22 156.858 Q431.489 151.974 431.489 142.136 L431.489 137.229 L449.012 137.229 L449.012 159.752 L452.415 159.752 L452.415 169.706 L449.012 169.706 L449.012 163.155 L427.994 163.155 L427.994 169.706 L424.591 169.706 L424.591 159.752 L426.188 159.752 Z" fill="#000000" fill-rule="evenodd" fill-opacity="1" /><path clip-path="url(#clip500)" d="M471.141 150.122 Q465.979 150.122 463.989 151.303 Q461.998 152.483 461.998 155.331 Q461.998 157.599 463.479 158.942 Q464.984 160.261 467.554 160.261 Q471.095 160.261 473.225 157.761 Q475.378 155.238 475.378 151.071 L475.378 150.122 L471.141 150.122 M479.637 148.363 L479.637 163.155 L475.378 163.155 L475.378 159.219 Q473.919 161.581 471.743 162.715 Q469.567 163.826 466.419 163.826 Q462.438 163.826 460.077 161.604 Q457.739 159.358 457.739 155.608 Q457.739 151.233 460.655 149.011 Q463.595 146.789 469.405 146.789 L475.378 146.789 L475.378 146.372 Q475.378 143.433 473.433 141.835 Q471.512 140.215 468.017 140.215 Q465.794 140.215 463.688 140.747 Q461.581 141.28 459.637 142.345 L459.637 138.409 Q461.975 137.507 464.174 137.067 Q466.373 136.604 468.456 136.604 Q474.081 136.604 476.859 139.521 Q479.637 142.437 479.637 148.363 Z" fill="#000000" fill-rule="evenodd" fill-opacity="1" /><path clip-path="url(#clip500)" d="M488.248 137.229 L492.53 137.229 L492.53 147.807 L506.35 147.807 L506.35 137.229 L510.632 137.229 L510.632 163.155 L506.35 163.155 L506.35 151.21 L492.53 151.21 L492.53 163.155 L488.248 163.155 L488.248 137.229 Z" fill="#000000" fill-rule="evenodd" fill-opacity="1" /><path clip-path="url(#clip500)" d="M519.243 137.229 L523.525 137.229 L523.525 147.807 L537.345 147.807 L537.345 137.229 L541.627 137.229 L541.627 163.155 L537.345 163.155 L537.345 151.21 L523.525 151.21 L523.525 163.155 L519.243 163.155 L519.243 137.229 Z" fill="#000000" fill-rule="evenodd" fill-opacity="1" /><path clip-path="url(#clip500)" d="M574.891 137.229 L579.15 137.229 L579.15 163.155 L574.891 163.155 L574.891 137.229 M577.021 136.604 L577.021 136.604 M566.534 155.469 Q566.534 153.386 565.007 152.298 Q563.502 151.21 560.585 151.21 L554.521 151.21 L554.521 159.752 L560.585 159.752 Q563.502 159.752 565.007 158.664 Q566.534 157.553 566.534 155.469 M550.238 137.229 L554.521 137.229 L554.521 147.807 L560.771 147.807 Q565.724 147.807 568.386 149.706 Q571.072 151.581 571.072 155.469 Q571.072 159.358 568.386 161.256 Q565.724 163.155 560.771 163.155 L550.238 163.155 L550.238 137.229 Z" fill="#000000" fill-rule="evenodd" fill-opacity="1" /><path clip-path="url(#clip500)" d="M610.006 149.127 L610.006 151.21 L590.423 151.21 Q590.701 155.608 593.062 157.923 Q595.446 160.215 599.682 160.215 Q602.136 160.215 604.428 159.613 Q606.743 159.011 609.011 157.807 L609.011 161.835 Q606.719 162.807 604.312 163.317 Q601.905 163.826 599.428 163.826 Q593.224 163.826 589.59 160.215 Q585.979 156.604 585.979 150.446 Q585.979 144.081 589.405 140.354 Q592.854 136.604 598.687 136.604 Q603.919 136.604 606.951 139.983 Q610.006 143.34 610.006 149.127 M605.747 147.877 Q605.701 144.382 603.78 142.298 Q601.882 140.215 598.733 140.215 Q595.169 140.215 593.016 142.229 Q590.886 144.243 590.562 147.9 L605.747 147.877 Z" fill="#000000" fill-rule="evenodd" fill-opacity="1" /><polyline clip-path="url(#clip500)" style="stroke:#e26f46; stroke-linecap:butt; stroke-linejoin:round; stroke-width:4; stroke-opacity:1; fill:none" points="
  253.741,197.715 400.184,197.715 
  "/>
<path clip-path="url(#clip500)" d="M446.79 189.069 L446.79 214.995 L442.554 214.995 L442.554 194.185 L430.054 214.995 L424.591 214.995 L424.591 189.069 L428.827 189.069 L428.827 209.833 L441.304 189.069 L446.79 189.069 Z" fill="#000000" fill-rule="evenodd" fill-opacity="1" /><path clip-path="url(#clip500)" d="M455.401 189.069 L459.683 189.069 L459.683 199.647 L473.503 199.647 L473.503 189.069 L477.785 189.069 L477.785 214.995 L473.503 214.995 L473.503 203.05 L459.683 203.05 L459.683 214.995 L455.401 214.995 L455.401 189.069 Z" fill="#000000" fill-rule="evenodd" fill-opacity="1" /><path clip-path="url(#clip500)" d="M483.479 189.069 L508.317 189.069 L508.317 192.472 L497.993 192.472 L497.993 214.995 L493.803 214.995 L493.803 192.472 L483.479 192.472 L483.479 189.069 Z" fill="#000000" fill-rule="evenodd" fill-opacity="1" /><path clip-path="url(#clip500)" d="M536.349 200.967 L536.349 203.05 L516.766 203.05 Q517.044 207.448 519.405 209.763 Q521.789 212.055 526.025 212.055 Q528.479 212.055 530.771 211.453 Q533.086 210.851 535.354 209.647 L535.354 213.675 Q533.062 214.647 530.655 215.157 Q528.248 215.666 525.771 215.666 Q519.567 215.666 515.933 212.055 Q512.322 208.444 512.322 202.286 Q512.322 195.921 515.748 192.194 Q519.197 188.444 525.03 188.444 Q530.262 188.444 533.294 191.823 Q536.349 195.18 536.349 200.967 M532.09 199.717 Q532.044 196.222 530.123 194.138 Q528.225 192.055 525.076 192.055 Q521.512 192.055 519.359 194.069 Q517.229 196.083 516.905 199.74 L532.09 199.717 Z" fill="#000000" fill-rule="evenodd" fill-opacity="1" /><path clip-path="url(#clip500)" d="M547.461 211.106 L547.461 224.856 L543.178 224.856 L543.178 189.069 L547.461 189.069 L547.461 193.004 Q548.803 190.689 550.84 189.578 Q552.9 188.444 555.748 188.444 Q560.47 188.444 563.41 192.194 Q566.372 195.944 566.372 202.055 Q566.372 208.166 563.41 211.916 Q560.47 215.666 555.748 215.666 Q552.9 215.666 550.84 214.555 Q548.803 213.421 547.461 211.106 M561.951 202.055 Q561.951 197.356 560.007 194.694 Q558.085 192.009 554.706 192.009 Q551.326 192.009 549.382 194.694 Q547.461 197.356 547.461 202.055 Q547.461 206.754 549.382 209.439 Q551.326 212.101 554.706 212.101 Q558.085 212.101 560.007 209.439 Q561.951 206.754 561.951 202.055 Z" fill="#000000" fill-rule="evenodd" fill-opacity="1" /><path clip-path="url(#clip500)" d="M595.655 189.069 L595.655 214.995 L591.372 214.995 L591.372 192.472 L577.553 192.472 L577.553 214.995 L573.271 214.995 L573.271 189.069 L595.655 189.069 Z" fill="#000000" fill-rule="evenodd" fill-opacity="1" /><path clip-path="url(#clip500)" d="M614.474 192.055 Q611.048 192.055 609.057 194.74 Q607.067 197.402 607.067 202.055 Q607.067 206.708 609.034 209.393 Q611.025 212.055 614.474 212.055 Q617.877 212.055 619.868 209.37 Q621.858 206.684 621.858 202.055 Q621.858 197.448 619.868 194.763 Q617.877 192.055 614.474 192.055 M614.474 188.444 Q620.03 188.444 623.201 192.055 Q626.372 195.666 626.372 202.055 Q626.372 208.421 623.201 212.055 Q620.03 215.666 614.474 215.666 Q608.895 215.666 605.724 212.055 Q602.576 208.421 602.576 202.055 Q602.576 195.666 605.724 192.055 Q608.895 188.444 614.474 188.444 Z" fill="#000000" fill-rule="evenodd" fill-opacity="1" /><path clip-path="url(#clip500)" d="M630.724 214.995 L630.724 211.453 Q634.937 210.805 636.233 207.888 Q637.807 203.791 637.807 193.305 L637.807 189.069 L655.33 189.069 L655.33 214.995 L651.071 214.995 L651.071 192.472 L642.066 192.472 L642.066 195.041 Q642.066 205.041 640.029 209.532 Q637.854 214.323 630.724 214.995 Z" fill="#000000" fill-rule="evenodd" fill-opacity="1" /><path clip-path="url(#clip500)" d="M668.015 196.546 Q668.015 198.467 669.497 199.555 Q670.978 200.643 673.733 200.643 L679.474 200.643 L679.474 192.472 L673.733 192.472 Q670.978 192.472 669.497 193.536 Q668.015 194.601 668.015 196.546 M661.951 214.995 L669.867 203.629 Q667.182 203.027 665.4 201.453 Q663.617 199.856 663.617 196.546 Q663.617 192.796 666.094 190.944 Q668.594 189.069 673.617 189.069 L683.756 189.069 L683.756 214.995 L679.474 214.995 L679.474 204.046 L674.173 204.046 L666.534 214.995 L661.951 214.995 Z" fill="#000000" fill-rule="evenodd" fill-opacity="1" /><path clip-path="url(#clip500)" d="M692.089 189.069 L696.372 189.069 L696.372 199.647 L710.191 199.647 L710.191 189.069 L714.474 189.069 L714.474 214.995 L710.191 214.995 L710.191 203.05 L696.372 203.05 L696.372 214.995 L692.089 214.995 L692.089 189.069 Z" fill="#000000" fill-rule="evenodd" fill-opacity="1" /><path clip-path="url(#clip500)" d="M720.168 189.069 L745.006 189.069 L745.006 192.472 L734.682 192.472 L734.682 214.995 L730.492 214.995 L730.492 192.472 L720.168 192.472 L720.168 189.069 Z" fill="#000000" fill-rule="evenodd" fill-opacity="1" /></svg>
