<?xml version="1.0" encoding="utf-8"?>
<svg xmlns="http://www.w3.org/2000/svg" xmlns:xlink="http://www.w3.org/1999/xlink" width="600" height="400" viewBox="0 0 2400 1600">
<defs>
  <clipPath id="clip130">
    <rect x="0" y="0" width="2400" height="1600"/>
  </clipPath>
</defs>
<path clip-path="url(#clip130)" d="
M0 1600 L2400 1600 L2400 0 L0 0  Z
  " fill="#ffffff" fill-rule="evenodd" fill-opacity="1"/>
<defs>
  <clipPath id="clip131">
    <rect x="480" y="0" width="1681" height="1600"/>
  </clipPath>
</defs>
<path clip-path="url(#clip130)" d="
M156.112 1450.96 L2352.76 1450.96 L2352.76 47.2441 L156.112 47.2441  Z
  " fill="#ffffff" fill-rule="evenodd" fill-opacity="1"/>
<defs>
  <clipPath id="clip132">
    <rect x="156" y="47" width="2198" height="1405"/>
  </clipPath>
</defs>
<polyline clip-path="url(#clip132)" style="stroke:#000000; stroke-linecap:butt; stroke-linejoin:round; stroke-width:2; stroke-opacity:0.1; fill:none" points="
  218.281,1450.96 218.281,47.2441 
  "/>
<polyline clip-path="url(#clip132)" style="stroke:#000000; stroke-linecap:butt; stroke-linejoin:round; stroke-width:2; stroke-opacity:0.1; fill:none" points="
  678.794,1450.96 678.794,47.2441 
  "/>
<polyline clip-path="url(#clip132)" style="stroke:#000000; stroke-linecap:butt; stroke-linejoin:round; stroke-width:2; stroke-opacity:0.1; fill:none" points="
  1139.31,1450.96 1139.31,47.2441 
  "/>
<polyline clip-path="url(#clip132)" style="stroke:#000000; stroke-linecap:butt; stroke-linejoin:round; stroke-width:2; stroke-opacity:0.1; fill:none" points="
  1599.82,1450.96 1599.82,47.2441 
  "/>
<polyline clip-path="url(#clip132)" style="stroke:#000000; stroke-linecap:butt; stroke-linejoin:round; stroke-width:2; stroke-opacity:0.1; fill:none" points="
  2060.33,1450.96 2060.33,47.2441 
  "/>
<polyline clip-path="url(#clip130)" style="stroke:#000000; stroke-linecap:butt; stroke-linejoin:round; stroke-width:4; stroke-opacity:1; fill:none" points="
  156.112,1450.96 2352.76,1450.96 
  "/>
<polyline clip-path="url(#clip130)" style="stroke:#000000; stroke-linecap:butt; stroke-linejoin:round; stroke-width:4; stroke-opacity:1; fill:none" points="
  218.281,1450.96 218.281,1432.06 
  "/>
<polyline clip-path="url(#clip130)" style="stroke:#000000; stroke-linecap:butt; stroke-linejoin:round; stroke-width:4; stroke-opacity:1; fill:none" points="
  678.794,1450.96 678.794,1432.06 
  "/>
<polyline clip-path="url(#clip130)" style="stroke:#000000; stroke-linecap:butt; stroke-linejoin:round; stroke-width:4; stroke-opacity:1; fill:none" points="
  1139.31,1450.96 1139.31,1432.06 
  "/>
<polyline clip-path="url(#clip130)" style="stroke:#000000; stroke-linecap:butt; stroke-linejoin:round; stroke-width:4; stroke-opacity:1; fill:none" points="
  1599.82,1450.96 1599.82,1432.06 
  "/>
<polyline clip-path="url(#clip130)" style="stroke:#000000; stroke-linecap:butt; stroke-linejoin:round; stroke-width:4; stroke-opacity:1; fill:none" points="
  2060.33,1450.96 2060.33,1432.06 
  "/>
<path clip-path="url(#clip130)" d="M208.663 1507.7 L216.302 1507.7 L216.302 1481.33 L207.992 1483 L207.992 1478.74 L216.256 1477.07 L220.932 1477.07 L220.932 1507.7 L228.571 1507.7 L228.571 1511.63 L208.663 1511.63 L208.663 1507.7 Z" fill="#000000" fill-rule="evenodd" fill-opacity="1" /><path clip-path="url(#clip130)" d="M673.446 1507.7 L689.766 1507.7 L689.766 1511.63 L667.821 1511.63 L667.821 1507.7 Q670.483 1504.94 675.067 1500.31 Q679.673 1495.66 680.854 1494.32 Q683.099 1491.79 683.979 1490.06 Q684.882 1488.3 684.882 1486.61 Q684.882 1483.85 682.937 1482.12 Q681.016 1480.38 677.914 1480.38 Q675.715 1480.38 673.261 1481.15 Q670.831 1481.91 668.053 1483.46 L668.053 1478.74 Q670.877 1477.6 673.331 1477.03 Q675.784 1476.45 677.821 1476.45 Q683.192 1476.45 686.386 1479.13 Q689.581 1481.82 689.581 1486.31 Q689.581 1488.44 688.77 1490.36 Q687.983 1492.26 685.877 1494.85 Q685.298 1495.52 682.196 1498.74 Q679.095 1501.93 673.446 1507.7 Z" fill="#000000" fill-rule="evenodd" fill-opacity="1" /><path clip-path="url(#clip130)" d="M1143.55 1493 Q1146.91 1493.72 1148.79 1495.98 Q1150.68 1498.25 1150.68 1501.59 Q1150.68 1506.7 1147.16 1509.5 Q1143.65 1512.3 1137.16 1512.3 Q1134.99 1512.3 1132.67 1511.86 Q1130.38 1511.45 1127.93 1510.59 L1127.93 1506.08 Q1129.87 1507.21 1132.19 1507.79 Q1134.5 1508.37 1137.03 1508.37 Q1141.42 1508.37 1143.72 1506.63 Q1146.03 1504.9 1146.03 1501.59 Q1146.03 1498.53 1143.88 1496.82 Q1141.75 1495.08 1137.93 1495.08 L1133.9 1495.08 L1133.9 1491.24 L1138.11 1491.24 Q1141.56 1491.24 1143.39 1489.87 Q1145.22 1488.48 1145.22 1485.89 Q1145.22 1483.23 1143.32 1481.82 Q1141.45 1480.38 1137.93 1480.38 Q1136.01 1480.38 1133.81 1480.8 Q1131.61 1481.22 1128.97 1482.1 L1128.97 1477.93 Q1131.63 1477.19 1133.95 1476.82 Q1136.29 1476.45 1138.35 1476.45 Q1143.67 1476.45 1146.77 1478.88 Q1149.87 1481.29 1149.87 1485.41 Q1149.87 1488.28 1148.23 1490.27 Q1146.59 1492.23 1143.55 1493 Z" fill="#000000" fill-rule="evenodd" fill-opacity="1" /><path clip-path="url(#clip130)" d="M1602.83 1481.15 L1591.02 1499.6 L1602.83 1499.6 L1602.83 1481.15 M1601.6 1477.07 L1607.48 1477.07 L1607.48 1499.6 L1612.41 1499.6 L1612.41 1503.48 L1607.48 1503.48 L1607.48 1511.63 L1602.83 1511.63 L1602.83 1503.48 L1587.23 1503.48 L1587.23 1498.97 L1601.6 1477.07 Z" fill="#000000" fill-rule="evenodd" fill-opacity="1" /><path clip-path="url(#clip130)" d="M2050.61 1477.07 L2068.96 1477.07 L2068.96 1481.01 L2054.89 1481.01 L2054.89 1489.48 Q2055.91 1489.13 2056.93 1488.97 Q2057.95 1488.79 2058.96 1488.79 Q2064.75 1488.79 2068.13 1491.96 Q2071.51 1495.13 2071.51 1500.54 Q2071.51 1506.12 2068.04 1509.22 Q2064.57 1512.3 2058.25 1512.3 Q2056.07 1512.3 2053.8 1511.93 Q2051.56 1511.56 2049.15 1510.82 L2049.15 1506.12 Q2051.23 1507.26 2053.46 1507.81 Q2055.68 1508.37 2058.15 1508.37 Q2062.16 1508.37 2064.5 1506.26 Q2066.84 1504.16 2066.84 1500.54 Q2066.84 1496.93 2064.5 1494.83 Q2062.16 1492.72 2058.15 1492.72 Q2056.28 1492.72 2054.4 1493.14 Q2052.55 1493.55 2050.61 1494.43 L2050.61 1477.07 Z" fill="#000000" fill-rule="evenodd" fill-opacity="1" /><path clip-path="url(#clip130)" d="M1268.61 1539.92 Q1268.61 1541.72 1267.48 1542.75 Q1266.35 1543.75 1265.06 1543.75 Q1263.84 1543.75 1263.2 1543.04 Q1262.55 1542.33 1262.55 1541.43 Q1262.55 1540.21 1263.45 1539.14 Q1264.36 1538.08 1265.71 1537.85 Q1264.39 1537.02 1262.42 1537.02 Q1261.14 1537.02 1260.01 1537.69 Q1258.91 1538.37 1258.24 1539.24 Q1257.59 1540.11 1257.01 1541.37 Q1256.47 1542.59 1256.24 1543.33 Q1256.05 1544.04 1255.89 1544.81 L1253.63 1553.83 Q1252.54 1558.11 1252.54 1559.63 Q1252.54 1561.49 1253.44 1562.75 Q1254.34 1563.97 1256.14 1563.97 Q1256.85 1563.97 1257.66 1563.78 Q1258.46 1563.55 1259.49 1562.98 Q1260.56 1562.36 1261.49 1561.46 Q1262.46 1560.53 1263.39 1558.95 Q1264.32 1557.37 1264.94 1555.34 Q1265.13 1554.63 1265.77 1554.63 Q1266.58 1554.63 1266.58 1555.28 Q1266.58 1555.83 1266.13 1556.98 Q1265.71 1558.11 1264.77 1559.59 Q1263.87 1561.04 1262.68 1562.36 Q1261.49 1563.65 1259.72 1564.55 Q1257.95 1565.46 1256.01 1565.46 Q1253.25 1565.46 1251.41 1563.97 Q1249.57 1562.49 1248.9 1560.43 Q1248.74 1560.72 1248.51 1561.11 Q1248.29 1561.49 1247.61 1562.36 Q1246.97 1563.2 1246.22 1563.84 Q1245.48 1564.46 1244.32 1564.94 Q1243.2 1565.46 1241.97 1565.46 Q1240.43 1565.46 1239.04 1565 Q1237.69 1564.55 1236.72 1563.52 Q1235.76 1562.49 1235.76 1561.08 Q1235.76 1559.5 1236.82 1558.4 Q1237.92 1557.27 1239.4 1557.27 Q1240.33 1557.27 1241.07 1557.82 Q1241.84 1558.37 1241.84 1559.56 Q1241.84 1560.88 1240.94 1561.88 Q1240.04 1562.88 1238.75 1563.14 Q1240.07 1563.97 1242.04 1563.97 Q1244.16 1563.97 1245.84 1562.11 Q1247.51 1560.24 1248.32 1557.11 Q1250.31 1549.61 1251.09 1546.26 Q1251.86 1542.88 1251.86 1541.43 Q1251.86 1540.08 1251.51 1539.14 Q1251.15 1538.21 1250.54 1537.79 Q1249.96 1537.34 1249.41 1537.18 Q1248.9 1537.02 1248.32 1537.02 Q1247.35 1537.02 1246.26 1537.4 Q1245.19 1537.79 1243.91 1538.69 Q1242.65 1539.56 1241.46 1541.37 Q1240.27 1543.17 1239.46 1545.65 Q1239.3 1546.39 1238.59 1546.39 Q1237.82 1546.36 1237.82 1545.71 Q1237.82 1545.17 1238.24 1544.04 Q1238.69 1542.88 1239.59 1541.43 Q1240.52 1539.98 1241.72 1538.69 Q1242.94 1537.37 1244.71 1536.47 Q1246.51 1535.57 1248.45 1535.57 Q1249.32 1535.57 1250.15 1535.76 Q1251.02 1535.92 1252.05 1536.41 Q1253.12 1536.89 1254.05 1537.95 Q1254.98 1539.01 1255.56 1540.56 Q1255.95 1539.82 1256.47 1539.11 Q1257.01 1538.4 1257.85 1537.53 Q1258.72 1536.63 1259.91 1536.12 Q1261.14 1535.57 1262.49 1535.57 Q1263.81 1535.57 1265.1 1535.92 Q1266.39 1536.24 1267.48 1537.31 Q1268.61 1538.34 1268.61 1539.92 Z" fill="#000000" fill-rule="evenodd" fill-opacity="1" /><polyline clip-path="url(#clip132)" style="stroke:#000000; stroke-linecap:butt; stroke-linejoin:round; stroke-width:2; stroke-opacity:0.1; fill:none" points="
  156.112,1262.68 2352.76,1262.68 
  "/>
<polyline clip-path="url(#clip132)" style="stroke:#000000; stroke-linecap:butt; stroke-linejoin:round; stroke-width:2; stroke-opacity:0.1; fill:none" points="
  156.112,1046.38 2352.76,1046.38 
  "/>
<polyline clip-path="url(#clip132)" style="stroke:#000000; stroke-linecap:butt; stroke-linejoin:round; stroke-width:2; stroke-opacity:0.1; fill:none" points="
  156.112,830.079 2352.76,830.079 
  "/>
<polyline clip-path="url(#clip132)" style="stroke:#000000; stroke-linecap:butt; stroke-linejoin:round; stroke-width:2; stroke-opacity:0.1; fill:none" points="
  156.112,613.776 2352.76,613.776 
  "/>
<polyline clip-path="url(#clip132)" style="stroke:#000000; stroke-linecap:butt; stroke-linejoin:round; stroke-width:2; stroke-opacity:0.1; fill:none" points="
  156.112,397.473 2352.76,397.473 
  "/>
<polyline clip-path="url(#clip132)" style="stroke:#000000; stroke-linecap:butt; stroke-linejoin:round; stroke-width:2; stroke-opacity:0.1; fill:none" points="
  156.112,181.171 2352.76,181.171 
  "/>
<polyline clip-path="url(#clip130)" style="stroke:#000000; stroke-linecap:butt; stroke-linejoin:round; stroke-width:4; stroke-opacity:1; fill:none" points="
  156.112,1450.96 156.112,47.2441 
  "/>
<polyline clip-path="url(#clip130)" style="stroke:#000000; stroke-linecap:butt; stroke-linejoin:round; stroke-width:4; stroke-opacity:1; fill:none" points="
  156.112,1262.68 175.01,1262.68 
  "/>
<polyline clip-path="url(#clip130)" style="stroke:#000000; stroke-linecap:butt; stroke-linejoin:round; stroke-width:4; stroke-opacity:1; fill:none" points="
  156.112,1046.38 175.01,1046.38 
  "/>
<polyline clip-path="url(#clip130)" style="stroke:#000000; stroke-linecap:butt; stroke-linejoin:round; stroke-width:4; stroke-opacity:1; fill:none" points="
  156.112,830.079 175.01,830.079 
  "/>
<polyline clip-path="url(#clip130)" style="stroke:#000000; stroke-linecap:butt; stroke-linejoin:round; stroke-width:4; stroke-opacity:1; fill:none" points="
  156.112,613.776 175.01,613.776 
  "/>
<polyline clip-path="url(#clip130)" style="stroke:#000000; stroke-linecap:butt; stroke-linejoin:round; stroke-width:4; stroke-opacity:1; fill:none" points="
  156.112,397.473 175.01,397.473 
  "/>
<polyline clip-path="url(#clip130)" style="stroke:#000000; stroke-linecap:butt; stroke-linejoin:round; stroke-width:4; stroke-opacity:1; fill:none" points="
  156.112,181.171 175.01,181.171 
  "/>
<path clip-path="url(#clip130)" d="M62.9365 1248.48 Q59.3254 1248.48 57.4967 1252.05 Q55.6912 1255.59 55.6912 1262.72 Q55.6912 1269.82 57.4967 1273.39 Q59.3254 1276.93 62.9365 1276.93 Q66.5707 1276.93 68.3763 1273.39 Q70.205 1269.82 70.205 1262.72 Q70.205 1255.59 68.3763 1252.05 Q66.5707 1248.48 62.9365 1248.48 M62.9365 1244.78 Q68.7467 1244.78 71.8022 1249.38 Q74.8809 1253.97 74.8809 1262.72 Q74.8809 1271.45 71.8022 1276.05 Q68.7467 1280.63 62.9365 1280.63 Q57.1264 1280.63 54.0477 1276.05 Q50.9921 1271.45 50.9921 1262.72 Q50.9921 1253.97 54.0477 1249.38 Q57.1264 1244.78 62.9365 1244.78 Z" fill="#000000" fill-rule="evenodd" fill-opacity="1" /><path clip-path="url(#clip130)" d="M83.0984 1274.08 L87.9827 1274.08 L87.9827 1279.96 L83.0984 1279.96 L83.0984 1274.08 Z" fill="#000000" fill-rule="evenodd" fill-opacity="1" /><path clip-path="url(#clip130)" d="M108.168 1248.48 Q104.557 1248.48 102.728 1252.05 Q100.922 1255.59 100.922 1262.72 Q100.922 1269.82 102.728 1273.39 Q104.557 1276.93 108.168 1276.93 Q111.802 1276.93 113.608 1273.39 Q115.436 1269.82 115.436 1262.72 Q115.436 1255.59 113.608 1252.05 Q111.802 1248.48 108.168 1248.48 M108.168 1244.78 Q113.978 1244.78 117.033 1249.38 Q120.112 1253.97 120.112 1262.72 Q120.112 1271.45 117.033 1276.05 Q113.978 1280.63 108.168 1280.63 Q102.358 1280.63 99.2789 1276.05 Q96.2234 1271.45 96.2234 1262.72 Q96.2234 1253.97 99.2789 1249.38 Q102.358 1244.78 108.168 1244.78 Z" fill="#000000" fill-rule="evenodd" fill-opacity="1" /><path clip-path="url(#clip130)" d="M63.9319 1032.18 Q60.3208 1032.18 58.4921 1035.74 Q56.6865 1039.29 56.6865 1046.42 Q56.6865 1053.52 58.4921 1057.09 Q60.3208 1060.63 63.9319 1060.63 Q67.5661 1060.63 69.3717 1057.09 Q71.2004 1053.52 71.2004 1046.42 Q71.2004 1039.29 69.3717 1035.74 Q67.5661 1032.18 63.9319 1032.18 M63.9319 1028.48 Q69.742 1028.48 72.7976 1033.08 Q75.8763 1037.67 75.8763 1046.42 Q75.8763 1055.14 72.7976 1059.75 Q69.742 1064.33 63.9319 1064.33 Q58.1217 1064.33 55.043 1059.75 Q51.9875 1055.14 51.9875 1046.42 Q51.9875 1037.67 55.043 1033.08 Q58.1217 1028.48 63.9319 1028.48 Z" fill="#000000" fill-rule="evenodd" fill-opacity="1" /><path clip-path="url(#clip130)" d="M84.0938 1057.78 L88.978 1057.78 L88.978 1063.66 L84.0938 1063.66 L84.0938 1057.78 Z" fill="#000000" fill-rule="evenodd" fill-opacity="1" /><path clip-path="url(#clip130)" d="M99.2095 1029.1 L117.566 1029.1 L117.566 1033.04 L103.492 1033.04 L103.492 1041.51 Q104.51 1041.16 105.529 1041 Q106.547 1040.81 107.566 1040.81 Q113.353 1040.81 116.733 1043.99 Q120.112 1047.16 120.112 1052.57 Q120.112 1058.15 116.64 1061.25 Q113.168 1064.33 106.848 1064.33 Q104.672 1064.33 102.404 1063.96 Q100.159 1063.59 97.7511 1062.85 L97.7511 1058.15 Q99.8345 1059.29 102.057 1059.84 Q104.279 1060.4 106.756 1060.4 Q110.76 1060.4 113.098 1058.29 Q115.436 1056.18 115.436 1052.57 Q115.436 1048.96 113.098 1046.86 Q110.76 1044.75 106.756 1044.75 Q104.881 1044.75 103.006 1045.17 Q101.154 1045.58 99.2095 1046.46 L99.2095 1029.1 Z" fill="#000000" fill-rule="evenodd" fill-opacity="1" /><path clip-path="url(#clip130)" d="M53.7467 843.423 L61.3856 843.423 L61.3856 817.058 L53.0754 818.724 L53.0754 814.465 L61.3393 812.799 L66.0152 812.799 L66.0152 843.423 L73.654 843.423 L73.654 847.359 L53.7467 847.359 L53.7467 843.423 Z" fill="#000000" fill-rule="evenodd" fill-opacity="1" /><path clip-path="url(#clip130)" d="M83.0984 841.479 L87.9827 841.479 L87.9827 847.359 L83.0984 847.359 L83.0984 841.479 Z" fill="#000000" fill-rule="evenodd" fill-opacity="1" /><path clip-path="url(#clip130)" d="M108.168 815.877 Q104.557 815.877 102.728 819.442 Q100.922 822.984 100.922 830.113 Q100.922 837.22 102.728 840.784 Q104.557 844.326 108.168 844.326 Q111.802 844.326 113.608 840.784 Q115.436 837.22 115.436 830.113 Q115.436 822.984 113.608 819.442 Q111.802 815.877 108.168 815.877 M108.168 812.174 Q113.978 812.174 117.033 816.78 Q120.112 821.363 120.112 830.113 Q120.112 838.84 117.033 843.446 Q113.978 848.03 108.168 848.03 Q102.358 848.03 99.2789 843.446 Q96.2234 838.84 96.2234 830.113 Q96.2234 821.363 99.2789 816.78 Q102.358 812.174 108.168 812.174 Z" fill="#000000" fill-rule="evenodd" fill-opacity="1" /><path clip-path="url(#clip130)" d="M54.7421 627.121 L62.381 627.121 L62.381 600.755 L54.0708 602.422 L54.0708 598.163 L62.3347 596.496 L67.0106 596.496 L67.0106 627.121 L74.6494 627.121 L74.6494 631.056 L54.7421 631.056 L54.7421 627.121 Z" fill="#000000" fill-rule="evenodd" fill-opacity="1" /><path clip-path="url(#clip130)" d="M84.0938 625.176 L88.978 625.176 L88.978 631.056 L84.0938 631.056 L84.0938 625.176 Z" fill="#000000" fill-rule="evenodd" fill-opacity="1" /><path clip-path="url(#clip130)" d="M99.2095 596.496 L117.566 596.496 L117.566 600.431 L103.492 600.431 L103.492 608.903 Q104.51 608.556 105.529 608.394 Q106.547 608.209 107.566 608.209 Q113.353 608.209 116.733 611.38 Q120.112 614.551 120.112 619.968 Q120.112 625.547 116.64 628.649 Q113.168 631.727 106.848 631.727 Q104.672 631.727 102.404 631.357 Q100.159 630.987 97.7511 630.246 L97.7511 625.547 Q99.8345 626.681 102.057 627.237 Q104.279 627.792 106.756 627.792 Q110.76 627.792 113.098 625.686 Q115.436 623.579 115.436 619.968 Q115.436 616.357 113.098 614.251 Q110.76 612.144 106.756 612.144 Q104.881 612.144 103.006 612.561 Q101.154 612.977 99.2095 613.857 L99.2095 596.496 Z" fill="#000000" fill-rule="evenodd" fill-opacity="1" /><path clip-path="url(#clip130)" d="M56.9643 410.818 L73.2837 410.818 L73.2837 414.753 L51.3393 414.753 L51.3393 410.818 Q54.0014 408.064 58.5847 403.434 Q63.1911 398.781 64.3717 397.439 Q66.617 394.916 67.4967 393.18 Q68.3994 391.42 68.3994 389.73 Q68.3994 386.976 66.455 385.24 Q64.5337 383.504 61.4319 383.504 Q59.2328 383.504 56.7791 384.268 Q54.3486 385.031 51.5708 386.582 L51.5708 381.86 Q54.3949 380.726 56.8486 380.147 Q59.3023 379.569 61.3393 379.569 Q66.7096 379.569 69.9041 382.254 Q73.0985 384.939 73.0985 389.43 Q73.0985 391.559 72.2883 393.48 Q71.5013 395.379 69.3948 397.971 Q68.8161 398.642 65.7143 401.86 Q62.6124 405.054 56.9643 410.818 Z" fill="#000000" fill-rule="evenodd" fill-opacity="1" /><path clip-path="url(#clip130)" d="M83.0984 408.874 L87.9827 408.874 L87.9827 414.753 L83.0984 414.753 L83.0984 408.874 Z" fill="#000000" fill-rule="evenodd" fill-opacity="1" /><path clip-path="url(#clip130)" d="M108.168 383.272 Q104.557 383.272 102.728 386.837 Q100.922 390.379 100.922 397.508 Q100.922 404.615 102.728 408.179 Q104.557 411.721 108.168 411.721 Q111.802 411.721 113.608 408.179 Q115.436 404.615 115.436 397.508 Q115.436 390.379 113.608 386.837 Q111.802 383.272 108.168 383.272 M108.168 379.569 Q113.978 379.569 117.033 384.175 Q120.112 388.758 120.112 397.508 Q120.112 406.235 117.033 410.841 Q113.978 415.425 108.168 415.425 Q102.358 415.425 99.2789 410.841 Q96.2234 406.235 96.2234 397.508 Q96.2234 388.758 99.2789 384.175 Q102.358 379.569 108.168 379.569 Z" fill="#000000" fill-rule="evenodd" fill-opacity="1" /><path clip-path="url(#clip130)" d="M57.9597 194.516 L74.279 194.516 L74.279 198.451 L52.3347 198.451 L52.3347 194.516 Q54.9967 191.761 59.58 187.132 Q64.1865 182.479 65.367 181.136 Q67.6124 178.613 68.492 176.877 Q69.3948 175.118 69.3948 173.428 Q69.3948 170.673 67.4504 168.937 Q65.5291 167.201 62.4272 167.201 Q60.2282 167.201 57.7745 167.965 Q55.344 168.729 52.5662 170.28 L52.5662 165.558 Q55.3903 164.423 57.8439 163.845 Q60.2976 163.266 62.3347 163.266 Q67.705 163.266 70.8994 165.951 Q74.0939 168.636 74.0939 173.127 Q74.0939 175.257 73.2837 177.178 Q72.4966 179.076 70.3902 181.669 Q69.8115 182.34 66.7096 185.558 Q63.6078 188.752 57.9597 194.516 Z" fill="#000000" fill-rule="evenodd" fill-opacity="1" /><path clip-path="url(#clip130)" d="M84.0938 192.571 L88.978 192.571 L88.978 198.451 L84.0938 198.451 L84.0938 192.571 Z" fill="#000000" fill-rule="evenodd" fill-opacity="1" /><path clip-path="url(#clip130)" d="M99.2095 163.891 L117.566 163.891 L117.566 167.826 L103.492 167.826 L103.492 176.298 Q104.51 175.951 105.529 175.789 Q106.547 175.604 107.566 175.604 Q113.353 175.604 116.733 178.775 Q120.112 181.946 120.112 187.363 Q120.112 192.942 116.64 196.044 Q113.168 199.122 106.848 199.122 Q104.672 199.122 102.404 198.752 Q100.159 198.382 97.7511 197.641 L97.7511 192.942 Q99.8345 194.076 102.057 194.632 Q104.279 195.187 106.756 195.187 Q110.76 195.187 113.098 193.081 Q115.436 190.974 115.436 187.363 Q115.436 183.752 113.098 181.646 Q110.76 179.539 106.756 179.539 Q104.881 179.539 103.006 179.956 Q101.154 180.372 99.2095 181.252 L99.2095 163.891 Z" fill="#000000" fill-rule="evenodd" fill-opacity="1" /><circle clip-path="url(#clip132)" cx="218.281" cy="188.708" r="14" fill="#009af9" fill-rule="evenodd" fill-opacity="1" stroke="#000000" stroke-opacity="1" stroke-width="3.2"/>
<circle clip-path="url(#clip132)" cx="448.537" cy="764.512" r="14" fill="#009af9" fill-rule="evenodd" fill-opacity="1" stroke="#000000" stroke-opacity="1" stroke-width="3.2"/>
<circle clip-path="url(#clip132)" cx="1139.31" cy="935.537" r="14" fill="#009af9" fill-rule="evenodd" fill-opacity="1" stroke="#000000" stroke-opacity="1" stroke-width="3.2"/>
<circle clip-path="url(#clip132)" cx="1369.56" cy="428.201" r="14" fill="#009af9" fill-rule="evenodd" fill-opacity="1" stroke="#000000" stroke-opacity="1" stroke-width="3.2"/>
<circle clip-path="url(#clip132)" cx="1830.07" cy="609.444" r="14" fill="#009af9" fill-rule="evenodd" fill-opacity="1" stroke="#000000" stroke-opacity="1" stroke-width="3.2"/>
<circle clip-path="url(#clip132)" cx="2290.59" cy="1103.54" r="14" fill="#009af9" fill-rule="evenodd" fill-opacity="1" stroke="#000000" stroke-opacity="1" stroke-width="3.2"/>
<polyline clip-path="url(#clip132)" style="stroke:#e26f46; stroke-linecap:butt; stroke-linejoin:round; stroke-width:4; stroke-opacity:1; fill:none" points="
  218.281,188.708 228.695,209.705 239.108,232.167 249.522,255.939 259.936,280.86 270.349,306.768 280.763,333.5 291.176,360.895 301.59,388.797 312.004,417.052 
  322.417,445.514 332.831,474.045 343.244,502.514 353.658,530.799 364.072,558.789 374.485,586.382 384.899,613.487 395.312,640.023 405.726,665.919 416.14,691.114 
  426.553,715.557 436.967,739.206 447.38,762.028 457.794,783.998 468.208,805.099 478.621,825.32 489.035,844.657 499.448,863.111 509.862,880.688 520.276,897.399 
  530.689,913.258 541.103,928.282 551.516,942.492 561.93,955.91 572.344,968.558 582.757,980.463 593.171,991.649 603.584,1002.14 613.998,1011.97 624.412,1021.16 
  634.825,1029.73 645.239,1037.71 655.652,1045.13 666.066,1052.01 676.479,1058.38 686.893,1064.24 697.307,1069.63 707.72,1074.56 718.134,1079.06 728.547,1083.13 
  738.961,1086.8 749.375,1090.07 759.788,1092.96 770.202,1095.49 780.615,1097.66 791.029,1099.48 801.443,1100.95 811.856,1102.09 822.27,1102.9 832.683,1103.38 
  843.097,1103.54 853.511,1103.37 863.924,1102.87 874.338,1102.04 884.751,1100.88 895.165,1099.39 905.579,1097.55 915.992,1095.37 926.406,1092.82 936.819,1089.91 
  947.233,1086.61 957.647,1082.93 968.06,1078.83 978.474,1074.32 988.887,1069.36 999.301,1063.95 1009.71,1058.06 1020.13,1051.67 1030.54,1044.76 1040.96,1037.31 
  1051.37,1029.3 1061.78,1020.69 1072.2,1011.47 1082.61,1001.61 1093.02,991.083 1103.44,979.86 1113.85,967.917 1124.26,955.23 1134.68,941.771 1145.09,927.519 
  1155.5,912.452 1165.92,896.549 1176.33,879.793 1186.75,862.17 1197.16,843.671 1207.57,824.288 1217.99,804.021 1228.4,782.874 1238.81,760.859 1249.23,737.993 
  1259.64,714.302 1270.05,689.818 1280.47,664.586 1290.88,638.655 1301.3,612.087 1311.71,584.955 1322.12,557.339 1332.54,529.331 1342.95,501.033 1353.36,472.558 
  1363.78,444.027 1374.19,415.572 1384.6,387.332 1395.02,359.453 1405.43,332.089 1415.84,305.396 1426.26,279.535 1436.67,254.67 1447.09,230.963 1457.5,208.573 
  1467.91,187.656 1478.33,168.364 1488.74,150.838 1499.15,135.21 1509.57,121.6 1519.98,110.114 1530.39,100.843 1540.81,93.8608 1551.22,89.2247 1561.64,86.9719 
  1572.05,87.1209 1582.46,89.6704 1592.88,94.5997 1603.29,101.869 1613.7,111.419 1624.12,123.173 1634.53,137.04 1644.94,152.91 1655.36,170.662 1665.77,190.163 
  1676.18,211.27 1686.6,233.832 1697.01,257.692 1707.43,282.689 1717.84,308.662 1728.25,335.447 1738.67,362.884 1749.08,390.815 1759.49,419.09 1769.91,447.562 
  1780.32,476.092 1790.73,504.552 1801.15,532.819 1811.56,560.784 1821.97,588.345 1832.39,615.412 1842.8,641.904 1853.22,667.751 1863.63,692.894 1874.04,717.281 
  1884.46,740.872 1894.87,763.634 1905.28,785.542 1915.7,806.58 1926.11,826.738 1936.52,846.011 1946.94,864.402 1957.35,881.916 1967.77,898.566 1978.18,914.364 
  1988.59,929.329 1999.01,943.482 2009.42,956.843 2019.83,969.437 2030.25,981.289 2040.66,992.425 2051.07,1002.87 2061.49,1012.65 2071.9,1021.79 2082.31,1030.32 
  2092.73,1038.27 2103.14,1045.65 2113.56,1052.49 2123.97,1058.81 2134.38,1064.64 2144.8,1070 2155.21,1074.9 2165.62,1079.36 2176.04,1083.41 2186.45,1087.04 
  2196.86,1090.29 2207.28,1093.16 2217.69,1095.66 2228.11,1097.8 2238.52,1099.59 2248.93,1101.05 2259.35,1102.16 2269.76,1102.95 2280.17,1103.4 2290.59,1103.54 
  
  "/>
<polyline clip-path="url(#clip132)" style="stroke:#3da44d; stroke-linecap:butt; stroke-linejoin:round; stroke-width:4; stroke-opacity:1; fill:none" points="
  218.281,188.708 228.695,200.06 239.108,213.743 249.522,229.596 259.936,247.463 270.349,267.193 280.763,288.638 291.176,311.656 301.59,336.107 312.004,361.856 
  322.417,388.775 332.831,416.736 343.244,445.616 353.658,475.299 364.072,505.669 374.485,536.617 384.899,568.035 395.312,599.821 405.726,631.877 416.14,664.106 
  426.553,696.418 436.967,728.725 447.38,760.941 457.794,792.987 468.208,824.785 478.621,856.261 489.035,887.344 499.448,917.967 509.862,948.067 520.276,977.581 
  530.689,1006.45 541.103,1034.63 551.516,1062.06 561.93,1088.69 572.344,1114.48 582.757,1139.38 593.171,1163.36 603.584,1186.38 613.998,1208.4 624.412,1229.4 
  634.825,1249.35 645.239,1268.21 655.652,1285.97 666.066,1302.6 676.479,1318.09 686.893,1332.42 697.307,1345.57 707.72,1357.55 718.134,1368.32 728.547,1377.9 
  738.961,1386.28 749.375,1393.44 759.788,1399.4 770.202,1404.16 780.615,1407.71 791.029,1410.07 801.443,1411.23 811.856,1411.22 822.27,1410.04 832.683,1407.7 
  843.097,1404.23 853.511,1399.63 863.924,1393.92 874.338,1387.12 884.751,1379.26 895.165,1370.36 905.579,1360.43 915.992,1349.51 926.406,1337.62 936.819,1324.79 
  947.233,1311.04 957.647,1296.42 968.06,1280.94 978.474,1264.64 988.887,1247.56 999.301,1229.72 1009.71,1211.17 1020.13,1191.93 1030.54,1172.06 1040.96,1151.57 
  1051.37,1130.51 1061.78,1108.93 1072.2,1086.85 1082.61,1064.32 1093.02,1041.38 1103.44,1018.08 1113.85,994.438 1124.26,970.514 1134.68,946.346 1145.09,921.974 
  1155.5,897.443 1165.92,872.794 1176.33,848.071 1186.75,823.316 1197.16,798.572 1207.57,773.881 1217.99,749.287 1228.4,724.832 1238.81,700.559 1249.23,676.509 
  1259.64,652.725 1270.05,629.248 1280.47,606.119 1290.88,583.38 1301.3,561.07 1311.71,539.229 1322.12,517.897 1332.54,497.112 1342.95,476.912 1353.36,457.334 
  1363.78,438.414 1374.19,420.189 1384.6,402.692 1395.02,385.959 1405.43,370.021 1415.84,354.91 1426.26,340.657 1436.67,327.293 1447.09,314.844 1457.5,303.339 
  1467.91,292.804 1478.33,283.263 1488.74,274.739 1499.15,267.255 1509.57,260.831 1519.98,255.486 1530.39,251.237 1540.81,248.1 1551.22,246.09 1561.64,245.218 
  1572.05,245.495 1582.46,246.931 1592.88,249.531 1603.29,253.302 1613.7,258.247 1624.12,264.366 1634.53,271.659 1644.94,280.122 1655.36,289.751 1665.77,300.538 
  1676.18,312.474 1686.6,325.546 1697.01,339.741 1707.43,355.041 1717.84,371.429 1728.25,388.881 1738.67,407.374 1749.08,426.882 1759.49,447.374 1769.91,468.819 
  1780.32,491.183 1790.73,514.426 1801.15,538.51 1811.56,563.391 1821.97,589.022 1832.39,615.354 1842.8,642.335 1853.22,669.91 1863.63,698.019 1874.04,726.603 
  1884.46,755.594 1894.87,784.926 1905.28,814.527 1915.7,844.322 1926.11,874.232 1936.52,904.176 1946.94,934.068 1957.35,963.82 1967.77,993.338 1978.18,1022.53 
  1988.59,1051.29 1999.01,1079.51 2009.42,1107.1 2019.83,1133.93 2030.25,1159.9 2040.66,1184.88 2051.07,1208.75 2061.49,1231.38 2071.9,1252.64 2082.31,1272.4 
  2092.73,1290.52 2103.14,1306.84 2113.56,1321.23 2123.97,1333.52 2134.38,1343.57 2144.8,1351.21 2155.21,1356.28 2165.62,1358.59 2176.04,1357.99 2186.45,1354.28 
  2196.86,1347.29 2207.28,1336.82 2217.69,1322.68 2228.11,1304.66 2238.52,1282.58 2248.93,1256.21 2259.35,1225.34 2269.76,1189.76 2280.17,1149.23 2290.59,1103.54 
  
  "/>
<path clip-path="url(#clip130)" d="
M567.443 301.395 L1303.25 301.395 L1303.25 94.0346 L567.443 94.0346  Z
  " fill="#ffffff" fill-rule="evenodd" fill-opacity="1"/>
<polyline clip-path="url(#clip130)" style="stroke:#000000; stroke-linecap:butt; stroke-linejoin:round; stroke-width:4; stroke-opacity:1; fill:none" points="
  567.443,301.395 1303.25,301.395 1303.25,94.0346 567.443,94.0346 567.443,301.395 
  "/>
<circle clip-path="url(#clip130)" cx="665.072" cy="145.875" r="23" fill="#009af9" fill-rule="evenodd" fill-opacity="1" stroke="#000000" stroke-opacity="1" stroke-width="5.12"/>
<path clip-path="url(#clip130)" d="M776.543 165.562 Q774.738 170.192 773.025 171.604 Q771.312 173.016 768.441 173.016 L765.038 173.016 L765.038 169.451 L767.538 169.451 Q769.298 169.451 770.27 168.618 Q771.242 167.784 772.423 164.682 L773.187 162.738 L762.701 137.229 L767.214 137.229 L775.316 157.507 L783.418 137.229 L787.932 137.229 L776.543 165.562 Z" fill="#000000" fill-rule="evenodd" fill-opacity="1" /><path clip-path="url(#clip130)" d="M805.686 149.173 Q808.557 149.729 810.154 151.419 Q811.751 153.108 811.751 155.608 Q811.751 159.613 808.765 161.719 Q805.779 163.826 800.27 163.826 Q798.418 163.826 796.45 163.502 Q794.506 163.178 792.423 162.53 L792.423 158.571 Q794.066 159.428 796.034 159.868 Q798.001 160.284 800.154 160.284 Q803.649 160.284 805.594 158.988 Q807.561 157.692 807.561 155.608 Q807.561 153.571 805.825 152.345 Q804.089 151.095 800.918 151.095 L797.492 151.095 L797.492 147.576 L801.08 147.576 Q803.765 147.576 805.316 146.558 Q806.89 145.516 806.89 143.895 Q806.89 142.414 805.27 141.349 Q803.673 140.284 800.918 140.284 Q799.274 140.284 797.399 140.585 Q795.548 140.886 793.302 141.558 L793.302 137.692 Q795.571 137.136 797.538 136.858 Q799.506 136.581 801.265 136.581 Q805.802 136.581 808.418 138.409 Q811.057 140.215 811.057 143.479 Q811.057 145.632 809.668 147.136 Q808.279 148.618 805.686 149.173 Z" fill="#000000" fill-rule="evenodd" fill-opacity="1" /><path clip-path="url(#clip130)" d="M816.311 163.155 L816.311 159.613 Q820.524 158.965 821.821 156.048 Q823.395 151.951 823.395 141.465 L823.395 137.229 L840.918 137.229 L840.918 163.155 L836.658 163.155 L836.658 140.632 L827.654 140.632 L827.654 143.201 Q827.654 153.201 825.617 157.692 Q823.441 162.483 816.311 163.155 Z" fill="#000000" fill-rule="evenodd" fill-opacity="1" /><path clip-path="url(#clip130)" d="M873.811 137.229 L878.07 137.229 L878.07 163.155 L873.811 163.155 L873.811 137.229 M875.941 136.604 L875.941 136.604 M865.455 155.469 Q865.455 153.386 863.927 152.298 Q862.422 151.21 859.506 151.21 L853.441 151.21 L853.441 159.752 L859.506 159.752 Q862.422 159.752 863.927 158.664 Q865.455 157.553 865.455 155.469 M849.158 137.229 L853.441 137.229 L853.441 147.807 L859.691 147.807 Q864.644 147.807 867.306 149.706 Q869.992 151.581 869.992 155.469 Q869.992 159.358 867.306 161.256 Q864.644 163.155 859.691 163.155 L849.158 163.155 L849.158 137.229 Z" fill="#000000" fill-rule="evenodd" fill-opacity="1" /><path clip-path="url(#clip130)" d="M923.857 137.229 L923.857 163.155 L919.621 163.155 L919.621 142.345 L907.121 163.155 L901.658 163.155 L901.658 137.229 L905.894 137.229 L905.894 157.993 L918.371 137.229 L923.857 137.229 Z" fill="#000000" fill-rule="evenodd" fill-opacity="1" /><path clip-path="url(#clip130)" d="M932.468 137.229 L936.751 137.229 L936.751 147.807 L950.57 147.807 L950.57 137.229 L954.852 137.229 L954.852 163.155 L950.57 163.155 L950.57 151.21 L936.751 151.21 L936.751 163.155 L932.468 163.155 L932.468 137.229 Z" fill="#000000" fill-rule="evenodd" fill-opacity="1" /><path clip-path="url(#clip130)" d="M960.547 137.229 L985.385 137.229 L985.385 140.632 L975.061 140.632 L975.061 163.155 L970.871 163.155 L970.871 140.632 L960.547 140.632 L960.547 137.229 Z" fill="#000000" fill-rule="evenodd" fill-opacity="1" /><path clip-path="url(#clip130)" d="M1013.42 149.127 L1013.42 151.21 L993.834 151.21 Q994.111 155.608 996.472 157.923 Q998.857 160.215 1003.09 160.215 Q1005.55 160.215 1007.84 159.613 Q1010.15 159.011 1012.42 157.807 L1012.42 161.835 Q1010.13 162.807 1007.72 163.317 Q1005.31 163.826 1002.84 163.826 Q996.634 163.826 993 160.215 Q989.389 156.604 989.389 150.446 Q989.389 144.081 992.815 140.354 Q996.264 136.604 1002.1 136.604 Q1007.33 136.604 1010.36 139.983 Q1013.42 143.34 1013.42 149.127 M1009.16 147.877 Q1009.11 144.382 1007.19 142.298 Q1005.29 140.215 1002.14 140.215 Q998.579 140.215 996.426 142.229 Q994.297 144.243 993.972 147.9 L1009.16 147.877 Z" fill="#000000" fill-rule="evenodd" fill-opacity="1" /><path clip-path="url(#clip130)" d="M1024.53 159.266 L1024.53 173.016 L1020.25 173.016 L1020.25 137.229 L1024.53 137.229 L1024.53 141.164 Q1025.87 138.849 1027.91 137.738 Q1029.97 136.604 1032.81 136.604 Q1037.54 136.604 1040.48 140.354 Q1043.44 144.104 1043.44 150.215 Q1043.44 156.326 1040.48 160.076 Q1037.54 163.826 1032.81 163.826 Q1029.97 163.826 1027.91 162.715 Q1025.87 161.581 1024.53 159.266 M1039.02 150.215 Q1039.02 145.516 1037.07 142.854 Q1035.15 140.169 1031.77 140.169 Q1028.39 140.169 1026.45 142.854 Q1024.53 145.516 1024.53 150.215 Q1024.53 154.914 1026.45 157.599 Q1028.39 160.261 1031.77 160.261 Q1035.15 160.261 1037.07 157.599 Q1039.02 154.914 1039.02 150.215 Z" fill="#000000" fill-rule="evenodd" fill-opacity="1" /><path clip-path="url(#clip130)" d="M1072.72 137.229 L1072.72 163.155 L1068.44 163.155 L1068.44 140.632 L1054.62 140.632 L1054.62 163.155 L1050.34 163.155 L1050.34 137.229 L1072.72 137.229 Z" fill="#000000" fill-rule="evenodd" fill-opacity="1" /><path clip-path="url(#clip130)" d="M1091.54 140.215 Q1088.12 140.215 1086.12 142.9 Q1084.13 145.562 1084.13 150.215 Q1084.13 154.868 1086.1 157.553 Q1088.09 160.215 1091.54 160.215 Q1094.94 160.215 1096.93 157.53 Q1098.93 154.844 1098.93 150.215 Q1098.93 145.608 1096.93 142.923 Q1094.94 140.215 1091.54 140.215 M1091.54 136.604 Q1097.1 136.604 1100.27 140.215 Q1103.44 143.826 1103.44 150.215 Q1103.44 156.581 1100.27 160.215 Q1097.1 163.826 1091.54 163.826 Q1085.96 163.826 1082.79 160.215 Q1079.64 156.581 1079.64 150.215 Q1079.64 143.826 1082.79 140.215 Q1085.96 136.604 1091.54 136.604 Z" fill="#000000" fill-rule="evenodd" fill-opacity="1" /><path clip-path="url(#clip130)" d="M1107.79 163.155 L1107.79 159.613 Q1112 158.965 1113.3 156.048 Q1114.87 151.951 1114.87 141.465 L1114.87 137.229 L1132.4 137.229 L1132.4 163.155 L1128.14 163.155 L1128.14 140.632 L1119.13 140.632 L1119.13 143.201 Q1119.13 153.201 1117.1 157.692 Q1114.92 162.483 1107.79 163.155 Z" fill="#000000" fill-rule="evenodd" fill-opacity="1" /><path clip-path="url(#clip130)" d="M1145.08 144.706 Q1145.08 146.627 1146.56 147.715 Q1148.05 148.803 1150.8 148.803 L1156.54 148.803 L1156.54 140.632 L1150.8 140.632 Q1148.05 140.632 1146.56 141.696 Q1145.08 142.761 1145.08 144.706 M1139.02 163.155 L1146.93 151.789 Q1144.25 151.187 1142.47 149.613 Q1140.68 148.016 1140.68 144.706 Q1140.68 140.956 1143.16 139.104 Q1145.66 137.229 1150.68 137.229 L1160.82 137.229 L1160.82 163.155 L1156.54 163.155 L1156.54 152.206 L1151.24 152.206 L1143.6 163.155 L1139.02 163.155 Z" fill="#000000" fill-rule="evenodd" fill-opacity="1" /><path clip-path="url(#clip130)" d="M1191.54 163.155 L1169.16 163.155 L1169.16 137.229 L1173.44 137.229 L1173.44 159.752 L1187.26 159.752 L1187.26 137.229 L1191.54 137.229 L1191.54 159.752 L1194.94 159.752 L1194.94 169.706 L1191.54 169.706 L1191.54 163.155 Z" fill="#000000" fill-rule="evenodd" fill-opacity="1" /><path clip-path="url(#clip130)" d="M1223.62 137.229 L1223.62 163.155 L1219.39 163.155 L1219.39 142.345 L1206.89 163.155 L1201.43 163.155 L1201.43 137.229 L1205.66 137.229 L1205.66 157.993 L1218.14 137.229 L1223.62 137.229 Z" fill="#000000" fill-rule="evenodd" fill-opacity="1" /><path clip-path="url(#clip130)" d="M1254.43 137.229 L1254.43 163.155 L1250.2 163.155 L1250.2 142.345 L1237.7 163.155 L1232.24 163.155 L1232.24 137.229 L1236.47 137.229 L1236.47 157.993 L1248.95 137.229 L1254.43 137.229 Z" fill="#000000" fill-rule="evenodd" fill-opacity="1" /><polyline clip-path="url(#clip130)" style="stroke:#e26f46; stroke-linecap:butt; stroke-linejoin:round; stroke-width:4; stroke-opacity:1; fill:none" points="
  591.85,197.715 738.293,197.715 
  "/>
<path clip-path="url(#clip130)" d="M786.728 200.967 L786.728 203.05 L767.145 203.05 Q767.423 207.448 769.784 209.763 Q772.168 212.055 776.404 212.055 Q778.858 212.055 781.15 211.453 Q783.464 210.851 785.733 209.647 L785.733 213.675 Q783.441 214.647 781.034 215.157 Q778.626 215.666 776.15 215.666 Q769.946 215.666 766.312 212.055 Q762.701 208.444 762.701 202.286 Q762.701 195.921 766.126 192.194 Q769.576 188.444 775.409 188.444 Q780.64 188.444 783.673 191.823 Q786.728 195.18 786.728 200.967 M782.469 199.717 Q782.423 196.222 780.501 194.138 Q778.603 192.055 775.455 192.055 Q771.89 192.055 769.738 194.069 Q767.608 196.083 767.284 199.74 L782.469 199.717 Z" fill="#000000" fill-rule="evenodd" fill-opacity="1" /><path clip-path="url(#clip130)" d="M814.436 189.069 L805.061 201.685 L814.922 214.995 L809.899 214.995 L802.353 204.81 L794.807 214.995 L789.784 214.995 L799.853 201.43 L790.64 189.069 L795.663 189.069 L802.538 198.305 L809.413 189.069 L814.436 189.069 Z" fill="#000000" fill-rule="evenodd" fill-opacity="1" /><path clip-path="url(#clip130)" d="M825.061 211.106 L825.061 224.856 L820.779 224.856 L820.779 189.069 L825.061 189.069 L825.061 193.004 Q826.404 190.689 828.441 189.578 Q830.501 188.444 833.348 188.444 Q838.071 188.444 841.01 192.194 Q843.973 195.944 843.973 202.055 Q843.973 208.166 841.01 211.916 Q838.071 215.666 833.348 215.666 Q830.501 215.666 828.441 214.555 Q826.404 213.421 825.061 211.106 M839.552 202.055 Q839.552 197.356 837.608 194.694 Q835.686 192.009 832.307 192.009 Q828.927 192.009 826.983 194.694 Q825.061 197.356 825.061 202.055 Q825.061 206.754 826.983 209.439 Q828.927 212.101 832.307 212.101 Q835.686 212.101 837.608 209.439 Q839.552 206.754 839.552 202.055 Z" fill="#000000" fill-rule="evenodd" fill-opacity="1" /><path clip-path="url(#clip130)" d="M861.265 179.023 Q858.163 184.347 856.658 189.555 Q855.154 194.763 855.154 200.11 Q855.154 205.458 856.658 210.712 Q858.186 215.944 861.265 221.245 L857.561 221.245 Q854.089 215.805 852.353 210.55 Q850.64 205.296 850.64 200.11 Q850.64 194.948 852.353 189.717 Q854.066 184.486 857.561 179.023 L861.265 179.023 Z" fill="#000000" fill-rule="evenodd" fill-opacity="1" /><path clip-path="url(#clip130)" d="M886.056 189.833 L886.056 193.86 Q884.251 192.935 882.306 192.472 Q880.362 192.009 878.279 192.009 Q875.107 192.009 873.51 192.981 Q871.936 193.953 871.936 195.898 Q871.936 197.379 873.07 198.235 Q874.205 199.069 877.63 199.833 L879.089 200.157 Q883.626 201.129 885.524 202.911 Q887.445 204.671 887.445 207.842 Q887.445 211.453 884.575 213.559 Q881.728 215.666 876.728 215.666 Q874.644 215.666 872.376 215.249 Q870.131 214.856 867.631 214.046 L867.631 209.647 Q869.992 210.874 872.283 211.499 Q874.575 212.101 876.82 212.101 Q879.83 212.101 881.45 211.083 Q883.07 210.041 883.07 208.166 Q883.07 206.43 881.89 205.504 Q880.732 204.578 876.774 203.722 L875.293 203.374 Q871.334 202.541 869.575 200.828 Q867.816 199.092 867.816 196.083 Q867.816 192.425 870.408 190.435 Q873.001 188.444 877.769 188.444 Q880.13 188.444 882.214 188.791 Q884.297 189.138 886.056 189.833 Z" fill="#000000" fill-rule="evenodd" fill-opacity="1" /><path clip-path="url(#clip130)" d="M894.228 189.069 L898.487 189.069 L898.487 214.995 L894.228 214.995 L894.228 189.069 M894.228 178.976 L898.487 178.976 L898.487 184.37 L894.228 184.37 L894.228 178.976 Z" fill="#000000" fill-rule="evenodd" fill-opacity="1" /><path clip-path="url(#clip130)" d="M928.95 199.347 L928.95 214.995 L924.69 214.995 L924.69 199.485 Q924.69 195.805 923.255 193.976 Q921.82 192.148 918.95 192.148 Q915.501 192.148 913.51 194.347 Q911.519 196.546 911.519 200.342 L911.519 214.995 L907.237 214.995 L907.237 189.069 L911.519 189.069 L911.519 193.097 Q913.047 190.759 915.107 189.601 Q917.19 188.444 919.899 188.444 Q924.366 188.444 926.658 191.222 Q928.95 193.976 928.95 199.347 Z" fill="#000000" fill-rule="evenodd" fill-opacity="1" /><path clip-path="url(#clip130)" d="M947.676 179.023 Q944.575 184.347 943.07 189.555 Q941.565 194.763 941.565 200.11 Q941.565 205.458 943.07 210.712 Q944.598 215.944 947.676 221.245 L943.973 221.245 Q940.501 215.805 938.764 210.55 Q937.051 205.296 937.051 200.11 Q937.051 194.948 938.764 189.717 Q940.477 184.486 943.973 179.023 L947.676 179.023 Z" fill="#000000" fill-rule="evenodd" fill-opacity="1" /><path clip-path="url(#clip130)" d="M960.57 211.059 L976.889 211.059 L976.889 214.995 L954.945 214.995 L954.945 211.059 Q957.607 208.305 962.19 203.675 Q966.797 199.022 967.977 197.68 Q970.223 195.157 971.102 193.421 Q972.005 191.661 972.005 189.972 Q972.005 187.217 970.061 185.481 Q968.139 183.745 965.037 183.745 Q962.838 183.745 960.385 184.509 Q957.954 185.273 955.176 186.823 L955.176 182.101 Q958 180.967 960.454 180.388 Q962.908 179.81 964.945 179.81 Q970.315 179.81 973.51 182.495 Q976.704 185.18 976.704 189.671 Q976.704 191.8 975.894 193.722 Q975.107 195.62 973 198.212 Q972.422 198.884 969.32 202.101 Q966.218 205.296 960.57 211.059 Z" fill="#000000" fill-rule="evenodd" fill-opacity="1" /><path clip-path="url(#clip130)" d="M1007.65 189.069 L998.278 201.685 L1008.14 214.995 L1003.12 214.995 L995.57 204.81 L988.023 214.995 L983 214.995 L993.07 201.43 L983.857 189.069 L988.88 189.069 L995.755 198.305 L1002.63 189.069 L1007.65 189.069 Z" fill="#000000" fill-rule="evenodd" fill-opacity="1" /><path clip-path="url(#clip130)" d="M1013.49 179.023 L1017.19 179.023 Q1020.66 184.486 1022.38 189.717 Q1024.11 194.948 1024.11 200.11 Q1024.11 205.296 1022.38 210.55 Q1020.66 215.805 1017.19 221.245 L1013.49 221.245 Q1016.56 215.944 1018.07 210.712 Q1019.6 205.458 1019.6 200.11 Q1019.6 194.763 1018.07 189.555 Q1016.56 184.347 1013.49 179.023 Z" fill="#000000" fill-rule="evenodd" fill-opacity="1" /><path clip-path="url(#clip130)" d="M1031.98 179.023 L1035.69 179.023 Q1039.16 184.486 1040.87 189.717 Q1042.61 194.948 1042.61 200.11 Q1042.61 205.296 1040.87 210.55 Q1039.16 215.805 1035.69 221.245 L1031.98 221.245 Q1035.06 215.944 1036.56 210.712 Q1038.09 205.458 1038.09 200.11 Q1038.09 194.763 1036.56 189.555 Q1035.06 184.347 1031.98 179.023 Z" fill="#000000" fill-rule="evenodd" fill-opacity="1" /><polyline clip-path="url(#clip130)" style="stroke:#3da44d; stroke-linecap:butt; stroke-linejoin:round; stroke-width:4; stroke-opacity:1; fill:none" points="
  591.85,249.555 738.293,249.555 
  "/>
<path clip-path="url(#clip130)" d="M784.899 240.909 L784.899 266.835 L780.663 266.835 L780.663 246.025 L768.163 266.835 L762.701 266.835 L762.701 240.909 L766.937 240.909 L766.937 261.673 L779.413 240.909 L784.899 240.909 Z" fill="#000000" fill-rule="evenodd" fill-opacity="1" /><path clip-path="url(#clip130)" d="M793.511 240.909 L797.793 240.909 L797.793 251.487 L811.612 251.487 L811.612 240.909 L815.895 240.909 L815.895 266.835 L811.612 266.835 L811.612 254.89 L797.793 254.89 L797.793 266.835 L793.511 266.835 L793.511 240.909 Z" fill="#000000" fill-rule="evenodd" fill-opacity="1" /><path clip-path="url(#clip130)" d="M821.589 240.909 L846.427 240.909 L846.427 244.312 L836.103 244.312 L836.103 266.835 L831.913 266.835 L831.913 244.312 L821.589 244.312 L821.589 240.909 Z" fill="#000000" fill-rule="evenodd" fill-opacity="1" /><path clip-path="url(#clip130)" d="M874.459 252.807 L874.459 254.89 L854.876 254.89 Q855.154 259.288 857.515 261.603 Q859.899 263.895 864.135 263.895 Q866.589 263.895 868.881 263.293 Q871.195 262.691 873.464 261.487 L873.464 265.515 Q871.172 266.487 868.765 266.997 Q866.357 267.506 863.881 267.506 Q857.677 267.506 854.043 263.895 Q850.432 260.284 850.432 254.126 Q850.432 247.761 853.857 244.034 Q857.307 240.284 863.14 240.284 Q868.371 240.284 871.404 243.663 Q874.459 247.02 874.459 252.807 M870.2 251.557 Q870.154 248.062 868.232 245.978 Q866.334 243.895 863.186 243.895 Q859.621 243.895 857.469 245.909 Q855.339 247.923 855.015 251.58 L870.2 251.557 Z" fill="#000000" fill-rule="evenodd" fill-opacity="1" /><path clip-path="url(#clip130)" d="M885.57 262.946 L885.57 276.696 L881.288 276.696 L881.288 240.909 L885.57 240.909 L885.57 244.844 Q886.913 242.529 888.95 241.418 Q891.01 240.284 893.857 240.284 Q898.579 240.284 901.519 244.034 Q904.482 247.784 904.482 253.895 Q904.482 260.006 901.519 263.756 Q898.579 267.506 893.857 267.506 Q891.01 267.506 888.95 266.395 Q886.913 265.261 885.57 262.946 M900.061 253.895 Q900.061 249.196 898.116 246.534 Q896.195 243.849 892.816 243.849 Q889.436 243.849 887.492 246.534 Q885.57 249.196 885.57 253.895 Q885.57 258.594 887.492 261.279 Q889.436 263.941 892.816 263.941 Q896.195 263.941 898.116 261.279 Q900.061 258.594 900.061 253.895 Z" fill="#000000" fill-rule="evenodd" fill-opacity="1" /><path clip-path="url(#clip130)" d="M933.764 240.909 L933.764 266.835 L929.482 266.835 L929.482 244.312 L915.663 244.312 L915.663 266.835 L911.38 266.835 L911.38 240.909 L933.764 240.909 Z" fill="#000000" fill-rule="evenodd" fill-opacity="1" /><path clip-path="url(#clip130)" d="M952.584 243.895 Q949.158 243.895 947.167 246.58 Q945.176 249.242 945.176 253.895 Q945.176 258.548 947.144 261.233 Q949.135 263.895 952.584 263.895 Q955.987 263.895 957.977 261.21 Q959.968 258.524 959.968 253.895 Q959.968 249.288 957.977 246.603 Q955.987 243.895 952.584 243.895 M952.584 240.284 Q958.139 240.284 961.311 243.895 Q964.482 247.506 964.482 253.895 Q964.482 260.261 961.311 263.895 Q958.139 267.506 952.584 267.506 Q947.005 267.506 943.834 263.895 Q940.686 260.261 940.686 253.895 Q940.686 247.506 943.834 243.895 Q947.005 240.284 952.584 240.284 Z" fill="#000000" fill-rule="evenodd" fill-opacity="1" /><path clip-path="url(#clip130)" d="M968.834 266.835 L968.834 263.293 Q973.047 262.645 974.343 259.728 Q975.917 255.631 975.917 245.145 L975.917 240.909 L993.44 240.909 L993.44 266.835 L989.181 266.835 L989.181 244.312 L980.176 244.312 L980.176 246.881 Q980.176 256.881 978.139 261.372 Q975.963 266.163 968.834 266.835 Z" fill="#000000" fill-rule="evenodd" fill-opacity="1" /><path clip-path="url(#clip130)" d="M1006.13 248.386 Q1006.13 250.307 1007.61 251.395 Q1009.09 252.483 1011.84 252.483 L1017.58 252.483 L1017.58 244.312 L1011.84 244.312 Q1009.09 244.312 1007.61 245.376 Q1006.13 246.441 1006.13 248.386 M1000.06 266.835 L1007.98 255.469 Q1005.29 254.867 1003.51 253.293 Q1001.73 251.696 1001.73 248.386 Q1001.73 244.636 1004.2 242.784 Q1006.7 240.909 1011.73 240.909 L1021.87 240.909 L1021.87 266.835 L1017.58 266.835 L1017.58 255.886 L1012.28 255.886 L1004.64 266.835 L1000.06 266.835 Z" fill="#000000" fill-rule="evenodd" fill-opacity="1" /><path clip-path="url(#clip130)" d="M1030.2 240.909 L1034.48 240.909 L1034.48 251.487 L1048.3 251.487 L1048.3 240.909 L1052.58 240.909 L1052.58 266.835 L1048.3 266.835 L1048.3 254.89 L1034.48 254.89 L1034.48 266.835 L1030.2 266.835 L1030.2 240.909 Z" fill="#000000" fill-rule="evenodd" fill-opacity="1" /><path clip-path="url(#clip130)" d="M1058.28 240.909 L1083.12 240.909 L1083.12 244.312 L1072.79 244.312 L1072.79 266.835 L1068.6 266.835 L1068.6 244.312 L1058.28 244.312 L1058.28 240.909 Z" fill="#000000" fill-rule="evenodd" fill-opacity="1" /></svg>
