<?xml version="1.0" encoding="utf-8"?>
<svg xmlns="http://www.w3.org/2000/svg" xmlns:xlink="http://www.w3.org/1999/xlink" width="600" height="400" viewBox="0 0 2400 1600">
<defs>
  <clipPath id="clip850">
    <rect x="0" y="0" width="2400" height="1600"/>
  </clipPath>
</defs>
<path clip-path="url(#clip850)" d="
M0 1600 L2400 1600 L2400 0 L0 0  Z
  " fill="#ffffff" fill-rule="evenodd" fill-opacity="1"/>
<defs>
  <clipPath id="clip851">
    <rect x="480" y="0" width="1681" height="1600"/>
  </clipPath>
</defs>
<defs>
  <clipPath id="clip852">
    <rect x="155" y="47" width="2198" height="1405"/>
  </clipPath>
</defs>
<path clip-path="url(#clip850)" d="
M263.781 1441.94 L2352.76 1441.94 L2352.76 47.2441 L263.781 47.2441  Z
  " fill="#ffffff" fill-rule="evenodd" fill-opacity="1"/>
<defs>
  <clipPath id="clip853">
    <rect x="263" y="47" width="2090" height="1396"/>
  </clipPath>
</defs>
<polyline clip-path="url(#clip853)" style="stroke:#000000; stroke-linecap:butt; stroke-linejoin:round; stroke-width:2; stroke-opacity:0.1; fill:none" points="
  322.903,1441.94 322.903,47.2441 
  "/>
<polyline clip-path="url(#clip853)" style="stroke:#000000; stroke-linecap:butt; stroke-linejoin:round; stroke-width:2; stroke-opacity:0.1; fill:none" points="
  1308.27,1441.94 1308.27,47.2441 
  "/>
<polyline clip-path="url(#clip853)" style="stroke:#000000; stroke-linecap:butt; stroke-linejoin:round; stroke-width:2; stroke-opacity:0.1; fill:none" points="
  2293.63,1441.94 2293.63,47.2441 
  "/>
<polyline clip-path="url(#clip853)" style="stroke:#000000; stroke-linecap:butt; stroke-linejoin:round; stroke-width:2; stroke-opacity:0.1; fill:none" points="
  3279,1441.94 3279,47.2441 
  "/>
<polyline clip-path="url(#clip850)" style="stroke:#000000; stroke-linecap:butt; stroke-linejoin:round; stroke-width:4; stroke-opacity:1; fill:none" points="
  263.781,1441.94 2352.76,1441.94 
  "/>
<polyline clip-path="url(#clip850)" style="stroke:#000000; stroke-linecap:butt; stroke-linejoin:round; stroke-width:4; stroke-opacity:1; fill:none" points="
  322.903,1441.94 322.903,1423.04 
  "/>
<polyline clip-path="url(#clip850)" style="stroke:#000000; stroke-linecap:butt; stroke-linejoin:round; stroke-width:4; stroke-opacity:1; fill:none" points="
  1308.27,1441.94 1308.27,1423.04 
  "/>
<polyline clip-path="url(#clip850)" style="stroke:#000000; stroke-linecap:butt; stroke-linejoin:round; stroke-width:4; stroke-opacity:1; fill:none" points="
  2293.63,1441.94 2293.63,1423.04 
  "/>
<polyline clip-path="url(#clip850)" style="stroke:#000000; stroke-linecap:butt; stroke-linejoin:round; stroke-width:4; stroke-opacity:1; fill:none" points="
  3279,1441.94 3279,1423.04 
  "/>
<path clip-path="url(#clip850)" d="M274.672 1486.52 L274.672 1485.03 Q280.434 1485.03 283.408 1481.96 Q284.228 1481.96 284.369 1482.14 Q284.509 1482.33 284.509 1483.2 L284.509 1510.11 Q284.509 1511.54 285.212 1511.98 Q285.915 1512.43 288.983 1512.43 L290.505 1512.43 L290.505 1513.91 Q288.819 1513.76 282.729 1513.76 Q276.639 1513.76 274.976 1513.91 L274.976 1512.43 L276.499 1512.43 Q279.52 1512.43 280.246 1512.01 Q280.973 1511.56 280.973 1510.11 L280.973 1485.26 Q278.466 1486.52 274.672 1486.52 Z" fill="#000000" fill-rule="evenodd" fill-opacity="1" /><path clip-path="url(#clip850)" d="M298.422 1498.56 Q298.422 1491.51 300.202 1487.67 Q302.685 1481.96 308.54 1481.96 Q309.782 1481.96 311.07 1482.31 Q312.382 1482.64 314.021 1483.92 Q315.684 1485.21 316.691 1487.32 Q318.612 1491.4 318.612 1498.56 Q318.612 1505.57 316.832 1509.38 Q314.232 1514.96 308.494 1514.96 Q306.339 1514.96 304.137 1513.86 Q301.959 1512.76 300.577 1510.11 Q298.422 1506.15 298.422 1498.56 M302.404 1497.98 Q302.404 1505.22 302.919 1508.1 Q303.505 1511.21 305.097 1512.57 Q306.713 1513.91 308.494 1513.91 Q310.414 1513.91 312.007 1512.48 Q313.623 1511.02 314.115 1507.91 Q314.654 1504.84 314.63 1497.98 Q314.63 1491.3 314.162 1488.63 Q313.529 1485.52 311.843 1484.28 Q310.18 1483.01 308.494 1483.01 Q307.861 1483.01 307.182 1483.2 Q306.526 1483.39 305.566 1483.92 Q304.605 1484.46 303.856 1485.8 Q303.13 1487.13 302.778 1489.15 Q302.404 1491.75 302.404 1497.98 Z" fill="#000000" fill-rule="evenodd" fill-opacity="1" /><path clip-path="url(#clip850)" d="M345.693 1479.31 Q345.89 1479.5 345.89 1479.78 Q345.89 1480.06 345.693 1480.26 Q345.497 1480.45 345.218 1480.45 L324.198 1480.45 Q323.92 1480.45 323.723 1480.26 Q323.526 1480.06 323.526 1479.78 Q323.526 1479.5 323.723 1479.31 Q323.92 1479.11 324.198 1479.11 L345.218 1479.11 Q345.497 1479.11 345.693 1479.31 Z" fill="#000000" fill-rule="evenodd" fill-opacity="1" /><path clip-path="url(#clip850)" d="M349.389 1483.65 Q349.389 1482.65 349.963 1482.18 Q350.537 1481.7 351.275 1481.7 Q352.045 1481.7 352.586 1482.21 Q353.144 1482.7 353.144 1483.57 Q353.144 1484.5 352.488 1485.03 Q351.849 1485.55 350.93 1485.42 Q351.734 1486.77 353.209 1487.37 Q354.701 1487.98 356.079 1487.98 Q357.521 1487.98 358.686 1486.73 Q359.866 1485.49 359.866 1482.44 Q359.866 1479.85 358.85 1478.36 Q357.849 1476.86 355.865 1476.86 L354.39 1476.86 Q353.882 1476.86 353.734 1476.81 Q353.586 1476.76 353.586 1476.49 Q353.586 1476.16 354.095 1476.09 Q354.603 1476.09 355.406 1475.99 Q357.358 1475.93 358.39 1474.24 Q359.325 1472.67 359.325 1470.42 Q359.325 1468.37 358.341 1467.52 Q357.374 1466.65 356.111 1466.65 Q354.931 1466.65 353.636 1467.14 Q352.34 1467.63 351.635 1468.73 Q353.718 1468.73 353.718 1470.42 Q353.718 1471.16 353.242 1471.65 Q352.783 1472.12 352.012 1472.12 Q351.275 1472.12 350.783 1471.67 Q350.291 1471.19 350.291 1470.39 Q350.291 1468.47 351.996 1467.14 Q353.718 1465.81 356.243 1465.81 Q358.735 1465.81 360.571 1467.12 Q362.424 1468.44 362.424 1470.45 Q362.424 1472.44 361.112 1474.06 Q359.8 1475.68 357.718 1476.35 Q360.276 1476.86 361.801 1478.6 Q363.326 1480.32 363.326 1482.44 Q363.326 1485.06 361.26 1487 Q359.194 1488.91 356.177 1488.91 Q353.39 1488.91 351.389 1487.41 Q349.389 1485.9 349.389 1483.65 Z" fill="#000000" fill-rule="evenodd" fill-opacity="1" /><path clip-path="url(#clip850)" d="M1216.75 1506.18 Q1216.75 1504.75 1217.52 1504.21 Q1218.3 1503.65 1219.12 1503.65 Q1220.22 1503.65 1220.85 1504.35 Q1221.5 1505.03 1221.5 1505.99 Q1221.5 1506.95 1220.85 1507.65 Q1220.22 1508.33 1219.12 1508.33 Q1218.58 1508.33 1218.3 1508.24 Q1218.93 1510.44 1220.85 1512.03 Q1222.79 1513.62 1225.35 1513.62 Q1228.55 1513.62 1230.48 1510.51 Q1231.62 1508.49 1231.62 1503.93 Q1231.62 1499.9 1230.76 1497.88 Q1229.42 1494.82 1226.68 1494.82 Q1222.79 1494.82 1220.5 1498.17 Q1220.22 1498.59 1219.89 1498.61 Q1219.42 1498.61 1219.3 1498.35 Q1219.21 1498.07 1219.21 1497.35 L1219.21 1483.15 Q1219.21 1482 1219.68 1482 Q1219.86 1482 1220.26 1482.14 Q1223.28 1483.48 1226.63 1483.5 Q1230.08 1483.5 1233.17 1482.1 Q1233.4 1481.96 1233.54 1481.96 Q1234.01 1481.96 1234.04 1482.5 Q1234.04 1482.68 1233.64 1483.25 Q1233.26 1483.78 1232.44 1484.51 Q1231.62 1485.21 1230.57 1485.89 Q1229.51 1486.57 1227.97 1487.04 Q1226.45 1487.48 1224.76 1487.48 Q1222.75 1487.48 1220.68 1486.85 L1220.68 1496.2 Q1223.17 1493.76 1226.77 1493.76 Q1230.62 1493.76 1233.26 1496.85 Q1235.91 1499.95 1235.91 1504.26 Q1235.91 1508.78 1232.77 1511.87 Q1229.66 1514.96 1225.44 1514.96 Q1221.6 1514.96 1219.16 1512.22 Q1216.75 1509.48 1216.75 1506.18 Z" fill="#000000" fill-rule="evenodd" fill-opacity="1" /><path clip-path="url(#clip850)" d="M1280.44 1513.18 Q1280.21 1513.46 1279.79 1513.46 Q1279.39 1513.46 1279.11 1513.18 L1269.18 1503.25 L1259.25 1513.18 Q1258.96 1513.46 1258.54 1513.46 Q1258.14 1513.46 1257.89 1513.18 Q1257.61 1512.92 1257.61 1512.52 Q1257.61 1512.13 1257.89 1511.84 L1267.82 1501.91 L1257.89 1491.98 Q1257.61 1491.7 1257.61 1491.3 Q1257.61 1490.88 1257.89 1490.65 Q1258.14 1490.37 1258.54 1490.37 Q1258.96 1490.37 1259.25 1490.65 L1269.18 1500.58 L1279.11 1490.65 Q1279.39 1490.37 1279.79 1490.37 Q1280.21 1490.37 1280.44 1490.65 Q1280.72 1490.88 1280.72 1491.3 Q1280.72 1491.7 1280.44 1491.98 L1270.51 1501.91 L1280.44 1511.84 Q1280.72 1512.13 1280.72 1512.55 Q1280.72 1512.94 1280.44 1513.18 Z" fill="#000000" fill-rule="evenodd" fill-opacity="1" /><path clip-path="url(#clip850)" d="M1303.33 1486.52 L1303.33 1485.03 Q1309.09 1485.03 1312.06 1481.96 Q1312.88 1481.96 1313.02 1482.14 Q1313.16 1482.33 1313.16 1483.2 L1313.16 1510.11 Q1313.16 1511.54 1313.87 1511.98 Q1314.57 1512.43 1317.64 1512.43 L1319.16 1512.43 L1319.16 1513.91 Q1317.47 1513.76 1311.38 1513.76 Q1305.29 1513.76 1303.63 1513.91 L1303.63 1512.43 L1305.15 1512.43 Q1308.17 1512.43 1308.9 1512.01 Q1309.63 1511.56 1309.63 1510.11 L1309.63 1485.26 Q1307.12 1486.52 1303.33 1486.52 Z" fill="#000000" fill-rule="evenodd" fill-opacity="1" /><path clip-path="url(#clip850)" d="M1327.08 1498.56 Q1327.08 1491.51 1328.86 1487.67 Q1331.34 1481.96 1337.19 1481.96 Q1338.43 1481.96 1339.72 1482.31 Q1341.03 1482.64 1342.67 1483.92 Q1344.34 1485.21 1345.34 1487.32 Q1347.27 1491.4 1347.27 1498.56 Q1347.27 1505.57 1345.49 1509.38 Q1342.89 1514.96 1337.15 1514.96 Q1334.99 1514.96 1332.79 1513.86 Q1330.61 1512.76 1329.23 1510.11 Q1327.08 1506.15 1327.08 1498.56 M1331.06 1497.98 Q1331.06 1505.22 1331.57 1508.1 Q1332.16 1511.21 1333.75 1512.57 Q1335.37 1513.91 1337.15 1513.91 Q1339.07 1513.91 1340.66 1512.48 Q1342.28 1511.02 1342.77 1507.91 Q1343.31 1504.84 1343.28 1497.98 Q1343.28 1491.3 1342.81 1488.63 Q1342.18 1485.52 1340.5 1484.28 Q1338.83 1483.01 1337.15 1483.01 Q1336.51 1483.01 1335.84 1483.2 Q1335.18 1483.39 1334.22 1483.92 Q1333.26 1484.46 1332.51 1485.8 Q1331.78 1487.13 1331.43 1489.15 Q1331.06 1491.75 1331.06 1497.98 Z" fill="#000000" fill-rule="evenodd" fill-opacity="1" /><path clip-path="url(#clip850)" d="M1374.35 1479.31 Q1374.54 1479.5 1374.54 1479.78 Q1374.54 1480.06 1374.35 1480.26 Q1374.15 1480.45 1373.87 1480.45 L1352.85 1480.45 Q1352.57 1480.45 1352.38 1480.26 Q1352.18 1480.06 1352.18 1479.78 Q1352.18 1479.5 1352.38 1479.31 Q1352.57 1479.11 1352.85 1479.11 L1373.87 1479.11 Q1374.15 1479.11 1374.35 1479.31 Z" fill="#000000" fill-rule="evenodd" fill-opacity="1" /><path clip-path="url(#clip850)" d="M1378.04 1483.65 Q1378.04 1482.65 1378.62 1482.18 Q1379.19 1481.7 1379.93 1481.7 Q1380.7 1481.7 1381.24 1482.21 Q1381.8 1482.7 1381.8 1483.57 Q1381.8 1484.5 1381.14 1485.03 Q1380.5 1485.55 1379.58 1485.42 Q1380.39 1486.77 1381.86 1487.37 Q1383.35 1487.98 1384.73 1487.98 Q1386.17 1487.98 1387.34 1486.73 Q1388.52 1485.49 1388.52 1482.44 Q1388.52 1479.85 1387.5 1478.36 Q1386.5 1476.86 1384.52 1476.86 L1383.04 1476.86 Q1382.53 1476.86 1382.39 1476.81 Q1382.24 1476.76 1382.24 1476.49 Q1382.24 1476.16 1382.75 1476.09 Q1383.26 1476.09 1384.06 1475.99 Q1386.01 1475.93 1387.04 1474.24 Q1387.98 1472.67 1387.98 1470.42 Q1387.98 1468.37 1386.99 1467.52 Q1386.03 1466.65 1384.76 1466.65 Q1383.58 1466.65 1382.29 1467.14 Q1380.99 1467.63 1380.29 1468.73 Q1382.37 1468.73 1382.37 1470.42 Q1382.37 1471.16 1381.9 1471.65 Q1381.44 1472.12 1380.67 1472.12 Q1379.93 1472.12 1379.44 1471.67 Q1378.94 1471.19 1378.94 1470.39 Q1378.94 1468.47 1380.65 1467.14 Q1382.37 1465.81 1384.9 1465.81 Q1387.39 1465.81 1389.22 1467.12 Q1391.08 1468.44 1391.08 1470.45 Q1391.08 1472.44 1389.77 1474.06 Q1388.45 1475.68 1386.37 1476.35 Q1388.93 1476.86 1390.45 1478.6 Q1391.98 1480.32 1391.98 1482.44 Q1391.98 1485.06 1389.91 1487 Q1387.85 1488.91 1384.83 1488.91 Q1382.04 1488.91 1380.04 1487.41 Q1378.04 1485.9 1378.04 1483.65 Z" fill="#000000" fill-rule="evenodd" fill-opacity="1" /><path clip-path="url(#clip850)" d="M2245.4 1485.72 L2245.4 1484.22 Q2251.16 1484.22 2254.14 1481.15 Q2254.96 1481.15 2255.1 1481.34 Q2255.24 1481.53 2255.24 1482.39 L2255.24 1509.3 Q2255.24 1510.73 2255.94 1511.18 Q2256.65 1511.62 2259.71 1511.62 L2261.24 1511.62 L2261.24 1513.1 Q2259.55 1512.96 2253.46 1512.96 Q2247.37 1512.96 2245.71 1513.1 L2245.71 1511.62 L2247.23 1511.62 Q2250.25 1511.62 2250.98 1511.2 Q2251.7 1510.76 2251.7 1509.3 L2251.7 1484.45 Q2249.2 1485.72 2245.4 1485.72 Z" fill="#000000" fill-rule="evenodd" fill-opacity="1" /><path clip-path="url(#clip850)" d="M2269.15 1497.76 Q2269.15 1490.71 2270.93 1486.87 Q2273.42 1481.15 2279.27 1481.15 Q2280.51 1481.15 2281.8 1481.5 Q2283.11 1481.83 2284.75 1483.12 Q2286.42 1484.41 2287.42 1486.51 Q2289.34 1490.59 2289.34 1497.76 Q2289.34 1504.76 2287.56 1508.58 Q2284.96 1514.15 2279.22 1514.15 Q2277.07 1514.15 2274.87 1513.05 Q2272.69 1511.95 2271.31 1509.3 Q2269.15 1505.35 2269.15 1497.76 M2273.13 1497.17 Q2273.13 1504.41 2273.65 1507.29 Q2274.24 1510.41 2275.83 1511.76 Q2277.44 1513.1 2279.22 1513.1 Q2281.15 1513.1 2282.74 1511.67 Q2284.35 1510.22 2284.85 1507.1 Q2285.38 1504.03 2285.36 1497.17 Q2285.36 1490.5 2284.89 1487.83 Q2284.26 1484.71 2282.57 1483.47 Q2280.91 1482.2 2279.22 1482.2 Q2278.59 1482.2 2277.91 1482.39 Q2277.26 1482.58 2276.3 1483.12 Q2275.34 1483.66 2274.59 1484.99 Q2273.86 1486.33 2273.51 1488.34 Q2273.13 1490.94 2273.13 1497.17 Z" fill="#000000" fill-rule="evenodd" fill-opacity="1" /><path clip-path="url(#clip850)" d="M2316.42 1479.23 Q2316.62 1479.43 2316.62 1479.71 Q2316.62 1479.99 2316.42 1480.18 Q2316.23 1480.38 2315.95 1480.38 L2294.93 1480.38 Q2294.65 1480.38 2294.45 1480.18 Q2294.26 1479.99 2294.26 1479.71 Q2294.26 1479.43 2294.45 1479.23 Q2294.65 1479.04 2294.93 1479.04 L2315.95 1479.04 Q2316.23 1479.04 2316.42 1479.23 Z" fill="#000000" fill-rule="evenodd" fill-opacity="1" /><path clip-path="url(#clip850)" d="M2320.12 1488.1 Q2320.12 1487.5 2320.17 1487.32 Q2320.23 1487.14 2320.5 1486.86 L2326.94 1479.68 Q2330.47 1475.71 2330.47 1472.25 Q2330.47 1470 2329.29 1468.4 Q2328.12 1466.79 2325.97 1466.79 Q2324.5 1466.79 2323.25 1467.69 Q2322.01 1468.59 2321.43 1470.2 Q2321.53 1470.17 2321.87 1470.17 Q2322.71 1470.17 2323.17 1470.69 Q2323.65 1471.22 2323.65 1471.92 Q2323.65 1472.82 2323.05 1473.26 Q2322.48 1473.69 2321.91 1473.69 Q2321.68 1473.69 2321.37 1473.64 Q2321.07 1473.59 2320.6 1473.13 Q2320.12 1472.66 2320.12 1471.82 Q2320.12 1469.48 2321.89 1467.61 Q2323.68 1465.74 2326.4 1465.74 Q2329.48 1465.74 2331.5 1467.58 Q2333.53 1469.4 2333.53 1472.25 Q2333.53 1473.25 2333.22 1474.17 Q2332.93 1475.07 2332.52 1475.77 Q2332.12 1476.48 2331.04 1477.61 Q2329.96 1478.74 2329.09 1479.54 Q2328.22 1480.35 2326.27 1482.05 L2322.71 1485.51 L2328.76 1485.51 Q2331.71 1485.51 2331.94 1485.25 Q2332.27 1484.77 2332.68 1482.27 L2333.53 1482.27 L2332.58 1488.1 L2320.12 1488.1 Z" fill="#000000" fill-rule="evenodd" fill-opacity="1" /><path clip-path="url(#clip850)" d="M3187.48 1505.37 Q3187.48 1503.94 3188.25 1503.4 Q3189.03 1502.84 3189.85 1502.84 Q3190.95 1502.84 3191.58 1503.54 Q3192.24 1504.22 3192.24 1505.18 Q3192.24 1506.14 3191.58 1506.85 Q3190.95 1507.52 3189.85 1507.52 Q3189.31 1507.52 3189.03 1507.43 Q3189.66 1509.63 3191.58 1511.23 Q3193.52 1512.82 3196.08 1512.82 Q3199.29 1512.82 3201.21 1509.7 Q3202.35 1507.69 3202.35 1503.12 Q3202.35 1499.09 3201.49 1497.08 Q3200.15 1494.01 3197.41 1494.01 Q3193.52 1494.01 3191.23 1497.36 Q3190.95 1497.78 3190.62 1497.8 Q3190.15 1497.8 3190.03 1497.55 Q3189.94 1497.27 3189.94 1496.54 L3189.94 1482.35 Q3189.94 1481.2 3190.41 1481.2 Q3190.6 1481.2 3190.99 1481.34 Q3194.02 1482.67 3197.36 1482.7 Q3200.81 1482.7 3203.9 1481.29 Q3204.13 1481.15 3204.27 1481.15 Q3204.74 1481.15 3204.77 1481.69 Q3204.77 1481.88 3204.37 1482.44 Q3203.99 1482.98 3203.17 1483.7 Q3202.35 1484.41 3201.3 1485.09 Q3200.25 1485.77 3198.7 1486.23 Q3197.18 1486.68 3195.49 1486.68 Q3193.48 1486.68 3191.42 1486.05 L3191.42 1495.39 Q3193.9 1492.96 3197.51 1492.96 Q3201.35 1492.96 3203.99 1496.05 Q3206.64 1499.14 3206.64 1503.45 Q3206.64 1507.97 3203.5 1511.06 Q3200.39 1514.15 3196.17 1514.15 Q3192.33 1514.15 3189.89 1511.41 Q3187.48 1508.67 3187.48 1505.37 Z" fill="#000000" fill-rule="evenodd" fill-opacity="1" /><path clip-path="url(#clip850)" d="M3251.17 1512.37 Q3250.94 1512.65 3250.52 1512.65 Q3250.12 1512.65 3249.84 1512.37 L3239.91 1502.44 L3229.98 1512.37 Q3229.7 1512.65 3229.27 1512.65 Q3228.88 1512.65 3228.62 1512.37 Q3228.34 1512.12 3228.34 1511.72 Q3228.34 1511.32 3228.62 1511.04 L3238.55 1501.11 L3228.62 1491.18 Q3228.34 1490.89 3228.34 1490.5 Q3228.34 1490.07 3228.62 1489.84 Q3228.88 1489.56 3229.27 1489.56 Q3229.7 1489.56 3229.98 1489.84 L3239.91 1499.77 L3249.84 1489.84 Q3250.12 1489.56 3250.52 1489.56 Q3250.94 1489.56 3251.17 1489.84 Q3251.45 1490.07 3251.45 1490.5 Q3251.45 1490.89 3251.17 1491.18 L3241.24 1501.11 L3251.17 1511.04 Q3251.45 1511.32 3251.45 1511.74 Q3251.45 1512.14 3251.17 1512.37 Z" fill="#000000" fill-rule="evenodd" fill-opacity="1" /><path clip-path="url(#clip850)" d="M3274.06 1485.72 L3274.06 1484.22 Q3279.82 1484.22 3282.79 1481.15 Q3283.61 1481.15 3283.75 1481.34 Q3283.89 1481.53 3283.89 1482.39 L3283.89 1509.3 Q3283.89 1510.73 3284.6 1511.18 Q3285.3 1511.62 3288.37 1511.62 L3289.89 1511.62 L3289.89 1513.1 Q3288.2 1512.96 3282.11 1512.96 Q3276.02 1512.96 3274.36 1513.1 L3274.36 1511.62 L3275.88 1511.62 Q3278.9 1511.62 3279.63 1511.2 Q3280.36 1510.76 3280.36 1509.3 L3280.36 1484.45 Q3277.85 1485.72 3274.06 1485.72 Z" fill="#000000" fill-rule="evenodd" fill-opacity="1" /><path clip-path="url(#clip850)" d="M3297.81 1497.76 Q3297.81 1490.71 3299.59 1486.87 Q3302.07 1481.15 3307.92 1481.15 Q3309.17 1481.15 3310.45 1481.5 Q3311.77 1481.83 3313.41 1483.12 Q3315.07 1484.41 3316.08 1486.51 Q3318 1490.59 3318 1497.76 Q3318 1504.76 3316.22 1508.58 Q3313.62 1514.15 3307.88 1514.15 Q3305.72 1514.15 3303.52 1513.05 Q3301.34 1511.95 3299.96 1509.3 Q3297.81 1505.35 3297.81 1497.76 M3301.79 1497.17 Q3301.79 1504.41 3302.3 1507.29 Q3302.89 1510.41 3304.48 1511.76 Q3306.1 1513.1 3307.88 1513.1 Q3309.8 1513.1 3311.39 1511.67 Q3313.01 1510.22 3313.5 1507.1 Q3314.04 1504.03 3314.01 1497.17 Q3314.01 1490.5 3313.55 1487.83 Q3312.91 1484.71 3311.23 1483.47 Q3309.56 1482.2 3307.88 1482.2 Q3307.25 1482.2 3306.57 1482.39 Q3305.91 1482.58 3304.95 1483.12 Q3303.99 1483.66 3303.24 1484.99 Q3302.51 1486.33 3302.16 1488.34 Q3301.79 1490.94 3301.79 1497.17 Z" fill="#000000" fill-rule="evenodd" fill-opacity="1" /><path clip-path="url(#clip850)" d="M3345.08 1479.23 Q3345.27 1479.43 3345.27 1479.71 Q3345.27 1479.99 3345.08 1480.18 Q3344.88 1480.38 3344.6 1480.38 L3323.58 1480.38 Q3323.3 1480.38 3323.11 1480.18 Q3322.91 1479.99 3322.91 1479.71 Q3322.91 1479.43 3323.11 1479.23 Q3323.3 1479.04 3323.58 1479.04 L3344.6 1479.04 Q3344.88 1479.04 3345.08 1479.23 Z" fill="#000000" fill-rule="evenodd" fill-opacity="1" /><path clip-path="url(#clip850)" d="M3348.77 1488.1 Q3348.77 1487.5 3348.82 1487.32 Q3348.89 1487.14 3349.15 1486.86 L3355.59 1479.68 Q3359.12 1475.71 3359.12 1472.25 Q3359.12 1470 3357.94 1468.4 Q3356.77 1466.79 3354.63 1466.79 Q3353.15 1466.79 3351.9 1467.69 Q3350.66 1468.59 3350.08 1470.2 Q3350.18 1470.17 3350.53 1470.17 Q3351.36 1470.17 3351.82 1470.69 Q3352.3 1471.22 3352.3 1471.92 Q3352.3 1472.82 3351.71 1473.26 Q3351.13 1473.69 3350.56 1473.69 Q3350.33 1473.69 3350.02 1473.64 Q3349.72 1473.59 3349.25 1473.13 Q3348.77 1472.66 3348.77 1471.82 Q3348.77 1469.48 3350.54 1467.61 Q3352.33 1465.74 3355.05 1465.74 Q3358.14 1465.74 3360.15 1467.58 Q3362.18 1469.4 3362.18 1472.25 Q3362.18 1473.25 3361.87 1474.17 Q3361.58 1475.07 3361.17 1475.77 Q3360.77 1476.48 3359.69 1477.61 Q3358.61 1478.74 3357.74 1479.54 Q3356.87 1480.35 3354.92 1482.05 L3351.36 1485.51 L3357.41 1485.51 Q3360.37 1485.51 3360.59 1485.25 Q3360.92 1484.77 3361.33 1482.27 L3362.18 1482.27 L3361.23 1488.1 L3348.77 1488.1 Z" fill="#000000" fill-rule="evenodd" fill-opacity="1" /><path clip-path="url(#clip850)" d="M1321.83 1558.15 Q1321.83 1558.4 1321.54 1559.4 Q1321.25 1560.4 1320.54 1561.95 Q1319.87 1563.49 1318.93 1564.91 Q1318 1566.29 1316.45 1567.32 Q1314.94 1568.32 1313.2 1568.32 Q1310.88 1568.32 1309.34 1566.78 Q1307.79 1565.23 1307.79 1562.91 Q1307.79 1562.59 1307.82 1562.27 Q1307.85 1561.95 1307.89 1561.75 Q1307.92 1561.53 1308.01 1561.17 Q1308.14 1560.79 1308.18 1560.62 Q1308.24 1560.46 1308.4 1559.98 Q1308.59 1559.47 1308.66 1559.27 Q1312.75 1548.84 1312.75 1544.49 Q1312.75 1539.88 1309.17 1539.88 Q1305.99 1539.88 1302.83 1542.2 Q1301.38 1543.36 1300 1545.42 Q1298.61 1547.48 1298.35 1548.26 Q1298.06 1549.93 1297.64 1551.22 Q1297.45 1552.12 1296.52 1555.63 L1295.07 1561.59 L1293.81 1566.58 Q1293.55 1567.29 1292.85 1567.81 Q1292.14 1568.32 1291.36 1568.32 Q1290.72 1568.32 1290.08 1567.87 Q1289.46 1567.45 1289.46 1566.45 Q1289.46 1565.94 1289.72 1565 L1299.29 1527 L1299.48 1525.71 Q1299.48 1525.33 1299.32 1525.13 Q1299.19 1524.91 1298.42 1524.75 Q1297.68 1524.59 1296.2 1524.59 Q1295.58 1524.59 1295.29 1524.55 Q1295.04 1524.52 1294.81 1524.36 Q1294.59 1524.17 1294.59 1523.78 Q1294.59 1523.23 1294.81 1522.94 Q1295.07 1522.62 1295.26 1522.56 Q1295.45 1522.49 1295.84 1522.46 Q1296.39 1522.43 1298.22 1522.27 Q1300.06 1522.07 1301.64 1521.95 Q1303.22 1521.82 1303.89 1521.82 Q1304.28 1521.82 1304.47 1522.01 Q1304.7 1522.17 1304.73 1522.36 L1304.76 1522.53 L1299.61 1543.49 Q1303.7 1538.44 1309.37 1538.44 Q1313.04 1538.44 1315 1540.34 Q1316.97 1542.2 1316.97 1545.49 Q1316.97 1549.26 1312.94 1559.98 Q1311.75 1562.98 1311.75 1564.68 Q1311.75 1565.81 1312.11 1566.33 Q1312.49 1566.84 1313.33 1566.84 Q1314.62 1566.84 1315.74 1566.1 Q1316.9 1565.33 1317.71 1564.07 Q1318.51 1562.78 1319.06 1561.49 Q1319.64 1560.17 1320.06 1558.69 Q1320.32 1557.89 1320.45 1557.69 Q1320.61 1557.5 1321.06 1557.5 Q1321.83 1557.5 1321.83 1558.15 Z" fill="#000000" fill-rule="evenodd" fill-opacity="1" /><polyline clip-path="url(#clip853)" style="stroke:#000000; stroke-linecap:butt; stroke-linejoin:round; stroke-width:2; stroke-opacity:0.1; fill:none" points="
  263.781,1402.46 2352.76,1402.46 
  "/>
<polyline clip-path="url(#clip853)" style="stroke:#000000; stroke-linecap:butt; stroke-linejoin:round; stroke-width:2; stroke-opacity:0.1; fill:none" points="
  263.781,1122.17 2352.76,1122.17 
  "/>
<polyline clip-path="url(#clip853)" style="stroke:#000000; stroke-linecap:butt; stroke-linejoin:round; stroke-width:2; stroke-opacity:0.1; fill:none" points="
  263.781,841.881 2352.76,841.881 
  "/>
<polyline clip-path="url(#clip853)" style="stroke:#000000; stroke-linecap:butt; stroke-linejoin:round; stroke-width:2; stroke-opacity:0.1; fill:none" points="
  263.781,561.59 2352.76,561.59 
  "/>
<polyline clip-path="url(#clip853)" style="stroke:#000000; stroke-linecap:butt; stroke-linejoin:round; stroke-width:2; stroke-opacity:0.1; fill:none" points="
  263.781,281.299 2352.76,281.299 
  "/>
<polyline clip-path="url(#clip850)" style="stroke:#000000; stroke-linecap:butt; stroke-linejoin:round; stroke-width:4; stroke-opacity:1; fill:none" points="
  263.781,1441.94 263.781,47.2441 
  "/>
<polyline clip-path="url(#clip850)" style="stroke:#000000; stroke-linecap:butt; stroke-linejoin:round; stroke-width:4; stroke-opacity:1; fill:none" points="
  263.781,1402.46 282.679,1402.46 
  "/>
<polyline clip-path="url(#clip850)" style="stroke:#000000; stroke-linecap:butt; stroke-linejoin:round; stroke-width:4; stroke-opacity:1; fill:none" points="
  263.781,1122.17 282.679,1122.17 
  "/>
<polyline clip-path="url(#clip850)" style="stroke:#000000; stroke-linecap:butt; stroke-linejoin:round; stroke-width:4; stroke-opacity:1; fill:none" points="
  263.781,841.881 282.679,841.881 
  "/>
<polyline clip-path="url(#clip850)" style="stroke:#000000; stroke-linecap:butt; stroke-linejoin:round; stroke-width:4; stroke-opacity:1; fill:none" points="
  263.781,561.59 282.679,561.59 
  "/>
<polyline clip-path="url(#clip850)" style="stroke:#000000; stroke-linecap:butt; stroke-linejoin:round; stroke-width:4; stroke-opacity:1; fill:none" points="
  263.781,281.299 282.679,281.299 
  "/>
<path clip-path="url(#clip850)" d="M120.837 1402.91 L150.513 1402.91 L150.513 1406.85 L120.837 1406.85 L120.837 1402.91 Z" fill="#000000" fill-rule="evenodd" fill-opacity="1" /><path clip-path="url(#clip850)" d="M171.184 1400.6 Q168.036 1400.6 166.184 1402.75 Q164.356 1404.91 164.356 1408.66 Q164.356 1412.38 166.184 1414.56 Q168.036 1416.71 171.184 1416.71 Q174.332 1416.71 176.161 1414.56 Q178.013 1412.38 178.013 1408.66 Q178.013 1404.91 176.161 1402.75 Q174.332 1400.6 171.184 1400.6 M180.467 1385.95 L180.467 1390.21 Q178.707 1389.37 176.902 1388.93 Q175.119 1388.49 173.36 1388.49 Q168.731 1388.49 166.277 1391.62 Q163.846 1394.74 163.499 1401.06 Q164.865 1399.05 166.925 1397.98 Q168.985 1396.9 171.462 1396.9 Q176.67 1396.9 179.68 1400.07 Q182.712 1403.22 182.712 1408.66 Q182.712 1413.98 179.564 1417.2 Q176.416 1420.41 171.184 1420.41 Q165.189 1420.41 162.018 1415.83 Q158.846 1411.22 158.846 1402.5 Q158.846 1394.3 162.735 1389.44 Q166.624 1384.56 173.175 1384.56 Q174.934 1384.56 176.717 1384.91 Q178.522 1385.25 180.467 1385.95 Z" fill="#000000" fill-rule="evenodd" fill-opacity="1" /><path clip-path="url(#clip850)" d="M190.767 1413.86 L195.652 1413.86 L195.652 1419.74 L190.767 1419.74 L190.767 1413.86 Z" fill="#000000" fill-rule="evenodd" fill-opacity="1" /><path clip-path="url(#clip850)" d="M215.837 1388.26 Q212.226 1388.26 210.397 1391.83 Q208.591 1395.37 208.591 1402.5 Q208.591 1409.6 210.397 1413.17 Q212.226 1416.71 215.837 1416.71 Q219.471 1416.71 221.277 1413.17 Q223.105 1409.6 223.105 1402.5 Q223.105 1395.37 221.277 1391.83 Q219.471 1388.26 215.837 1388.26 M215.837 1384.56 Q221.647 1384.56 224.702 1389.16 Q227.781 1393.75 227.781 1402.5 Q227.781 1411.22 224.702 1415.83 Q221.647 1420.41 215.837 1420.41 Q210.027 1420.41 206.948 1415.83 Q203.892 1411.22 203.892 1402.5 Q203.892 1393.75 206.948 1389.16 Q210.027 1384.56 215.837 1384.56 Z" fill="#000000" fill-rule="evenodd" fill-opacity="1" /><path clip-path="url(#clip850)" d="M121.833 1122.62 L151.508 1122.62 L151.508 1126.56 L121.833 1126.56 L121.833 1122.62 Z" fill="#000000" fill-rule="evenodd" fill-opacity="1" /><path clip-path="url(#clip850)" d="M161.647 1104.89 L180.004 1104.89 L180.004 1108.83 L165.93 1108.83 L165.93 1117.3 Q166.948 1116.95 167.967 1116.79 Q168.985 1116.6 170.004 1116.6 Q175.791 1116.6 179.17 1119.78 Q182.55 1122.95 182.55 1128.36 Q182.55 1133.94 179.078 1137.04 Q175.605 1140.12 169.286 1140.12 Q167.11 1140.12 164.842 1139.75 Q162.596 1139.38 160.189 1138.64 L160.189 1133.94 Q162.272 1135.08 164.494 1135.63 Q166.717 1136.19 169.193 1136.19 Q173.198 1136.19 175.536 1134.08 Q177.874 1131.98 177.874 1128.36 Q177.874 1124.75 175.536 1122.65 Q173.198 1120.54 169.193 1120.54 Q167.318 1120.54 165.443 1120.96 Q163.592 1121.37 161.647 1122.25 L161.647 1104.89 Z" fill="#000000" fill-rule="evenodd" fill-opacity="1" /><path clip-path="url(#clip850)" d="M191.763 1133.57 L196.647 1133.57 L196.647 1139.45 L191.763 1139.45 L191.763 1133.57 Z" fill="#000000" fill-rule="evenodd" fill-opacity="1" /><path clip-path="url(#clip850)" d="M206.878 1104.89 L225.235 1104.89 L225.235 1108.83 L211.161 1108.83 L211.161 1117.3 Q212.179 1116.95 213.198 1116.79 Q214.216 1116.6 215.235 1116.6 Q221.022 1116.6 224.402 1119.78 Q227.781 1122.95 227.781 1128.36 Q227.781 1133.94 224.309 1137.04 Q220.837 1140.12 214.517 1140.12 Q212.341 1140.12 210.073 1139.75 Q207.828 1139.38 205.42 1138.64 L205.42 1133.94 Q207.503 1135.08 209.726 1135.63 Q211.948 1136.19 214.425 1136.19 Q218.429 1136.19 220.767 1134.08 Q223.105 1131.98 223.105 1128.36 Q223.105 1124.75 220.767 1122.65 Q218.429 1120.54 214.425 1120.54 Q212.55 1120.54 210.675 1120.96 Q208.823 1121.37 206.878 1122.25 L206.878 1104.89 Z" fill="#000000" fill-rule="evenodd" fill-opacity="1" /><path clip-path="url(#clip850)" d="M120.837 842.332 L150.513 842.332 L150.513 846.268 L120.837 846.268 L120.837 842.332 Z" fill="#000000" fill-rule="evenodd" fill-opacity="1" /><path clip-path="url(#clip850)" d="M160.652 824.601 L179.008 824.601 L179.008 828.536 L164.934 828.536 L164.934 837.008 Q165.953 836.661 166.971 836.499 Q167.99 836.314 169.008 836.314 Q174.795 836.314 178.175 839.485 Q181.555 842.656 181.555 848.073 Q181.555 853.652 178.082 856.754 Q174.61 859.832 168.291 859.832 Q166.115 859.832 163.846 859.462 Q161.601 859.092 159.194 858.351 L159.194 853.652 Q161.277 854.786 163.499 855.342 Q165.721 855.897 168.198 855.897 Q172.203 855.897 174.541 853.791 Q176.879 851.684 176.879 848.073 Q176.879 844.462 174.541 842.356 Q172.203 840.249 168.198 840.249 Q166.323 840.249 164.448 840.666 Q162.596 841.082 160.652 841.962 L160.652 824.601 Z" fill="#000000" fill-rule="evenodd" fill-opacity="1" /><path clip-path="url(#clip850)" d="M190.767 853.281 L195.652 853.281 L195.652 859.161 L190.767 859.161 L190.767 853.281 Z" fill="#000000" fill-rule="evenodd" fill-opacity="1" /><path clip-path="url(#clip850)" d="M215.837 827.68 Q212.226 827.68 210.397 831.244 Q208.591 834.786 208.591 841.916 Q208.591 849.022 210.397 852.587 Q212.226 856.129 215.837 856.129 Q219.471 856.129 221.277 852.587 Q223.105 849.022 223.105 841.916 Q223.105 834.786 221.277 831.244 Q219.471 827.68 215.837 827.68 M215.837 823.976 Q221.647 823.976 224.702 828.582 Q227.781 833.166 227.781 841.916 Q227.781 850.643 224.702 855.249 Q221.647 859.832 215.837 859.832 Q210.027 859.832 206.948 855.249 Q203.892 850.643 203.892 841.916 Q203.892 833.166 206.948 828.582 Q210.027 823.976 215.837 823.976 Z" fill="#000000" fill-rule="evenodd" fill-opacity="1" /><path clip-path="url(#clip850)" d="M121.833 562.041 L151.508 562.041 L151.508 565.977 L121.833 565.977 L121.833 562.041 Z" fill="#000000" fill-rule="evenodd" fill-opacity="1" /><path clip-path="url(#clip850)" d="M174.448 548.384 L162.643 566.833 L174.448 566.833 L174.448 548.384 M173.221 544.31 L179.101 544.31 L179.101 566.833 L184.031 566.833 L184.031 570.722 L179.101 570.722 L179.101 578.87 L174.448 578.87 L174.448 570.722 L158.846 570.722 L158.846 566.208 L173.221 544.31 Z" fill="#000000" fill-rule="evenodd" fill-opacity="1" /><path clip-path="url(#clip850)" d="M191.763 572.99 L196.647 572.99 L196.647 578.87 L191.763 578.87 L191.763 572.99 Z" fill="#000000" fill-rule="evenodd" fill-opacity="1" /><path clip-path="url(#clip850)" d="M206.878 544.31 L225.235 544.31 L225.235 548.245 L211.161 548.245 L211.161 556.717 Q212.179 556.37 213.198 556.208 Q214.216 556.023 215.235 556.023 Q221.022 556.023 224.402 559.194 Q227.781 562.365 227.781 567.782 Q227.781 573.361 224.309 576.463 Q220.837 579.541 214.517 579.541 Q212.341 579.541 210.073 579.171 Q207.828 578.801 205.42 578.06 L205.42 573.361 Q207.503 574.495 209.726 575.051 Q211.948 575.606 214.425 575.606 Q218.429 575.606 220.767 573.5 Q223.105 571.393 223.105 567.782 Q223.105 564.171 220.767 562.065 Q218.429 559.958 214.425 559.958 Q212.55 559.958 210.675 560.375 Q208.823 560.791 206.878 561.671 L206.878 544.31 Z" fill="#000000" fill-rule="evenodd" fill-opacity="1" /><path clip-path="url(#clip850)" d="M120.837 281.75 L150.513 281.75 L150.513 285.686 L120.837 285.686 L120.837 281.75 Z" fill="#000000" fill-rule="evenodd" fill-opacity="1" /><path clip-path="url(#clip850)" d="M173.453 268.093 L161.647 286.542 L173.453 286.542 L173.453 268.093 M172.226 264.019 L178.105 264.019 L178.105 286.542 L183.036 286.542 L183.036 290.431 L178.105 290.431 L178.105 298.579 L173.453 298.579 L173.453 290.431 L157.851 290.431 L157.851 285.917 L172.226 264.019 Z" fill="#000000" fill-rule="evenodd" fill-opacity="1" /><path clip-path="url(#clip850)" d="M190.767 292.699 L195.652 292.699 L195.652 298.579 L190.767 298.579 L190.767 292.699 Z" fill="#000000" fill-rule="evenodd" fill-opacity="1" /><path clip-path="url(#clip850)" d="M215.837 267.098 Q212.226 267.098 210.397 270.662 Q208.591 274.204 208.591 281.334 Q208.591 288.44 210.397 292.005 Q212.226 295.547 215.837 295.547 Q219.471 295.547 221.277 292.005 Q223.105 288.44 223.105 281.334 Q223.105 274.204 221.277 270.662 Q219.471 267.098 215.837 267.098 M215.837 263.394 Q221.647 263.394 224.702 268 Q227.781 272.584 227.781 281.334 Q227.781 290.061 224.702 294.667 Q221.647 299.25 215.837 299.25 Q210.027 299.25 206.948 294.667 Q203.892 290.061 203.892 281.334 Q203.892 272.584 206.948 268 Q210.027 263.394 215.837 263.394 Z" fill="#000000" fill-rule="evenodd" fill-opacity="1" /><path clip-path="url(#clip850)" d="M75.2041 897.059 L13.7875 897.059 Q11.3399 897.059 11.3399 895.738 Q11.3399 894.418 13.3044 894.418 L74.721 894.418 Q77.1687 894.418 77.1687 895.738 Q77.1687 897.059 75.2041 897.059 Z" fill="#000000" fill-rule="evenodd" fill-opacity="1" /><path clip-path="url(#clip850)" d="M75.2041 879.338 L13.7875 879.338 Q11.3399 879.338 11.3399 878.017 Q11.3399 876.697 13.3044 876.697 L74.721 876.697 Q77.1687 876.697 77.1687 878.017 Q77.1687 879.338 75.2041 879.338 Z" fill="#000000" fill-rule="evenodd" fill-opacity="1" /><path clip-path="url(#clip850)" d="M18.7794 833.75 Q20.5508 833.75 21.6458 834.877 Q22.7408 835.972 22.7408 837.357 Q22.7408 838.355 22.1289 839.096 Q21.5169 839.805 20.4541 839.805 Q19.3591 839.805 18.1997 838.967 Q17.0403 838.13 16.8793 836.23 Q15.6877 837.486 15.6877 839.483 Q15.6877 840.481 16.3318 841.318 Q16.9437 842.123 17.9421 842.574 Q18.9727 843.057 24.8019 844.152 Q26.7021 844.507 28.5378 844.829 Q30.3736 845.151 32.3059 845.537 L32.3059 840.062 Q32.3059 839.354 32.3381 839.064 Q32.3703 838.774 32.5313 838.549 Q32.6924 838.291 33.0466 838.291 Q33.9484 838.291 34.1738 838.71 Q34.3671 839.096 34.3671 840.256 L34.3671 845.924 L55.2687 849.885 Q55.8806 849.982 57.8129 850.4 Q59.7131 850.787 62.8371 851.721 Q65.9932 852.655 67.8612 853.589 Q68.924 854.104 69.9223 854.78 Q70.9529 855.425 71.9835 856.358 Q73.0141 857.292 73.626 858.516 Q74.2701 859.74 74.2701 861.028 Q74.2701 863.218 73.0463 864.925 Q71.8225 866.632 69.7291 866.632 Q67.9578 866.632 66.8628 865.537 Q65.7678 864.41 65.7678 863.025 Q65.7678 862.027 66.3797 861.318 Q66.9916 860.577 68.0544 860.577 Q68.5053 860.577 69.0206 860.738 Q69.5359 860.9 70.1156 861.254 Q70.7275 861.608 71.1462 862.381 Q71.5648 863.154 71.6293 864.217 Q72.8209 862.961 72.8209 861.028 Q72.8209 860.416 72.5632 859.869 Q72.3378 859.321 71.7581 858.871 Q71.1784 858.387 70.5987 858.033 Q70.0512 857.679 68.9884 857.325 Q67.9578 856.97 67.1849 856.745 Q66.4119 856.52 65.0271 856.23 Q63.6422 855.908 62.8049 855.747 Q61.9997 855.586 60.4216 855.296 L34.3671 850.368 L34.3671 854.716 Q34.3671 855.489 34.3349 855.811 Q34.3027 856.101 34.1416 856.326 Q33.9484 856.552 33.5619 856.552 Q32.95 856.552 32.6924 856.294 Q32.4025 856.004 32.3703 855.682 Q32.3059 855.36 32.3059 854.587 L32.3059 850.014 Q24.1578 848.468 21.9678 847.856 Q19.649 847.148 18.0387 846.053 Q16.3962 844.958 15.6233 843.734 Q14.8503 842.51 14.5605 841.512 Q14.2384 840.481 14.2384 839.483 Q14.2384 837.228 15.4622 835.489 Q16.6539 833.75 18.7794 833.75 Z" fill="#000000" fill-rule="evenodd" fill-opacity="1" /><path clip-path="url(#clip850)" d="M43.3203 772.793 Q43.7068 772.407 44.2543 772.407 Q44.8018 772.407 45.1882 772.793 Q45.5747 773.18 45.5747 773.727 L45.5747 815.015 Q45.5747 815.562 45.1882 815.949 Q44.8018 816.335 44.2543 816.335 Q43.7068 816.335 43.3203 815.949 Q42.9338 815.562 42.9338 815.015 L42.9338 773.727 Q42.9338 773.18 43.3203 772.793 Z" fill="#000000" fill-rule="evenodd" fill-opacity="1" /><path clip-path="url(#clip850)" d="M42.1287 712.758 Q46.8307 712.758 51.3718 715.141 Q55.9128 717.492 58.7147 721.196 Q61.4844 724.9 61.4844 728.668 Q61.4844 730.922 60.2606 732.436 Q59.0046 733.917 57.2332 734.723 Q59.4232 735.334 64.6728 736.655 Q69.9223 737.975 70.4376 737.975 Q70.7275 737.975 70.8563 737.911 Q70.9851 737.847 71.1462 737.557 Q71.3394 737.267 71.4038 736.558 Q71.5004 735.85 71.5004 734.658 Q71.5004 734.046 71.5004 733.821 Q71.5326 733.563 71.6937 733.338 Q71.8547 733.08 72.209 733.08 Q73.5294 733.08 73.5294 734.272 Q73.5294 735.334 73.4328 737.524 Q73.3362 739.714 73.3362 740.809 Q73.3362 741.743 73.4328 743.611 Q73.5294 745.479 73.5294 746.349 Q73.5294 747.218 72.7565 747.218 Q72.3056 747.218 72.0157 747.09 Q71.7581 746.993 71.6293 746.735 Q71.5326 746.478 71.5004 746.252 Q71.5004 746.059 71.5004 745.673 Q71.5004 744.191 71.2428 743.547 Q71.0173 742.903 70.5343 742.677 Q70.0834 742.42 68.7951 742.13 L39.4234 734.723 Q37.4588 734.272 36.074 734.272 Q34.3349 734.272 33.6908 734.819 Q33.0466 735.367 33.0466 736.333 Q33.0466 738.008 35.0434 739.103 Q37.0402 740.198 40.9049 741.132 Q41.9677 741.421 42.1931 741.615 Q42.4185 741.776 42.4185 742.259 Q42.3863 743.064 41.7422 743.064 Q41.5812 743.064 40.5506 742.806 Q39.4878 742.549 37.9419 742.066 Q36.3638 741.55 35.3655 741.003 Q34.6891 740.681 34.2383 740.391 Q33.7874 740.101 33.0788 739.521 Q32.3703 738.909 31.9838 738.04 Q31.5974 737.17 31.5974 736.107 Q31.5974 734.046 32.8212 732.339 Q34.045 730.632 36.5249 730.182 Q34.3671 728.346 32.9822 726.091 Q31.5974 723.837 31.5974 721.55 Q31.5974 717.75 34.5603 715.27 Q37.491 712.758 42.1287 712.758 M39.2302 717.525 Q36.2994 717.525 34.6891 718.652 Q33.0466 719.747 33.0466 721.744 Q33.0466 724.223 35.5587 727.09 Q37.9419 729.924 40.1641 730.504 L53.0787 733.756 L54.1415 733.95 Q54.3347 733.95 54.9144 733.853 Q55.4619 733.724 56.3637 733.37 Q57.2654 732.983 58.0706 732.468 Q58.8435 731.921 59.4232 730.954 Q60.0029 729.956 60.0029 728.732 Q60.0029 726.768 58.2638 724.642 Q56.5247 722.484 53.2397 720.874 Q51.1141 719.876 46.5409 718.716 Q41.9355 717.525 39.2302 717.525 Z" fill="#000000" fill-rule="evenodd" fill-opacity="1" /><path clip-path="url(#clip850)" d="M85.8323 683.397 Q86.0127 683.397 86.7115 683.6 Q87.4104 683.802 88.4925 684.298 Q89.5746 684.772 90.5666 685.426 Q91.536 686.079 92.2574 687.161 Q92.9563 688.221 92.9563 689.438 Q92.9563 691.062 91.8741 692.144 Q90.792 693.226 89.1688 693.226 Q88.9434 693.226 88.718 693.203 Q88.4925 693.181 88.3573 693.158 Q88.1994 693.136 87.9515 693.068 Q87.6809 692.978 87.5682 692.955 Q87.4555 692.91 87.1173 692.798 Q86.7566 692.662 86.6214 692.617 Q79.3171 689.754 76.2736 689.754 Q73.0498 689.754 73.0498 692.256 Q73.0498 694.488 74.673 696.698 Q75.4846 697.712 76.9274 698.682 Q78.3702 699.651 78.9113 699.831 Q80.0836 700.034 80.9853 700.327 Q81.6166 700.463 84.0739 701.116 L88.2445 702.131 L91.7389 703.01 Q92.2348 703.19 92.5955 703.686 Q92.9563 704.182 92.9563 704.723 Q92.9563 705.174 92.6406 705.625 Q92.3476 706.053 91.6487 706.053 Q91.288 706.053 90.6342 705.873 L64.0322 699.177 L63.1304 699.042 Q62.8599 699.042 62.7246 699.155 Q62.5668 699.245 62.4541 699.786 Q62.3414 700.305 62.3414 701.342 Q62.3414 701.77 62.3188 701.973 Q62.2963 702.153 62.1836 702.311 Q62.0483 702.469 61.7778 702.469 Q61.3945 702.469 61.1916 702.311 Q60.9662 702.131 60.9211 701.996 Q60.876 701.86 60.8535 701.59 Q60.8309 701.206 60.7182 699.921 Q60.5829 698.636 60.4927 697.532 Q60.4026 696.427 60.4026 695.954 Q60.4026 695.683 60.5378 695.548 Q60.6506 695.39 60.7858 695.368 L60.8985 695.345 L75.5748 698.952 Q72.0353 696.089 72.0353 692.121 Q72.0353 689.551 73.3654 688.176 Q74.673 686.801 76.9725 686.801 Q79.6101 686.801 87.1173 689.619 Q89.2139 690.453 90.4088 690.453 Q91.1978 690.453 91.5585 690.205 Q91.9192 689.934 91.9192 689.348 Q91.9192 688.447 91.4007 687.657 Q90.8597 686.846 89.9804 686.282 Q89.0787 685.719 88.1769 685.335 Q87.2526 684.93 86.2156 684.637 Q85.652 684.456 85.5167 684.366 Q85.3814 684.253 85.3814 683.938 Q85.3814 683.397 85.8323 683.397 Z" fill="#000000" fill-rule="evenodd" fill-opacity="1" /><path clip-path="url(#clip850)" d="M75.2041 676.581 L13.7875 676.581 Q11.3399 676.581 11.3399 675.26 Q11.3399 673.94 13.3044 673.94 L74.721 673.94 Q77.1687 673.94 77.1687 675.26 Q77.1687 676.581 75.2041 676.581 Z" fill="#000000" fill-rule="evenodd" fill-opacity="1" /><path clip-path="url(#clip850)" d="M75.2041 649.355 L13.7875 649.355 Q11.3399 649.355 11.3399 648.035 Q11.3399 646.714 13.3044 646.714 L74.721 646.714 Q77.1687 646.714 77.1687 648.035 Q77.1687 649.355 75.2041 649.355 Z" fill="#000000" fill-rule="evenodd" fill-opacity="1" /><path clip-path="url(#clip850)" d="M79.1723 598.766 Q81.9227 598.766 84.3124 599.848 Q86.6795 600.907 88.1674 602.982 Q89.6553 605.033 89.6553 607.626 Q89.6553 611.638 86.4541 615.471 Q85.8003 616.237 85.1916 616.779 Q84.5829 617.32 81.7874 619.619 Q82.4412 620.002 83.0499 620.408 Q83.636 620.814 84.9661 621.964 Q86.2962 623.113 87.2206 624.308 Q88.1449 625.481 88.9114 627.307 Q89.6553 629.11 89.6553 630.981 Q89.6553 632.965 88.7536 634.656 Q87.8292 636.324 86.3639 637.429 Q84.876 638.511 83.0274 639.12 Q81.1562 639.706 79.2174 639.706 Q76.467 639.706 74.0999 638.646 Q71.7102 637.564 70.2223 635.513 Q68.7344 633.439 68.7344 630.846 Q68.7344 626.811 71.9131 623.001 Q72.5669 622.234 73.1756 621.693 Q73.7843 621.152 76.5797 618.853 Q76.0838 618.56 75.6329 618.244 Q75.1595 617.928 74.1224 617.139 Q73.0854 616.35 72.2513 615.426 Q71.4171 614.479 70.5605 613.284 Q69.7038 612.089 69.2304 610.579 Q68.7344 609.068 68.7344 607.49 Q68.7344 605.506 69.6587 603.838 Q70.5605 602.147 72.0484 601.065 Q73.5137 599.961 75.3849 599.375 Q77.2335 598.766 79.1723 598.766 M79.1723 599.78 Q77.5717 599.78 76.0161 600.254 Q74.4606 600.727 73.153 601.629 Q71.8229 602.508 71.0113 603.951 Q70.1998 605.394 70.1998 607.152 Q70.1998 609.001 70.9888 610.714 Q71.7553 612.405 73.0629 613.735 Q74.3704 615.043 75.5878 615.944 Q76.8052 616.846 78.2029 617.635 Q78.6989 617.229 80.9984 615.494 Q83.2979 613.735 84.1095 612.991 Q87.4235 609.948 87.4235 606.882 Q87.4235 603.951 85.0338 601.877 Q82.6216 599.78 79.1723 599.78 M80.1868 620.836 Q79.7134 621.22 77.4139 623.001 Q75.0918 624.759 74.2802 625.503 Q70.9437 628.569 70.9437 631.59 Q70.9437 634.521 73.3559 636.617 Q75.7682 638.691 79.2174 638.691 Q80.818 638.691 82.3736 638.218 Q83.9291 637.745 85.2367 636.865 Q86.5442 635.964 87.3558 634.521 Q88.1674 633.078 88.1674 631.319 Q88.1674 629.832 87.6263 628.411 Q87.0853 626.968 86.2737 625.886 Q85.4621 624.804 84.3349 623.79 Q83.2077 622.775 82.2383 622.122 Q81.2689 621.445 80.1868 620.836 Z" fill="#000000" fill-rule="evenodd" fill-opacity="1" /><polyline clip-path="url(#clip853)" style="stroke:#009af9; stroke-linecap:butt; stroke-linejoin:round; stroke-width:4; stroke-opacity:1; fill:none" points="
  2205.17,86.7165 1611.07,425.089 1017.39,762.314 538.242,1035.01 
  "/>
<path clip-path="url(#clip853)" d="M2205.17 102.716 L2193.86 98.0285 L2189.17 86.7165 L2193.86 75.4045 L2205.17 70.7165 L2216.48 75.4045 L2221.17 86.7165 L2216.48 98.0285 Z" fill="#009af9" fill-rule="evenodd" fill-opacity="1" stroke="#000000" stroke-opacity="1" stroke-width="3.2"/>
<path clip-path="url(#clip853)" d="M1611.07 441.089 L1599.75 436.401 L1595.07 425.089 L1599.75 413.777 L1611.07 409.089 L1622.38 413.777 L1627.07 425.089 L1622.38 436.401 Z" fill="#009af9" fill-rule="evenodd" fill-opacity="1" stroke="#000000" stroke-opacity="1" stroke-width="3.2"/>
<path clip-path="url(#clip853)" d="M1017.39 778.314 L1006.08 773.626 L1001.39 762.314 L1006.08 751.002 L1017.39 746.314 L1028.7 751.002 L1033.39 762.314 L1028.7 773.626 Z" fill="#009af9" fill-rule="evenodd" fill-opacity="1" stroke="#000000" stroke-opacity="1" stroke-width="3.2"/>
<path clip-path="url(#clip853)" d="M538.242 1051.01 L526.93 1046.32 L522.242 1035.01 L526.93 1023.7 L538.242 1019.01 L549.554 1023.7 L554.242 1035.01 L549.554 1046.32 Z" fill="#009af9" fill-rule="evenodd" fill-opacity="1" stroke="#000000" stroke-opacity="1" stroke-width="3.2"/>
<polyline clip-path="url(#clip853)" style="stroke:#e26f46; stroke-linecap:butt; stroke-linejoin:round; stroke-width:4; stroke-opacity:1; fill:none" stroke-dasharray="16, 10" points="
  322.903,1402.46 2293.63,281.299 
  "/>
<path clip-path="url(#clip850)" d="
M333.414 804.922 L748.715 804.922 L748.715 623.926 L333.414 623.926  Z
  " fill="#ffffff" fill-rule="evenodd" fill-opacity="1"/>
<polyline clip-path="url(#clip850)" style="stroke:#000000; stroke-linecap:butt; stroke-linejoin:round; stroke-width:4; stroke-opacity:1; fill:none" points="
  333.414,804.922 748.715,804.922 748.715,623.926 333.414,623.926 333.414,804.922 
  "/>
<polyline clip-path="url(#clip850)" style="stroke:#009af9; stroke-linecap:butt; stroke-linejoin:round; stroke-width:4; stroke-opacity:1; fill:none" points="
  356.624,684.258 495.889,684.258 
  "/>
<path clip-path="url(#clip850)" d="M426.257 709.858 L408.158 702.357 L400.657 684.258 L408.158 666.158 L426.257 658.658 L444.356 666.158 L451.857 684.258 L444.356 702.357 Z" fill="#009af9" fill-rule="evenodd" fill-opacity="1" stroke="#000000" stroke-opacity="1" stroke-width="5.12"/>
<path clip-path="url(#clip850)" d="M530.998 678.598 Q527.572 678.598 525.582 681.283 Q523.591 683.945 523.591 688.598 Q523.591 693.251 525.559 695.936 Q527.549 698.598 530.998 698.598 Q534.401 698.598 536.392 695.913 Q538.383 693.228 538.383 688.598 Q538.383 683.991 536.392 681.306 Q534.401 678.598 530.998 678.598 M530.998 674.987 Q536.554 674.987 539.725 678.598 Q542.896 682.209 542.896 688.598 Q542.896 694.964 539.725 698.598 Q536.554 702.209 530.998 702.209 Q525.42 702.209 522.248 698.598 Q519.1 694.964 519.1 688.598 Q519.1 682.209 522.248 678.598 Q525.42 674.987 530.998 674.987 Z" fill="#000000" fill-rule="evenodd" fill-opacity="1" /><path clip-path="url(#clip850)" d="M569.308 698.135 L580.28 698.135 L580.28 675.612 L584.563 675.612 L584.563 701.538 L549.795 701.538 L549.795 675.612 L554.077 675.612 L554.077 698.135 L565.026 698.135 L565.026 675.612 L569.308 675.612 L569.308 698.135 Z" fill="#000000" fill-rule="evenodd" fill-opacity="1" /><path clip-path="url(#clip850)" d="M615.373 675.612 L615.373 701.538 L611.137 701.538 L611.137 680.728 L598.637 701.538 L593.174 701.538 L593.174 675.612 L597.41 675.612 L597.41 696.376 L609.887 675.612 L615.373 675.612 Z" fill="#000000" fill-rule="evenodd" fill-opacity="1" /><path clip-path="url(#clip850)" d="M634.424 674.987 Q639.979 674.987 643.151 678.598 Q646.322 682.209 646.322 688.598 Q646.322 694.964 643.151 698.598 Q639.979 702.209 634.424 702.209 Q628.845 702.209 625.766 698.69 Q622.688 695.172 622.526 688.598 L622.387 683.297 Q622.271 680.542 622.271 679.593 Q622.271 675.89 623.614 673.158 Q625.72 668.876 629.354 667.024 Q633.012 665.172 639.123 665.126 Q641.947 665.103 643.197 664.709 L644.377 668.089 Q643.243 668.552 642.201 668.575 L636.414 668.968 Q633.498 669.177 631.739 670.195 Q627.132 672.904 626.692 676.445 L626.53 677.742 Q629.539 674.987 634.424 674.987 M634.424 678.598 Q630.998 678.598 629.007 681.283 Q627.016 683.945 627.016 688.598 Q627.016 693.251 628.984 695.936 Q630.975 698.598 634.424 698.598 Q637.826 698.598 639.817 695.913 Q641.808 693.228 641.808 688.598 Q641.808 683.991 639.817 681.306 Q637.826 678.598 634.424 678.598 Z" fill="#000000" fill-rule="evenodd" fill-opacity="1" /><path clip-path="url(#clip850)" d="M653.22 675.612 L657.456 675.612 L657.456 687.788 L669.47 675.612 L674.701 675.612 L664.794 685.635 L675.974 701.538 L671.206 701.538 L662.016 688.459 L657.456 693.089 L657.456 701.538 L653.22 701.538 L653.22 675.612 Z" fill="#000000" fill-rule="evenodd" fill-opacity="1" /><path clip-path="url(#clip850)" d="M693.798 688.505 Q688.636 688.505 686.646 689.686 Q684.655 690.866 684.655 693.714 Q684.655 695.982 686.136 697.325 Q687.641 698.644 690.21 698.644 Q693.752 698.644 695.882 696.144 Q698.034 693.621 698.034 689.454 L698.034 688.505 L693.798 688.505 M702.294 686.746 L702.294 701.538 L698.034 701.538 L698.034 697.603 Q696.576 699.964 694.4 701.098 Q692.224 702.209 689.076 702.209 Q685.095 702.209 682.734 699.987 Q680.396 697.741 680.396 693.991 Q680.396 689.616 683.312 687.394 Q686.252 685.172 692.062 685.172 L698.034 685.172 L698.034 684.755 Q698.034 681.816 696.09 680.218 Q694.169 678.598 690.673 678.598 Q688.451 678.598 686.345 679.13 Q684.238 679.663 682.294 680.728 L682.294 676.792 Q684.632 675.89 686.831 675.45 Q689.03 674.987 691.113 674.987 Q696.738 674.987 699.516 677.904 Q702.294 680.82 702.294 686.746 Z" fill="#000000" fill-rule="evenodd" fill-opacity="1" /><polyline clip-path="url(#clip850)" style="stroke:#e26f46; stroke-linecap:butt; stroke-linejoin:round; stroke-width:4; stroke-opacity:1; fill:none" stroke-dasharray="16, 10" points="
  356.624,744.59 495.889,744.59 
  "/>
<path clip-path="url(#clip850)" d="M552.266 741.965 Q552.266 745.314 551.072 748.64 Q549.901 751.942 547.84 754.659 Q545.778 757.376 543.155 759.484 Q540.532 761.593 537.463 762.764 Q534.395 763.935 531.397 763.935 Q526.08 763.935 522.59 760.445 Q519.1 756.955 519.1 751.123 Q519.1 747.047 520.927 742.995 Q522.754 738.92 525.659 735.898 Q528.563 732.853 532.381 730.956 Q536.222 729.059 540.016 729.059 Q545.404 729.059 548.823 732.642 Q552.266 736.203 552.266 741.965 M547.98 740.091 Q547.98 737.514 547.254 735.57 Q546.528 733.603 545.31 732.478 Q544.115 731.354 542.687 730.815 Q541.281 730.253 539.735 730.253 Q536.737 730.253 533.528 732.197 Q530.32 734.141 527.931 737.748 Q526.642 739.716 525.705 742.082 Q524.768 744.424 524.347 746.508 Q523.925 748.57 523.738 750.022 Q523.574 751.474 523.574 752.481 Q523.574 757.166 525.822 759.93 Q528.071 762.693 531.678 762.693 Q534.512 762.693 537.276 761.03 Q540.04 759.344 541.937 756.931 Q543.624 754.847 544.865 752.341 Q546.13 749.834 546.762 747.539 Q547.395 745.244 547.676 743.393 Q547.98 741.543 547.98 740.091 Z" fill="#000000" fill-rule="evenodd" fill-opacity="1" /><path clip-path="url(#clip850)" d="M558.592 750.888 Q558.592 742.784 561.614 736.249 Q562.902 733.509 564.706 731.214 Q566.509 728.918 567.704 727.911 Q568.898 726.904 569.226 726.904 Q569.695 726.904 569.718 727.372 Q569.718 727.607 569.086 728.192 Q561.356 736.062 561.38 750.888 Q561.38 765.762 568.898 773.327 Q569.718 774.147 569.718 774.405 Q569.718 774.873 569.226 774.873 Q568.898 774.873 567.75 773.913 Q566.603 772.952 564.823 770.751 Q563.043 768.549 561.754 765.855 Q558.592 759.321 558.592 750.888 Z" fill="#000000" fill-rule="evenodd" fill-opacity="1" /><path clip-path="url(#clip850)" d="M600.547 756.018 Q600.547 756.205 600.337 756.931 Q600.126 757.658 599.61 758.782 Q599.119 759.906 598.439 760.937 Q597.76 761.944 596.636 762.693 Q595.535 763.419 594.27 763.419 Q592.584 763.419 591.459 762.295 Q590.335 761.171 590.335 759.484 Q590.335 759.25 590.359 759.016 Q590.382 758.782 590.405 758.641 Q590.429 758.477 590.499 758.22 Q590.593 757.939 590.616 757.821 Q590.663 757.704 590.78 757.353 Q590.921 756.978 590.968 756.838 Q593.942 749.249 593.942 746.087 Q593.942 742.737 591.342 742.737 Q589.024 742.737 586.728 744.424 Q585.674 745.267 584.667 746.766 Q583.66 748.265 583.472 748.827 Q583.262 750.045 582.957 750.982 Q582.817 751.638 582.137 754.191 L581.083 758.524 L580.17 762.155 Q579.982 762.67 579.467 763.045 Q578.952 763.419 578.39 763.419 Q577.921 763.419 577.453 763.092 Q577.008 762.787 577.008 762.061 Q577.008 761.686 577.195 761.007 L584.152 733.368 L584.292 732.432 Q584.292 732.15 584.175 732.01 Q584.081 731.846 583.519 731.729 Q582.981 731.612 581.903 731.612 Q581.458 731.612 581.247 731.588 Q581.06 731.565 580.896 731.448 Q580.732 731.307 580.732 731.026 Q580.732 730.628 580.896 730.417 Q581.083 730.183 581.224 730.136 Q581.364 730.089 581.645 730.066 Q582.044 730.042 583.379 729.925 Q584.714 729.785 585.861 729.691 Q587.009 729.597 587.501 729.597 Q587.782 729.597 587.923 729.738 Q588.087 729.855 588.11 729.996 L588.133 730.113 L584.386 745.361 Q587.361 741.683 591.483 741.683 Q594.153 741.683 595.582 743.065 Q597.011 744.424 597.011 746.813 Q597.011 749.553 594.083 757.353 Q593.216 759.531 593.216 760.773 Q593.216 761.593 593.474 761.967 Q593.755 762.342 594.364 762.342 Q595.301 762.342 596.121 761.803 Q596.964 761.241 597.549 760.328 Q598.135 759.391 598.533 758.454 Q598.955 757.494 599.259 756.416 Q599.447 755.831 599.54 755.69 Q599.657 755.55 599.985 755.55 Q600.547 755.55 600.547 756.018 Z" fill="#000000" fill-rule="evenodd" fill-opacity="1" /><path clip-path="url(#clip850)" d="M605.425 736.572 Q605.425 735.966 605.474 735.785 Q605.539 735.605 605.802 735.326 L612.245 728.145 Q615.77 724.177 615.77 720.717 Q615.77 718.471 614.59 716.865 Q613.426 715.258 611.278 715.258 Q609.802 715.258 608.556 716.159 Q607.31 717.061 606.736 718.668 Q606.835 718.635 607.179 718.635 Q608.015 718.635 608.474 719.16 Q608.95 719.685 608.95 720.39 Q608.95 721.291 608.36 721.734 Q607.786 722.16 607.212 722.16 Q606.982 722.16 606.671 722.111 Q606.376 722.062 605.9 721.603 Q605.425 721.127 605.425 720.291 Q605.425 717.947 607.195 716.078 Q608.983 714.208 611.704 714.208 Q614.787 714.208 616.803 716.045 Q618.836 717.865 618.836 720.717 Q618.836 721.718 618.525 722.636 Q618.23 723.538 617.82 724.243 Q617.426 724.948 616.344 726.079 Q615.262 727.21 614.393 728.014 Q613.524 728.817 611.573 730.522 L608.015 733.982 L614.065 733.982 Q617.016 733.982 617.246 733.719 Q617.574 733.244 617.984 730.735 L618.836 730.735 L617.885 736.572 L605.425 736.572 Z" fill="#000000" fill-rule="evenodd" fill-opacity="1" /><path clip-path="url(#clip850)" d="M623.823 774.405 Q623.823 774.17 624.432 773.585 Q632.161 765.715 632.161 750.888 Q632.161 736.015 624.736 728.497 Q623.823 727.63 623.823 727.372 Q623.823 726.904 624.291 726.904 Q624.619 726.904 625.767 727.864 Q626.938 728.825 628.695 731.026 Q630.475 733.228 631.786 735.922 Q634.948 742.456 634.948 750.888 Q634.948 758.993 631.927 765.527 Q630.639 768.268 628.835 770.563 Q627.032 772.859 625.837 773.866 Q624.643 774.873 624.291 774.873 Q623.823 774.873 623.823 774.405 Z" fill="#000000" fill-rule="evenodd" fill-opacity="1" /></svg>
