<?xml version="1.0" encoding="utf-8"?>
<svg xmlns="http://www.w3.org/2000/svg" xmlns:xlink="http://www.w3.org/1999/xlink" width="600" height="400" viewBox="0 0 2400 1600">
<defs>
  <clipPath id="clip300">
    <rect x="0" y="0" width="2400" height="1600"/>
  </clipPath>
</defs>
<path clip-path="url(#clip300)" d="
M0 1600 L2400 1600 L2400 0 L0 0  Z
  " fill="#ffffff" fill-rule="evenodd" fill-opacity="1"/>
<defs>
  <clipPath id="clip301">
    <rect x="480" y="0" width="1681" height="1600"/>
  </clipPath>
</defs>
<path clip-path="url(#clip300)" d="
M530.625 250.96 L2352.76 250.96 L2352.76 47.2441 L530.625 47.2441  Z
  " fill="#ffffff" fill-rule="evenodd" fill-opacity="1"/>
<defs>
  <clipPath id="clip302">
    <rect x="530" y="47" width="1823" height="205"/>
  </clipPath>
</defs>
<polyline clip-path="url(#clip302)" style="stroke:#000000; stroke-linecap:butt; stroke-linejoin:round; stroke-width:2; stroke-opacity:0.1; fill:none" points="
  582.194,250.96 582.194,47.2441 
  "/>
<polyline clip-path="url(#clip302)" style="stroke:#000000; stroke-linecap:butt; stroke-linejoin:round; stroke-width:2; stroke-opacity:0.1; fill:none" points="
  1155.19,250.96 1155.19,47.2441 
  "/>
<polyline clip-path="url(#clip302)" style="stroke:#000000; stroke-linecap:butt; stroke-linejoin:round; stroke-width:2; stroke-opacity:0.1; fill:none" points="
  1728.19,250.96 1728.19,47.2441 
  "/>
<polyline clip-path="url(#clip302)" style="stroke:#000000; stroke-linecap:butt; stroke-linejoin:round; stroke-width:2; stroke-opacity:0.1; fill:none" points="
  2301.19,250.96 2301.19,47.2441 
  "/>
<polyline clip-path="url(#clip300)" style="stroke:#000000; stroke-linecap:butt; stroke-linejoin:round; stroke-width:4; stroke-opacity:1; fill:none" points="
  530.625,250.96 2352.76,250.96 
  "/>
<polyline clip-path="url(#clip300)" style="stroke:#000000; stroke-linecap:butt; stroke-linejoin:round; stroke-width:4; stroke-opacity:1; fill:none" points="
  582.194,250.96 582.194,232.063 
  "/>
<polyline clip-path="url(#clip300)" style="stroke:#000000; stroke-linecap:butt; stroke-linejoin:round; stroke-width:4; stroke-opacity:1; fill:none" points="
  1155.19,250.96 1155.19,232.063 
  "/>
<polyline clip-path="url(#clip300)" style="stroke:#000000; stroke-linecap:butt; stroke-linejoin:round; stroke-width:4; stroke-opacity:1; fill:none" points="
  1728.19,250.96 1728.19,232.063 
  "/>
<polyline clip-path="url(#clip300)" style="stroke:#000000; stroke-linecap:butt; stroke-linejoin:round; stroke-width:4; stroke-opacity:1; fill:none" points="
  2301.19,250.96 2301.19,232.063 
  "/>
<path clip-path="url(#clip300)" d="M572.576 307.697 L580.215 307.697 L580.215 281.331 L571.905 282.998 L571.905 278.739 L580.169 277.072 L584.845 277.072 L584.845 307.697 L592.484 307.697 L592.484 311.632 L572.576 311.632 L572.576 307.697 Z" fill="#000000" fill-rule="evenodd" fill-opacity="1" /><path clip-path="url(#clip300)" d="M1149.84 307.697 L1166.16 307.697 L1166.16 311.632 L1144.22 311.632 L1144.22 307.697 Q1146.88 304.942 1151.46 300.313 Q1156.07 295.66 1157.25 294.318 Q1159.5 291.794 1160.38 290.058 Q1161.28 288.299 1161.28 286.609 Q1161.28 283.855 1159.34 282.119 Q1157.41 280.382 1154.31 280.382 Q1152.11 280.382 1149.66 281.146 Q1147.23 281.91 1144.45 283.461 L1144.45 278.739 Q1147.28 277.605 1149.73 277.026 Q1152.18 276.447 1154.22 276.447 Q1159.59 276.447 1162.78 279.132 Q1165.98 281.818 1165.98 286.308 Q1165.98 288.438 1165.17 290.359 Q1164.38 292.257 1162.27 294.85 Q1161.7 295.521 1158.59 298.739 Q1155.49 301.933 1149.84 307.697 Z" fill="#000000" fill-rule="evenodd" fill-opacity="1" /><path clip-path="url(#clip300)" d="M1732.44 292.998 Q1735.79 293.716 1737.67 295.984 Q1739.57 298.253 1739.57 301.586 Q1739.57 306.702 1736.05 309.503 Q1732.53 312.304 1726.05 312.304 Q1723.87 312.304 1721.56 311.864 Q1719.27 311.447 1716.81 310.591 L1716.81 306.077 Q1718.76 307.211 1721.07 307.79 Q1723.39 308.368 1725.91 308.368 Q1730.31 308.368 1732.6 306.632 Q1734.91 304.896 1734.91 301.586 Q1734.91 298.53 1732.76 296.818 Q1730.63 295.081 1726.81 295.081 L1722.78 295.081 L1722.78 291.239 L1727 291.239 Q1730.45 291.239 1732.27 289.873 Q1734.1 288.484 1734.1 285.892 Q1734.1 283.23 1732.21 281.818 Q1730.33 280.382 1726.81 280.382 Q1724.89 280.382 1722.69 280.799 Q1720.49 281.216 1717.85 282.095 L1717.85 277.929 Q1720.52 277.188 1722.83 276.818 Q1725.17 276.447 1727.23 276.447 Q1732.55 276.447 1735.65 278.878 Q1738.76 281.285 1738.76 285.406 Q1738.76 288.276 1737.11 290.267 Q1735.47 292.234 1732.44 292.998 Z" fill="#000000" fill-rule="evenodd" fill-opacity="1" /><path clip-path="url(#clip300)" d="M2304.2 281.146 L2292.39 299.595 L2304.2 299.595 L2304.2 281.146 M2302.97 277.072 L2308.85 277.072 L2308.85 299.595 L2313.78 299.595 L2313.78 303.484 L2308.85 303.484 L2308.85 311.632 L2304.2 311.632 L2304.2 303.484 L2288.59 303.484 L2288.59 298.97 L2302.97 277.072 Z" fill="#000000" fill-rule="evenodd" fill-opacity="1" /><path clip-path="url(#clip300)" d="M1455.86 339.916 Q1455.86 341.719 1454.74 342.75 Q1453.61 343.748 1452.32 343.748 Q1451.1 343.748 1450.45 343.04 Q1449.81 342.331 1449.81 341.429 Q1449.81 340.206 1450.71 339.143 Q1451.61 338.08 1452.97 337.855 Q1451.64 337.017 1449.68 337.017 Q1448.39 337.017 1447.26 337.694 Q1446.17 338.37 1445.49 339.239 Q1444.85 340.109 1444.27 341.365 Q1443.72 342.589 1443.5 343.33 Q1443.3 344.038 1443.14 344.811 L1440.89 353.829 Q1439.79 358.112 1439.79 359.626 Q1439.79 361.494 1440.69 362.75 Q1441.6 363.974 1443.4 363.974 Q1444.11 363.974 1444.91 363.78 Q1445.72 363.555 1446.75 362.975 Q1447.81 362.363 1448.75 361.462 Q1449.71 360.528 1450.65 358.949 Q1451.58 357.371 1452.19 355.342 Q1452.39 354.634 1453.03 354.634 Q1453.83 354.634 1453.83 355.278 Q1453.83 355.826 1453.38 356.985 Q1452.97 358.112 1452.03 359.594 Q1451.13 361.043 1449.94 362.363 Q1448.75 363.652 1446.97 364.553 Q1445.2 365.455 1443.27 365.455 Q1440.5 365.455 1438.67 363.974 Q1436.83 362.492 1436.15 360.431 Q1435.99 360.721 1435.77 361.107 Q1435.54 361.494 1434.87 362.363 Q1434.22 363.201 1433.48 363.845 Q1432.74 364.457 1431.58 364.94 Q1430.45 365.455 1429.23 365.455 Q1427.68 365.455 1426.3 365.004 Q1424.95 364.553 1423.98 363.523 Q1423.01 362.492 1423.01 361.075 Q1423.01 359.497 1424.08 358.402 Q1425.17 357.275 1426.65 357.275 Q1427.59 357.275 1428.33 357.822 Q1429.1 358.37 1429.1 359.561 Q1429.1 360.882 1428.2 361.88 Q1427.3 362.879 1426.01 363.136 Q1427.33 363.974 1429.29 363.974 Q1431.42 363.974 1433.09 362.106 Q1434.77 360.238 1435.57 357.114 Q1437.57 349.61 1438.34 346.26 Q1439.12 342.879 1439.12 341.429 Q1439.12 340.077 1438.76 339.143 Q1438.41 338.209 1437.8 337.79 Q1437.22 337.339 1436.67 337.178 Q1436.15 337.017 1435.57 337.017 Q1434.61 337.017 1433.51 337.404 Q1432.45 337.79 1431.16 338.692 Q1429.91 339.562 1428.71 341.365 Q1427.52 343.169 1426.72 345.648 Q1426.56 346.389 1425.85 346.389 Q1425.07 346.357 1425.07 345.713 Q1425.07 345.165 1425.49 344.038 Q1425.94 342.879 1426.85 341.429 Q1427.78 339.98 1428.97 338.692 Q1430.2 337.372 1431.97 336.47 Q1433.77 335.568 1435.7 335.568 Q1436.57 335.568 1437.41 335.761 Q1438.28 335.922 1439.31 336.405 Q1440.37 336.888 1441.31 337.951 Q1442.24 339.014 1442.82 340.56 Q1443.21 339.819 1443.72 339.111 Q1444.27 338.402 1445.11 337.533 Q1445.98 336.631 1447.17 336.116 Q1448.39 335.568 1449.74 335.568 Q1451.07 335.568 1452.35 335.922 Q1453.64 336.244 1454.74 337.307 Q1455.86 338.338 1455.86 339.916 Z" fill="#000000" fill-rule="evenodd" fill-opacity="1" /><polyline clip-path="url(#clip302)" style="stroke:#000000; stroke-linecap:butt; stroke-linejoin:round; stroke-width:2; stroke-opacity:0.1; fill:none" points="
  530.625,69.0251 2352.76,69.0251 
  "/>
<polyline clip-path="url(#clip300)" style="stroke:#000000; stroke-linecap:butt; stroke-linejoin:round; stroke-width:4; stroke-opacity:1; fill:none" points="
  530.625,250.96 530.625,47.2441 
  "/>
<polyline clip-path="url(#clip300)" style="stroke:#000000; stroke-linecap:butt; stroke-linejoin:round; stroke-width:4; stroke-opacity:1; fill:none" points="
  530.625,69.0251 545.962,69.0251 
  "/>
<path clip-path="url(#clip300)" d="M474.717 82.3699 L482.356 82.3699 L482.356 56.0043 L474.046 57.671 L474.046 53.4117 L482.31 51.7451 L486.986 51.7451 L486.986 82.3699 L494.625 82.3699 L494.625 86.3051 L474.717 86.3051 L474.717 82.3699 Z" fill="#000000" fill-rule="evenodd" fill-opacity="1" /><polyline clip-path="url(#clip302)" style="stroke:#009af9; stroke-linecap:butt; stroke-linejoin:round; stroke-width:4; stroke-opacity:1; fill:none" points="
  582.194,69.0251 590.833,77.073 599.471,85.121 608.109,93.1689 616.747,101.217 625.385,109.265 634.023,117.313 642.662,125.361 651.3,133.409 659.938,141.457 
  668.576,149.505 677.214,157.553 685.852,165.6 694.49,173.648 703.129,181.696 711.767,189.744 720.405,197.792 729.043,205.84 737.681,213.888 746.319,221.936 
  754.957,229.179 763.596,229.179 772.234,229.179 780.872,229.179 789.51,229.179 798.148,229.179 806.786,229.179 815.424,229.179 824.063,229.179 832.701,229.179 
  841.339,229.179 849.977,229.179 858.615,229.179 867.253,229.179 875.892,229.179 884.53,229.179 893.168,229.179 901.806,229.179 910.444,229.179 919.082,229.179 
  927.72,229.179 936.359,229.179 944.997,229.179 953.635,229.179 962.273,229.179 970.911,229.179 979.549,229.179 988.187,229.179 996.826,229.179 1005.46,229.179 
  1014.1,229.179 1022.74,229.179 1031.38,229.179 1040.02,229.179 1048.65,229.179 1057.29,229.179 1065.93,229.179 1074.57,229.179 1083.21,229.179 1091.85,229.179 
  1100.48,229.179 1109.12,229.179 1117.76,229.179 1126.4,229.179 1135.04,229.179 1143.67,229.179 1152.31,229.179 1160.95,229.179 1169.59,229.179 1178.23,229.179 
  1186.86,229.179 1195.5,229.179 1204.14,229.179 1212.78,229.179 1221.42,229.179 1230.06,229.179 1238.69,229.179 1247.33,229.179 1255.97,229.179 1264.61,229.179 
  1273.25,229.179 1281.88,229.179 1290.52,229.179 1299.16,229.179 1307.8,229.179 1316.44,229.179 1325.08,229.179 1333.71,229.179 1342.35,229.179 1350.99,229.179 
  1359.63,229.179 1368.27,229.179 1376.9,229.179 1385.54,229.179 1394.18,229.179 1402.82,229.179 1411.46,229.179 1420.09,229.179 1428.73,229.179 1437.37,229.179 
  1446.01,229.179 1454.65,229.179 1463.29,229.179 1471.92,229.179 1480.56,229.179 1489.2,229.179 1497.84,229.179 1506.48,229.179 1515.11,229.179 1523.75,229.179 
  1532.39,229.179 1541.03,229.179 1549.67,229.179 1558.31,229.179 1566.94,229.179 1575.58,229.179 1584.22,229.179 1592.86,229.179 1601.5,229.179 1610.13,229.179 
  1618.77,229.179 1627.41,229.179 1636.05,229.179 1644.69,229.179 1653.32,229.179 1661.96,229.179 1670.6,229.179 1679.24,229.179 1687.88,229.179 1696.52,229.179 
  1705.15,229.179 1713.79,229.179 1722.43,229.179 1731.07,229.179 1739.71,229.179 1748.34,229.179 1756.98,229.179 1765.62,229.179 1774.26,229.179 1782.9,229.179 
  1791.54,229.179 1800.17,229.179 1808.81,229.179 1817.45,229.179 1826.09,229.179 1834.73,229.179 1843.36,229.179 1852,229.179 1860.64,229.179 1869.28,229.179 
  1877.92,229.179 1886.55,229.179 1895.19,229.179 1903.83,229.179 1912.47,229.179 1921.11,229.179 1929.75,229.179 1938.38,229.179 1947.02,229.179 1955.66,229.179 
  1964.3,229.179 1972.94,229.179 1981.57,229.179 1990.21,229.179 1998.85,229.179 2007.49,229.179 2016.13,229.179 2024.77,229.179 2033.4,229.179 2042.04,229.179 
  2050.68,229.179 2059.32,229.179 2067.96,229.179 2076.59,229.179 2085.23,229.179 2093.87,229.179 2102.51,229.179 2111.15,229.179 2119.79,229.179 2128.42,229.179 
  2137.06,229.179 2145.7,229.179 2154.34,229.179 2162.98,229.179 2171.61,229.179 2180.25,229.179 2188.89,229.179 2197.53,229.179 2206.17,229.179 2214.8,229.179 
  2223.44,229.179 2232.08,229.179 2240.72,229.179 2249.36,229.179 2258,229.179 2266.63,229.179 2275.27,229.179 2283.91,229.179 2292.55,229.179 2301.19,229.179 
  
  "/>
<circle clip-path="url(#clip302)" cx="582.194" cy="69.0251" r="14" fill="#e26f46" fill-rule="evenodd" fill-opacity="1" stroke="#000000" stroke-opacity="1" stroke-width="3.2"/>
<circle clip-path="url(#clip302)" cx="754.094" cy="229.179" r="14" fill="#e26f46" fill-rule="evenodd" fill-opacity="1" stroke="#000000" stroke-opacity="1" stroke-width="3.2"/>
<circle clip-path="url(#clip302)" cx="1785.49" cy="229.179" r="14" fill="#e26f46" fill-rule="evenodd" fill-opacity="1" stroke="#000000" stroke-opacity="1" stroke-width="3.2"/>
<circle clip-path="url(#clip302)" cx="2301.19" cy="229.179" r="14" fill="#e26f46" fill-rule="evenodd" fill-opacity="1" stroke="#000000" stroke-opacity="1" stroke-width="3.2"/>
<path clip-path="url(#clip300)" d="
M32.7312 157.715 L360.367 157.715 L360.367 54.0346 L32.7312 54.0346  Z
  " fill="#ffffff" fill-rule="evenodd" fill-opacity="1"/>
<polyline clip-path="url(#clip300)" style="stroke:#000000; stroke-linecap:butt; stroke-linejoin:round; stroke-width:4; stroke-opacity:1; fill:none" points="
  32.7312,157.715 360.367,157.715 360.367,54.0346 32.7312,54.0346 32.7312,157.715 
  "/>
<polyline clip-path="url(#clip300)" style="stroke:#009af9; stroke-linecap:butt; stroke-linejoin:round; stroke-width:4; stroke-opacity:1; fill:none" points="
  57.6777,105.875 207.357,105.875 
  "/>
<path clip-path="url(#clip300)" d="M248.9 100.678 Q247.396 100.678 247.396 104.034 L247.396 119.914 Q249.595 119.914 251.794 117.507 Q253.761 115.354 253.761 110.192 Q253.761 105.377 251.771 102.784 Q250.15 100.678 248.9 100.678 M248.9 97.0437 Q252.141 97.0437 255.081 100.099 Q258.252 103.363 258.252 110.192 Q258.252 116.465 255.081 120.192 Q252.095 123.71 247.396 123.71 L247.396 133.016 L243.16 133.016 L243.16 123.733 Q238.553 123.733 235.451 120.192 Q232.303 116.581 232.303 110.215 Q232.303 103.595 235.451 100.215 Q237.812 97.6918 241.655 97.0437 L241.655 100.817 Q240.127 101.349 238.785 103.155 Q236.794 105.817 236.794 110.215 Q236.794 114.891 238.785 117.553 Q240.567 119.937 243.16 119.937 L243.16 104.034 Q243.16 97.0437 248.9 97.0437 Z" fill="#000000" fill-rule="evenodd" fill-opacity="1" /><path clip-path="url(#clip300)" d="M285.15 131.025 L285.15 134.335 L260.521 134.335 L260.521 131.025 L285.15 131.025 Z" fill="#000000" fill-rule="evenodd" fill-opacity="1" /><path clip-path="url(#clip300)" d="M290.567 119.219 L298.206 119.219 L298.206 92.8539 L289.896 94.5205 L289.896 90.2613 L298.159 88.5946 L302.835 88.5946 L302.835 119.219 L310.474 119.219 L310.474 123.155 L290.567 123.155 L290.567 119.219 Z" fill="#000000" fill-rule="evenodd" fill-opacity="1" /><path clip-path="url(#clip300)" d="
M530.254 650.96 L2352.76 650.96 L2352.76 447.244 L530.254 447.244  Z
  " fill="#ffffff" fill-rule="evenodd" fill-opacity="1"/>
<defs>
  <clipPath id="clip303">
    <rect x="530" y="447" width="1824" height="205"/>
  </clipPath>
</defs>
<polyline clip-path="url(#clip303)" style="stroke:#000000; stroke-linecap:butt; stroke-linejoin:round; stroke-width:2; stroke-opacity:0.1; fill:none" points="
  581.835,650.96 581.835,447.244 
  "/>
<polyline clip-path="url(#clip303)" style="stroke:#000000; stroke-linecap:butt; stroke-linejoin:round; stroke-width:2; stroke-opacity:0.1; fill:none" points="
  1154.95,650.96 1154.95,447.244 
  "/>
<polyline clip-path="url(#clip303)" style="stroke:#000000; stroke-linecap:butt; stroke-linejoin:round; stroke-width:2; stroke-opacity:0.1; fill:none" points="
  1728.06,650.96 1728.06,447.244 
  "/>
<polyline clip-path="url(#clip303)" style="stroke:#000000; stroke-linecap:butt; stroke-linejoin:round; stroke-width:2; stroke-opacity:0.1; fill:none" points="
  2301.18,650.96 2301.18,447.244 
  "/>
<polyline clip-path="url(#clip300)" style="stroke:#000000; stroke-linecap:butt; stroke-linejoin:round; stroke-width:4; stroke-opacity:1; fill:none" points="
  530.254,650.96 2352.76,650.96 
  "/>
<polyline clip-path="url(#clip300)" style="stroke:#000000; stroke-linecap:butt; stroke-linejoin:round; stroke-width:4; stroke-opacity:1; fill:none" points="
  581.835,650.96 581.835,632.063 
  "/>
<polyline clip-path="url(#clip300)" style="stroke:#000000; stroke-linecap:butt; stroke-linejoin:round; stroke-width:4; stroke-opacity:1; fill:none" points="
  1154.95,650.96 1154.95,632.063 
  "/>
<polyline clip-path="url(#clip300)" style="stroke:#000000; stroke-linecap:butt; stroke-linejoin:round; stroke-width:4; stroke-opacity:1; fill:none" points="
  1728.06,650.96 1728.06,632.063 
  "/>
<polyline clip-path="url(#clip300)" style="stroke:#000000; stroke-linecap:butt; stroke-linejoin:round; stroke-width:4; stroke-opacity:1; fill:none" points="
  2301.18,650.96 2301.18,632.063 
  "/>
<path clip-path="url(#clip300)" d="M572.217 707.697 L579.855 707.697 L579.855 681.331 L571.545 682.998 L571.545 678.739 L579.809 677.072 L584.485 677.072 L584.485 707.697 L592.124 707.697 L592.124 711.632 L572.217 711.632 L572.217 707.697 Z" fill="#000000" fill-rule="evenodd" fill-opacity="1" /><path clip-path="url(#clip300)" d="M1149.6 707.697 L1165.92 707.697 L1165.92 711.632 L1143.98 711.632 L1143.98 707.697 Q1146.64 704.942 1151.22 700.313 Q1155.83 695.66 1157.01 694.318 Q1159.25 691.794 1160.13 690.058 Q1161.04 688.299 1161.04 686.609 Q1161.04 683.855 1159.09 682.119 Q1157.17 680.382 1154.07 680.382 Q1151.87 680.382 1149.42 681.146 Q1146.99 681.91 1144.21 683.461 L1144.21 678.739 Q1147.03 677.605 1149.49 677.026 Q1151.94 676.447 1153.98 676.447 Q1159.35 676.447 1162.54 679.132 Q1165.74 681.818 1165.74 686.308 Q1165.74 688.438 1164.93 690.359 Q1164.14 692.257 1162.03 694.85 Q1161.45 695.521 1158.35 698.739 Q1155.25 701.933 1149.6 707.697 Z" fill="#000000" fill-rule="evenodd" fill-opacity="1" /><path clip-path="url(#clip300)" d="M1732.31 692.998 Q1735.67 693.716 1737.54 695.984 Q1739.44 698.253 1739.44 701.586 Q1739.44 706.702 1735.92 709.503 Q1732.4 712.304 1725.92 712.304 Q1723.74 712.304 1721.43 711.864 Q1719.14 711.447 1716.68 710.591 L1716.68 706.077 Q1718.63 707.211 1720.94 707.79 Q1723.26 708.368 1725.78 708.368 Q1730.18 708.368 1732.47 706.632 Q1734.79 704.896 1734.79 701.586 Q1734.79 698.53 1732.63 696.818 Q1730.5 695.081 1726.68 695.081 L1722.66 695.081 L1722.66 691.239 L1726.87 691.239 Q1730.32 691.239 1732.15 689.873 Q1733.98 688.484 1733.98 685.892 Q1733.98 683.23 1732.08 681.818 Q1730.2 680.382 1726.68 680.382 Q1724.76 680.382 1722.56 680.799 Q1720.37 681.216 1717.73 682.095 L1717.73 677.929 Q1720.39 677.188 1722.7 676.818 Q1725.04 676.447 1727.1 676.447 Q1732.43 676.447 1735.53 678.878 Q1738.63 681.285 1738.63 685.406 Q1738.63 688.276 1736.99 690.267 Q1735.34 692.234 1732.31 692.998 Z" fill="#000000" fill-rule="evenodd" fill-opacity="1" /><path clip-path="url(#clip300)" d="M2304.18 681.146 L2292.38 699.595 L2304.18 699.595 L2304.18 681.146 M2302.96 677.072 L2308.84 677.072 L2308.84 699.595 L2313.77 699.595 L2313.77 703.484 L2308.84 703.484 L2308.84 711.632 L2304.18 711.632 L2304.18 703.484 L2288.58 703.484 L2288.58 698.97 L2302.96 677.072 Z" fill="#000000" fill-rule="evenodd" fill-opacity="1" /><path clip-path="url(#clip300)" d="M1455.68 739.916 Q1455.68 741.719 1454.55 742.75 Q1453.42 743.748 1452.14 743.748 Q1450.91 743.748 1450.27 743.04 Q1449.62 742.331 1449.62 741.429 Q1449.62 740.206 1450.53 739.143 Q1451.43 738.08 1452.78 737.855 Q1451.46 737.017 1449.5 737.017 Q1448.21 737.017 1447.08 737.694 Q1445.98 738.37 1445.31 739.239 Q1444.66 740.109 1444.08 741.365 Q1443.54 742.589 1443.31 743.33 Q1443.12 744.038 1442.96 744.811 L1440.7 753.829 Q1439.61 758.112 1439.61 759.626 Q1439.61 761.494 1440.51 762.75 Q1441.41 763.974 1443.21 763.974 Q1443.92 763.974 1444.73 763.78 Q1445.53 763.555 1446.56 762.975 Q1447.63 762.363 1448.56 761.462 Q1449.53 760.528 1450.46 758.949 Q1451.4 757.371 1452.01 755.342 Q1452.2 754.634 1452.84 754.634 Q1453.65 754.634 1453.65 755.278 Q1453.65 755.826 1453.2 756.985 Q1452.78 758.112 1451.85 759.594 Q1450.94 761.043 1449.75 762.363 Q1448.56 763.652 1446.79 764.553 Q1445.02 765.455 1443.09 765.455 Q1440.32 765.455 1438.48 763.974 Q1436.64 762.492 1435.97 760.431 Q1435.81 760.721 1435.58 761.107 Q1435.36 761.494 1434.68 762.363 Q1434.04 763.201 1433.3 763.845 Q1432.55 764.457 1431.4 764.94 Q1430.27 765.455 1429.04 765.455 Q1427.5 765.455 1426.11 765.004 Q1424.76 764.553 1423.79 763.523 Q1422.83 762.492 1422.83 761.075 Q1422.83 759.497 1423.89 758.402 Q1424.99 757.275 1426.47 757.275 Q1427.4 757.275 1428.14 757.822 Q1428.92 758.37 1428.92 759.561 Q1428.92 760.882 1428.01 761.88 Q1427.11 762.879 1425.82 763.136 Q1427.14 763.974 1429.11 763.974 Q1431.23 763.974 1432.91 762.106 Q1434.58 760.238 1435.39 757.114 Q1437.39 749.61 1438.16 746.26 Q1438.93 742.879 1438.93 741.429 Q1438.93 740.077 1438.58 739.143 Q1438.22 738.209 1437.61 737.79 Q1437.03 737.339 1436.48 737.178 Q1435.97 737.017 1435.39 737.017 Q1434.42 737.017 1433.33 737.404 Q1432.26 737.79 1430.98 738.692 Q1429.72 739.562 1428.53 741.365 Q1427.34 743.169 1426.53 745.648 Q1426.37 746.389 1425.66 746.389 Q1424.89 746.357 1424.89 745.713 Q1424.89 745.165 1425.31 744.038 Q1425.76 742.879 1426.66 741.429 Q1427.6 739.98 1428.79 738.692 Q1430.01 737.372 1431.78 736.47 Q1433.59 735.568 1435.52 735.568 Q1436.39 735.568 1437.22 735.761 Q1438.09 735.922 1439.12 736.405 Q1440.19 736.888 1441.12 737.951 Q1442.06 739.014 1442.64 740.56 Q1443.02 739.819 1443.54 739.111 Q1444.08 738.402 1444.92 737.533 Q1445.79 736.631 1446.98 736.116 Q1448.21 735.568 1449.56 735.568 Q1450.88 735.568 1452.17 735.922 Q1453.46 736.244 1454.55 737.307 Q1455.68 738.338 1455.68 739.916 Z" fill="#000000" fill-rule="evenodd" fill-opacity="1" /><polyline clip-path="url(#clip303)" style="stroke:#000000; stroke-linecap:butt; stroke-linejoin:round; stroke-width:2; stroke-opacity:0.1; fill:none" points="
  530.254,469.025 2352.76,469.025 
  "/>
<polyline clip-path="url(#clip300)" style="stroke:#000000; stroke-linecap:butt; stroke-linejoin:round; stroke-width:4; stroke-opacity:1; fill:none" points="
  530.254,650.96 530.254,447.244 
  "/>
<polyline clip-path="url(#clip300)" style="stroke:#000000; stroke-linecap:butt; stroke-linejoin:round; stroke-width:4; stroke-opacity:1; fill:none" points="
  530.254,469.025 545.594,469.025 
  "/>
<path clip-path="url(#clip300)" d="M474.347 482.37 L481.986 482.37 L481.986 456.004 L473.676 457.671 L473.676 453.412 L481.94 451.745 L486.616 451.745 L486.616 482.37 L494.254 482.37 L494.254 486.305 L474.347 486.305 L474.347 482.37 Z" fill="#000000" fill-rule="evenodd" fill-opacity="1" /><polyline clip-path="url(#clip303)" style="stroke:#009af9; stroke-linecap:butt; stroke-linejoin:round; stroke-width:4; stroke-opacity:1; fill:none" points="
  581.835,629.179 590.474,621.131 599.114,613.083 607.754,605.035 616.394,596.987 625.034,588.94 633.674,580.892 642.314,572.844 650.954,564.796 659.594,556.748 
  668.234,548.7 676.874,540.652 685.513,532.604 694.153,524.556 702.793,516.508 711.433,508.46 720.073,500.412 728.713,492.364 737.353,484.316 745.993,476.268 
  754.633,469.159 763.273,470.501 771.912,471.842 780.552,473.183 789.192,474.525 797.832,475.866 806.472,477.207 815.112,478.548 823.752,479.89 832.392,481.231 
  841.032,482.572 849.672,483.914 858.312,485.255 866.951,486.596 875.591,487.938 884.231,489.279 892.871,490.62 901.511,491.962 910.151,493.303 918.791,494.644 
  927.431,495.986 936.071,497.327 944.711,498.668 953.35,500.01 961.99,501.351 970.63,502.692 979.27,504.034 987.91,505.375 996.55,506.716 1005.19,508.058 
  1013.83,509.399 1022.47,510.74 1031.11,512.082 1039.75,513.423 1048.39,514.764 1057.03,516.106 1065.67,517.447 1074.31,518.788 1082.95,520.13 1091.59,521.471 
  1100.23,522.812 1108.87,524.154 1117.51,525.495 1126.15,526.836 1134.79,528.178 1143.43,529.519 1152.07,530.86 1160.71,532.201 1169.35,533.543 1177.99,534.884 
  1186.63,536.225 1195.27,537.567 1203.91,538.908 1212.55,540.249 1221.19,541.591 1229.83,542.932 1238.47,544.273 1247.11,545.615 1255.75,546.956 1264.39,548.297 
  1273.03,549.639 1281.67,550.98 1290.31,552.321 1298.95,553.663 1307.59,555.004 1316.23,556.345 1324.87,557.687 1333.51,559.028 1342.15,560.369 1350.79,561.711 
  1359.43,563.052 1368.07,564.393 1376.71,565.735 1385.35,567.076 1393.99,568.417 1402.63,569.759 1411.27,571.1 1419.91,572.441 1428.55,573.783 1437.19,575.124 
  1445.83,576.465 1454.46,577.807 1463.1,579.148 1471.74,580.489 1480.38,581.831 1489.02,583.172 1497.66,584.513 1506.3,585.854 1514.94,587.196 1523.58,588.537 
  1532.22,589.878 1540.86,591.22 1549.5,592.561 1558.14,593.902 1566.78,595.244 1575.42,596.585 1584.06,597.926 1592.7,599.268 1601.34,600.609 1609.98,601.95 
  1618.62,603.292 1627.26,604.633 1635.9,605.974 1644.54,607.316 1653.18,608.657 1661.82,609.998 1670.46,611.34 1679.1,612.681 1687.74,614.022 1696.38,615.364 
  1705.02,616.705 1713.66,618.046 1722.3,619.388 1730.94,620.729 1739.58,622.07 1748.22,623.412 1756.86,624.753 1765.5,626.094 1774.14,627.436 1782.78,628.777 
  1791.42,629.179 1800.06,629.179 1808.7,629.179 1817.34,629.179 1825.98,629.179 1834.62,629.179 1843.26,629.179 1851.9,629.179 1860.54,629.179 1869.18,629.179 
  1877.82,629.179 1886.46,629.179 1895.1,629.179 1903.74,629.179 1912.38,629.179 1921.02,629.179 1929.66,629.179 1938.3,629.179 1946.94,629.179 1955.58,629.179 
  1964.22,629.179 1972.86,629.179 1981.5,629.179 1990.14,629.179 1998.78,629.179 2007.42,629.179 2016.06,629.179 2024.7,629.179 2033.34,629.179 2041.98,629.179 
  2050.62,629.179 2059.26,629.179 2067.9,629.179 2076.54,629.179 2085.18,629.179 2093.82,629.179 2102.46,629.179 2111.1,629.179 2119.74,629.179 2128.38,629.179 
  2137.02,629.179 2145.66,629.179 2154.3,629.179 2162.94,629.179 2171.58,629.179 2180.22,629.179 2188.86,629.179 2197.5,629.179 2206.14,629.179 2214.78,629.179 
  2223.42,629.179 2232.06,629.179 2240.7,629.179 2249.34,629.179 2257.98,629.179 2266.62,629.179 2275.26,629.179 2283.9,629.179 2292.54,629.179 2301.18,629.179 
  
  "/>
<circle clip-path="url(#clip303)" cx="581.835" cy="629.179" r="14" fill="#e26f46" fill-rule="evenodd" fill-opacity="1" stroke="#000000" stroke-opacity="1" stroke-width="3.2"/>
<circle clip-path="url(#clip303)" cx="753.769" cy="469.025" r="14" fill="#e26f46" fill-rule="evenodd" fill-opacity="1" stroke="#000000" stroke-opacity="1" stroke-width="3.2"/>
<circle clip-path="url(#clip303)" cx="1785.37" cy="629.179" r="14" fill="#e26f46" fill-rule="evenodd" fill-opacity="1" stroke="#000000" stroke-opacity="1" stroke-width="3.2"/>
<circle clip-path="url(#clip303)" cx="2301.18" cy="629.179" r="14" fill="#e26f46" fill-rule="evenodd" fill-opacity="1" stroke="#000000" stroke-opacity="1" stroke-width="3.2"/>
<path clip-path="url(#clip300)" d="
M32.7312 557.715 L359.997 557.715 L359.997 454.035 L32.7312 454.035  Z
  " fill="#ffffff" fill-rule="evenodd" fill-opacity="1"/>
<polyline clip-path="url(#clip300)" style="stroke:#000000; stroke-linecap:butt; stroke-linejoin:round; stroke-width:4; stroke-opacity:1; fill:none" points="
  32.7312,557.715 359.997,557.715 359.997,454.035 32.7312,454.035 32.7312,557.715 
  "/>
<polyline clip-path="url(#clip300)" style="stroke:#009af9; stroke-linecap:butt; stroke-linejoin:round; stroke-width:4; stroke-opacity:1; fill:none" points="
  57.6777,505.875 207.357,505.875 
  "/>
<path clip-path="url(#clip300)" d="M248.9 500.678 Q247.396 500.678 247.396 504.034 L247.396 519.914 Q249.595 519.914 251.794 517.507 Q253.761 515.354 253.761 510.192 Q253.761 505.377 251.771 502.784 Q250.15 500.678 248.9 500.678 M248.9 497.044 Q252.141 497.044 255.081 500.099 Q258.252 503.363 258.252 510.192 Q258.252 516.465 255.081 520.192 Q252.095 523.71 247.396 523.71 L247.396 533.016 L243.16 533.016 L243.16 523.733 Q238.553 523.733 235.451 520.192 Q232.303 516.581 232.303 510.215 Q232.303 503.595 235.451 500.215 Q237.812 497.692 241.655 497.044 L241.655 500.817 Q240.127 501.349 238.785 503.155 Q236.794 505.817 236.794 510.215 Q236.794 514.891 238.785 517.553 Q240.567 519.937 243.16 519.937 L243.16 504.034 Q243.16 497.044 248.9 497.044 Z" fill="#000000" fill-rule="evenodd" fill-opacity="1" /><path clip-path="url(#clip300)" d="M285.15 531.025 L285.15 534.335 L260.521 534.335 L260.521 531.025 L285.15 531.025 Z" fill="#000000" fill-rule="evenodd" fill-opacity="1" /><path clip-path="url(#clip300)" d="M293.784 519.219 L310.104 519.219 L310.104 523.155 L288.159 523.155 L288.159 519.219 Q290.821 516.465 295.405 511.835 Q300.011 507.182 301.192 505.84 Q303.437 503.317 304.317 501.581 Q305.22 499.821 305.22 498.132 Q305.22 495.377 303.275 493.641 Q301.354 491.905 298.252 491.905 Q296.053 491.905 293.599 492.669 Q291.169 493.433 288.391 494.983 L288.391 490.261 Q291.215 489.127 293.669 488.548 Q296.122 487.97 298.159 487.97 Q303.53 487.97 306.724 490.655 Q309.919 493.34 309.919 497.831 Q309.919 499.96 309.108 501.882 Q308.321 503.78 306.215 506.372 Q305.636 507.044 302.534 510.261 Q299.432 513.456 293.784 519.219 Z" fill="#000000" fill-rule="evenodd" fill-opacity="1" /><path clip-path="url(#clip300)" d="
M531.203 1050.96 L2352.76 1050.96 L2352.76 847.244 L531.203 847.244  Z
  " fill="#ffffff" fill-rule="evenodd" fill-opacity="1"/>
<defs>
  <clipPath id="clip304">
    <rect x="531" y="847" width="1823" height="205"/>
  </clipPath>
</defs>
<polyline clip-path="url(#clip304)" style="stroke:#000000; stroke-linecap:butt; stroke-linejoin:round; stroke-width:2; stroke-opacity:0.1; fill:none" points="
  582.757,1050.96 582.757,847.244 
  "/>
<polyline clip-path="url(#clip304)" style="stroke:#000000; stroke-linecap:butt; stroke-linejoin:round; stroke-width:2; stroke-opacity:0.1; fill:none" points="
  1155.57,1050.96 1155.57,847.244 
  "/>
<polyline clip-path="url(#clip304)" style="stroke:#000000; stroke-linecap:butt; stroke-linejoin:round; stroke-width:2; stroke-opacity:0.1; fill:none" points="
  1728.39,1050.96 1728.39,847.244 
  "/>
<polyline clip-path="url(#clip304)" style="stroke:#000000; stroke-linecap:butt; stroke-linejoin:round; stroke-width:2; stroke-opacity:0.1; fill:none" points="
  2301.2,1050.96 2301.2,847.244 
  "/>
<polyline clip-path="url(#clip300)" style="stroke:#000000; stroke-linecap:butt; stroke-linejoin:round; stroke-width:4; stroke-opacity:1; fill:none" points="
  531.203,1050.96 2352.76,1050.96 
  "/>
<polyline clip-path="url(#clip300)" style="stroke:#000000; stroke-linecap:butt; stroke-linejoin:round; stroke-width:4; stroke-opacity:1; fill:none" points="
  582.757,1050.96 582.757,1032.06 
  "/>
<polyline clip-path="url(#clip300)" style="stroke:#000000; stroke-linecap:butt; stroke-linejoin:round; stroke-width:4; stroke-opacity:1; fill:none" points="
  1155.57,1050.96 1155.57,1032.06 
  "/>
<polyline clip-path="url(#clip300)" style="stroke:#000000; stroke-linecap:butt; stroke-linejoin:round; stroke-width:4; stroke-opacity:1; fill:none" points="
  1728.39,1050.96 1728.39,1032.06 
  "/>
<polyline clip-path="url(#clip300)" style="stroke:#000000; stroke-linecap:butt; stroke-linejoin:round; stroke-width:4; stroke-opacity:1; fill:none" points="
  2301.2,1050.96 2301.2,1032.06 
  "/>
<path clip-path="url(#clip300)" d="M573.139 1107.7 L580.778 1107.7 L580.778 1081.33 L572.467 1083 L572.467 1078.74 L580.731 1077.07 L585.407 1077.07 L585.407 1107.7 L593.046 1107.7 L593.046 1111.63 L573.139 1111.63 L573.139 1107.7 Z" fill="#000000" fill-rule="evenodd" fill-opacity="1" /><path clip-path="url(#clip300)" d="M1150.22 1107.7 L1166.54 1107.7 L1166.54 1111.63 L1144.6 1111.63 L1144.6 1107.7 Q1147.26 1104.94 1151.85 1100.31 Q1156.45 1095.66 1157.63 1094.32 Q1159.88 1091.79 1160.76 1090.06 Q1161.66 1088.3 1161.66 1086.61 Q1161.66 1083.85 1159.72 1082.12 Q1157.79 1080.38 1154.69 1080.38 Q1152.49 1080.38 1150.04 1081.15 Q1147.61 1081.91 1144.83 1083.46 L1144.83 1078.74 Q1147.66 1077.6 1150.11 1077.03 Q1152.56 1076.45 1154.6 1076.45 Q1159.97 1076.45 1163.16 1079.13 Q1166.36 1081.82 1166.36 1086.31 Q1166.36 1088.44 1165.55 1090.36 Q1164.76 1092.26 1162.66 1094.85 Q1162.08 1095.52 1158.97 1098.74 Q1155.87 1101.93 1150.22 1107.7 Z" fill="#000000" fill-rule="evenodd" fill-opacity="1" /><path clip-path="url(#clip300)" d="M1732.63 1093 Q1735.99 1093.72 1737.87 1095.98 Q1739.76 1098.25 1739.76 1101.59 Q1739.76 1106.7 1736.25 1109.5 Q1732.73 1112.3 1726.25 1112.3 Q1724.07 1112.3 1721.76 1111.86 Q1719.46 1111.45 1717.01 1110.59 L1717.01 1106.08 Q1718.95 1107.21 1721.27 1107.79 Q1723.58 1108.37 1726.11 1108.37 Q1730.51 1108.37 1732.8 1106.63 Q1735.11 1104.9 1735.11 1101.59 Q1735.11 1098.53 1732.96 1096.82 Q1730.83 1095.08 1727.01 1095.08 L1722.98 1095.08 L1722.98 1091.24 L1727.2 1091.24 Q1730.64 1091.24 1732.47 1089.87 Q1734.3 1088.48 1734.3 1085.89 Q1734.3 1083.23 1732.4 1081.82 Q1730.53 1080.38 1727.01 1080.38 Q1725.09 1080.38 1722.89 1080.8 Q1720.69 1081.22 1718.05 1082.1 L1718.05 1077.93 Q1720.71 1077.19 1723.03 1076.82 Q1725.37 1076.45 1727.43 1076.45 Q1732.75 1076.45 1735.85 1078.88 Q1738.95 1081.29 1738.95 1085.41 Q1738.95 1088.28 1737.31 1090.27 Q1735.67 1092.23 1732.63 1093 Z" fill="#000000" fill-rule="evenodd" fill-opacity="1" /><path clip-path="url(#clip300)" d="M2304.21 1081.15 L2292.41 1099.6 L2304.21 1099.6 L2304.21 1081.15 M2302.98 1077.07 L2308.86 1077.07 L2308.86 1099.6 L2313.8 1099.6 L2313.8 1103.48 L2308.86 1103.48 L2308.86 1111.63 L2304.21 1111.63 L2304.21 1103.48 L2288.61 1103.48 L2288.61 1098.97 L2302.98 1077.07 Z" fill="#000000" fill-rule="evenodd" fill-opacity="1" /><path clip-path="url(#clip300)" d="M1456.15 1139.92 Q1456.15 1141.72 1455.03 1142.75 Q1453.9 1143.75 1452.61 1143.75 Q1451.39 1143.75 1450.74 1143.04 Q1450.1 1142.33 1450.1 1141.43 Q1450.1 1140.21 1451 1139.14 Q1451.9 1138.08 1453.25 1137.85 Q1451.93 1137.02 1449.97 1137.02 Q1448.68 1137.02 1447.55 1137.69 Q1446.46 1138.37 1445.78 1139.24 Q1445.14 1140.11 1444.56 1141.37 Q1444.01 1142.59 1443.79 1143.33 Q1443.59 1144.04 1443.43 1144.81 L1441.18 1153.83 Q1440.08 1158.11 1440.08 1159.63 Q1440.08 1161.49 1440.98 1162.75 Q1441.89 1163.97 1443.69 1163.97 Q1444.4 1163.97 1445.2 1163.78 Q1446.01 1163.55 1447.04 1162.98 Q1448.1 1162.36 1449.04 1161.46 Q1450 1160.53 1450.94 1158.95 Q1451.87 1157.37 1452.48 1155.34 Q1452.67 1154.63 1453.32 1154.63 Q1454.12 1154.63 1454.12 1155.28 Q1454.12 1155.83 1453.67 1156.98 Q1453.25 1158.11 1452.32 1159.59 Q1451.42 1161.04 1450.23 1162.36 Q1449.04 1163.65 1447.26 1164.55 Q1445.49 1165.46 1443.56 1165.46 Q1440.79 1165.46 1438.96 1163.97 Q1437.12 1162.49 1436.44 1160.43 Q1436.28 1160.72 1436.06 1161.11 Q1435.83 1161.49 1435.15 1162.36 Q1434.51 1163.2 1433.77 1163.84 Q1433.03 1164.46 1431.87 1164.94 Q1430.74 1165.46 1429.52 1165.46 Q1427.97 1165.46 1426.59 1165 Q1425.24 1164.55 1424.27 1163.52 Q1423.3 1162.49 1423.3 1161.08 Q1423.3 1159.5 1424.37 1158.4 Q1425.46 1157.27 1426.94 1157.27 Q1427.88 1157.27 1428.62 1157.82 Q1429.39 1158.37 1429.39 1159.56 Q1429.39 1160.88 1428.49 1161.88 Q1427.59 1162.88 1426.3 1163.14 Q1427.62 1163.97 1429.58 1163.97 Q1431.71 1163.97 1433.38 1162.11 Q1435.06 1160.24 1435.86 1157.11 Q1437.86 1149.61 1438.63 1146.26 Q1439.41 1142.88 1439.41 1141.43 Q1439.41 1140.08 1439.05 1139.14 Q1438.7 1138.21 1438.09 1137.79 Q1437.51 1137.34 1436.96 1137.18 Q1436.44 1137.02 1435.86 1137.02 Q1434.9 1137.02 1433.8 1137.4 Q1432.74 1137.79 1431.45 1138.69 Q1430.2 1139.56 1429 1141.37 Q1427.81 1143.17 1427.01 1145.65 Q1426.85 1146.39 1426.14 1146.39 Q1425.36 1146.36 1425.36 1145.71 Q1425.36 1145.17 1425.78 1144.04 Q1426.23 1142.88 1427.14 1141.43 Q1428.07 1139.98 1429.26 1138.69 Q1430.49 1137.37 1432.26 1136.47 Q1434.06 1135.57 1435.99 1135.57 Q1436.86 1135.57 1437.7 1135.76 Q1438.57 1135.92 1439.6 1136.41 Q1440.66 1136.89 1441.6 1137.95 Q1442.53 1139.01 1443.11 1140.56 Q1443.5 1139.82 1444.01 1139.11 Q1444.56 1138.4 1445.4 1137.53 Q1446.27 1136.63 1447.46 1136.12 Q1448.68 1135.57 1450.03 1135.57 Q1451.35 1135.57 1452.64 1135.92 Q1453.93 1136.24 1455.03 1137.31 Q1456.15 1138.34 1456.15 1139.92 Z" fill="#000000" fill-rule="evenodd" fill-opacity="1" /><polyline clip-path="url(#clip304)" style="stroke:#000000; stroke-linecap:butt; stroke-linejoin:round; stroke-width:2; stroke-opacity:0.1; fill:none" points="
  531.203,869.025 2352.76,869.025 
  "/>
<polyline clip-path="url(#clip300)" style="stroke:#000000; stroke-linecap:butt; stroke-linejoin:round; stroke-width:4; stroke-opacity:1; fill:none" points="
  531.203,1050.96 531.203,847.244 
  "/>
<polyline clip-path="url(#clip300)" style="stroke:#000000; stroke-linecap:butt; stroke-linejoin:round; stroke-width:4; stroke-opacity:1; fill:none" points="
  531.203,869.025 546.535,869.025 
  "/>
<path clip-path="url(#clip300)" d="M475.296 882.37 L482.935 882.37 L482.935 856.004 L474.625 857.671 L474.625 853.412 L482.889 851.745 L487.565 851.745 L487.565 882.37 L495.203 882.37 L495.203 886.305 L475.296 886.305 L475.296 882.37 Z" fill="#000000" fill-rule="evenodd" fill-opacity="1" /><polyline clip-path="url(#clip304)" style="stroke:#009af9; stroke-linecap:butt; stroke-linejoin:round; stroke-width:4; stroke-opacity:1; fill:none" points="
  582.757,1029.18 591.392,1029.18 600.028,1029.18 608.663,1029.18 617.298,1029.18 625.934,1029.18 634.569,1029.18 643.205,1029.18 651.84,1029.18 660.475,1029.18 
  669.111,1029.18 677.746,1029.18 686.382,1029.18 695.017,1029.18 703.652,1029.18 712.288,1029.18 720.923,1029.18 729.559,1029.18 738.194,1029.18 746.829,1029.18 
  755.465,1029.05 764.1,1027.7 772.736,1026.36 781.371,1025.02 790.007,1023.68 798.642,1022.34 807.277,1021 815.913,1019.66 824.548,1018.31 833.184,1016.97 
  841.819,1015.63 850.454,1014.29 859.09,1012.95 867.725,1011.61 876.361,1010.27 884.996,1008.93 893.631,1007.58 902.267,1006.24 910.902,1004.9 919.538,1003.56 
  928.173,1002.22 936.808,1000.88 945.444,999.536 954.079,998.195 962.715,996.853 971.35,995.512 979.985,994.171 988.621,992.829 997.256,991.488 1005.89,990.147 
  1014.53,988.805 1023.16,987.464 1031.8,986.123 1040.43,984.781 1049.07,983.44 1057.7,982.099 1066.34,980.757 1074.97,979.416 1083.61,978.075 1092.25,976.733 
  1100.88,975.392 1109.52,974.051 1118.15,972.709 1126.79,971.368 1135.42,970.027 1144.06,968.686 1152.69,967.344 1161.33,966.003 1169.96,964.662 1178.6,963.32 
  1187.24,961.979 1195.87,960.638 1204.51,959.296 1213.14,957.955 1221.78,956.614 1230.41,955.272 1239.05,953.931 1247.68,952.59 1256.32,951.248 1264.95,949.907 
  1273.59,948.566 1282.22,947.224 1290.86,945.883 1299.5,944.542 1308.13,943.2 1316.77,941.859 1325.4,940.518 1334.04,939.176 1342.67,937.835 1351.31,936.494 
  1359.94,935.152 1368.58,933.811 1377.21,932.47 1385.85,931.128 1394.48,929.787 1403.12,928.446 1411.76,927.104 1420.39,925.763 1429.03,924.422 1437.66,923.08 
  1446.3,921.739 1454.93,920.398 1463.57,919.056 1472.2,917.715 1480.84,916.374 1489.47,915.033 1498.11,913.691 1506.75,912.35 1515.38,911.009 1524.02,909.667 
  1532.65,908.326 1541.29,906.985 1549.92,905.643 1558.56,904.302 1567.19,902.961 1575.83,901.619 1584.46,900.278 1593.1,898.937 1601.73,897.595 1610.37,896.254 
  1619.01,894.913 1627.64,893.571 1636.28,892.23 1644.91,890.889 1653.55,889.547 1662.18,888.206 1670.82,886.865 1679.45,885.523 1688.09,884.182 1696.72,882.841 
  1705.36,881.499 1713.99,880.158 1722.63,878.817 1731.27,877.475 1739.9,876.134 1748.54,874.793 1757.17,873.451 1765.81,872.11 1774.44,870.769 1783.08,869.427 
  1791.71,870.903 1800.35,873.586 1808.98,876.268 1817.62,878.951 1826.26,881.634 1834.89,884.316 1843.53,886.999 1852.16,889.681 1860.8,892.364 1869.43,895.047 
  1878.07,897.729 1886.7,900.412 1895.34,903.095 1903.97,905.777 1912.61,908.46 1921.24,911.143 1929.88,913.825 1938.52,916.508 1947.15,919.191 1955.79,921.873 
  1964.42,924.556 1973.06,927.239 1981.69,929.921 1990.33,932.604 1998.96,935.287 2007.6,937.969 2016.23,940.652 2024.87,943.334 2033.5,946.017 2042.14,948.7 
  2050.78,951.382 2059.41,954.065 2068.05,956.748 2076.68,959.43 2085.32,962.113 2093.95,964.796 2102.59,967.478 2111.22,970.161 2119.86,972.844 2128.49,975.526 
  2137.13,978.209 2145.77,980.892 2154.4,983.574 2163.04,986.257 2171.67,988.94 2180.31,991.622 2188.94,994.305 2197.58,996.987 2206.21,999.67 2214.85,1002.35 
  2223.48,1005.04 2232.12,1007.72 2240.75,1010.4 2249.39,1013.08 2258.03,1015.77 2266.66,1018.45 2275.3,1021.13 2283.93,1023.81 2292.57,1026.5 2301.2,1029.18 
  
  "/>
<circle clip-path="url(#clip304)" cx="582.757" cy="1029.18" r="14" fill="#e26f46" fill-rule="evenodd" fill-opacity="1" stroke="#000000" stroke-opacity="1" stroke-width="3.2"/>
<circle clip-path="url(#clip304)" cx="754.601" cy="1029.18" r="14" fill="#e26f46" fill-rule="evenodd" fill-opacity="1" stroke="#000000" stroke-opacity="1" stroke-width="3.2"/>
<circle clip-path="url(#clip304)" cx="1785.67" cy="869.025" r="14" fill="#e26f46" fill-rule="evenodd" fill-opacity="1" stroke="#000000" stroke-opacity="1" stroke-width="3.2"/>
<circle clip-path="url(#clip304)" cx="2301.2" cy="1029.18" r="14" fill="#e26f46" fill-rule="evenodd" fill-opacity="1" stroke="#000000" stroke-opacity="1" stroke-width="3.2"/>
<path clip-path="url(#clip300)" d="
M32.7312 957.715 L360.946 957.715 L360.946 854.035 L32.7312 854.035  Z
  " fill="#ffffff" fill-rule="evenodd" fill-opacity="1"/>
<polyline clip-path="url(#clip300)" style="stroke:#000000; stroke-linecap:butt; stroke-linejoin:round; stroke-width:4; stroke-opacity:1; fill:none" points="
  32.7312,957.715 360.946,957.715 360.946,854.035 32.7312,854.035 32.7312,957.715 
  "/>
<polyline clip-path="url(#clip300)" style="stroke:#009af9; stroke-linecap:butt; stroke-linejoin:round; stroke-width:4; stroke-opacity:1; fill:none" points="
  57.6777,905.875 207.357,905.875 
  "/>
<path clip-path="url(#clip300)" d="M248.9 900.678 Q247.396 900.678 247.396 904.034 L247.396 919.914 Q249.595 919.914 251.794 917.507 Q253.761 915.354 253.761 910.192 Q253.761 905.377 251.771 902.784 Q250.15 900.678 248.9 900.678 M248.9 897.044 Q252.141 897.044 255.081 900.099 Q258.252 903.363 258.252 910.192 Q258.252 916.465 255.081 920.192 Q252.095 923.71 247.396 923.71 L247.396 933.016 L243.16 933.016 L243.16 923.733 Q238.553 923.733 235.451 920.192 Q232.303 916.581 232.303 910.215 Q232.303 903.595 235.451 900.215 Q237.812 897.692 241.655 897.044 L241.655 900.817 Q240.127 901.349 238.785 903.155 Q236.794 905.817 236.794 910.215 Q236.794 914.891 238.785 917.553 Q240.567 919.937 243.16 919.937 L243.16 904.034 Q243.16 897.044 248.9 897.044 Z" fill="#000000" fill-rule="evenodd" fill-opacity="1" /><path clip-path="url(#clip300)" d="M285.15 931.025 L285.15 934.335 L260.521 934.335 L260.521 931.025 L285.15 931.025 Z" fill="#000000" fill-rule="evenodd" fill-opacity="1" /><path clip-path="url(#clip300)" d="M303.923 904.52 Q307.28 905.238 309.155 907.507 Q311.053 909.775 311.053 913.108 Q311.053 918.224 307.534 921.025 Q304.016 923.826 297.534 923.826 Q295.358 923.826 293.044 923.386 Q290.752 922.969 288.298 922.113 L288.298 917.599 Q290.243 918.733 292.558 919.312 Q294.872 919.891 297.395 919.891 Q301.794 919.891 304.085 918.155 Q306.4 916.419 306.4 913.108 Q306.4 910.053 304.247 908.34 Q302.118 906.604 298.298 906.604 L294.27 906.604 L294.27 902.761 L298.483 902.761 Q301.932 902.761 303.761 901.395 Q305.59 900.007 305.59 897.414 Q305.59 894.752 303.692 893.34 Q301.817 891.905 298.298 891.905 Q296.377 891.905 294.178 892.321 Q291.979 892.738 289.34 893.618 L289.34 889.451 Q292.002 888.71 294.317 888.34 Q296.655 887.97 298.715 887.97 Q304.039 887.97 307.141 890.4 Q310.243 892.808 310.243 896.928 Q310.243 899.798 308.599 901.789 Q306.956 903.757 303.923 904.52 Z" fill="#000000" fill-rule="evenodd" fill-opacity="1" /><path clip-path="url(#clip300)" d="
M532.338 1450.96 L2352.76 1450.96 L2352.76 1247.24 L532.338 1247.24  Z
  " fill="#ffffff" fill-rule="evenodd" fill-opacity="1"/>
<defs>
  <clipPath id="clip305">
    <rect x="532" y="1247" width="1821" height="205"/>
  </clipPath>
</defs>
<polyline clip-path="url(#clip305)" style="stroke:#000000; stroke-linecap:butt; stroke-linejoin:round; stroke-width:2; stroke-opacity:0.1; fill:none" points="
  583.859,1450.96 583.859,1247.24 
  "/>
<polyline clip-path="url(#clip305)" style="stroke:#000000; stroke-linecap:butt; stroke-linejoin:round; stroke-width:2; stroke-opacity:0.1; fill:none" points="
  1156.32,1450.96 1156.32,1247.24 
  "/>
<polyline clip-path="url(#clip305)" style="stroke:#000000; stroke-linecap:butt; stroke-linejoin:round; stroke-width:2; stroke-opacity:0.1; fill:none" points="
  1728.78,1450.96 1728.78,1247.24 
  "/>
<polyline clip-path="url(#clip305)" style="stroke:#000000; stroke-linecap:butt; stroke-linejoin:round; stroke-width:2; stroke-opacity:0.1; fill:none" points="
  2301.23,1450.96 2301.23,1247.24 
  "/>
<polyline clip-path="url(#clip300)" style="stroke:#000000; stroke-linecap:butt; stroke-linejoin:round; stroke-width:4; stroke-opacity:1; fill:none" points="
  532.338,1450.96 2352.76,1450.96 
  "/>
<polyline clip-path="url(#clip300)" style="stroke:#000000; stroke-linecap:butt; stroke-linejoin:round; stroke-width:4; stroke-opacity:1; fill:none" points="
  583.859,1450.96 583.859,1432.06 
  "/>
<polyline clip-path="url(#clip300)" style="stroke:#000000; stroke-linecap:butt; stroke-linejoin:round; stroke-width:4; stroke-opacity:1; fill:none" points="
  1156.32,1450.96 1156.32,1432.06 
  "/>
<polyline clip-path="url(#clip300)" style="stroke:#000000; stroke-linecap:butt; stroke-linejoin:round; stroke-width:4; stroke-opacity:1; fill:none" points="
  1728.78,1450.96 1728.78,1432.06 
  "/>
<polyline clip-path="url(#clip300)" style="stroke:#000000; stroke-linecap:butt; stroke-linejoin:round; stroke-width:4; stroke-opacity:1; fill:none" points="
  2301.23,1450.96 2301.23,1432.06 
  "/>
<path clip-path="url(#clip300)" d="M574.241 1507.7 L581.88 1507.7 L581.88 1481.33 L573.57 1483 L573.57 1478.74 L581.833 1477.07 L586.509 1477.07 L586.509 1507.7 L594.148 1507.7 L594.148 1511.63 L574.241 1511.63 L574.241 1507.7 Z" fill="#000000" fill-rule="evenodd" fill-opacity="1" /><path clip-path="url(#clip300)" d="M1150.97 1507.7 L1167.29 1507.7 L1167.29 1511.63 L1145.35 1511.63 L1145.35 1507.7 Q1148.01 1504.94 1152.59 1500.31 Q1157.2 1495.66 1158.38 1494.32 Q1160.62 1491.79 1161.5 1490.06 Q1162.41 1488.3 1162.41 1486.61 Q1162.41 1483.85 1160.46 1482.12 Q1158.54 1480.38 1155.44 1480.38 Q1153.24 1480.38 1150.79 1481.15 Q1148.35 1481.91 1145.58 1483.46 L1145.58 1478.74 Q1148.4 1477.6 1150.85 1477.03 Q1153.31 1476.45 1155.35 1476.45 Q1160.72 1476.45 1163.91 1479.13 Q1167.1 1481.82 1167.1 1486.31 Q1167.1 1488.44 1166.29 1490.36 Q1165.51 1492.26 1163.4 1494.85 Q1162.82 1495.52 1159.72 1498.74 Q1156.62 1501.93 1150.97 1507.7 Z" fill="#000000" fill-rule="evenodd" fill-opacity="1" /><path clip-path="url(#clip300)" d="M1733.02 1493 Q1736.38 1493.72 1738.26 1495.98 Q1740.15 1498.25 1740.15 1501.59 Q1740.15 1506.7 1736.63 1509.5 Q1733.12 1512.3 1726.63 1512.3 Q1724.46 1512.3 1722.14 1511.86 Q1719.85 1511.45 1717.4 1510.59 L1717.4 1506.08 Q1719.34 1507.21 1721.66 1507.79 Q1723.97 1508.37 1726.5 1508.37 Q1730.89 1508.37 1733.19 1506.63 Q1735.5 1504.9 1735.5 1501.59 Q1735.5 1498.53 1733.35 1496.82 Q1731.22 1495.08 1727.4 1495.08 L1723.37 1495.08 L1723.37 1491.24 L1727.58 1491.24 Q1731.03 1491.24 1732.86 1489.87 Q1734.69 1488.48 1734.69 1485.89 Q1734.69 1483.23 1732.79 1481.82 Q1730.92 1480.38 1727.4 1480.38 Q1725.48 1480.38 1723.28 1480.8 Q1721.08 1481.22 1718.44 1482.1 L1718.44 1477.93 Q1721.1 1477.19 1723.42 1476.82 Q1725.76 1476.45 1727.82 1476.45 Q1733.14 1476.45 1736.24 1478.88 Q1739.34 1481.29 1739.34 1485.41 Q1739.34 1488.28 1737.7 1490.27 Q1736.06 1492.23 1733.02 1493 Z" fill="#000000" fill-rule="evenodd" fill-opacity="1" /><path clip-path="url(#clip300)" d="M2304.24 1481.15 L2292.44 1499.6 L2304.24 1499.6 L2304.24 1481.15 M2303.02 1477.07 L2308.9 1477.07 L2308.9 1499.6 L2313.83 1499.6 L2313.83 1503.48 L2308.9 1503.48 L2308.9 1511.63 L2304.24 1511.63 L2304.24 1503.48 L2288.64 1503.48 L2288.64 1498.97 L2303.02 1477.07 Z" fill="#000000" fill-rule="evenodd" fill-opacity="1" /><path clip-path="url(#clip300)" d="M1456.72 1539.92 Q1456.72 1541.72 1455.59 1542.75 Q1454.47 1543.75 1453.18 1543.75 Q1451.95 1543.75 1451.31 1543.04 Q1450.67 1542.33 1450.67 1541.43 Q1450.67 1540.21 1451.57 1539.14 Q1452.47 1538.08 1453.82 1537.85 Q1452.5 1537.02 1450.54 1537.02 Q1449.25 1537.02 1448.12 1537.69 Q1447.03 1538.37 1446.35 1539.24 Q1445.71 1540.11 1445.13 1541.37 Q1444.58 1542.59 1444.35 1543.33 Q1444.16 1544.04 1444 1544.81 L1441.74 1553.83 Q1440.65 1558.11 1440.65 1559.63 Q1440.65 1561.49 1441.55 1562.75 Q1442.45 1563.97 1444.26 1563.97 Q1444.97 1563.97 1445.77 1563.78 Q1446.58 1563.55 1447.61 1562.98 Q1448.67 1562.36 1449.6 1561.46 Q1450.57 1560.53 1451.5 1558.95 Q1452.44 1557.37 1453.05 1555.34 Q1453.24 1554.63 1453.89 1554.63 Q1454.69 1554.63 1454.69 1555.28 Q1454.69 1555.83 1454.24 1556.98 Q1453.82 1558.11 1452.89 1559.59 Q1451.99 1561.04 1450.79 1562.36 Q1449.6 1563.65 1447.83 1564.55 Q1446.06 1565.46 1444.13 1565.46 Q1441.36 1565.46 1439.52 1563.97 Q1437.69 1562.49 1437.01 1560.43 Q1436.85 1560.72 1436.62 1561.11 Q1436.4 1561.49 1435.72 1562.36 Q1435.08 1563.2 1434.34 1563.84 Q1433.6 1564.46 1432.44 1564.94 Q1431.31 1565.46 1430.09 1565.46 Q1428.54 1565.46 1427.16 1565 Q1425.8 1564.55 1424.84 1563.52 Q1423.87 1562.49 1423.87 1561.08 Q1423.87 1559.5 1424.93 1558.4 Q1426.03 1557.27 1427.51 1557.27 Q1428.44 1557.27 1429.18 1557.82 Q1429.96 1558.37 1429.96 1559.56 Q1429.96 1560.88 1429.06 1561.88 Q1428.15 1562.88 1426.87 1563.14 Q1428.19 1563.97 1430.15 1563.97 Q1432.28 1563.97 1433.95 1562.11 Q1435.63 1560.24 1436.43 1557.11 Q1438.43 1549.61 1439.2 1546.26 Q1439.97 1542.88 1439.97 1541.43 Q1439.97 1540.08 1439.62 1539.14 Q1439.26 1538.21 1438.65 1537.79 Q1438.07 1537.34 1437.53 1537.18 Q1437.01 1537.02 1436.43 1537.02 Q1435.46 1537.02 1434.37 1537.4 Q1433.31 1537.79 1432.02 1538.69 Q1430.76 1539.56 1429.57 1541.37 Q1428.38 1543.17 1427.57 1545.65 Q1427.41 1546.39 1426.7 1546.39 Q1425.93 1546.36 1425.93 1545.71 Q1425.93 1545.17 1426.35 1544.04 Q1426.8 1542.88 1427.7 1541.43 Q1428.64 1539.98 1429.83 1538.69 Q1431.05 1537.37 1432.82 1536.47 Q1434.63 1535.57 1436.56 1535.57 Q1437.43 1535.57 1438.27 1535.76 Q1439.14 1535.92 1440.17 1536.41 Q1441.23 1536.89 1442.16 1537.95 Q1443.1 1539.01 1443.68 1540.56 Q1444.06 1539.82 1444.58 1539.11 Q1445.13 1538.4 1445.96 1537.53 Q1446.83 1536.63 1448.02 1536.12 Q1449.25 1535.57 1450.6 1535.57 Q1451.92 1535.57 1453.21 1535.92 Q1454.5 1536.24 1455.59 1537.31 Q1456.72 1538.34 1456.72 1539.92 Z" fill="#000000" fill-rule="evenodd" fill-opacity="1" /><polyline clip-path="url(#clip305)" style="stroke:#000000; stroke-linecap:butt; stroke-linejoin:round; stroke-width:2; stroke-opacity:0.1; fill:none" points="
  532.338,1269.03 2352.76,1269.03 
  "/>
<polyline clip-path="url(#clip300)" style="stroke:#000000; stroke-linecap:butt; stroke-linejoin:round; stroke-width:4; stroke-opacity:1; fill:none" points="
  532.338,1450.96 532.338,1247.24 
  "/>
<polyline clip-path="url(#clip300)" style="stroke:#000000; stroke-linecap:butt; stroke-linejoin:round; stroke-width:4; stroke-opacity:1; fill:none" points="
  532.338,1269.03 547.66,1269.03 
  "/>
<path clip-path="url(#clip300)" d="M476.43 1282.37 L484.069 1282.37 L484.069 1256 L475.759 1257.67 L475.759 1253.41 L484.023 1251.75 L488.699 1251.75 L488.699 1282.37 L496.338 1282.37 L496.338 1286.31 L476.43 1286.31 L476.43 1282.37 Z" fill="#000000" fill-rule="evenodd" fill-opacity="1" /><polyline clip-path="url(#clip305)" style="stroke:#009af9; stroke-linecap:butt; stroke-linejoin:round; stroke-width:4; stroke-opacity:1; fill:none" points="
  583.859,1429.18 592.489,1429.18 601.119,1429.18 609.749,1429.18 618.379,1429.18 627.009,1429.18 635.639,1429.18 644.269,1429.18 652.899,1429.18 661.529,1429.18 
  670.159,1429.18 678.789,1429.18 687.419,1429.18 696.049,1429.18 704.679,1429.18 713.309,1429.18 721.939,1429.18 730.569,1429.18 739.199,1429.18 747.829,1429.18 
  756.46,1429.18 765.09,1429.18 773.72,1429.18 782.35,1429.18 790.98,1429.18 799.61,1429.18 808.24,1429.18 816.87,1429.18 825.5,1429.18 834.13,1429.18 
  842.76,1429.18 851.39,1429.18 860.02,1429.18 868.65,1429.18 877.28,1429.18 885.91,1429.18 894.54,1429.18 903.17,1429.18 911.8,1429.18 920.43,1429.18 
  929.06,1429.18 937.69,1429.18 946.32,1429.18 954.95,1429.18 963.58,1429.18 972.21,1429.18 980.84,1429.18 989.47,1429.18 998.1,1429.18 1006.73,1429.18 
  1015.36,1429.18 1023.99,1429.18 1032.62,1429.18 1041.25,1429.18 1049.88,1429.18 1058.51,1429.18 1067.14,1429.18 1075.77,1429.18 1084.4,1429.18 1093.03,1429.18 
  1101.66,1429.18 1110.29,1429.18 1118.92,1429.18 1127.55,1429.18 1136.18,1429.18 1144.81,1429.18 1153.44,1429.18 1162.07,1429.18 1170.7,1429.18 1179.33,1429.18 
  1187.96,1429.18 1196.59,1429.18 1205.22,1429.18 1213.85,1429.18 1222.48,1429.18 1231.11,1429.18 1239.74,1429.18 1248.37,1429.18 1257,1429.18 1265.63,1429.18 
  1274.26,1429.18 1282.89,1429.18 1291.52,1429.18 1300.15,1429.18 1308.78,1429.18 1317.41,1429.18 1326.04,1429.18 1334.67,1429.18 1343.3,1429.18 1351.93,1429.18 
  1360.56,1429.18 1369.19,1429.18 1377.82,1429.18 1386.45,1429.18 1395.08,1429.18 1403.71,1429.18 1412.34,1429.18 1420.97,1429.18 1429.6,1429.18 1438.23,1429.18 
  1446.86,1429.18 1455.49,1429.18 1464.12,1429.18 1472.75,1429.18 1481.38,1429.18 1490.01,1429.18 1498.64,1429.18 1507.27,1429.18 1515.9,1429.18 1524.53,1429.18 
  1533.16,1429.18 1541.79,1429.18 1550.42,1429.18 1559.05,1429.18 1567.68,1429.18 1576.31,1429.18 1584.94,1429.18 1593.57,1429.18 1602.2,1429.18 1610.83,1429.18 
  1619.46,1429.18 1628.09,1429.18 1636.72,1429.18 1645.35,1429.18 1653.98,1429.18 1662.61,1429.18 1671.24,1429.18 1679.87,1429.18 1688.5,1429.18 1697.13,1429.18 
  1705.76,1429.18 1714.39,1429.18 1723.02,1429.18 1731.65,1429.18 1740.28,1429.18 1748.91,1429.18 1757.54,1429.18 1766.17,1429.18 1774.8,1429.18 1783.43,1429.18 
  1792.06,1427.3 1800.69,1424.62 1809.32,1421.94 1817.95,1419.25 1826.58,1416.57 1835.21,1413.89 1843.84,1411.21 1852.47,1408.52 1861.1,1405.84 1869.73,1403.16 
  1878.36,1400.47 1886.99,1397.79 1895.62,1395.11 1904.25,1392.43 1912.88,1389.74 1921.51,1387.06 1930.14,1384.38 1938.77,1381.7 1947.4,1379.01 1956.03,1376.33 
  1964.66,1373.65 1973.29,1370.97 1981.92,1368.28 1990.55,1365.6 1999.18,1362.92 2007.81,1360.24 2016.44,1357.55 2025.07,1354.87 2033.7,1352.19 2042.33,1349.5 
  2050.96,1346.82 2059.59,1344.14 2068.22,1341.46 2076.85,1338.77 2085.48,1336.09 2094.11,1333.41 2102.74,1330.73 2111.37,1328.04 2120,1325.36 2128.63,1322.68 
  2137.26,1320 2145.89,1317.31 2154.52,1314.63 2163.15,1311.95 2171.78,1309.26 2180.41,1306.58 2189.04,1303.9 2197.67,1301.22 2206.3,1298.53 2214.93,1295.85 
  2223.56,1293.17 2232.19,1290.49 2240.82,1287.8 2249.45,1285.12 2258.08,1282.44 2266.71,1279.76 2275.34,1277.07 2283.97,1274.39 2292.6,1271.71 2301.23,1269.03 
  
  "/>
<circle clip-path="url(#clip305)" cx="583.859" cy="1429.18" r="14" fill="#e26f46" fill-rule="evenodd" fill-opacity="1" stroke="#000000" stroke-opacity="1" stroke-width="3.2"/>
<circle clip-path="url(#clip305)" cx="755.597" cy="1429.18" r="14" fill="#e26f46" fill-rule="evenodd" fill-opacity="1" stroke="#000000" stroke-opacity="1" stroke-width="3.2"/>
<circle clip-path="url(#clip305)" cx="1786.02" cy="1429.18" r="14" fill="#e26f46" fill-rule="evenodd" fill-opacity="1" stroke="#000000" stroke-opacity="1" stroke-width="3.2"/>
<circle clip-path="url(#clip305)" cx="2301.23" cy="1269.03" r="14" fill="#e26f46" fill-rule="evenodd" fill-opacity="1" stroke="#000000" stroke-opacity="1" stroke-width="3.2"/>
<path clip-path="url(#clip300)" d="
M32.7312 1357.71 L362.08 1357.71 L362.08 1254.03 L32.7312 1254.03  Z
  " fill="#ffffff" fill-rule="evenodd" fill-opacity="1"/>
<polyline clip-path="url(#clip300)" style="stroke:#000000; stroke-linecap:butt; stroke-linejoin:round; stroke-width:4; stroke-opacity:1; fill:none" points="
  32.7312,1357.71 362.08,1357.71 362.08,1254.03 32.7312,1254.03 32.7312,1357.71 
  "/>
<polyline clip-path="url(#clip300)" style="stroke:#009af9; stroke-linecap:butt; stroke-linejoin:round; stroke-width:4; stroke-opacity:1; fill:none" points="
  57.6777,1305.87 207.357,1305.87 
  "/>
<path clip-path="url(#clip300)" d="M248.9 1300.68 Q247.396 1300.68 247.396 1304.03 L247.396 1319.91 Q249.595 1319.91 251.794 1317.51 Q253.761 1315.35 253.761 1310.19 Q253.761 1305.38 251.771 1302.78 Q250.15 1300.68 248.9 1300.68 M248.9 1297.04 Q252.141 1297.04 255.081 1300.1 Q258.252 1303.36 258.252 1310.19 Q258.252 1316.46 255.081 1320.19 Q252.095 1323.71 247.396 1323.71 L247.396 1333.02 L243.16 1333.02 L243.16 1323.73 Q238.553 1323.73 235.451 1320.19 Q232.303 1316.58 232.303 1310.21 Q232.303 1303.59 235.451 1300.21 Q237.812 1297.69 241.655 1297.04 L241.655 1300.82 Q240.127 1301.35 238.785 1303.15 Q236.794 1305.82 236.794 1310.21 Q236.794 1314.89 238.785 1317.55 Q240.567 1319.94 243.16 1319.94 L243.16 1304.03 Q243.16 1297.04 248.9 1297.04 Z" fill="#000000" fill-rule="evenodd" fill-opacity="1" /><path clip-path="url(#clip300)" d="M285.15 1331.02 L285.15 1334.34 L260.521 1334.34 L260.521 1331.02 L285.15 1331.02 Z" fill="#000000" fill-rule="evenodd" fill-opacity="1" /><path clip-path="url(#clip300)" d="M302.604 1292.67 L290.798 1311.12 L302.604 1311.12 L302.604 1292.67 M301.377 1288.59 L307.257 1288.59 L307.257 1311.12 L312.187 1311.12 L312.187 1315.01 L307.257 1315.01 L307.257 1323.15 L302.604 1323.15 L302.604 1315.01 L287.002 1315.01 L287.002 1310.49 L301.377 1288.59 Z" fill="#000000" fill-rule="evenodd" fill-opacity="1" /></svg>
