<?xml version="1.0" encoding="utf-8"?>
<svg xmlns="http://www.w3.org/2000/svg" xmlns:xlink="http://www.w3.org/1999/xlink" width="600" height="400" viewBox="0 0 2400 1600">
<defs>
  <clipPath id="clip810">
    <rect x="0" y="0" width="2400" height="1600"/>
  </clipPath>
</defs>
<path clip-path="url(#clip810)" d="
M0 1600 L2400 1600 L2400 0 L0 0  Z
  " fill="#ffffff" fill-rule="evenodd" fill-opacity="1"/>
<defs>
  <clipPath id="clip811">
    <rect x="480" y="0" width="1681" height="1600"/>
  </clipPath>
</defs>
<defs>
  <clipPath id="clip812">
    <rect x="155" y="47" width="2198" height="1405"/>
  </clipPath>
</defs>
<path clip-path="url(#clip810)" d="
M155.765 1450.96 L2352.76 1450.96 L2352.76 47.2441 L155.765 47.2441  Z
  " fill="#ffffff" fill-rule="evenodd" fill-opacity="1"/>
<polyline clip-path="url(#clip812)" style="stroke:#000000; stroke-linecap:butt; stroke-linejoin:round; stroke-width:2; stroke-opacity:0.1; fill:none" points="
  217.944,1450.96 217.944,47.2441 
  "/>
<polyline clip-path="url(#clip812)" style="stroke:#000000; stroke-linecap:butt; stroke-linejoin:round; stroke-width:2; stroke-opacity:0.1; fill:none" points="
  678.529,1450.96 678.529,47.2441 
  "/>
<polyline clip-path="url(#clip812)" style="stroke:#000000; stroke-linecap:butt; stroke-linejoin:round; stroke-width:2; stroke-opacity:0.1; fill:none" points="
  1139.11,1450.96 1139.11,47.2441 
  "/>
<polyline clip-path="url(#clip812)" style="stroke:#000000; stroke-linecap:butt; stroke-linejoin:round; stroke-width:2; stroke-opacity:0.1; fill:none" points="
  1599.7,1450.96 1599.7,47.2441 
  "/>
<polyline clip-path="url(#clip812)" style="stroke:#000000; stroke-linecap:butt; stroke-linejoin:round; stroke-width:2; stroke-opacity:0.1; fill:none" points="
  2060.28,1450.96 2060.28,47.2441 
  "/>
<polyline clip-path="url(#clip810)" style="stroke:#000000; stroke-linecap:butt; stroke-linejoin:round; stroke-width:4; stroke-opacity:1; fill:none" points="
  155.765,1450.96 2352.76,1450.96 
  "/>
<polyline clip-path="url(#clip810)" style="stroke:#000000; stroke-linecap:butt; stroke-linejoin:round; stroke-width:4; stroke-opacity:1; fill:none" points="
  217.944,1450.96 217.944,1432.06 
  "/>
<polyline clip-path="url(#clip810)" style="stroke:#000000; stroke-linecap:butt; stroke-linejoin:round; stroke-width:4; stroke-opacity:1; fill:none" points="
  678.529,1450.96 678.529,1432.06 
  "/>
<polyline clip-path="url(#clip810)" style="stroke:#000000; stroke-linecap:butt; stroke-linejoin:round; stroke-width:4; stroke-opacity:1; fill:none" points="
  1139.11,1450.96 1139.11,1432.06 
  "/>
<polyline clip-path="url(#clip810)" style="stroke:#000000; stroke-linecap:butt; stroke-linejoin:round; stroke-width:4; stroke-opacity:1; fill:none" points="
  1599.7,1450.96 1599.7,1432.06 
  "/>
<polyline clip-path="url(#clip810)" style="stroke:#000000; stroke-linecap:butt; stroke-linejoin:round; stroke-width:4; stroke-opacity:1; fill:none" points="
  2060.28,1450.96 2060.28,1432.06 
  "/>
<path clip-path="url(#clip810)" d="M208.326 1507.7 L215.965 1507.7 L215.965 1481.33 L207.655 1483 L207.655 1478.74 L215.918 1477.07 L220.594 1477.07 L220.594 1507.7 L228.233 1507.7 L228.233 1511.63 L208.326 1511.63 L208.326 1507.7 Z" fill="#000000" fill-rule="evenodd" fill-opacity="1" /><path clip-path="url(#clip810)" d="M673.182 1507.7 L689.501 1507.7 L689.501 1511.63 L667.557 1511.63 L667.557 1507.7 Q670.219 1504.94 674.802 1500.31 Q679.409 1495.66 680.589 1494.32 Q682.835 1491.79 683.714 1490.06 Q684.617 1488.3 684.617 1486.61 Q684.617 1483.85 682.673 1482.12 Q680.751 1480.38 677.649 1480.38 Q675.45 1480.38 672.997 1481.15 Q670.566 1481.91 667.788 1483.46 L667.788 1478.74 Q670.612 1477.6 673.066 1477.03 Q675.52 1476.45 677.557 1476.45 Q682.927 1476.45 686.122 1479.13 Q689.316 1481.82 689.316 1486.31 Q689.316 1488.44 688.506 1490.36 Q687.719 1492.26 685.612 1494.85 Q685.034 1495.52 681.932 1498.74 Q678.83 1501.93 673.182 1507.7 Z" fill="#000000" fill-rule="evenodd" fill-opacity="1" /><path clip-path="url(#clip810)" d="M1143.36 1493 Q1146.72 1493.72 1148.59 1495.98 Q1150.49 1498.25 1150.49 1501.59 Q1150.49 1506.7 1146.97 1509.5 Q1143.45 1512.3 1136.97 1512.3 Q1134.8 1512.3 1132.48 1511.86 Q1130.19 1511.45 1127.74 1510.59 L1127.74 1506.08 Q1129.68 1507.21 1132 1507.79 Q1134.31 1508.37 1136.83 1508.37 Q1141.23 1508.37 1143.52 1506.63 Q1145.84 1504.9 1145.84 1501.59 Q1145.84 1498.53 1143.69 1496.82 Q1141.56 1495.08 1137.74 1495.08 L1133.71 1495.08 L1133.71 1491.24 L1137.92 1491.24 Q1141.37 1491.24 1143.2 1489.87 Q1145.03 1488.48 1145.03 1485.89 Q1145.03 1483.23 1143.13 1481.82 Q1141.26 1480.38 1137.74 1480.38 Q1135.82 1480.38 1133.62 1480.8 Q1131.42 1481.22 1128.78 1482.1 L1128.78 1477.93 Q1131.44 1477.19 1133.76 1476.82 Q1136.09 1476.45 1138.15 1476.45 Q1143.48 1476.45 1146.58 1478.88 Q1149.68 1481.29 1149.68 1485.41 Q1149.68 1488.28 1148.04 1490.27 Q1146.39 1492.23 1143.36 1493 Z" fill="#000000" fill-rule="evenodd" fill-opacity="1" /><path clip-path="url(#clip810)" d="M1602.71 1481.15 L1590.9 1499.6 L1602.71 1499.6 L1602.71 1481.15 M1601.48 1477.07 L1607.36 1477.07 L1607.36 1499.6 L1612.29 1499.6 L1612.29 1503.48 L1607.36 1503.48 L1607.36 1511.63 L1602.71 1511.63 L1602.71 1503.48 L1587.11 1503.48 L1587.11 1498.97 L1601.48 1477.07 Z" fill="#000000" fill-rule="evenodd" fill-opacity="1" /><path clip-path="url(#clip810)" d="M2050.56 1477.07 L2068.92 1477.07 L2068.92 1481.01 L2054.84 1481.01 L2054.84 1489.48 Q2055.86 1489.13 2056.88 1488.97 Q2057.9 1488.79 2058.92 1488.79 Q2064.71 1488.79 2068.09 1491.96 Q2071.46 1495.13 2071.46 1500.54 Q2071.46 1506.12 2067.99 1509.22 Q2064.52 1512.3 2058.2 1512.3 Q2056.03 1512.3 2053.76 1511.93 Q2051.51 1511.56 2049.1 1510.82 L2049.1 1506.12 Q2051.19 1507.26 2053.41 1507.81 Q2055.63 1508.37 2058.11 1508.37 Q2062.11 1508.37 2064.45 1506.26 Q2066.79 1504.16 2066.79 1500.54 Q2066.79 1496.93 2064.45 1494.83 Q2062.11 1492.72 2058.11 1492.72 Q2056.23 1492.72 2054.36 1493.14 Q2052.51 1493.55 2050.56 1494.43 L2050.56 1477.07 Z" fill="#000000" fill-rule="evenodd" fill-opacity="1" /><path clip-path="url(#clip810)" d="M1268.43 1539.92 Q1268.43 1541.72 1267.31 1542.75 Q1266.18 1543.75 1264.89 1543.75 Q1263.67 1543.75 1263.02 1543.04 Q1262.38 1542.33 1262.38 1541.43 Q1262.38 1540.21 1263.28 1539.14 Q1264.18 1538.08 1265.54 1537.85 Q1264.21 1537.02 1262.25 1537.02 Q1260.96 1537.02 1259.83 1537.69 Q1258.74 1538.37 1258.06 1539.24 Q1257.42 1540.11 1256.84 1541.37 Q1256.29 1542.59 1256.07 1543.33 Q1255.87 1544.04 1255.71 1544.81 L1253.46 1553.83 Q1252.36 1558.11 1252.36 1559.63 Q1252.36 1561.49 1253.26 1562.75 Q1254.17 1563.97 1255.97 1563.97 Q1256.68 1563.97 1257.48 1563.78 Q1258.29 1563.55 1259.32 1562.98 Q1260.38 1562.36 1261.32 1561.46 Q1262.28 1560.53 1263.22 1558.95 Q1264.15 1557.37 1264.76 1555.34 Q1264.96 1554.63 1265.6 1554.63 Q1266.4 1554.63 1266.4 1555.28 Q1266.4 1555.83 1265.95 1556.98 Q1265.54 1558.11 1264.6 1559.59 Q1263.7 1561.04 1262.51 1562.36 Q1261.32 1563.65 1259.54 1564.55 Q1257.77 1565.46 1255.84 1565.46 Q1253.07 1565.46 1251.24 1563.97 Q1249.4 1562.49 1248.72 1560.43 Q1248.56 1560.72 1248.34 1561.11 Q1248.11 1561.49 1247.44 1562.36 Q1246.79 1563.2 1246.05 1563.84 Q1245.31 1564.46 1244.15 1564.94 Q1243.02 1565.46 1241.8 1565.46 Q1240.25 1565.46 1238.87 1565 Q1237.52 1564.55 1236.55 1563.52 Q1235.58 1562.49 1235.58 1561.08 Q1235.58 1559.5 1236.65 1558.4 Q1237.74 1557.27 1239.22 1557.27 Q1240.16 1557.27 1240.9 1557.82 Q1241.67 1558.37 1241.67 1559.56 Q1241.67 1560.88 1240.77 1561.88 Q1239.87 1562.88 1238.58 1563.14 Q1239.9 1563.97 1241.86 1563.97 Q1243.99 1563.97 1245.66 1562.11 Q1247.34 1560.24 1248.14 1557.11 Q1250.14 1549.61 1250.91 1546.26 Q1251.69 1542.88 1251.69 1541.43 Q1251.69 1540.08 1251.33 1539.14 Q1250.98 1538.21 1250.37 1537.79 Q1249.79 1537.34 1249.24 1537.18 Q1248.72 1537.02 1248.14 1537.02 Q1247.18 1537.02 1246.08 1537.4 Q1245.02 1537.79 1243.73 1538.69 Q1242.48 1539.56 1241.28 1541.37 Q1240.09 1543.17 1239.29 1545.65 Q1239.13 1546.39 1238.42 1546.39 Q1237.65 1546.36 1237.65 1545.71 Q1237.65 1545.17 1238.06 1544.04 Q1238.51 1542.88 1239.42 1541.43 Q1240.35 1539.98 1241.54 1538.69 Q1242.77 1537.37 1244.54 1536.47 Q1246.34 1535.57 1248.27 1535.57 Q1249.14 1535.57 1249.98 1535.76 Q1250.85 1535.92 1251.88 1536.41 Q1252.94 1536.89 1253.88 1537.95 Q1254.81 1539.01 1255.39 1540.56 Q1255.78 1539.82 1256.29 1539.11 Q1256.84 1538.4 1257.68 1537.53 Q1258.55 1536.63 1259.74 1536.12 Q1260.96 1535.57 1262.31 1535.57 Q1263.64 1535.57 1264.92 1535.92 Q1266.21 1536.24 1267.31 1537.31 Q1268.43 1538.34 1268.43 1539.92 Z" fill="#000000" fill-rule="evenodd" fill-opacity="1" /><polyline clip-path="url(#clip812)" style="stroke:#000000; stroke-linecap:butt; stroke-linejoin:round; stroke-width:2; stroke-opacity:0.1; fill:none" points="
  155.765,1313.39 2352.76,1313.39 
  "/>
<polyline clip-path="url(#clip812)" style="stroke:#000000; stroke-linecap:butt; stroke-linejoin:round; stroke-width:2; stroke-opacity:0.1; fill:none" points="
  155.765,1042.1 2352.76,1042.1 
  "/>
<polyline clip-path="url(#clip812)" style="stroke:#000000; stroke-linecap:butt; stroke-linejoin:round; stroke-width:2; stroke-opacity:0.1; fill:none" points="
  155.765,770.808 2352.76,770.808 
  "/>
<polyline clip-path="url(#clip812)" style="stroke:#000000; stroke-linecap:butt; stroke-linejoin:round; stroke-width:2; stroke-opacity:0.1; fill:none" points="
  155.765,499.518 2352.76,499.518 
  "/>
<polyline clip-path="url(#clip812)" style="stroke:#000000; stroke-linecap:butt; stroke-linejoin:round; stroke-width:2; stroke-opacity:0.1; fill:none" points="
  155.765,228.229 2352.76,228.229 
  "/>
<polyline clip-path="url(#clip810)" style="stroke:#000000; stroke-linecap:butt; stroke-linejoin:round; stroke-width:4; stroke-opacity:1; fill:none" points="
  155.765,1450.96 155.765,47.2441 
  "/>
<polyline clip-path="url(#clip810)" style="stroke:#000000; stroke-linecap:butt; stroke-linejoin:round; stroke-width:4; stroke-opacity:1; fill:none" points="
  155.765,1313.39 174.663,1313.39 
  "/>
<polyline clip-path="url(#clip810)" style="stroke:#000000; stroke-linecap:butt; stroke-linejoin:round; stroke-width:4; stroke-opacity:1; fill:none" points="
  155.765,1042.1 174.663,1042.1 
  "/>
<polyline clip-path="url(#clip810)" style="stroke:#000000; stroke-linecap:butt; stroke-linejoin:round; stroke-width:4; stroke-opacity:1; fill:none" points="
  155.765,770.808 174.663,770.808 
  "/>
<polyline clip-path="url(#clip810)" style="stroke:#000000; stroke-linecap:butt; stroke-linejoin:round; stroke-width:4; stroke-opacity:1; fill:none" points="
  155.765,499.518 174.663,499.518 
  "/>
<polyline clip-path="url(#clip810)" style="stroke:#000000; stroke-linecap:butt; stroke-linejoin:round; stroke-width:4; stroke-opacity:1; fill:none" points="
  155.765,228.229 174.663,228.229 
  "/>
<path clip-path="url(#clip810)" d="M63.5847 1299.19 Q59.9736 1299.19 58.1449 1302.75 Q56.3393 1306.29 56.3393 1313.42 Q56.3393 1320.53 58.1449 1324.09 Q59.9736 1327.63 63.5847 1327.63 Q67.2189 1327.63 69.0244 1324.09 Q70.8531 1320.53 70.8531 1313.42 Q70.8531 1306.29 69.0244 1302.75 Q67.2189 1299.19 63.5847 1299.19 M63.5847 1295.48 Q69.3948 1295.48 72.4503 1300.09 Q75.529 1304.67 75.529 1313.42 Q75.529 1322.15 72.4503 1326.76 Q69.3948 1331.34 63.5847 1331.34 Q57.7745 1331.34 54.6958 1326.76 Q51.6403 1322.15 51.6403 1313.42 Q51.6403 1304.67 54.6958 1300.09 Q57.7745 1295.48 63.5847 1295.48 Z" fill="#000000" fill-rule="evenodd" fill-opacity="1" /><path clip-path="url(#clip810)" d="M83.7466 1324.79 L88.6308 1324.79 L88.6308 1330.67 L83.7466 1330.67 L83.7466 1324.79 Z" fill="#000000" fill-rule="evenodd" fill-opacity="1" /><path clip-path="url(#clip810)" d="M98.8622 1296.11 L117.219 1296.11 L117.219 1300.04 L103.145 1300.04 L103.145 1308.51 Q104.163 1308.17 105.182 1308.01 Q106.2 1307.82 107.219 1307.82 Q113.006 1307.82 116.385 1310.99 Q119.765 1314.16 119.765 1319.58 Q119.765 1325.16 116.293 1328.26 Q112.82 1331.34 106.501 1331.34 Q104.325 1331.34 102.057 1330.97 Q99.8113 1330.6 97.4039 1329.86 L97.4039 1325.16 Q99.4872 1326.29 101.709 1326.85 Q103.932 1327.4 106.408 1327.4 Q110.413 1327.4 112.751 1325.3 Q115.089 1323.19 115.089 1319.58 Q115.089 1315.97 112.751 1313.86 Q110.413 1311.76 106.408 1311.76 Q104.534 1311.76 102.659 1312.17 Q100.807 1312.59 98.8622 1313.47 L98.8622 1296.11 Z" fill="#000000" fill-rule="evenodd" fill-opacity="1" /><path clip-path="url(#clip810)" d="M53.3995 1055.44 L61.0384 1055.44 L61.0384 1029.08 L52.7282 1030.74 L52.7282 1026.48 L60.9921 1024.82 L65.668 1024.82 L65.668 1055.44 L73.3068 1055.44 L73.3068 1059.38 L53.3995 1059.38 L53.3995 1055.44 Z" fill="#000000" fill-rule="evenodd" fill-opacity="1" /><path clip-path="url(#clip810)" d="M82.7512 1053.5 L87.6354 1053.5 L87.6354 1059.38 L82.7512 1059.38 L82.7512 1053.5 Z" fill="#000000" fill-rule="evenodd" fill-opacity="1" /><path clip-path="url(#clip810)" d="M107.821 1027.9 Q104.209 1027.9 102.381 1031.46 Q100.575 1035 100.575 1042.13 Q100.575 1049.24 102.381 1052.8 Q104.209 1056.35 107.821 1056.35 Q111.455 1056.35 113.26 1052.8 Q115.089 1049.24 115.089 1042.13 Q115.089 1035 113.26 1031.46 Q111.455 1027.9 107.821 1027.9 M107.821 1024.19 Q113.631 1024.19 116.686 1028.8 Q119.765 1033.38 119.765 1042.13 Q119.765 1050.86 116.686 1055.47 Q113.631 1060.05 107.821 1060.05 Q102.01 1060.05 98.9317 1055.47 Q95.8761 1050.86 95.8761 1042.13 Q95.8761 1033.38 98.9317 1028.8 Q102.01 1024.19 107.821 1024.19 Z" fill="#000000" fill-rule="evenodd" fill-opacity="1" /><path clip-path="url(#clip810)" d="M54.3949 784.153 L62.0337 784.153 L62.0337 757.787 L53.7236 759.454 L53.7236 755.195 L61.9874 753.528 L66.6633 753.528 L66.6633 784.153 L74.3022 784.153 L74.3022 788.088 L54.3949 788.088 L54.3949 784.153 Z" fill="#000000" fill-rule="evenodd" fill-opacity="1" /><path clip-path="url(#clip810)" d="M83.7466 782.208 L88.6308 782.208 L88.6308 788.088 L83.7466 788.088 L83.7466 782.208 Z" fill="#000000" fill-rule="evenodd" fill-opacity="1" /><path clip-path="url(#clip810)" d="M98.8622 753.528 L117.219 753.528 L117.219 757.463 L103.145 757.463 L103.145 765.935 Q104.163 765.588 105.182 765.426 Q106.2 765.241 107.219 765.241 Q113.006 765.241 116.385 768.412 Q119.765 771.583 119.765 777 Q119.765 782.579 116.293 785.681 Q112.82 788.759 106.501 788.759 Q104.325 788.759 102.057 788.389 Q99.8113 788.019 97.4039 787.278 L97.4039 782.579 Q99.4872 783.713 101.709 784.269 Q103.932 784.824 106.408 784.824 Q110.413 784.824 112.751 782.718 Q115.089 780.611 115.089 777 Q115.089 773.389 112.751 771.282 Q110.413 769.176 106.408 769.176 Q104.534 769.176 102.659 769.593 Q100.807 770.009 98.8622 770.889 L98.8622 753.528 Z" fill="#000000" fill-rule="evenodd" fill-opacity="1" /><path clip-path="url(#clip810)" d="M56.6171 512.863 L72.9365 512.863 L72.9365 516.798 L50.9921 516.798 L50.9921 512.863 Q53.6541 510.108 58.2375 505.479 Q62.8439 500.826 64.0245 499.484 Q66.2698 496.96 67.1494 495.224 Q68.0522 493.465 68.0522 491.775 Q68.0522 489.021 66.1078 487.285 Q64.1865 485.548 61.0847 485.548 Q58.8856 485.548 56.4319 486.312 Q54.0014 487.076 51.2236 488.627 L51.2236 483.905 Q54.0477 482.771 56.5014 482.192 Q58.955 481.613 60.9921 481.613 Q66.3624 481.613 69.5568 484.298 Q72.7513 486.984 72.7513 491.474 Q72.7513 493.604 71.9411 495.525 Q71.1541 497.423 69.0476 500.016 Q68.4689 500.687 65.367 503.905 Q62.2652 507.099 56.6171 512.863 Z" fill="#000000" fill-rule="evenodd" fill-opacity="1" /><path clip-path="url(#clip810)" d="M82.7512 510.919 L87.6354 510.919 L87.6354 516.798 L82.7512 516.798 L82.7512 510.919 Z" fill="#000000" fill-rule="evenodd" fill-opacity="1" /><path clip-path="url(#clip810)" d="M107.821 485.317 Q104.209 485.317 102.381 488.882 Q100.575 492.423 100.575 499.553 Q100.575 506.659 102.381 510.224 Q104.209 513.766 107.821 513.766 Q111.455 513.766 113.26 510.224 Q115.089 506.659 115.089 499.553 Q115.089 492.423 113.26 488.882 Q111.455 485.317 107.821 485.317 M107.821 481.613 Q113.631 481.613 116.686 486.22 Q119.765 490.803 119.765 499.553 Q119.765 508.28 116.686 512.886 Q113.631 517.47 107.821 517.47 Q102.01 517.47 98.9317 512.886 Q95.8761 508.28 95.8761 499.553 Q95.8761 490.803 98.9317 486.22 Q102.01 481.613 107.821 481.613 Z" fill="#000000" fill-rule="evenodd" fill-opacity="1" /><path clip-path="url(#clip810)" d="M57.6125 241.573 L73.9318 241.573 L73.9318 245.509 L51.9875 245.509 L51.9875 241.573 Q54.6495 238.819 59.2328 234.189 Q63.8393 229.536 65.0198 228.194 Q67.2652 225.671 68.1448 223.935 Q69.0476 222.175 69.0476 220.486 Q69.0476 217.731 67.1032 215.995 Q65.1819 214.259 62.08 214.259 Q59.881 214.259 57.4273 215.023 Q54.9967 215.787 52.219 217.337 L52.219 212.615 Q55.043 211.481 57.4967 210.902 Q59.9504 210.324 61.9874 210.324 Q67.3578 210.324 70.5522 213.009 Q73.7466 215.694 73.7466 220.185 Q73.7466 222.314 72.9365 224.236 Q72.1494 226.134 70.0429 228.726 Q69.4642 229.398 66.3624 232.615 Q63.2606 235.81 57.6125 241.573 Z" fill="#000000" fill-rule="evenodd" fill-opacity="1" /><path clip-path="url(#clip810)" d="M83.7466 239.629 L88.6308 239.629 L88.6308 245.509 L83.7466 245.509 L83.7466 239.629 Z" fill="#000000" fill-rule="evenodd" fill-opacity="1" /><path clip-path="url(#clip810)" d="M98.8622 210.949 L117.219 210.949 L117.219 214.884 L103.145 214.884 L103.145 223.356 Q104.163 223.009 105.182 222.847 Q106.2 222.661 107.219 222.661 Q113.006 222.661 116.385 225.833 Q119.765 229.004 119.765 234.421 Q119.765 239.999 116.293 243.101 Q112.82 246.18 106.501 246.18 Q104.325 246.18 102.057 245.81 Q99.8113 245.439 97.4039 244.698 L97.4039 239.999 Q99.4872 241.134 101.709 241.689 Q103.932 242.245 106.408 242.245 Q110.413 242.245 112.751 240.138 Q115.089 238.032 115.089 234.421 Q115.089 230.81 112.751 228.703 Q110.413 226.597 106.408 226.597 Q104.534 226.597 102.659 227.013 Q100.807 227.43 98.8622 228.31 L98.8622 210.949 Z" fill="#000000" fill-rule="evenodd" fill-opacity="1" /><circle clip-path="url(#clip812)" cx="217.944" cy="220.04" r="14" fill="#009af9" fill-rule="evenodd" fill-opacity="1" stroke="#000000" stroke-opacity="1" stroke-width="3.2"/>
<circle clip-path="url(#clip812)" cx="365.989" cy="686.897" r="14" fill="#009af9" fill-rule="evenodd" fill-opacity="1" stroke="#000000" stroke-opacity="1" stroke-width="3.2"/>
<circle clip-path="url(#clip812)" cx="514.034" cy="1127.45" r="14" fill="#009af9" fill-rule="evenodd" fill-opacity="1" stroke="#000000" stroke-opacity="1" stroke-width="3.2"/>
<circle clip-path="url(#clip812)" cx="662.08" cy="1342.63" r="14" fill="#009af9" fill-rule="evenodd" fill-opacity="1" stroke="#000000" stroke-opacity="1" stroke-width="3.2"/>
<circle clip-path="url(#clip812)" cx="810.125" cy="1375.8" r="14" fill="#009af9" fill-rule="evenodd" fill-opacity="1" stroke="#000000" stroke-opacity="1" stroke-width="3.2"/>
<circle clip-path="url(#clip812)" cx="958.17" cy="1332.1" r="14" fill="#009af9" fill-rule="evenodd" fill-opacity="1" stroke="#000000" stroke-opacity="1" stroke-width="3.2"/>
<circle clip-path="url(#clip812)" cx="1106.22" cy="1227.23" r="14" fill="#009af9" fill-rule="evenodd" fill-opacity="1" stroke="#000000" stroke-opacity="1" stroke-width="3.2"/>
<circle clip-path="url(#clip812)" cx="1254.26" cy="938.96" r="14" fill="#009af9" fill-rule="evenodd" fill-opacity="1" stroke="#000000" stroke-opacity="1" stroke-width="3.2"/>
<circle clip-path="url(#clip812)" cx="1402.31" cy="431.679" r="14" fill="#009af9" fill-rule="evenodd" fill-opacity="1" stroke="#000000" stroke-opacity="1" stroke-width="3.2"/>
<circle clip-path="url(#clip812)" cx="1550.35" cy="87.1034" r="14" fill="#009af9" fill-rule="evenodd" fill-opacity="1" stroke="#000000" stroke-opacity="1" stroke-width="3.2"/>
<circle clip-path="url(#clip812)" cx="1698.4" cy="318.475" r="14" fill="#009af9" fill-rule="evenodd" fill-opacity="1" stroke="#000000" stroke-opacity="1" stroke-width="3.2"/>
<circle clip-path="url(#clip812)" cx="1846.44" cy="841.68" r="14" fill="#009af9" fill-rule="evenodd" fill-opacity="1" stroke="#000000" stroke-opacity="1" stroke-width="3.2"/>
<circle clip-path="url(#clip812)" cx="1994.49" cy="1192.18" r="14" fill="#009af9" fill-rule="evenodd" fill-opacity="1" stroke="#000000" stroke-opacity="1" stroke-width="3.2"/>
<circle clip-path="url(#clip812)" cx="2142.53" cy="1321.04" r="14" fill="#009af9" fill-rule="evenodd" fill-opacity="1" stroke="#000000" stroke-opacity="1" stroke-width="3.2"/>
<circle clip-path="url(#clip812)" cx="2290.58" cy="1365.26" r="14" fill="#009af9" fill-rule="evenodd" fill-opacity="1" stroke="#000000" stroke-opacity="1" stroke-width="3.2"/>
<polyline clip-path="url(#clip812)" style="stroke:#e26f46; stroke-linecap:butt; stroke-linejoin:round; stroke-width:4; stroke-opacity:1; fill:none" points="
  217.944,220.04 228.359,254.237 238.774,291.387 249.19,330.27 259.605,369.653 270.02,408.405 280.435,445.61 290.851,480.647 301.266,513.241 311.681,543.474 
  322.096,571.757 332.512,598.76 342.927,625.32 353.342,652.326 363.757,680.605 374.173,710.806 384.588,743.317 395.003,778.206 405.418,815.2 415.833,853.709 
  426.249,892.881 436.664,931.694 447.079,969.062 457.494,1003.96 467.91,1035.53 478.325,1063.17 488.74,1086.62 499.155,1105.97 509.571,1121.67 519.986,1134.45 
  530.401,1145.25 540.816,1155.14 551.232,1165.17 561.647,1176.24 572.062,1189.05 582.477,1203.97 592.893,1221.03 603.308,1239.93 613.723,1260.04 624.138,1280.51 
  634.554,1300.35 644.969,1318.56 655.384,1334.23 665.799,1346.67 676.215,1355.47 686.63,1360.57 697.045,1362.25 707.46,1361.11 717.875,1358.01 728.291,1353.96 
  738.706,1350.04 749.121,1347.22 759.536,1346.31 769.952,1347.85 780.367,1352.03 790.782,1358.7 801.197,1367.36 811.613,1377.25 822.028,1387.41 832.443,1396.8 
  842.858,1404.43 853.274,1409.43 863.689,1411.23 874.104,1409.54 884.519,1404.44 894.935,1396.32 905.35,1385.9 915.765,1374.09 926.18,1361.92 936.596,1350.39 
  947.011,1340.39 957.426,1332.57 967.841,1327.27 978.257,1324.51 988.672,1323.91 999.087,1324.83 1009.5,1326.35 1019.92,1327.45 1030.33,1327.04 1040.75,1324.17 
  1051.16,1318.07 1061.58,1308.24 1071.99,1294.57 1082.41,1277.24 1092.82,1256.8 1103.24,1234.03 1113.65,1209.89 1124.07,1185.4 1134.49,1161.5 1144.9,1138.96 
  1155.32,1118.29 1165.73,1099.66 1176.15,1082.9 1186.56,1067.51 1196.98,1052.71 1207.39,1037.54 1217.81,1020.94 1228.22,1001.94 1238.64,979.669 1249.05,953.555 
  1259.47,923.334 1269.88,889.107 1280.3,851.327 1290.71,810.759 1301.13,768.394 1311.54,725.355 1321.96,682.77 1332.37,641.659 1342.79,602.833 1353.21,566.812 
  1363.62,533.785 1374.04,503.601 1384.45,475.808 1394.87,449.721 1405.28,424.519 1415.7,399.362 1426.11,373.501 1436.53,346.393 1446.94,317.776 1457.36,287.724 
  1467.77,256.657 1478.19,225.314 1488.6,194.688 1499.02,165.929 1509.43,140.231 1519.85,118.711 1530.26,102.294 1540.68,91.6174 1551.09,86.9719 1561.51,88.2713 
  1571.93,95.0685 1582.34,106.609 1592.76,121.915 1603.17,139.898 1613.59,159.473 1624,179.679 1634.42,199.777 1644.83,219.323 1655.25,238.205 1665.66,256.641 
  1676.08,275.14 1686.49,294.419 1696.91,315.31 1707.32,338.64 1717.74,365.122 1728.15,395.244 1738.57,429.201 1748.98,466.848 1759.4,507.697 1769.81,550.95 
  1780.23,595.575 1790.65,640.401 1801.06,684.237 1811.48,725.987 1821.89,764.764 1832.31,799.976 1842.72,831.376 1853.14,859.087 1863.55,883.568 1873.97,905.56 
  1884.38,925.99 1894.8,945.863 1905.21,966.134 1915.63,987.606 1926.04,1010.82 1936.46,1036.02 1946.87,1063.08 1957.29,1091.55 1967.7,1120.71 1978.12,1149.64 
  1988.53,1177.31 1998.95,1202.74 2009.37,1225.08 2019.78,1243.72 2030.2,1258.38 2040.61,1269.1 2051.03,1276.29 2061.44,1280.65 2071.86,1283.13 2082.27,1284.77 
  2092.69,1286.64 2103.1,1289.69 2113.52,1294.67 2123.93,1302 2134.35,1311.78 2144.76,1323.77 2155.18,1337.37 2165.59,1351.77 2176.01,1365.98 2186.42,1378.99 
  2196.84,1389.83 2207.25,1397.77 2217.67,1402.32 2228.09,1403.32 2238.5,1400.99 2248.92,1395.85 2259.33,1388.71 2269.75,1380.54 2280.16,1372.39 2290.58,1365.26 
  
  "/>
<polyline clip-path="url(#clip812)" style="stroke:#3da44d; stroke-linecap:butt; stroke-linejoin:round; stroke-width:4; stroke-opacity:1; fill:none" points="
  217.944,220.04 228.359,252.884 238.774,285.728 249.19,318.573 259.605,351.417 270.02,384.261 280.435,417.105 290.851,449.95 301.266,482.794 311.681,515.638 
  322.096,548.482 332.512,581.326 342.927,614.171 353.342,647.015 363.757,679.859 374.173,711.25 384.588,742.243 395.003,773.237 405.418,804.231 415.833,835.225 
  426.249,866.219 436.664,897.212 447.079,928.206 457.494,959.2 467.91,990.194 478.325,1021.19 488.74,1052.18 499.155,1083.18 509.571,1114.17 519.986,1136.1 
  530.401,1151.24 540.816,1166.38 551.232,1181.52 561.647,1196.66 572.062,1211.79 582.477,1226.93 592.893,1242.07 603.308,1257.21 613.723,1272.35 624.138,1287.49 
  634.554,1302.62 644.969,1317.76 655.384,1332.9 665.799,1343.47 676.215,1345.8 686.63,1348.13 697.045,1350.47 707.46,1352.8 717.875,1355.13 728.291,1357.47 
  738.706,1359.8 749.121,1362.13 759.536,1364.47 769.952,1366.8 780.367,1369.13 790.782,1371.47 801.197,1373.8 811.613,1375.36 822.028,1372.29 832.443,1369.21 
  842.858,1366.14 853.274,1363.06 863.689,1359.99 874.104,1356.92 884.519,1353.84 894.935,1350.77 905.35,1347.69 915.765,1344.62 926.18,1341.55 936.596,1338.47 
  947.011,1335.4 957.426,1332.32 967.841,1325.25 978.257,1317.87 988.672,1310.5 999.087,1303.12 1009.5,1295.74 1019.92,1288.36 1030.33,1280.98 1040.75,1273.6 
  1051.16,1266.23 1061.58,1258.85 1071.99,1251.47 1082.41,1244.09 1092.82,1236.71 1103.24,1229.33 1113.65,1212.74 1124.07,1192.46 1134.49,1172.18 1144.9,1151.9 
  1155.32,1131.62 1165.73,1111.34 1176.15,1091.06 1186.56,1070.78 1196.98,1050.5 1207.39,1030.22 1217.81,1009.94 1228.22,989.66 1238.64,969.38 1249.05,949.1 
  1259.47,921.116 1269.88,885.428 1280.3,849.74 1290.71,814.052 1301.13,778.364 1311.54,742.676 1321.96,706.988 1332.37,671.299 1342.79,635.611 1353.21,599.923 
  1363.62,564.235 1374.04,528.547 1384.45,492.859 1394.87,457.171 1405.28,424.753 1415.7,400.512 1426.11,376.27 1436.53,352.029 1446.94,327.787 1457.36,303.546 
  1467.77,279.304 1478.19,255.063 1488.6,230.821 1499.02,206.579 1509.43,182.338 1519.85,158.096 1530.26,133.855 1540.68,109.613 1551.09,88.2661 1561.51,104.543 
  1571.93,120.821 1582.34,137.098 1592.76,153.376 1603.17,169.653 1613.59,185.93 1624,202.208 1634.42,218.485 1644.83,234.763 1655.25,251.04 1665.66,267.317 
  1676.08,283.595 1686.49,299.872 1696.91,316.149 1707.32,350.025 1717.74,386.833 1728.15,423.642 1738.57,460.45 1748.98,497.258 1759.4,534.067 1769.81,570.875 
  1780.23,607.683 1790.65,644.492 1801.06,681.3 1811.48,718.109 1821.89,754.917 1832.31,791.725 1842.72,828.534 1853.14,857.531 1863.55,882.189 1873.97,906.847 
  1884.38,931.505 1894.8,956.163 1905.21,980.821 1915.63,1005.48 1926.04,1030.14 1936.46,1054.79 1946.87,1079.45 1957.29,1104.11 1967.7,1128.77 1978.12,1153.43 
  1988.53,1178.08 1998.95,1196.06 2009.37,1205.13 2019.78,1214.19 2030.2,1223.26 2040.61,1232.32 2051.03,1241.39 2061.44,1250.45 2071.86,1259.52 2082.27,1268.59 
  2092.69,1277.65 2103.1,1286.72 2113.52,1295.78 2123.93,1304.85 2134.35,1313.91 2144.76,1321.7 2155.18,1324.81 2165.59,1327.93 2176.01,1331.04 2186.42,1334.15 
  2196.84,1337.26 2207.25,1340.37 2217.67,1343.48 2228.09,1346.59 2238.5,1349.71 2248.92,1352.82 2259.33,1355.93 2269.75,1359.04 2280.16,1362.15 2290.58,1365.26 
  
  "/>
<path clip-path="url(#clip810)" d="
M386.661 301.395 L1303.08 301.395 L1303.08 94.0346 L386.661 94.0346  Z
  " fill="#ffffff" fill-rule="evenodd" fill-opacity="1"/>
<polyline clip-path="url(#clip810)" style="stroke:#000000; stroke-linecap:butt; stroke-linejoin:round; stroke-width:4; stroke-opacity:1; fill:none" points="
  386.661,301.395 1303.08,301.395 1303.08,94.0346 386.661,94.0346 386.661,301.395 
  "/>
<circle clip-path="url(#clip810)" cx="484.305" cy="145.875" r="23" fill="#009af9" fill-rule="evenodd" fill-opacity="1" stroke="#000000" stroke-opacity="1" stroke-width="5.12"/>
<path clip-path="url(#clip810)" d="M595.792 165.562 Q593.986 170.192 592.273 171.604 Q590.56 173.016 587.69 173.016 L584.287 173.016 L584.287 169.451 L586.787 169.451 Q588.546 169.451 589.519 168.618 Q590.491 167.784 591.671 164.682 L592.435 162.738 L581.949 137.229 L586.463 137.229 L594.565 157.507 L602.667 137.229 L607.181 137.229 L595.792 165.562 Z" fill="#000000" fill-rule="evenodd" fill-opacity="1" /><path clip-path="url(#clip810)" d="M624.935 149.173 Q627.805 149.729 629.403 151.419 Q631 153.108 631 155.608 Q631 159.613 628.014 161.719 Q625.028 163.826 619.518 163.826 Q617.667 163.826 615.699 163.502 Q613.755 163.178 611.671 162.53 L611.671 158.571 Q613.315 159.428 615.282 159.868 Q617.25 160.284 619.403 160.284 Q622.898 160.284 624.842 158.988 Q626.81 157.692 626.81 155.608 Q626.81 153.571 625.074 152.345 Q623.338 151.095 620.167 151.095 L616.741 151.095 L616.741 147.576 L620.329 147.576 Q623.014 147.576 624.565 146.558 Q626.139 145.516 626.139 143.895 Q626.139 142.414 624.518 141.349 Q622.921 140.284 620.167 140.284 Q618.523 140.284 616.648 140.585 Q614.796 140.886 612.551 141.558 L612.551 137.692 Q614.819 137.136 616.787 136.858 Q618.755 136.581 620.514 136.581 Q625.051 136.581 627.667 138.409 Q630.305 140.215 630.305 143.479 Q630.305 145.632 628.917 147.136 Q627.528 148.618 624.935 149.173 Z" fill="#000000" fill-rule="evenodd" fill-opacity="1" /><path clip-path="url(#clip810)" d="M635.56 163.155 L635.56 159.613 Q639.773 158.965 641.069 156.048 Q642.643 151.951 642.643 141.465 L642.643 137.229 L660.166 137.229 L660.166 163.155 L655.907 163.155 L655.907 140.632 L646.903 140.632 L646.903 143.201 Q646.903 153.201 644.866 157.692 Q642.69 162.483 635.56 163.155 Z" fill="#000000" fill-rule="evenodd" fill-opacity="1" /><path clip-path="url(#clip810)" d="M693.06 137.229 L697.319 137.229 L697.319 163.155 L693.06 163.155 L693.06 137.229 M695.189 136.604 L695.189 136.604 M684.703 155.469 Q684.703 153.386 683.176 152.298 Q681.671 151.21 678.754 151.21 L672.689 151.21 L672.689 159.752 L678.754 159.752 Q681.671 159.752 683.176 158.664 Q684.703 157.553 684.703 155.469 M668.407 137.229 L672.689 137.229 L672.689 147.807 L678.939 147.807 Q683.893 147.807 686.555 149.706 Q689.24 151.581 689.24 155.469 Q689.24 159.358 686.555 161.256 Q683.893 163.155 678.939 163.155 L668.407 163.155 L668.407 137.229 Z" fill="#000000" fill-rule="evenodd" fill-opacity="1" /><path clip-path="url(#clip810)" d="M743.106 137.229 L743.106 163.155 L738.87 163.155 L738.87 142.345 L726.37 163.155 L720.907 163.155 L720.907 137.229 L725.143 137.229 L725.143 157.993 L737.62 137.229 L743.106 137.229 Z" fill="#000000" fill-rule="evenodd" fill-opacity="1" /><path clip-path="url(#clip810)" d="M751.717 137.229 L755.999 137.229 L755.999 147.807 L769.819 147.807 L769.819 137.229 L774.101 137.229 L774.101 163.155 L769.819 163.155 L769.819 151.21 L755.999 151.21 L755.999 163.155 L751.717 163.155 L751.717 137.229 Z" fill="#000000" fill-rule="evenodd" fill-opacity="1" /><path clip-path="url(#clip810)" d="M779.795 137.229 L804.633 137.229 L804.633 140.632 L794.309 140.632 L794.309 163.155 L790.119 163.155 L790.119 140.632 L779.795 140.632 L779.795 137.229 Z" fill="#000000" fill-rule="evenodd" fill-opacity="1" /><path clip-path="url(#clip810)" d="M832.665 149.127 L832.665 151.21 L813.082 151.21 Q813.36 155.608 815.721 157.923 Q818.105 160.215 822.341 160.215 Q824.795 160.215 827.087 159.613 Q829.402 159.011 831.67 157.807 L831.67 161.835 Q829.378 162.807 826.971 163.317 Q824.564 163.826 822.087 163.826 Q815.883 163.826 812.249 160.215 Q808.638 156.604 808.638 150.446 Q808.638 144.081 812.064 140.354 Q815.513 136.604 821.346 136.604 Q826.578 136.604 829.61 139.983 Q832.665 143.34 832.665 149.127 M828.406 147.877 Q828.36 144.382 826.439 142.298 Q824.54 140.215 821.392 140.215 Q817.828 140.215 815.675 142.229 Q813.545 144.243 813.221 147.9 L828.406 147.877 Z" fill="#000000" fill-rule="evenodd" fill-opacity="1" /><path clip-path="url(#clip810)" d="M843.776 159.266 L843.776 173.016 L839.494 173.016 L839.494 137.229 L843.776 137.229 L843.776 141.164 Q845.119 138.849 847.156 137.738 Q849.216 136.604 852.063 136.604 Q856.786 136.604 859.725 140.354 Q862.688 144.104 862.688 150.215 Q862.688 156.326 859.725 160.076 Q856.786 163.826 852.063 163.826 Q849.216 163.826 847.156 162.715 Q845.119 161.581 843.776 159.266 M858.267 150.215 Q858.267 145.516 856.323 142.854 Q854.401 140.169 851.022 140.169 Q847.642 140.169 845.698 142.854 Q843.776 145.516 843.776 150.215 Q843.776 154.914 845.698 157.599 Q847.642 160.261 851.022 160.261 Q854.401 160.261 856.323 157.599 Q858.267 154.914 858.267 150.215 Z" fill="#000000" fill-rule="evenodd" fill-opacity="1" /><path clip-path="url(#clip810)" d="M891.971 137.229 L891.971 163.155 L887.688 163.155 L887.688 140.632 L873.869 140.632 L873.869 163.155 L869.587 163.155 L869.587 137.229 L891.971 137.229 Z" fill="#000000" fill-rule="evenodd" fill-opacity="1" /><path clip-path="url(#clip810)" d="M910.79 140.215 Q907.364 140.215 905.373 142.9 Q903.383 145.562 903.383 150.215 Q903.383 154.868 905.35 157.553 Q907.341 160.215 910.79 160.215 Q914.193 160.215 916.184 157.53 Q918.174 154.844 918.174 150.215 Q918.174 145.608 916.184 142.923 Q914.193 140.215 910.79 140.215 M910.79 136.604 Q916.346 136.604 919.517 140.215 Q922.688 143.826 922.688 150.215 Q922.688 156.581 919.517 160.215 Q916.346 163.826 910.79 163.826 Q905.211 163.826 902.04 160.215 Q898.892 156.581 898.892 150.215 Q898.892 143.826 902.04 140.215 Q905.211 136.604 910.79 136.604 Z" fill="#000000" fill-rule="evenodd" fill-opacity="1" /><path clip-path="url(#clip810)" d="M927.04 163.155 L927.04 159.613 Q931.253 158.965 932.549 156.048 Q934.123 151.951 934.123 141.465 L934.123 137.229 L951.646 137.229 L951.646 163.155 L947.387 163.155 L947.387 140.632 L938.382 140.632 L938.382 143.201 Q938.382 153.201 936.345 157.692 Q934.17 162.483 927.04 163.155 Z" fill="#000000" fill-rule="evenodd" fill-opacity="1" /><path clip-path="url(#clip810)" d="M964.331 144.706 Q964.331 146.627 965.813 147.715 Q967.294 148.803 970.049 148.803 L975.79 148.803 L975.79 140.632 L970.049 140.632 Q967.294 140.632 965.813 141.696 Q964.331 142.761 964.331 144.706 M958.267 163.155 L966.183 151.789 Q963.498 151.187 961.716 149.613 Q959.933 148.016 959.933 144.706 Q959.933 140.956 962.41 139.104 Q964.91 137.229 969.933 137.229 L980.072 137.229 L980.072 163.155 L975.79 163.155 L975.79 152.206 L970.489 152.206 L962.85 163.155 L958.267 163.155 Z" fill="#000000" fill-rule="evenodd" fill-opacity="1" /><path clip-path="url(#clip810)" d="M1010.79 163.155 L988.405 163.155 L988.405 137.229 L992.688 137.229 L992.688 159.752 L1006.51 159.752 L1006.51 137.229 L1010.79 137.229 L1010.79 159.752 L1014.19 159.752 L1014.19 169.706 L1010.79 169.706 L1010.79 163.155 Z" fill="#000000" fill-rule="evenodd" fill-opacity="1" /><path clip-path="url(#clip810)" d="M1042.87 137.229 L1042.87 163.155 L1038.64 163.155 L1038.64 142.345 L1026.14 163.155 L1020.67 163.155 L1020.67 137.229 L1024.91 137.229 L1024.91 157.993 L1037.39 137.229 L1042.87 137.229 Z" fill="#000000" fill-rule="evenodd" fill-opacity="1" /><path clip-path="url(#clip810)" d="M1073.68 137.229 L1073.68 163.155 L1069.45 163.155 L1069.45 142.345 L1056.95 163.155 L1051.48 163.155 L1051.48 137.229 L1055.72 137.229 L1055.72 157.993 L1068.2 137.229 L1073.68 137.229 Z" fill="#000000" fill-rule="evenodd" fill-opacity="1" /><polyline clip-path="url(#clip810)" style="stroke:#e26f46; stroke-linecap:butt; stroke-linejoin:round; stroke-width:4; stroke-opacity:1; fill:none" points="
  411.072,197.715 557.538,197.715 
  "/>
<path clip-path="url(#clip810)" d="M605.977 200.967 L605.977 203.05 L586.394 203.05 Q586.671 207.448 589.032 209.763 Q591.417 212.055 595.653 212.055 Q598.107 212.055 600.398 211.453 Q602.713 210.851 604.981 209.647 L604.981 213.675 Q602.69 214.647 600.282 215.157 Q597.875 215.666 595.398 215.666 Q589.195 215.666 585.56 212.055 Q581.949 208.444 581.949 202.286 Q581.949 195.921 585.375 192.194 Q588.824 188.444 594.657 188.444 Q599.889 188.444 602.921 191.823 Q605.977 195.18 605.977 200.967 M601.718 199.717 Q601.671 196.222 599.75 194.138 Q597.852 192.055 594.704 192.055 Q591.139 192.055 588.986 194.069 Q586.857 196.083 586.533 199.74 L601.718 199.717 Z" fill="#000000" fill-rule="evenodd" fill-opacity="1" /><path clip-path="url(#clip810)" d="M633.685 189.069 L624.31 201.685 L634.171 214.995 L629.148 214.995 L621.602 204.81 L614.056 214.995 L609.032 214.995 L619.102 201.43 L609.889 189.069 L614.912 189.069 L621.787 198.305 L628.662 189.069 L633.685 189.069 Z" fill="#000000" fill-rule="evenodd" fill-opacity="1" /><path clip-path="url(#clip810)" d="M644.31 211.106 L644.31 224.856 L640.028 224.856 L640.028 189.069 L644.31 189.069 L644.31 193.004 Q645.653 190.689 647.69 189.578 Q649.75 188.444 652.597 188.444 Q657.319 188.444 660.259 192.194 Q663.222 195.944 663.222 202.055 Q663.222 208.166 660.259 211.916 Q657.319 215.666 652.597 215.666 Q649.75 215.666 647.69 214.555 Q645.653 213.421 644.31 211.106 M658.801 202.055 Q658.801 197.356 656.856 194.694 Q654.935 192.009 651.555 192.009 Q648.176 192.009 646.231 194.694 Q644.31 197.356 644.31 202.055 Q644.31 206.754 646.231 209.439 Q648.176 212.101 651.555 212.101 Q654.935 212.101 656.856 209.439 Q658.801 206.754 658.801 202.055 Z" fill="#000000" fill-rule="evenodd" fill-opacity="1" /><path clip-path="url(#clip810)" d="M680.513 179.023 Q677.412 184.347 675.907 189.555 Q674.402 194.763 674.402 200.11 Q674.402 205.458 675.907 210.712 Q677.435 215.944 680.513 221.245 L676.81 221.245 Q673.338 215.805 671.601 210.55 Q669.889 205.296 669.889 200.11 Q669.889 194.948 671.601 189.717 Q673.314 184.486 676.81 179.023 L680.513 179.023 Z" fill="#000000" fill-rule="evenodd" fill-opacity="1" /><path clip-path="url(#clip810)" d="M705.305 189.833 L705.305 193.86 Q703.499 192.935 701.555 192.472 Q699.611 192.009 697.527 192.009 Q694.356 192.009 692.759 192.981 Q691.185 193.953 691.185 195.898 Q691.185 197.379 692.319 198.235 Q693.453 199.069 696.879 199.833 L698.337 200.157 Q702.874 201.129 704.773 202.911 Q706.694 204.671 706.694 207.842 Q706.694 211.453 703.824 213.559 Q700.976 215.666 695.976 215.666 Q693.893 215.666 691.625 215.249 Q689.379 214.856 686.879 214.046 L686.879 209.647 Q689.24 210.874 691.532 211.499 Q693.824 212.101 696.069 212.101 Q699.078 212.101 700.699 211.083 Q702.319 210.041 702.319 208.166 Q702.319 206.43 701.138 205.504 Q699.981 204.578 696.023 203.722 L694.541 203.374 Q690.583 202.541 688.824 200.828 Q687.064 199.092 687.064 196.083 Q687.064 192.425 689.657 190.435 Q692.25 188.444 697.018 188.444 Q699.379 188.444 701.462 188.791 Q703.546 189.138 705.305 189.833 Z" fill="#000000" fill-rule="evenodd" fill-opacity="1" /><path clip-path="url(#clip810)" d="M713.476 189.069 L717.736 189.069 L717.736 214.995 L713.476 214.995 L713.476 189.069 M713.476 178.976 L717.736 178.976 L717.736 184.37 L713.476 184.37 L713.476 178.976 Z" fill="#000000" fill-rule="evenodd" fill-opacity="1" /><path clip-path="url(#clip810)" d="M748.198 199.347 L748.198 214.995 L743.939 214.995 L743.939 199.485 Q743.939 195.805 742.504 193.976 Q741.069 192.148 738.198 192.148 Q734.749 192.148 732.759 194.347 Q730.768 196.546 730.768 200.342 L730.768 214.995 L726.485 214.995 L726.485 189.069 L730.768 189.069 L730.768 193.097 Q732.296 190.759 734.356 189.601 Q736.439 188.444 739.147 188.444 Q743.615 188.444 745.907 191.222 Q748.198 193.976 748.198 199.347 Z" fill="#000000" fill-rule="evenodd" fill-opacity="1" /><path clip-path="url(#clip810)" d="M766.925 179.023 Q763.823 184.347 762.319 189.555 Q760.814 194.763 760.814 200.11 Q760.814 205.458 762.319 210.712 Q763.846 215.944 766.925 221.245 L763.221 221.245 Q759.749 215.805 758.013 210.55 Q756.3 205.296 756.3 200.11 Q756.3 194.948 758.013 189.717 Q759.726 184.486 763.221 179.023 L766.925 179.023 Z" fill="#000000" fill-rule="evenodd" fill-opacity="1" /><path clip-path="url(#clip810)" d="M779.819 211.059 L796.138 211.059 L796.138 214.995 L774.194 214.995 L774.194 211.059 Q776.856 208.305 781.439 203.675 Q786.045 199.022 787.226 197.68 Q789.471 195.157 790.351 193.421 Q791.254 191.661 791.254 189.972 Q791.254 187.217 789.309 185.481 Q787.388 183.745 784.286 183.745 Q782.087 183.745 779.633 184.509 Q777.203 185.273 774.425 186.823 L774.425 182.101 Q777.249 180.967 779.703 180.388 Q782.156 179.81 784.193 179.81 Q789.564 179.81 792.758 182.495 Q795.953 185.18 795.953 189.671 Q795.953 191.8 795.142 193.722 Q794.355 195.62 792.249 198.212 Q791.67 198.884 788.568 202.101 Q785.467 205.296 779.819 211.059 Z" fill="#000000" fill-rule="evenodd" fill-opacity="1" /><path clip-path="url(#clip810)" d="M826.902 189.069 L817.527 201.685 L827.388 214.995 L822.365 214.995 L814.818 204.81 L807.272 214.995 L802.249 214.995 L812.318 201.43 L803.105 189.069 L808.129 189.069 L815.004 198.305 L821.878 189.069 L826.902 189.069 Z" fill="#000000" fill-rule="evenodd" fill-opacity="1" /><path clip-path="url(#clip810)" d="M832.735 179.023 L836.439 179.023 Q839.911 184.486 841.624 189.717 Q843.36 194.948 843.36 200.11 Q843.36 205.296 841.624 210.55 Q839.911 215.805 836.439 221.245 L832.735 221.245 Q835.814 215.944 837.318 210.712 Q838.846 205.458 838.846 200.11 Q838.846 194.763 837.318 189.555 Q835.814 184.347 832.735 179.023 Z" fill="#000000" fill-rule="evenodd" fill-opacity="1" /><path clip-path="url(#clip810)" d="M851.23 179.023 L854.934 179.023 Q858.406 184.486 860.119 189.717 Q861.855 194.948 861.855 200.11 Q861.855 205.296 860.119 210.55 Q858.406 215.805 854.934 221.245 L851.23 221.245 Q854.309 215.944 855.813 210.712 Q857.341 205.458 857.341 200.11 Q857.341 194.763 855.813 189.555 Q854.309 184.347 851.23 179.023 Z" fill="#000000" fill-rule="evenodd" fill-opacity="1" /><path clip-path="url(#clip810)" d="M902.804 185.273 L902.804 198.166 L915.697 198.166 L915.697 202.101 L902.804 202.101 L902.804 214.995 L898.915 214.995 L898.915 202.101 L886.022 202.101 L886.022 198.166 L898.915 198.166 L898.915 185.273 L902.804 185.273 Z" fill="#000000" fill-rule="evenodd" fill-opacity="1" /><path clip-path="url(#clip810)" d="M950.859 183.513 Q947.248 183.513 945.419 187.078 Q943.614 190.62 943.614 197.749 Q943.614 204.856 945.419 208.421 Q947.248 211.962 950.859 211.962 Q954.493 211.962 956.299 208.421 Q958.128 204.856 958.128 197.749 Q958.128 190.62 956.299 187.078 Q954.493 183.513 950.859 183.513 M950.859 179.81 Q956.669 179.81 959.725 184.416 Q962.804 188.999 962.804 197.749 Q962.804 206.476 959.725 211.083 Q956.669 215.666 950.859 215.666 Q945.049 215.666 941.97 211.083 Q938.915 206.476 938.915 197.749 Q938.915 188.999 941.97 184.416 Q945.049 179.81 950.859 179.81 Z" fill="#000000" fill-rule="evenodd" fill-opacity="1" /><path clip-path="url(#clip810)" d="M971.021 209.115 L975.905 209.115 L975.905 214.995 L971.021 214.995 L971.021 209.115 Z" fill="#000000" fill-rule="evenodd" fill-opacity="1" /><path clip-path="url(#clip810)" d="M996.09 183.513 Q992.479 183.513 990.651 187.078 Q988.845 190.62 988.845 197.749 Q988.845 204.856 990.651 208.421 Q992.479 211.962 996.09 211.962 Q999.725 211.962 1001.53 208.421 Q1003.36 204.856 1003.36 197.749 Q1003.36 190.62 1001.53 187.078 Q999.725 183.513 996.09 183.513 M996.09 179.81 Q1001.9 179.81 1004.96 184.416 Q1008.03 188.999 1008.03 197.749 Q1008.03 206.476 1004.96 211.083 Q1001.9 215.666 996.09 215.666 Q990.28 215.666 987.202 211.083 Q984.146 206.476 984.146 197.749 Q984.146 188.999 987.202 184.416 Q990.28 179.81 996.09 179.81 Z" fill="#000000" fill-rule="evenodd" fill-opacity="1" /><path clip-path="url(#clip810)" d="M1016.3 180.435 L1034.66 180.435 L1034.66 184.37 L1020.58 184.37 L1020.58 192.842 Q1021.6 192.495 1022.62 192.333 Q1023.64 192.148 1024.66 192.148 Q1030.44 192.148 1033.82 195.319 Q1037.2 198.49 1037.2 203.907 Q1037.2 209.485 1033.73 212.587 Q1030.26 215.666 1023.94 215.666 Q1021.76 215.666 1019.49 215.296 Q1017.25 214.925 1014.84 214.184 L1014.84 209.485 Q1016.92 210.62 1019.15 211.175 Q1021.37 211.731 1023.84 211.731 Q1027.85 211.731 1030.19 209.624 Q1032.53 207.518 1032.53 203.907 Q1032.53 200.296 1030.19 198.189 Q1027.85 196.083 1023.84 196.083 Q1021.97 196.083 1020.09 196.499 Q1018.24 196.916 1016.3 197.796 L1016.3 180.435 Z" fill="#000000" fill-rule="evenodd" fill-opacity="1" /><path clip-path="url(#clip810)" d="M1063.64 186.129 L1055.33 190.62 L1063.64 195.134 L1062.29 197.402 L1054.52 192.703 L1054.52 201.43 L1051.88 201.43 L1051.88 192.703 L1044.1 197.402 L1042.76 195.134 L1051.07 190.62 L1042.76 186.129 L1044.1 183.837 L1051.88 188.536 L1051.88 179.81 L1054.52 179.81 L1054.52 188.536 L1062.29 183.837 L1063.64 186.129 Z" fill="#000000" fill-rule="evenodd" fill-opacity="1" /><path clip-path="url(#clip810)" d="M1086.04 189.833 L1086.04 193.86 Q1084.24 192.935 1082.29 192.472 Q1080.35 192.009 1078.27 192.009 Q1075.09 192.009 1073.5 192.981 Q1071.92 193.953 1071.92 195.898 Q1071.92 197.379 1073.06 198.235 Q1074.19 199.069 1077.62 199.833 L1079.08 200.157 Q1083.61 201.129 1085.51 202.911 Q1087.43 204.671 1087.43 207.842 Q1087.43 211.453 1084.56 213.559 Q1081.72 215.666 1076.72 215.666 Q1074.63 215.666 1072.36 215.249 Q1070.12 214.856 1067.62 214.046 L1067.62 209.647 Q1069.98 210.874 1072.27 211.499 Q1074.56 212.101 1076.81 212.101 Q1079.82 212.101 1081.44 211.083 Q1083.06 210.041 1083.06 208.166 Q1083.06 206.43 1081.88 205.504 Q1080.72 204.578 1076.76 203.722 L1075.28 203.374 Q1071.32 202.541 1069.56 200.828 Q1067.8 199.092 1067.8 196.083 Q1067.8 192.425 1070.4 190.435 Q1072.99 188.444 1077.76 188.444 Q1080.12 188.444 1082.2 188.791 Q1084.28 189.138 1086.04 189.833 Z" fill="#000000" fill-rule="evenodd" fill-opacity="1" /><path clip-path="url(#clip810)" d="M1094.21 189.069 L1098.47 189.069 L1098.47 214.995 L1094.21 214.995 L1094.21 189.069 M1094.21 178.976 L1098.47 178.976 L1098.47 184.37 L1094.21 184.37 L1094.21 178.976 Z" fill="#000000" fill-rule="evenodd" fill-opacity="1" /><path clip-path="url(#clip810)" d="M1128.94 199.347 L1128.94 214.995 L1124.68 214.995 L1124.68 199.485 Q1124.68 195.805 1123.24 193.976 Q1121.81 192.148 1118.94 192.148 Q1115.49 192.148 1113.5 194.347 Q1111.51 196.546 1111.51 200.342 L1111.51 214.995 L1107.22 214.995 L1107.22 189.069 L1111.51 189.069 L1111.51 193.097 Q1113.03 190.759 1115.09 189.601 Q1117.18 188.444 1119.89 188.444 Q1124.35 188.444 1126.65 191.222 Q1128.94 193.976 1128.94 199.347 Z" fill="#000000" fill-rule="evenodd" fill-opacity="1" /><path clip-path="url(#clip810)" d="M1147.66 179.023 Q1144.56 184.347 1143.06 189.555 Q1141.55 194.763 1141.55 200.11 Q1141.55 205.458 1143.06 210.712 Q1144.59 215.944 1147.66 221.245 L1143.96 221.245 Q1140.49 215.805 1138.75 210.55 Q1137.04 205.296 1137.04 200.11 Q1137.04 194.948 1138.75 189.717 Q1140.46 184.486 1143.96 179.023 L1147.66 179.023 Z" fill="#000000" fill-rule="evenodd" fill-opacity="1" /><path clip-path="url(#clip810)" d="M1157.34 211.059 L1164.98 211.059 L1164.98 184.694 L1156.67 186.361 L1156.67 182.101 L1164.93 180.435 L1169.61 180.435 L1169.61 211.059 L1177.25 211.059 L1177.25 214.995 L1157.34 214.995 L1157.34 211.059 Z" fill="#000000" fill-rule="evenodd" fill-opacity="1" /><path clip-path="url(#clip810)" d="M1186.74 180.435 L1205.09 180.435 L1205.09 184.37 L1191.02 184.37 L1191.02 192.842 Q1192.04 192.495 1193.06 192.333 Q1194.08 192.148 1195.09 192.148 Q1200.88 192.148 1204.26 195.319 Q1207.64 198.49 1207.64 203.907 Q1207.64 209.485 1204.17 212.587 Q1200.7 215.666 1194.38 215.666 Q1192.2 215.666 1189.93 215.296 Q1187.69 214.925 1185.28 214.184 L1185.28 209.485 Q1187.36 210.62 1189.58 211.175 Q1191.81 211.731 1194.28 211.731 Q1198.29 211.731 1200.63 209.624 Q1202.96 207.518 1202.96 203.907 Q1202.96 200.296 1200.63 198.189 Q1198.29 196.083 1194.28 196.083 Q1192.41 196.083 1190.53 196.499 Q1188.68 196.916 1186.74 197.796 L1186.74 180.435 Z" fill="#000000" fill-rule="evenodd" fill-opacity="1" /><path clip-path="url(#clip810)" d="M1237.8 189.069 L1228.43 201.685 L1238.29 214.995 L1233.27 214.995 L1225.72 204.81 L1218.17 214.995 L1213.15 214.995 L1223.22 201.43 L1214.01 189.069 L1219.03 189.069 L1225.9 198.305 L1232.78 189.069 L1237.8 189.069 Z" fill="#000000" fill-rule="evenodd" fill-opacity="1" /><path clip-path="url(#clip810)" d="M1243.64 179.023 L1247.34 179.023 Q1250.81 184.486 1252.52 189.717 Q1254.26 194.948 1254.26 200.11 Q1254.26 205.296 1252.52 210.55 Q1250.81 215.805 1247.34 221.245 L1243.64 221.245 Q1246.71 215.944 1248.22 210.712 Q1249.75 205.458 1249.75 200.11 Q1249.75 194.763 1248.22 189.555 Q1246.71 184.347 1243.64 179.023 Z" fill="#000000" fill-rule="evenodd" fill-opacity="1" /><polyline clip-path="url(#clip810)" style="stroke:#3da44d; stroke-linecap:butt; stroke-linejoin:round; stroke-width:4; stroke-opacity:1; fill:none" points="
  411.072,249.555 557.538,249.555 
  "/>
<path clip-path="url(#clip810)" d="M604.148 240.909 L604.148 266.835 L599.912 266.835 L599.912 246.025 L587.412 266.835 L581.949 266.835 L581.949 240.909 L586.185 240.909 L586.185 261.673 L598.662 240.909 L604.148 240.909 Z" fill="#000000" fill-rule="evenodd" fill-opacity="1" /><path clip-path="url(#clip810)" d="M612.759 240.909 L617.042 240.909 L617.042 251.487 L630.861 251.487 L630.861 240.909 L635.143 240.909 L635.143 266.835 L630.861 266.835 L630.861 254.89 L617.042 254.89 L617.042 266.835 L612.759 266.835 L612.759 240.909 Z" fill="#000000" fill-rule="evenodd" fill-opacity="1" /><path clip-path="url(#clip810)" d="M640.838 240.909 L665.676 240.909 L665.676 244.312 L655.352 244.312 L655.352 266.835 L651.162 266.835 L651.162 244.312 L640.838 244.312 L640.838 240.909 Z" fill="#000000" fill-rule="evenodd" fill-opacity="1" /><path clip-path="url(#clip810)" d="M693.708 252.807 L693.708 254.89 L674.125 254.89 Q674.402 259.288 676.764 261.603 Q679.148 263.895 683.384 263.895 Q685.838 263.895 688.129 263.293 Q690.444 262.691 692.712 261.487 L692.712 265.515 Q690.421 266.487 688.013 266.997 Q685.606 267.506 683.129 267.506 Q676.926 267.506 673.291 263.895 Q669.68 260.284 669.68 254.126 Q669.68 247.761 673.106 244.034 Q676.555 240.284 682.388 240.284 Q687.62 240.284 690.652 243.663 Q693.708 247.02 693.708 252.807 M689.449 251.557 Q689.402 248.062 687.481 245.978 Q685.583 243.895 682.435 243.895 Q678.87 243.895 676.717 245.909 Q674.588 247.923 674.264 251.58 L689.449 251.557 Z" fill="#000000" fill-rule="evenodd" fill-opacity="1" /><path clip-path="url(#clip810)" d="M704.819 262.946 L704.819 276.696 L700.537 276.696 L700.537 240.909 L704.819 240.909 L704.819 244.844 Q706.161 242.529 708.199 241.418 Q710.259 240.284 713.106 240.284 Q717.828 240.284 720.768 244.034 Q723.731 247.784 723.731 253.895 Q723.731 260.006 720.768 263.756 Q717.828 267.506 713.106 267.506 Q710.259 267.506 708.199 266.395 Q706.161 265.261 704.819 262.946 M719.31 253.895 Q719.31 249.196 717.365 246.534 Q715.444 243.849 712.064 243.849 Q708.685 243.849 706.74 246.534 Q704.819 249.196 704.819 253.895 Q704.819 258.594 706.74 261.279 Q708.685 263.941 712.064 263.941 Q715.444 263.941 717.365 261.279 Q719.31 258.594 719.31 253.895 Z" fill="#000000" fill-rule="evenodd" fill-opacity="1" /><path clip-path="url(#clip810)" d="M753.013 240.909 L753.013 266.835 L748.731 266.835 L748.731 244.312 L734.911 244.312 L734.911 266.835 L730.629 266.835 L730.629 240.909 L753.013 240.909 Z" fill="#000000" fill-rule="evenodd" fill-opacity="1" /><path clip-path="url(#clip810)" d="M771.832 243.895 Q768.407 243.895 766.416 246.58 Q764.425 249.242 764.425 253.895 Q764.425 258.548 766.393 261.233 Q768.383 263.895 771.832 263.895 Q775.235 263.895 777.226 261.21 Q779.217 258.524 779.217 253.895 Q779.217 249.288 777.226 246.603 Q775.235 243.895 771.832 243.895 M771.832 240.284 Q777.388 240.284 780.559 243.895 Q783.731 247.506 783.731 253.895 Q783.731 260.261 780.559 263.895 Q777.388 267.506 771.832 267.506 Q766.254 267.506 763.082 263.895 Q759.934 260.261 759.934 253.895 Q759.934 247.506 763.082 243.895 Q766.254 240.284 771.832 240.284 Z" fill="#000000" fill-rule="evenodd" fill-opacity="1" /><path clip-path="url(#clip810)" d="M788.082 266.835 L788.082 263.293 Q792.295 262.645 793.592 259.728 Q795.166 255.631 795.166 245.145 L795.166 240.909 L812.689 240.909 L812.689 266.835 L808.429 266.835 L808.429 244.312 L799.425 244.312 L799.425 246.881 Q799.425 256.881 797.388 261.372 Q795.212 266.163 788.082 266.835 Z" fill="#000000" fill-rule="evenodd" fill-opacity="1" /><path clip-path="url(#clip810)" d="M825.374 248.386 Q825.374 250.307 826.855 251.395 Q828.337 252.483 831.091 252.483 L836.832 252.483 L836.832 244.312 L831.091 244.312 Q828.337 244.312 826.855 245.376 Q825.374 246.441 825.374 248.386 M819.309 266.835 L827.226 255.469 Q824.54 254.867 822.758 253.293 Q820.976 251.696 820.976 248.386 Q820.976 244.636 823.453 242.784 Q825.953 240.909 830.976 240.909 L841.114 240.909 L841.114 266.835 L836.832 266.835 L836.832 255.886 L831.531 255.886 L823.892 266.835 L819.309 266.835 Z" fill="#000000" fill-rule="evenodd" fill-opacity="1" /><path clip-path="url(#clip810)" d="M849.448 240.909 L853.73 240.909 L853.73 251.487 L867.55 251.487 L867.55 240.909 L871.832 240.909 L871.832 266.835 L867.55 266.835 L867.55 254.89 L853.73 254.89 L853.73 266.835 L849.448 266.835 L849.448 240.909 Z" fill="#000000" fill-rule="evenodd" fill-opacity="1" /><path clip-path="url(#clip810)" d="M877.526 240.909 L902.364 240.909 L902.364 244.312 L892.04 244.312 L892.04 266.835 L887.85 266.835 L887.85 244.312 L877.526 244.312 L877.526 240.909 Z" fill="#000000" fill-rule="evenodd" fill-opacity="1" /></svg>
