<?xml version="1.0" encoding="utf-8"?>
<svg xmlns="http://www.w3.org/2000/svg" xmlns:xlink="http://www.w3.org/1999/xlink" width="600" height="400" viewBox="0 0 2400 1600">
<defs>
  <clipPath id="clip810">
    <rect x="0" y="0" width="2400" height="1600"/>
  </clipPath>
</defs>
<path clip-path="url(#clip810)" d="
M0 1600 L2400 1600 L2400 0 L0 0  Z
  " fill="#ffffff" fill-rule="evenodd" fill-opacity="1"/>
<defs>
  <clipPath id="clip811">
    <rect x="480" y="0" width="1681" height="1600"/>
  </clipPath>
</defs>
<defs>
  <clipPath id="clip812">
    <rect x="1385" y="847" width="968" height="597"/>
  </clipPath>
</defs>
<path clip-path="url(#clip810)" d="
M276.876 1438.68 L2352.76 1438.68 L2352.76 47.2441 L276.876 47.2441  Z
  " fill="#ffffff" fill-rule="evenodd" fill-opacity="1"/>
<defs>
  <clipPath id="clip813">
    <rect x="276" y="47" width="2077" height="1392"/>
  </clipPath>
</defs>
<polyline clip-path="url(#clip813)" style="stroke:#000000; stroke-linecap:butt; stroke-linejoin:round; stroke-width:2; stroke-opacity:0.1; fill:none" points="
  842.801,1438.68 842.801,47.2441 
  "/>
<polyline clip-path="url(#clip813)" style="stroke:#000000; stroke-linecap:butt; stroke-linejoin:round; stroke-width:2; stroke-opacity:0.1; fill:none" points="
  1568.4,1438.68 1568.4,47.2441 
  "/>
<polyline clip-path="url(#clip813)" style="stroke:#000000; stroke-linecap:butt; stroke-linejoin:round; stroke-width:2; stroke-opacity:0.1; fill:none" points="
  2294,1438.68 2294,47.2441 
  "/>
<polyline clip-path="url(#clip810)" style="stroke:#000000; stroke-linecap:butt; stroke-linejoin:round; stroke-width:4; stroke-opacity:1; fill:none" points="
  276.876,1438.68 2352.76,1438.68 
  "/>
<polyline clip-path="url(#clip810)" style="stroke:#000000; stroke-linecap:butt; stroke-linejoin:round; stroke-width:4; stroke-opacity:1; fill:none" points="
  842.801,1438.68 842.801,1419.78 
  "/>
<polyline clip-path="url(#clip810)" style="stroke:#000000; stroke-linecap:butt; stroke-linejoin:round; stroke-width:4; stroke-opacity:1; fill:none" points="
  1568.4,1438.68 1568.4,1419.78 
  "/>
<polyline clip-path="url(#clip810)" style="stroke:#000000; stroke-linecap:butt; stroke-linejoin:round; stroke-width:4; stroke-opacity:1; fill:none" points="
  2294,1438.68 2294,1419.78 
  "/>
<path clip-path="url(#clip810)" d="M809.128 1516.95 L816.767 1516.95 L816.767 1490.58 L808.457 1492.25 L808.457 1487.99 L816.721 1486.32 L821.397 1486.32 L821.397 1516.95 L829.036 1516.95 L829.036 1520.88 L809.128 1520.88 L809.128 1516.95 Z" fill="#000000" fill-rule="evenodd" fill-opacity="1" /><path clip-path="url(#clip810)" d="M848.48 1489.4 Q844.869 1489.4 843.04 1492.97 Q841.235 1496.51 841.235 1503.64 Q841.235 1510.75 843.04 1514.31 Q844.869 1517.85 848.48 1517.85 Q852.114 1517.85 853.92 1514.31 Q855.748 1510.75 855.748 1503.64 Q855.748 1496.51 853.92 1492.97 Q852.114 1489.4 848.48 1489.4 M848.48 1485.7 Q854.29 1485.7 857.346 1490.31 Q860.424 1494.89 860.424 1503.64 Q860.424 1512.37 857.346 1516.97 Q854.29 1521.56 848.48 1521.56 Q842.67 1521.56 839.591 1516.97 Q836.536 1512.37 836.536 1503.64 Q836.536 1494.89 839.591 1490.31 Q842.67 1485.7 848.48 1485.7 Z" fill="#000000" fill-rule="evenodd" fill-opacity="1" /><path clip-path="url(#clip810)" d="M860.97 1490.28 L867.176 1490.28 L867.176 1468.85 L860.424 1470.21 L860.424 1466.75 L867.139 1465.39 L870.938 1465.39 L870.938 1490.28 L877.145 1490.28 L877.145 1493.47 L860.97 1493.47 L860.97 1490.28 Z" fill="#000000" fill-rule="evenodd" fill-opacity="1" /><path clip-path="url(#clip810)" d="M1534.18 1516.95 L1541.81 1516.95 L1541.81 1490.58 L1533.5 1492.25 L1533.5 1487.99 L1541.77 1486.32 L1546.44 1486.32 L1546.44 1516.95 L1554.08 1516.95 L1554.08 1520.88 L1534.18 1520.88 L1534.18 1516.95 Z" fill="#000000" fill-rule="evenodd" fill-opacity="1" /><path clip-path="url(#clip810)" d="M1573.53 1489.4 Q1569.92 1489.4 1568.09 1492.97 Q1566.28 1496.51 1566.28 1503.64 Q1566.28 1510.75 1568.09 1514.31 Q1569.92 1517.85 1573.53 1517.85 Q1577.16 1517.85 1578.97 1514.31 Q1580.8 1510.75 1580.8 1503.64 Q1580.8 1496.51 1578.97 1492.97 Q1577.16 1489.4 1573.53 1489.4 M1573.53 1485.7 Q1579.34 1485.7 1582.39 1490.31 Q1585.47 1494.89 1585.47 1503.64 Q1585.47 1512.37 1582.39 1516.97 Q1579.34 1521.56 1573.53 1521.56 Q1567.72 1521.56 1564.64 1516.97 Q1561.58 1512.37 1561.58 1503.64 Q1561.58 1494.89 1564.64 1490.31 Q1567.72 1485.7 1573.53 1485.7 Z" fill="#000000" fill-rule="evenodd" fill-opacity="1" /><path clip-path="url(#clip810)" d="M1590.04 1490.28 L1603.3 1490.28 L1603.3 1493.47 L1585.47 1493.47 L1585.47 1490.28 Q1587.63 1488.04 1591.36 1484.28 Q1595.1 1480.5 1596.06 1479.41 Q1597.88 1477.36 1598.6 1475.95 Q1599.33 1474.52 1599.33 1473.14 Q1599.33 1470.9 1597.75 1469.49 Q1596.19 1468.08 1593.67 1468.08 Q1591.88 1468.08 1589.89 1468.7 Q1587.92 1469.32 1585.66 1470.58 L1585.66 1466.75 Q1587.95 1465.83 1589.95 1465.36 Q1591.94 1464.89 1593.6 1464.89 Q1597.96 1464.89 1600.56 1467.07 Q1603.15 1469.25 1603.15 1472.9 Q1603.15 1474.63 1602.49 1476.19 Q1601.85 1477.73 1600.14 1479.84 Q1599.67 1480.38 1597.15 1483 Q1594.63 1485.59 1590.04 1490.28 Z" fill="#000000" fill-rule="evenodd" fill-opacity="1" /><path clip-path="url(#clip810)" d="M2259.45 1516.95 L2267.09 1516.95 L2267.09 1490.58 L2258.78 1492.25 L2258.78 1487.99 L2267.04 1486.32 L2271.72 1486.32 L2271.72 1516.95 L2279.36 1516.95 L2279.36 1520.88 L2259.45 1520.88 L2259.45 1516.95 Z" fill="#000000" fill-rule="evenodd" fill-opacity="1" /><path clip-path="url(#clip810)" d="M2298.8 1489.4 Q2295.19 1489.4 2293.36 1492.97 Q2291.55 1496.51 2291.55 1503.64 Q2291.55 1510.75 2293.36 1514.31 Q2295.19 1517.85 2298.8 1517.85 Q2302.43 1517.85 2304.24 1514.31 Q2306.07 1510.75 2306.07 1503.64 Q2306.07 1496.51 2304.24 1492.97 Q2302.43 1489.4 2298.8 1489.4 M2298.8 1485.7 Q2304.61 1485.7 2307.67 1490.31 Q2310.74 1494.89 2310.74 1503.64 Q2310.74 1512.37 2307.67 1516.97 Q2304.61 1521.56 2298.8 1521.56 Q2292.99 1521.56 2289.91 1516.97 Q2286.86 1512.37 2286.86 1503.64 Q2286.86 1494.89 2289.91 1490.31 Q2292.99 1485.7 2298.8 1485.7 Z" fill="#000000" fill-rule="evenodd" fill-opacity="1" /><path clip-path="url(#clip810)" d="M2323.44 1478.33 Q2326.17 1478.92 2327.69 1480.76 Q2329.23 1482.6 2329.23 1485.31 Q2329.23 1489.47 2326.37 1491.74 Q2323.51 1494.02 2318.25 1494.02 Q2316.48 1494.02 2314.6 1493.66 Q2312.74 1493.32 2310.74 1492.63 L2310.74 1488.96 Q2312.32 1489.88 2314.2 1490.35 Q2316.09 1490.82 2318.14 1490.82 Q2321.71 1490.82 2323.57 1489.41 Q2325.45 1488 2325.45 1485.31 Q2325.45 1482.83 2323.7 1481.44 Q2321.97 1480.03 2318.87 1480.03 L2315.6 1480.03 L2315.6 1476.9 L2319.02 1476.9 Q2321.82 1476.9 2323.31 1475.79 Q2324.79 1474.67 2324.79 1472.56 Q2324.79 1470.4 2323.25 1469.25 Q2321.73 1468.08 2318.87 1468.08 Q2317.31 1468.08 2315.52 1468.42 Q2313.73 1468.76 2311.59 1469.48 L2311.59 1466.09 Q2313.75 1465.49 2315.63 1465.19 Q2317.53 1464.89 2319.21 1464.89 Q2323.53 1464.89 2326.05 1466.86 Q2328.57 1468.82 2328.57 1472.16 Q2328.57 1474.5 2327.24 1476.11 Q2325.9 1477.71 2323.44 1478.33 Z" fill="#000000" fill-rule="evenodd" fill-opacity="1" /><path clip-path="url(#clip810)" d="M1330.98 1561.42 Q1330.98 1561.68 1330.69 1562.68 Q1330.4 1563.67 1329.69 1565.22 Q1329.01 1566.77 1328.08 1568.18 Q1327.15 1569.57 1325.6 1570.6 Q1324.09 1571.6 1322.35 1571.6 Q1320.03 1571.6 1318.48 1570.05 Q1316.94 1568.5 1316.94 1566.19 Q1316.94 1564.9 1317.61 1563.13 Q1321.9 1551.69 1321.9 1547.76 Q1321.9 1543.16 1318.32 1543.16 Q1316.55 1543.16 1314.88 1543.84 Q1313.23 1544.48 1312.11 1545.38 Q1310.98 1546.28 1309.95 1547.54 Q1308.95 1548.76 1308.43 1549.6 Q1307.95 1550.41 1307.56 1551.21 L1306.73 1554.5 Q1306.53 1555.4 1305.6 1558.91 L1304.15 1564.87 Q1303.12 1569.31 1302.9 1569.73 Q1302.57 1570.63 1301.86 1571.11 Q1301.16 1571.6 1300.45 1571.6 Q1299.64 1571.6 1299.09 1571.11 Q1298.55 1570.63 1298.55 1569.79 Q1298.55 1569.66 1298.64 1569.18 Q1298.74 1568.7 1298.9 1568.02 Q1299.06 1567.35 1299.13 1566.96 L1302.96 1551.73 Q1303.67 1548.96 1303.83 1548.09 Q1304.02 1547.18 1304.02 1546.19 Q1304.02 1543.16 1301.96 1543.16 Q1300.29 1543.16 1299.19 1545.16 Q1298.1 1547.15 1297.16 1551.02 Q1296.87 1552.08 1296.68 1552.31 Q1296.52 1552.53 1296.04 1552.53 Q1295.23 1552.5 1295.23 1551.85 Q1295.23 1551.69 1295.49 1550.63 Q1295.75 1549.57 1296.23 1548.05 Q1296.74 1546.51 1297.23 1545.48 Q1297.65 1544.7 1297.87 1544.35 Q1298.13 1543.96 1298.74 1543.22 Q1299.38 1542.45 1300.22 1542.1 Q1301.09 1541.71 1302.15 1541.71 Q1304.54 1541.71 1306.28 1543.26 Q1308.02 1544.77 1308.24 1547.44 Q1312.52 1541.71 1318.51 1541.71 Q1322.06 1541.71 1324.09 1543.58 Q1326.12 1545.45 1326.12 1548.76 Q1326.12 1549.54 1325.95 1550.53 Q1325.83 1551.5 1325.5 1552.72 Q1325.21 1553.95 1324.96 1554.88 Q1324.7 1555.82 1324.18 1557.33 Q1323.67 1558.81 1323.44 1559.46 Q1323.22 1560.1 1322.67 1561.61 Q1322.15 1563.09 1322.09 1563.26 Q1320.9 1566.25 1320.9 1567.96 Q1320.9 1569.08 1321.25 1569.6 Q1321.64 1570.12 1322.48 1570.12 Q1324.73 1570.12 1326.41 1567.89 Q1328.11 1565.64 1329.21 1561.97 Q1329.46 1561.16 1329.59 1560.97 Q1329.75 1560.78 1330.21 1560.78 Q1330.98 1560.78 1330.98 1561.42 Z" fill="#000000" fill-rule="evenodd" fill-opacity="1" /><polyline clip-path="url(#clip813)" style="stroke:#000000; stroke-linecap:butt; stroke-linejoin:round; stroke-width:2; stroke-opacity:0.1; fill:none" points="
  276.876,994.343 2352.76,994.343 
  "/>
<polyline clip-path="url(#clip813)" style="stroke:#000000; stroke-linecap:butt; stroke-linejoin:round; stroke-width:2; stroke-opacity:0.1; fill:none" points="
  276.876,523.579 2352.76,523.579 
  "/>
<polyline clip-path="url(#clip813)" style="stroke:#000000; stroke-linecap:butt; stroke-linejoin:round; stroke-width:2; stroke-opacity:0.1; fill:none" points="
  276.876,52.8158 2352.76,52.8158 
  "/>
<polyline clip-path="url(#clip810)" style="stroke:#000000; stroke-linecap:butt; stroke-linejoin:round; stroke-width:4; stroke-opacity:1; fill:none" points="
  276.876,1438.68 276.876,47.2441 
  "/>
<polyline clip-path="url(#clip810)" style="stroke:#000000; stroke-linecap:butt; stroke-linejoin:round; stroke-width:4; stroke-opacity:1; fill:none" points="
  276.876,994.343 295.773,994.343 
  "/>
<polyline clip-path="url(#clip810)" style="stroke:#000000; stroke-linecap:butt; stroke-linejoin:round; stroke-width:4; stroke-opacity:1; fill:none" points="
  276.876,523.579 295.773,523.579 
  "/>
<polyline clip-path="url(#clip810)" style="stroke:#000000; stroke-linecap:butt; stroke-linejoin:round; stroke-width:4; stroke-opacity:1; fill:none" points="
  276.876,52.8158 295.773,52.8158 
  "/>
<path clip-path="url(#clip810)" d="M114.931 1014.14 L122.57 1014.14 L122.57 987.77 L114.26 989.437 L114.26 985.177 L122.524 983.511 L127.2 983.511 L127.2 1014.14 L134.839 1014.14 L134.839 1018.07 L114.931 1018.07 L114.931 1014.14 Z" fill="#000000" fill-rule="evenodd" fill-opacity="1" /><path clip-path="url(#clip810)" d="M154.283 986.589 Q150.672 986.589 148.843 990.154 Q147.038 993.696 147.038 1000.83 Q147.038 1007.93 148.843 1011.5 Q150.672 1015.04 154.283 1015.04 Q157.917 1015.04 159.723 1011.5 Q161.552 1007.93 161.552 1000.83 Q161.552 993.696 159.723 990.154 Q157.917 986.589 154.283 986.589 M154.283 982.886 Q160.093 982.886 163.149 987.492 Q166.227 992.076 166.227 1000.83 Q166.227 1009.55 163.149 1014.16 Q160.093 1018.74 154.283 1018.74 Q148.473 1018.74 145.394 1014.16 Q142.339 1009.55 142.339 1000.83 Q142.339 992.076 145.394 987.492 Q148.473 982.886 154.283 982.886 Z" fill="#000000" fill-rule="evenodd" fill-opacity="1" /><path clip-path="url(#clip810)" d="M166.227 976.987 L190.339 976.987 L190.339 980.184 L166.227 980.184 L166.227 976.987 Z" fill="#000000" fill-rule="evenodd" fill-opacity="1" /><path clip-path="url(#clip810)" d="M199.197 987.463 L205.404 987.463 L205.404 966.041 L198.652 967.395 L198.652 963.934 L205.366 962.58 L209.166 962.58 L209.166 987.463 L215.372 987.463 L215.372 990.66 L199.197 990.66 L199.197 987.463 Z" fill="#000000" fill-rule="evenodd" fill-opacity="1" /><path clip-path="url(#clip810)" d="M231.171 965.082 Q228.237 965.082 226.751 967.978 Q225.284 970.856 225.284 976.649 Q225.284 982.423 226.751 985.319 Q228.237 988.197 231.171 988.197 Q234.124 988.197 235.591 985.319 Q237.076 982.423 237.076 976.649 Q237.076 970.856 235.591 967.978 Q234.124 965.082 231.171 965.082 M231.171 962.073 Q235.891 962.073 238.374 965.815 Q240.876 969.539 240.876 976.649 Q240.876 983.739 238.374 987.482 Q235.891 991.206 231.171 991.206 Q226.45 991.206 223.949 987.482 Q221.466 983.739 221.466 976.649 Q221.466 969.539 223.949 965.815 Q226.45 962.073 231.171 962.073 Z" fill="#000000" fill-rule="evenodd" fill-opacity="1" /><path clip-path="url(#clip810)" d="M140.247 543.372 L147.886 543.372 L147.886 517.006 L139.575 518.673 L139.575 514.414 L147.839 512.747 L152.515 512.747 L152.515 543.372 L160.154 543.372 L160.154 547.307 L140.247 547.307 L140.247 543.372 Z" fill="#000000" fill-rule="evenodd" fill-opacity="1" /><path clip-path="url(#clip810)" d="M179.598 515.826 Q175.987 515.826 174.159 519.391 Q172.353 522.932 172.353 530.062 Q172.353 537.168 174.159 540.733 Q175.987 544.275 179.598 544.275 Q183.233 544.275 185.038 540.733 Q186.867 537.168 186.867 530.062 Q186.867 522.932 185.038 519.391 Q183.233 515.826 179.598 515.826 M179.598 512.122 Q185.409 512.122 188.464 516.729 Q191.543 521.312 191.543 530.062 Q191.543 538.789 188.464 543.395 Q185.409 547.978 179.598 547.978 Q173.788 547.978 170.71 543.395 Q167.654 538.789 167.654 530.062 Q167.654 521.312 170.71 516.729 Q173.788 512.122 179.598 512.122 Z" fill="#000000" fill-rule="evenodd" fill-opacity="1" /><path clip-path="url(#clip810)" d="M191.543 506.223 L215.654 506.223 L215.654 509.421 L191.543 509.421 L191.543 506.223 Z" fill="#000000" fill-rule="evenodd" fill-opacity="1" /><path clip-path="url(#clip810)" d="M223.892 491.817 L238.807 491.817 L238.807 495.014 L227.372 495.014 L227.372 501.898 Q228.199 501.615 229.027 501.484 Q229.854 501.333 230.682 501.333 Q235.384 501.333 238.13 503.91 Q240.876 506.487 240.876 510.888 Q240.876 515.42 238.054 517.941 Q235.233 520.442 230.099 520.442 Q228.331 520.442 226.488 520.141 Q224.663 519.84 222.707 519.238 L222.707 515.42 Q224.4 516.342 226.205 516.793 Q228.011 517.245 230.023 517.245 Q233.277 517.245 235.177 515.533 Q237.076 513.822 237.076 510.888 Q237.076 507.954 235.177 506.242 Q233.277 504.531 230.023 504.531 Q228.5 504.531 226.977 504.869 Q225.472 505.208 223.892 505.922 L223.892 491.817 Z" fill="#000000" fill-rule="evenodd" fill-opacity="1" /><path clip-path="url(#clip810)" d="M170.17 72.6082 L177.809 72.6082 L177.809 46.2426 L169.499 47.9093 L169.499 43.65 L177.762 41.9834 L182.438 41.9834 L182.438 72.6082 L190.077 72.6082 L190.077 76.5434 L170.17 76.5434 L170.17 72.6082 Z" fill="#000000" fill-rule="evenodd" fill-opacity="1" /><path clip-path="url(#clip810)" d="M209.522 45.0621 Q205.91 45.0621 204.082 48.6268 Q202.276 52.1685 202.276 59.2981 Q202.276 66.4045 204.082 69.9693 Q205.91 73.511 209.522 73.511 Q213.156 73.511 214.961 69.9693 Q216.79 66.4045 216.79 59.2981 Q216.79 52.1685 214.961 48.6268 Q213.156 45.0621 209.522 45.0621 M209.522 41.3584 Q215.332 41.3584 218.387 45.9648 Q221.466 50.5481 221.466 59.2981 Q221.466 68.0249 218.387 72.6313 Q215.332 77.2147 209.522 77.2147 Q203.711 77.2147 200.633 72.6313 Q197.577 68.0249 197.577 59.2981 Q197.577 50.5481 200.633 45.9648 Q203.711 41.3584 209.522 41.3584 Z" fill="#000000" fill-rule="evenodd" fill-opacity="1" /><path clip-path="url(#clip810)" d="M231.171 23.5544 Q228.237 23.5544 226.751 26.4508 Q225.284 29.3284 225.284 35.1212 Q225.284 40.8952 226.751 43.7916 Q228.237 46.6691 231.171 46.6691 Q234.124 46.6691 235.591 43.7916 Q237.076 40.8952 237.076 35.1212 Q237.076 29.3284 235.591 26.4508 Q234.124 23.5544 231.171 23.5544 M231.171 20.5452 Q235.891 20.5452 238.374 24.2879 Q240.876 28.0118 240.876 35.1212 Q240.876 42.2117 238.374 45.9545 Q235.891 49.6784 231.171 49.6784 Q226.45 49.6784 223.949 45.9545 Q221.466 42.2117 221.466 35.1212 Q221.466 28.0118 223.949 24.2879 Q226.45 20.5452 231.171 20.5452 Z" fill="#000000" fill-rule="evenodd" fill-opacity="1" /><path clip-path="url(#clip810)" d="M28.3562 992.273 L28.3562 986.385 L42.9018 986.385 L42.9018 967.384 L28.3562 967.384 L28.3562 961.495 L64.0042 961.495 L64.0042 967.384 L47.5806 967.384 L47.5806 986.385 L64.0042 986.385 L64.0042 992.273 L28.3562 992.273 Z" fill="#000000" fill-rule="evenodd" fill-opacity="1" /><path clip-path="url(#clip810)" d="M32.4621 935.619 Q32.4621 940.329 36.1542 943.067 Q39.8145 945.804 46.212 945.804 Q52.6095 945.804 56.3017 943.098 Q59.9619 940.361 59.9619 935.619 Q59.9619 930.94 56.2698 928.203 Q52.5777 925.465 46.212 925.465 Q39.8781 925.465 36.186 928.203 Q32.4621 930.94 32.4621 935.619 M27.4968 935.619 Q27.4968 927.98 32.4621 923.619 Q37.4273 919.259 46.212 919.259 Q54.9649 919.259 59.9619 923.619 Q64.9272 927.98 64.9272 935.619 Q64.9272 943.289 59.9619 947.65 Q54.9649 951.979 46.212 951.979 Q37.4273 951.979 32.4621 947.65 Q27.4968 943.289 27.4968 935.619 Z" fill="#000000" fill-rule="evenodd" fill-opacity="1" /><path clip-path="url(#clip810)" d="M58.657 903.886 L77.5631 903.886 L77.5631 909.774 L28.3562 909.774 L28.3562 903.886 L33.7671 903.886 Q30.5842 902.04 29.0564 899.239 Q27.4968 896.406 27.4968 892.491 Q27.4968 885.998 32.6531 881.956 Q37.8093 877.882 46.212 877.882 Q54.6147 877.882 59.771 881.956 Q64.9272 885.998 64.9272 892.491 Q64.9272 896.406 63.3994 899.239 Q61.8398 902.04 58.657 903.886 M46.212 883.961 Q39.7508 883.961 36.0905 886.635 Q32.3984 889.276 32.3984 893.923 Q32.3984 898.57 36.0905 901.244 Q39.7508 903.886 46.212 903.886 Q52.6732 903.886 56.3653 901.244 Q60.0256 898.57 60.0256 893.923 Q60.0256 889.276 56.3653 886.635 Q52.6732 883.961 46.212 883.961 Z" fill="#000000" fill-rule="evenodd" fill-opacity="1" /><path clip-path="url(#clip810)" d="M28.3562 868.397 L28.3562 859.835 L52.2276 849.713 L28.3562 839.56 L28.3562 831.062 L64.0042 831.062 L64.0042 836.95 L33.958 836.95 L57.161 846.785 L57.161 852.642 L33.958 862.509 L64.0042 862.509 L64.0042 868.397 L28.3562 868.397 Z" fill="#000000" fill-rule="evenodd" fill-opacity="1" /><path clip-path="url(#clip810)" d="M46.0847 802.798 Q46.0847 809.896 47.7079 812.633 Q49.3312 815.37 53.2461 815.37 Q56.3653 815.37 58.2114 813.333 Q60.0256 811.265 60.0256 807.732 Q60.0256 802.862 56.5881 799.934 Q53.1188 796.974 47.3897 796.974 L46.0847 796.974 L46.0847 802.798 M43.6657 791.117 L64.0042 791.117 L64.0042 796.974 L58.5933 796.974 Q61.8398 798.979 63.3994 801.971 Q64.9272 804.963 64.9272 809.291 Q64.9272 814.766 61.8716 818.012 Q58.7843 821.227 53.6281 821.227 Q47.6125 821.227 44.5569 817.217 Q41.5014 813.174 41.5014 805.185 L41.5014 796.974 L40.9285 796.974 Q36.8862 796.974 34.6901 799.647 Q32.4621 802.289 32.4621 807.095 Q32.4621 810.151 33.1941 813.047 Q33.9262 815.943 35.3903 818.617 L29.9795 818.617 Q28.7381 815.402 28.1334 812.379 Q27.4968 809.355 27.4968 806.49 Q27.4968 798.756 31.5072 794.937 Q35.5176 791.117 43.6657 791.117 Z" fill="#000000" fill-rule="evenodd" fill-opacity="1" /><path clip-path="url(#clip810)" d="M28.3562 758.557 L28.3562 752.668 L42.9018 752.668 L42.9018 733.667 L28.3562 733.667 L28.3562 727.778 L64.0042 727.778 L64.0042 733.667 L47.5806 733.667 L47.5806 752.668 L64.0042 752.668 L64.0042 758.557 L28.3562 758.557 Z" fill="#000000" fill-rule="evenodd" fill-opacity="1" /><path clip-path="url(#clip810)" d="M44.7161 685.224 L47.5806 685.224 L47.5806 712.151 Q53.6281 711.769 56.8109 708.522 Q59.9619 705.244 59.9619 699.419 Q59.9619 696.045 59.1344 692.894 Q58.3069 689.711 56.6518 686.592 L62.1899 686.592 Q63.5267 689.743 64.227 693.053 Q64.9272 696.364 64.9272 699.769 Q64.9272 708.299 59.9619 713.296 Q54.9967 718.262 46.5303 718.262 Q37.7774 718.262 32.6531 713.551 Q27.4968 708.809 27.4968 700.788 Q27.4968 693.595 32.1438 689.425 Q36.7589 685.224 44.7161 685.224 M42.9973 691.08 Q38.1912 691.144 35.3266 693.785 Q32.4621 696.395 32.4621 700.724 Q32.4621 705.626 35.2312 708.586 Q38.0002 711.514 43.0292 711.96 L42.9973 691.08 Z" fill="#000000" fill-rule="evenodd" fill-opacity="1" /><path clip-path="url(#clip810)" d="M47.5806 669.978 L59.3254 669.978 L59.3254 661.639 Q59.3254 657.628 57.8294 655.528 Q56.3017 653.427 53.4371 653.427 Q50.5725 653.427 49.0766 655.528 Q47.5806 657.628 47.5806 661.639 L47.5806 669.978 M33.035 669.978 L42.9018 669.978 L42.9018 662.275 Q42.9018 658.965 41.5969 656.864 Q40.2601 654.764 37.9048 654.764 Q35.5494 654.764 34.3081 656.864 Q33.035 658.965 33.035 662.275 L33.035 669.978 M28.3562 675.834 L28.3562 661.893 Q28.3562 655.623 30.6479 652.249 Q32.9395 648.875 37.1727 648.875 Q40.451 648.875 42.3926 650.594 Q44.3023 652.313 44.7797 655.687 Q45.5436 651.645 47.9626 649.417 Q50.3815 647.189 54.01 647.189 Q58.7843 647.189 61.3942 650.881 Q64.0042 654.541 64.0042 661.352 L64.0042 675.834 L28.3562 675.834 Z" fill="#000000" fill-rule="evenodd" fill-opacity="1" /><path clip-path="url(#clip810)" d="M38.6368 631.306 Q41.2786 631.306 42.7745 629.269 Q44.2705 627.232 44.2705 623.444 L44.2705 615.551 L33.035 615.551 L33.035 623.444 Q33.035 627.232 34.4991 629.269 Q35.9632 631.306 38.6368 631.306 M64.0042 639.645 L48.3763 628.76 Q47.5488 632.452 45.3845 634.903 Q43.1883 637.354 38.6368 637.354 Q33.4806 637.354 30.9343 633.948 Q28.3562 630.51 28.3562 623.604 L28.3562 609.663 L64.0042 609.663 L64.0042 615.551 L48.9493 615.551 L48.9493 622.84 L64.0042 633.343 L64.0042 639.645 Z" fill="#000000" fill-rule="evenodd" fill-opacity="1" /><path clip-path="url(#clip810)" d="M44.7797 581.654 Q45.5436 577.707 47.8671 575.511 Q50.1906 573.314 53.6281 573.314 Q59.1344 573.314 62.0308 577.42 Q64.9272 581.526 64.9272 589.101 Q64.9272 591.648 64.4816 594.353 Q64.036 597.027 63.1448 599.891 L57.7021 599.891 Q58.8798 597.631 59.4845 594.926 Q60.0574 592.221 60.0574 589.261 Q60.0574 584.454 58.275 581.781 Q56.4926 579.075 53.6281 579.075 Q50.8271 579.075 49.1402 581.463 Q47.4215 583.85 47.4215 588.21 L47.4215 592.921 L42.5836 592.921 L42.5836 587.987 Q42.5836 584.295 41.1831 582.163 Q39.7508 579.998 37.5228 579.998 Q35.4858 579.998 34.0217 582.226 Q32.5576 584.423 32.5576 588.21 Q32.5576 590.47 32.9713 593.048 Q33.3851 595.594 34.3081 598.682 L28.9928 598.682 Q28.2289 595.563 27.8469 592.857 Q27.465 590.152 27.465 587.733 Q27.465 581.494 29.9795 577.898 Q32.4621 574.269 36.9499 574.269 Q39.91 574.269 41.9788 576.179 Q44.0158 578.089 44.7797 581.654 Z" fill="#000000" fill-rule="evenodd" fill-opacity="1" /><path clip-path="url(#clip810)" d="M28.3562 563.543 L28.3562 557.719 L45.098 557.719 L28.3562 541.2 L28.3562 534.006 L42.138 547.629 L64.0042 532.256 L64.0042 538.812 L46.021 551.448 L52.3867 557.719 L64.0042 557.719 L64.0042 563.543 L28.3562 563.543 Z" fill="#000000" fill-rule="evenodd" fill-opacity="1" /><path clip-path="url(#clip810)" d="M28.3562 493.648 L64.0042 493.648 L64.0042 499.472 L35.3903 499.472 L64.0042 516.66 L64.0042 524.171 L28.3562 524.171 L28.3562 518.347 L56.9064 518.347 L28.3562 501.191 L28.3562 493.648 Z" fill="#000000" fill-rule="evenodd" fill-opacity="1" /><polyline clip-path="url(#clip813)" style="stroke:#ff0000; stroke-linecap:butt; stroke-linejoin:round; stroke-width:4; stroke-opacity:1; fill:none" points="
  335.627,86.6243 624.373,127.339 842.801,156.648 1131.55,194.675 1349.97,223.201 1568.4,251.636 2075.58,317.518 2294,345.87 
  "/>
<path clip-path="url(#clip813)" d="M335.627 102.624 L324.315 97.9363 L319.627 86.6243 L324.315 75.3123 L335.627 70.6243 L346.939 75.3123 L351.627 86.6243 L346.939 97.9363 Z" fill="#ff0000" fill-rule="evenodd" fill-opacity="1" stroke="#000000" stroke-opacity="1" stroke-width="3.2"/>
<path clip-path="url(#clip813)" d="M624.373 143.339 L613.061 138.651 L608.373 127.339 L613.061 116.027 L624.373 111.339 L635.685 116.027 L640.373 127.339 L635.685 138.651 Z" fill="#ff0000" fill-rule="evenodd" fill-opacity="1" stroke="#000000" stroke-opacity="1" stroke-width="3.2"/>
<path clip-path="url(#clip813)" d="M842.801 172.648 L831.489 167.96 L826.801 156.648 L831.489 145.336 L842.801 140.648 L854.113 145.336 L858.801 156.648 L854.113 167.96 Z" fill="#ff0000" fill-rule="evenodd" fill-opacity="1" stroke="#000000" stroke-opacity="1" stroke-width="3.2"/>
<path clip-path="url(#clip813)" d="M1131.55 210.675 L1120.23 205.987 L1115.55 194.675 L1120.23 183.363 L1131.55 178.675 L1142.86 183.363 L1147.55 194.675 L1142.86 205.987 Z" fill="#ff0000" fill-rule="evenodd" fill-opacity="1" stroke="#000000" stroke-opacity="1" stroke-width="3.2"/>
<path clip-path="url(#clip813)" d="M1349.97 239.201 L1338.66 234.513 L1333.97 223.201 L1338.66 211.889 L1349.97 207.201 L1361.29 211.889 L1365.97 223.201 L1361.29 234.513 Z" fill="#ff0000" fill-rule="evenodd" fill-opacity="1" stroke="#000000" stroke-opacity="1" stroke-width="3.2"/>
<path clip-path="url(#clip813)" d="M1568.4 267.636 L1557.09 262.948 L1552.4 251.636 L1557.09 240.324 L1568.4 235.636 L1579.71 240.324 L1584.4 251.636 L1579.71 262.948 Z" fill="#ff0000" fill-rule="evenodd" fill-opacity="1" stroke="#000000" stroke-opacity="1" stroke-width="3.2"/>
<path clip-path="url(#clip813)" d="M2075.58 333.518 L2064.26 328.83 L2059.58 317.518 L2064.26 306.206 L2075.58 301.518 L2086.89 306.206 L2091.58 317.518 L2086.89 328.83 Z" fill="#ff0000" fill-rule="evenodd" fill-opacity="1" stroke="#000000" stroke-opacity="1" stroke-width="3.2"/>
<path clip-path="url(#clip813)" d="M2294 361.87 L2282.69 357.182 L2278 345.87 L2282.69 334.558 L2294 329.87 L2305.32 334.558 L2310 345.87 L2305.32 357.182 Z" fill="#ff0000" fill-rule="evenodd" fill-opacity="1" stroke="#000000" stroke-opacity="1" stroke-width="3.2"/>
<polyline clip-path="url(#clip813)" style="stroke:#ff0000; stroke-linecap:butt; stroke-linejoin:round; stroke-width:8; stroke-opacity:1; fill:none" stroke-dasharray="32, 20" points="
  335.627,203.654 624.373,241.121 842.801,269.464 1131.55,306.931 1349.97,335.274 1568.4,363.617 2075.58,429.427 2294,457.77 
  "/>
<polyline clip-path="url(#clip813)" style="stroke:#0000ff; stroke-linecap:butt; stroke-linejoin:round; stroke-width:4; stroke-opacity:1; fill:none" points="
  335.627,317.354 624.373,470.115 842.801,584.599 1131.55,735.176 1349.97,848.791 1568.4,962.285 2075.58,1225.43 2294,1339.16 
  "/>
<path clip-path="url(#clip813)" d="M335.627 333.354 L324.315 328.666 L319.627 317.354 L324.315 306.042 L335.627 301.354 L346.939 306.042 L351.627 317.354 L346.939 328.666 Z" fill="#0000ff" fill-rule="evenodd" fill-opacity="1" stroke="#000000" stroke-opacity="1" stroke-width="3.2"/>
<path clip-path="url(#clip813)" d="M624.373 486.115 L613.061 481.427 L608.373 470.115 L613.061 458.803 L624.373 454.115 L635.685 458.803 L640.373 470.115 L635.685 481.427 Z" fill="#0000ff" fill-rule="evenodd" fill-opacity="1" stroke="#000000" stroke-opacity="1" stroke-width="3.2"/>
<path clip-path="url(#clip813)" d="M842.801 600.599 L831.489 595.911 L826.801 584.599 L831.489 573.287 L842.801 568.599 L854.113 573.287 L858.801 584.599 L854.113 595.911 Z" fill="#0000ff" fill-rule="evenodd" fill-opacity="1" stroke="#000000" stroke-opacity="1" stroke-width="3.2"/>
<path clip-path="url(#clip813)" d="M1131.55 751.176 L1120.23 746.488 L1115.55 735.176 L1120.23 723.864 L1131.55 719.176 L1142.86 723.864 L1147.55 735.176 L1142.86 746.488 Z" fill="#0000ff" fill-rule="evenodd" fill-opacity="1" stroke="#000000" stroke-opacity="1" stroke-width="3.2"/>
<path clip-path="url(#clip813)" d="M1349.97 864.791 L1338.66 860.103 L1333.97 848.791 L1338.66 837.479 L1349.97 832.791 L1361.29 837.479 L1365.97 848.791 L1361.29 860.103 Z" fill="#0000ff" fill-rule="evenodd" fill-opacity="1" stroke="#000000" stroke-opacity="1" stroke-width="3.2"/>
<path clip-path="url(#clip813)" d="M1568.4 978.285 L1557.09 973.597 L1552.4 962.285 L1557.09 950.973 L1568.4 946.285 L1579.71 950.973 L1584.4 962.285 L1579.71 973.597 Z" fill="#0000ff" fill-rule="evenodd" fill-opacity="1" stroke="#000000" stroke-opacity="1" stroke-width="3.2"/>
<path clip-path="url(#clip813)" d="M2075.58 1241.43 L2064.26 1236.74 L2059.58 1225.43 L2064.26 1214.12 L2075.58 1209.43 L2086.89 1214.12 L2091.58 1225.43 L2086.89 1236.74 Z" fill="#0000ff" fill-rule="evenodd" fill-opacity="1" stroke="#000000" stroke-opacity="1" stroke-width="3.2"/>
<path clip-path="url(#clip813)" d="M2294 1355.16 L2282.69 1350.47 L2278 1339.16 L2282.69 1327.85 L2294 1323.16 L2305.32 1327.85 L2310 1339.16 L2305.32 1350.47 Z" fill="#0000ff" fill-rule="evenodd" fill-opacity="1" stroke="#000000" stroke-opacity="1" stroke-width="3.2"/>
<polyline clip-path="url(#clip813)" style="stroke:#0000ff; stroke-linecap:butt; stroke-linejoin:round; stroke-width:8; stroke-opacity:1; fill:none" stroke-dasharray="32, 20" points="
  335.627,382.835 624.373,532.704 842.801,646.075 1131.55,795.944 1349.97,909.315 1568.4,1022.69 2075.58,1285.93 2294,1399.3 
  "/>
<path clip-path="url(#clip810)" d="
M346.072 1392.3 L988.922 1392.3 L988.922 1133.1 L346.072 1133.1  Z
  " fill="#ffffff" fill-rule="evenodd" fill-opacity="1"/>
<polyline clip-path="url(#clip810)" style="stroke:#000000; stroke-linecap:butt; stroke-linejoin:round; stroke-width:4; stroke-opacity:1; fill:none" points="
  346.072,1392.3 988.922,1392.3 988.922,1133.1 346.072,1133.1 346.072,1392.3 
  "/>
<polyline clip-path="url(#clip810)" style="stroke:#ff0000; stroke-linecap:butt; stroke-linejoin:round; stroke-width:4; stroke-opacity:1; fill:none" points="
  369.137,1184.94 507.529,1184.94 
  "/>
<path clip-path="url(#clip810)" d="M438.333 1210.54 L420.234 1203.04 L412.733 1184.94 L420.234 1166.84 L438.333 1159.34 L456.432 1166.84 L463.933 1184.94 L456.432 1203.04 Z" fill="#ff0000" fill-rule="evenodd" fill-opacity="1" stroke="#000000" stroke-opacity="1" stroke-width="5.12"/>
<path clip-path="url(#clip810)" d="M536.659 1183.77 Q536.659 1185.69 538.14 1186.78 Q539.622 1187.86 542.377 1187.86 L548.117 1187.86 L548.117 1179.69 L542.377 1179.69 Q539.622 1179.69 538.14 1180.76 Q536.659 1181.82 536.659 1183.77 M530.594 1202.22 L538.511 1190.85 Q535.826 1190.25 534.043 1188.67 Q532.261 1187.08 532.261 1183.77 Q532.261 1180.02 534.738 1178.17 Q537.238 1176.29 542.261 1176.29 L552.4 1176.29 L552.4 1202.22 L548.117 1202.22 L548.117 1191.27 L542.816 1191.27 L535.178 1202.22 L530.594 1202.22 Z" fill="#000000" fill-rule="evenodd" fill-opacity="1" /><path clip-path="url(#clip810)" d="M564.992 1190.27 L564.992 1198.81 L571.057 1198.81 Q573.974 1198.81 575.501 1197.73 Q577.029 1196.61 577.029 1194.53 Q577.029 1192.45 575.501 1191.36 Q573.974 1190.27 571.057 1190.27 L564.992 1190.27 M564.992 1179.69 L564.992 1186.87 L570.594 1186.87 Q573.001 1186.87 574.529 1185.92 Q576.057 1184.95 576.057 1183.23 Q576.057 1181.52 574.529 1180.62 Q573.001 1179.69 570.594 1179.69 L564.992 1179.69 M560.733 1176.29 L570.872 1176.29 Q575.432 1176.29 577.886 1177.96 Q580.339 1179.62 580.339 1182.7 Q580.339 1185.09 579.089 1186.5 Q577.839 1187.89 575.386 1188.23 Q578.325 1188.79 579.946 1190.55 Q581.566 1192.31 581.566 1194.95 Q581.566 1198.42 578.881 1200.32 Q576.219 1202.22 571.265 1202.22 L560.733 1202.22 L560.733 1176.29 Z" fill="#000000" fill-rule="evenodd" fill-opacity="1" /><path clip-path="url(#clip810)" d="M588.673 1176.29 L592.955 1176.29 L592.955 1186.87 L606.774 1186.87 L606.774 1176.29 L611.057 1176.29 L611.057 1202.22 L606.774 1202.22 L606.774 1190.27 L592.955 1190.27 L592.955 1202.22 L588.673 1202.22 L588.673 1176.29 Z" fill="#000000" fill-rule="evenodd" fill-opacity="1" /><path clip-path="url(#clip810)" d="M644.32 1176.29 L648.58 1176.29 L648.58 1202.22 L644.32 1202.22 L644.32 1176.29 M646.45 1175.67 L646.45 1175.67 M635.964 1194.53 Q635.964 1192.45 634.436 1191.36 Q632.932 1190.27 630.015 1190.27 L623.95 1190.27 L623.95 1198.81 L630.015 1198.81 Q632.932 1198.81 634.436 1197.73 Q635.964 1196.61 635.964 1194.53 M619.668 1176.29 L623.95 1176.29 L623.95 1186.87 L630.2 1186.87 Q635.154 1186.87 637.816 1188.77 Q640.501 1190.64 640.501 1194.53 Q640.501 1198.42 637.816 1200.32 Q635.154 1202.22 630.2 1202.22 L619.668 1202.22 L619.668 1176.29 Z" fill="#000000" fill-rule="evenodd" fill-opacity="1" /><path clip-path="url(#clip810)" d="M679.297 1176.29 L679.297 1202.22 L675.061 1202.22 L675.061 1181.41 L662.561 1202.22 L657.098 1202.22 L657.098 1176.29 L661.334 1176.29 L661.334 1197.05 L673.811 1176.29 L679.297 1176.29 M660.964 1166.2 L663.695 1166.2 Q663.95 1167.93 665.061 1168.81 Q666.195 1169.67 668.209 1169.67 Q670.2 1169.67 671.311 1168.81 Q672.422 1167.96 672.723 1166.2 L675.455 1166.2 Q675.223 1169.51 673.394 1171.17 Q671.566 1172.84 668.209 1172.84 Q664.853 1172.84 663.024 1171.17 Q661.195 1169.51 660.964 1166.2 Z" fill="#000000" fill-rule="evenodd" fill-opacity="1" /><path clip-path="url(#clip810)" d="M702.978 1176.29 L709.204 1176.29 L716.565 1193.65 L723.95 1176.29 L730.13 1176.29 L730.13 1202.22 L725.848 1202.22 L725.848 1180.36 L718.695 1197.24 L714.436 1197.24 L707.26 1180.36 L707.26 1202.22 L702.978 1202.22 L702.978 1176.29 Z" fill="#000000" fill-rule="evenodd" fill-opacity="1" /><path clip-path="url(#clip810)" d="M739.505 1196.34 L744.389 1196.34 L744.389 1202.22 L739.505 1202.22 L739.505 1196.34 Z" fill="#000000" fill-rule="evenodd" fill-opacity="1" /><path clip-path="url(#clip810)" d="M767.144 1194.67 Q772.028 1199.04 777.954 1199.04 Q784.065 1199.04 786.82 1195.76 Q789.574 1192.47 790.084 1186.94 L771.611 1186.94 L771.611 1183 L790.084 1183 Q789.574 1177.47 786.82 1174.18 Q784.065 1170.87 777.954 1170.87 Q772.028 1170.87 767.144 1175.25 L767.144 1170.32 Q771.959 1167.03 778.232 1167.03 Q785.986 1167.03 790.5 1171.85 Q795.014 1176.64 795.014 1184.95 Q795.014 1193.28 790.5 1198.1 Q785.986 1202.89 778.232 1202.89 Q772.051 1202.89 767.144 1199.55 L767.144 1194.67 Z" fill="#000000" fill-rule="evenodd" fill-opacity="1" /><path clip-path="url(#clip810)" d="M824.181 1176.29 L824.181 1202.22 L819.945 1202.22 L819.945 1181.41 L807.445 1202.22 L801.982 1202.22 L801.982 1176.29 L806.218 1176.29 L806.218 1197.05 L818.695 1176.29 L824.181 1176.29 M805.847 1166.2 L808.579 1166.2 Q808.833 1167.93 809.945 1168.81 Q811.079 1169.67 813.093 1169.67 Q815.083 1169.67 816.195 1168.81 Q817.306 1167.96 817.607 1166.2 L820.338 1166.2 Q820.107 1169.51 818.278 1171.17 Q816.449 1172.84 813.093 1172.84 Q809.736 1172.84 807.908 1171.17 Q806.079 1169.51 805.847 1166.2 Z" fill="#000000" fill-rule="evenodd" fill-opacity="1" /><path clip-path="url(#clip810)" d="M830.245 1202.22 L830.245 1198.67 Q834.458 1198.03 835.755 1195.11 Q837.329 1191.01 837.329 1180.53 L837.329 1176.29 L854.852 1176.29 L854.852 1202.22 L850.593 1202.22 L850.593 1179.69 L841.588 1179.69 L841.588 1182.26 Q841.588 1192.26 839.551 1196.75 Q837.375 1201.54 830.245 1202.22 Z" fill="#000000" fill-rule="evenodd" fill-opacity="1" /><path clip-path="url(#clip810)" d="M885.43 1188.19 L885.43 1190.27 L865.847 1190.27 Q866.125 1194.67 868.486 1196.98 Q870.87 1199.28 875.106 1199.28 Q877.56 1199.28 879.852 1198.67 Q882.166 1198.07 884.435 1196.87 L884.435 1200.9 Q882.143 1201.87 879.736 1202.38 Q877.328 1202.89 874.852 1202.89 Q868.648 1202.89 865.014 1199.28 Q861.403 1195.67 861.403 1189.51 Q861.403 1183.14 864.829 1179.42 Q868.278 1175.67 874.111 1175.67 Q879.342 1175.67 882.375 1179.04 Q885.43 1182.4 885.43 1188.19 M881.171 1186.94 Q881.125 1183.44 879.203 1181.36 Q877.305 1179.28 874.157 1179.28 Q870.592 1179.28 868.44 1181.29 Q866.31 1183.3 865.986 1186.96 L881.171 1186.94 Z" fill="#000000" fill-rule="evenodd" fill-opacity="1" /><path clip-path="url(#clip810)" d="M896.541 1198.33 L896.541 1212.08 L892.259 1212.08 L892.259 1176.29 L896.541 1176.29 L896.541 1180.23 Q897.884 1177.91 899.921 1176.8 Q901.981 1175.67 904.828 1175.67 Q909.551 1175.67 912.49 1179.42 Q915.453 1183.17 915.453 1189.28 Q915.453 1195.39 912.49 1199.14 Q909.551 1202.89 904.828 1202.89 Q901.981 1202.89 899.921 1201.78 Q897.884 1200.64 896.541 1198.33 M911.032 1189.28 Q911.032 1184.58 909.088 1181.92 Q907.166 1179.23 903.787 1179.23 Q900.407 1179.23 898.463 1181.92 Q896.541 1184.58 896.541 1189.28 Q896.541 1193.98 898.463 1196.66 Q900.407 1199.32 903.787 1199.32 Q907.166 1199.32 909.088 1196.66 Q911.032 1193.98 911.032 1189.28 Z" fill="#000000" fill-rule="evenodd" fill-opacity="1" /><path clip-path="url(#clip810)" d="M934.296 1189.18 Q929.134 1189.18 927.143 1190.36 Q925.152 1191.54 925.152 1194.39 Q925.152 1196.66 926.634 1198 Q928.138 1199.32 930.708 1199.32 Q934.249 1199.32 936.379 1196.82 Q938.532 1194.3 938.532 1190.13 L938.532 1189.18 L934.296 1189.18 M942.791 1187.42 L942.791 1202.22 L938.532 1202.22 L938.532 1198.28 Q937.074 1200.64 934.898 1201.78 Q932.722 1202.89 929.574 1202.89 Q925.592 1202.89 923.231 1200.67 Q920.893 1198.42 920.893 1194.67 Q920.893 1190.29 923.81 1188.07 Q926.75 1185.85 932.56 1185.85 L938.532 1185.85 L938.532 1185.43 Q938.532 1182.49 936.587 1180.9 Q934.666 1179.28 931.171 1179.28 Q928.949 1179.28 926.842 1179.81 Q924.736 1180.34 922.791 1181.41 L922.791 1177.47 Q925.129 1176.57 927.328 1176.13 Q929.527 1175.67 931.611 1175.67 Q937.236 1175.67 940.013 1178.58 Q942.791 1181.5 942.791 1187.42 Z" fill="#000000" fill-rule="evenodd" fill-opacity="1" /><polyline clip-path="url(#clip810)" style="stroke:#ff0000; stroke-linecap:butt; stroke-linejoin:round; stroke-width:4; stroke-opacity:1; fill:none" stroke-dasharray="16, 10" points="
  369.137,1236.78 507.529,1236.78 
  "/>
<path clip-path="url(#clip810)" d="M563.76 1228.17 Q563.76 1231.52 562.566 1234.84 Q561.395 1238.14 559.334 1240.86 Q557.272 1243.58 554.649 1245.69 Q552.026 1247.79 548.957 1248.97 Q545.889 1250.14 542.891 1250.14 Q537.574 1250.14 534.084 1246.65 Q530.594 1243.16 530.594 1237.32 Q530.594 1233.25 532.421 1229.2 Q534.248 1225.12 537.153 1222.1 Q540.057 1219.06 543.875 1217.16 Q547.716 1215.26 551.51 1215.26 Q556.898 1215.26 560.317 1218.84 Q563.76 1222.4 563.76 1228.17 M559.474 1226.29 Q559.474 1223.72 558.748 1221.77 Q558.022 1219.8 556.804 1218.68 Q555.609 1217.56 554.181 1217.02 Q552.775 1216.46 551.229 1216.46 Q548.231 1216.46 545.022 1218.4 Q541.814 1220.34 539.424 1223.95 Q538.136 1225.92 537.199 1228.28 Q536.262 1230.63 535.841 1232.71 Q535.419 1234.77 535.232 1236.22 Q535.068 1237.68 535.068 1238.68 Q535.068 1243.37 537.316 1246.13 Q539.565 1248.9 543.172 1248.9 Q546.006 1248.9 548.77 1247.23 Q551.534 1245.55 553.431 1243.13 Q555.118 1241.05 556.359 1238.54 Q557.624 1236.04 558.256 1233.74 Q558.889 1231.45 559.17 1229.6 Q559.474 1227.74 559.474 1226.29 Z" fill="#000000" fill-rule="evenodd" fill-opacity="1" /><path clip-path="url(#clip810)" d="M570.086 1237.09 Q570.086 1228.99 573.108 1222.45 Q574.396 1219.71 576.2 1217.42 Q578.003 1215.12 579.198 1214.11 Q580.392 1213.11 580.72 1213.11 Q581.188 1213.11 581.212 1213.57 Q581.212 1213.81 580.58 1214.39 Q572.85 1222.26 572.874 1237.09 Q572.874 1251.96 580.392 1259.53 Q581.212 1260.35 581.212 1260.61 Q581.212 1261.07 580.72 1261.07 Q580.392 1261.07 579.244 1260.11 Q578.097 1259.15 576.317 1256.95 Q574.537 1254.75 573.248 1252.06 Q570.086 1245.52 570.086 1237.09 Z" fill="#000000" fill-rule="evenodd" fill-opacity="1" /><path clip-path="url(#clip810)" d="M614.501 1242.22 Q614.501 1242.41 614.29 1243.13 Q614.079 1243.86 613.564 1244.98 Q613.072 1246.11 612.393 1247.14 Q611.713 1248.15 610.589 1248.9 Q609.488 1249.62 608.223 1249.62 Q606.537 1249.62 605.413 1248.5 Q604.289 1247.37 604.289 1245.69 Q604.289 1244.75 604.78 1243.46 Q607.896 1235.15 607.896 1232.29 Q607.896 1228.94 605.296 1228.94 Q604.007 1228.94 602.789 1229.43 Q601.595 1229.9 600.775 1230.56 Q599.955 1231.21 599.206 1232.12 Q598.48 1233.01 598.105 1233.62 Q597.754 1234.21 597.473 1234.79 L596.864 1237.18 Q596.723 1237.84 596.044 1240.39 L594.99 1244.73 Q594.24 1247.96 594.076 1248.26 Q593.842 1248.92 593.327 1249.27 Q592.812 1249.62 592.296 1249.62 Q591.711 1249.62 591.312 1249.27 Q590.914 1248.92 590.914 1248.31 Q590.914 1248.22 590.985 1247.86 Q591.055 1247.51 591.172 1247.02 Q591.289 1246.53 591.336 1246.25 L594.123 1235.17 Q594.638 1233.16 594.756 1232.52 Q594.896 1231.87 594.896 1231.14 Q594.896 1228.94 593.397 1228.94 Q592.179 1228.94 591.383 1230.39 Q590.586 1231.84 589.907 1234.65 Q589.696 1235.43 589.556 1235.59 Q589.439 1235.76 589.087 1235.76 Q588.502 1235.73 588.502 1235.26 Q588.502 1235.15 588.689 1234.37 Q588.877 1233.6 589.228 1232.5 Q589.603 1231.38 589.954 1230.63 Q590.258 1230.06 590.422 1229.81 Q590.61 1229.52 591.055 1228.99 Q591.523 1228.42 592.132 1228.17 Q592.765 1227.89 593.538 1227.89 Q595.271 1227.89 596.536 1229.01 Q597.8 1230.11 597.964 1232.05 Q601.08 1227.89 605.436 1227.89 Q608.013 1227.89 609.488 1229.24 Q610.964 1230.6 610.964 1233.01 Q610.964 1233.58 610.847 1234.3 Q610.753 1235.01 610.519 1235.9 Q610.308 1236.79 610.121 1237.47 Q609.933 1238.14 609.559 1239.25 Q609.184 1240.32 609.02 1240.79 Q608.856 1241.26 608.458 1242.36 Q608.083 1243.44 608.036 1243.55 Q607.169 1245.73 607.169 1246.97 Q607.169 1247.79 607.427 1248.17 Q607.708 1248.54 608.317 1248.54 Q609.957 1248.54 611.175 1246.93 Q612.416 1245.29 613.212 1242.62 Q613.4 1242.03 613.494 1241.89 Q613.611 1241.75 613.939 1241.75 Q614.501 1241.75 614.501 1242.22 Z" fill="#000000" fill-rule="evenodd" fill-opacity="1" /><path clip-path="url(#clip810)" d="M641.523 1225.87 Q641.72 1226.07 641.72 1226.35 Q641.72 1226.63 641.523 1226.82 Q641.326 1227.02 641.048 1227.02 L620.028 1227.02 Q619.75 1227.02 619.553 1226.82 Q619.356 1226.63 619.356 1226.35 Q619.356 1226.07 619.553 1225.87 Q619.75 1225.68 620.028 1225.68 L641.048 1225.68 Q641.326 1225.68 641.523 1225.87 Z" fill="#000000" fill-rule="evenodd" fill-opacity="1" /><path clip-path="url(#clip810)" d="M645.219 1215.58 L645.219 1214.53 Q649.252 1214.53 651.335 1212.38 Q651.909 1212.38 652.007 1212.51 Q652.105 1212.64 652.105 1213.25 L652.105 1232.09 Q652.105 1233.09 652.597 1233.4 Q653.089 1233.71 655.237 1233.71 L656.303 1233.71 L656.303 1234.74 Q655.122 1234.64 650.859 1234.64 Q646.596 1234.64 645.432 1234.74 L645.432 1233.71 L646.498 1233.71 Q648.613 1233.71 649.121 1233.41 Q649.63 1233.1 649.63 1232.09 L649.63 1214.69 Q647.875 1215.58 645.219 1215.58 Z" fill="#000000" fill-rule="evenodd" fill-opacity="1" /><path clip-path="url(#clip810)" d="M666.964 1260.61 Q666.964 1260.37 667.573 1259.79 Q675.302 1251.92 675.302 1237.09 Q675.302 1222.22 667.878 1214.7 Q666.964 1213.83 666.964 1213.57 Q666.964 1213.11 667.433 1213.11 Q667.76 1213.11 668.908 1214.07 Q670.079 1215.03 671.836 1217.23 Q673.616 1219.43 674.928 1222.12 Q678.09 1228.66 678.09 1237.09 Q678.09 1245.19 675.068 1251.73 Q673.78 1254.47 671.976 1256.77 Q670.173 1259.06 668.978 1260.07 Q667.784 1261.07 667.433 1261.07 Q666.964 1261.07 666.964 1260.61 Z" fill="#000000" fill-rule="evenodd" fill-opacity="1" /><polyline clip-path="url(#clip810)" style="stroke:#0000ff; stroke-linecap:butt; stroke-linejoin:round; stroke-width:4; stroke-opacity:1; fill:none" points="
  369.137,1288.62 507.529,1288.62 
  "/>
<path clip-path="url(#clip810)" d="M438.333 1314.22 L420.234 1306.72 L412.733 1288.62 L420.234 1270.52 L438.333 1263.02 L456.432 1270.52 L463.933 1288.62 L456.432 1306.72 Z" fill="#0000ff" fill-rule="evenodd" fill-opacity="1" stroke="#000000" stroke-opacity="1" stroke-width="5.12"/>
<path clip-path="url(#clip810)" d="M536.659 1287.45 Q536.659 1289.37 538.14 1290.46 Q539.622 1291.54 542.377 1291.54 L548.117 1291.54 L548.117 1283.37 L542.377 1283.37 Q539.622 1283.37 538.14 1284.44 Q536.659 1285.5 536.659 1287.45 M530.594 1305.9 L538.511 1294.53 Q535.826 1293.93 534.043 1292.35 Q532.261 1290.76 532.261 1287.45 Q532.261 1283.7 534.738 1281.85 Q537.238 1279.97 542.261 1279.97 L552.4 1279.97 L552.4 1305.9 L548.117 1305.9 L548.117 1294.95 L542.816 1294.95 L535.178 1305.9 L530.594 1305.9 Z" fill="#000000" fill-rule="evenodd" fill-opacity="1" /><path clip-path="url(#clip810)" d="M564.992 1293.95 L564.992 1302.49 L571.057 1302.49 Q573.974 1302.49 575.501 1301.41 Q577.029 1300.29 577.029 1298.21 Q577.029 1296.13 575.501 1295.04 Q573.974 1293.95 571.057 1293.95 L564.992 1293.95 M564.992 1283.37 L564.992 1290.55 L570.594 1290.55 Q573.001 1290.55 574.529 1289.6 Q576.057 1288.63 576.057 1286.91 Q576.057 1285.2 574.529 1284.3 Q573.001 1283.37 570.594 1283.37 L564.992 1283.37 M560.733 1279.97 L570.872 1279.97 Q575.432 1279.97 577.886 1281.64 Q580.339 1283.3 580.339 1286.38 Q580.339 1288.77 579.089 1290.18 Q577.839 1291.57 575.386 1291.91 Q578.325 1292.47 579.946 1294.23 Q581.566 1295.99 581.566 1298.63 Q581.566 1302.1 578.881 1304 Q576.219 1305.9 571.265 1305.9 L560.733 1305.9 L560.733 1279.97 Z" fill="#000000" fill-rule="evenodd" fill-opacity="1" /><path clip-path="url(#clip810)" d="M588.673 1279.97 L592.955 1279.97 L592.955 1290.55 L606.774 1290.55 L606.774 1279.97 L611.057 1279.97 L611.057 1305.9 L606.774 1305.9 L606.774 1293.95 L592.955 1293.95 L592.955 1305.9 L588.673 1305.9 L588.673 1279.97 Z" fill="#000000" fill-rule="evenodd" fill-opacity="1" /><path clip-path="url(#clip810)" d="M644.32 1279.97 L648.58 1279.97 L648.58 1305.9 L644.32 1305.9 L644.32 1279.97 M646.45 1279.35 L646.45 1279.35 M635.964 1298.21 Q635.964 1296.13 634.436 1295.04 Q632.932 1293.95 630.015 1293.95 L623.95 1293.95 L623.95 1302.49 L630.015 1302.49 Q632.932 1302.49 634.436 1301.41 Q635.964 1300.29 635.964 1298.21 M619.668 1279.97 L623.95 1279.97 L623.95 1290.55 L630.2 1290.55 Q635.154 1290.55 637.816 1292.45 Q640.501 1294.32 640.501 1298.21 Q640.501 1302.1 637.816 1304 Q635.154 1305.9 630.2 1305.9 L619.668 1305.9 L619.668 1279.97 Z" fill="#000000" fill-rule="evenodd" fill-opacity="1" /><path clip-path="url(#clip810)" d="M679.297 1279.97 L679.297 1305.9 L675.061 1305.9 L675.061 1285.09 L662.561 1305.9 L657.098 1305.9 L657.098 1279.97 L661.334 1279.97 L661.334 1300.73 L673.811 1279.97 L679.297 1279.97 M660.964 1269.88 L663.695 1269.88 Q663.95 1271.61 665.061 1272.49 Q666.195 1273.35 668.209 1273.35 Q670.2 1273.35 671.311 1272.49 Q672.422 1271.64 672.723 1269.88 L675.455 1269.88 Q675.223 1273.19 673.394 1274.85 Q671.566 1276.52 668.209 1276.52 Q664.853 1276.52 663.024 1274.85 Q661.195 1273.19 660.964 1269.88 Z" fill="#000000" fill-rule="evenodd" fill-opacity="1" /><path clip-path="url(#clip810)" d="M702.978 1279.97 L709.204 1279.97 L716.565 1297.33 L723.95 1279.97 L730.13 1279.97 L730.13 1305.9 L725.848 1305.9 L725.848 1284.04 L718.695 1300.92 L714.436 1300.92 L707.26 1284.04 L707.26 1305.9 L702.978 1305.9 L702.978 1279.97 Z" fill="#000000" fill-rule="evenodd" fill-opacity="1" /><path clip-path="url(#clip810)" d="M739.505 1300.02 L744.389 1300.02 L744.389 1305.9 L739.505 1305.9 L739.505 1300.02 Z" fill="#000000" fill-rule="evenodd" fill-opacity="1" /><path clip-path="url(#clip810)" d="M773.903 1275.18 L773.903 1288.16 L779.783 1288.16 Q783.047 1288.16 784.829 1286.47 Q786.611 1284.78 786.611 1281.66 Q786.611 1278.56 784.829 1276.87 Q783.047 1275.18 779.783 1275.18 L773.903 1275.18 M769.227 1271.34 L779.783 1271.34 Q785.593 1271.34 788.556 1273.97 Q791.542 1276.59 791.542 1281.66 Q791.542 1286.78 788.556 1289.39 Q785.593 1292.01 779.783 1292.01 L773.903 1292.01 L773.903 1305.9 L769.227 1305.9 L769.227 1271.34 Z" fill="#000000" fill-rule="evenodd" fill-opacity="1" /><path clip-path="url(#clip810)" d="M797.815 1271.34 L802.491 1271.34 L802.491 1288.42 L819.204 1271.34 L825.199 1271.34 L811.843 1284.99 L825.894 1305.9 L820.801 1305.9 L808.81 1288.1 L802.491 1294.55 L802.491 1305.9 L797.815 1305.9 L797.815 1271.34 Z" fill="#000000" fill-rule="evenodd" fill-opacity="1" /><path clip-path="url(#clip810)" d="M844.736 1275.41 L832.931 1293.86 L844.736 1293.86 L844.736 1275.41 M843.509 1271.34 L849.389 1271.34 L849.389 1293.86 L854.319 1293.86 L854.319 1297.75 L849.389 1297.75 L849.389 1305.9 L844.736 1305.9 L844.736 1297.75 L829.134 1297.75 L829.134 1293.23 L843.509 1271.34 Z" fill="#000000" fill-rule="evenodd" fill-opacity="1" /><polyline clip-path="url(#clip810)" style="stroke:#0000ff; stroke-linecap:butt; stroke-linejoin:round; stroke-width:4; stroke-opacity:1; fill:none" stroke-dasharray="16, 10" points="
  369.137,1340.46 507.529,1340.46 
  "/>
<path clip-path="url(#clip810)" d="M563.76 1331.98 Q563.76 1335.33 562.566 1338.65 Q561.395 1341.95 559.334 1344.67 Q557.272 1347.39 554.649 1349.5 Q552.026 1351.6 548.957 1352.78 Q545.889 1353.95 542.891 1353.95 Q537.574 1353.95 534.084 1350.46 Q530.594 1346.97 530.594 1341.13 Q530.594 1337.06 532.421 1333.01 Q534.248 1328.93 537.153 1325.91 Q540.057 1322.87 543.875 1320.97 Q547.716 1319.07 551.51 1319.07 Q556.898 1319.07 560.317 1322.65 Q563.76 1326.21 563.76 1331.98 M559.474 1330.1 Q559.474 1327.53 558.748 1325.58 Q558.022 1323.61 556.804 1322.49 Q555.609 1321.37 554.181 1320.83 Q552.775 1320.27 551.229 1320.27 Q548.231 1320.27 545.022 1322.21 Q541.814 1324.15 539.424 1327.76 Q538.136 1329.73 537.199 1332.09 Q536.262 1334.44 535.841 1336.52 Q535.419 1338.58 535.232 1340.03 Q535.068 1341.49 535.068 1342.49 Q535.068 1347.18 537.316 1349.94 Q539.565 1352.71 543.172 1352.71 Q546.006 1352.71 548.77 1351.04 Q551.534 1349.36 553.431 1346.94 Q555.118 1344.86 556.359 1342.35 Q557.624 1339.85 558.256 1337.55 Q558.889 1335.26 559.17 1333.41 Q559.474 1331.55 559.474 1330.1 Z" fill="#000000" fill-rule="evenodd" fill-opacity="1" /><path clip-path="url(#clip810)" d="M570.086 1340.9 Q570.086 1332.8 573.108 1326.26 Q574.396 1323.52 576.2 1321.23 Q578.003 1318.93 579.198 1317.92 Q580.392 1316.92 580.72 1316.92 Q581.188 1316.92 581.212 1317.38 Q581.212 1317.62 580.58 1318.2 Q572.85 1326.07 572.874 1340.9 Q572.874 1355.77 580.392 1363.34 Q581.212 1364.16 581.212 1364.42 Q581.212 1364.89 580.72 1364.89 Q580.392 1364.89 579.244 1363.92 Q578.097 1362.96 576.317 1360.76 Q574.537 1358.56 573.248 1355.87 Q570.086 1349.33 570.086 1340.9 Z" fill="#000000" fill-rule="evenodd" fill-opacity="1" /><path clip-path="url(#clip810)" d="M614.501 1346.03 Q614.501 1346.22 614.29 1346.94 Q614.079 1347.67 613.564 1348.79 Q613.072 1349.92 612.393 1350.95 Q611.713 1351.96 610.589 1352.71 Q609.488 1353.43 608.223 1353.43 Q606.537 1353.43 605.413 1352.31 Q604.289 1351.18 604.289 1349.5 Q604.289 1348.56 604.78 1347.27 Q607.896 1338.96 607.896 1336.1 Q607.896 1332.75 605.296 1332.75 Q604.007 1332.75 602.789 1333.24 Q601.595 1333.71 600.775 1334.37 Q599.955 1335.02 599.206 1335.93 Q598.48 1336.82 598.105 1337.43 Q597.754 1338.02 597.473 1338.61 L596.864 1340.99 Q596.723 1341.65 596.044 1344.2 L594.99 1348.54 Q594.24 1351.77 594.076 1352.07 Q593.842 1352.73 593.327 1353.08 Q592.812 1353.43 592.296 1353.43 Q591.711 1353.43 591.312 1353.08 Q590.914 1352.73 590.914 1352.12 Q590.914 1352.03 590.985 1351.67 Q591.055 1351.32 591.172 1350.83 Q591.289 1350.34 591.336 1350.06 L594.123 1338.98 Q594.638 1336.97 594.756 1336.33 Q594.896 1335.68 594.896 1334.95 Q594.896 1332.75 593.397 1332.75 Q592.179 1332.75 591.383 1334.2 Q590.586 1335.65 589.907 1338.46 Q589.696 1339.24 589.556 1339.4 Q589.439 1339.57 589.087 1339.57 Q588.502 1339.54 588.502 1339.07 Q588.502 1338.96 588.689 1338.18 Q588.877 1337.41 589.228 1336.31 Q589.603 1335.19 589.954 1334.44 Q590.258 1333.87 590.422 1333.62 Q590.61 1333.34 591.055 1332.8 Q591.523 1332.23 592.132 1331.98 Q592.765 1331.7 593.538 1331.7 Q595.271 1331.7 596.536 1332.82 Q597.8 1333.92 597.964 1335.86 Q601.08 1331.7 605.436 1331.7 Q608.013 1331.7 609.488 1333.05 Q610.964 1334.41 610.964 1336.82 Q610.964 1337.39 610.847 1338.11 Q610.753 1338.82 610.519 1339.71 Q610.308 1340.6 610.121 1341.28 Q609.933 1341.95 609.559 1343.06 Q609.184 1344.13 609.02 1344.6 Q608.856 1345.07 608.458 1346.17 Q608.083 1347.25 608.036 1347.37 Q607.169 1349.54 607.169 1350.78 Q607.169 1351.6 607.427 1351.98 Q607.708 1352.35 608.317 1352.35 Q609.957 1352.35 611.175 1350.74 Q612.416 1349.1 613.212 1346.43 Q613.4 1345.84 613.494 1345.7 Q613.611 1345.56 613.939 1345.56 Q614.501 1345.56 614.501 1346.03 Z" fill="#000000" fill-rule="evenodd" fill-opacity="1" /><path clip-path="url(#clip810)" d="M641.523 1329.79 Q641.72 1329.99 641.72 1330.27 Q641.72 1330.55 641.523 1330.75 Q641.326 1330.94 641.048 1330.94 L620.028 1330.94 Q619.75 1330.94 619.553 1330.75 Q619.356 1330.55 619.356 1330.27 Q619.356 1329.99 619.553 1329.79 Q619.75 1329.6 620.028 1329.6 L641.048 1329.6 Q641.326 1329.6 641.523 1329.79 Z" fill="#000000" fill-rule="evenodd" fill-opacity="1" /><path clip-path="url(#clip810)" d="M645.219 1333.12 L645.219 1332.09 L655.532 1316.33 Q655.794 1315.92 656.204 1315.94 Q656.581 1315.94 656.663 1316.09 Q656.745 1316.24 656.745 1316.81 L656.745 1332.09 L660.106 1332.09 L660.106 1333.12 L656.745 1333.12 L656.745 1336.04 Q656.745 1337.01 657.139 1337.32 Q657.549 1337.63 659.287 1337.63 L659.992 1337.63 L659.992 1338.66 Q658.614 1338.57 655.434 1338.57 Q652.269 1338.57 650.892 1338.66 L650.892 1337.63 L651.597 1337.63 Q653.335 1337.63 653.745 1337.34 Q654.155 1337.02 654.155 1336.04 L654.155 1333.12 L645.219 1333.12 M646.17 1332.09 L654.351 1332.09 L654.351 1319.56 L646.17 1332.09 Z" fill="#000000" fill-rule="evenodd" fill-opacity="1" /><path clip-path="url(#clip810)" d="M666.964 1364.42 Q666.964 1364.18 667.573 1363.6 Q675.302 1355.73 675.302 1340.9 Q675.302 1326.03 667.878 1318.51 Q666.964 1317.64 666.964 1317.38 Q666.964 1316.92 667.433 1316.92 Q667.76 1316.92 668.908 1317.88 Q670.079 1318.84 671.836 1321.04 Q673.616 1323.24 674.928 1325.93 Q678.09 1332.47 678.09 1340.9 Q678.09 1349 675.068 1355.54 Q673.78 1358.28 671.976 1360.58 Q670.173 1362.87 668.978 1363.88 Q667.784 1364.89 667.433 1364.89 Q666.964 1364.89 666.964 1364.42 Z" fill="#000000" fill-rule="evenodd" fill-opacity="1" /></svg>
