<?xml version="1.0" encoding="utf-8"?>
<svg xmlns="http://www.w3.org/2000/svg" xmlns:xlink="http://www.w3.org/1999/xlink" width="600" height="400" viewBox="0 0 2400 1600">
<defs>
  <clipPath id="clip870">
    <rect x="0" y="0" width="2400" height="1600"/>
  </clipPath>
</defs>
<path clip-path="url(#clip870)" d="
M0 1600 L2400 1600 L2400 0 L0 0  Z
  " fill="#ffffff" fill-rule="evenodd" fill-opacity="1"/>
<defs>
  <clipPath id="clip871">
    <rect x="480" y="0" width="1681" height="1600"/>
  </clipPath>
</defs>
<defs>
  <clipPath id="clip872">
    <rect x="1385" y="847" width="968" height="597"/>
  </clipPath>
</defs>
<path clip-path="url(#clip870)" d="
M277.27 1438.68 L2352.76 1438.68 L2352.76 47.2441 L277.27 47.2441  Z
  " fill="#ffffff" fill-rule="evenodd" fill-opacity="1"/>
<defs>
  <clipPath id="clip873">
    <rect x="277" y="47" width="2076" height="1392"/>
  </clipPath>
</defs>
<polyline clip-path="url(#clip873)" style="stroke:#000000; stroke-linecap:butt; stroke-linejoin:round; stroke-width:2; stroke-opacity:0.1; fill:none" points="
  843.088,1438.68 843.088,47.2441 
  "/>
<polyline clip-path="url(#clip873)" style="stroke:#000000; stroke-linecap:butt; stroke-linejoin:round; stroke-width:2; stroke-opacity:0.1; fill:none" points="
  1568.55,1438.68 1568.55,47.2441 
  "/>
<polyline clip-path="url(#clip873)" style="stroke:#000000; stroke-linecap:butt; stroke-linejoin:round; stroke-width:2; stroke-opacity:0.1; fill:none" points="
  2294.02,1438.68 2294.02,47.2441 
  "/>
<polyline clip-path="url(#clip870)" style="stroke:#000000; stroke-linecap:butt; stroke-linejoin:round; stroke-width:4; stroke-opacity:1; fill:none" points="
  277.27,1438.68 2352.76,1438.68 
  "/>
<polyline clip-path="url(#clip870)" style="stroke:#000000; stroke-linecap:butt; stroke-linejoin:round; stroke-width:4; stroke-opacity:1; fill:none" points="
  843.088,1438.68 843.088,1419.78 
  "/>
<polyline clip-path="url(#clip870)" style="stroke:#000000; stroke-linecap:butt; stroke-linejoin:round; stroke-width:4; stroke-opacity:1; fill:none" points="
  1568.55,1438.68 1568.55,1419.78 
  "/>
<polyline clip-path="url(#clip870)" style="stroke:#000000; stroke-linecap:butt; stroke-linejoin:round; stroke-width:4; stroke-opacity:1; fill:none" points="
  2294.02,1438.68 2294.02,1419.78 
  "/>
<path clip-path="url(#clip870)" d="M809.416 1516.95 L817.055 1516.95 L817.055 1490.58 L808.744 1492.25 L808.744 1487.99 L817.008 1486.32 L821.684 1486.32 L821.684 1516.95 L829.323 1516.95 L829.323 1520.88 L809.416 1520.88 L809.416 1516.95 Z" fill="#000000" fill-rule="evenodd" fill-opacity="1" /><path clip-path="url(#clip870)" d="M848.767 1489.4 Q845.156 1489.4 843.328 1492.97 Q841.522 1496.51 841.522 1503.64 Q841.522 1510.75 843.328 1514.31 Q845.156 1517.85 848.767 1517.85 Q852.402 1517.85 854.207 1514.31 Q856.036 1510.75 856.036 1503.64 Q856.036 1496.51 854.207 1492.97 Q852.402 1489.4 848.767 1489.4 M848.767 1485.7 Q854.577 1485.7 857.633 1490.31 Q860.712 1494.89 860.712 1503.64 Q860.712 1512.37 857.633 1516.97 Q854.577 1521.56 848.767 1521.56 Q842.957 1521.56 839.878 1516.97 Q836.823 1512.37 836.823 1503.64 Q836.823 1494.89 839.878 1490.31 Q842.957 1485.7 848.767 1485.7 Z" fill="#000000" fill-rule="evenodd" fill-opacity="1" /><path clip-path="url(#clip870)" d="M861.257 1490.28 L867.464 1490.28 L867.464 1468.85 L860.712 1470.21 L860.712 1466.75 L867.426 1465.39 L871.225 1465.39 L871.225 1490.28 L877.432 1490.28 L877.432 1493.47 L861.257 1493.47 L861.257 1490.28 Z" fill="#000000" fill-rule="evenodd" fill-opacity="1" /><path clip-path="url(#clip870)" d="M1534.32 1516.95 L1541.96 1516.95 L1541.96 1490.58 L1533.65 1492.25 L1533.65 1487.99 L1541.92 1486.32 L1546.59 1486.32 L1546.59 1516.95 L1554.23 1516.95 L1554.23 1520.88 L1534.32 1520.88 L1534.32 1516.95 Z" fill="#000000" fill-rule="evenodd" fill-opacity="1" /><path clip-path="url(#clip870)" d="M1573.68 1489.4 Q1570.07 1489.4 1568.24 1492.97 Q1566.43 1496.51 1566.43 1503.64 Q1566.43 1510.75 1568.24 1514.31 Q1570.07 1517.85 1573.68 1517.85 Q1577.31 1517.85 1579.12 1514.31 Q1580.94 1510.75 1580.94 1503.64 Q1580.94 1496.51 1579.12 1492.97 Q1577.31 1489.4 1573.68 1489.4 M1573.68 1485.7 Q1579.49 1485.7 1582.54 1490.31 Q1585.62 1494.89 1585.62 1503.64 Q1585.62 1512.37 1582.54 1516.97 Q1579.49 1521.56 1573.68 1521.56 Q1567.87 1521.56 1564.79 1516.97 Q1561.73 1512.37 1561.73 1503.64 Q1561.73 1494.89 1564.79 1490.31 Q1567.87 1485.7 1573.68 1485.7 Z" fill="#000000" fill-rule="evenodd" fill-opacity="1" /><path clip-path="url(#clip870)" d="M1590.19 1490.28 L1603.45 1490.28 L1603.45 1493.47 L1585.62 1493.47 L1585.62 1490.28 Q1587.78 1488.04 1591.51 1484.28 Q1595.25 1480.5 1596.21 1479.41 Q1598.03 1477.36 1598.75 1475.95 Q1599.48 1474.52 1599.48 1473.14 Q1599.48 1470.9 1597.9 1469.49 Q1596.34 1468.08 1593.82 1468.08 Q1592.03 1468.08 1590.04 1468.7 Q1588.07 1469.32 1585.81 1470.58 L1585.81 1466.75 Q1588.1 1465.83 1590.1 1465.36 Q1592.09 1464.89 1593.75 1464.89 Q1598.11 1464.89 1600.7 1467.07 Q1603.3 1469.25 1603.3 1472.9 Q1603.3 1474.63 1602.64 1476.19 Q1602 1477.73 1600.29 1479.84 Q1599.82 1480.38 1597.3 1483 Q1594.78 1485.59 1590.19 1490.28 Z" fill="#000000" fill-rule="evenodd" fill-opacity="1" /><path clip-path="url(#clip870)" d="M2259.46 1516.95 L2267.1 1516.95 L2267.1 1490.58 L2258.79 1492.25 L2258.79 1487.99 L2267.05 1486.32 L2271.73 1486.32 L2271.73 1516.95 L2279.37 1516.95 L2279.37 1520.88 L2259.46 1520.88 L2259.46 1516.95 Z" fill="#000000" fill-rule="evenodd" fill-opacity="1" /><path clip-path="url(#clip870)" d="M2298.81 1489.4 Q2295.2 1489.4 2293.37 1492.97 Q2291.57 1496.51 2291.57 1503.64 Q2291.57 1510.75 2293.37 1514.31 Q2295.2 1517.85 2298.81 1517.85 Q2302.45 1517.85 2304.25 1514.31 Q2306.08 1510.75 2306.08 1503.64 Q2306.08 1496.51 2304.25 1492.97 Q2302.45 1489.4 2298.81 1489.4 M2298.81 1485.7 Q2304.62 1485.7 2307.68 1490.31 Q2310.76 1494.89 2310.76 1503.64 Q2310.76 1512.37 2307.68 1516.97 Q2304.62 1521.56 2298.81 1521.56 Q2293 1521.56 2289.92 1516.97 Q2286.87 1512.37 2286.87 1503.64 Q2286.87 1494.89 2289.92 1490.31 Q2293 1485.7 2298.81 1485.7 Z" fill="#000000" fill-rule="evenodd" fill-opacity="1" /><path clip-path="url(#clip870)" d="M2323.45 1478.33 Q2326.18 1478.92 2327.7 1480.76 Q2329.24 1482.6 2329.24 1485.31 Q2329.24 1489.47 2326.38 1491.74 Q2323.53 1494.02 2318.26 1494.02 Q2316.49 1494.02 2314.61 1493.66 Q2312.75 1493.32 2310.76 1492.63 L2310.76 1488.96 Q2312.34 1489.88 2314.22 1490.35 Q2316.1 1490.82 2318.15 1490.82 Q2321.72 1490.82 2323.58 1489.41 Q2325.46 1488 2325.46 1485.31 Q2325.46 1482.83 2323.71 1481.44 Q2321.98 1480.03 2318.88 1480.03 L2315.61 1480.03 L2315.61 1476.9 L2319.03 1476.9 Q2321.83 1476.9 2323.32 1475.79 Q2324.8 1474.67 2324.8 1472.56 Q2324.8 1470.4 2323.26 1469.25 Q2321.74 1468.08 2318.88 1468.08 Q2317.32 1468.08 2315.53 1468.42 Q2313.75 1468.76 2311.6 1469.48 L2311.6 1466.09 Q2313.76 1465.49 2315.65 1465.19 Q2317.54 1464.89 2319.22 1464.89 Q2323.54 1464.89 2326.06 1466.86 Q2328.59 1468.82 2328.59 1472.16 Q2328.59 1474.5 2327.25 1476.11 Q2325.91 1477.71 2323.45 1478.33 Z" fill="#000000" fill-rule="evenodd" fill-opacity="1" /><path clip-path="url(#clip870)" d="M1331.18 1561.42 Q1331.18 1561.68 1330.89 1562.68 Q1330.6 1563.67 1329.89 1565.22 Q1329.21 1566.77 1328.28 1568.18 Q1327.34 1569.57 1325.8 1570.6 Q1324.28 1571.6 1322.54 1571.6 Q1320.23 1571.6 1318.68 1570.05 Q1317.13 1568.5 1317.13 1566.19 Q1317.13 1564.9 1317.81 1563.13 Q1322.09 1551.69 1322.09 1547.76 Q1322.09 1543.16 1318.52 1543.16 Q1316.75 1543.16 1315.07 1543.84 Q1313.43 1544.48 1312.3 1545.38 Q1311.18 1546.28 1310.15 1547.54 Q1309.15 1548.76 1308.63 1549.6 Q1308.15 1550.41 1307.76 1551.21 L1306.93 1554.5 Q1306.73 1555.4 1305.8 1558.91 L1304.35 1564.87 Q1303.32 1569.31 1303.09 1569.73 Q1302.77 1570.63 1302.06 1571.11 Q1301.35 1571.6 1300.64 1571.6 Q1299.84 1571.6 1299.29 1571.11 Q1298.74 1570.63 1298.74 1569.79 Q1298.74 1569.66 1298.84 1569.18 Q1298.94 1568.7 1299.1 1568.02 Q1299.26 1567.35 1299.32 1566.96 L1303.16 1551.73 Q1303.87 1548.96 1304.03 1548.09 Q1304.22 1547.18 1304.22 1546.19 Q1304.22 1543.16 1302.16 1543.16 Q1300.48 1543.16 1299.39 1545.16 Q1298.29 1547.15 1297.36 1551.02 Q1297.07 1552.08 1296.88 1552.31 Q1296.72 1552.53 1296.23 1552.53 Q1295.43 1552.5 1295.43 1551.85 Q1295.43 1551.69 1295.69 1550.63 Q1295.94 1549.57 1296.43 1548.05 Q1296.94 1546.51 1297.42 1545.48 Q1297.84 1544.7 1298.07 1544.35 Q1298.33 1543.96 1298.94 1543.22 Q1299.58 1542.45 1300.42 1542.1 Q1301.29 1541.71 1302.35 1541.71 Q1304.74 1541.71 1306.47 1543.26 Q1308.21 1544.77 1308.44 1547.44 Q1312.72 1541.71 1318.71 1541.71 Q1322.25 1541.71 1324.28 1543.58 Q1326.31 1545.45 1326.31 1548.76 Q1326.31 1549.54 1326.15 1550.53 Q1326.02 1551.5 1325.7 1552.72 Q1325.41 1553.95 1325.15 1554.88 Q1324.9 1555.82 1324.38 1557.33 Q1323.87 1558.81 1323.64 1559.46 Q1323.41 1560.1 1322.87 1561.61 Q1322.35 1563.09 1322.29 1563.26 Q1321.1 1566.25 1321.1 1567.96 Q1321.1 1569.08 1321.45 1569.6 Q1321.84 1570.12 1322.67 1570.12 Q1324.93 1570.12 1326.6 1567.89 Q1328.31 1565.64 1329.4 1561.97 Q1329.66 1561.16 1329.79 1560.97 Q1329.95 1560.78 1330.4 1560.78 Q1331.18 1560.78 1331.18 1561.42 Z" fill="#000000" fill-rule="evenodd" fill-opacity="1" /><polyline clip-path="url(#clip873)" style="stroke:#000000; stroke-linecap:butt; stroke-linejoin:round; stroke-width:2; stroke-opacity:0.1; fill:none" points="
  277.27,52.8158 2352.76,52.8158 
  "/>
<polyline clip-path="url(#clip873)" style="stroke:#000000; stroke-linecap:butt; stroke-linejoin:round; stroke-width:2; stroke-opacity:0.1; fill:none" points="
  277.27,241.121 2352.76,241.121 
  "/>
<polyline clip-path="url(#clip873)" style="stroke:#000000; stroke-linecap:butt; stroke-linejoin:round; stroke-width:2; stroke-opacity:0.1; fill:none" points="
  277.27,429.427 2352.76,429.427 
  "/>
<polyline clip-path="url(#clip873)" style="stroke:#000000; stroke-linecap:butt; stroke-linejoin:round; stroke-width:2; stroke-opacity:0.1; fill:none" points="
  277.27,617.732 2352.76,617.732 
  "/>
<polyline clip-path="url(#clip873)" style="stroke:#000000; stroke-linecap:butt; stroke-linejoin:round; stroke-width:2; stroke-opacity:0.1; fill:none" points="
  277.27,806.038 2352.76,806.038 
  "/>
<polyline clip-path="url(#clip873)" style="stroke:#000000; stroke-linecap:butt; stroke-linejoin:round; stroke-width:2; stroke-opacity:0.1; fill:none" points="
  277.27,994.343 2352.76,994.343 
  "/>
<polyline clip-path="url(#clip873)" style="stroke:#000000; stroke-linecap:butt; stroke-linejoin:round; stroke-width:2; stroke-opacity:0.1; fill:none" points="
  277.27,1182.65 2352.76,1182.65 
  "/>
<polyline clip-path="url(#clip873)" style="stroke:#000000; stroke-linecap:butt; stroke-linejoin:round; stroke-width:2; stroke-opacity:0.1; fill:none" points="
  277.27,1370.95 2352.76,1370.95 
  "/>
<polyline clip-path="url(#clip870)" style="stroke:#000000; stroke-linecap:butt; stroke-linejoin:round; stroke-width:4; stroke-opacity:1; fill:none" points="
  277.27,1438.68 277.27,47.2441 
  "/>
<polyline clip-path="url(#clip870)" style="stroke:#000000; stroke-linecap:butt; stroke-linejoin:round; stroke-width:4; stroke-opacity:1; fill:none" points="
  277.27,52.8158 296.168,52.8158 
  "/>
<polyline clip-path="url(#clip870)" style="stroke:#000000; stroke-linecap:butt; stroke-linejoin:round; stroke-width:4; stroke-opacity:1; fill:none" points="
  277.27,241.121 296.168,241.121 
  "/>
<polyline clip-path="url(#clip870)" style="stroke:#000000; stroke-linecap:butt; stroke-linejoin:round; stroke-width:4; stroke-opacity:1; fill:none" points="
  277.27,429.427 296.168,429.427 
  "/>
<polyline clip-path="url(#clip870)" style="stroke:#000000; stroke-linecap:butt; stroke-linejoin:round; stroke-width:4; stroke-opacity:1; fill:none" points="
  277.27,617.732 296.168,617.732 
  "/>
<polyline clip-path="url(#clip870)" style="stroke:#000000; stroke-linecap:butt; stroke-linejoin:round; stroke-width:4; stroke-opacity:1; fill:none" points="
  277.27,806.038 296.168,806.038 
  "/>
<polyline clip-path="url(#clip870)" style="stroke:#000000; stroke-linecap:butt; stroke-linejoin:round; stroke-width:4; stroke-opacity:1; fill:none" points="
  277.27,994.343 296.168,994.343 
  "/>
<polyline clip-path="url(#clip870)" style="stroke:#000000; stroke-linecap:butt; stroke-linejoin:round; stroke-width:4; stroke-opacity:1; fill:none" points="
  277.27,1182.65 296.168,1182.65 
  "/>
<polyline clip-path="url(#clip870)" style="stroke:#000000; stroke-linecap:butt; stroke-linejoin:round; stroke-width:4; stroke-opacity:1; fill:none" points="
  277.27,1370.95 296.168,1370.95 
  "/>
<path clip-path="url(#clip870)" d="M170.565 72.6082 L178.204 72.6082 L178.204 46.2426 L169.894 47.9093 L169.894 43.65 L178.157 41.9834 L182.833 41.9834 L182.833 72.6082 L190.472 72.6082 L190.472 76.5434 L170.565 76.5434 L170.565 72.6082 Z" fill="#000000" fill-rule="evenodd" fill-opacity="1" /><path clip-path="url(#clip870)" d="M209.916 45.0621 Q206.305 45.0621 204.477 48.6268 Q202.671 52.1685 202.671 59.2981 Q202.671 66.4045 204.477 69.9693 Q206.305 73.511 209.916 73.511 Q213.551 73.511 215.356 69.9693 Q217.185 66.4045 217.185 59.2981 Q217.185 52.1685 215.356 48.6268 Q213.551 45.0621 209.916 45.0621 M209.916 41.3584 Q215.727 41.3584 218.782 45.9648 Q221.861 50.5481 221.861 59.2981 Q221.861 68.0249 218.782 72.6313 Q215.727 77.2147 209.916 77.2147 Q204.106 77.2147 201.028 72.6313 Q197.972 68.0249 197.972 59.2981 Q197.972 50.5481 201.028 45.9648 Q204.106 41.3584 209.916 41.3584 Z" fill="#000000" fill-rule="evenodd" fill-opacity="1" /><path clip-path="url(#clip870)" d="M231.566 23.5544 Q228.632 23.5544 227.146 26.4508 Q225.679 29.3284 225.679 35.1212 Q225.679 40.8952 227.146 43.7916 Q228.632 46.6691 231.566 46.6691 Q234.518 46.6691 235.985 43.7916 Q237.471 40.8952 237.471 35.1212 Q237.471 29.3284 235.985 26.4508 Q234.518 23.5544 231.566 23.5544 M231.566 20.5452 Q236.286 20.5452 238.769 24.2879 Q241.27 28.0118 241.27 35.1212 Q241.27 42.2117 238.769 45.9545 Q236.286 49.6784 231.566 49.6784 Q226.845 49.6784 224.343 45.9545 Q221.861 42.2117 221.861 35.1212 Q221.861 28.0118 224.343 24.2879 Q226.845 20.5452 231.566 20.5452 Z" fill="#000000" fill-rule="evenodd" fill-opacity="1" /><path clip-path="url(#clip870)" d="M141.131 260.914 L148.77 260.914 L148.77 234.548 L140.459 236.215 L140.459 231.955 L148.723 230.289 L153.399 230.289 L153.399 260.914 L161.038 260.914 L161.038 264.849 L141.131 264.849 L141.131 260.914 Z" fill="#000000" fill-rule="evenodd" fill-opacity="1" /><path clip-path="url(#clip870)" d="M180.482 233.368 Q176.871 233.368 175.043 236.932 Q173.237 240.474 173.237 247.604 Q173.237 254.71 175.043 258.275 Q176.871 261.816 180.482 261.816 Q184.117 261.816 185.922 258.275 Q187.751 254.71 187.751 247.604 Q187.751 240.474 185.922 236.932 Q184.117 233.368 180.482 233.368 M180.482 229.664 Q186.292 229.664 189.348 234.27 Q192.427 238.854 192.427 247.604 Q192.427 256.33 189.348 260.937 Q186.292 265.52 180.482 265.52 Q174.672 265.52 171.593 260.937 Q168.538 256.33 168.538 247.604 Q168.538 238.854 171.593 234.27 Q174.672 229.664 180.482 229.664 Z" fill="#000000" fill-rule="evenodd" fill-opacity="1" /><path clip-path="url(#clip870)" d="M192.427 223.765 L216.538 223.765 L216.538 226.963 L192.427 226.963 L192.427 223.765 Z" fill="#000000" fill-rule="evenodd" fill-opacity="1" /><path clip-path="url(#clip870)" d="M228.011 234.241 L241.27 234.241 L241.27 237.438 L223.441 237.438 L223.441 234.241 Q225.604 232.003 229.328 228.241 Q233.07 224.461 234.029 223.37 Q235.854 221.32 236.569 219.91 Q237.302 218.48 237.302 217.107 Q237.302 214.869 235.722 213.459 Q234.161 212.048 231.641 212.048 Q229.854 212.048 227.861 212.669 Q225.886 213.289 223.629 214.549 L223.629 210.713 Q225.923 209.791 227.917 209.321 Q229.911 208.851 231.566 208.851 Q235.929 208.851 238.525 211.032 Q241.12 213.214 241.12 216.863 Q241.12 218.593 240.462 220.154 Q239.822 221.696 238.111 223.803 Q237.641 224.348 235.12 226.963 Q232.6 229.558 228.011 234.241 Z" fill="#000000" fill-rule="evenodd" fill-opacity="1" /><path clip-path="url(#clip870)" d="M139.438 449.219 L147.077 449.219 L147.077 422.854 L138.767 424.52 L138.767 420.261 L147.031 418.594 L151.706 418.594 L151.706 449.219 L159.345 449.219 L159.345 453.154 L139.438 453.154 L139.438 449.219 Z" fill="#000000" fill-rule="evenodd" fill-opacity="1" /><path clip-path="url(#clip870)" d="M178.79 421.673 Q175.179 421.673 173.35 425.238 Q171.544 428.779 171.544 435.909 Q171.544 443.015 173.35 446.58 Q175.179 450.122 178.79 450.122 Q182.424 450.122 184.229 446.58 Q186.058 443.015 186.058 435.909 Q186.058 428.779 184.229 425.238 Q182.424 421.673 178.79 421.673 M178.79 417.969 Q184.6 417.969 187.655 422.576 Q190.734 427.159 190.734 435.909 Q190.734 444.636 187.655 449.242 Q184.6 453.826 178.79 453.826 Q172.979 453.826 169.901 449.242 Q166.845 444.636 166.845 435.909 Q166.845 427.159 169.901 422.576 Q172.979 417.969 178.79 417.969 Z" fill="#000000" fill-rule="evenodd" fill-opacity="1" /><path clip-path="url(#clip870)" d="M190.734 412.071 L214.846 412.071 L214.846 415.268 L190.734 415.268 L190.734 412.071 Z" fill="#000000" fill-rule="evenodd" fill-opacity="1" /><path clip-path="url(#clip870)" d="M233.484 400.974 L223.892 415.964 L233.484 415.964 L233.484 400.974 M232.487 397.664 L237.264 397.664 L237.264 415.964 L241.27 415.964 L241.27 419.124 L237.264 419.124 L237.264 425.744 L233.484 425.744 L233.484 419.124 L220.808 419.124 L220.808 415.456 L232.487 397.664 Z" fill="#000000" fill-rule="evenodd" fill-opacity="1" /><path clip-path="url(#clip870)" d="M139.701 637.525 L147.34 637.525 L147.34 611.159 L139.03 612.826 L139.03 608.566 L147.294 606.9 L151.97 606.9 L151.97 637.525 L159.609 637.525 L159.609 641.46 L139.701 641.46 L139.701 637.525 Z" fill="#000000" fill-rule="evenodd" fill-opacity="1" /><path clip-path="url(#clip870)" d="M179.053 609.978 Q175.442 609.978 173.613 613.543 Q171.808 617.085 171.808 624.215 Q171.808 631.321 173.613 634.886 Q175.442 638.427 179.053 638.427 Q182.687 638.427 184.493 634.886 Q186.321 631.321 186.321 624.215 Q186.321 617.085 184.493 613.543 Q182.687 609.978 179.053 609.978 M179.053 606.275 Q184.863 606.275 187.919 610.881 Q190.997 615.465 190.997 624.215 Q190.997 632.941 187.919 637.548 Q184.863 642.131 179.053 642.131 Q173.243 642.131 170.164 637.548 Q167.109 632.941 167.109 624.215 Q167.109 615.465 170.164 610.881 Q173.243 606.275 179.053 606.275 Z" fill="#000000" fill-rule="evenodd" fill-opacity="1" /><path clip-path="url(#clip870)" d="M190.997 600.376 L215.109 600.376 L215.109 603.573 L190.997 603.573 L190.997 600.376 Z" fill="#000000" fill-rule="evenodd" fill-opacity="1" /><path clip-path="url(#clip870)" d="M231.904 598.495 Q229.346 598.495 227.842 600.244 Q226.356 601.994 226.356 605.04 Q226.356 608.069 227.842 609.836 Q229.346 611.586 231.904 611.586 Q234.462 611.586 235.948 609.836 Q237.452 608.069 237.452 605.04 Q237.452 601.994 235.948 600.244 Q234.462 598.495 231.904 598.495 M239.446 586.59 L239.446 590.051 Q238.017 589.374 236.55 589.016 Q235.102 588.659 233.672 588.659 Q229.911 588.659 227.917 591.198 Q225.942 593.737 225.66 598.872 Q226.77 597.235 228.444 596.37 Q230.117 595.486 232.13 595.486 Q236.362 595.486 238.807 598.063 Q241.27 600.621 241.27 605.04 Q241.27 609.366 238.713 611.981 Q236.155 614.595 231.904 614.595 Q227.033 614.595 224.456 610.871 Q221.88 607.128 221.88 600.038 Q221.88 593.38 225.039 589.43 Q228.199 585.462 233.522 585.462 Q234.951 585.462 236.399 585.744 Q237.866 586.026 239.446 586.59 Z" fill="#000000" fill-rule="evenodd" fill-opacity="1" /><path clip-path="url(#clip870)" d="M139.908 825.83 L147.547 825.83 L147.547 799.464 L139.237 801.131 L139.237 796.872 L147.501 795.205 L152.177 795.205 L152.177 825.83 L159.815 825.83 L159.815 829.765 L139.908 829.765 L139.908 825.83 Z" fill="#000000" fill-rule="evenodd" fill-opacity="1" /><path clip-path="url(#clip870)" d="M179.26 798.284 Q175.649 798.284 173.82 801.849 Q172.014 805.39 172.014 812.52 Q172.014 819.626 173.82 823.191 Q175.649 826.733 179.26 826.733 Q182.894 826.733 184.7 823.191 Q186.528 819.626 186.528 812.52 Q186.528 805.39 184.7 801.849 Q182.894 798.284 179.26 798.284 M179.26 794.58 Q185.07 794.58 188.126 799.187 Q191.204 803.77 191.204 812.52 Q191.204 821.247 188.126 825.853 Q185.07 830.437 179.26 830.437 Q173.45 830.437 170.371 825.853 Q167.315 821.247 167.315 812.52 Q167.315 803.77 170.371 799.187 Q173.45 794.58 179.26 794.58 Z" fill="#000000" fill-rule="evenodd" fill-opacity="1" /><path clip-path="url(#clip870)" d="M191.204 788.682 L215.316 788.682 L215.316 791.879 L191.204 791.879 L191.204 788.682 Z" fill="#000000" fill-rule="evenodd" fill-opacity="1" /><path clip-path="url(#clip870)" d="M231.641 789.02 Q228.933 789.02 227.372 790.468 Q225.829 791.917 225.829 794.456 Q225.829 796.995 227.372 798.443 Q228.933 799.891 231.641 799.891 Q234.349 799.891 235.91 798.443 Q237.471 796.976 237.471 794.456 Q237.471 791.917 235.91 790.468 Q234.368 789.02 231.641 789.02 M227.842 787.403 Q225.397 786.801 224.024 785.127 Q222.67 783.453 222.67 781.046 Q222.67 777.679 225.058 775.723 Q227.466 773.767 231.641 773.767 Q235.835 773.767 238.224 775.723 Q240.612 777.679 240.612 781.046 Q240.612 783.453 239.239 785.127 Q237.885 786.801 235.459 787.403 Q238.205 788.042 239.728 789.904 Q241.27 791.766 241.27 794.456 Q241.27 798.537 238.769 800.719 Q236.286 802.9 231.641 802.9 Q226.995 802.9 224.494 800.719 Q222.011 798.537 222.011 794.456 Q222.011 791.766 223.554 789.904 Q225.096 788.042 227.842 787.403 M226.45 781.403 Q226.45 783.585 227.804 784.807 Q229.177 786.03 231.641 786.03 Q234.086 786.03 235.459 784.807 Q236.851 783.585 236.851 781.403 Q236.851 779.221 235.459 777.999 Q234.086 776.776 231.641 776.776 Q229.177 776.776 227.804 777.999 Q226.45 779.221 226.45 781.403 Z" fill="#000000" fill-rule="evenodd" fill-opacity="1" /><path clip-path="url(#clip870)" d="M115.326 1014.14 L122.965 1014.14 L122.965 987.77 L114.655 989.437 L114.655 985.177 L122.919 983.511 L127.595 983.511 L127.595 1014.14 L135.234 1014.14 L135.234 1018.07 L115.326 1018.07 L115.326 1014.14 Z" fill="#000000" fill-rule="evenodd" fill-opacity="1" /><path clip-path="url(#clip870)" d="M154.678 986.589 Q151.067 986.589 149.238 990.154 Q147.433 993.696 147.433 1000.83 Q147.433 1007.93 149.238 1011.5 Q151.067 1015.04 154.678 1015.04 Q158.312 1015.04 160.118 1011.5 Q161.947 1007.93 161.947 1000.83 Q161.947 993.696 160.118 990.154 Q158.312 986.589 154.678 986.589 M154.678 982.886 Q160.488 982.886 163.544 987.492 Q166.622 992.076 166.622 1000.83 Q166.622 1009.55 163.544 1014.16 Q160.488 1018.74 154.678 1018.74 Q148.868 1018.74 145.789 1014.16 Q142.734 1009.55 142.734 1000.83 Q142.734 992.076 145.789 987.492 Q148.868 982.886 154.678 982.886 Z" fill="#000000" fill-rule="evenodd" fill-opacity="1" /><path clip-path="url(#clip870)" d="M166.622 976.987 L190.734 976.987 L190.734 980.184 L166.622 980.184 L166.622 976.987 Z" fill="#000000" fill-rule="evenodd" fill-opacity="1" /><path clip-path="url(#clip870)" d="M199.592 987.463 L205.799 987.463 L205.799 966.041 L199.047 967.395 L199.047 963.934 L205.761 962.58 L209.561 962.58 L209.561 987.463 L215.767 987.463 L215.767 990.66 L199.592 990.66 L199.592 987.463 Z" fill="#000000" fill-rule="evenodd" fill-opacity="1" /><path clip-path="url(#clip870)" d="M231.566 965.082 Q228.632 965.082 227.146 967.978 Q225.679 970.856 225.679 976.649 Q225.679 982.423 227.146 985.319 Q228.632 988.197 231.566 988.197 Q234.518 988.197 235.985 985.319 Q237.471 982.423 237.471 976.649 Q237.471 970.856 235.985 967.978 Q234.518 965.082 231.566 965.082 M231.566 962.073 Q236.286 962.073 238.769 965.815 Q241.27 969.539 241.27 976.649 Q241.27 983.739 238.769 987.482 Q236.286 991.206 231.566 991.206 Q226.845 991.206 224.343 987.482 Q221.861 983.739 221.861 976.649 Q221.861 969.539 224.343 965.815 Q226.845 962.073 231.566 962.073 Z" fill="#000000" fill-rule="evenodd" fill-opacity="1" /><path clip-path="url(#clip870)" d="M116.624 1202.44 L124.263 1202.44 L124.263 1176.08 L115.953 1177.74 L115.953 1173.48 L124.217 1171.82 L128.893 1171.82 L128.893 1202.44 L136.531 1202.44 L136.531 1206.38 L116.624 1206.38 L116.624 1202.44 Z" fill="#000000" fill-rule="evenodd" fill-opacity="1" /><path clip-path="url(#clip870)" d="M155.976 1174.89 Q152.365 1174.89 150.536 1178.46 Q148.73 1182 148.73 1189.13 Q148.73 1196.24 150.536 1199.8 Q152.365 1203.34 155.976 1203.34 Q159.61 1203.34 161.416 1199.8 Q163.244 1196.24 163.244 1189.13 Q163.244 1182 161.416 1178.46 Q159.61 1174.89 155.976 1174.89 M155.976 1171.19 Q161.786 1171.19 164.841 1175.8 Q167.92 1180.38 167.92 1189.13 Q167.92 1197.86 164.841 1202.46 Q161.786 1207.05 155.976 1207.05 Q150.166 1207.05 147.087 1202.46 Q144.031 1197.86 144.031 1189.13 Q144.031 1180.38 147.087 1175.8 Q150.166 1171.19 155.976 1171.19 Z" fill="#000000" fill-rule="evenodd" fill-opacity="1" /><path clip-path="url(#clip870)" d="M167.92 1165.29 L192.032 1165.29 L192.032 1168.49 L167.92 1168.49 L167.92 1165.29 Z" fill="#000000" fill-rule="evenodd" fill-opacity="1" /><path clip-path="url(#clip870)" d="M200.89 1175.77 L207.097 1175.77 L207.097 1154.35 L200.345 1155.7 L200.345 1152.24 L207.059 1150.89 L210.858 1150.89 L210.858 1175.77 L217.065 1175.77 L217.065 1178.97 L200.89 1178.97 L200.89 1175.77 Z" fill="#000000" fill-rule="evenodd" fill-opacity="1" /><path clip-path="url(#clip870)" d="M228.011 1175.77 L241.27 1175.77 L241.27 1178.97 L223.441 1178.97 L223.441 1175.77 Q225.604 1173.53 229.328 1169.77 Q233.07 1165.99 234.029 1164.9 Q235.854 1162.85 236.569 1161.44 Q237.302 1160.01 237.302 1158.63 Q237.302 1156.4 235.722 1154.99 Q234.161 1153.58 231.641 1153.58 Q229.854 1153.58 227.861 1154.2 Q225.886 1154.82 223.629 1156.08 L223.629 1152.24 Q225.923 1151.32 227.917 1150.85 Q229.911 1150.38 231.566 1150.38 Q235.929 1150.38 238.525 1152.56 Q241.12 1154.74 241.12 1158.39 Q241.12 1160.12 240.462 1161.68 Q239.822 1163.22 238.111 1165.33 Q237.641 1165.88 235.12 1168.49 Q232.6 1171.09 228.011 1175.77 Z" fill="#000000" fill-rule="evenodd" fill-opacity="1" /><path clip-path="url(#clip870)" d="M114.931 1390.75 L122.57 1390.75 L122.57 1364.38 L114.26 1366.05 L114.26 1361.79 L122.524 1360.12 L127.2 1360.12 L127.2 1390.75 L134.839 1390.75 L134.839 1394.68 L114.931 1394.68 L114.931 1390.75 Z" fill="#000000" fill-rule="evenodd" fill-opacity="1" /><path clip-path="url(#clip870)" d="M154.283 1363.2 Q150.672 1363.2 148.843 1366.77 Q147.038 1370.31 147.038 1377.44 Q147.038 1384.54 148.843 1388.11 Q150.672 1391.65 154.283 1391.65 Q157.917 1391.65 159.723 1388.11 Q161.552 1384.54 161.552 1377.44 Q161.552 1370.31 159.723 1366.77 Q157.917 1363.2 154.283 1363.2 M154.283 1359.5 Q160.093 1359.5 163.149 1364.1 Q166.227 1368.69 166.227 1377.44 Q166.227 1386.16 163.149 1390.77 Q160.093 1395.35 154.283 1395.35 Q148.473 1395.35 145.394 1390.77 Q142.339 1386.16 142.339 1377.44 Q142.339 1368.69 145.394 1364.1 Q148.473 1359.5 154.283 1359.5 Z" fill="#000000" fill-rule="evenodd" fill-opacity="1" /><path clip-path="url(#clip870)" d="M166.227 1353.6 L190.339 1353.6 L190.339 1356.8 L166.227 1356.8 L166.227 1353.6 Z" fill="#000000" fill-rule="evenodd" fill-opacity="1" /><path clip-path="url(#clip870)" d="M199.197 1364.07 L205.404 1364.07 L205.404 1342.65 L198.652 1344.01 L198.652 1340.55 L205.366 1339.19 L209.166 1339.19 L209.166 1364.07 L215.372 1364.07 L215.372 1367.27 L199.197 1367.27 L199.197 1364.07 Z" fill="#000000" fill-rule="evenodd" fill-opacity="1" /><path clip-path="url(#clip870)" d="M233.484 1342.5 L223.892 1357.49 L233.484 1357.49 L233.484 1342.5 M232.487 1339.19 L237.264 1339.19 L237.264 1357.49 L241.27 1357.49 L241.27 1360.65 L237.264 1360.65 L237.264 1367.27 L233.484 1367.27 L233.484 1360.65 L220.808 1360.65 L220.808 1356.98 L232.487 1339.19 Z" fill="#000000" fill-rule="evenodd" fill-opacity="1" /><path clip-path="url(#clip870)" d="M28.3562 992.273 L28.3562 986.385 L42.9018 986.385 L42.9018 967.384 L28.3562 967.384 L28.3562 961.495 L64.0042 961.495 L64.0042 967.384 L47.5806 967.384 L47.5806 986.385 L64.0042 986.385 L64.0042 992.273 L28.3562 992.273 Z" fill="#000000" fill-rule="evenodd" fill-opacity="1" /><path clip-path="url(#clip870)" d="M32.4621 935.619 Q32.4621 940.329 36.1542 943.067 Q39.8145 945.804 46.212 945.804 Q52.6095 945.804 56.3017 943.098 Q59.9619 940.361 59.9619 935.619 Q59.9619 930.94 56.2698 928.203 Q52.5777 925.465 46.212 925.465 Q39.8781 925.465 36.186 928.203 Q32.4621 930.94 32.4621 935.619 M27.4968 935.619 Q27.4968 927.98 32.4621 923.619 Q37.4273 919.259 46.212 919.259 Q54.9649 919.259 59.9619 923.619 Q64.9272 927.98 64.9272 935.619 Q64.9272 943.289 59.9619 947.65 Q54.9649 951.979 46.212 951.979 Q37.4273 951.979 32.4621 947.65 Q27.4968 943.289 27.4968 935.619 Z" fill="#000000" fill-rule="evenodd" fill-opacity="1" /><path clip-path="url(#clip870)" d="M58.657 903.886 L77.5631 903.886 L77.5631 909.774 L28.3562 909.774 L28.3562 903.886 L33.7671 903.886 Q30.5842 902.04 29.0564 899.239 Q27.4968 896.406 27.4968 892.491 Q27.4968 885.998 32.6531 881.956 Q37.8093 877.882 46.212 877.882 Q54.6147 877.882 59.771 881.956 Q64.9272 885.998 64.9272 892.491 Q64.9272 896.406 63.3994 899.239 Q61.8398 902.04 58.657 903.886 M46.212 883.961 Q39.7508 883.961 36.0905 886.635 Q32.3984 889.276 32.3984 893.923 Q32.3984 898.57 36.0905 901.244 Q39.7508 903.886 46.212 903.886 Q52.6732 903.886 56.3653 901.244 Q60.0256 898.57 60.0256 893.923 Q60.0256 889.276 56.3653 886.635 Q52.6732 883.961 46.212 883.961 Z" fill="#000000" fill-rule="evenodd" fill-opacity="1" /><path clip-path="url(#clip870)" d="M28.3562 868.397 L28.3562 859.835 L52.2276 849.713 L28.3562 839.56 L28.3562 831.062 L64.0042 831.062 L64.0042 836.95 L33.958 836.95 L57.161 846.785 L57.161 852.642 L33.958 862.509 L64.0042 862.509 L64.0042 868.397 L28.3562 868.397 Z" fill="#000000" fill-rule="evenodd" fill-opacity="1" /><path clip-path="url(#clip870)" d="M46.0847 802.798 Q46.0847 809.896 47.7079 812.633 Q49.3312 815.37 53.2461 815.37 Q56.3653 815.37 58.2114 813.333 Q60.0256 811.265 60.0256 807.732 Q60.0256 802.862 56.5881 799.934 Q53.1188 796.974 47.3897 796.974 L46.0847 796.974 L46.0847 802.798 M43.6657 791.117 L64.0042 791.117 L64.0042 796.974 L58.5933 796.974 Q61.8398 798.979 63.3994 801.971 Q64.9272 804.963 64.9272 809.291 Q64.9272 814.766 61.8716 818.012 Q58.7843 821.227 53.6281 821.227 Q47.6125 821.227 44.5569 817.217 Q41.5014 813.174 41.5014 805.185 L41.5014 796.974 L40.9285 796.974 Q36.8862 796.974 34.6901 799.647 Q32.4621 802.289 32.4621 807.095 Q32.4621 810.151 33.1941 813.047 Q33.9262 815.943 35.3903 818.617 L29.9795 818.617 Q28.7381 815.402 28.1334 812.379 Q27.4968 809.355 27.4968 806.49 Q27.4968 798.756 31.5072 794.937 Q35.5176 791.117 43.6657 791.117 Z" fill="#000000" fill-rule="evenodd" fill-opacity="1" /><path clip-path="url(#clip870)" d="M28.3562 758.557 L28.3562 752.668 L42.9018 752.668 L42.9018 733.667 L28.3562 733.667 L28.3562 727.778 L64.0042 727.778 L64.0042 733.667 L47.5806 733.667 L47.5806 752.668 L64.0042 752.668 L64.0042 758.557 L28.3562 758.557 Z" fill="#000000" fill-rule="evenodd" fill-opacity="1" /><path clip-path="url(#clip870)" d="M44.7161 685.224 L47.5806 685.224 L47.5806 712.151 Q53.6281 711.769 56.8109 708.522 Q59.9619 705.244 59.9619 699.419 Q59.9619 696.045 59.1344 692.894 Q58.3069 689.711 56.6518 686.592 L62.1899 686.592 Q63.5267 689.743 64.227 693.053 Q64.9272 696.364 64.9272 699.769 Q64.9272 708.299 59.9619 713.296 Q54.9967 718.262 46.5303 718.262 Q37.7774 718.262 32.6531 713.551 Q27.4968 708.809 27.4968 700.788 Q27.4968 693.595 32.1438 689.425 Q36.7589 685.224 44.7161 685.224 M42.9973 691.08 Q38.1912 691.144 35.3266 693.785 Q32.4621 696.395 32.4621 700.724 Q32.4621 705.626 35.2312 708.586 Q38.0002 711.514 43.0292 711.96 L42.9973 691.08 Z" fill="#000000" fill-rule="evenodd" fill-opacity="1" /><path clip-path="url(#clip870)" d="M47.5806 669.978 L59.3254 669.978 L59.3254 661.639 Q59.3254 657.628 57.8294 655.528 Q56.3017 653.427 53.4371 653.427 Q50.5725 653.427 49.0766 655.528 Q47.5806 657.628 47.5806 661.639 L47.5806 669.978 M33.035 669.978 L42.9018 669.978 L42.9018 662.275 Q42.9018 658.965 41.5969 656.864 Q40.2601 654.764 37.9048 654.764 Q35.5494 654.764 34.3081 656.864 Q33.035 658.965 33.035 662.275 L33.035 669.978 M28.3562 675.834 L28.3562 661.893 Q28.3562 655.623 30.6479 652.249 Q32.9395 648.875 37.1727 648.875 Q40.451 648.875 42.3926 650.594 Q44.3023 652.313 44.7797 655.687 Q45.5436 651.645 47.9626 649.417 Q50.3815 647.189 54.01 647.189 Q58.7843 647.189 61.3942 650.881 Q64.0042 654.541 64.0042 661.352 L64.0042 675.834 L28.3562 675.834 Z" fill="#000000" fill-rule="evenodd" fill-opacity="1" /><path clip-path="url(#clip870)" d="M38.6368 631.306 Q41.2786 631.306 42.7745 629.269 Q44.2705 627.232 44.2705 623.444 L44.2705 615.551 L33.035 615.551 L33.035 623.444 Q33.035 627.232 34.4991 629.269 Q35.9632 631.306 38.6368 631.306 M64.0042 639.645 L48.3763 628.76 Q47.5488 632.452 45.3845 634.903 Q43.1883 637.354 38.6368 637.354 Q33.4806 637.354 30.9343 633.948 Q28.3562 630.51 28.3562 623.604 L28.3562 609.663 L64.0042 609.663 L64.0042 615.551 L48.9493 615.551 L48.9493 622.84 L64.0042 633.343 L64.0042 639.645 Z" fill="#000000" fill-rule="evenodd" fill-opacity="1" /><path clip-path="url(#clip870)" d="M44.7797 581.654 Q45.5436 577.707 47.8671 575.511 Q50.1906 573.314 53.6281 573.314 Q59.1344 573.314 62.0308 577.42 Q64.9272 581.526 64.9272 589.101 Q64.9272 591.648 64.4816 594.353 Q64.036 597.027 63.1448 599.891 L57.7021 599.891 Q58.8798 597.631 59.4845 594.926 Q60.0574 592.221 60.0574 589.261 Q60.0574 584.454 58.275 581.781 Q56.4926 579.075 53.6281 579.075 Q50.8271 579.075 49.1402 581.463 Q47.4215 583.85 47.4215 588.21 L47.4215 592.921 L42.5836 592.921 L42.5836 587.987 Q42.5836 584.295 41.1831 582.163 Q39.7508 579.998 37.5228 579.998 Q35.4858 579.998 34.0217 582.226 Q32.5576 584.423 32.5576 588.21 Q32.5576 590.47 32.9713 593.048 Q33.3851 595.594 34.3081 598.682 L28.9928 598.682 Q28.2289 595.563 27.8469 592.857 Q27.465 590.152 27.465 587.733 Q27.465 581.494 29.9795 577.898 Q32.4621 574.269 36.9499 574.269 Q39.91 574.269 41.9788 576.179 Q44.0158 578.089 44.7797 581.654 Z" fill="#000000" fill-rule="evenodd" fill-opacity="1" /><path clip-path="url(#clip870)" d="M28.3562 563.543 L28.3562 557.719 L45.098 557.719 L28.3562 541.2 L28.3562 534.006 L42.138 547.629 L64.0042 532.256 L64.0042 538.812 L46.021 551.448 L52.3867 557.719 L64.0042 557.719 L64.0042 563.543 L28.3562 563.543 Z" fill="#000000" fill-rule="evenodd" fill-opacity="1" /><path clip-path="url(#clip870)" d="M28.3562 493.648 L64.0042 493.648 L64.0042 499.472 L35.3903 499.472 L64.0042 516.66 L64.0042 524.171 L28.3562 524.171 L28.3562 518.347 L56.9064 518.347 L28.3562 501.191 L28.3562 493.648 Z" fill="#000000" fill-rule="evenodd" fill-opacity="1" /><polyline clip-path="url(#clip873)" style="stroke:#ff0000; stroke-linecap:butt; stroke-linejoin:round; stroke-width:4; stroke-opacity:1; fill:none" points="
  336.011,86.6243 624.702,127.339 843.088,156.648 1131.78,194.675 1350.17,223.201 1568.55,251.636 2075.63,317.518 2294.02,345.87 
  "/>
<path clip-path="url(#clip873)" d="M336.011 102.624 L324.699 97.9363 L320.011 86.6243 L324.699 75.3123 L336.011 70.6243 L347.323 75.3123 L352.011 86.6243 L347.323 97.9363 Z" fill="#ff0000" fill-rule="evenodd" fill-opacity="1" stroke="#000000" stroke-opacity="1" stroke-width="3.2"/>
<path clip-path="url(#clip873)" d="M624.702 143.339 L613.39 138.651 L608.702 127.339 L613.39 116.027 L624.702 111.339 L636.014 116.027 L640.702 127.339 L636.014 138.651 Z" fill="#ff0000" fill-rule="evenodd" fill-opacity="1" stroke="#000000" stroke-opacity="1" stroke-width="3.2"/>
<path clip-path="url(#clip873)" d="M843.088 172.648 L831.776 167.96 L827.088 156.648 L831.776 145.336 L843.088 140.648 L854.4 145.336 L859.088 156.648 L854.4 167.96 Z" fill="#ff0000" fill-rule="evenodd" fill-opacity="1" stroke="#000000" stroke-opacity="1" stroke-width="3.2"/>
<path clip-path="url(#clip873)" d="M1131.78 210.675 L1120.47 205.987 L1115.78 194.675 L1120.47 183.363 L1131.78 178.675 L1143.09 183.363 L1147.78 194.675 L1143.09 205.987 Z" fill="#ff0000" fill-rule="evenodd" fill-opacity="1" stroke="#000000" stroke-opacity="1" stroke-width="3.2"/>
<path clip-path="url(#clip873)" d="M1350.17 239.201 L1338.85 234.513 L1334.17 223.201 L1338.85 211.889 L1350.17 207.201 L1361.48 211.889 L1366.17 223.201 L1361.48 234.513 Z" fill="#ff0000" fill-rule="evenodd" fill-opacity="1" stroke="#000000" stroke-opacity="1" stroke-width="3.2"/>
<path clip-path="url(#clip873)" d="M1568.55 267.636 L1557.24 262.948 L1552.55 251.636 L1557.24 240.324 L1568.55 235.636 L1579.86 240.324 L1584.55 251.636 L1579.86 262.948 Z" fill="#ff0000" fill-rule="evenodd" fill-opacity="1" stroke="#000000" stroke-opacity="1" stroke-width="3.2"/>
<path clip-path="url(#clip873)" d="M2075.63 333.518 L2064.32 328.83 L2059.63 317.518 L2064.32 306.206 L2075.63 301.518 L2086.94 306.206 L2091.63 317.518 L2086.94 328.83 Z" fill="#ff0000" fill-rule="evenodd" fill-opacity="1" stroke="#000000" stroke-opacity="1" stroke-width="3.2"/>
<path clip-path="url(#clip873)" d="M2294.02 361.87 L2282.7 357.182 L2278.02 345.87 L2282.7 334.558 L2294.02 329.87 L2305.33 334.558 L2310.02 345.87 L2305.33 357.182 Z" fill="#ff0000" fill-rule="evenodd" fill-opacity="1" stroke="#000000" stroke-opacity="1" stroke-width="3.2"/>
<polyline clip-path="url(#clip873)" style="stroke:#ff0000; stroke-linecap:butt; stroke-linejoin:round; stroke-width:8; stroke-opacity:1; fill:none" stroke-dasharray="32, 20" points="
  336.011,203.654 624.702,241.121 843.088,269.464 1131.78,306.931 1350.17,335.274 1568.55,363.617 2075.63,429.427 2294.02,457.77 
  "/>
<polyline clip-path="url(#clip873)" style="stroke:#0000ff; stroke-linecap:butt; stroke-linejoin:round; stroke-width:4; stroke-opacity:1; fill:none" points="
  336.011,317.354 624.702,470.115 843.088,584.599 1131.78,735.176 1350.17,848.791 1568.55,962.285 2075.63,1225.43 2294.02,1339.16 
  "/>
<path clip-path="url(#clip873)" d="M336.011 333.354 L324.699 328.666 L320.011 317.354 L324.699 306.042 L336.011 301.354 L347.323 306.042 L352.011 317.354 L347.323 328.666 Z" fill="#0000ff" fill-rule="evenodd" fill-opacity="1" stroke="#000000" stroke-opacity="1" stroke-width="3.2"/>
<path clip-path="url(#clip873)" d="M624.702 486.115 L613.39 481.427 L608.702 470.115 L613.39 458.803 L624.702 454.115 L636.014 458.803 L640.702 470.115 L636.014 481.427 Z" fill="#0000ff" fill-rule="evenodd" fill-opacity="1" stroke="#000000" stroke-opacity="1" stroke-width="3.2"/>
<path clip-path="url(#clip873)" d="M843.088 600.599 L831.776 595.911 L827.088 584.599 L831.776 573.287 L843.088 568.599 L854.4 573.287 L859.088 584.599 L854.4 595.911 Z" fill="#0000ff" fill-rule="evenodd" fill-opacity="1" stroke="#000000" stroke-opacity="1" stroke-width="3.2"/>
<path clip-path="url(#clip873)" d="M1131.78 751.176 L1120.47 746.488 L1115.78 735.176 L1120.47 723.864 L1131.78 719.176 L1143.09 723.864 L1147.78 735.176 L1143.09 746.488 Z" fill="#0000ff" fill-rule="evenodd" fill-opacity="1" stroke="#000000" stroke-opacity="1" stroke-width="3.2"/>
<path clip-path="url(#clip873)" d="M1350.17 864.791 L1338.85 860.103 L1334.17 848.791 L1338.85 837.479 L1350.17 832.791 L1361.48 837.479 L1366.17 848.791 L1361.48 860.103 Z" fill="#0000ff" fill-rule="evenodd" fill-opacity="1" stroke="#000000" stroke-opacity="1" stroke-width="3.2"/>
<path clip-path="url(#clip873)" d="M1568.55 978.285 L1557.24 973.597 L1552.55 962.285 L1557.24 950.973 L1568.55 946.285 L1579.86 950.973 L1584.55 962.285 L1579.86 973.597 Z" fill="#0000ff" fill-rule="evenodd" fill-opacity="1" stroke="#000000" stroke-opacity="1" stroke-width="3.2"/>
<path clip-path="url(#clip873)" d="M2075.63 1241.43 L2064.32 1236.74 L2059.63 1225.43 L2064.32 1214.12 L2075.63 1209.43 L2086.94 1214.12 L2091.63 1225.43 L2086.94 1236.74 Z" fill="#0000ff" fill-rule="evenodd" fill-opacity="1" stroke="#000000" stroke-opacity="1" stroke-width="3.2"/>
<path clip-path="url(#clip873)" d="M2294.02 1355.16 L2282.7 1350.47 L2278.02 1339.16 L2282.7 1327.85 L2294.02 1323.16 L2305.33 1327.85 L2310.02 1339.16 L2305.33 1350.47 Z" fill="#0000ff" fill-rule="evenodd" fill-opacity="1" stroke="#000000" stroke-opacity="1" stroke-width="3.2"/>
<polyline clip-path="url(#clip873)" style="stroke:#0000ff; stroke-linecap:butt; stroke-linejoin:round; stroke-width:8; stroke-opacity:1; fill:none" stroke-dasharray="32, 20" points="
  336.011,382.835 624.702,532.704 843.088,646.075 1131.78,795.944 1350.17,909.315 1568.55,1022.69 2075.63,1285.93 2294.02,1399.3 
  "/>
<path clip-path="url(#clip870)" d="
M346.453 1392.3 L989.26 1392.3 L989.26 1133.1 L346.453 1133.1  Z
  " fill="#ffffff" fill-rule="evenodd" fill-opacity="1"/>
<polyline clip-path="url(#clip870)" style="stroke:#000000; stroke-linecap:butt; stroke-linejoin:round; stroke-width:4; stroke-opacity:1; fill:none" points="
  346.453,1392.3 989.26,1392.3 989.26,1133.1 346.453,1133.1 346.453,1392.3 
  "/>
<polyline clip-path="url(#clip870)" style="stroke:#ff0000; stroke-linecap:butt; stroke-linejoin:round; stroke-width:4; stroke-opacity:1; fill:none" points="
  369.514,1184.94 507.88,1184.94 
  "/>
<path clip-path="url(#clip870)" d="M438.697 1210.54 L420.598 1203.04 L413.097 1184.94 L420.598 1166.84 L438.697 1159.34 L456.796 1166.84 L464.297 1184.94 L456.796 1203.04 Z" fill="#ff0000" fill-rule="evenodd" fill-opacity="1" stroke="#000000" stroke-opacity="1" stroke-width="5.12"/>
<path clip-path="url(#clip870)" d="M537.006 1183.77 Q537.006 1185.69 538.487 1186.78 Q539.969 1187.86 542.723 1187.86 L548.464 1187.86 L548.464 1179.69 L542.723 1179.69 Q539.969 1179.69 538.487 1180.76 Q537.006 1181.82 537.006 1183.77 M530.941 1202.22 L538.858 1190.85 Q536.172 1190.25 534.39 1188.67 Q532.608 1187.08 532.608 1183.77 Q532.608 1180.02 535.084 1178.17 Q537.584 1176.29 542.608 1176.29 L552.746 1176.29 L552.746 1202.22 L548.464 1202.22 L548.464 1191.27 L543.163 1191.27 L535.524 1202.22 L530.941 1202.22 Z" fill="#000000" fill-rule="evenodd" fill-opacity="1" /><path clip-path="url(#clip870)" d="M565.339 1190.27 L565.339 1198.81 L571.404 1198.81 Q574.32 1198.81 575.848 1197.73 Q577.376 1196.61 577.376 1194.53 Q577.376 1192.45 575.848 1191.36 Q574.32 1190.27 571.404 1190.27 L565.339 1190.27 M565.339 1179.69 L565.339 1186.87 L570.941 1186.87 Q573.348 1186.87 574.876 1185.92 Q576.404 1184.95 576.404 1183.23 Q576.404 1181.52 574.876 1180.62 Q573.348 1179.69 570.941 1179.69 L565.339 1179.69 M561.08 1176.29 L571.218 1176.29 Q575.779 1176.29 578.232 1177.96 Q580.686 1179.62 580.686 1182.7 Q580.686 1185.09 579.436 1186.5 Q578.186 1187.89 575.732 1188.23 Q578.672 1188.79 580.293 1190.55 Q581.913 1192.31 581.913 1194.95 Q581.913 1198.42 579.228 1200.32 Q576.566 1202.22 571.612 1202.22 L561.08 1202.22 L561.08 1176.29 Z" fill="#000000" fill-rule="evenodd" fill-opacity="1" /><path clip-path="url(#clip870)" d="M589.019 1176.29 L593.302 1176.29 L593.302 1186.87 L607.121 1186.87 L607.121 1176.29 L611.403 1176.29 L611.403 1202.22 L607.121 1202.22 L607.121 1190.27 L593.302 1190.27 L593.302 1202.22 L589.019 1202.22 L589.019 1176.29 Z" fill="#000000" fill-rule="evenodd" fill-opacity="1" /><path clip-path="url(#clip870)" d="M644.667 1176.29 L648.926 1176.29 L648.926 1202.22 L644.667 1202.22 L644.667 1176.29 M646.797 1175.67 L646.797 1175.67 M636.311 1194.53 Q636.311 1192.45 634.783 1191.36 Q633.278 1190.27 630.362 1190.27 L624.297 1190.27 L624.297 1198.81 L630.362 1198.81 Q633.278 1198.81 634.783 1197.73 Q636.311 1196.61 636.311 1194.53 M620.015 1176.29 L624.297 1176.29 L624.297 1186.87 L630.547 1186.87 Q635.501 1186.87 638.163 1188.77 Q640.848 1190.64 640.848 1194.53 Q640.848 1198.42 638.163 1200.32 Q635.501 1202.22 630.547 1202.22 L620.015 1202.22 L620.015 1176.29 Z" fill="#000000" fill-rule="evenodd" fill-opacity="1" /><path clip-path="url(#clip870)" d="M679.644 1176.29 L679.644 1202.22 L675.408 1202.22 L675.408 1181.41 L662.908 1202.22 L657.445 1202.22 L657.445 1176.29 L661.681 1176.29 L661.681 1197.05 L674.158 1176.29 L679.644 1176.29 M661.311 1166.2 L664.042 1166.2 Q664.297 1167.93 665.408 1168.81 Q666.542 1169.67 668.556 1169.67 Q670.547 1169.67 671.658 1168.81 Q672.769 1167.96 673.07 1166.2 L675.801 1166.2 Q675.57 1169.51 673.741 1171.17 Q671.912 1172.84 668.556 1172.84 Q665.199 1172.84 663.371 1171.17 Q661.542 1169.51 661.311 1166.2 Z" fill="#000000" fill-rule="evenodd" fill-opacity="1" /><path clip-path="url(#clip870)" d="M703.324 1176.29 L709.551 1176.29 L716.912 1193.65 L724.296 1176.29 L730.477 1176.29 L730.477 1202.22 L726.194 1202.22 L726.194 1180.36 L719.042 1197.24 L714.783 1197.24 L707.607 1180.36 L707.607 1202.22 L703.324 1202.22 L703.324 1176.29 Z" fill="#000000" fill-rule="evenodd" fill-opacity="1" /><path clip-path="url(#clip870)" d="M739.852 1196.34 L744.736 1196.34 L744.736 1202.22 L739.852 1202.22 L739.852 1196.34 Z" fill="#000000" fill-rule="evenodd" fill-opacity="1" /><path clip-path="url(#clip870)" d="M767.491 1194.67 Q772.375 1199.04 778.301 1199.04 Q784.412 1199.04 787.166 1195.76 Q789.921 1192.47 790.43 1186.94 L771.958 1186.94 L771.958 1183 L790.43 1183 Q789.921 1177.47 787.166 1174.18 Q784.412 1170.87 778.301 1170.87 Q772.375 1170.87 767.491 1175.25 L767.491 1170.32 Q772.305 1167.03 778.578 1167.03 Q786.333 1167.03 790.847 1171.85 Q795.361 1176.64 795.361 1184.95 Q795.361 1193.28 790.847 1198.1 Q786.333 1202.89 778.578 1202.89 Q772.398 1202.89 767.491 1199.55 L767.491 1194.67 Z" fill="#000000" fill-rule="evenodd" fill-opacity="1" /><path clip-path="url(#clip870)" d="M824.527 1176.29 L824.527 1202.22 L820.291 1202.22 L820.291 1181.41 L807.791 1202.22 L802.328 1202.22 L802.328 1176.29 L806.564 1176.29 L806.564 1197.05 L819.041 1176.29 L824.527 1176.29 M806.194 1166.2 L808.926 1166.2 Q809.18 1167.93 810.291 1168.81 Q811.426 1169.67 813.439 1169.67 Q815.43 1169.67 816.541 1168.81 Q817.652 1167.96 817.953 1166.2 L820.685 1166.2 Q820.453 1169.51 818.625 1171.17 Q816.796 1172.84 813.439 1172.84 Q810.083 1172.84 808.254 1171.17 Q806.426 1169.51 806.194 1166.2 Z" fill="#000000" fill-rule="evenodd" fill-opacity="1" /><path clip-path="url(#clip870)" d="M830.592 1202.22 L830.592 1198.67 Q834.805 1198.03 836.101 1195.11 Q837.675 1191.01 837.675 1180.53 L837.675 1176.29 L855.198 1176.29 L855.198 1202.22 L850.939 1202.22 L850.939 1179.69 L841.935 1179.69 L841.935 1182.26 Q841.935 1192.26 839.898 1196.75 Q837.722 1201.54 830.592 1202.22 Z" fill="#000000" fill-rule="evenodd" fill-opacity="1" /><path clip-path="url(#clip870)" d="M885.777 1188.19 L885.777 1190.27 L866.194 1190.27 Q866.472 1194.67 868.833 1196.98 Q871.217 1199.28 875.453 1199.28 Q877.907 1199.28 880.198 1198.67 Q882.513 1198.07 884.782 1196.87 L884.782 1200.9 Q882.49 1201.87 880.083 1202.38 Q877.675 1202.89 875.198 1202.89 Q868.995 1202.89 865.36 1199.28 Q861.749 1195.67 861.749 1189.51 Q861.749 1183.14 865.175 1179.42 Q868.624 1175.67 874.458 1175.67 Q879.689 1175.67 882.721 1179.04 Q885.777 1182.4 885.777 1188.19 M881.518 1186.94 Q881.471 1183.44 879.55 1181.36 Q877.652 1179.28 874.504 1179.28 Q870.939 1179.28 868.786 1181.29 Q866.657 1183.3 866.333 1186.96 L881.518 1186.94 Z" fill="#000000" fill-rule="evenodd" fill-opacity="1" /><path clip-path="url(#clip870)" d="M896.888 1198.33 L896.888 1212.08 L892.606 1212.08 L892.606 1176.29 L896.888 1176.29 L896.888 1180.23 Q898.231 1177.91 900.268 1176.8 Q902.328 1175.67 905.175 1175.67 Q909.897 1175.67 912.837 1179.42 Q915.8 1183.17 915.8 1189.28 Q915.8 1195.39 912.837 1199.14 Q909.897 1202.89 905.175 1202.89 Q902.328 1202.89 900.268 1201.78 Q898.231 1200.64 896.888 1198.33 M911.379 1189.28 Q911.379 1184.58 909.434 1181.92 Q907.513 1179.23 904.133 1179.23 Q900.754 1179.23 898.809 1181.92 Q896.888 1184.58 896.888 1189.28 Q896.888 1193.98 898.809 1196.66 Q900.754 1199.32 904.133 1199.32 Q907.513 1199.32 909.434 1196.66 Q911.379 1193.98 911.379 1189.28 Z" fill="#000000" fill-rule="evenodd" fill-opacity="1" /><path clip-path="url(#clip870)" d="M934.642 1189.18 Q929.48 1189.18 927.49 1190.36 Q925.499 1191.54 925.499 1194.39 Q925.499 1196.66 926.98 1198 Q928.485 1199.32 931.055 1199.32 Q934.596 1199.32 936.726 1196.82 Q938.879 1194.3 938.879 1190.13 L938.879 1189.18 L934.642 1189.18 M943.138 1187.42 L943.138 1202.22 L938.879 1202.22 L938.879 1198.28 Q937.42 1200.64 935.244 1201.78 Q933.068 1202.89 929.92 1202.89 Q925.939 1202.89 923.578 1200.67 Q921.24 1198.42 921.24 1194.67 Q921.24 1190.29 924.156 1188.07 Q927.096 1185.85 932.906 1185.85 L938.879 1185.85 L938.879 1185.43 Q938.879 1182.49 936.934 1180.9 Q935.013 1179.28 931.517 1179.28 Q929.295 1179.28 927.189 1179.81 Q925.082 1180.34 923.138 1181.41 L923.138 1177.47 Q925.476 1176.57 927.675 1176.13 Q929.874 1175.67 931.957 1175.67 Q937.582 1175.67 940.36 1178.58 Q943.138 1181.5 943.138 1187.42 Z" fill="#000000" fill-rule="evenodd" fill-opacity="1" /><polyline clip-path="url(#clip870)" style="stroke:#ff0000; stroke-linecap:butt; stroke-linejoin:round; stroke-width:4; stroke-opacity:1; fill:none" stroke-dasharray="16, 10" points="
  369.514,1236.78 507.88,1236.78 
  "/>
<path clip-path="url(#clip870)" d="M564.107 1228.17 Q564.107 1231.52 562.913 1234.84 Q561.741 1238.14 559.68 1240.86 Q557.619 1243.58 554.996 1245.69 Q552.372 1247.79 549.304 1248.97 Q546.236 1250.14 543.238 1250.14 Q537.921 1250.14 534.431 1246.65 Q530.941 1243.16 530.941 1237.32 Q530.941 1233.25 532.768 1229.2 Q534.595 1225.12 537.499 1222.1 Q540.404 1219.06 544.221 1217.16 Q548.063 1215.26 551.857 1215.26 Q557.244 1215.26 560.664 1218.84 Q564.107 1222.4 564.107 1228.17 M559.821 1226.29 Q559.821 1223.72 559.095 1221.77 Q558.369 1219.8 557.151 1218.68 Q555.956 1217.56 554.527 1217.02 Q553.122 1216.46 551.576 1216.46 Q548.578 1216.46 545.369 1218.4 Q542.16 1220.34 539.771 1223.95 Q538.483 1225.92 537.546 1228.28 Q536.609 1230.63 536.188 1232.71 Q535.766 1234.77 535.579 1236.22 Q535.415 1237.68 535.415 1238.68 Q535.415 1243.37 537.663 1246.13 Q539.912 1248.9 543.519 1248.9 Q546.353 1248.9 549.117 1247.23 Q551.881 1245.55 553.778 1243.13 Q555.464 1241.05 556.706 1238.54 Q557.97 1236.04 558.603 1233.74 Q559.235 1231.45 559.516 1229.6 Q559.821 1227.74 559.821 1226.29 Z" fill="#000000" fill-rule="evenodd" fill-opacity="1" /><path clip-path="url(#clip870)" d="M570.433 1237.09 Q570.433 1228.99 573.454 1222.45 Q574.743 1219.71 576.546 1217.42 Q578.35 1215.12 579.544 1214.11 Q580.739 1213.11 581.067 1213.11 Q581.535 1213.11 581.559 1213.57 Q581.559 1213.81 580.926 1214.39 Q573.197 1222.26 573.22 1237.09 Q573.22 1251.96 580.739 1259.53 Q581.559 1260.35 581.559 1260.61 Q581.559 1261.07 581.067 1261.07 Q580.739 1261.07 579.591 1260.11 Q578.443 1259.15 576.663 1256.95 Q574.883 1254.75 573.595 1252.06 Q570.433 1245.52 570.433 1237.09 Z" fill="#000000" fill-rule="evenodd" fill-opacity="1" /><path clip-path="url(#clip870)" d="M614.847 1242.22 Q614.847 1242.41 614.637 1243.13 Q614.426 1243.86 613.91 1244.98 Q613.419 1246.11 612.739 1247.14 Q612.06 1248.15 610.936 1248.9 Q609.835 1249.62 608.57 1249.62 Q606.884 1249.62 605.759 1248.5 Q604.635 1247.37 604.635 1245.69 Q604.635 1244.75 605.127 1243.46 Q608.242 1235.15 608.242 1232.29 Q608.242 1228.94 605.642 1228.94 Q604.354 1228.94 603.136 1229.43 Q601.942 1229.9 601.122 1230.56 Q600.302 1231.21 599.553 1232.12 Q598.826 1233.01 598.452 1233.62 Q598.1 1234.21 597.819 1234.79 L597.21 1237.18 Q597.07 1237.84 596.39 1240.39 L595.336 1244.73 Q594.587 1247.96 594.423 1248.26 Q594.189 1248.92 593.673 1249.27 Q593.158 1249.62 592.643 1249.62 Q592.057 1249.62 591.659 1249.27 Q591.261 1248.92 591.261 1248.31 Q591.261 1248.22 591.331 1247.86 Q591.402 1247.51 591.519 1247.02 Q591.636 1246.53 591.683 1246.25 L594.47 1235.17 Q594.985 1233.16 595.102 1232.52 Q595.243 1231.87 595.243 1231.14 Q595.243 1228.94 593.744 1228.94 Q592.526 1228.94 591.729 1230.39 Q590.933 1231.84 590.254 1234.65 Q590.043 1235.43 589.902 1235.59 Q589.785 1235.76 589.434 1235.76 Q588.848 1235.73 588.848 1235.26 Q588.848 1235.15 589.036 1234.37 Q589.223 1233.6 589.575 1232.5 Q589.949 1231.38 590.301 1230.63 Q590.605 1230.06 590.769 1229.81 Q590.956 1229.52 591.402 1228.99 Q591.87 1228.42 592.479 1228.17 Q593.111 1227.89 593.884 1227.89 Q595.618 1227.89 596.882 1229.01 Q598.147 1230.11 598.311 1232.05 Q601.426 1227.89 605.783 1227.89 Q608.359 1227.89 609.835 1229.24 Q611.311 1230.6 611.311 1233.01 Q611.311 1233.58 611.193 1234.3 Q611.1 1235.01 610.866 1235.9 Q610.655 1236.79 610.467 1237.47 Q610.28 1238.14 609.905 1239.25 Q609.53 1240.32 609.367 1240.79 Q609.203 1241.26 608.804 1242.36 Q608.43 1243.44 608.383 1243.55 Q607.516 1245.73 607.516 1246.97 Q607.516 1247.79 607.774 1248.17 Q608.055 1248.54 608.664 1248.54 Q610.303 1248.54 611.521 1246.93 Q612.763 1245.29 613.559 1242.62 Q613.747 1242.03 613.84 1241.89 Q613.957 1241.75 614.285 1241.75 Q614.847 1241.75 614.847 1242.22 Z" fill="#000000" fill-rule="evenodd" fill-opacity="1" /><path clip-path="url(#clip870)" d="M641.87 1225.87 Q642.067 1226.07 642.067 1226.35 Q642.067 1226.63 641.87 1226.82 Q641.673 1227.02 641.394 1227.02 L620.375 1227.02 Q620.096 1227.02 619.9 1226.82 Q619.703 1226.63 619.703 1226.35 Q619.703 1226.07 619.9 1225.87 Q620.096 1225.68 620.375 1225.68 L641.394 1225.68 Q641.673 1225.68 641.87 1225.87 Z" fill="#000000" fill-rule="evenodd" fill-opacity="1" /><path clip-path="url(#clip870)" d="M645.566 1215.58 L645.566 1214.53 Q649.599 1214.53 651.681 1212.38 Q652.255 1212.38 652.354 1212.51 Q652.452 1212.64 652.452 1213.25 L652.452 1232.09 Q652.452 1233.09 652.944 1233.4 Q653.436 1233.71 655.584 1233.71 L656.649 1233.71 L656.649 1234.74 Q655.469 1234.64 651.206 1234.64 Q646.943 1234.64 645.779 1234.74 L645.779 1233.71 L646.845 1233.71 Q648.96 1233.71 649.468 1233.41 Q649.976 1233.1 649.976 1232.09 L649.976 1214.69 Q648.222 1215.58 645.566 1215.58 Z" fill="#000000" fill-rule="evenodd" fill-opacity="1" /><path clip-path="url(#clip870)" d="M667.311 1260.61 Q667.311 1260.37 667.92 1259.79 Q675.649 1251.92 675.649 1237.09 Q675.649 1222.22 668.224 1214.7 Q667.311 1213.83 667.311 1213.57 Q667.311 1213.11 667.779 1213.11 Q668.107 1213.11 669.255 1214.07 Q670.426 1215.03 672.183 1217.23 Q673.963 1219.43 675.274 1222.12 Q678.436 1228.66 678.436 1237.09 Q678.436 1245.19 675.415 1251.73 Q674.127 1254.47 672.323 1256.77 Q670.52 1259.06 669.325 1260.07 Q668.131 1261.07 667.779 1261.07 Q667.311 1261.07 667.311 1260.61 Z" fill="#000000" fill-rule="evenodd" fill-opacity="1" /><polyline clip-path="url(#clip870)" style="stroke:#0000ff; stroke-linecap:butt; stroke-linejoin:round; stroke-width:4; stroke-opacity:1; fill:none" points="
  369.514,1288.62 507.88,1288.62 
  "/>
<path clip-path="url(#clip870)" d="M438.697 1314.22 L420.598 1306.72 L413.097 1288.62 L420.598 1270.52 L438.697 1263.02 L456.796 1270.52 L464.297 1288.62 L456.796 1306.72 Z" fill="#0000ff" fill-rule="evenodd" fill-opacity="1" stroke="#000000" stroke-opacity="1" stroke-width="5.12"/>
<path clip-path="url(#clip870)" d="M537.006 1287.45 Q537.006 1289.37 538.487 1290.46 Q539.969 1291.54 542.723 1291.54 L548.464 1291.54 L548.464 1283.37 L542.723 1283.37 Q539.969 1283.37 538.487 1284.44 Q537.006 1285.5 537.006 1287.45 M530.941 1305.9 L538.858 1294.53 Q536.172 1293.93 534.39 1292.35 Q532.608 1290.76 532.608 1287.45 Q532.608 1283.7 535.084 1281.85 Q537.584 1279.97 542.608 1279.97 L552.746 1279.97 L552.746 1305.9 L548.464 1305.9 L548.464 1294.95 L543.163 1294.95 L535.524 1305.9 L530.941 1305.9 Z" fill="#000000" fill-rule="evenodd" fill-opacity="1" /><path clip-path="url(#clip870)" d="M565.339 1293.95 L565.339 1302.49 L571.404 1302.49 Q574.32 1302.49 575.848 1301.41 Q577.376 1300.29 577.376 1298.21 Q577.376 1296.13 575.848 1295.04 Q574.32 1293.95 571.404 1293.95 L565.339 1293.95 M565.339 1283.37 L565.339 1290.55 L570.941 1290.55 Q573.348 1290.55 574.876 1289.6 Q576.404 1288.63 576.404 1286.91 Q576.404 1285.2 574.876 1284.3 Q573.348 1283.37 570.941 1283.37 L565.339 1283.37 M561.08 1279.97 L571.218 1279.97 Q575.779 1279.97 578.232 1281.64 Q580.686 1283.3 580.686 1286.38 Q580.686 1288.77 579.436 1290.18 Q578.186 1291.57 575.732 1291.91 Q578.672 1292.47 580.293 1294.23 Q581.913 1295.99 581.913 1298.63 Q581.913 1302.1 579.228 1304 Q576.566 1305.9 571.612 1305.9 L561.08 1305.9 L561.08 1279.97 Z" fill="#000000" fill-rule="evenodd" fill-opacity="1" /><path clip-path="url(#clip870)" d="M589.019 1279.97 L593.302 1279.97 L593.302 1290.55 L607.121 1290.55 L607.121 1279.97 L611.403 1279.97 L611.403 1305.9 L607.121 1305.9 L607.121 1293.95 L593.302 1293.95 L593.302 1305.9 L589.019 1305.9 L589.019 1279.97 Z" fill="#000000" fill-rule="evenodd" fill-opacity="1" /><path clip-path="url(#clip870)" d="M644.667 1279.97 L648.926 1279.97 L648.926 1305.9 L644.667 1305.9 L644.667 1279.97 M646.797 1279.35 L646.797 1279.35 M636.311 1298.21 Q636.311 1296.13 634.783 1295.04 Q633.278 1293.95 630.362 1293.95 L624.297 1293.95 L624.297 1302.49 L630.362 1302.49 Q633.278 1302.49 634.783 1301.41 Q636.311 1300.29 636.311 1298.21 M620.015 1279.97 L624.297 1279.97 L624.297 1290.55 L630.547 1290.55 Q635.501 1290.55 638.163 1292.45 Q640.848 1294.32 640.848 1298.21 Q640.848 1302.1 638.163 1304 Q635.501 1305.9 630.547 1305.9 L620.015 1305.9 L620.015 1279.97 Z" fill="#000000" fill-rule="evenodd" fill-opacity="1" /><path clip-path="url(#clip870)" d="M679.644 1279.97 L679.644 1305.9 L675.408 1305.9 L675.408 1285.09 L662.908 1305.9 L657.445 1305.9 L657.445 1279.97 L661.681 1279.97 L661.681 1300.73 L674.158 1279.97 L679.644 1279.97 M661.311 1269.88 L664.042 1269.88 Q664.297 1271.61 665.408 1272.49 Q666.542 1273.35 668.556 1273.35 Q670.547 1273.35 671.658 1272.49 Q672.769 1271.64 673.07 1269.88 L675.801 1269.88 Q675.57 1273.19 673.741 1274.85 Q671.912 1276.52 668.556 1276.52 Q665.199 1276.52 663.371 1274.85 Q661.542 1273.19 661.311 1269.88 Z" fill="#000000" fill-rule="evenodd" fill-opacity="1" /><path clip-path="url(#clip870)" d="M703.324 1279.97 L709.551 1279.97 L716.912 1297.33 L724.296 1279.97 L730.477 1279.97 L730.477 1305.9 L726.194 1305.9 L726.194 1284.04 L719.042 1300.92 L714.783 1300.92 L707.607 1284.04 L707.607 1305.9 L703.324 1305.9 L703.324 1279.97 Z" fill="#000000" fill-rule="evenodd" fill-opacity="1" /><path clip-path="url(#clip870)" d="M739.852 1300.02 L744.736 1300.02 L744.736 1305.9 L739.852 1305.9 L739.852 1300.02 Z" fill="#000000" fill-rule="evenodd" fill-opacity="1" /><path clip-path="url(#clip870)" d="M774.25 1275.18 L774.25 1288.16 L780.129 1288.16 Q783.393 1288.16 785.176 1286.47 Q786.958 1284.78 786.958 1281.66 Q786.958 1278.56 785.176 1276.87 Q783.393 1275.18 780.129 1275.18 L774.25 1275.18 M769.574 1271.34 L780.129 1271.34 Q785.94 1271.34 788.902 1273.97 Q791.889 1276.59 791.889 1281.66 Q791.889 1286.78 788.902 1289.39 Q785.94 1292.01 780.129 1292.01 L774.25 1292.01 L774.25 1305.9 L769.574 1305.9 L769.574 1271.34 Z" fill="#000000" fill-rule="evenodd" fill-opacity="1" /><path clip-path="url(#clip870)" d="M798.162 1271.34 L802.838 1271.34 L802.838 1288.42 L819.55 1271.34 L825.546 1271.34 L812.189 1284.99 L826.24 1305.9 L821.148 1305.9 L809.157 1288.1 L802.838 1294.55 L802.838 1305.9 L798.162 1305.9 L798.162 1271.34 Z" fill="#000000" fill-rule="evenodd" fill-opacity="1" /><path clip-path="url(#clip870)" d="M845.083 1275.41 L833.277 1293.86 L845.083 1293.86 L845.083 1275.41 M843.856 1271.34 L849.736 1271.34 L849.736 1293.86 L854.666 1293.86 L854.666 1297.75 L849.736 1297.75 L849.736 1305.9 L845.083 1305.9 L845.083 1297.75 L829.481 1297.75 L829.481 1293.23 L843.856 1271.34 Z" fill="#000000" fill-rule="evenodd" fill-opacity="1" /><polyline clip-path="url(#clip870)" style="stroke:#0000ff; stroke-linecap:butt; stroke-linejoin:round; stroke-width:4; stroke-opacity:1; fill:none" stroke-dasharray="16, 10" points="
  369.514,1340.46 507.88,1340.46 
  "/>
<path clip-path="url(#clip870)" d="M564.107 1331.98 Q564.107 1335.33 562.913 1338.65 Q561.741 1341.95 559.68 1344.67 Q557.619 1347.39 554.996 1349.5 Q552.372 1351.6 549.304 1352.78 Q546.236 1353.95 543.238 1353.95 Q537.921 1353.95 534.431 1350.46 Q530.941 1346.97 530.941 1341.13 Q530.941 1337.06 532.768 1333.01 Q534.595 1328.93 537.499 1325.91 Q540.404 1322.87 544.221 1320.97 Q548.063 1319.07 551.857 1319.07 Q557.244 1319.07 560.664 1322.65 Q564.107 1326.21 564.107 1331.98 M559.821 1330.1 Q559.821 1327.53 559.095 1325.58 Q558.369 1323.61 557.151 1322.49 Q555.956 1321.37 554.527 1320.83 Q553.122 1320.27 551.576 1320.27 Q548.578 1320.27 545.369 1322.21 Q542.16 1324.15 539.771 1327.76 Q538.483 1329.73 537.546 1332.09 Q536.609 1334.44 536.188 1336.52 Q535.766 1338.58 535.579 1340.03 Q535.415 1341.49 535.415 1342.49 Q535.415 1347.18 537.663 1349.94 Q539.912 1352.71 543.519 1352.71 Q546.353 1352.71 549.117 1351.04 Q551.881 1349.36 553.778 1346.94 Q555.464 1344.86 556.706 1342.35 Q557.97 1339.85 558.603 1337.55 Q559.235 1335.26 559.516 1333.41 Q559.821 1331.55 559.821 1330.1 Z" fill="#000000" fill-rule="evenodd" fill-opacity="1" /><path clip-path="url(#clip870)" d="M570.433 1340.9 Q570.433 1332.8 573.454 1326.26 Q574.743 1323.52 576.546 1321.23 Q578.35 1318.93 579.544 1317.92 Q580.739 1316.92 581.067 1316.92 Q581.535 1316.92 581.559 1317.38 Q581.559 1317.62 580.926 1318.2 Q573.197 1326.07 573.22 1340.9 Q573.22 1355.77 580.739 1363.34 Q581.559 1364.16 581.559 1364.42 Q581.559 1364.89 581.067 1364.89 Q580.739 1364.89 579.591 1363.92 Q578.443 1362.96 576.663 1360.76 Q574.883 1358.56 573.595 1355.87 Q570.433 1349.33 570.433 1340.9 Z" fill="#000000" fill-rule="evenodd" fill-opacity="1" /><path clip-path="url(#clip870)" d="M614.847 1346.03 Q614.847 1346.22 614.637 1346.94 Q614.426 1347.67 613.91 1348.79 Q613.419 1349.92 612.739 1350.95 Q612.06 1351.96 610.936 1352.71 Q609.835 1353.43 608.57 1353.43 Q606.884 1353.43 605.759 1352.31 Q604.635 1351.18 604.635 1349.5 Q604.635 1348.56 605.127 1347.27 Q608.242 1338.96 608.242 1336.1 Q608.242 1332.75 605.642 1332.75 Q604.354 1332.75 603.136 1333.24 Q601.942 1333.71 601.122 1334.37 Q600.302 1335.02 599.553 1335.93 Q598.826 1336.82 598.452 1337.43 Q598.1 1338.02 597.819 1338.61 L597.21 1340.99 Q597.07 1341.65 596.39 1344.2 L595.336 1348.54 Q594.587 1351.77 594.423 1352.07 Q594.189 1352.73 593.673 1353.08 Q593.158 1353.43 592.643 1353.43 Q592.057 1353.43 591.659 1353.08 Q591.261 1352.73 591.261 1352.12 Q591.261 1352.03 591.331 1351.67 Q591.402 1351.32 591.519 1350.83 Q591.636 1350.34 591.683 1350.06 L594.47 1338.98 Q594.985 1336.97 595.102 1336.33 Q595.243 1335.68 595.243 1334.95 Q595.243 1332.75 593.744 1332.75 Q592.526 1332.75 591.729 1334.2 Q590.933 1335.65 590.254 1338.46 Q590.043 1339.24 589.902 1339.4 Q589.785 1339.57 589.434 1339.57 Q588.848 1339.54 588.848 1339.07 Q588.848 1338.96 589.036 1338.18 Q589.223 1337.41 589.575 1336.31 Q589.949 1335.19 590.301 1334.44 Q590.605 1333.87 590.769 1333.62 Q590.956 1333.34 591.402 1332.8 Q591.87 1332.23 592.479 1331.98 Q593.111 1331.7 593.884 1331.7 Q595.618 1331.7 596.882 1332.82 Q598.147 1333.92 598.311 1335.86 Q601.426 1331.7 605.783 1331.7 Q608.359 1331.7 609.835 1333.05 Q611.311 1334.41 611.311 1336.82 Q611.311 1337.39 611.193 1338.11 Q611.1 1338.82 610.866 1339.71 Q610.655 1340.6 610.467 1341.28 Q610.28 1341.95 609.905 1343.06 Q609.53 1344.13 609.367 1344.6 Q609.203 1345.07 608.804 1346.17 Q608.43 1347.25 608.383 1347.37 Q607.516 1349.54 607.516 1350.78 Q607.516 1351.6 607.774 1351.98 Q608.055 1352.35 608.664 1352.35 Q610.303 1352.35 611.521 1350.74 Q612.763 1349.1 613.559 1346.43 Q613.747 1345.84 613.84 1345.7 Q613.957 1345.56 614.285 1345.56 Q614.847 1345.56 614.847 1346.03 Z" fill="#000000" fill-rule="evenodd" fill-opacity="1" /><path clip-path="url(#clip870)" d="M641.87 1329.79 Q642.067 1329.99 642.067 1330.27 Q642.067 1330.55 641.87 1330.75 Q641.673 1330.94 641.394 1330.94 L620.375 1330.94 Q620.096 1330.94 619.9 1330.75 Q619.703 1330.55 619.703 1330.27 Q619.703 1329.99 619.9 1329.79 Q620.096 1329.6 620.375 1329.6 L641.394 1329.6 Q641.673 1329.6 641.87 1329.79 Z" fill="#000000" fill-rule="evenodd" fill-opacity="1" /><path clip-path="url(#clip870)" d="M645.566 1333.12 L645.566 1332.09 L655.879 1316.33 Q656.141 1315.92 656.551 1315.94 Q656.928 1315.94 657.01 1316.09 Q657.092 1316.24 657.092 1316.81 L657.092 1332.09 L660.453 1332.09 L660.453 1333.12 L657.092 1333.12 L657.092 1336.04 Q657.092 1337.01 657.485 1337.32 Q657.895 1337.63 659.633 1337.63 L660.338 1337.63 L660.338 1338.66 Q658.961 1338.57 655.78 1338.57 Q652.616 1338.57 651.239 1338.66 L651.239 1337.63 L651.944 1337.63 Q653.682 1337.63 654.092 1337.34 Q654.501 1337.02 654.501 1336.04 L654.501 1333.12 L645.566 1333.12 M646.517 1332.09 L654.698 1332.09 L654.698 1319.56 L646.517 1332.09 Z" fill="#000000" fill-rule="evenodd" fill-opacity="1" /><path clip-path="url(#clip870)" d="M667.311 1364.42 Q667.311 1364.18 667.92 1363.6 Q675.649 1355.73 675.649 1340.9 Q675.649 1326.03 668.224 1318.51 Q667.311 1317.64 667.311 1317.38 Q667.311 1316.92 667.779 1316.92 Q668.107 1316.92 669.255 1317.88 Q670.426 1318.84 672.183 1321.04 Q673.963 1323.24 675.274 1325.93 Q678.436 1332.47 678.436 1340.9 Q678.436 1349 675.415 1355.54 Q674.127 1358.28 672.323 1360.58 Q670.52 1362.87 669.325 1363.88 Q668.131 1364.89 667.779 1364.89 Q667.311 1364.89 667.311 1364.42 Z" fill="#000000" fill-rule="evenodd" fill-opacity="1" /></svg>
