<?xml version="1.0" encoding="UTF-8" standalone="no"?>
<!-- Created with Inkscape (http://www.inkscape.org/) -->

<svg
   width="90mm"
   height="70mm"
   viewBox="0 0 90 70"
   version="1.1"
   id="svg5"
   inkscape:version="1.2.2 (b0a8486, 2022-12-01)"
   sodipodi:docname="linear-vs-nonlinear.svg"
   xmlns:inkscape="http://www.inkscape.org/namespaces/inkscape"
   xmlns:sodipodi="http://sodipodi.sourceforge.net/DTD/sodipodi-0.dtd"
   xmlns="http://www.w3.org/2000/svg"
   xmlns:svg="http://www.w3.org/2000/svg">
  <sodipodi:namedview
     id="namedview7"
     pagecolor="#ffffff"
     bordercolor="#666666"
     borderopacity="1.0"
     inkscape:showpageshadow="2"
     inkscape:pageopacity="0.0"
     inkscape:pagecheckerboard="0"
     inkscape:deskcolor="#d1d1d1"
     inkscape:document-units="mm"
     showgrid="false"
     inkscape:zoom="2"
     inkscape:cx="153.25"
     inkscape:cy="106.25"
     inkscape:window-width="1440"
     inkscape:window-height="847"
     inkscape:window-x="0"
     inkscape:window-y="25"
     inkscape:window-maximized="1"
     inkscape:current-layer="layer1"
     showguides="true">
    <inkscape:grid
       type="xygrid"
       id="grid132"
       units="mm"
       spacingx="0.99999999"
       originx="0"
       originy="0"
       spacingy="0.99999999" />
    <sodipodi:guide
       position="30.030208,25.682292"
       orientation="1,0"
       id="guide3203"
       inkscape:locked="false" />
    <sodipodi:guide
       position="32.676042,35.075002"
       orientation="0,-1"
       id="guide18915"
       inkscape:locked="false" />
    <sodipodi:guide
       position="60.19271,39.572918"
       orientation="1,0"
       id="guide18917"
       inkscape:locked="false" />
    <sodipodi:guide
       position="7.1437502,0.017708221"
       orientation="0,-1"
       id="guide19234"
       inkscape:locked="false" />
  </sodipodi:namedview>
  <defs
     id="defs2" />
  <g
     inkscape:label="Layer 1"
     inkscape:groupmode="layer"
     id="layer1">
    <path
       style="fill:none;stroke:#a62b17;stroke-width:0.264583px;stroke-linecap:butt;stroke-linejoin:miter;stroke-opacity:1"
       d="M 5.0353443,25.051746 40.036974,5.051394 39.943431,4.9578498"
       id="path6248"
       sodipodi:nodetypes="ccc" />
    <path
       style="fill:none;stroke:#1e4c7c;stroke-width:0.264583px;stroke-linecap:butt;stroke-linejoin:miter;stroke-opacity:1"
       d="M 5.0901416,29.717614 40.075723,9.7172613"
       id="path6250"
       sodipodi:nodetypes="cc" />
    <g
       aria-label="f1 = 0"
       id="text6254"
       style="font-size:3.52778px;line-height:1.25;font-family:'Latin Modern Roman';-inkscape-font-specification:'Latin Modern Roman, ';fill:#a62b17;fill-opacity:1;stroke-width:0.264583"
       transform="translate(0.72760413)">
      <path
         d="m 6.1511211,15.507359 c 0,-0.130528 -0.1305279,-0.246944 -0.3175002,-0.246944 -0.2469446,0 -0.5468059,0.186972 -0.5468059,0.560917 v 0.405694 H 5.0081203 v 0.109361 H 5.286815 v 1.143001 c 0,0.15875 -0.038806,0.15875 -0.2751669,0.15875 v 0.109361 l 0.402167,-0.01058 c 0.1411112,0 0.3069168,0 0.448028,0.01058 v -0.109361 h -0.074083 c -0.2610557,0 -0.2681112,-0.0388 -0.2681112,-0.165805 V 16.336387 H 5.9218154 V 16.227026 H 5.5090651 v -0.409222 c 0,-0.310445 0.1693335,-0.479778 0.3245558,-0.479778 0.010583,0 0.0635,0 0.1164167,0.02469 -0.042333,0.01411 -0.1058334,0.05997 -0.1058334,0.148167 0,0.08114 0.056444,0.151694 0.1516946,0.151694 0.1023056,0 0.1552223,-0.07055 0.1552223,-0.155222 z"
         id="path16200"
         style="fill:#a62b17;fill-opacity:1" />
      <path
         d="m 6.9319943,18.453056 v -0.07109 h -0.073378 c -0.2063751,0 -0.2132543,-0.02522 -0.2132543,-0.110067 v -1.286405 c 0,-0.05503 0,-0.05962 -0.05274,-0.05962 -0.1421695,0.146755 -0.3439586,0.146755 -0.4173364,0.146755 v 0.07109 c 0.045861,0 0.1811515,0 0.3003905,-0.05962 v 1.187804 c 0,0.08255 -0.00688,0.110067 -0.2132543,0.110067 h -0.073378 v 0.07109 c 0.080257,-0.0069 0.2797529,-0.0069 0.3714752,-0.0069 0.091722,0 0.2912182,0 0.3714752,0.0069 z"
         style="font-size:65%;baseline-shift:sub;fill:#a62b17;fill-opacity:1"
         id="path16202" />
      <path
         d="m 10.836002,16.52336 c 0,-0.07056 -0.06703,-0.07056 -0.116417,-0.07056 H 8.6064448 c -0.049389,0 -0.1164168,0 -0.1164168,0.07056 0,0.07055 0.067028,0.07055 0.1199446,0.07055 h 2.1060844 c 0.05292,0 0.119945,0 0.119945,-0.07055 z m 0,0.684389 c 0,-0.07055 -0.06703,-0.07055 -0.119945,-0.07055 H 8.6099726 c -0.052917,0 -0.1199446,0 -0.1199446,0.07055 0,0.07056 0.067028,0.07056 0.1164168,0.07056 h 2.1131402 c 0.04939,0 0.116417,0 0.116417,-0.07056 z"
         id="path16204"
         style="fill:#a62b17;fill-opacity:1" />
      <path
         d="m 13.834608,16.61861 c 0,-0.282223 -0.01764,-0.564445 -0.141111,-0.825501 -0.162278,-0.338667 -0.451556,-0.395111 -0.599723,-0.395111 -0.211667,0 -0.469195,0.09172 -0.613834,0.419806 -0.112888,0.243417 -0.130527,0.518583 -0.130527,0.800806 0,0.264583 0.01411,0.582084 0.15875,0.850195 0.151694,0.28575 0.409222,0.356306 0.582083,0.356306 0.190501,0 0.458612,-0.07408 0.613834,-0.409223 0.112889,-0.243417 0.130528,-0.518584 0.130528,-0.797278 z m -0.292806,-0.04233 c 0,0.264584 0,0.504473 -0.0388,0.730251 -0.05292,0.335139 -0.254,0.440972 -0.412751,0.440972 -0.137583,0 -0.345722,-0.08819 -0.409222,-0.426861 -0.03881,-0.211667 -0.03881,-0.536222 -0.03881,-0.744362 0,-0.225777 0,-0.458611 0.02822,-0.649111 0.06703,-0.419806 0.331611,-0.451556 0.419805,-0.451556 0.116417,0 0.349251,0.0635 0.416278,0.41275 0.03528,0.197556 0.03528,0.465667 0.03528,0.687917 z"
         id="path16206"
         style="fill:#a62b17;fill-opacity:1" />
    </g>
    <g
       aria-label="f1 = 0"
       id="text6254-1"
       style="font-size:3.52778px;line-height:1.25;font-family:'Latin Modern Roman';-inkscape-font-specification:'Latin Modern Roman, ';fill:#a62b17;fill-opacity:1;stroke-width:0.264583"
       transform="translate(-0.77701048,27.323984)">
      <path
         d="m 6.1511211,15.507359 c 0,-0.130528 -0.1305279,-0.246944 -0.3175002,-0.246944 -0.2469446,0 -0.5468059,0.186972 -0.5468059,0.560917 v 0.405694 H 5.0081203 v 0.109361 H 5.286815 v 1.143001 c 0,0.15875 -0.038806,0.15875 -0.2751669,0.15875 v 0.109361 l 0.402167,-0.01058 c 0.1411112,0 0.3069168,0 0.448028,0.01058 v -0.109361 h -0.074083 c -0.2610557,0 -0.2681112,-0.0388 -0.2681112,-0.165805 V 16.336387 H 5.9218154 V 16.227026 H 5.5090651 v -0.409222 c 0,-0.310445 0.1693335,-0.479778 0.3245558,-0.479778 0.010583,0 0.0635,0 0.1164167,0.02469 -0.042333,0.01411 -0.1058334,0.05997 -0.1058334,0.148167 0,0.08114 0.056444,0.151694 0.1516946,0.151694 0.1023056,0 0.1552223,-0.07055 0.1552223,-0.155222 z"
         id="path16200-9"
         style="fill:#a62b17;fill-opacity:1" />
      <path
         d="m 6.9319943,18.453056 v -0.07109 h -0.073378 c -0.2063751,0 -0.2132543,-0.02522 -0.2132543,-0.110067 v -1.286405 c 0,-0.05503 0,-0.05962 -0.05274,-0.05962 -0.1421695,0.146755 -0.3439586,0.146755 -0.4173364,0.146755 v 0.07109 c 0.045861,0 0.1811515,0 0.3003905,-0.05962 v 1.187804 c 0,0.08255 -0.00688,0.110067 -0.2132543,0.110067 h -0.073378 v 0.07109 c 0.080257,-0.0069 0.2797529,-0.0069 0.3714752,-0.0069 0.091722,0 0.2912182,0 0.3714752,0.0069 z"
         style="font-size:65%;baseline-shift:sub;fill:#a62b17;fill-opacity:1"
         id="path16202-86" />
      <path
         d="m 10.836002,16.52336 c 0,-0.07056 -0.06703,-0.07056 -0.116417,-0.07056 H 8.6064448 c -0.049389,0 -0.1164168,0 -0.1164168,0.07056 0,0.07055 0.067028,0.07055 0.1199446,0.07055 h 2.1060844 c 0.05292,0 0.119945,0 0.119945,-0.07055 z m 0,0.684389 c 0,-0.07055 -0.06703,-0.07055 -0.119945,-0.07055 H 8.6099726 c -0.052917,0 -0.1199446,0 -0.1199446,0.07055 0,0.07056 0.067028,0.07056 0.1164168,0.07056 h 2.1131402 c 0.04939,0 0.116417,0 0.116417,-0.07056 z"
         id="path16204-9"
         style="fill:#a62b17;fill-opacity:1" />
      <path
         d="m 13.834608,16.61861 c 0,-0.282223 -0.01764,-0.564445 -0.141111,-0.825501 -0.162278,-0.338667 -0.451556,-0.395111 -0.599723,-0.395111 -0.211667,0 -0.469195,0.09172 -0.613834,0.419806 -0.112888,0.243417 -0.130527,0.518583 -0.130527,0.800806 0,0.264583 0.01411,0.582084 0.15875,0.850195 0.151694,0.28575 0.409222,0.356306 0.582083,0.356306 0.190501,0 0.458612,-0.07408 0.613834,-0.409223 0.112889,-0.243417 0.130528,-0.518584 0.130528,-0.797278 z m -0.292806,-0.04233 c 0,0.264584 0,0.504473 -0.0388,0.730251 -0.05292,0.335139 -0.254,0.440972 -0.412751,0.440972 -0.137583,0 -0.345722,-0.08819 -0.409222,-0.426861 -0.03881,-0.211667 -0.03881,-0.536222 -0.03881,-0.744362 0,-0.225777 0,-0.458611 0.02822,-0.649111 0.06703,-0.419806 0.331611,-0.451556 0.419805,-0.451556 0.116417,0 0.349251,0.0635 0.416278,0.41275 0.03528,0.197556 0.03528,0.465667 0.03528,0.687917 z"
         id="path16206-0"
         style="fill:#a62b17;fill-opacity:1" />
    </g>
    <g
       aria-label="f2 = 0"
       id="text6254-6"
       style="font-size:3.52778px;line-height:1.25;font-family:'Latin Modern Roman';-inkscape-font-specification:'Latin Modern Roman, ';fill:#1e4c7c;stroke-width:0.264583"
       transform="translate(-0.52916664)">
      <path
         d="m 32.646941,16.973019 c 0,-0.130528 -0.130528,-0.246944 -0.3175,-0.246944 -0.246945,0 -0.546806,0.186972 -0.546806,0.560917 v 0.405694 H 31.50394 v 0.109362 h 0.278695 v 1.143 c 0,0.15875 -0.03881,0.15875 -0.275167,0.15875 v 0.109362 l 0.402167,-0.01058 c 0.141111,0 0.306917,0 0.448028,0.01058 v -0.109362 h -0.07408 c -0.261056,0 -0.268111,-0.0388 -0.268111,-0.165805 v -1.135945 h 0.402166 v -0.109362 h -0.41275 v -0.409222 c 0,-0.310445 0.169334,-0.479778 0.324556,-0.479778 0.01058,0 0.0635,0 0.116417,0.02469 -0.04233,0.01411 -0.105834,0.05997 -0.105834,0.148167 0,0.08114 0.05645,0.151695 0.151695,0.151695 0.102305,0 0.155222,-0.07056 0.155222,-0.155223 z"
         id="path16209" />
      <path
         d="m 33.496606,19.519724 h -0.05733 c -0.01147,0.06879 -0.02752,0.169686 -0.05045,0.204082 -0.01605,0.01834 -0.167393,0.01834 -0.21784,0.01834 h -0.41275 L 33.0013,19.505961 c 0.357717,-0.316442 0.4953,-0.440267 0.4953,-0.669572 0,-0.261409 -0.206375,-0.444853 -0.486128,-0.444853 -0.259115,0 -0.428802,0.210961 -0.428802,0.415043 0,0.128411 0.114653,0.128411 0.121532,0.128411 0.03898,0 0.119239,-0.02752 0.119239,-0.121532 0,-0.05962 -0.04127,-0.119239 -0.121532,-0.119239 -0.01834,0 -0.02293,0 -0.02981,0.0023 0.05274,-0.149048 0.176565,-0.233892 0.309562,-0.233892 0.208668,0 0.30727,0.185738 0.30727,0.373769 0,0.183444 -0.114653,0.364596 -0.240771,0.506765 l -0.44026,0.490711 c -0.02522,0.02522 -0.02522,0.02981 -0.02522,0.08484 h 0.85072 z"
         style="font-size:65%;baseline-shift:sub"
         id="path16211" />
      <path
         d="m 37.331822,17.98902 c 0,-0.07056 -0.06703,-0.07056 -0.116417,-0.07056 h -2.11314 c -0.04939,0 -0.116417,0 -0.116417,0.07056 0,0.07055 0.06703,0.07055 0.119945,0.07055 h 2.106084 c 0.05292,0 0.119945,0 0.119945,-0.07055 z m 0,0.684389 c 0,-0.07055 -0.06703,-0.07055 -0.119945,-0.07055 h -2.106084 c -0.05292,0 -0.119945,0 -0.119945,0.07055 0,0.07056 0.06703,0.07056 0.116417,0.07056 h 2.11314 c 0.04939,0 0.116417,0 0.116417,-0.07056 z"
         id="path16213" />
      <path
         d="m 40.330428,18.08427 c 0,-0.282222 -0.01764,-0.564445 -0.141111,-0.825501 -0.162278,-0.338666 -0.451556,-0.395111 -0.599723,-0.395111 -0.211667,0 -0.469195,0.09172 -0.613833,0.419806 -0.112889,0.243417 -0.130528,0.518584 -0.130528,0.800806 0,0.264583 0.01411,0.582084 0.15875,0.850195 0.151694,0.28575 0.409222,0.356306 0.582083,0.356306 0.190501,0 0.458612,-0.07408 0.613834,-0.409223 0.112889,-0.243417 0.130528,-0.518583 0.130528,-0.797278 z m -0.292806,-0.04233 c 0,0.264583 0,0.504472 -0.0388,0.73025 -0.05292,0.335139 -0.254,0.440973 -0.412751,0.440973 -0.137583,0 -0.345722,-0.08819 -0.409222,-0.426862 -0.03881,-0.211667 -0.03881,-0.536222 -0.03881,-0.744361 0,-0.225778 0,-0.458612 0.02822,-0.649112 0.06703,-0.419806 0.331611,-0.451556 0.419805,-0.451556 0.116417,0 0.349251,0.0635 0.416279,0.41275 0.03528,0.197556 0.03528,0.465667 0.03528,0.687918 z"
         id="path16215" />
    </g>
    <g
       aria-label="f2 = 0"
       id="text6254-6-1"
       style="font-size:3.52778px;line-height:1.25;font-family:'Latin Modern Roman';-inkscape-font-specification:'Latin Modern Roman, ';fill:#1e4c7c;stroke-width:0.264583"
       transform="translate(-13.062823,48.265717)">
      <path
         d="m 32.646941,16.973019 c 0,-0.130528 -0.130528,-0.246944 -0.3175,-0.246944 -0.246945,0 -0.546806,0.186972 -0.546806,0.560917 v 0.405694 H 31.50394 v 0.109362 h 0.278695 v 1.143 c 0,0.15875 -0.03881,0.15875 -0.275167,0.15875 v 0.109362 l 0.402167,-0.01058 c 0.141111,0 0.306917,0 0.448028,0.01058 v -0.109362 h -0.07408 c -0.261056,0 -0.268111,-0.0388 -0.268111,-0.165805 v -1.135945 h 0.402166 v -0.109362 h -0.41275 v -0.409222 c 0,-0.310445 0.169334,-0.479778 0.324556,-0.479778 0.01058,0 0.0635,0 0.116417,0.02469 -0.04233,0.01411 -0.105834,0.05997 -0.105834,0.148167 0,0.08114 0.05645,0.151695 0.151695,0.151695 0.102305,0 0.155222,-0.07056 0.155222,-0.155223 z"
         id="path16209-6" />
      <path
         d="m 33.496606,19.519724 h -0.05733 c -0.01147,0.06879 -0.02752,0.169686 -0.05045,0.204082 -0.01605,0.01834 -0.167393,0.01834 -0.21784,0.01834 h -0.41275 L 33.0013,19.505961 c 0.357717,-0.316442 0.4953,-0.440267 0.4953,-0.669572 0,-0.261409 -0.206375,-0.444853 -0.486128,-0.444853 -0.259115,0 -0.428802,0.210961 -0.428802,0.415043 0,0.128411 0.114653,0.128411 0.121532,0.128411 0.03898,0 0.119239,-0.02752 0.119239,-0.121532 0,-0.05962 -0.04127,-0.119239 -0.121532,-0.119239 -0.01834,0 -0.02293,0 -0.02981,0.0023 0.05274,-0.149048 0.176565,-0.233892 0.309562,-0.233892 0.208668,0 0.30727,0.185738 0.30727,0.373769 0,0.183444 -0.114653,0.364596 -0.240771,0.506765 l -0.44026,0.490711 c -0.02522,0.02522 -0.02522,0.02981 -0.02522,0.08484 h 0.85072 z"
         style="font-size:65%;baseline-shift:sub"
         id="path16211-4" />
      <path
         d="m 37.331822,17.98902 c 0,-0.07056 -0.06703,-0.07056 -0.116417,-0.07056 h -2.11314 c -0.04939,0 -0.116417,0 -0.116417,0.07056 0,0.07055 0.06703,0.07055 0.119945,0.07055 h 2.106084 c 0.05292,0 0.119945,0 0.119945,-0.07055 z m 0,0.684389 c 0,-0.07055 -0.06703,-0.07055 -0.119945,-0.07055 h -2.106084 c -0.05292,0 -0.119945,0 -0.119945,0.07055 0,0.07056 0.06703,0.07056 0.116417,0.07056 h 2.11314 c 0.04939,0 0.116417,0 0.116417,-0.07056 z"
         id="path16213-4" />
      <path
         d="m 40.330428,18.08427 c 0,-0.282222 -0.01764,-0.564445 -0.141111,-0.825501 -0.162278,-0.338666 -0.451556,-0.395111 -0.599723,-0.395111 -0.211667,0 -0.469195,0.09172 -0.613833,0.419806 -0.112889,0.243417 -0.130528,0.518584 -0.130528,0.800806 0,0.264583 0.01411,0.582084 0.15875,0.850195 0.151694,0.28575 0.409222,0.356306 0.582083,0.356306 0.190501,0 0.458612,-0.07408 0.613834,-0.409223 0.112889,-0.243417 0.130528,-0.518583 0.130528,-0.797278 z m -0.292806,-0.04233 c 0,0.264583 0,0.504472 -0.0388,0.73025 -0.05292,0.335139 -0.254,0.440973 -0.412751,0.440973 -0.137583,0 -0.345722,-0.08819 -0.409222,-0.426862 -0.03881,-0.211667 -0.03881,-0.536222 -0.03881,-0.744361 0,-0.225778 0,-0.458612 0.02822,-0.649112 0.06703,-0.419806 0.331611,-0.451556 0.419805,-0.451556 0.116417,0 0.349251,0.0635 0.416279,0.41275 0.03528,0.197556 0.03528,0.465667 0.03528,0.687918 z"
         id="path16215-8" />
    </g>
    <path
       style="fill:none;stroke:#a62b17;stroke-width:0.264583px;stroke-linecap:butt;stroke-linejoin:miter;stroke-opacity:1"
       d="M 49.854025,29.66378 84.723363,7.9436348 84.629823,7.8500948"
       id="path6248-4"
       sodipodi:nodetypes="ccc" />
    <path
       style="fill:none;stroke:#1e4c7c;stroke-width:0.264583px;stroke-linecap:butt;stroke-linejoin:miter;stroke-opacity:1"
       d="M 49.908823,7.7390212 85.291279,22.66367"
       id="path6250-7"
       sodipodi:nodetypes="cc" />
    <g
       aria-label="f1 = 0"
       id="text6254-4"
       style="font-size:3.52778px;line-height:1.25;font-family:'Latin Modern Roman';-inkscape-font-specification:'Latin Modern Roman, ';fill:#a62b17;fill-opacity:0.894915;stroke-width:0.264583"
       transform="translate(44.686389,5.2734911)">
      <path
         d="m 6.1511211,15.507359 c 0,-0.130528 -0.1305279,-0.246944 -0.3175002,-0.246944 -0.2469446,0 -0.5468059,0.186972 -0.5468059,0.560917 v 0.405694 H 5.0081203 v 0.109361 H 5.286815 v 1.143001 c 0,0.15875 -0.038806,0.15875 -0.2751669,0.15875 v 0.109361 l 0.402167,-0.01058 c 0.1411112,0 0.3069168,0 0.448028,0.01058 v -0.109361 h -0.074083 c -0.2610557,0 -0.2681112,-0.0388 -0.2681112,-0.165805 V 16.336387 H 5.9218154 V 16.227026 H 5.5090651 v -0.409222 c 0,-0.310445 0.1693335,-0.479778 0.3245558,-0.479778 0.010583,0 0.0635,0 0.1164167,0.02469 -0.042333,0.01411 -0.1058334,0.05997 -0.1058334,0.148167 0,0.08114 0.056444,0.151694 0.1516946,0.151694 0.1023056,0 0.1552223,-0.07055 0.1552223,-0.155222 z"
         id="path16200-1"
         style="fill:#a62b17;fill-opacity:0.894915" />
      <path
         d="m 6.9319943,18.453056 v -0.07109 h -0.073378 c -0.2063751,0 -0.2132543,-0.02522 -0.2132543,-0.110067 v -1.286405 c 0,-0.05503 0,-0.05962 -0.05274,-0.05962 -0.1421695,0.146755 -0.3439586,0.146755 -0.4173364,0.146755 v 0.07109 c 0.045861,0 0.1811515,0 0.3003905,-0.05962 v 1.187804 c 0,0.08255 -0.00688,0.110067 -0.2132543,0.110067 h -0.073378 v 0.07109 c 0.080257,-0.0069 0.2797529,-0.0069 0.3714752,-0.0069 0.091722,0 0.2912182,0 0.3714752,0.0069 z"
         style="font-size:65%;baseline-shift:sub;fill:#a62b17;fill-opacity:0.894915"
         id="path16202-8" />
      <path
         d="m 10.836002,16.52336 c 0,-0.07056 -0.06703,-0.07056 -0.116417,-0.07056 H 8.6064448 c -0.049389,0 -0.1164168,0 -0.1164168,0.07056 0,0.07055 0.067028,0.07055 0.1199446,0.07055 h 2.1060844 c 0.05292,0 0.119945,0 0.119945,-0.07055 z m 0,0.684389 c 0,-0.07055 -0.06703,-0.07055 -0.119945,-0.07055 H 8.6099726 c -0.052917,0 -0.1199446,0 -0.1199446,0.07055 0,0.07056 0.067028,0.07056 0.1164168,0.07056 h 2.1131402 c 0.04939,0 0.116417,0 0.116417,-0.07056 z"
         id="path16204-5"
         style="fill:#a62b17;fill-opacity:0.894915" />
      <path
         d="m 13.834608,16.61861 c 0,-0.282223 -0.01764,-0.564445 -0.141111,-0.825501 -0.162278,-0.338667 -0.451556,-0.395111 -0.599723,-0.395111 -0.211667,0 -0.469195,0.09172 -0.613834,0.419806 -0.112888,0.243417 -0.130527,0.518583 -0.130527,0.800806 0,0.264583 0.01411,0.582084 0.15875,0.850195 0.151694,0.28575 0.409222,0.356306 0.582083,0.356306 0.190501,0 0.458612,-0.07408 0.613834,-0.409223 0.112889,-0.243417 0.130528,-0.518584 0.130528,-0.797278 z m -0.292806,-0.04233 c 0,0.264584 0,0.504473 -0.0388,0.730251 -0.05292,0.335139 -0.254,0.440972 -0.412751,0.440972 -0.137583,0 -0.345722,-0.08819 -0.409222,-0.426861 -0.03881,-0.211667 -0.03881,-0.536222 -0.03881,-0.744362 0,-0.225777 0,-0.458611 0.02822,-0.649111 0.06703,-0.419806 0.331611,-0.451556 0.419805,-0.451556 0.116417,0 0.349251,0.0635 0.416278,0.41275 0.03528,0.197556 0.03528,0.465667 0.03528,0.687917 z"
         id="path16206-8"
         style="fill:#a62b17;fill-opacity:0.894915" />
    </g>
    <g
       aria-label="f2 = 0"
       id="text6254-6-9"
       style="font-size:3.52778px;line-height:1.25;font-family:'Latin Modern Roman';-inkscape-font-specification:'Latin Modern Roman, ';fill:#1e4c7c;stroke-width:0.264583"
       transform="translate(23.784305,-10.733801)">
      <path
         d="m 32.646941,16.973019 c 0,-0.130528 -0.130528,-0.246944 -0.3175,-0.246944 -0.246945,0 -0.546806,0.186972 -0.546806,0.560917 v 0.405694 H 31.50394 v 0.109362 h 0.278695 v 1.143 c 0,0.15875 -0.03881,0.15875 -0.275167,0.15875 v 0.109362 l 0.402167,-0.01058 c 0.141111,0 0.306917,0 0.448028,0.01058 v -0.109362 h -0.07408 c -0.261056,0 -0.268111,-0.0388 -0.268111,-0.165805 v -1.135945 h 0.402166 v -0.109362 h -0.41275 v -0.409222 c 0,-0.310445 0.169334,-0.479778 0.324556,-0.479778 0.01058,0 0.0635,0 0.116417,0.02469 -0.04233,0.01411 -0.105834,0.05997 -0.105834,0.148167 0,0.08114 0.05645,0.151695 0.151695,0.151695 0.102305,0 0.155222,-0.07056 0.155222,-0.155223 z"
         id="path16209-9" />
      <path
         d="m 33.496606,19.519724 h -0.05733 c -0.01147,0.06879 -0.02752,0.169686 -0.05045,0.204082 -0.01605,0.01834 -0.167393,0.01834 -0.21784,0.01834 h -0.41275 L 33.0013,19.505961 c 0.357717,-0.316442 0.4953,-0.440267 0.4953,-0.669572 0,-0.261409 -0.206375,-0.444853 -0.486128,-0.444853 -0.259115,0 -0.428802,0.210961 -0.428802,0.415043 0,0.128411 0.114653,0.128411 0.121532,0.128411 0.03898,0 0.119239,-0.02752 0.119239,-0.121532 0,-0.05962 -0.04127,-0.119239 -0.121532,-0.119239 -0.01834,0 -0.02293,0 -0.02981,0.0023 0.05274,-0.149048 0.176565,-0.233892 0.309562,-0.233892 0.208668,0 0.30727,0.185738 0.30727,0.373769 0,0.183444 -0.114653,0.364596 -0.240771,0.506765 l -0.44026,0.490711 c -0.02522,0.02522 -0.02522,0.02981 -0.02522,0.08484 h 0.85072 z"
         style="font-size:65%;baseline-shift:sub"
         id="path16211-9" />
      <path
         d="m 37.331822,17.98902 c 0,-0.07056 -0.06703,-0.07056 -0.116417,-0.07056 h -2.11314 c -0.04939,0 -0.116417,0 -0.116417,0.07056 0,0.07055 0.06703,0.07055 0.119945,0.07055 h 2.106084 c 0.05292,0 0.119945,0 0.119945,-0.07055 z m 0,0.684389 c 0,-0.07055 -0.06703,-0.07055 -0.119945,-0.07055 h -2.106084 c -0.05292,0 -0.119945,0 -0.119945,0.07055 0,0.07056 0.06703,0.07056 0.116417,0.07056 h 2.11314 c 0.04939,0 0.116417,0 0.116417,-0.07056 z"
         id="path16213-3" />
      <path
         d="m 40.330428,18.08427 c 0,-0.282222 -0.01764,-0.564445 -0.141111,-0.825501 -0.162278,-0.338666 -0.451556,-0.395111 -0.599723,-0.395111 -0.211667,0 -0.469195,0.09172 -0.613833,0.419806 -0.112889,0.243417 -0.130528,0.518584 -0.130528,0.800806 0,0.264583 0.01411,0.582084 0.15875,0.850195 0.151694,0.28575 0.409222,0.356306 0.582083,0.356306 0.190501,0 0.458612,-0.07408 0.613834,-0.409223 0.112889,-0.243417 0.130528,-0.518583 0.130528,-0.797278 z m -0.292806,-0.04233 c 0,0.264583 0,0.504472 -0.0388,0.73025 -0.05292,0.335139 -0.254,0.440973 -0.412751,0.440973 -0.137583,0 -0.345722,-0.08819 -0.409222,-0.426862 -0.03881,-0.211667 -0.03881,-0.536222 -0.03881,-0.744361 0,-0.225778 0,-0.458612 0.02822,-0.649112 0.06703,-0.419806 0.331611,-0.451556 0.419805,-0.451556 0.116417,0 0.349251,0.0635 0.416279,0.41275 0.03528,0.197556 0.03528,0.465667 0.03528,0.687918 z"
         id="path16215-3" />
    </g>
    <circle
       style="fill:#000000;fill-opacity:1;stroke:none;stroke-width:0.264999;stroke-dasharray:0.264999, 0.264999;stroke-opacity:1"
       id="path17896"
       cx="70.742973"
       cy="16.602598"
       r="0.52999997" />
    <path
       style="fill:none;stroke:#a62b17;stroke-width:0.264583px;stroke-linecap:butt;stroke-linejoin:miter;stroke-opacity:1"
       d="M 3.8818539,54.214139 C 5.0613173,49.503394 8.9624834,44.839986 11.73778,47.04561 18.250265,52.221311 23.260787,43.883579 23.990189,38.868306"
       id="path18919"
       sodipodi:nodetypes="csc" />
    <path
       style="fill:none;stroke:#1e4c7c;stroke-width:0.264583px;stroke-linecap:butt;stroke-linejoin:miter;stroke-opacity:1"
       d="m 8.115187,60.431846 c 4.728643,-2.317412 -0.2571141,-6.1616 1.8520857,-7.805208 2.5046383,-1.951758 12.1486813,-4.953945 9.5250003,0.132291 -1.330263,2.578831 3.746404,5.707587 2.513542,8.334376 -1.057863,2.253929 -4.390898,2.998694 -6.879166,2.910416 -2.621302,-0.093 -9.1401799,-2.528633 -7.011462,-3.571875 z"
       id="path18921"
       sodipodi:nodetypes="sasaas" />
    <g
       aria-label="f1 = 0"
       id="text6254-1-6"
       style="font-size:3.52778px;line-height:1.25;font-family:'Latin Modern Roman';-inkscape-font-specification:'Latin Modern Roman, ';fill:#a62b17;fill-opacity:1;stroke-width:0.264583"
       transform="translate(29.211362,27.477437)">
      <path
         d="m 6.1511211,15.507359 c 0,-0.130528 -0.1305279,-0.246944 -0.3175002,-0.246944 -0.2469446,0 -0.5468059,0.186972 -0.5468059,0.560917 v 0.405694 H 5.0081203 v 0.109361 H 5.286815 v 1.143001 c 0,0.15875 -0.038806,0.15875 -0.2751669,0.15875 v 0.109361 l 0.402167,-0.01058 c 0.1411112,0 0.3069168,0 0.448028,0.01058 v -0.109361 h -0.074083 c -0.2610557,0 -0.2681112,-0.0388 -0.2681112,-0.165805 V 16.336387 H 5.9218154 V 16.227026 H 5.5090651 v -0.409222 c 0,-0.310445 0.1693335,-0.479778 0.3245558,-0.479778 0.010583,0 0.0635,0 0.1164167,0.02469 -0.042333,0.01411 -0.1058334,0.05997 -0.1058334,0.148167 0,0.08114 0.056444,0.151694 0.1516946,0.151694 0.1023056,0 0.1552223,-0.07055 0.1552223,-0.155222 z"
         id="path16200-9-1"
         style="fill:#a62b17;fill-opacity:1" />
      <path
         d="m 6.9319943,18.453056 v -0.07109 h -0.073378 c -0.2063751,0 -0.2132543,-0.02522 -0.2132543,-0.110067 v -1.286405 c 0,-0.05503 0,-0.05962 -0.05274,-0.05962 -0.1421695,0.146755 -0.3439586,0.146755 -0.4173364,0.146755 v 0.07109 c 0.045861,0 0.1811515,0 0.3003905,-0.05962 v 1.187804 c 0,0.08255 -0.00688,0.110067 -0.2132543,0.110067 h -0.073378 v 0.07109 c 0.080257,-0.0069 0.2797529,-0.0069 0.3714752,-0.0069 0.091722,0 0.2912182,0 0.3714752,0.0069 z"
         style="font-size:65%;baseline-shift:sub;fill:#a62b17;fill-opacity:1"
         id="path16202-86-4" />
      <path
         d="m 10.836002,16.52336 c 0,-0.07056 -0.06703,-0.07056 -0.116417,-0.07056 H 8.6064448 c -0.049389,0 -0.1164168,0 -0.1164168,0.07056 0,0.07055 0.067028,0.07055 0.1199446,0.07055 h 2.1060844 c 0.05292,0 0.119945,0 0.119945,-0.07055 z m 0,0.684389 c 0,-0.07055 -0.06703,-0.07055 -0.119945,-0.07055 H 8.6099726 c -0.052917,0 -0.1199446,0 -0.1199446,0.07055 0,0.07056 0.067028,0.07056 0.1164168,0.07056 h 2.1131402 c 0.04939,0 0.116417,0 0.116417,-0.07056 z"
         id="path16204-9-0"
         style="fill:#a62b17;fill-opacity:1" />
      <path
         d="m 13.834608,16.61861 c 0,-0.282223 -0.01764,-0.564445 -0.141111,-0.825501 -0.162278,-0.338667 -0.451556,-0.395111 -0.599723,-0.395111 -0.211667,0 -0.469195,0.09172 -0.613834,0.419806 -0.112888,0.243417 -0.130527,0.518583 -0.130527,0.800806 0,0.264583 0.01411,0.582084 0.15875,0.850195 0.151694,0.28575 0.409222,0.356306 0.582083,0.356306 0.190501,0 0.458612,-0.07408 0.613834,-0.409223 0.112889,-0.243417 0.130528,-0.518584 0.130528,-0.797278 z m -0.292806,-0.04233 c 0,0.264584 0,0.504473 -0.0388,0.730251 -0.05292,0.335139 -0.254,0.440972 -0.412751,0.440972 -0.137583,0 -0.345722,-0.08819 -0.409222,-0.426861 -0.03881,-0.211667 -0.03881,-0.536222 -0.03881,-0.744362 0,-0.225777 0,-0.458611 0.02822,-0.649111 0.06703,-0.419806 0.331611,-0.451556 0.419805,-0.451556 0.116417,0 0.349251,0.0635 0.416278,0.41275 0.03528,0.197556 0.03528,0.465667 0.03528,0.687917 z"
         id="path16206-0-8"
         style="fill:#a62b17;fill-opacity:1" />
    </g>
    <g
       aria-label="f2 = 0"
       id="text6254-6-1-1"
       style="font-size:3.52778px;line-height:1.25;font-family:'Latin Modern Roman';-inkscape-font-specification:'Latin Modern Roman, ';fill:#1e4c7c;stroke-width:0.264583"
       transform="translate(16.738459,46.925211)">
      <path
         d="m 32.646941,16.973019 c 0,-0.130528 -0.130528,-0.246944 -0.3175,-0.246944 -0.246945,0 -0.546806,0.186972 -0.546806,0.560917 v 0.405694 H 31.50394 v 0.109362 h 0.278695 v 1.143 c 0,0.15875 -0.03881,0.15875 -0.275167,0.15875 v 0.109362 l 0.402167,-0.01058 c 0.141111,0 0.306917,0 0.448028,0.01058 v -0.109362 h -0.07408 c -0.261056,0 -0.268111,-0.0388 -0.268111,-0.165805 v -1.135945 h 0.402166 v -0.109362 h -0.41275 v -0.409222 c 0,-0.310445 0.169334,-0.479778 0.324556,-0.479778 0.01058,0 0.0635,0 0.116417,0.02469 -0.04233,0.01411 -0.105834,0.05997 -0.105834,0.148167 0,0.08114 0.05645,0.151695 0.151695,0.151695 0.102305,0 0.155222,-0.07056 0.155222,-0.155223 z"
         id="path16209-6-0" />
      <path
         d="m 33.496606,19.519724 h -0.05733 c -0.01147,0.06879 -0.02752,0.169686 -0.05045,0.204082 -0.01605,0.01834 -0.167393,0.01834 -0.21784,0.01834 h -0.41275 L 33.0013,19.505961 c 0.357717,-0.316442 0.4953,-0.440267 0.4953,-0.669572 0,-0.261409 -0.206375,-0.444853 -0.486128,-0.444853 -0.259115,0 -0.428802,0.210961 -0.428802,0.415043 0,0.128411 0.114653,0.128411 0.121532,0.128411 0.03898,0 0.119239,-0.02752 0.119239,-0.121532 0,-0.05962 -0.04127,-0.119239 -0.121532,-0.119239 -0.01834,0 -0.02293,0 -0.02981,0.0023 0.05274,-0.149048 0.176565,-0.233892 0.309562,-0.233892 0.208668,0 0.30727,0.185738 0.30727,0.373769 0,0.183444 -0.114653,0.364596 -0.240771,0.506765 l -0.44026,0.490711 c -0.02522,0.02522 -0.02522,0.02981 -0.02522,0.08484 h 0.85072 z"
         style="font-size:65%;baseline-shift:sub"
         id="path16211-4-3" />
      <path
         d="m 37.331822,17.98902 c 0,-0.07056 -0.06703,-0.07056 -0.116417,-0.07056 h -2.11314 c -0.04939,0 -0.116417,0 -0.116417,0.07056 0,0.07055 0.06703,0.07055 0.119945,0.07055 h 2.106084 c 0.05292,0 0.119945,0 0.119945,-0.07055 z m 0,0.684389 c 0,-0.07055 -0.06703,-0.07055 -0.119945,-0.07055 h -2.106084 c -0.05292,0 -0.119945,0 -0.119945,0.07055 0,0.07056 0.06703,0.07056 0.116417,0.07056 h 2.11314 c 0.04939,0 0.116417,0 0.116417,-0.07056 z"
         id="path16213-4-1" />
      <path
         d="m 40.330428,18.08427 c 0,-0.282222 -0.01764,-0.564445 -0.141111,-0.825501 -0.162278,-0.338666 -0.451556,-0.395111 -0.599723,-0.395111 -0.211667,0 -0.469195,0.09172 -0.613833,0.419806 -0.112889,0.243417 -0.130528,0.518584 -0.130528,0.800806 0,0.264583 0.01411,0.582084 0.15875,0.850195 0.151694,0.28575 0.409222,0.356306 0.582083,0.356306 0.190501,0 0.458612,-0.07408 0.613834,-0.409223 0.112889,-0.243417 0.130528,-0.518583 0.130528,-0.797278 z m -0.292806,-0.04233 c 0,0.264583 0,0.504472 -0.0388,0.73025 -0.05292,0.335139 -0.254,0.440973 -0.412751,0.440973 -0.137583,0 -0.345722,-0.08819 -0.409222,-0.426862 -0.03881,-0.211667 -0.03881,-0.536222 -0.03881,-0.744361 0,-0.225778 0,-0.458612 0.02822,-0.649112 0.06703,-0.419806 0.331611,-0.451556 0.419805,-0.451556 0.116417,0 0.349251,0.0635 0.416279,0.41275 0.03528,0.197556 0.03528,0.465667 0.03528,0.687918 z"
         id="path16215-8-1" />
    </g>
    <path
       style="fill:none;stroke:#a62b17;stroke-width:0.264583px;stroke-linecap:butt;stroke-linejoin:miter;stroke-opacity:1"
       d="m 33.870226,54.461134 c 1.179464,-4.710745 5.08063,-9.374153 7.855924,-7.168529 6.512485,5.175701 11.523007,-3.162031 12.252409,-8.177304"
       id="path18919-5"
       sodipodi:nodetypes="csc" />
    <path
       style="fill:none;stroke:#1e4c7c;stroke-width:0.264583px;stroke-linecap:butt;stroke-linejoin:miter;stroke-opacity:1"
       d="m 41.543142,58.429883 c 4.728641,-2.317412 -0.257114,-6.1616 1.852084,-7.805208 2.504638,-1.951758 12.148681,-4.953945 9.525,0.132291 -1.330263,2.578831 3.746404,5.707587 2.513542,8.334376 -1.057863,2.253929 -4.390898,2.998694 -6.879166,2.910416 -2.621302,-0.093 -9.140178,-2.528633 -7.01146,-3.571875 z"
       id="path18921-0"
       sodipodi:nodetypes="sasaas" />
    <circle
       style="fill:#000000;fill-opacity:1;stroke:none;stroke-width:0.264999;stroke-dasharray:0.264999, 0.264999;stroke-opacity:1"
       id="path17896-7"
       cx="47.323616"
       cy="48.635189"
       r="0.52999997"
       inkscape:label="path17896-7" />
    <g
       aria-label="f1 = 0"
       id="text6254-1-6-2"
       style="font-size:3.52778px;line-height:1.25;font-family:'Latin Modern Roman';-inkscape-font-specification:'Latin Modern Roman, ';fill:#a62b17;fill-opacity:1;stroke-width:0.264583"
       transform="translate(69.969343,27.342401)">
      <path
         d="m 6.1511211,15.507359 c 0,-0.130528 -0.1305279,-0.246944 -0.3175002,-0.246944 -0.2469446,0 -0.5468059,0.186972 -0.5468059,0.560917 v 0.405694 H 5.0081203 v 0.109361 H 5.286815 v 1.143001 c 0,0.15875 -0.038806,0.15875 -0.2751669,0.15875 v 0.109361 l 0.402167,-0.01058 c 0.1411112,0 0.3069168,0 0.448028,0.01058 v -0.109361 h -0.074083 c -0.2610557,0 -0.2681112,-0.0388 -0.2681112,-0.165805 V 16.336387 H 5.9218154 V 16.227026 H 5.5090651 v -0.409222 c 0,-0.310445 0.1693335,-0.479778 0.3245558,-0.479778 0.010583,0 0.0635,0 0.1164167,0.02469 -0.042333,0.01411 -0.1058334,0.05997 -0.1058334,0.148167 0,0.08114 0.056444,0.151694 0.1516946,0.151694 0.1023056,0 0.1552223,-0.07055 0.1552223,-0.155222 z"
         id="path16200-9-1-7"
         style="fill:#a62b17;fill-opacity:1" />
      <path
         d="m 6.9319943,18.453056 v -0.07109 h -0.073378 c -0.2063751,0 -0.2132543,-0.02522 -0.2132543,-0.110067 v -1.286405 c 0,-0.05503 0,-0.05962 -0.05274,-0.05962 -0.1421695,0.146755 -0.3439586,0.146755 -0.4173364,0.146755 v 0.07109 c 0.045861,0 0.1811515,0 0.3003905,-0.05962 v 1.187804 c 0,0.08255 -0.00688,0.110067 -0.2132543,0.110067 h -0.073378 v 0.07109 c 0.080257,-0.0069 0.2797529,-0.0069 0.3714752,-0.0069 0.091722,0 0.2912182,0 0.3714752,0.0069 z"
         style="font-size:65%;baseline-shift:sub;fill:#a62b17;fill-opacity:1"
         id="path16202-86-4-1" />
      <path
         d="m 10.836002,16.52336 c 0,-0.07056 -0.06703,-0.07056 -0.116417,-0.07056 H 8.6064448 c -0.049389,0 -0.1164168,0 -0.1164168,0.07056 0,0.07055 0.067028,0.07055 0.1199446,0.07055 h 2.1060844 c 0.05292,0 0.119945,0 0.119945,-0.07055 z m 0,0.684389 c 0,-0.07055 -0.06703,-0.07055 -0.119945,-0.07055 H 8.6099726 c -0.052917,0 -0.1199446,0 -0.1199446,0.07055 0,0.07056 0.067028,0.07056 0.1164168,0.07056 h 2.1131402 c 0.04939,0 0.116417,0 0.116417,-0.07056 z"
         id="path16204-9-0-0"
         style="fill:#a62b17;fill-opacity:1" />
      <path
         d="m 13.834608,16.61861 c 0,-0.282223 -0.01764,-0.564445 -0.141111,-0.825501 -0.162278,-0.338667 -0.451556,-0.395111 -0.599723,-0.395111 -0.211667,0 -0.469195,0.09172 -0.613834,0.419806 -0.112888,0.243417 -0.130527,0.518583 -0.130527,0.800806 0,0.264583 0.01411,0.582084 0.15875,0.850195 0.151694,0.28575 0.409222,0.356306 0.582083,0.356306 0.190501,0 0.458612,-0.07408 0.613834,-0.409223 0.112889,-0.243417 0.130528,-0.518584 0.130528,-0.797278 z m -0.292806,-0.04233 c 0,0.264584 0,0.504473 -0.0388,0.730251 -0.05292,0.335139 -0.254,0.440972 -0.412751,0.440972 -0.137583,0 -0.345722,-0.08819 -0.409222,-0.426861 -0.03881,-0.211667 -0.03881,-0.536222 -0.03881,-0.744362 0,-0.225777 0,-0.458611 0.02822,-0.649111 0.06703,-0.419806 0.331611,-0.451556 0.419805,-0.451556 0.116417,0 0.349251,0.0635 0.416278,0.41275 0.03528,0.197556 0.03528,0.465667 0.03528,0.687917 z"
         id="path16206-0-8-0"
         style="fill:#a62b17;fill-opacity:1" />
    </g>
    <g
       aria-label="f2 = 0"
       id="text6254-6-1-1-9"
       style="font-size:3.52778px;line-height:1.25;font-family:'Latin Modern Roman';-inkscape-font-specification:'Latin Modern Roman, ';fill:#1e4c7c;stroke-width:0.264583"
       transform="translate(41.116927,46.210335)">
      <path
         d="m 32.646941,16.973019 c 0,-0.130528 -0.130528,-0.246944 -0.3175,-0.246944 -0.246945,0 -0.546806,0.186972 -0.546806,0.560917 v 0.405694 H 31.50394 v 0.109362 h 0.278695 v 1.143 c 0,0.15875 -0.03881,0.15875 -0.275167,0.15875 v 0.109362 l 0.402167,-0.01058 c 0.141111,0 0.306917,0 0.448028,0.01058 v -0.109362 h -0.07408 c -0.261056,0 -0.268111,-0.0388 -0.268111,-0.165805 v -1.135945 h 0.402166 v -0.109362 h -0.41275 v -0.409222 c 0,-0.310445 0.169334,-0.479778 0.324556,-0.479778 0.01058,0 0.0635,0 0.116417,0.02469 -0.04233,0.01411 -0.105834,0.05997 -0.105834,0.148167 0,0.08114 0.05645,0.151695 0.151695,0.151695 0.102305,0 0.155222,-0.07056 0.155222,-0.155223 z"
         id="path16209-6-0-7" />
      <path
         d="m 33.496606,19.519724 h -0.05733 c -0.01147,0.06879 -0.02752,0.169686 -0.05045,0.204082 -0.01605,0.01834 -0.167393,0.01834 -0.21784,0.01834 h -0.41275 L 33.0013,19.505961 c 0.357717,-0.316442 0.4953,-0.440267 0.4953,-0.669572 0,-0.261409 -0.206375,-0.444853 -0.486128,-0.444853 -0.259115,0 -0.428802,0.210961 -0.428802,0.415043 0,0.128411 0.114653,0.128411 0.121532,0.128411 0.03898,0 0.119239,-0.02752 0.119239,-0.121532 0,-0.05962 -0.04127,-0.119239 -0.121532,-0.119239 -0.01834,0 -0.02293,0 -0.02981,0.0023 0.05274,-0.149048 0.176565,-0.233892 0.309562,-0.233892 0.208668,0 0.30727,0.185738 0.30727,0.373769 0,0.183444 -0.114653,0.364596 -0.240771,0.506765 l -0.44026,0.490711 c -0.02522,0.02522 -0.02522,0.02981 -0.02522,0.08484 h 0.85072 z"
         style="font-size:65%;baseline-shift:sub"
         id="path16211-4-3-1" />
      <path
         d="m 37.331822,17.98902 c 0,-0.07056 -0.06703,-0.07056 -0.116417,-0.07056 h -2.11314 c -0.04939,0 -0.116417,0 -0.116417,0.07056 0,0.07055 0.06703,0.07055 0.119945,0.07055 h 2.106084 c 0.05292,0 0.119945,0 0.119945,-0.07055 z m 0,0.684389 c 0,-0.07055 -0.06703,-0.07055 -0.119945,-0.07055 h -2.106084 c -0.05292,0 -0.119945,0 -0.119945,0.07055 0,0.07056 0.06703,0.07056 0.116417,0.07056 h 2.11314 c 0.04939,0 0.116417,0 0.116417,-0.07056 z"
         id="path16213-4-1-7" />
      <path
         d="m 40.330428,18.08427 c 0,-0.282222 -0.01764,-0.564445 -0.141111,-0.825501 -0.162278,-0.338666 -0.451556,-0.395111 -0.599723,-0.395111 -0.211667,0 -0.469195,0.09172 -0.613833,0.419806 -0.112889,0.243417 -0.130528,0.518584 -0.130528,0.800806 0,0.264583 0.01411,0.582084 0.15875,0.850195 0.151694,0.28575 0.409222,0.356306 0.582083,0.356306 0.190501,0 0.458612,-0.07408 0.613834,-0.409223 0.112889,-0.243417 0.130528,-0.518583 0.130528,-0.797278 z m -0.292806,-0.04233 c 0,0.264583 0,0.504472 -0.0388,0.73025 -0.05292,0.335139 -0.254,0.440973 -0.412751,0.440973 -0.137583,0 -0.345722,-0.08819 -0.409222,-0.426862 -0.03881,-0.211667 -0.03881,-0.536222 -0.03881,-0.744361 0,-0.225778 0,-0.458612 0.02822,-0.649112 0.06703,-0.419806 0.331611,-0.451556 0.419805,-0.451556 0.116417,0 0.349251,0.0635 0.416279,0.41275 0.03528,0.197556 0.03528,0.465667 0.03528,0.687918 z"
         id="path16215-8-1-4" />
    </g>
    <path
       style="fill:none;stroke:#a62b17;stroke-width:0.264583px;stroke-linecap:butt;stroke-linejoin:miter;stroke-opacity:1"
       d="m 64.92942,60.512507 c 1.179464,-4.710745 5.08063,-9.374153 7.855924,-7.168529 6.512485,5.175701 11.523007,-3.162031 12.252409,-8.177304"
       id="path18919-5-5"
       sodipodi:nodetypes="csc" />
    <path
       style="fill:none;stroke:#1e4c7c;stroke-width:0.264583px;stroke-linecap:butt;stroke-linejoin:miter;stroke-opacity:1"
       d="m 67.981844,55.247979 c 5.245492,-0.463958 2.019657,-5.70442 4.53244,-6.618797 2.875537,-1.046379 13.117355,-1.334617 8.84161,2.469526 -2.167895,1.928782 1.694767,7.490993 -0.648354,9.756736 -1.789884,1.730776 -5.175044,1.221093 -7.465488,0.244806 -2.412901,-1.028486 -7.6216,-5.643408 -5.260208,-5.852271 z"
       id="path18921-0-1"
       sodipodi:nodetypes="sasaas" />
    <circle
       style="fill:#000000;fill-opacity:1;stroke:none;stroke-width:0.264999;stroke-dasharray:0.264999, 0.264999;stroke-opacity:1"
       id="path17896-7-7"
       cx="80.697914"
       cy="53.429798"
       r="0.52999997"
       inkscape:label="path17896-7" />
    <circle
       style="fill:#000000;fill-opacity:1;stroke:none;stroke-width:0.264999;stroke-dasharray:0.264999, 0.264999;stroke-opacity:1"
       id="path17896-7-7-0"
       cx="71.053391"
       cy="52.807079"
       r="0.52999997"
       inkscape:label="path17896-7" />
    <circle
       style="fill:#000000;fill-opacity:1;stroke:none;stroke-width:0.264999;stroke-dasharray:0.264999, 0.264999;stroke-opacity:1"
       id="path17896-7-7-0-9"
       cx="67.310669"
       cy="55.464905"
       r="0.52999997"
       inkscape:label="path17896-7" />
    <g
       aria-label="(a)"
       id="text20418"
       style="font-size:3.52778px;line-height:1.25;font-family:'Latin Modern Roman';-inkscape-font-specification:'Latin Modern Roman, ';stroke-width:0.264583">
      <path
         d="m 21.526563,4.9011726 c 0,-0.010583 0,-0.017639 -0.05997,-0.077611 -0.440973,-0.4445003 -0.553862,-1.1112507 -0.553862,-1.6510011 0,-0.6138337 0.134056,-1.2276674 0.567973,-1.6686399 0.04586,-0.042333 0.04586,-0.049389 0.04586,-0.059972 0,-0.024695 -0.01411,-0.035278 -0.03528,-0.035278 -0.03528,0 -0.352778,0.2398891 -0.560917,0.6879171 -0.179917,0.3880558 -0.22225,0.7796394 -0.22225,1.0759729 0,0.2751669 0.0388,0.7020283 0.232833,1.1006674 0.211667,0.433917 0.515056,0.6632227 0.550334,0.6632227 0.02117,0 0.03528,-0.010583 0.03528,-0.035278 z"
         id="path20907" />
      <path
         d="M 23.435092,3.7405329 V 3.5429772 h -0.0882 v 0.1975557 c 0,0.2046113 -0.08819,0.2257779 -0.127,0.2257779 -0.116417,0 -0.130528,-0.1587501 -0.130528,-0.176389 v -0.705556 c 0,-0.1481667 0,-0.2857502 -0.127,-0.416278 -0.137583,-0.1375834 -0.313972,-0.1940279 -0.483306,-0.1940279 -0.289278,0 -0.532695,0.1658056 -0.532695,0.3986391 0,0.1058334 0.07056,0.1658057 0.162278,0.1658057 0.09878,0 0.162278,-0.070556 0.162278,-0.1622779 0,-0.042333 -0.01764,-0.1587501 -0.179917,-0.1622779 0.09525,-0.1234723 0.268112,-0.1622779 0.381001,-0.1622779 0.172861,0 0.373944,0.1375835 0.373944,0.4515559 v 0.1305279 c -0.179916,0.010583 -0.426861,0.021167 -0.649111,0.127 -0.264584,0.1199446 -0.352778,0.3033891 -0.352778,0.4586114 0,0.2857502 0.342195,0.3739447 0.564445,0.3739447 0.232833,0 0.395111,-0.1411112 0.462139,-0.3069168 0.01411,0.1411112 0.109361,0.2892779 0.275167,0.2892779 0.07408,0 0.289278,-0.049389 0.289278,-0.3351391 z m -0.58914,-0.1799168 c 0,0.3351391 -0.254,0.4550837 -0.41275,0.4550837 -0.172861,0 -0.3175,-0.1234723 -0.3175,-0.2998613 0,-0.1940279 0.148167,-0.4868337 0.73025,-0.5080004 z"
         id="path20909" />
      <path
         d="m 24.514586,3.1725603 c 0,-0.2751668 -0.03881,-0.7020282 -0.232834,-1.1006673 -0.211667,-0.433917 -0.515056,-0.6632227 -0.550334,-0.6632227 -0.02117,0 -0.03528,0.014111 -0.03528,0.035278 0,0.010583 0,0.017639 0.06703,0.081139 0.345723,0.3492503 0.546806,0.9101673 0.546806,1.6474733 0,0.6032504 -0.130528,1.2241397 -0.567972,1.66864 -0.04586,0.042333 -0.04586,0.049389 -0.04586,0.059972 0,0.021167 0.01411,0.035278 0.03528,0.035278 0.03528,0 0.352778,-0.2398891 0.560917,-0.6879171 0.179917,-0.3880559 0.222251,-0.7796394 0.222251,-1.075973 z"
         id="path20911" />
    </g>
    <g
       aria-label="(c)"
       id="text20418-4"
       style="font-size:3.52778px;line-height:1.25;font-family:'Latin Modern Roman';-inkscape-font-specification:'Latin Modern Roman, ';stroke-width:0.264583">
      <path
         d="m 15.004837,39.870391 c 0,-0.01058 0,-0.01764 -0.05997,-0.07761 -0.440973,-0.444501 -0.553862,-1.111251 -0.553862,-1.651001 0,-0.613834 0.134056,-1.227668 0.567973,-1.66864 0.04586,-0.04233 0.04586,-0.04939 0.04586,-0.05997 0,-0.02469 -0.01411,-0.03528 -0.03528,-0.03528 -0.03528,0 -0.352778,0.239889 -0.560917,0.687917 -0.179916,0.388055 -0.22225,0.779639 -0.22225,1.075973 0,0.275166 0.03881,0.702028 0.232834,1.100667 0.211667,0.433917 0.515056,0.663223 0.550333,0.663223 0.02117,0 0.03528,-0.01058 0.03528,-0.03528 z"
         id="path20921" />
      <path
         d="m 16.673477,38.603918 c 0,-0.03528 -0.03528,-0.03528 -0.04586,-0.03528 -0.03175,0 -0.03881,0.01411 -0.04586,0.03528 -0.102306,0.328083 -0.331612,0.370417 -0.46214,0.370417 -0.186972,0 -0.497417,-0.151695 -0.497417,-0.719667 0,-0.575029 0.289278,-0.723195 0.476251,-0.723195 0.03175,0 0.254,0.0035 0.377472,0.130528 -0.144639,0.01058 -0.165805,0.116416 -0.165805,0.162277 0,0.09172 0.0635,0.162278 0.162277,0.162278 0.09172,0 0.162278,-0.05997 0.162278,-0.165805 0,-0.239889 -0.268111,-0.377473 -0.53975,-0.377473 -0.440972,0 -0.765528,0.381 -0.765528,0.818445 0,0.451556 0.34925,0.800806 0.758472,0.800806 0.472723,0 0.585612,-0.423333 0.585612,-0.458611 z"
         id="path20923" />
      <path
         d="m 17.795305,38.141779 c 0,-0.275167 -0.0388,-0.702029 -0.232833,-1.100668 -0.211667,-0.433917 -0.515056,-0.663222 -0.550334,-0.663222 -0.02117,0 -0.03528,0.01411 -0.03528,0.03528 0,0.01058 0,0.01764 0.06703,0.08114 0.345723,0.349251 0.546806,0.910168 0.546806,1.647474 0,0.60325 -0.130528,1.224139 -0.567973,1.66864 -0.04586,0.04233 -0.04586,0.04939 -0.04586,0.05997 0,0.02117 0.01411,0.03528 0.03528,0.03528 0.03528,0 0.352778,-0.239889 0.560917,-0.687917 0.179917,-0.388056 0.22225,-0.77964 0.22225,-1.075973 z"
         id="path20925" />
    </g>
    <g
       aria-label="(d)"
       id="text20418-4-6"
       style="font-size:3.52778px;line-height:1.25;font-family:'Latin Modern Roman';-inkscape-font-specification:'Latin Modern Roman, ';stroke-width:0.264583">
      <path
         d="m 43.821725,39.870391 c 0,-0.01058 0,-0.01764 -0.05997,-0.07761 -0.440973,-0.444501 -0.553862,-1.111251 -0.553862,-1.651001 0,-0.613834 0.134056,-1.227668 0.567973,-1.66864 0.04586,-0.04233 0.04586,-0.04939 0.04586,-0.05997 0,-0.02469 -0.01411,-0.03528 -0.03528,-0.03528 -0.03528,0 -0.352778,0.239889 -0.560917,0.687917 -0.179917,0.388055 -0.22225,0.779639 -0.22225,1.075973 0,0.275166 0.03881,0.702028 0.232834,1.100667 0.211666,0.433917 0.515055,0.663223 0.550333,0.663223 0.02117,0 0.03528,-0.01058 0.03528,-0.03528 z"
         id="path20928" />
      <path
         d="m 45.885476,39.023724 v -0.109362 c -0.246944,0 -0.275167,-0.02469 -0.275167,-0.197555 v -2.141363 l -0.508,0.03881 v 0.109361 c 0.246945,0 0.275167,0.02469 0.275167,0.197556 v 0.762 c -0.102306,-0.127 -0.254,-0.218722 -0.4445,-0.218722 -0.416278,0 -0.786695,0.345722 -0.786695,0.800806 0,0.448028 0.345722,0.797278 0.747889,0.797278 0.225778,0 0.384528,-0.119944 0.472722,-0.232833 v 0.232833 z m -0.518584,-0.416278 c 0,0.0635 0,0.07055 -0.03881,0.130527 -0.105833,0.169334 -0.264584,0.246945 -0.416278,0.246945 -0.15875,0 -0.28575,-0.09172 -0.370417,-0.225778 -0.09172,-0.144639 -0.102306,-0.345722 -0.102306,-0.490361 0,-0.130528 0.0071,-0.342195 0.109362,-0.500945 0.07408,-0.109361 0.208139,-0.225778 0.398639,-0.225778 0.123472,0 0.271639,0.05292 0.381,0.211667 0.03881,0.05997 0.03881,0.06703 0.03881,0.130528 z"
         id="path20930" />
      <path
         d="m 47.007309,38.141779 c 0,-0.275167 -0.0388,-0.702029 -0.232833,-1.100668 -0.211667,-0.433917 -0.515056,-0.663222 -0.550334,-0.663222 -0.02117,0 -0.03528,0.01411 -0.03528,0.03528 0,0.01058 0,0.01764 0.06703,0.08114 0.345723,0.349251 0.546806,0.910168 0.546806,1.647474 0,0.60325 -0.130528,1.224139 -0.567972,1.66864 -0.04586,0.04233 -0.04586,0.04939 -0.04586,0.05997 0,0.02117 0.01411,0.03528 0.03528,0.03528 0.03528,0 0.352778,-0.239889 0.560917,-0.687917 0.179917,-0.388056 0.22225,-0.77964 0.22225,-1.075973 z"
         id="path20932" />
    </g>
    <g
       aria-label="(e)"
       id="text20418-4-6-5"
       style="font-size:3.52778px;line-height:1.25;font-family:'Latin Modern Roman';-inkscape-font-specification:'Latin Modern Roman, ';stroke-width:0.264583">
      <path
         d="m 74.587342,39.963935 c 0,-0.01058 0,-0.01764 -0.05997,-0.07761 -0.440972,-0.444501 -0.553861,-1.111251 -0.553861,-1.651001 0,-0.613834 0.134055,-1.227668 0.567972,-1.66864 0.04586,-0.04233 0.04586,-0.04939 0.04586,-0.05997 0,-0.02469 -0.01411,-0.03528 -0.03528,-0.03528 -0.03528,0 -0.352778,0.239889 -0.560917,0.687917 -0.179917,0.388055 -0.222251,0.779639 -0.222251,1.075973 0,0.275166 0.03881,0.702028 0.232834,1.100667 0.211667,0.433917 0.515056,0.663223 0.550334,0.663223 0.02117,0 0.03528,-0.01058 0.03528,-0.03528 z"
         id="path20935" />
      <path
         d="m 76.255982,38.697462 c 0,-0.03528 -0.02822,-0.04233 -0.04586,-0.04233 -0.03175,0 -0.03881,0.02117 -0.04586,0.04939 -0.123472,0.363362 -0.440973,0.363362 -0.47625,0.363362 -0.176389,0 -0.317501,-0.105834 -0.39864,-0.236362 -0.105833,-0.169333 -0.105833,-0.402167 -0.105833,-0.529167 h 0.984251 c 0.07761,0 0.08819,0 0.08819,-0.07408 0,-0.34925 -0.1905,-0.691445 -0.631472,-0.691445 -0.409223,0 -0.733779,0.363361 -0.733779,0.804334 0,0.472723 0.370417,0.814917 0.776112,0.814917 0.430389,0 0.589139,-0.391583 0.589139,-0.458611 z m -0.232833,-0.469195 h -0.836084 c 0.02117,-0.525639 0.3175,-0.613834 0.437445,-0.613834 0.363361,0 0.398639,0.476251 0.398639,0.613834 z"
         id="path20937" />
      <path
         d="m 77.377811,38.235323 c 0,-0.275167 -0.03881,-0.702029 -0.232834,-1.100668 -0.211667,-0.433917 -0.515056,-0.663222 -0.550334,-0.663222 -0.02117,0 -0.03528,0.01411 -0.03528,0.03528 0,0.01058 0,0.01764 0.06703,0.08114 0.345723,0.349251 0.546806,0.910168 0.546806,1.647474 0,0.60325 -0.130528,1.224139 -0.567972,1.66864 -0.04586,0.04233 -0.04586,0.04939 -0.04586,0.05997 0,0.02117 0.01411,0.03528 0.03528,0.03528 0.03528,0 0.352778,-0.239889 0.560917,-0.687917 0.179917,-0.388056 0.222251,-0.77964 0.222251,-1.075973 z"
         id="path20939" />
    </g>
    <g
       aria-label="(b)"
       id="text20418-5"
       style="font-size:3.52778px;line-height:1.25;font-family:'Latin Modern Roman';-inkscape-font-specification:'Latin Modern Roman, ';stroke-width:0.264583">
      <path
         d="m 66.274591,4.8476748 c 0,-0.010583 0,-0.017639 -0.05997,-0.077611 -0.440972,-0.4445003 -0.553861,-1.1112507 -0.553861,-1.6510011 0,-0.6138337 0.134056,-1.2276674 0.567973,-1.6686399 0.04586,-0.042333 0.04586,-0.049389 0.04586,-0.059972 0,-0.024694 -0.01411,-0.035278 -0.03528,-0.035278 -0.03528,0 -0.352778,0.2398891 -0.560917,0.6879171 -0.179917,0.3880558 -0.22225,0.7796394 -0.22225,1.0759729 0,0.2751669 0.0388,0.7020283 0.232833,1.1006674 0.211667,0.433917 0.515056,0.6632227 0.550334,0.6632227 0.02117,0 0.03528,-0.010583 0.03528,-0.035278 z"
         id="path20914" />
      <path
         d="m 68.317175,3.2390071 c 0,-0.4480281 -0.345722,-0.7972783 -0.747889,-0.7972783 -0.275167,0 -0.426862,0.1658056 -0.483306,0.2293057 V 1.5527282 l -0.508,0.038806 V 1.700895 c 0.246944,0 0.275166,0.024694 0.275166,0.1975556 v 2.102557 h 0.08819 l 0.127,-0.2187224 c 0.05292,0.081139 0.201083,0.2575279 0.462139,0.2575279 0.419806,0 0.786695,-0.3457224 0.786695,-0.800806 z m -0.292806,-0.00353 c 0,0.1305278 -0.0071,0.3421947 -0.109361,0.5009448 -0.07408,0.1093611 -0.208139,0.2257779 -0.398639,0.2257779 -0.15875,0 -0.28575,-0.084667 -0.370417,-0.2151946 -0.04939,-0.074083 -0.04939,-0.084667 -0.04939,-0.1481668 V 2.8721179 c 0,-0.067028 0,-0.070556 0.03881,-0.127 0.137583,-0.1975557 0.331611,-0.225778 0.416278,-0.225778 0.15875,0 0.28575,0.091722 0.370417,0.225778 0.09172,0.1446389 0.102305,0.3457224 0.102305,0.4903614 z"
         id="path20916" />
      <path
         d="m 69.460175,3.1190625 c 0,-0.2751668 -0.03881,-0.7020282 -0.232833,-1.1006673 -0.211667,-0.433917 -0.515056,-0.6632227 -0.550334,-0.6632227 -0.02117,0 -0.03528,0.014111 -0.03528,0.035278 0,0.010583 0,0.017639 0.06703,0.081139 0.345722,0.3492502 0.546806,0.9101672 0.546806,1.6474732 0,0.6032504 -0.130528,1.2241397 -0.567973,1.66864 -0.04586,0.042333 -0.04586,0.049389 -0.04586,0.059972 0,0.021167 0.01411,0.035278 0.03528,0.035278 0.03528,0 0.352778,-0.2398891 0.560917,-0.6879171 0.179917,-0.3880558 0.22225,-0.7796394 0.22225,-1.075973 z"
         id="path20918" />
    </g>
  </g>
</svg>
